<?xml version="1.0" standalone="no"?>
<!DOCTYPE svg PUBLIC "-//W3C//DTD SVG 1.1//EN" "http://www.w3.org/Graphics/SVG/1.1/DTD/svg11.dtd">
<svg xmlns="http://www.w3.org/2000/svg">
<metadata>Generated by Fontastic.me</metadata>
<defs>
<font id="cap-collectif" horiz-adv-x="512">
<font-face font-family="cap-collectif" units-per-em="512" ascent="480" descent="-32"/>
<missing-glyph horiz-adv-x="512" />

<glyph glyph-name="bin-2" unicode="&#97;" d="M503 439l-145 0 0 60c0 5-3 9-8 9l-188 0c-5 0-8-4-8-9l0-60-145 0c-5 0-9-3-9-8 0-5 4-9 9-9l68 0 0-418 358 0 0 418 68 0c5 0 9 4 9 9 0 5-4 8-9 8z m-332-341c0-5-4-8-9-8-5 0-8 3-8 8l0 239c0 5 3 9 8 9 5 0 9-4 9-9z m0 393l170 0 0-52-170 0z m94-393c0-5-4-8-9-8-5 0-9 3-9 8l0 239c0 5 4 9 9 9 5 0 9-4 9-9z m93 0c0-5-3-8-8-8-5 0-9 3-9 8l0 239c0 5 4 9 9 9 5 0 8-4 8-9z"/>
<glyph glyph-name="gun" unicode="&#99;" d="M503 418l-25 0 0 26c0 4-4 8-9 8-4 0-8-4-8-8l0-9-103 0 0-42c0-5-3-9-8-9l-171 0c-5 0-8 4-8 9l0 42-34 0 0 26c0 5-4 8-9 8l-51 0c-5 0-9-3-9-8l0-26-17 0c-30 0-51-21-51-51l0-68 478 0 0 17 25 0c5 0 9 4 9 8l0 69c0 4-4 8-9 8z m-8-68l-17 0 0 51 17 0z m-307 77l153 0 0-26-153 0z m-179-128l-9 0 0-34c0-4 2-7 6-9 33-11 53-42 46-75l-35-128c0-2 0-5 2-7 1-2 4-3 7-3l176 0c5 0 9 3 9 8 0 5-4 9-9 9l-32 0 32 119 87 0c3 0 6 2 7 6l26 62 147 0c5 0 9 4 9 9l0 43z m274-103l-77 0 14 51 83 0z"/>
<glyph glyph-name="calendar-1" unicode="&#100;" d="M0 341l0-332c0-5 4-9 9-9l494 0c5 0 9 4 9 9l0 332z m256-76c0 4 4 8 9 8l102 0c3 0 5-1 7-4 2-2 2-5 1-8l-30-73 8 0c5 0 8-4 8-9 0-5-3-8-8-8l-14 0-32-80c-1-3-5-5-8-5-1 0-2 0-3 1-4 1-7 6-5 11l29 73-32 0c-4 0-8 3-8 8 0 5 4 9 8 9l39 0 27 68-81 0 0-11c0-4-4-8-8-8-5 0-9 4-9 8z m-96-49c-4-4-9-4-12 0-4 3-4 9 0 12l42 43c3 2 6 3 10 1 3-1 5-4 5-7l0-163 34 0c5 0 8-3 8-8 0-5-3-9-8-9l-85 0c-5 0-9 4-9 9 0 5 4 8 9 8l34 0 0 142z m352 142l0 94c0 5-4 9-9 9l-76 0 0 42c0 5-4 9-9 9l-68 0c-5 0-9-4-9-9l0-42-170 0 0 42c0 5-4 9-9 9l-68 0c-5 0-9-4-9-9l0-42-76 0c-5 0-9-4-9-9l0-94z m-154 137l52 0 0-68-52 0z m-204-68l-52 0 0 68 52 0z"/>
<glyph glyph-name="facebook" unicode="&#101;" d="M384 407c0 0-73 0-73 0-4 0-9-3-13-8-3-5-5-12-5-19 0 0 0-52 0-52 0 0 91 0 91 0 0 0 0-76 0-76 0 0-91 0-91 0 0 0 0-226 0-226 0 0-87 0-87 0 0 0 0 226 0 226 0 0-78 0-78 0 0 0 0 76 0 76 0 0 78 0 78 0 0 0 0 44 0 44 0 32 10 59 30 81 20 22 45 33 75 33 0 0 73 0 73 0 0 0 0-79 0-79"/>
<glyph glyph-name="linkedin" unicode="&#102;" d="M130 434c0-13-5-25-15-35-10-9-22-14-38-14-15 0-28 5-37 14-10 10-14 22-14 35 0 15 4 26 14 36 9 9 22 13 38 13 16 0 28-4 37-13 9-10 14-21 15-36m-101-404c0 0 0 316 0 316 0 0 98 0 98 0 0 0 0-316 0-316 0 0-98 0-98 0m156 215c0 29 0 63-2 101 0 0 85 0 85 0 0 0 5-44 5-44 0 0 2 0 2 0 21 34 53 51 98 51 34 0 61-11 82-34 21-23 31-57 31-102 0 0 0-187 0-187 0 0-98 0-98 0 0 0 0 175 0 175 0 46-17 68-50 68-24 0-41-12-50-36-2-5-3-13-3-25 0 0 0-182 0-182 0 0-100 0-100 0 0 0 0 215 0 215"/>
<glyph glyph-name="rss" unicode="&#103;" d="M61 451c108 0 199-39 275-115 77-76 115-167 115-275 0 0-61 0-61 0 0 91-32 169-96 232-64 64-142 96-233 96 0 0 0 62 0 62m0-122c75 0 138-26 190-79 53-52 79-115 79-189 0 0-61 0-61 0 0 57-20 106-61 146-40 41-89 61-147 61 0 0 0 61 0 61m59-152c16 0 29-5 41-17 11-11 17-25 17-41 0-16-6-29-17-41-12-11-25-17-41-17-16 0-30 6-41 17-12 12-18 25-18 41 0 16 6 30 18 41 11 12 25 17 41 17"/>
<glyph glyph-name="twitter" unicode="&#104;" d="M492 402c-13-18-29-35-49-50 0 0 0-12 0-12 0-44-10-87-30-128-21-41-53-76-96-104-43-28-92-42-148-42-55 0-104 14-149 43 5-1 13-1 24-1 45 0 85 13 120 40-21 1-40 8-56 20-17 12-28 28-34 48 3-1 9-2 17-2 9 0 18 1 26 3-23 5-41 16-56 34-14 18-21 38-21 61 0 0 0 1 0 1 12-6 27-11 43-12-29 20-43 47-43 81 0 16 4 32 13 48 53-64 119-98 200-100-2 6-3 13-3 21 0 27 9 50 28 68 19 19 42 28 69 28 28 0 51-9 70-29 20 4 41 11 61 22-7-22-21-40-42-53 19 3 38 8 56 15"/>
<glyph glyph-name="flickr" unicode="&#105;" d="M126 154c-27 0-51 10-71 30-19 20-29 44-29 72 0 29 9 53 29 73 19 19 43 29 71 29 28 0 52-10 71-29 20-20 29-44 29-73 0-28-10-52-29-72-20-20-44-30-71-30m260 0c-27 0-51 10-71 30-19 20-29 44-29 72 0 29 9 53 29 73 19 19 43 29 71 29 28 0 52-10 71-29 20-20 29-44 29-73 0-28-9-52-29-72-20-20-44-30-71-30"/>
<glyph glyph-name="gplus" unicode="&#109;" d="M51 370c0 19 4 37 13 52 9 15 18 26 29 33 10 7 22 13 35 18 13 4 23 7 29 7 6 1 10 1 13 1 0 0 118 0 118 0 0 0 0-2 0-2 0-7-14-13-40-18-10 0-16-1-20-3 14-7 23-17 28-29 5-12 7-29 7-49 0-35-11-62-35-81-13-13-19-22-19-28 0-6 8-17 25-32 36-31 54-62 54-92 0-47-20-80-60-99-23-11-48-17-76-17 0 0-2 0-2 0 0 0-3 1-3 1 0-1-1-1-2-1-8 0-17 1-27 2-10 2-23 6-39 11-15 5-28 15-38 29-9 14-14 32-14 53 0 20 5 38 16 52 11 14 25 23 43 29 17 5 32 9 45 11 12 2 24 3 36 3 0 0 1 0 1 0-6 8-10 16-12 24-3 9-4 15-4 20 0 0 1 7 1 7 0 0-8 0-8 0-21 0-40 6-56 16-25 15-38 42-38 82m190-232c-2 18-9 32-22 43-14 11-31 17-53 17 0 0-8 0-8 0-22-1-42-9-59-24-15-14-23-30-21-48 1-18 10-31 27-41 17-10 37-14 61-12 23 1 42 8 56 20 14 12 20 27 19 45m-31 256c-10 37-31 56-63 56-4 0-7-1-10-1-13-5-23-15-29-32-6-17-6-35-2-55 5-17 13-32 25-43 11-11 23-17 36-17 4 0 7 0 9 1 14 4 25 15 32 33 8 18 8 38 2 58m199-89c0 0 76 0 76 0 0 0 0-48 0-48 0 0-76 0-76 0 0 0 0-77 0-77 0 0-49 0-49 0 0 0 0 77 0 77 0 0-76 0-76 0 0 0 0 48 0 48 0 0 76 0 76 0 0 0 0 77 0 77 0 0 49 0 49 0 0 0 0-77 0-77"/>
<glyph glyph-name="instagram" unicode="&#110;" d="M389 256c0 9-1 17-3 26 0 0 90 0 90 0 0 0 0-177 0-177 0-19-6-35-20-49-13-13-29-20-48-20 0 0-304 0-304 0-19 0-35 7-48 20-14 14-20 30-20 49 0 0 0 177 0 177 0 0 89 0 89 0-1-11-2-20-2-26 0-36 13-67 39-94 26-26 57-39 94-39 36 0 67 13 94 39 26 27 39 58 39 94m19 220c19 0 35-6 48-20 14-13 20-29 20-48 0 0 0-75 0-75 0 0-111 0-111 0-27 37-63 56-109 56-47 0-83-19-109-56 0 0-111 0-111 0 0 0 0 75 0 75 0 19 6 35 20 48 13 14 29 20 48 20 0 0 304 0 304 0m32-85c0 0 0 37 0 37 0 8-4 12-12 12 0 0-37 0-37 0-8 0-12-4-12-12 0 0 0-37 0-37 0-3 1-5 3-8 3-3 6-4 9-4 0 0 37 0 37 0 8 0 12 4 12 12m-102-135c0-23-8-42-24-58-16-16-35-24-58-24-23 0-42 8-58 24-16 16-24 35-24 58 0 23 8 43 24 58 16 16 35 24 58 24 23 0 42-8 58-24 16-15 24-35 24-58"/>
<glyph glyph-name="magnifier" unicode="&#111;" d="M507 29l-185 185c26 32 42 72 42 116 0 100-82 182-182 182-100 0-182-82-182-182 0-100 82-182 182-182 44 0 84 16 116 42l185-185c3-3 8-5 12-5 4 0 9 2 12 5 7 7 7 17 0 24z m-325 153c-82 0-148 67-148 148 0 82 66 148 148 148 81 0 148-66 148-148 0-81-67-148-148-148z"/>
<glyph glyph-name="link" unicode="&#112;" d="M418 188c-32 0-61-17-78-42l-160 73c5 11 8 24 8 37 0 13-3 26-8 37l156 79c17-28 47-48 82-48 52 0 94 42 94 94 0 52-42 94-94 94-52 0-94-42-94-94 0-11 2-21 5-30l-157-80c-17 25-46 42-78 42-52 0-94-42-94-94 0-52 42-94 94-94 32 0 61 17 78 42l160-73c-5-11-8-24-8-37 0-52 42-94 94-94 52 0 94 42 94 94 0 52-42 94-94 94z"/>
<glyph glyph-name="mail-2" unicode="&#113;" d="M469 427l-426 0c-23 0-43-20-43-43l0-256c0-23 20-43 43-43l426 0c23 0 43 20 43 43l0 256c0 23-20 43-43 43z m-311-212l-76-51c-2-1-4-2-5-2-3 0-6 1-7 4-3 4-2 9 2 12l77 51c4 3 9 2 12-2 2-4 1-10-3-12z m284-49c-1-3-4-4-7-4-1 0-3 1-5 2l-76 51c-4 2-5 8-3 12 3 4 8 5 12 2l77-51c4-3 5-8 2-12z m-2 160l-179-120c-2-1-3-1-5-1-2 0-3 0-5 1l-179 120c-4 2-5 8-2 12 2 3 8 5 12 2l174-116 174 116c4 3 10 1 12-2 3-4 2-10-2-12z"/>
<glyph glyph-name="add-1" unicode="&#114;" d="M495 282l-222 0 0 208c0 10-8 18-17 18-9 0-17-8-17-18l0-208-217 0c-10 0-18-8-18-17 0-10 8-18 18-18l217 0 0-230c0-9 8-17 17-17 9 0 17 8 17 17l0 230 222 0c9 0 17 8 17 18 0 9-8 17-17 17z"/>
<glyph glyph-name="hand-like-2" unicode="&#115;" d="M512 282c0 22-20 42-43 42l-158 0c9 25 27 80 18 112-13 47-40 50-48 50-19 0-34-16-34-36 0-70-62-147-110-170l0-208c17-3 31-6 43-9 27-7 48-12 85-12l145 0c22 0 34 12 34 34 0 7-2 13-6 18 19 4 31 16 31 34 0 10-2 19-7 26 18 5 33 22 33 42 0 10-5 20-13 27 21 7 30 32 30 50z m-401 25l-102 0c-3 0-5 0-6-2-2-2-3-4-3-6l0-256c0-5 4-9 9-9l102 0c5 0 8 4 8 9l0 256c0 4-3 8-8 8z m-38-234c-6 0-11 5-11 11 0 6 5 10 11 10 6 0 11-4 11-10 0-6-5-11-11-11z"/>
<glyph glyph-name="hand-unlike-2" unicode="&#116;" d="M247 461l-145 0c-22 0-34-12-34-34 0-7 2-13 6-18-19-4-31-16-31-34 0-10 2-19 7-26-18-5-33-22-33-42 0-10 5-20 13-27-21-7-30-32-30-50 0-22 20-42 43-42l158 0c-9-25-27-80-18-112 13-47 40-50 48-50 19 0 34 16 34 36 0 70 62 147 110 170l0 208c-17 3-31 6-43 9-27 7-48 12-85 12z m256 17l-102 0c-5 0-8-4-8-9l0-256c0-4 3-8 8-8l102 0c0 0 0 0 0 0 3 0 5 0 6 2 2 2 3 4 3 6l0 256c0 5-4 9-9 9z m-64-60c-6 0-11 4-11 10 0 6 5 11 11 11 6 0 11-5 11-11 0-6-5-10-11-10z"/>
<glyph glyph-name="flag-1" unicode="&#117;" d="M43 512c-10 0-17-8-17-17l0-478c0-9 7-17 17-17 9 0 17 8 17 17l0 478c0 9-8 17-17 17z m423-62c-2 2-5 3-7 2-1 0-65-17-116-17-18 0-33 2-42 7-13 5-15 13-15 18 0 17-10 38-58 38-58 0-142-28-145-29-4-1-6-5-6-8l0-256c0-3 1-5 3-7 3-2 5-2 8-1 1 0 83 26 138 26 43 0 43-16 43-21 0-19 13-41 71-41 0 0 0 0 0 0 54 0 120 18 123 19 4 1 6 4 6 8l0 256c0 2-1 5-3 6z"/>
<glyph glyph-name="pencil-1" unicode="&#118;" d="M484 484c-16 17-43 17-59 0l-20-19 60-60 19 20c17 16 17 43 0 59z m-469-469l111 56-55 55z m126 66l-60 60 312 312 60-60z"/>
<glyph glyph-name="bubble-attention-6" unicode="&#119;" d="M276 121l82 156c3 6 14 6 17 0l47-88c34 33 54 76 54 122 0 106-105 192-234 192-129 0-233-86-233-192 0-48 24-97 67-133l-51-95c-2-3-1-7 1-10 2-2 4-2 6-2 1 0 3 0 4 0l129 61c21-6 48-13 77-13 12 0 23 1 34 2z m217-107l-118 237c-3 6-13 6-16 0l-119-239c-1-2-1-5 0-8 2-2 5-4 7-4l239 0c0 0 1 0 1 0 4 0 8 4 8 9 0 1-1 3-2 5z m-135 142c0 4 4 8 9 8 5 0 8-4 8-8l0-71c0-4-3-8-8-8-5 0-9 4-9 8z m9-130c-9 0-17 7-17 17 0 9 8 17 17 17 9 0 17-8 17-17 0-10-8-17-17-17z"/>
<glyph glyph-name="bubble-star-2" unicode="&#120;" d="M265 150c1 4 4 6 8 6l77 0 43 87c3 6 13 6 16 0l31-62c33 33 53 76 53 122 0 106-105 192-234 192-129 0-233-86-233-192 0-49 24-97 67-134l-51-94c-2-4-1-8 1-10 2-2 4-3 6-3 2 0 3 0 4 1l129 60c21-6 48-12 77-12 14 0 28 1 41 3l-32 27c-3 2-4 6-3 9z m190-57l52 46-60 0c-3 0-6 2-8 5l-38 76-38-76c-1-3-4-5-8-5l-59 0 55-46c2-2 3-6 2-9l-26-79 69 49c2 1 3 1 5 1 2 0 3 0 5-1l73-50-27 80c-1 3 0 7 3 9z"/>
<glyph glyph-name="bubble-check-2" unicode="&#121;" d="M393 265c26 0 51-8 71-21 8 18 12 38 12 59 0 106-105 192-234 192-129 0-233-86-233-192 0-49 24-97 67-134l-51-94c-2-4-1-8 1-10 2-2 4-3 6-3 1 0 3 0 4 1l129 60c21-6 48-12 77-12 5 0 10 0 15 0-1 6-1 11-1 17 0 75 61 137 137 137z m0-18c-66 0-120-53-120-119 0-66 54-119 120-119 65 0 119 53 119 119 0 66-54 119-119 119z m79-79l-97-107-62 61c-3 3-3 9 0 12 4 3 9 3 12 0l49-48 85 93c4 4 9 4 12 1 4-3 4-9 1-12z"/>
<glyph glyph-name="arrow-1" unicode="&#122;" d="M503 341l-298 0 0 103c0 3-2 6-5 8-4 1-7 0-10-2l-187-188c-4-3-4-9 0-12l187-188c2-1 4-2 6-2 1 0 2 0 4 0 3 2 5 5 5 8l0 103 298 0c5 0 9 3 9 8l0 154c0 5-4 8-9 8z"/>
<glyph glyph-name="arrow-2" unicode="&#65;" d="M510 262l-188 188c-3 2-6 3-10 2-3-2-5-5-5-8l0-103-298 0c-5 0-9-3-9-8l0-154c0-5 4-8 9-8l298 0 0-103c0-3 2-6 5-8 2 0 3 0 4 0 2 0 4 1 6 2l188 188c3 3 3 9 0 12z"/>
<glyph glyph-name="delete-1" unicode="&#66;" d="M280 256l227 227c7 7 7 17 0 24-7 7-17 7-24 0l-227-227-227 227c-7 7-17 7-24 0-7-7-7-17 0-24l227-227-227-227c-7-7-7-17 0-24 3-3 8-5 12-5 4 0 9 2 12 5l227 227 227-227c3-3 8-5 12-5 4 0 9 2 12 5 7 7 7 17 0 24z"/>
<glyph glyph-name="user-add-2" unicode="&#67;" d="M340 223l-39 14c-11 3-22 7-33 12-4 1-8 3-12 4l0 41c9 7 28 25 30 65 3 2 6 5 9 9 2 5 4 12 4 19 0 13-4 23-11 28 5 12 15 36 9 60-7 27-47 37-79 37-28 0-64-8-75-30-15 1-23-5-27-10-12-15-4-43 1-58 0 0 0 0 0 0-3-2-5-5-7-9-3-5-4-11-4-18 0-14 5-24 13-28 2-42 25-65 35-73l0-33c-14-5-29-10-44-14-49-16-91-30-99-54-10-32-11-89-11-91 0-2 1-5 2-6 2-2 4-3 7-3l267 0c-2 9-3 17-3 26 0 48 27 90 67 112z m61-1c-61 0-111-50-111-111 0-61 50-111 111-111 61 0 111 50 111 111 0 61-50 111-111 111z m54-120l-45 0 0-45c0-5-4-8-9-8-5 0-8 3-8 8l0 45-46 0c-4 0-8 4-8 9 0 5 4 8 8 8l46 0 0 46c0 4 3 8 8 8 5 0 9-4 9-8l0-46 45 0c5 0 8-3 8-8 0-5-3-9-8-9z"/>
<glyph glyph-name="user-minus-2" unicode="&#68;" d="M340 223l-39 14c-11 3-22 7-33 12-4 1-8 3-12 4l0 41c9 7 28 25 30 65 3 2 6 5 9 9 2 5 4 12 4 19 0 13-4 23-11 28 5 12 15 36 9 60-7 27-47 37-79 37-28 0-64-8-75-30-15 1-23-5-27-10-12-15-4-43 1-58 0 0 0 0 0 0-3-2-5-5-7-9-3-5-4-11-4-18 0-14 5-24 13-28 2-42 25-65 35-73l0-33c-14-5-29-10-44-14-49-16-91-30-99-54-10-32-11-89-11-91 0-2 1-5 2-6 2-2 4-3 7-3l267 0c-2 9-3 17-3 26 0 48 27 90 67 112z m61-1c-61 0-111-50-111-111 0-61 50-111 111-111 61 0 111 50 111 111 0 61-50 111-111 111z m51-120l-102 0c-5 0-9 4-9 9 0 5 4 8 9 8l102 0c5 0 9-3 9-8 0-5-4-9-9-9z"/>
<glyph glyph-name="clock-3" unicode="&#69;" d="M256 512c-141 0-256-115-256-256 0-141 115-256 256-256 141 0 256 115 256 256 0 141-115 256-256 256z m125-380c-2-2-4-3-7-3-2 0-4 1-5 2l-127 119c-2 1-3 4-3 6l0 118c0 5 4 9 8 9 5 0 9-4 9-9l0-114 124-116c4-3 4-9 1-12z"/>
<glyph glyph-name="link-1" unicode="&#70;" d="M444 350l-113 0c-32 0-58-26-58-60 0-9 8-17 17-17 10 0 17 8 17 17 0 15 10 26 24 26l113 0c19 0 34-16 34-34l0-52c0-18-15-34-34-34l-113 0c-24 0-24 2-24 9 0 9-7 17-17 17-9 0-17-8-17-17 0-43 39-43 58-43l113 0c37 0 68 31 68 68l0 52c0 37-31 68-68 68z m-222-128c-10 0-17-8-17-17 0-7 0-9-24-9l-113 0c-19 0-34 16-34 34l0 52c0 18 15 34 34 34l113 0c14 0 24-11 24-26 0-9 7-17 17-17 9 0 17 8 17 17 0 34-26 60-58 60l-113 0c-37 0-68-31-68-68l0-52c0-37 31-68 68-68l113 0c19 0 58 0 58 43 0 9-8 17-17 17z m-103 25c0-9 8-17 18-17l238 0c10 0 18 8 18 17 0 10-8 18-18 18l-238 0c-10 0-18-8-18-18z"/>
<glyph glyph-name="clip-2" unicode="&#71;" d="M255 512c-76 0-134-61-134-142l0-259c0-65 43-111 103-111 57 0 96 44 96 111l0 206c0 49-25 80-65 80-41 0-68-32-68-80l0-165c0-9 8-17 17-17 10 0 17 8 17 17l0 165c0 17 5 46 34 46 21 0 31-16 31-46l0-206c0-36-16-77-62-77-40 0-69 32-69 77l0 259c0 63 42 108 100 108 56 0 97-45 97-108l0-187c0-9 8-17 17-17 10 0 17 8 17 17l0 187c0 81-56 142-131 142z"/>
<glyph glyph-name="link-1-1" unicode="&#74;" d="M452 341l-121 0c-28 0-49-22-49-51 0-5 3-8 8-8 5 0 9 3 9 8 0 20 14 34 32 34l121 0c24 0 43-19 43-42l0-52c0-23-19-42-43-42l-121 0c-28 0-32 4-32 17 0 5-4 8-9 8-5 0-8-3-8-8 0-34 30-34 49-34l121 0c33 0 60 26 60 59l0 52c0 33-27 59-60 59z m-392-170l121 0c19 0 49 0 49 34 0 5-3 8-8 8-5 0-9-3-9-8 0-13-4-17-32-17l-121 0c-24 0-43 19-43 42l0 52c0 23 19 42 43 42l121 0c18 0 32-14 32-34 0-5 4-8 9-8 5 0 8 3 8 8 0 29-21 51-49 51l-121 0c-33 0-60-26-60-59l0-52c0-33 27-59 60-59z m68 76c0-4 4-8 9-8l238 0c5 0 9 4 9 8 0 5-4 9-9 9l-238 0c-5 0-9-4-9-9z"/>
<glyph glyph-name="magnifier-1" unicode="&#75;" d="M313 211c0 0-1 1-2 1 29 32 47 74 47 121 0 99-80 179-179 179-99 0-179-80-179-179 0-99 80-179 179-179 47 0 89 18 121 47 0-1 1-2 1-2l196-197c2-1 4-2 6-2 3 0 5 1 7 2 3 4 3 9 0 13z m-134-40c-89 0-162 72-162 162 0 89 73 162 162 162 90 0 162-73 162-162 0-90-72-162-162-162z"/>
<glyph glyph-name="pencil-1-1" unicode="&#76;" d="M15 6c1 0 3 1 4 1l119 60c1 1 2 1 3 2l349 350c10 9 16 22 16 36 0 13-6 26-16 35-9 10-22 16-35 16-14 0-27-6-36-16l-350-349c-1-1-1-2-2-3l-60-119c-1-3-1-7 2-10 2-2 4-3 6-3z m384 441l48-48-313-312-47 47z m32 31c13 13 34 13 47 0 7-6 10-15 10-24 0-8-3-17-10-23l-19-20-48 48z m-354-358l43-43-86-43z"/>
<glyph glyph-name="flag-1-1" unicode="&#77;" d="M51 13l0 486c0 5-4 9-8 9-5 0-9-4-9-9l0-486c0-5 4-9 9-9 4 0 8 4 8 9z m17 452l0-256c0-3 2-5 4-7 2-1 5-2 7-1 1 0 83 26 138 26 44 0 44-15 44-21 0-18 12-41 71-41 0 0 0 0 0 0 53 0 120 18 123 19 3 1 6 4 6 8l0 256c0 3-1 5-4 7-2 1-4 2-7 1-1 0-65-17-116-17 0 0 0 0 0 0-18 0-32 3-42 7-13 5-14 13-14 19 0 17-10 37-59 37-58 0-141-28-145-29-3-1-6-4-6-8z m17-6c20 6 88 26 134 26 42 0 42-15 42-20 0-11 4-26 24-35 12-5 29-8 49-8l0 0c41 0 89 10 110 15l0-238c-18-5-70-17-112-17l0 0c-36 0-54 8-54 24 0 18-11 38-61 38-46 0-107-16-132-23l0 238z"/>
<glyph glyph-name="hand-like-2-1" unicode="&#78;" d="M469 324l-158 0c9 25 27 80 18 112-13 47-40 50-48 50-19 0-34-16-34-36 0-79-79-166-128-176l0 25c0 4-3 8-8 8l-102 0c-5 0-9-4-9-8l0-256c0-5 4-9 9-9l102 0c5 0 8 4 8 9l0 32c26-4 45-8 61-12 27-7 48-12 85-12l145 0c22 0 34 12 34 34 0 7-2 13-6 18 19 4 31 16 31 34 0 10-2 19-7 26 18 5 33 22 33 42 0 10-5 20-13 27 21 7 30 32 30 50 0 22-20 42-43 42z m-367-273l-85 0 0 239 85 0z m367 196l-27 0c-4 0-8-3-8-8 0-5 4-9 8-9 19 0 36-12 36-25 0-13-13-26-26-26l-25 0c-5 0-9-4-9-8 0-5 4-9 9-9 25 0 25-19 25-25 0-16-19-18-25-18l-26 0c-5 0-8-3-8-8 0-5 3-9 8-9 6 0 26-1 26-17 0-13-4-17-17-17l-145 0c-35 0-55 5-81 11-17 5-37 9-65 14l0 164c28 4 61 27 91 62 35 42 55 89 55 131 0 11 7 19 16 19 10 0 24-10 31-37 9-29-12-92-21-113-1-3-1-6 1-8 1-2 4-4 7-4l170 0c13 0 26-12 26-25 0-14-8-35-26-35z m-385-163c0-6-5-11-11-11-6 0-11 5-11 11 0 6 5 10 11 10 6 0 11-4 11-10z"/>
<glyph glyph-name="hand-unlike-2-1" unicode="&#79;" d="M503 478l-102 0c-5 0-8-4-8-9l0-32c-26 4-45 8-61 12-27 7-48 12-85 12l-145 0c-22 0-34-12-34-34 0-7 2-13 6-18-19-4-31-16-31-34 0-10 2-19 7-26-18-5-33-22-33-42 0-10 5-20 13-27-21-7-30-32-30-50 0-22 20-42 43-42l158 0c-9-25-27-80-18-112 13-47 40-50 48-50 19 0 34 16 34 36 0 79 79 166 128 176l0-25c0-4 3-8 8-8l102 0c0 0 0 0 0 0 3 0 5 0 6 2 2 2 3 4 3 6l0 256c0 5-4 9-9 9z m-201-285c-35-42-55-89-55-131 0-11-7-19-16-19-10 0-24 10-31 37-9 29 12 92 21 113 1 3 1 6-1 8-1 2-4 4-7 4l-170 0c-13 0-26 12-26 25 0 14 8 35 26 35l27 0c4 0 8 3 8 8 0 5-4 9-8 9-19 0-36 12-36 25 0 13 13 26 26 26l25 0c5 0 9 4 9 8 0 5-4 9-9 9-25 0-25 19-25 25 0 16 19 18 25 18l26 0c5 0 8 3 8 8 0 5-3 9-8 9-6 0-26 1-26 17 0 13 4 17 17 17l145 0c35 0 55-5 81-11 17-5 37-9 65-14l0-164c-28-4-61-27-91-62z m193 29l-85 0 0 239 85 0z m-45 206c0-6-5-10-11-10-6 0-11 4-11 10 0 6 5 11 11 11 6 0 11-5 11-11z"/>
<glyph glyph-name="bubble-attention-6-1" unicode="&#80;" d="M230 512c-127 0-230-86-230-191 0-52 22-97 62-132l-44-91c-2-4-1-7 1-10 2-2 4-3 7-3 1 0 2 1 3 1l120 53c21-6 44-10 64-11l1 17c-20 1-43 5-63 12-2 0-4 0-6-1l-101-45 37 77c2 3 1 8-3 10-40 32-61 75-61 123 0 96 96 174 213 174 120 0 222-80 222-174 0-11-1-21-4-31l17-4c3 11 4 23 4 35 0 103-109 191-239 191z m129-244l-128-256c-1-2-1-5 1-8 1-2 4-4 7-4l256 0c0 0 0 0 0 0 5 0 9 4 9 9 0 1-1 3-2 5l-127 254c-3 6-13 6-16 0z m-106-251l114 228 114-228z m105 145l0-68c0-5 4-9 9-9 5 0 8 4 8 9l0 68c0 5-3 9-8 9-5 0-9-4-9-9z m26-111c0-9-8-17-17-17-9 0-17 8-17 17 0 10 8 17 17 17 9 0 17-7 17-17z"/>
<glyph glyph-name="bubble-check-2-1" unicode="&#81;" d="M231 495c-127 0-231-86-231-192 0-51 22-96 63-131l-45-91c-1-4-1-8 2-10 1-2 4-3 6-3 1 0 2 1 3 1l120 53c21-6 44-10 64-11l1 17c-19 1-43 5-63 11-2 1-4 1-6 0l-101-45 37 77c2 3 1 8-2 10-41 32-62 74-62 122 0 97 96 175 214 175 120 0 221-80 221-175 0-10-1-20-3-31l16-3c3 11 4 23 4 34 0 104-109 192-238 192z m153-239c-71 0-128-57-128-128 0-71 57-128 128-128 70 0 128 57 128 128 0 71-58 128-128 128z m0-239c-61 0-111 50-111 111 0 61 50 111 111 111 61 0 111-50 111-111 0-61-50-111-111-111z m62 159l-80-87-44 45c-4 3-9 3-12 0-4-3-4-9 0-12l57-58 91 101c4 3 3 9 0 12-4 3-9 3-12-1z"/>
<glyph glyph-name="bubble-star-2-1" unicode="&#82;" d="M465 286c3 11 4 23 4 35 0 103-109 191-239 191-127 0-230-86-230-191 0-52 22-97 62-132l-44-91c-2-4-1-7 1-10 2-2 4-3 7-3 1 0 2 1 3 1l120 53c21-6 44-10 64-11l1 17c-20 1-43 5-63 12-2 0-4 0-6-1l-101-45 37 77c2 3 1 8-3 10-40 32-61 75-61 123 0 96 96 174 213 174 120 0 222-80 222-174 0-11-1-21-4-31z m38-115l-71 0-40 80c-3 6-13 6-16 0l-40-80-71 0c-4 0-7-3-8-6-2-3-1-7 2-9l62-53-30-92c-1-3 0-7 3-9 1-1 3-2 5-2 2 0 3 1 5 1l81 56 79-55c3-3 7-3 10 0 3 2 5 6 3 9l-28 92 60 53c3 2 4 6 2 9-1 3-4 6-8 6z m-70-59c-2-2-3-6-2-9l23-73-64 45c-1 1-3 1-5 1-2 0-3 0-5-1l-65-45 24 73c2 3 1 7-2 9l-49 42 53 0c4 0 7 1 8 4l35 70 35-70c1-3 4-4 8-4l54 0z"/>
<glyph glyph-name="link-2" unicode="&#83;" d="M418 324c52 0 94 42 94 94 0 52-42 94-94 94-52 0-94-42-94-94 0-11 2-21 5-30l-157-80c-17 25-46 42-78 42-52 0-94-42-94-94 0-52 42-94 94-94 32 0 61 17 78 42l160-73c-5-11-8-24-8-37 0-52 42-94 94-94 52 0 94 42 94 94 0 52-42 94-94 94-32 0-61-17-78-42l-160 73c5 11 8 24 8 37 0 13-3 26-8 37l156 79c17-28 47-48 82-48z m0-153c42 0 77-35 77-77 0-42-35-77-77-77-42 0-77 35-77 77 0 42 35 77 77 77z m-324 8c-42 0-77 35-77 77 0 42 35 77 77 77 42 0 77-35 77-77 0-42-35-77-77-77z m324 316c42 0 77-35 77-77 0-42-35-77-77-77-42 0-77 35-77 77 0 42 35 77 77 77z"/>
<glyph glyph-name="mail-2-1" unicode="&#84;" d="M469 427l-426 0c-23 0-43-20-43-43l0-256c0-23 20-43 43-43l426 0c23 0 43 20 43 43l0 256c0 23-20 43-43 43z m26-299c0-13-13-26-26-26l-426 0c-13 0-26 13-26 26l0 256c0 13 13 26 26 26l426 0c13 0 26-13 26-26z m-65 212l-174-116-174 116c-4 3-10 1-12-2-3-4-2-10 2-12l179-120c2-1 3-1 5-1 2 0 3 0 5 1l179 120c4 2 5 8 2 12-2 3-8 5-12 2z m-281-111l-77-51c-4-3-5-8-2-12 1-3 4-4 7-4 1 0 3 1 5 2l76 51c4 2 5 8 3 12-3 4-8 5-12 2z m214 0c-4 3-9 2-12-2-2-4-1-10 3-12l76-51c2-1 4-2 5-2 3 0 6 1 7 4 3 4 2 9-2 12z"/>
<glyph glyph-name="user-add-2-1" unicode="&#85;" d="M401 222c-61 0-111-50-111-111 0-61 50-111 111-111 61 0 111 50 111 111 0 61-50 111-111 111z m0-205c-52 0-94 42-94 94 0 52 42 94 94 94 52 0 94-42 94-94 0-52-42-94-94-94z m54 102l-45 0 0 46c0 4-4 8-9 8-5 0-8-4-8-8l0-46-46 0c-4 0-8-3-8-8 0-5 4-9 8-9l46 0 0-45c0-5 3-8 8-8 5 0 9 3 9 8l0 45 45 0c5 0 8 4 8 9 0 5-3 8-8 8z m-446-34l221 0 0 17-213 0c1 17 3 55 10 78 6 15 50 30 89 42 16 6 33 11 49 17 3 2 6 5 6 8l0 43c0 3-2 6-4 7-1 1-32 22-32 68 0 5-3 9-8 9-1 0-4 5-4 13 0 8 3 13 4 13 5 0 8 3 8 8 0 2 0 5-2 11-3 9-10 35-3 43 3 4 11 4 17 2 4-1 9 2 10 7 3 14 29 24 61 24 0 0 0 0 0 0 33 0 58-10 62-24 5-19-3-39-8-50-2-6-3-8-3-11 0-5 4-9 9-9 1 0 4-5 4-14 0-8-3-13-4-13-5 0-9-4-9-9 0-45-24-58-25-59-3-1-5-4-5-7l0-52c0-3 2-6 5-8 6-2 12-4 17-6 12-5 23-9 35-13l5 17c-11 3-22 7-33 12-4 1-8 3-12 4l0 41c9 7 28 25 30 65 3 2 6 5 9 9 2 5 4 12 4 19 0 13-4 23-11 28 5 12 15 36 9 60-7 27-47 37-79 37 0 0 0 0 0 0-28 0-64-8-75-30-11 1-20-2-25-8-14-15-6-44-1-60 0 0 0 0 0 0-3-2-5-5-7-9-3-5-4-11-4-18 0-14 5-24 13-28 2-42 25-65 35-73l0-33c-14-5-29-10-44-14-49-16-91-30-99-54-10-32-11-89-11-91 0-2 1-5 2-6 2-2 4-3 7-3z"/>
<glyph glyph-name="user-minus-2-1" unicode="&#86;" d="M401 222c-61 0-111-50-111-111 0-61 50-111 111-111 61 0 111 50 111 111 0 61-50 111-111 111z m0-205c-52 0-94 42-94 94 0 52 42 94 94 94 52 0 94-42 94-94 0-52-42-94-94-94z m51 102l-102 0c-5 0-9-3-9-8 0-5 4-9 9-9l102 0c5 0 9 4 9 9 0 5-4 8-9 8z m-443-34l221 0 0 17-213 0c1 17 3 55 10 78 6 15 50 30 89 42 16 6 33 11 49 17 3 2 6 5 6 8l0 43c0 3-2 6-4 7-1 1-32 22-32 68 0 5-3 9-8 9-1 0-4 5-4 13 0 8 3 13 4 13 5 0 8 3 8 8 0 2 0 5-2 11-3 9-10 35-3 43 3 4 11 4 17 2 4-1 9 2 10 7 3 14 29 24 61 24 0 0 0 0 0 0 33 0 58-10 62-24 5-19-3-39-8-50-2-6-3-8-3-11 0-5 4-9 9-9 1 0 4-5 4-14 0-8-3-13-4-13-5 0-9-4-9-9 0-45-24-58-25-59-3-1-5-4-5-7l0-52c0-3 2-6 5-8 6-2 12-4 17-6 12-5 23-9 35-13l5 17c-11 3-22 7-33 12-4 1-8 3-12 4l0 41c9 7 28 25 30 65 3 2 6 5 9 9 2 5 4 12 4 19 0 13-4 23-11 28 5 12 15 36 9 60-7 27-47 37-79 37 0 0 0 0 0 0-28 0-64-8-75-30-11 1-20-2-25-8-14-15-6-44-1-60 0 0 0 0 0 0-3-2-5-5-7-9-3-5-4-11-4-18 0-14 5-24 13-28 2-42 25-65 35-73l0-33c-14-5-29-10-44-14-49-16-91-30-99-54-10-32-11-89-11-91 0-2 1-5 2-6 2-2 4-3 7-3z"/>
<glyph glyph-name="connection-2" unicode="&#73;" d="M0 254c0-15 0-33 10-43 2-2 4-4 7-5l0-87 85 0 0 87c6 3 12 8 15 19 2 9 2 20 2 29l0 70-119 0z m393 70l0-68c0-20 6-35 17-41l0-96 85 0 0 97c11 6 17 23 17 40l0 68z m-222-119c0-28 13-47 34-51l0-120 102 0 0 120c21 4 34 23 34 51l0 119-170 0z m281 136c24 0 43 19 43 43 0 24-19 43-43 43-23 0-42-19-42-43 0-24 19-43 42-43z m-392 0c23 0 42 19 42 43 0 24-19 43-42 43-24 0-43-19-43-43 0-24 19-43 43-43z m196 0c38 0 68 31 68 69 0 37-30 68-68 68-38 0-68-31-68-68 0-38 30-69 68-69z"/>
<glyph glyph-name="connection-2" unicode="&#88;" d="M17 206l0-87 85 0 0 87c6 3 12 8 15 19 2 9 2 20 2 29l0 70-119 0 0-70c0-15 0-33 10-43 2-2 4-4 7-5z m0 101l85 0 0-53c0-8 0-18-1-25-2-7-5-7-7-7l-9 0 0-85-51 0 0 85-8 0c-3 0-4 1-4 1-5 5-5 21-5 31z m478-188l0 97c11 6 17 23 17 40l0 68-119 0 0-68c0-20 6-35 17-41l0-96z m-85 188l85 0 0-51c0-15-6-25-9-26l-8 0 0-93-51 0 0 85-1 8-8 0c-2 1-8 9-8 26z m-103-273l0 120c21 4 34 23 34 51l0 119-170 0 0-119c0-28 13-47 34-51l0-120z m-119 171l0 102 136 0 0-102c0-13-3-34-25-34l-9 0 0-120-68 0 0 120-9 0c-22 0-25 21-25 34z m307 179c0 24-19 43-43 43-23 0-42-19-42-43 0-24 19-43 42-43 24 0 43 19 43 43z m-68 0c0 14 11 26 25 26 14 0 26-12 26-26 0-14-12-26-26-26-14 0-25 12-25 26z m-410 0c0-24 19-43 43-43 23 0 42 19 42 43 0 24-19 43-42 43-24 0-43-19-43-43z m68 0c0-14-11-26-25-26-14 0-26 12-26 26 0 14 12 26 26 26 14 0 25-12 25-26z m103 26c0-38 30-69 68-69 38 0 68 31 68 69 0 37-30 68-68 68-38 0-68-31-68-68z m68 51c28 0 51-23 51-51 0-29-23-52-51-52-28 0-51 23-51 52 0 28 23 51 51 51z"/>
<glyph glyph-name="add-1-1" unicode="&#72;" d="M9 256l230 0 0-239c0-5 4-8 8-8 5 0 9 3 9 8l0 239 226 0c5 0 8 4 8 9 0 4-3 8-8 8l-226 0 0 217c0 5-4 9-9 9-4 0-8-4-8-9l0-217-230 0c-5 0-9-4-9-8 0-5 4-9 9-9z"/>
<glyph glyph-name="delete-1-1" unicode="&#87;" d="M510 509c-4 4-9 4-13 0l-241-241-241 241c-4 4-9 4-12 0-4-3-4-8 0-12l241-241-241-241c-4-4-4-9 0-13 1-1 3-2 6-2 2 0 4 1 6 2l241 242 241-242c2-1 4-2 6-2 3 0 5 1 7 2 3 4 3 9 0 13l-242 241 242 241c3 4 3 9 0 12z"/>
<glyph glyph-name="calendar-1-1" unicode="&#89;" d="M503 461l-76 0 0 42c0 5-4 9-9 9l-68 0c-5 0-9-4-9-9l0-42-170 0 0 42c0 5-4 9-9 9l-68 0c-5 0-9-4-9-9l0-42-76 0c-5 0-9-4-9-9l0-443c0-5 4-9 9-9l494 0c5 0 9 4 9 9l0 443c0 5-4 9-9 9z m-145 34l52 0 0-68-52 0z m-204 0l0-68-52 0 0 22c1 1 1 2 1 3 0 1 0 3-1 4l0 39z m-69-51l0-26c0-5 4-8 9-8l68 0c5 0 9 3 9 8l0 26 170 0 0-26c0-5 4-8 9-8l68 0c5 0 9 3 9 8l0 26 68 0 0-86-478 0 0 86z m-68-427l0 324 478 0 0-324z m222 85l-34 0 0 163c0 3-2 6-5 7-4 2-7 1-10-1l-42-43c-4-3-4-9 0-12 3-4 8-4 12 0l28 28 0-142-34 0c-5 0-9-3-9-8 0-5 4-9 9-9l85 0c5 0 8 4 8 9 0 5-3 8-8 8z m128 171l-102 0c-5 0-9-4-9-8l0-20c0-4 4-8 9-8 4 0 8 4 8 8l0 11 81 0-27-68-39 0c-4 0-8-4-8-9 0-5 4-8 8-8l32 0-29-73c-2-5 0-10 5-11 1-1 2-1 3-1 3 0 7 2 8 5l32 80 14 0c5 0 8 3 8 8 0 5-3 9-8 9l-8 0 30 73c1 3 1 6-1 8-2 3-4 4-7 4z"/>
<glyph glyph-name="clock-3-1" unicode="&#90;" d="M256 512c-141 0-256-115-256-256 0-141 115-256 256-256 141 0 256 115 256 256 0 141-115 256-256 256z m0-495c-132 0-239 107-239 239 0 132 107 239 239 239 132 0 239-107 239-239 0-132-107-239-239-239z m0 243l0 114c0 5-4 9-9 9-4 0-8-4-8-9l0-118c0-2 1-5 3-6l127-119c1-1 3-2 5-2 3 0 5 1 7 3 3 3 3 9-1 12z"/>
<glyph glyph-name="marker-1-1" unicode="&#48;" d="M256 0c3 0 5 1 7 3 7 10 172 234 172 330 0 99-80 179-179 179-99 0-179-80-179-179 0-96 165-320 172-330 2-2 4-3 7-3z m0 495c89 0 162-73 162-162 0-80-130-266-162-310-32 44-162 230-162 310 0 89 73 162 162 162z m77-162c0 42-35 77-77 77-42 0-77-35-77-77 0-43 35-77 77-77 42 0 77 34 77 77z m-137 0c0 33 27 60 60 60 33 0 60-27 60-60 0-33-27-60-60-60-33 0-60 27-60 60z"/>
<glyph glyph-name="arrow-1-1" unicode="&#49;" d="M190 62c2-1 4-2 6-2 1 0 2 0 4 0 3 2 5 5 5 8l0 103 298 0c5 0 9 3 9 8l0 154c0 5-4 8-9 8l-298 0 0 103c0 3-2 6-5 8-4 1-7 0-10-2l-187-188c-4-3-4-9 0-12z m-2 361l0-90c0-5 4-9 8-9l299 0 0-136-299 0c-4 0-8-4-8-9l0-90-167 167z"/>
<glyph glyph-name="arrow-2-1" unicode="&#50;" d="M9 171l298 0 0-103c0-3 2-6 5-8 2 0 3 0 4 0 2 0 4 1 6 2l188 188c3 3 3 9 0 12l-188 188c-3 2-6 3-10 2-3-2-5-5-5-8l0-103-298 0c-5 0-9-3-9-8l0-154c0-5 4-8 9-8z m8 153l299 0c4 0 8 4 8 9l0 90 167-167-167-167 0 90c0 5-4 9-8 9l-299 0z"/>
<glyph glyph-name="bin-2-1" unicode="&#51;" d="M503 444l-145 0 0 59c0 5-3 9-8 9l-188 0c-5 0-8-4-8-9l0-59-145 0c-5 0-9-4-9-9 0-5 4-8 9-8l59 0 0-418c0-5 4-9 9-9l358 0c5 0 9 4 9 9l0 418 59 0c5 0 9 3 9 8 0 5-4 9-9 9z m-332 51l170 0 0-51-170 0z m256-478l-342 0 0 410 342 0z m-265 333c-5 0-8-4-8-9l0-239c0-4 3-8 8-8 5 0 9 4 9 8l0 239c0 5-4 9-9 9z m94 0c-5 0-9-4-9-9l0-239c0-4 4-8 9-8 5 0 9 4 9 8l0 239c0 5-4 9-9 9z m85-9l0-239c0-4 4-8 9-8 5 0 8 4 8 8l0 239c0 5-3 9-8 9-5 0-9-4-9-9z"/>
<glyph glyph-name="connection-2-1" unicode="&#73;" d="M0 254c0-15 0-33 10-43 2-2 4-4 7-5l0-87 85 0 0 87c6 3 12 8 15 19 2 9 2 20 2 29l0 70-119 0z m393 70l0-68c0-20 6-35 17-41l0-96 85 0 0 97c11 6 17 23 17 40l0 68z m-222-119c0-28 13-47 34-51l0-120 102 0 0 120c21 4 34 23 34 51l0 119-170 0z m281 136c24 0 43 19 43 43 0 24-19 43-43 43-23 0-42-19-42-43 0-24 19-43 42-43z m-392 0c23 0 42 19 42 43 0 24-19 43-42 43-24 0-43-19-43-43 0-24 19-43 43-43z m196 0c38 0 68 31 68 69 0 37-30 68-68 68-38 0-68-31-68-68 0-38 30-69 68-69z"/>
<glyph glyph-name="arrow-66" unicode="&#52;" d="M396 268l-256 239c-7 7-18 6-24 0-7-7-7-18 0-25l243-226-243-226c-7-7-7-18 0-25 3-3 7-5 12-5 4 0 8 2 12 5l256 239c3 3 5 7 5 12 0 5-2 9-5 12z"/>
<glyph glyph-name="arrow-67" unicode="&#53;" d="M507 396c-7 7-18 7-25 0l-226-243-226 243c-7 7-18 7-25 0-6-6-7-17 0-24l239-256c3-3 7-5 12-5 5 0 9 2 12 5l239 256c7 7 6 18 0 24z"/>
<glyph glyph-name="arrow-68" unicode="&#54;" d="M507 140l-239 256c-6 7-18 7-24 0l-239-256c-7-7-6-18 0-24 7-7 18-6 25 0l226 243 226-243c4-3 8-5 13-5 4 0 8 2 12 5 6 6 7 17 0 24z"/>
<glyph glyph-name="arrow-65" unicode="&#55;" d="M136 256l243 226c6 7 7 18 0 25-6 6-17 7-24 0l-256-239c-3-3-5-7-5-12 0-5 2-9 5-12l256-239c4-3 8-5 12-5 4 0 9 2 12 5 7 7 6 18 0 25z"/>
<glyph glyph-name="arrow-66-1" unicode="&#56;" d="M105 3c2-2 4-3 7-3 2 0 4 1 6 2l256 248c1 1 2 4 2 6 0 2-1 5-2 6l-256 248c-4 3-9 3-13-1-3-3-3-8 1-12l249-241-249-241c-4-4-4-9-1-12z"/>
<glyph glyph-name="arrow-67-1" unicode="&#57;" d="M498 355l-241-250-241 250c-4 4-9 4-13 0-3-3-3-8 0-12l248-256c1-1 4-2 6-2 2 0 4 1 6 2l247 256c4 4 4 9 0 12-3 4-9 4-12 0z"/>
<glyph glyph-name="arrow-68-1" unicode="&#33;" d="M263 415c-3 3-9 3-12 0l-248-256c-3-4-3-9 0-12 4-3 9-3 13 0l241 250 241-250c2-2 4-3 6-3 2 0 5 1 6 3 4 3 4 8 0 12z"/>
<glyph glyph-name="arrow-65-1" unicode="&#34;" d="M357 509c-4 4-9 4-12 1l-256-248c-2-1-3-4-3-6 0-2 1-5 3-6l256-248c1-1 3-2 6-2 2 0 4 1 6 3 3 3 3 8-1 12l-249 241 249 241c4 4 4 9 1 12z"/>
<glyph glyph-name="clip-1" unicode="&#36;" d="M471 430c-51 52-138 52-190 0l-249-249c-40-40-40-102-1-141 20-20 45-30 70-30 26 0 51 10 71 30l241 241c23 23 23 59 0 83-11 11-26 17-41 17-15 0-30-6-41-17l-175-175c-6-7-6-17 0-24 7-7 18-7 24 0l175 174c9 10 25 10 34 0 10-9 10-24 0-34l-241-241c-26-26-67-26-93 0-26 26-25 66 1 93l249 249c39 38 104 38 142 0 19-19 29-42 29-67 0-25-10-48-29-67l-179-179c-7-7-7-18 0-24 6-7 17-7 24 0l179 179c25 25 39 57 39 91 0 34-14 66-39 91z"/>
<glyph glyph-name="download-2-1" unicode="&#39;" d="M85 0l342 0c39 0 68 29 68 68l0 41c0 5-4 9-9 9-4 0-8-4-8-9l0-41c0-29-22-51-51-51l-342 0c-29 0-51 22-51 51l0 41c0 5-4 9-8 9-5 0-9-4-9-9l0-41c0-39 29-68 68-68z m173 105c0 0 0 0 0 0 1-1 2-1 3-2 0 0 0 0 0 0 1 0 2-1 4-1 1 0 2 1 3 1 0 0 0 0 0 0 1 1 2 1 3 2 0 0 0 0 0 0l145 154c3 3 3 9-1 12-3 3-8 3-12-1l-130-138 0 346c0 5-4 8-8 8-5 0-9-3-9-8l0-346-130 138c-4 4-9 4-12 1-4-3-4-9-1-12z"/>
<glyph glyph-name="baloon" unicode="&#40;" d="M256 486c-141 0-256-94-256-210 0-54 27-107 74-147l-56-104c-2-4-1-8 1-10 2-2 4-3 6-3 1 0 3 0 4 1l142 67c23-7 52-14 85-14 141 0 256 94 256 210 0 116-115 210-256 210z"/>
<glyph glyph-name="download-6" unicode="&#41;" d="M512 162c0 1 0 2-1 3 0 1-1 2-2 3l0 0-86 86c-1 1-3 2-6 2l-53 0c-5 0-9-4-9-9 0-4 4-8 9-8l50 0 69-68-133 0c-5 0-9-4-9-9l0-43-170 0 0 43c0 5-4 9-9 9l-133 0 69 68 72 0c5 0 8 4 8 8 0 5-3 9-8 9l-75 0c-3 0-5-1-6-2l-86-86 0 0c-1-1-2-2-2-3-1-1-1-2-1-3l0-153c0-5 4-9 9-9l494 0c5 0 9 4 9 9l0 153z m-253 79c0 0 1 0 1-1 0 0 1 0 1 0 1-1 2-1 4-1 1 0 2 0 3 1 0 0 1 0 1 0 0 1 1 1 1 1l111 103c4 3 4 8 1 12-3 3-9 3-12 0l-97-89 0 236c0 5-4 9-8 9-5 0-9-4-9-9l0-236-97 89c-3 3-8 3-12 0-3-4-3-9 1-12z"/>
<glyph glyph-name="folder-2" unicode="&#42;" d="M503 418l-297 0-40 48c-2 2-4 3-7 3l-150 0c-5 0-9-3-9-8l0-410c0-5 4-8 9-8l494 0c5 0 9 3 9 8l0 359c0 4-4 8-9 8z"/>
<glyph glyph-name="folder-add" unicode="&#43;" d="M384 273c21 0 41-5 60-13l0 141c0 5-4 9-9 9l-25 0 0 42c0 5-4 9-9 9l-282 0 0 42c0 5-3 9-8 9l-102 0c-5 0-9-4-9-9l0-341c0-23 20-43 43-43l196 0c0 3 0 6 0 9 0 80 65 145 145 145z m-316 128l0-239c0-11-12-25-25-25-13 0-26 12-26 25l0 333 85 0 0-43c0-4 4-8 9-8l282 0 0-34-316 0c-5 0-9-4-9-9z m316-145c-71 0-128-57-128-128 0-71 57-128 128-128 71 0 128 57 128 128 0 71-57 128-128 128z m59-137l-50 0 0-50c0-4-4-8-9-8-5 0-9 4-9 8l0 50-50 0c-4 0-8 4-8 9 0 5 4 9 8 9l50 0 0 50c0 4 4 8 9 8 5 0 9-4 9-8l0-50 50 0c4 0 8-4 8-9 0-5-4-9-8-9z"/>
<glyph glyph-name="check-4" unicode="&#44;" d="M510 397l-76 75c-3 3-9 3-12 0l-263-263-69 69c-3 4-9 4-12 0l-75-75c-4-3-4-9 0-12l150-151c2-2 4-2 6-2 2 0 5 0 6 2l345 344c1 2 2 4 2 6 0 3-1 5-2 7z"/>
<glyph glyph-name="delete-2-1" unicode="&#46;" d="M256 0c141 0 256 115 256 256 0 141-115 256-256 256-141 0-256-115-256-256 0-141 115-256 256-256z m0 495c132 0 239-107 239-239 0-132-107-239-239-239-132 0-239 107-239 239 0 132 107 239 239 239z m-138-346l245 245-8 6c-26 17-60 27-99 27-96 0-171-75-171-171 0-39 10-73 27-99z m138 261c31 0 58-7 80-19l-215-215c-12 22-19 49-19 80 0 86 68 154 154 154z m-99-298c26-17 60-27 99-27 96 0 171 75 171 171 0 39-10 73-27 99l-6 8-245-245z m234 224c12-22 19-49 19-80 0-86-68-154-154-154-31 0-58 7-80 19z"/>
<glyph glyph-name="download-6-1" unicode="&#47;" d="M511 165c0 1-1 2-2 3 0 0 0 0 0 0l-86 86c-1 1-3 2-6 2l-53 0c-5 0-9-4-9-9 0-4 4-8 9-8l50 0 69-68-133 0c-5 0-9-4-9-9l0-43-170 0 0 43c0 5-4 9-9 9l-133 0 69 68 72 0c5 0 8 4 8 8 0 5-3 9-8 9l-75 0c-3 0-5-1-6-2l-86-86c0 0 0 0 0 0-1-1-2-2-2-3-1-1-1-2-1-3 0 0 0 0 0 0l0-153c0-5 4-9 9-9l494 0c5 0 9 4 9 9l0 153c0 0 0 0 0 0 0 1 0 2-1 3z m-16-148l-478 0 0 137 137 0 0-43c0-5 3-9 8-9l188 0c5 0 8 4 8 9l0 43 137 0z m-230 495c-5 0-9-4-9-9l0-236-97 89c-3 3-8 3-12 0-3-4-3-9 1-12l111-103c0 0 1 0 1-1 1 0 1 0 1 0 1-1 2-1 4-1 1 0 2 0 3 1 0 0 1 0 1 0 0 1 1 1 1 1l111 103c4 3 4 8 1 12-3 3-9 3-12 0l-97-89 0 236c0 5-4 9-8 9z"/>
<glyph glyph-name="check-4-1" unicode="&#58;" d="M434 472c-3 3-9 3-12 0l-263-263-69 69c-3 4-9 4-12 0l-75-75c-2-2-3-4-3-6 0-2 1-5 3-6l150-151c2-2 4-2 6-2 2 0 5 0 6 2l345 344c1 2 2 4 2 6 0 3-1 5-2 7z m-275-414l-138 139 63 63 69-69c3-4 9-4 12 0l263 263 63-64z"/>
<glyph glyph-name="baloon-1" unicode="&#59;" d="M256 493c-141 0-256-94-256-210 0-54 27-107 74-147l-56-105c-2-3-2-7 1-9 2-2 4-3 6-3 1 0 3 0 4 1l142 67c23-7 52-15 85-15 141 0 256 95 256 211 0 116-115 210-256 210z m0-404c-32 0-61 8-83 15-2 0-4 0-6-1l-122-57 47 88c2 4 2 8-2 11-46 37-73 87-73 138 0 106 107 193 239 193 132 0 239-87 239-193 0-107-107-194-239-194z"/>
<glyph glyph-name="folder-2-1" unicode="&#60;" d="M503 410l-297 0-40 48c-2 2-4 3-7 3l-150 0c-5 0-9-4-9-9l0-409c0-5 4-9 9-9l494 0c5 0 9 4 9 9l0 358c0 5-4 9-9 9z m-8-359l-478 0 0 393 138 0 41-48c1-2 4-3 6-3l293 0z"/>
<glyph glyph-name="folder-add-1" unicode="&#61;" d="M43 119l148 0c5 0 9 4 9 9 0 5-4 9-9 9l-115 0c6 7 9 16 9 25l0 231 342 0 0-72c0-5 3-9 8-9 5 0 9 4 9 9l0 80c0 5-4 9-9 9l-25 0 0 42c0 5-4 9-9 9l-282 0 0 42c0 5-3 9-8 9l-102 0c-5 0-9-4-9-9l0-341c0-23 20-43 43-43z m-26 376l85 0 0-43c0-4 4-8 9-8l282 0 0-34-316 0c-5 0-9-4-9-9l0-239c0-11-12-25-25-25-13 0-26 12-26 25z m239-367c0-71 57-128 128-128 71 0 128 57 128 128 0 71-57 128-128 128-71 0-128-57-128-128z m239 0c0-61-50-111-111-111-61 0-111 50-111 111 0 61 50 111 111 111 61 0 111-50 111-111z m-120 59l0-50-50 0c-4 0-8-4-8-9 0-5 4-9 8-9l50 0 0-50c0-4 4-8 9-8 5 0 9 4 9 8l0 50 50 0c4 0 8 4 8 9 0 5-4 9-8 9l-50 0 0 50c0 4-4 8-9 8-5 0-9-4-9-8z"/>
<glyph glyph-name="star-1" unicode="&#62;" d="M512 318c-2 4-5 6-9 6l-181 0-58 182c-1 4-4 6-8 6-4 0-7-2-8-6l-58-182-181 0c-4 0-7-2-9-6-1-3 0-7 3-9l146-110-63-188c-1-3 0-7 3-9 1-1 3-2 5-2 2 0 3 1 5 2l157 115 157-115c3-3 7-3 10 0 3 2 4 6 3 9l-63 193 145 105c3 2 5 6 4 9z"/>
<glyph glyph-name="star-1-1" unicode="&#63;" d="M503 336l-181 0-58 170c-1 4-4 6-8 6-4 0-7-2-8-6l-58-170-181 0c-4 0-7-3-8-6-2-3-1-7 2-9l146-122-63-188c-1-3 0-7 3-9 3-3 7-3 10 0l157 115 157-115c2-1 3-2 5-2 2 0 4 1 5 2 3 2 4 6 3 9l-63 194 146 115c3 3 4 7 3 10-2 3-5 6-9 6z m-155-122c-3-2-4-6-3-9l57-174-141 104c-1 1-3 2-5 2-2 0-4-1-5-2l-140-104 56 168c1 4 0 8-2 10l-133 110 164 0c4 0 7 2 8 5l52 153 52-153c1-3 4-5 8-5l163 0z"/>
<glyph glyph-name="scissor-1" unicode="&#64;" d="M501 132l-210 122 210 126c2 2 3 4 2 6-6 11-17 19-29 23-13 4-26 2-37-4l-240-138-72 35c32 14 54 45 54 82 0 49-40 90-89 90-50 0-90-41-90-90 0-47 36-85 81-89l83-41-79-37c-47-2-85-41-85-89 0-49 40-90 90-90 49 0 89 41 89 90 0 36-21 67-51 81l73 34 236-136c7-4 15-6 23-6 4 0 9 1 14 2 12 4 23 12 29 23 0 1 1 2 0 3 0 1-1 2-2 3z m-475 252c0 35 28 64 64 64 35 0 64-29 64-64 0-35-29-64-64-64-36 0-64 29-64 64z m128-256c0-35-29-64-64-64-36 0-64 29-64 64 0 35 28 64 64 64 35 0 64-29 64-64z"/>
<glyph glyph-name="scissor-1-1" unicode="&#91;" d="M95 213c-2 0-3 0-5 0-47 0-86-38-86-85 0-47 39-85 86-85 47 0 85 38 85 85 0 36-23 67-55 80l67 38 248-142c8-5 16-7 25-7 5 0 10 1 15 2 13 4 25 13 32 25 1 2 1 4 0 6 0 2-2 4-4 5l-204 119 205 123c4 2 5 7 3 11-7 12-19 21-32 25-14 4-28 2-40-5l-248-142-67 38c32 13 55 44 55 80 0 47-38 85-85 85-47 0-86-38-86-85 0-47 39-85 86-85 2 0 3 0 5 0l75-43z m63-85c0-38-31-68-68-68-38 0-69 30-69 68 0 38 31 68 69 68 37 0 68-30 68-68z m-137 256c0 38 31 68 69 68 37 0 68-30 68-68 0-38-31-68-68-68-38 0-69 30-69 68z m423 10c8 4 17 5 26 3 6-2 12-6 17-11l-205-122-32 18z m-211-121l254-148c-5-4-11-8-17-10-9-2-18-1-26 3l-240 138z"/>
<glyph glyph-name="reply-mail-2" unicode="&#93;" d="M233 342c-6 0-11 0-15 0l0 76c0 3-2 6-5 8-3 1-7 1-9-1l-180-150c-2-2-3-4-3-6 0-3 1-5 3-7l180-149c2-2 6-3 9-1 3 1 5 4 5 7l0 79c10 2 31 6 58 6 63 0 148-20 199-114 1-3 4-5 7-5 1 0 2 0 2 1 4 1 7 4 7 8 0 230-198 248-258 248z"/>
<glyph glyph-name="reply-mail-2-1" unicode="&#94;" d="M237 342c-6 0-11 0-15 0l0 76c0 3-2 6-5 8-3 1-7 1-9-1l-179-150c-2-2-3-4-3-6 0-3 1-5 3-7l179-149c2-2 6-3 9-1 3 1 5 4 5 7l0 79c10 2 31 6 58 6 63 0 149-20 199-114 1-3 4-5 7-5 1 0 2 0 2 1 4 1 7 4 7 8 0 230-197 248-258 248z m43-121c-40 0-68-8-69-8-4-1-6-4-6-8l0-67-158 131 158 131 0-67c0-3 1-5 3-7 1-1 4-2 6-2 0 0 9 1 23 1 188 0 231-121 239-198-55 77-135 94-196 94z"/>
<glyph glyph-name="tag-1" unicode="&#95;" d="M509 197l-315 313c-2 1-4 2-6 2l-179 0c-5 0-9-4-9-9l0-179c0-2 1-4 2-6l313-315c1-2 4-3 6-3 0 0 0 0 0 0 2 0 4 1 6 2l183 183c1 2 2 4 2 6 0 2-1 5-3 6z m-393 156c-24 0-43 19-43 43 0 24 19 43 43 43 24 0 43-19 43-43 0-24-19-43-43-43z"/>
<glyph glyph-name="tag-1-1" unicode="&#96;" d="M194 510c-2 1-4 2-6 2l-179 0c-5 0-9-4-9-9l0-179c0-2 1-4 2-6l313-315c1-2 4-3 6-3 0 0 0 0 0 0 2 0 4 1 6 2l183 183c1 2 2 4 2 6 0 2-1 5-3 6z m127-489l-304 307 0 167 167 0 307-304z m-205 426c-28 0-51-23-51-51 0-29 23-52 51-52 29 0 52 23 52 52 0 28-23 51-52 51z m0-86c-19 0-34 16-34 35 0 19 15 34 34 34 19 0 35-15 35-34 0-19-16-35-35-35z"/>
<glyph glyph-name="bell" unicode="&#123;" d="M506 105c-43 11-62 27-62 52l0 119c0 80-46 149-117 178-7 33-36 57-71 57-34 0-64-24-71-57-71-29-117-98-117-178l0-119c0-25-19-41-62-52-4-1-6-5-6-9 1-4 4-7 9-7l494 0c5 0 8 3 9 7 0 4-2 8-6 9z m-199-36l-102 0c-5 0-9-3-9-8 0-40 20-60 60-60 40 0 60 20 60 60 0 5-4 8-9 8z"/>
<glyph glyph-name="bell-1" unicode="&#124;" d="M506 85c-43 11-62 27-62 52l0 119c0 80-46 149-117 178-7 33-36 56-71 56-34 0-64-24-71-56-71-29-117-98-117-178l0-119c0-25-19-41-62-52-4-1-6-5-6-9 1-5 4-8 9-8l179 0c4-39 32-68 68-68 36 0 64 29 68 68l179 0c5 0 8 3 9 8 0 4-2 8-6 9z m-250-68c-29 0-47 25-51 51l102 0c-4-26-22-51-51-51z m-202 68c17 11 31 27 31 52l0 119c0 74 43 138 110 163 3 1 5 4 6 7 4 27 28 47 55 47 28 0 51-20 55-47 1-3 3-6 6-7 67-25 110-89 110-163l0-119c0-25 14-41 31-52z"/>
<glyph glyph-name="folder-edit" unicode="&#125;" d="M443 285l4-5 0 122c0 5-3 8-8 8l-26 0 0 43c0 5-4 9-8 9l-282 0 0 42c0 5-4 9-8 9l-103 0c-5 0-8-4-8-9l0-341c0-23 20-43 42-43l232 0z m-371 117l0-239c0-11-12-26-26-26-13 0-25 13-25 26l0 333 85 0 0-43c0-5 4-8 9-8l281 0 0-35-316 0c-4 0-8-3-8-8z m230-282l0 0-23-23 69-63 104 104-66 66z m-55-121l87 25-63 57z m151 217l45 44 65-65-44-45z"/>
<glyph glyph-name="book-1" unicode="&#126;" d="M9 467l0-355c0-5 3-9 8-9 138 0 230-34 230-66l0 387c-35 31-121 51-230 51-5 0-8-3-8-8z m54-88c56-4 106-14 142-28 5-1 7-6 5-11-1-3-4-5-8-5-1 0-2 0-3 0-34 14-83 23-137 27-5 0-9 4-8 9 0 4 4 8 9 8z m0-65c56-4 106-13 142-27 5-2 7-7 5-11-1-4-4-6-8-6-1 0-2 0-3 1-34 13-83 22-137 26-5 0-9 4-8 9 0 5 4 8 9 8z m0-65c56-3 106-13 142-27 5-1 7-6 5-11-1-3-4-5-8-5-1 0-2 0-3 0-34 14-83 23-137 26-5 1-9 5-8 10 0 4 4 8 9 7z m0-64c56-4 106-13 142-27 5-2 7-7 5-11-1-4-4-6-8-6-1 0-2 0-3 1-34 13-83 22-137 26-5 0-9 4-8 9 0 5 4 8 9 8z m432 290c-109 0-195-20-230-51l0-387c0 32 92 66 230 66 5 0 8 4 8 9l0 355c0 5-3 8-8 8z m-45-307c-54-4-103-13-137-26-1-1-2-1-3-1-4 0-7 2-8 6-2 4 0 9 5 11 36 14 86 23 142 27 5 0 9-3 9-8 0-5-3-9-8-9z m0 64c-54-3-103-12-137-26-1 0-2 0-3 0-4 0-7 2-8 5-2 5 0 10 5 11 36 14 86 24 142 27 5 1 9-3 9-7 0-5-3-9-8-10z m0 65c-54-4-103-13-137-26-1-1-2-1-3-1-4 0-7 2-8 6-2 4 0 9 5 11 36 14 86 23 142 27 5 0 9-3 9-8 0-5-3-9-8-9z m0 65c-54-4-103-13-137-27-1 0-2 0-3 0-4 0-7 2-8 5-2 5 0 10 5 11 36 14 86 24 142 28 5 0 9-4 9-8 0-5-3-9-8-9z"/>
<glyph glyph-name="folder-edit-1" unicode="&#92;" d="M43 119l148 0c5 0 9 4 9 9 0 5-4 9-9 9l-115 0c6 7 9 16 9 25l0 231 342 0 0-72c0-5 3-9 8-9 5 0 9 4 9 9l0 80c0 5-4 9-9 9l-25 0 0 42c0 5-4 9-9 9l-282 0 0 42c0 5-3 9-8 9l-102 0c-5 0-9-4-9-9l0-341c0-23 20-43 43-43z m-26 376l85 0 0-43c0-4 4-8 9-8l282 0 0-34-316 0c-5 0-9-4-9-9l0-239c0-11-12-25-25-25-13 0-26 12-26 25z m265-405c-1-1-1-2-1-3-1 0-1 0-1 0 0 0 0-1 0-1l-21-75c-1-3-1-6 2-9 1-1 3-2 6-2 1 0 1 0 2 0l75 22c1 0 1 0 1 0 0 0 0 0 1 0 0 1 1 1 2 2l161 161c2 2 3 4 3 6 0 3-1 5-2 7l-54 53c-4 4-9 4-12 0z m60-48l-42 42 107 106 41-42z m-50 26l34-34-47-13z m199 123l-31-31-41 42 31 31z"/>
<glyph glyph-name="book-1-1" unicode="&#57344;" d="M486 480c-119 0-211-25-239-61-27 36-119 61-238 61-5 0-9-4-9-9l0-355c0-5 4-8 9-8 137 0 230-35 230-67 0-5 4-9 8-9 5 0 9 4 9 9 0 32 93 67 230 67 5 0 9 3 9 8l0 355c0 5-4 9-9 9z m-469-355l0 338c133-2 222-36 222-67l0-323c-34 30-117 51-222 52z m461 0c-105-1-188-22-222-52l0 323c0 31 89 65 222 67z m-281 231c-36 13-87 23-143 27-4 0-8-3-9-8 0-5 4-9 8-9 54-4 103-13 138-26 1-1 2-1 3-1 3 0 6 2 8 6 1 4-1 9-5 11z m0-65c-36 14-87 24-143 27-4 1-8-3-9-8 0-4 4-8 8-9 54-3 103-13 138-26 1 0 2 0 3 0 3 0 6 2 8 5 1 4-1 9-5 11z m104 48c1 0 2 0 3 1 35 13 84 22 138 26 4 0 8 4 8 9-1 5-5 8-9 8-56-4-107-14-143-27-4-2-6-7-5-11 2-4 5-6 8-6z m0-64c1 0 2 0 3 0 35 13 84 23 138 26 4 1 8 5 8 9-1 5-5 9-9 8-56-3-107-13-143-27-4-2-6-7-5-11 2-3 5-5 8-5z m-104-48c-36 13-87 23-143 27-4 0-8-3-9-8 0-5 4-9 8-9 54-4 103-13 138-26 1-1 2-1 3-1 3 0 6 2 8 6 1 4-1 9-5 11z m0-65c-36 14-87 23-143 27-4 1-8-3-9-8 0-4 4-9 8-9 54-3 103-13 138-26 1 0 2-1 3-1 3 0 6 3 8 6 1 4-1 9-5 11z m104 48c1 0 2 0 3 1 35 13 84 22 138 26 4 0 8 4 8 9-1 5-5 8-9 8-56-4-107-14-143-27-4-2-6-7-5-11 2-4 5-6 8-6z m0-65c1 0 2 1 3 1 35 13 84 23 138 26 4 0 8 5 8 9-1 5-5 9-9 8-56-4-107-13-143-27-4-2-6-7-5-11 2-3 5-6 8-6z"/>
<glyph glyph-name="information" unicode="&#57345;" d="M256 452c-108 0-196-88-196-196 0-108 88-196 196-196 108 0 196 88 196 196 0 108-88 196-196 196z m-9-68c10 0 18-8 18-17 0-9-8-17-18-17-9 0-17 8-17 17 0 9 8 17 17 17z m60-256l-102 0c-5 0-9 4-9 9 0 4 4 8 9 8l42 0 0 137-25 0c-5 0-9 3-9 8 0 5 4 9 9 9l34 0c5 0 9-4 9-9l0-145 42 0c5 0 9-4 9-8 0-5-4-9-9-9z"/>
<glyph glyph-name="information-1" unicode="&#57346;" d="M247 444c-108 0-196-88-196-197 0-108 88-196 196-196 109 0 197 88 197 196 0 109-88 197-197 197z m0-376c-98 0-179 81-179 179 0 99 81 180 179 180 99 0 180-81 180-180 0-98-81-179-180-179z m52 69l-43 0 0 145c0 4-4 8-9 8l-34 0c-4 0-8-4-8-8 0-5 4-9 8-9l26 0 0-136-43 0c-4 0-8-4-8-9 0-5 4-9 8-9l103 0c4 0 8 4 8 9 0 5-4 9-8 9z m-60 204c9 0 17 8 17 17 0 10-8 17-17 17-9 0-17-7-17-17 0-9 8-17 17-17z m0 17l0-8 0 8z"/>
<glyph glyph-name="key-1" unicode="&#57347;" d="M440 512l-203-203c-20 10-46 15-75 15-89 0-162-72-162-162 0-89 73-162 162-162 90 0 162 73 162 162 0 22-5 45-15 67l61 61 40 0 0 39 3 4 39 0 0 39 4 3 39 0 0 40 17 21 0 76z m-329-435c-24 0-43 19-43 42 0 24 19 43 43 43 23 0 43-19 43-43 0-23-20-42-43-42z"/>
<glyph glyph-name="pin-1" unicode="&#57348;" d="M510 356l-154 153c-3 4-9 4-12 0l-43-42c-3-4-3-9 0-12l20-20-94-94-90 0c-3 0-5-1-6-2l-35-34c-3-4-3-9 0-12l92-92-185-186c-4-4-4-9 0-13 1-1 3-2 6-2 2 0 4 1 6 2l186 186 92-92c1-1 3-2 6-2 2 0 4 1 6 2l34 34c1 2 2 4 2 7l0 90 94 94 20-20c3-3 8-3 12 0l43 43c3 3 3 9 0 12z"/>
<glyph glyph-name="trophy" unicode="&#57349;" d="M512 463c0 2 0 5 0 6 0 5-4 9-8 9l-46 0c0 8 1 17 1 25 0 5-4 9-9 9l-387 0c-5 0-9-4-9-9 0-8 0-17 1-25l-46 0c-5 0-9-4-9-9 0-2 0-5 0-8 0-37-1-112 39-153 16-16 37-25 63-26 23-34 51-51 74-65 30-18 50-30 50-68-2-75-30-89-81-89-4 0-8-4-8-9l0-42c0-5 4-9 8-9l222 0c5 0 9 4 9 9l0 42c0 5-4 9-9 9-55 0-81 28-81 88 0 39 20 51 50 70 23 14 51 30 74 64 25 1 46 10 62 26 42 43 41 124 40 155z m-461-143c-35 36-34 106-34 140 0 1 0 1 0 1l38 0c4-76 18-126 36-161-16 2-29 9-40 20z m276 78l-40-33 16-48c1-2 0-4-2-5 0 0-1-1-2-1-1 0-2 1-3 1l-40 32-40-32c-1-1-3-1-5 0-1 1-2 3-1 5l16 48-41 33c-1 1-2 3-1 4 1 2 2 3 4 3l48 0 16 36c0 1 2 2 4 2 1 0 3-1 3-2l17-36 48 0c2 0 4-1 5-3 0-1 0-3-2-4z m133-78c-11-11-24-17-39-20 18 35 33 85 36 161l38 0c1-30 1-104-35-141z"/>
<glyph glyph-name="fire" unicode="&#57350;" d="M191 511c-3 2-7 1-10-2-2-3-2-8 0-11 55-71 57-189 8-254-10 15-13 34-17 53l-1 3c-1 3-3 6-5 7-3 1-6 0-8-1-61-44-86-118-63-189 23-71 86-117 162-117 84 0 141 48 157 133 25 131-59 314-223 378z m64-446c-31 0-56 21-62 51 0 3 1 6 3 8 2 2 5 2 8 2 1-1 3-1 4-1 15 0 36 15 47 34 5 8 12 24 4 39-2 3-2 6 0 9 1 2 4 4 7 4 12 0 22-5 30-13 16-17 22-48 21-71-1-35-29-62-62-62z"/>
<glyph glyph-name="camera-symbol-3" unicode="&#57352;" d="M316 410l-290 0c-15 0-26-12-26-26l0-256c0-14 11-26 26-26l290 0c14 0 25 12 25 26l0 256c0 14-11 26-25 26z m192-27c-3 1-6 1-8 0l-137-69c-3-1-5-4-5-8l0-110c0-3 2-6 5-7l137-69c1 0 2-1 3-1 2 0 4 1 5 2 2 1 4 4 4 7l0 247c0 3-2 6-4 8z"/>
<glyph glyph-name="rss-2" unicode="&#57353;" d="M452 512l-392 0c-33 0-60-27-60-60l0-392c0-33 27-60 60-60l392 0c33 0 60 27 60 60l0 392c0 33-27 60-60 60z m-316-425c-27 0-49 22-49 49 0 26 22 48 49 48 26 0 48-22 48-48 0-27-22-49-48-49z m162-2c0 112-96 203-213 203l0 17c127 0 230-99 230-220z m120 0c0 181-146 323-333 323l0 17c197 0 350-149 350-340z"/>
<glyph glyph-name="address-1" unicode="&#57354;" d="M256 512c-141 0-256-115-256-256 0-141 115-256 256-256 52 0 102 15 145 45 7 5 9 16 4 23-5 8-16 10-24 5-36-26-80-39-125-39-122 0-222 100-222 222 0 122 100 222 222 222 122 0 222-100 222-222l0-21c0-30-25-55-56-55-30 0-55 25-55 55l0 21c0 61-50 111-111 111-61 0-111-50-111-111 0-61 50-111 111-111 36 0 68 18 89 45 15-27 44-45 77-45 50 0 90 41 90 90l0 21c0 141-115 256-256 256z m0-332c-42 0-76 34-76 76 0 42 34 76 76 76 42 0 76-34 76-76 0-42-34-76-76-76z"/>
<glyph glyph-name="contacts-2" unicode="&#57355;" d="M455 190c-14 4-31 9-45 15l0 22c9 5 25 17 26 45 8 5 11 17 11 30 0 4 0 11-3 17-1 2-3 4-4 5 5 10 13 25 7 42-7 22-38 30-62 30-21 0-48-6-59-23-11 1-16-4-19-8-8-11-2-28 3-40-2-1-4-4-5-6-3-6-4-13-4-17 0-12 4-25 11-30 2-26 18-39 29-45l0-22c-5-2-12-5-18-7 24-15 35-29 35-42l0-102 145 0c5 0 9 4 9 8l0 97c0 13-16 18-57 31z m-153 2c0 0 0-1-1-1-1 1-2 2-4 3-22 12-50 26-75 36l0 32c1 1 2 1 2 2 1 0 1 0 1 1 6 5 13 15 16 33 0 1 0 2 1 4 0 1 0 3 0 4 0 3 1 5 1 8 1 1 2 1 3 2 0 0 0 0 0 0 4 4 7 10 9 16 0 0 0 1 0 1 1 1 1 2 1 3 0 1 0 1 0 2 0 1 1 2 1 3 0 1 0 3 0 4 0 7-2 13-4 18 0 0 0 0-1 0-1 2-3 4-6 6 1 2 2 4 3 6 1 4 3 8 4 11 0 1 0 1 0 1 1 4 1 7 2 11 0 0 0 0 0 0 0 3 0 7 0 10 0 0 0 1 0 2 0 3-1 6-1 9-1 2-1 4-2 5 0 1-1 2-1 3 0 0-1 1-1 1-1 1-1 3-2 4 0 0 0 0 0 0-4 5-8 9-14 13 0 0 0 0 0 0-2 1-3 2-4 2-11 6-25 10-38 11 0 0 0 0 0 0-2 0-4 0-5 0-2 0-4 0-6 0-4 0-7 0-11 0-1 0-2 0-3-1-2 0-4 0-6 0-2-1-4-1-5-1-2-1-3-1-4-1-2-1-4-1-6-2-2 0-4-1-6-2-1 0-1 0-2-1-11-4-20-11-25-19 0 0 0 0 0-1-1-1-2-2-3-3-1 0-3 0-4 0-2 0-4-1-6-1 0 0-1 0-1 0-2-1-3-1-4-2-1 0-1 0-2-1-1 0-2-1-2-2-1 0-1 0-1-1-1 0-2-1-2-2-1-2-2-3-3-5 0-1 0-1 0-1 0-2 0-3-1-5 0 0 0-1 0-1 0-2 0-3 0-5 0 0 1-1 1-1 0-2 0-4 0-5 0-1 1-1 1-1 0-2 1-4 1-6 0 0 0-1 0-1 1-2 2-4 2-5 0-1 0-1 1-1 1-4 3-8 4-12 0 0 0 0 0 0-2-1-5-4-6-6-3-5-5-11-5-18 0-2 0-3 0-5 0 0 0-1 1-2 0-1 0-1 0-2 0-1 0-2 1-4 0 0 0 0 0 0 2-6 5-12 9-16 0 0 0 0 0 0 1-1 2-1 3-2 0-3 0-6 1-9 0-1 0-2 0-3 4-24 15-35 21-40l0-32c-25-10-53-24-75-36-8-5-15-9-20-12-16-12-24-20-24-26l0-94c0-4 4-8 9-8l332 0 0 102c0 7-12 20-39 36z"/>
<glyph glyph-name="user-2" unicode="&#57356;" d="M490 100c-16 30-66 48-135 74-10 3-20 7-31 11l0 55c7 8 25 30 26 65 5 4 9 11 11 21 4 15 2 32-9 42 1 2 2 5 3 7 8 20 23 59 17 88-7 34-56 49-101 49-33 0-74-8-86-31-12-1-22-7-29-15-18-25-4-69 3-92 0-2 1-4 1-5-11-10-13-28-9-43 2-10 6-17 11-21 1-34 18-54 26-61l0-59c-11-4-21-8-31-11-69-26-119-44-135-74-22-45-22-90-22-91 0-5 4-9 9-9l494 0c5 0 9 4 9 9 0 1 0 46-22 91z"/>
<glyph glyph-name="camera-front" unicode="&#57358;" d="M102 290c0-14-11-25-25-25-14 0-26 11-26 25 0 14 12 26 26 26 14 0 25-12 25-26z m205 51c-61 0-111-49-111-111 0-61 50-111 111-111 61 0 111 50 111 111 0 62-50 111-111 111z m0-187c-42 0-77 34-77 76 0 43 35 77 77 77 43 0 77-34 77-77 0-42-34-76-77-76z m153 230l-37 0-20 34c-8 13-20 24-35 33l-2 1-112 0-3-1c-14-9-26-20-34-32l-33-35-60 0 1 8c0 16-14 35-31 35l-17 0c-16 0-33-19-33-34l-1-10c-27-3-43-20-43-49l0-224c0-31 19-49 53-50l406 0 1 0c33 1 52 19 52 50l0 231c0 30-16 43-52 43z m-383-137c-24 0-43 20-43 43 0 24 19 43 43 43 23 0 42-19 42-43 0-23-19-43-42-43z m230-145c-70 0-128 58-128 128 0 71 58 128 128 128 71 0 128-57 128-128 0-70-57-128-128-128z"/>
<glyph glyph-name="file-1" unicode="&#57357;" d="M441 390l-119 119c-2 2-4 3-6 3l-239 0c-5 0-9-4-9-9l0-494c0-5 4-9 9-9l358 0c5 0 9 4 9 9l0 375c0 2-1 4-3 6z m-125-6l0 119 119-119z"/>
<glyph glyph-name="move-vertical-2" unicode="&#57359;" d="M355 140l-82-82 0 396 82-82c3-3 8-5 12-5 4 0 9 2 12 5 7 7 7 17 0 24l-111 111c-1 1-2 1-3 2 0 0 0 1-1 1 0 0-1 0-1 1-1 0-2 0-2 0-1 0-1 1-2 1-2 0-4 0-6 0-1 0-1-1-2-1 0 0-1 0-2 0 0-1-1-1-1-1-1 0-1-1-1-1-1 0-2-1-3-2l-111-111c-7-7-7-17 0-24 7-7 17-7 24 0l82 82 0-396-82 82c-7 7-17 7-24 0-7-7-7-17 0-24l111-111c1-1 2-1 3-2 0 0 0-1 1-1 0 0 1 0 1-1 1 0 2 0 2 0 1 0 1-1 2-1 1 0 2 0 3 0 1 0 2 0 3 0 1 0 1 1 2 1 0 0 1 0 2 0 0 1 1 1 1 1 1 0 1 1 1 1 1 0 2 1 3 2l111 111c7 7 7 17 0 24-7 7-17 7-24 0z"/>
<glyph glyph-name="check-bubble" unicode="&#57360;" d="M512 256c0 19-11 37-27 45 11 15 15 35 8 53-8 18-24 30-43 31 5 18 1 38-13 52-10 10-23 15-36 15-6 0-11-1-16-2-1 18-13 35-31 42-18 8-38 4-53-7-8 16-26 27-45 27-19 0-37-11-46-27-14 11-34 15-52 7-18-7-30-24-32-42-4 1-10 2-15 2-13 0-26-5-36-15-14-14-18-34-13-52-19-1-35-13-42-31-8-18-5-38 7-53-16-8-27-26-27-45 0-19 11-37 27-45-12-15-15-35-8-53 8-18 24-30 43-32-5-17-1-37 13-51 10-10 23-15 36-15 5 0 11 1 15 2 2-18 14-35 32-43 18-7 38-3 53 8 8-16 26-27 45-27 19 0 37 11 45 27 15-11 35-15 53-8 18 8 30 25 31 43 5-1 10-2 16-2 13 0 26 5 36 15 14 14 18 34 13 51 19 2 35 14 43 32 7 18 4 38-8 52 16 9 27 27 27 46z m-143 69l-161-151c-2-1-4-2-6-2-2 0-4 1-6 3l-54 53c-3 4-3 9 0 13 4 3 9 3 12 0l48-48 156 145c3 3 9 3 12-1 3-3 3-9-1-12z"/>
<glyph glyph-name="setting-gear" unicode="&#57361;" d="M503 307l-63 0c-4 15-10 30-17 43l44 45c2 1 3 3 3 6 0 2-1 4-3 6l-60 60c-4 4-9 4-12 0l-45-44c-14 7-31 14-43 17l0 63c0 5-4 9-8 9l-86 0c-4 0-8-4-8-9l0-63c-12-3-29-10-43-17l-45 44c-3 4-8 4-12 0l-60-60c-4-4-4-9 0-12l44-45c-7-14-14-31-17-43l-63 0c-5 0-9-4-9-8l0-69c0-4 4-8 9-8l62 0c4-22 11-44 18-60l-44-45c-2-1-3-3-3-6 0-2 1-4 3-6l60-60c4-4 9-4 12 0l45 44c10-5 22-9 32-12 4-2 8-3 11-4l0-64c0-5 4-9 8-9l86 0c4 0 8 4 8 9l0 64c3 1 7 2 11 4 10 3 22 7 32 12l45-44c3-4 8-4 12 0l60 60c4 4 4 9 0 12l-44 45c8 13 14 26 18 60l62 0c5 0 9 4 9 8l0 69c0 4-4 8-9 8z m-247-136c-47 0-85 38-85 85 0 47 38 85 85 85 47 0 85-38 85-85 0-47-38-85-85-85z"/>
<glyph glyph-name="pulse" unicode="&#57362;" d="M495 256l-109 0-46 101c-3 7-10 11-18 10-7-1-13-7-14-14l-41-202-45 312c-1 8-8 14-16 15-8 0-15-5-18-12l-64-210-107 0c-9 0-17-8-17-17 0-9 8-17 17-17l120 0c7 0 14 5 16 12l46 149 49-334c1-8 8-15 16-15 0 0 0 0 1 0 8 0 15 6 16 14l50 247 29-63c3-6 9-10 15-10l120 0c9 0 17 8 17 17 0 9-8 17-17 17z"/>
<glyph glyph-name="question-mark" unicode="&#57363;" d="M256 461c-113 0-205-92-205-205 0-113 92-205 205-205 113 0 205 92 205 205 0 113-92 205-205 205z m0-329c-12 0-21 10-21 22 0 11 9 21 21 21 12 0 21-10 21-21 0-12-9-22-21-22z m9 108l0-44c0-4-4-8-9-8-5 0-9 4-9 8l0 51c0 5 4 9 9 9 24 0 43 19 43 43 0 23-19 42-43 42-24 0-43-19-43-42 0-5-3-9-8-9-5 0-9 4-9 9 0 33 27 59 60 59 33 0 60-26 60-59 0-30-23-55-51-59z"/>
<glyph glyph-name="house-2" unicode="&#57364;" d="M427 333c1 0 2 0 3 1 3 1 5 4 5 7l0 94c0 5-4 9-8 9l-94 0c-4 0-7-2-8-5 0-1-1-2-1-3l98-101c1-1 3-2 5-2z m-350-86l0-247 119 0 0 154 120 0 0-154 119 0 0 247-179 186z m424-19l-239 247c-3 4-9 4-12 0l-239-247c-3-3-3-6-2-9 1-1 1-2 2-3 0 0 0 0 0 0 4-3 9-3 12 0 0 0 0 0 0 0l54 56 179 185 233-241c3-3 8-3 12 0 0 0 0 0 0 0 3 3 3 9 0 12z"/>
<glyph glyph-name="lightbulb-1" unicode="&#57366;" d="M256 512c-99 0-179-80-179-179 0-96 76-174 170-179l0 90-19-20c-3-3-9-3-12 0l-34 34c-4 4-4 9 0 13 3 3 8 3 12 0l28-29 28 29c1 0 2 1 3 1 2 1 4 1 6 0 1 0 2-1 3-1l28-29 28 29c4 3 9 3 12 0 4-4 4-9 0-13l-34-34c-1-1-4-2-6-2-2 0-4 1-6 2l-19 20 0-90c94 5 170 83 170 179 0 99-80 179-179 179z m51-393l-102 0c-5 0-9-3-9-8 0-5 4-9 9-9l102 0c5 0 9 4 9 9 0 5-4 8-9 8z m0-34l-102 0c-5 0-9-3-9-8 0-5 4-9 9-9l102 0c5 0 9 4 9 9 0 5-4 8-9 8z m0-34l-102 0c-5 0-9-4-9-8 0-5 4-9 9-9l42 0 0-25c0-5 4-9 9-9 5 0 9 4 9 9l0 25 42 0c5 0 9 4 9 9 0 4-4 8-9 8z"/>
<glyph glyph-name="arrow-37" unicode="&#57367;" d="M208 256l199 199c3 3 3 8 0 12l-43 42c-3 4-8 4-12 0l-247-247c-3-3-3-9 0-12l247-248c2-1 4-2 6-2 3 0 5 1 6 2l43 43c3 4 3 9 0 12z"/>
<glyph glyph-name="arrow-38" unicode="&#57368;" d="M407 262l-247 247c-4 4-9 4-12 0l-43-42c-3-4-3-9 0-12l199-199-199-199c-3-3-3-8 0-12l43-43c1-1 3-2 6-2 2 0 4 1 6 2l247 248c3 3 3 9 0 12z"/>
<glyph glyph-name="arrow-39" unicode="&#57369;" d="M510 364l-43 43c-4 3-9 3-12 0l-199-199-199 199c-3 3-8 3-12 0l-42-43c-4-3-4-8 0-12l247-247c2-2 4-3 6-3 2 0 4 1 6 3l248 247c3 4 3 9 0 12z"/>
<glyph glyph-name="arrow-40" unicode="&#57370;" d="M510 160l-248 247c-3 3-9 3-12 0l-247-247c-4-4-4-9 0-12l42-43c4-3 9-3 12 0l199 199 199-199c1-2 4-3 6-3 2 0 4 1 6 3l43 43c3 3 3 8 0 12z"/>
<glyph glyph-name="clip-1-1" unicode="&#57371;" d="M32 57c18-18 42-27 65-27 24 0 48 9 67 28l247 247c10 10 15 23 15 36 0 13-5 26-15 36-10 10-22 15-36 15-13 0-26-5-36-15l-179-179c-3-4-3-9 0-12 3-4 9-4 12 0l179 179c13 13 35 13 48 0 6-7 10-15 10-24 0-9-4-17-10-24l-248-247c-30-31-77-31-107-1-30 30-30 78 0 108l256 256c21 21 49 32 79 32 31 0 59-11 80-32 20-21 32-47 32-75 0-28-12-54-32-75l-185-184c-3-3-3-9 0-12 4-3 9-3 12 0l185 184c24 24 37 55 37 87 0 32-13 63-37 87-24 24-57 37-92 37-35 0-67-13-91-37l-256-256c-37-37-37-95 0-132z"/>
<glyph glyph-name="clip-2-1" unicode="&#57372;" d="M249 495c63 0 109-51 109-121l0-193c0-5 4-9 9-9 5 0 8 4 8 9l0 193c0 80-53 138-126 138-74 0-130-59-130-138l0-269c0-61 41-105 97-105 55 0 91 42 91 105l0 214c0 46-22 74-58 74-37 0-61-29-61-74l0-171c0-4 4-8 8-8 5 0 9 4 9 8l0 171c0 14 3 56 44 56 36 0 41-35 41-56l0-214c0-40-19-88-74-88-46 0-79 37-79 88l0 269c0 69 48 121 112 121z"/>
<glyph glyph-name="key-1-1" unicode="&#57373;" d="M111 162c-24 0-43-19-43-43 0-23 19-42 43-42 23 0 43 19 43 42 0 24-20 43-43 43z m0-68c-14 0-26 11-26 25 0 15 12 26 26 26 14 0 26-11 26-26 0-14-12-25-26-25z m126 215c-20 10-46 15-75 15-89 0-162-72-162-162 0-89 73-162 162-162 90 0 162 73 162 162 0 22-5 45-15 67l61 61 40 0 0 39 3 4 39 0 0 39 4 3 39 0 0 40 17 21 0 76-72 0z m258 186l0-53-17-21 0-28-29 0-14-14 0-29-29 0-13-14 0-29-30 0-75-75 3-5c11-22 16-43 16-65 0-80-65-145-145-145-80 0-145 65-145 145 0 80 65 145 145 145 29 0 54-5 73-16l5-3 207 207z"/>
<glyph glyph-name="pin-1-1" unicode="&#57374;" d="M356 509c-3 4-9 4-12 0l-43-42c-3-4-3-9 0-12l20-20-94-94-90 0c-3 0-5-1-6-2l-35-34c-3-4-3-9 0-12l92-92-185-186c-4-4-4-9 0-13 1-1 3-2 6-2 2 0 4 1 6 2l186 186 92-92c1-1 3-2 6-2 2 0 4 1 6 2l34 34c1 2 2 4 2 7l0 90 94 94 20-20c3-3 8-3 12 0l43 43c3 3 3 9 0 12z m105-190l-20 20c-3 3-8 3-12 0l-102-103c-2-1-3-3-3-6l0-90-25-26-185 185 26 25 90 0c3 0 5 1 6 3l103 102c3 4 3 9 0 12l-20 20 31 30 141-141z"/>
<glyph glyph-name="trophy-1" unicode="&#57375;" d="M324 410l-45 0-16 33c-1 3-4 4-8 4-3 0-6-2-7-5l-15-32-45 0c-4 0-7-3-8-6-2-4 0-7 2-10l38-30-15-46c-1-3 0-7 3-9 4-2 8-2 11 0l37 30 37-30c2-1 4-2 6-2 1 0 3 1 5 2 3 2 4 6 3 9l-15 46 38 30c2 3 4 6 2 10-1 3-4 6-8 6z m-48-36c-3-3-4-6-2-10l7-24-20 17c-1 1-3 1-5 1-2 0-4 0-5-1l-20-17 7 24c2 4 1 7-2 10l-24 19 27 0c3 0 6 2 8 5l9 20 9-21c2-3 5-4 8-4l27 0z m236 95c0 5-4 9-9 9l-45 0c0 8 0 17 0 25 0 5-3 9-8 9l-388 0c-4 0-8-4-8-9 0-8 0-17 0-25l-45 0c-5 0-9-4-9-9 0-3 0-7 0-12-1-35-3-110 35-149 17-18 40-26 67-26 23-34 50-51 74-65 30-18 49-30 49-68-1-75-29-89-80-89-5 0-8-4-8-9l0-42c0-5 3-9 8-9l222 0c5 0 8 4 8 9l0 42c0 5-3 9-8 9-56 0-82 28-82 88 0 39 20 51 51 70 23 14 50 30 73 64 0 0 1 0 1 0 26 0 49 8 65 26 40 41 38 119 37 152 0 4 0 7 0 9z m-464-150c-34 35-32 104-31 138 0 1 0 3 0 4l38 0c4-76 18-127 36-162-17 2-32 9-43 20z m279-87c-30-18-59-35-59-84 0-67 31-102 90-105l0-26-204 0 0 26c62 2 87 33 88 105 0 49-28 66-57 84-48 28-112 67-114 263l370 0c-2-195-67-234-114-263z m136 87c-11-11-25-18-43-20 19 35 33 86 37 162l38 0c0-1 0-1 0-1 1-32 3-105-32-141z"/>
<glyph glyph-name="fire-1" unicode="&#57376;" d="M260 0c84 0 141 48 157 133 25 131-58 314-222 378-4 2-8 1-10-2-2-3-2-8 0-11 54-71 57-189 7-254-9 15-13 34-17 53l0 3c-1 3-3 6-6 7-2 1-5 0-8-1-61-44-85-118-62-189 22-71 86-117 161-117z m-99 283c4-21 10-41 24-58 2-2 4-3 7-3 0 0 0 0 0 0 2 0 5 1 6 3 57 62 62 177 17 259 138-70 208-231 186-348-15-76-66-119-141-119-68 0-125 41-145 105-19 60-1 122 46 161z m97-218c34 0 61 27 63 62 0 23-5 54-21 71-9 8-19 13-30 13-3 0-6-2-7-4-2-3-2-6 0-9 8-15 1-31-4-39-11-19-32-34-47-34-2 0-3 0-5 1-2 0-5 0-7-2-3-2-4-5-3-8 5-30 31-51 61-51z m16 85c7 14 11 27 9 40 1-1 3-2 4-4 13-13 17-40 16-59 0-25-20-45-45-45-18 0-34 10-41 26 20 3 43 20 57 42z"/>
<glyph glyph-name="bubble-conversation-5-1" unicode="&#57377;" d="M191 491c97 0 175-63 175-141l17 0c0 87-86 158-192 158-105 0-191-71-191-158 0-43 17-81 49-109l-39-70c-2-4-2-7 1-10 1-2 4-3 6-3 1 0 2 0 3 0l108 42c12-3 23-7 33-8l2 17c-10 1-25 6-33 8-1 1-3 1-5 0l-89-34 31 56c2 4 1 8-2 11-31 25-48 60-48 100 0 78 78 141 174 141z m321-325c0 74-73 137-159 137-86 0-159-63-159-137 0-76 71-141 154-141 0 0 0 0 0 0 22 0 42 4 62 13l82-33c1-1 2-1 3-1 2 0 5 1 6 3 3 3 3 7 2 10l-32 60c27 24 41 54 41 89z m-59-90l24-47-64 26c-1 0-2 0-3 0-2 0-3 0-4 0-18-8-38-13-58-13 0 0 0 0 0 0-74 0-137 57-137 124 0 65 65 120 142 120 77 0 142-55 142-120 0-31-14-59-40-80-3-2-4-7-2-10z"/>
<glyph glyph-name="camera-symbol-3-1" unicode="&#57378;" d="M316 410l-290 0c-15 0-26-12-26-26l0-256c0-14 11-26 26-26l290 0c14 0 25 12 25 26l0 256c0 14-11 26-25 26z m8-282c0-5-4-9-8-9l-290 0c-5 0-9 4-9 9l0 256c0 5 4 9 9 9l290 0c4 0 8-4 8-9z m184 255c-3 1-6 1-8 0l-137-69c-3-1-5-4-5-8l0-110c0-3 2-6 5-7l137-69c1 0 2-1 3-1 2 0 4 1 5 2 2 1 4 4 4 7l0 247c0 3-2 6-4 8z m-13-241l-120 60 0 99 120 61z"/>
<glyph glyph-name="rss-2-1" unicode="&#57379;" d="M102 299l0-17c99 0 180-77 180-171l17 0c0 103-88 188-197 188z m0 102l0-17c158 0 282-120 282-273l17 0c0 163-131 290-299 290z m43-205c-23 0-43-19-43-42 0-24 20-43 43-43 24 0 43 19 43 43 0 23-19 42-43 42z m0-68c-14 0-26 11-26 26 0 14 12 25 26 25 14 0 26-11 26-25 0-15-12-26-26-26z m307 384l-392 0c-33 0-60-27-60-60l0-392c0-33 27-60 60-60l392 0c33 0 60 27 60 60l0 392c0 33-27 60-60 60z m43-452c0-24-19-43-43-43l-392 0c-24 0-43 19-43 43l0 392c0 24 19 43 43 43l392 0c24 0 43-19 43-43z"/>
<glyph glyph-name="address-1-1" unicode="&#57380;" d="M256 512c-141 0-256-115-256-256 0-141 115-256 256-256 52 0 102 15 145 45 4 2 5 8 2 11-3 4-8 5-12 3-40-28-86-42-135-42-132 0-239 107-239 239 0 132 107 239 239 239 132 0 239-107 239-239l0-22c0-36-30-66-67-66-37 0-67 30-67 66l0 22c0 58-47 105-105 105-58 0-105-47-105-105 0-58 47-105 105-105 40 0 75 22 93 56 12-33 43-56 79-56 46 0 84 37 84 83l0 22c0 141-115 256-256 256z m0-344c-49 0-88 39-88 88 0 49 39 88 88 88 49 0 88-39 88-88 0-49-39-88-88-88z"/>
<glyph glyph-name="user-2-1" unicode="&#57381;" d="M9 0l494 0c5 0 9 4 9 9 0 1 0 46-22 91-16 30-66 48-135 74-10 3-20 7-31 11l0 55c7 8 25 30 26 65 5 4 9 11 11 21 4 15 2 32-9 42 1 2 2 5 3 7 8 20 23 59 17 88-7 34-56 49-101 49-33 0-74-8-86-31-12-1-22-7-29-15-18-25-4-69 3-92 0-2 1-4 1-5-11-10-13-28-9-43 2-10 6-17 11-21 1-34 18-54 26-61l0-59c-11-4-21-8-31-11-69-26-119-44-135-74-22-45-22-90-22-91 0-5 4-9 9-9z m29 92c12 24 62 43 125 66 12 4 24 8 36 13 4 1 6 5 6 8l0 68c0 3-1 6-3 7-1 0-24 19-24 57 0 4-3 8-7 8-2 3-6 13-5 24 1 5 2 11 8 14 3 2 4 5 4 8 0 2 0 5-3 13-5 18-18 60-5 77 4 6 11 9 21 9 4 0 8 3 9 6 3 14 34 25 71 25 38 0 80-12 84-35 5-25-9-60-16-79-4-10-5-13-5-16 0-3 1-6 4-8 6-3 7-9 8-14 1-11-3-21-5-24-4 0-7-4-7-8 0-38-24-61-24-61-2-2-3-4-3-6l0-65c0-3 2-7 6-8 12-5 24-9 36-13 63-23 113-42 125-66 15-30 19-60 20-75l-476 0c1 15 5 45 20 75z"/>
<glyph glyph-name="contacts-1" unicode="&#57382;" d="M9 33l387 0c5 0 8 4 8 9 0 3 0 73-10 105-9 25-51 40-104 59-11 4-22 8-34 12l0 41c9 7 28 27 30 67 3 2 6 5 9 9 2 5 4 12 4 19 0 12-4 21-11 26 5 13 15 38 9 62-7 27-47 37-79 37-28 0-64-8-75-30-15 1-23-5-27-10-12-15-4-43 1-58 0 0 0 0 0-1-7-4-11-14-11-26 0-14 5-24 13-28 2-41 24-61 35-67l0-41c-12-4-25-9-37-13-53-18-98-34-106-58-11-32-11-102-11-105 0-5 4-9 9-9z m18 108c5 17 53 33 95 48 15 5 29 10 43 15 3 2 6 5 6 8l0 51c0 4-2 7-5 8 0 0-31 16-31 61 0 5-3 9-8 9-1 0-4 5-4 13 0 4 1 8 2 10 0 1 1 3 2 3 5 0 8 3 8 8 0 2 0 5-2 11-3 10-10 34-3 43 0 1 2 3 9 3 2 0 5 0 8-1 4-1 9 2 10 7 3 14 29 24 61 24 33 0 59-10 62-24 5-19-3-40-8-52-2-5-3-8-3-11 0-5 4-8 9-8 1 0 4-5 4-13 0-9-3-13-4-13-5 0-9-4-9-9 0-45-25-61-26-61-2-2-4-5-4-8l0-51c0-3 2-6 5-8 14-5 27-10 40-14 45-16 88-31 94-49 7-23 9-71 9-91l-370 0c1 20 2 68 10 91z m332 85l-1 1 0 23c11 6 33 25 35 65 4 2 7 5 9 9 3 5 4 12 4 19 0 12-4 22-10 26 0 1 0 1 0 1 5 14 14 41 8 65-3 15-20 31-38 38-18 7-36 5-50-5-4-2-5-8-3-12 3-3 8-5 12-2 13 9 26 6 34 3 16-6 27-19 29-26 4-19-4-43-8-55-2-6-3-9-3-12 0-4 3-8 8-8 1 0 4-5 4-13 0-9-3-13-4-13-5 0-8-4-8-9 0-44-29-58-31-58-3-2-5-5-5-8l0-34c0-4 3-7 6-8l6-3c59-22 125-47 132-69 8-23 9-71 10-91l-35 0c-4 0-8-4-8-8 0-5 4-9 8-9l43 0c5 0 9 4 9 9 0 3 0 73-11 105-10 30-71 53-142 79z"/>
<glyph glyph-name="camera-front-1" unicode="&#57383;" d="M460 375l-37 0-20 35c-8 12-20 23-35 32l-2 2-112 0-3-2c-14-9-26-20-34-32l-33-35-60 0 1 9c0 15-14 34-31 34l-17 0c-16 0-33-18-33-34l-1-9c-27-3-43-21-43-50l0-224c0-31 19-49 53-50l407 0c33 1 52 19 52 50l0 232c0 29-16 42-52 42z m-383 26l17 0c6 0 14-10 14-17l-1-9-47 0 1 9c0 6 9 17 16 17z m418-300c0-21-11-32-36-33l-406 0c-24 1-36 12-36 33l0 224c0 22 11 33 34 33l140 0 39 41 1 1c6 10 16 19 28 27l102 0c12-8 21-17 27-26l25-43 47 0c32 0 35-11 35-25z m-188 249c-70 0-128-58-128-128 0-71 58-128 128-128 71 0 128 57 128 128 0 70-57 128-128 128z m0-239c-61 0-111 50-111 111 0 61 50 111 111 111 61 0 111-50 111-111 0-61-50-111-111-111z m0 188c-42 0-77-35-77-77 0-42 35-77 77-77 43 0 77 35 77 77 0 42-34 77-77 77z m0-137c-33 0-60 27-60 60 0 33 27 60 60 60 33 0 60-27 60-60 0-33-27-60-60-60z m-230 162c-24 0-43-19-43-42 0-24 19-43 43-43 23 0 42 19 42 43 0 23-19 42-42 42z m0-68c-14 0-26 11-26 26 0 14 12 25 26 25 14 0 25-11 25-25 0-15-11-26-25-26z"/>
<glyph glyph-name="file-1-1" unicode="&#57384;" d="M441 390l-119 119c-1 1-2 2-3 2-1 1-2 1-3 1l-239 0c-5 0-9-4-9-9l0-494c0-5 4-9 9-9l358 0c5 0 9 4 9 9l0 375c0 1 0 2-1 3 0 1-1 2-2 3z m-117 93l91-90-91 0z m-239-466l0 478 222 0 0-111c0-5 4-9 9-9l111 0 0-358z"/>
<glyph glyph-name="move-vertical-2-1" unicode="&#57385;" d="M143 125c-4 4-9 4-12 0-4-3-4-8 0-12l110-110c1-1 2-2 3-2 1-1 2-1 3-1 2 0 3 0 4 1 1 0 2 1 3 2l110 110c4 4 4 9 0 12-3 4-8 4-12 0l-96-96 0 454 96-97c2-1 4-2 6-2 3 0 5 1 6 2 4 4 4 9 0 13l-110 110c-1 1-2 2-3 2-2 1-5 1-7 0-1 0-2-1-3-2l-110-110c-4-4-4-9 0-13 3-3 8-3 12 0l96 97 0-454z"/>
<glyph glyph-name="check-bubble-1" unicode="&#57386;" d="M358 338l-156-145-48 48c-3 3-8 3-12 0-3-4-3-9 0-13l54-53c2-2 4-3 6-3 2 0 4 1 6 2l161 151c4 3 4 9 1 12-3 4-9 4-12 1z m154-82c0 19-11 37-27 45 11 15 15 35 8 53-8 18-24 30-43 32 5 17 1 37-13 51-10 10-23 15-36 15-6 0-11-1-16-2-1 18-13 35-31 42-18 8-38 4-53-7-8 16-26 27-45 27-19 0-37-11-46-27-14 11-34 15-52 7-18-7-30-24-32-42-4 1-10 2-15 2-13 0-26-5-36-15-14-14-18-34-13-52-19-1-35-13-43-31-7-18-4-38 8-53-16-8-27-26-27-45 0-19 11-37 27-45-12-15-15-35-8-53 8-18 24-30 43-32-5-17-1-37 13-51 10-10 23-15 36-15 6 0 11 1 15 2 2-18 14-35 32-43 18-7 38-3 52 8 9-16 27-27 46-27 19 0 37 11 45 27 15-11 35-15 53-8 18 8 30 25 31 43 5-1 10-2 16-2 13 0 26 5 36 15 14 14 18 34 13 51 19 2 35 14 43 32 7 18 4 38-8 53 16 8 27 26 27 45z m-45-34c-4 0-6-3-7-7-1-3 1-6 4-8 14-9 19-27 13-42-6-13-18-22-32-22-3 0-5 1-7 1-4 1-7-1-9-4-2-2-2-6 0-9 9-14 8-32-4-44-12-11-31-13-44-4-3 2-7 2-9 0-3-2-5-5-4-9 3-16-5-32-21-39-15-6-33 0-42 13-2 3-5 5-8 4-4-1-7-3-7-7-3-16-17-28-34-28-17 0-31 12-34 28-1 4-3 6-7 7 0 0-1 0-1 0-3 0-6-1-7-4-9-13-27-19-42-13-16 7-24 23-21 39 1 4-1 7-4 9-2 2-6 2-9 0-13-9-33-7-44 4-12 12-13 30-4 44 2 3 2 7 0 9-2 3-5 5-9 4-2 0-5-1-7-1-14 0-26 9-32 22-6 15-1 33 13 42 3 2 5 5 4 8-1 4-3 7-7 7-16 3-28 17-28 34 0 17 12 31 28 34 4 0 6 3 7 7 1 3-1 6-4 8-14 9-19 27-13 42 6 13 18 22 32 22 2 0 5-1 7-1 4-1 7 1 9 4 2 2 2 6 0 9-9 14-8 32 4 44 11 11 31 13 44 4 3-2 7-2 9 0 3 2 5 5 4 9-3 16 5 32 21 39 15 6 33 0 42-13 1-3 5-5 8-4 4 1 6 3 7 7 3 16 17 28 34 28 17 0 31-12 34-28 0-4 3-6 7-7 3-1 6 1 8 4 9 13 27 19 42 13 16-7 24-23 21-39-1-4 1-7 4-9 2-2 6-2 9 0 13 9 32 7 44-4 12-12 13-30 4-44-2-3-2-7 0-9 2-3 5-5 9-4 2 0 5 1 7 1 14 0 26-9 32-22 6-15 1-33-13-42-3-2-5-5-4-8 1-4 3-7 7-7 16-3 28-17 28-34 0-17-12-31-28-34z"/>
<glyph glyph-name="setting-gear-1" unicode="&#57387;" d="M503 307l-67 0c-1 4-3 10-4 14-3 10-6 20-10 29l45 45c2 1 3 3 3 6 0 2-1 4-3 6l-60 60c-4 4-9 4-12 0l-45-44c-10 5-22 9-32 12-4 2-8 3-11 4l0 64c0 5-4 9-8 9l-86 0c-4 0-8-4-8-9l0-64c-3-1-7-2-11-4-10-3-22-7-32-12l-45 44c-3 4-8 4-12 0l-60-60c-4-4-4-9 0-12l44-45c-5-10-9-22-12-32-2-4-3-8-4-11l-64 0c-5 0-9-4-9-8l0-69c0-4 4-8 9-8l62 0c4-17 10-42 18-60l-44-45c-2-1-3-3-3-6 0-2 1-4 3-6l60-60c4-4 9-4 12 0l45 44c10-5 22-9 32-12 4-2 8-3 11-4l0-64c0-5 4-9 8-9l86 0c4 0 8 4 8 9l0 64c3 1 7 2 11 4 10 3 22 7 32 12l45-44c3-4 8-4 12 0l60 60c4 4 4 9 0 12l-44 45c8 13 14 26 18 60l62 0c5 0 9 4 9 8l0 69c0 4-4 8-9 8z m-8-68l-61 0c-5 0-8-3-9-8-4-39-11-50-20-65l0-1c-2-3-2-7 1-10l43-44-48-48-44 43c-3 3-7 3-10 1-9-5-23-10-35-14-7-3-14-5-17-7-3-2-5-4-5-8l0-61-68 0 0 61c0 4-2 6-5 8-3 2-10 4-17 7-12 4-26 9-35 14-3 2-7 2-10-1l-44-43-48 48 43 44c3 3 3 7 1 10-7 13-15 37-20 67-1 4-4 7-9 7l-61 0 0 51 61 0c3 0 6 2 8 5 2 3 4 10 7 17 4 12 9 26 14 35 2 3 2 7-1 10l-43 44 48 48 44-43c3-3 7-3 10-1 9 5 23 10 35 14 7 3 14 5 17 7 3 2 5 4 5 8l0 61 68 0 0-61c0-4 2-6 5-8 3-2 10-4 17-7 12-4 26-9 35-14 3-2 7-2 10 1l44 43 48-48-43-44c-3-3-3-7-1-10 4-7 8-20 11-31 5-19 8-27 16-27l0 0c2 0 3 0 5 1l58 0z m-239 119c-56 0-102-46-102-102 0-56 46-102 102-102 56 0 102 46 102 102 0 56-46 102-102 102z m0-187c-47 0-85 38-85 85 0 47 38 85 85 85 47 0 85-38 85-85 0-47-38-85-85-85z"/>
<glyph glyph-name="pulse-1" unicode="&#57388;" d="M503 239l-122 0-49 106c-2 3-5 5-9 5-3-1-6-3-7-7l-50-250-53 360c0 4-4 7-8 8-4 0-7-2-8-6l-67-216-121 0c-5 0-9-4-9-9 0-4 4-8 9-8l128 0c3 0 7 2 8 6l57 186 54-373c1-4 4-7 8-7 0 0 0 0 1 0 4 0 7 3 8 7l54 273 41-87c1-3 4-5 7-5l128 0c5 0 9 4 9 8 0 5-4 9-9 9z"/>
<glyph glyph-name="alert-2-1" unicode="&#57389;" d="M239 305l0-131c0-5 4-9 8-9 5 0 9 4 9 9l0 131c0 4-4 8-9 8-4 0-8-4-8-8z m25-188c0-9-8-16-17-16-9 0-16 7-16 16 0 9 7 16 16 16 9 0 17-7 17-16z m-9 322c-3 6-12 6-15 0l-188-375c-1-3-1-6 0-9 2-2 5-4 8-4l375 0c0 0 0 0 0 0 5 0 9 4 9 9 0 2-1 3-2 5z m-181-371l173 348 174-348z"/>
<glyph glyph-name="question-mark-1" unicode="&#57390;" d="M265 154c0-10-8-17-18-17-9 0-17 7-17 17 0 9 8 17 17 17 10 0 18-8 18-17z m-18 307c-112 0-204-92-204-205 0-113 92-205 204-205 113 0 205 92 205 205 0 113-92 205-205 205z m0-393c-103 0-187 84-187 188 0 104 84 188 187 188 104 0 188-84 188-188 0-104-84-188-188-188z m0 290c-32 0-59-26-59-59 0-5 4-9 8-9 5 0 9 4 9 9 0 23 19 42 42 42 24 0 43-19 43-42 0-24-19-43-43-43-4 0-8-4-8-9l0-51c0-4 4-8 8-8 5 0 9 4 9 8l0 44c29 4 51 29 51 59 0 33-27 59-60 59z"/>
<glyph glyph-name="house-2-1" unicode="&#57391;" d="M77 239c-5 0-9-4-9-9l0-213 137 0 0 154 102 0 0-154 137 0 0 213c0 5-4 9-9 9-5 0-8-4-8-9l0-196-103 0 0 154-136 0 0-154-103 0 0 196c0 5-3 9-8 9z m185 253c-3 4-9 4-12 0l-247-247c-4-3-4-9 0-12 3-3 8-3 12 0l241 241 241-241c2-2 4-3 6-3 3 0 5 1 7 3 3 3 3 9 0 12z m71-31l77 0 0-77c0-5 3-9 8-9 5 0 9 4 9 9l0 94-94 0c-5 0-9-4-9-9 0-4 4-8 9-8z"/>
<glyph glyph-name="lightbulb-1-1" unicode="&#57392;" d="M247 154c99 0 180 80 180 179 0 99-81 179-180 179-98 0-179-80-179-179 0-99 81-179 179-179z m0 341c90 0 163-73 163-162 0-87-69-157-154-162l0 73 20-20c1-1 3-2 6-2 2 0 4 1 6 2l34 34c3 4 3 9 0 13-4 3-9 3-12 0l-28-29-28 29c-1 0-2 1-3 1-2 1-5 1-7 0-1 0-2-1-3-1l-28-29-28 29c-3 3-8 3-12 0-3-4-3-9 0-13l34-34c4-3 9-3 12 0l20 20 0-73c-85 5-154 75-154 162 0 89 73 162 162 162z m52-376l-103 0c-4 0-8-3-8-8 0-5 4-9 8-9l103 0c4 0 8 4 8 9 0 5-4 8-8 8z m0-34l-103 0c-4 0-8-3-8-8 0-5 4-9 8-9l103 0c4 0 8 4 8 9 0 5-4 8-8 8z m-52-85c5 0 9 4 9 9l0 25 43 0c4 0 8 4 8 9 0 4-4 8-8 8l-103 0c-4 0-8-4-8-8 0-5 4-9 8-9l43 0 0-25c0-5 4-9 8-9z"/>
<glyph glyph-name="arrow-37-1" unicode="&#57393;" d="M399 467l-43 42c-3 4-9 4-12 0l-248-247c-3-3-3-9 0-12l248-248c1-1 4-2 6-2 2 0 4 1 6 2l43 43c3 4 3 9 0 12l-199 199 199 199c3 3 3 8 0 12z m-217-205c-4-3-4-9 0-12l198-199-30-30-236 235 236 235 30-30z"/>
<glyph glyph-name="arrow-38-1" unicode="&#57394;" d="M139 45l43-43c1-1 4-2 6-2 2 0 4 1 6 2l247 248c4 3 4 9 0 12l-247 247c-4 4-9 4-12 0l-43-42c-3-4-3-9 0-12l199-199-199-199c-3-3-3-8 0-12z m217 205c3 3 3 9 0 12l-199 199 31 30 235-235-235-235-31 30z"/>
<glyph glyph-name="arrow-39-1" unicode="&#57395;" d="M467 356c-4 3-9 3-12 0l-199-199-199 199c-3 3-8 3-12 0l-42-43c-4-3-4-8 0-12l247-247c2-2 4-3 6-3 2 0 4 1 6 3l248 247c3 4 3 9 0 12z m-211-284l-235 235 30 31 199-199c3-3 9-3 12 0l199 199 30-31z"/>
<glyph glyph-name="arrow-40-1" unicode="&#57396;" d="M262 407c-3 3-9 3-12 0l-247-247c-4-4-4-9 0-12l42-43c4-3 9-3 12 0l199 199 199-199c1-2 4-3 6-3 2 0 4 1 6 3l43 43c3 3 3 8 0 12z m199-284l-199 199c-2 1-4 2-6 2-2 0-4-1-6-2l-199-199-30 31 235 235 235-235z"/>
<glyph glyph-name="coins-2" unicode="&#57397;" d="M171 171c0-9 58-34 170-34 112 0 171 25 171 34 0 1 0 2 0 3 0 1-1 2-1 2 0 1 0 1 0 1-4 12-20 22-42 29 0 0 0 0 0 0-1 0-2 1-3 1-36 11-84 14-119 15-2 0-4 0-6 0-59 0-170-11-170-51z m0 136c97 0 170 21 170 34l0 37c-38-23-129-28-170-28-41 0-133 5-171 28l0-37c0-13 73-34 171-34z m0-60c97 0 170 21 170 35l0 36c-38-22-129-28-170-28-41 0-133 6-171 28l0-36c0-14 73-35 171-35z m0 120c97 0 170 21 170 34l0 37c-34-20-115-28-170-28-56 0-136 8-171 28l0-37c0-13 73-34 171-34z m170-128l0 20c-38-23-129-29-170-29-41 0-133 6-171 29l0-37c0-14 63-34 158-34 10 20 38 34 85 43 44 8 90 8 98 8z m-341-77c0-37 90-49 154-51l0 60c0 0 0 0 0 0-48 0-121 7-154 27z m171-74l0-37c0-40 107-51 170-51 64 0 171 11 171 51l0 37c-38-23-130-28-171-28-40 0-132 5-170 28z m0 60l0-37c0-13 73-34 170-34 98 0 171 21 171 34l0 37c-35-20-115-29-171-29-55 0-136 9-170 29z m0 279c112 0 170 25 170 34 0 35-88 51-170 51-83 0-171-16-171-51 0-9 59-34 171-34z"/>
<glyph glyph-name="coins-2-1" unicode="&#57398;" d="M171 111l0-60c0-40 107-51 170-51 64 0 171 11 171 51l0 120c0 35-88 51-171 51l0 239c0 35-88 51-170 51-83 0-171-16-171-51l0-299c0-40 107-51 171-51z m-154 51l0 35c33-20 106-26 154-26l0-43c-94 0-154 20-154 34z m307 239c0-14-60-34-153-34-94 0-154 20-154 34l0 36c30-19 93-27 154-27 60 0 124 8 153 27z m-153-51c48 0 120 6 153 26l0-35c0-14-60-34-153-34-94 0-154 20-154 34l0 35c33-20 106-26 154-26z m0-60c48 0 120 6 153 27l0-35c0-14-60-35-153-35-94 0-154 21-154 35l0 35c33-21 106-27 154-27z m324-179c0-14-60-34-154-34-93 0-153 20-153 34l0 36c29-19 93-28 153-28 61 0 124 9 154 28z m-154-94c-93 0-153 20-153 34l0 35c33-20 105-26 153-26 48 0 121 6 154 26l0-35c0-14-60-34-154-34z m154 154c0-12-54-34-154-34-99 0-153 22-153 34 0 11 54 34 153 34 100 0 154-23 154-34z m-316 17c-3 0-6 0-8 0-94 0-154 20-154 34l0 35c33-20 106-27 154-27 48 0 120 7 153 27l0-35c0 0 0 0 0 0-62-2-124-13-145-34z m-8 307c99 0 153-23 153-34 0-12-54-34-153-34-100 0-154 22-154 34 0 11 54 34 154 34z"/>
<glyph glyph-name="business-chart-2" unicode="&#57399;" d="M503 17l-25 0 0 316c0 5-4 8-9 8l-68 0c-5 0-8-3-8-8l0-316-35 0 0 162c0 5-3 9-8 9l-68 0c-5 0-9-4-9-9l0-162-34 0 0 213c0 5-4 9-9 9l-68 0c-5 0-8-4-8-9l0-213-35 0 0 94c0 5-3 8-8 8l-68 0c-5 0-9-3-9-8l0-94-25 0c-5 0-9-4-9-8 0-5 4-9 9-9l494 0c5 0 9 4 9 9 0 4-4 8-9 8z m-435 213c19 0 34 16 34 35 0 5-1 10-3 15l78 67c5-3 12-6 19-6 12 0 21 6 28 14l67-26c-1-2-1-3-1-5 0-19 15-34 34-34 19 0 34 15 34 34 0 8-2 15-6 20l86 103c4-2 9-3 14-3 19 0 34 15 34 34 0 19-15 34-34 34-19 0-34-15-34-34 0-8 3-14 7-20l-86-103c-5 2-10 3-15 3-11 0-21-5-27-14l-67 27c0 2 0 3 0 4 0 19-15 35-34 35-19 0-34-16-34-35 0-5 2-10 4-15l-78-67c-6 3-13 6-20 6-19 0-34-16-34-34 0-19 15-35 34-35z"/>
<glyph glyph-name="business-chart-2-1" unicode="&#57400;" d="M503 17l-25 0 0 316c0 5-4 8-9 8l-68 0c-5 0-8-3-8-8l0-316-35 0 0 162c0 5-3 9-8 9l-68 0c-5 0-9-4-9-9l0-162-34 0 0 213c0 5-4 9-9 9l-68 0c-5 0-8-4-8-9l0-213-35 0 0 94c0 5-3 8-8 8l-68 0c-5 0-9-3-9-8l0-94-25 0c-5 0-9-4-9-8 0-5 4-9 9-9l494 0c5 0 9 4 9 9 0 4-4 8-9 8z m-452 0l0 85 51 0 0-85z m120 0l0 205 51 0 0-205z m119 0l0 154 51 0 0-154z m120 0l0 307 51 0 0-307z m-214 393c-19 0-34-16-34-35 0-5 2-10 4-15l-78-67c-6 3-13 6-20 6-19 0-34-16-34-34 0-19 15-35 34-35 19 0 34 16 34 35 0 5-1 10-3 15l78 67c5-3 12-6 19-6 12 0 21 6 28 14l67-26c-1-2-1-3-1-5 0-19 15-34 34-34 19 0 34 15 34 34 0 8-2 15-6 20l86 103c4-2 9-3 14-3 19 0 34 15 34 34 0 19-15 34-34 34-19 0-34-15-34-34 0-8 3-14 7-20l-86-103c-5 2-10 3-15 3-11 0-21-5-27-14l-67 27c0 2 0 3 0 4 0 19-15 35-34 35z m256 85c10 0 17-8 17-17 0-10-7-17-17-17-9 0-17 7-17 17 0 9 8 17 17 17z m-128-154c4 0 8-1 11-4 0 0 0 0 0 0 0 0 0 0 0 0 4-3 6-7 6-13 0-9-7-17-17-17-9 0-17 8-17 17 0 10 8 17 17 17z m-256-94c-9 0-17 8-17 18 0 9 8 17 17 17 5 0 10-3 13-6 0 0 0 0 0 0 0 0 0 0 0 0 3-3 4-7 4-11 0-10-7-18-17-18z m128 111c-9 0-17 8-17 17 0 10 8 18 17 18 10 0 17-8 17-18 0-9-7-17-17-17z"/>
<glyph glyph-name="newspaper-2" unicode="&#57401;" d="M367 77l0 435-358 0c-5 0-9-4-9-9l0-426c0-48 29-77 77-77l321 0c-16 13-31 36-31 77z m-299 307c0 5 4 9 9 9l119 0c5 0 9-4 9-9l0-137c0-4-4-8-9-8l-119 0c-5 0-9 4-9 8z m231-282l-222 0c-5 0-9 4-9 9 0 5 4 8 9 8l222 0c4 0 8-3 8-8 0-5-4-9-8-9z m0 35l-222 0c-5 0-9 3-9 8 0 5 4 9 9 9l222 0c4 0 8-4 8-9 0-5-4-8-8-8z m0 34l-222 0c-5 0-9 3-9 8 0 5 4 9 9 9l222 0c4 0 8-4 8-9 0-5-4-8-8-8z m0 34l-222 0c-5 0-9 4-9 8 0 5 4 9 9 9l222 0c4 0 8-4 8-9 0-4-4-8-8-8z m0 34l-69 0c-4 0-8 4-8 8 0 5 4 9 8 9l69 0c4 0 8-4 8-9 0-4-4-8-8-8z m0 34l-69 0c-4 0-8 4-8 9 0 4 4 8 8 8l69 0c4 0 8-4 8-8 0-5-4-9-8-9z m0 34l-69 0c-4 0-8 4-8 9 0 4 4 8 8 8l69 0c4 0 8-4 8-8 0-5-4-9-8-9z m0 34l-52 0c-4 0-8 4-8 9 0 5 4 8 8 8l52 0c4 0 8-3 8-8 0-5-4-9-8-9z m0 86l-222 0c-5 0-9 3-9 8 0 5 4 9 9 9l222 0c4 0 8-4 8-9 0-5-4-8-8-8z m204 17l-68 0 0 25c0 5-4 9-8 9l-34 0c-5 0-9-4-9-9l0-392c0-5 0-9 1-12 0-1 0-2 0-3 5-50 39-60 53-61 0 0 0 0 0 0 4-1 7-1 10-1 44 0 64 40 64 77l0 358c0 5-4 9-9 9z m-51-367c0-5-4-9-8-9-5 0-9 4-9 9l0 324 17 0z"/>
<glyph glyph-name="newspaper-2-1" unicode="&#57402;" d="M299 444l-222 0c-5 0-9-4-9-9 0-5 4-8 9-8l222 0c4 0 8 3 8 8 0 5-4 9-8 9z m-222-205l119 0c5 0 9 4 9 8l0 137c0 5-4 9-9 9l-119 0c-5 0-9-4-9-9l0-137c0-4 4-8 9-8z m8 136l103 0 0-119-103 0z m214-17l-52 0c-4 0-8-3-8-8 0-5 4-9 8-9l52 0c4 0 8 4 8 9 0 5-4 8-8 8z m0-34l-69 0c-4 0-8-4-8-8 0-5 4-9 8-9l69 0c4 0 8 4 8 9 0 4-4 8-8 8z m0-34l-69 0c-4 0-8-4-8-8 0-5 4-9 8-9l69 0c4 0 8 4 8 9 0 4-4 8-8 8z m0-34l-69 0c-4 0-8-4-8-9 0-4 4-8 8-8l69 0c4 0 8 4 8 8 0 5-4 9-8 9z m0-34l-222 0c-5 0-9-4-9-9 0-4 4-8 9-8l222 0c4 0 8 4 8 8 0 5-4 9-8 9z m0-34l-222 0c-5 0-9-4-9-9 0-5 4-8 9-8l222 0c4 0 8 3 8 8 0 5-4 9-8 9z m0-34l-222 0c-5 0-9-4-9-9 0-5 4-8 9-8l222 0c4 0 8 3 8 8 0 5-4 9-8 9z m0-35l-222 0c-5 0-9-3-9-8 0-5 4-9 9-9l222 0c4 0 8 4 8 9 0 5-4 8-8 8z m204 325l-76 0 0 25c0 5-4 9-9 9l-43 0 0 25c0 5-3 9-8 9l-358 0c-5 0-9-4-9-9l0-426c0-48 29-77 77-77l358 0c43 0 77 34 77 77l0 358c0 5-4 9-9 9z m-76-51l17 0 0-316c0-5-4-9-9-9-5 0-8 4-8 9z m-350-376c-38 0-60 22-60 60l0 418 341 0 0-418c0-24 12-46 29-60z m418 60c0-33-27-60-60-60-33 0-60 27-60 60l0 384 35 0 0-384c0-14 11-26 25-26 14 0 26 12 26 26l0 324c0 5-4 9-9 9l-25 0 0 17 68 0z"/>
<glyph glyph-name="calendar-2" unicode="&#57403;" d="M256 171l102 0 0-69-102 0z m-119 0l102 0 0-69-102 0z m0 85l102 0 0-68-102 0z m119 0l102 0 0-68-102 0z m247 222l-76 0 0 25c0 5-4 9-9 9l-68 0c-5 0-9-4-9-9l0-25-170 0 0 25c0 5-4 9-9 9l-68 0c-5 0-9-4-9-9l0-25-76 0c-5 0-9-4-9-9l0-111 512 0 0 111c0 5-4 9-9 9z m-349-51l-52 0 0 68 52 0z m256 0l-52 0 0 68 52 0z m-410-418c0-5 4-9 9-9l494 0c5 0 9 4 9 9l0 332-512 0z m52 162c-5 0-9 3-9 8 0 5 4 9 9 9l67 0 0 68-67 0c-5 0-9 4-9 9 0 4 4 8 9 8l67 0 0 37c0 5 4 8 9 8 5 0 9-3 9-8l0-37 102 0 0 37c0 5 4 8 8 8 5 0 9-3 9-8l0-37 102 0 0 37c0 5 4 8 9 8 5 0 8-3 8-8l0-37 85 0c5 0 9-4 9-8 0-5-4-9-9-9l-85 0 0-68 85 0c5 0 9-4 9-9 0-5-4-8-9-8l-85 0 0-69 85 0c5 0 9-3 9-8 0-5-4-9-9-9l-85 0 0-33c0-5-3-9-8-9-5 0-9 4-9 9l0 33-102 0 0-33c0-5-4-9-9-9-4 0-8 4-8 9l0 33-102 0 0-33c0-5-4-9-9-9-5 0-9 4-9 9l0 33-67 0c-5 0-9 4-9 9 0 5 4 8 9 8l67 0 0 69z"/>
<glyph glyph-name="calendar-2-1" unicode="&#57404;" d="M503 478l-76 0 0 25c0 5-4 9-9 9l-68 0c-5 0-9-4-9-9l0-25-170 0 0 25c0 5-4 9-9 9l-68 0c-5 0-9-4-9-9l0-25-76 0c-5 0-9-4-9-9l0-460c0-5 4-9 9-9l494 0c5 0 9 4 9 9l0 460c0 5-4 9-9 9z m-145 17l52 0 0-68-52 0z m-256 0l52 0 0-68-52 0z m-17-34l0-43c0-5 4-8 9-8l68 0c5 0 9 3 9 8l0 43 170 0 0-43c0-5 4-8 9-8l68 0c5 0 9 3 9 8l0 43 68 0 0-103-478 0 0 103z m-68-444l0 324 478 0 0-324z m443 239c5 0 9 4 9 9 0 4-4 8-9 8l-85 0 0 37c0 5-3 8-8 8-5 0-9-3-9-8l0-37-102 0 0 37c0 5-4 8-9 8-4 0-8-3-8-8l0-37-102 0 0 37c0 5-4 8-9 8-5 0-9-3-9-8l0-37-67 0c-5 0-9-4-9-8 0-5 4-9 9-9l67 0 0-68-67 0c-5 0-9-4-9-9 0-5 4-8 9-8l67 0 0-69-67 0c-5 0-9-3-9-8 0-5 4-9 9-9l67 0 0-33c0-5 4-9 9-9 5 0 9 4 9 9l0 33 102 0 0-33c0-5 4-9 8-9 5 0 9 4 9 9l0 33 102 0 0-33c0-5 4-9 9-9 5 0 8 4 8 9l0 33 85 0c5 0 9 4 9 9 0 5-4 8-9 8l-85 0 0 69 85 0c5 0 9 3 9 8 0 5-4 9-9 9l-85 0 0 68z m-323 0l102 0 0-68-102 0z m0-154l0 69 102 0 0-69z m221 0l-102 0 0 69 102 0z m0 86l-102 0 0 68 102 0z"/>
<glyph glyph-name="heart-1" unicode="&#57405;" d="M368 512c-45 0-94-28-116-91-21 62-70 90-114 90-79 0-121-76-121-151 0-75 40-157 116-237 56-59 112-96 114-98 2-1 3-1 5-1 2 0 4 0 5 2 1 0 58 45 114 109 77 87 115 167 115 238 0 69-40 139-118 139z"/>
<glyph glyph-name="heart-1-1" unicode="&#57406;" d="M372 500c-45 0-94-28-116-91-21 62-70 90-114 90-79 0-120-76-120-151 0-75 39-157 115-236 56-60 112-97 114-99 2-1 3-1 5-1 2 0 4 0 5 2 1 0 58 45 114 109 77 87 115 167 115 238 0 69-40 139-118 139z m-116-469c-34 23-217 160-217 317 0 92 53 134 103 134 61 0 97-55 106-110 0-4 4-7 8-7 4 0 8 3 8 7 13 82 66 111 108 111 49 0 101-38 101-122 0-146-185-303-217-330z"/>
<glyph glyph-name="file-edit" unicode="&#57407;" d="M361 182l0 0-82-82 70-62 103 103-66 66z m-101-76c1 1 2 2 3 2l98 98 0 193c0 2 0 4-2 6l-102 102c-2 2-4 3-6 3l-239 0c-5 0-9-4-9-9l0-444c0-4 4-8 9-8l231 0 15 52c0 2 1 3 2 5z m-9 395l102-102-102 0z m10-452l-13-47 87 25-64 57z m138 170l44 45 66-66-45-45z"/>
<glyph glyph-name="file-edit-1" unicode="&#57408;" d="M9 51l215 0 0 17-207 0 0 427 222 0 0-94c0-5 4-8 8-8l94 0 0-83 17 0 0 91c0 1 0 2 0 3-1 1-1 2-2 3l-103 103c0 0-1 1-2 1-1 1-2 1-4 1l-238 0c-5 0-9-4-9-9l0-443c0-5 4-9 9-9z m247 432l73-73-73 0z m256-292c0 3-1 5-2 6l-54 54c-4 4-9 4-12 0l-162-161c0-1-1-2-1-3-1 0-1 0-1 0 0 0 0-1 0-1l-21-75c-1-3 0-6 2-9 1-1 4-2 6-2 1 0 1 0 2 0l75 22c1 0 1 0 1 0 0 0 0 0 1 0 1 1 1 1 2 2l162 161c1 2 2 4 2 6z m-170-149l-42 42 107 106 41-42z m-50 26l34-34-47-13z m168 92l-41 42 31 31 41-42z"/>
<glyph glyph-name="hourglass-1" unicode="&#57409;" d="M435 17l-34 0 0 103c0 64-39 116-95 136 30 11 56 31 73 58 14 23 22 50 22 79l0 102 34 0c5 0 9 4 9 8 0 5-4 9-9 9l-358 0c-5 0-9-4-9-9 0-4 4-8 9-8l34 0 0-102c0-28 7-54 21-77 17-29 43-49 74-60-56-20-95-73-95-137l0-102-34 0c-5 0-9-4-9-8 0-5 4-9 9-9l358 0c5 0 9 4 9 9 0 4-4 8-9 8z m-290 312l-1 0c-10 19-16 41-16 64l0 102 256 0 0-102c0-23-6-45-16-64z m239-227l-65 0-57 58c-3 3-9 3-12 0l-57-58-65 0 0 17c0 72 56 128 128 128 73 0 128-55 128-128z"/>
<glyph glyph-name="hourglass-1-1" unicode="&#57410;" d="M102 119l0-102-34 0c-4 0-8-4-8-8 0-5 4-9 8-9l359 0c4 0 8 4 8 9 0 4-4 8-8 8l-34 0 0 103c-1 64-39 116-95 136 56 20 94 72 95 137l0 102 34 0c4 0 8 4 8 8 0 5-4 9-8 9l-359 0c-4 0-8-4-8-9 0-4 4-8 8-8l34 0 0-102c0-64 40-117 96-137-56-20-96-73-96-137z m17-102l0 68 69 0c2 0 4 1 6 3l53 54 54-54c2-2 4-3 6-3l68 0 0-68z m0 478l256 0 0-102c0-27-7-50-19-70-2 1-3 1-5 1l-212 0c-12 20-20 43-20 69z m32-188l193 0c-23-26-57-42-97-42-38 0-72 16-96 42z m96-60c73 0 128-55 128-128l0-17-64 0-57 58c-4 3-9 3-13 0l-57-58-65 0 0 17c0 72 57 128 128 128z"/>
<glyph glyph-name="cursor-move" unicode="&#57411;" d="M512 263c0 1-1 1-1 2 0 0 0 1 0 2-1 0-1 1-1 1 0 1-1 1-1 2-1 0-1 1-2 2l-60 60c-6 7-17 7-24 0-7-7-7-18 0-24l31-31-179 0 0 172 33-32c3-4 8-5 12-5 4 0 9 1 12 5 7 6 7 17 0 24l-62 62c0 0 0 0 0 0-1 0-1 1-2 2-1 0-1 0-2 0 0 1-1 1-1 1-1 0-1 1-2 1 0 0-1 0-1 0-1 0-3 1-4 1 0 0 0 0 0 0 0 0 0 0 0 0-1 0-2-1-3-1-1 0-1 0-2 0 0 0-1-1-1-1-1 0-1 0-2-1 0 0-1 0-1 0-1-1-2-2-3-2 0 0 0 0 0 0l-62-62c-6-7-6-18 0-24 7-7 18-7 25 0l32 32 0-172-174 0 30 31c7 6 7 17 0 24-6 7-17 7-24 0l-59-60c-1-1-2-2-3-2 0-1 0-1 0-2-1 0-1-1-1-1 0-1-1-2-1-2 0-1 0-1 0-2-1-2-1-4 0-6 0-1 0-1 0-2 0 0 1-1 1-1 0-1 0-2 1-2 0-1 0-1 0-1 1-1 2-2 3-3l59-60c4-3 8-5 12-5 5 0 9 2 12 5 7 7 7 18 0 24l-30 31 174 0 0-185-32 33c-7 7-18 7-25 0-6-7-6-18 0-24l62-62c1-1 2-2 3-2 0 0 0 0 1-1 0 0 1 0 2-1 0 0 0 0 1 0 0 0 1-1 2-1 1 0 2 0 3 0 1 0 2 0 4 0 0 0 1 1 2 1 0 0 0 0 1 0 1 1 1 1 2 1 0 1 0 1 1 1 1 1 2 1 2 2l62 62c7 6 7 17 0 24-7 7-17 7-24 0l-33-33 0 185 179 0-31-31c-7-6-7-17 0-24 3-3 8-5 12-5 5 0 9 2 12 5l60 60c1 1 1 2 2 3 0 0 1 1 1 1 0 0 0 1 1 2 0 0 0 1 0 1 0 1 1 1 1 2 0 2 0 4 0 6z"/>
<glyph glyph-name="cursor-move-1" unicode="&#57412;" d="M494 251c0 1-1 2-2 2l-59 60c-4 4-9 4-12 0-4-3-4-9 0-12l45-45-208 0 0 205 47-47c2-2 4-2 6-2 3 0 5 0 6 2 4 3 4 9 0 12l-61 62c-1 1-2 1-3 2-2 1-4 1-7 0-1-1-2-1-2-2l-62-62c-3-3-3-9 0-12 3-3 9-3 12 0l47 47 0-205-203 0 45 45c3 4 3 9 0 12-4 4-9 4-12 0l-60-59c-1-1-1-2-2-3-1-2-1-5 0-7 1-1 1-2 2-3l60-59c1-2 4-3 6-3 2 0 4 1 6 3 3 3 3 8 0 12l-45 45 203 0 0-210-47 47c-3 4-9 4-12 0-3-3-3-8 0-12l62-62c0 0 1-1 2-1 1-1 3-1 4-1 1 0 2 0 3 1 1 0 2 1 3 1l61 62c4 4 4 9 0 12-3 4-8 4-12 0l-47-47 0 210 208 0-45-45c-4-4-4-9 0-12 1-2 3-3 6-3 2 0 4 1 6 3l59 59c1 1 2 2 2 3 1 2 1 5 0 7z"/>
<glyph glyph-name="lock-2" unicode="&#57413;" d="M384 307l0 68c0 66-51 137-128 137-77 0-128-71-128-137l0-68-51 0 0-307 358 0 0 307z m-119-134l0-58c0-5-4-9-9-9-5 0-9 4-9 9l0 58c-5 3-8 8-8 15 0 9 8 17 17 17 9 0 17-8 17-17 0-7-3-12-8-15z m102 134l-222 0 0 68c0 58 45 120 111 120 66 0 111-62 111-120z"/>
<glyph glyph-name="bubble-conversation-5" unicode="&#57351;" d="M353 325c10 0 19-1 29-3 2 17 1 30 1 33 0 86-86 157-192 157-105 0-191-71-191-158 0-42 17-81 49-109l-39-70c-2-3-2-7 1-10 1-2 4-3 6-3 1 0 2 0 3 1l108 41c10-3 23-7 33-8 6 0 12-1 18-1 14 72 88 130 174 130z m0-17c-86 0-159-63-159-138 0-10 1-19 3-28 15-63 78-112 151-112 0 0 1 0 1 0 5 0 10 0 15 0 1 1 3 1 5 1 3 1 7 1 10 2 2 0 4 1 6 1 3 1 6 1 9 2 2 1 4 2 6 2 3 2 6 3 10 4l3-1c0 0 0 0 0 0l79-32c1 0 2 0 3 0 2 0 5 1 6 2 3 3 3 7 2 10l-32 61c3 2 5 4 7 7 2 1 3 2 4 4 2 1 3 3 5 5 1 1 2 3 3 4 1 2 2 4 4 6 1 1 2 3 3 5 1 1 2 3 2 5 1 2 2 4 3 5 1 2 2 4 2 5 1 2 2 4 3 7 0 1 0 3 1 5 1 2 1 4 2 6 0 2 0 4 1 6 0 2 0 4 0 6 1 4 1 8 1 12 0 75-73 138-159 138z"/>
<glyph glyph-name="th-large" unicode="&#57415;" d="M238 219l0-109c0-10-4-19-11-26-7-7-16-11-26-11l-146 0c-10 0-19 4-26 11-7 7-11 16-11 26l0 109c0 10 4 19 11 26 7 7 16 11 26 11l146 0c10 0 19-4 26-11 7-7 11-16 11-26z m0 220l0-110c0-10-4-18-11-26-7-7-16-10-26-10l-146 0c-10 0-19 3-26 10-7 8-11 16-11 26l0 110c0 10 4 18 11 26 7 7 16 10 26 10l146 0c10 0 19-3 26-10 7-8 11-16 11-26z m256-220l0-109c0-10-4-19-11-26-7-7-16-11-26-11l-146 0c-10 0-19 4-26 11-7 7-11 16-11 26l0 109c0 10 4 19 11 26 7 7 16 11 26 11l146 0c10 0 19-4 26-11 7-7 11-16 11-26z m0 220l0-110c0-10-4-18-11-26-7-7-16-10-26-10l-146 0c-10 0-19 3-26 10-7 8-11 16-11 26l0 110c0 10 4 18 11 26 7 7 16 10 26 10l146 0c10 0 19-3 26-10 7-8 11-16 11-26z"/>
<glyph glyph-name="map-location" unicode="&#57416;" d="M308 169c-1 1-1 1-1 2l0 337-136-91 0-379 124 83 18 11c-4 11-6 21-6 30 0 2 0 5 1 7z m-303 342c-3-1-5-4-5-8l0-358c0-3 1-5 4-7l150-100 0 379-141 94c-2 1-6 1-8 0z m413-238c22 0 43-6 60-18l0 146c0 3-2 6-4 7l-150 100 0-287c20 31 55 52 94 52z m0-17c-52 0-94-42-94-94 0-17 10-41 25-67 0-1 1-2 1-2 1-2 2-4 4-6 20-35 45-68 54-80 1-1 2-2 3-4 2-2 5-3 7-3 3 0 5 1 7 3 1 2 2 3 3 4 9 12 34 45 55 80 1 2 2 4 3 6 1 0 1 1 2 2 12 22 21 43 23 59 0 0 0 1 0 1 1 2 1 5 1 7 0 52-42 94-94 94z m0-137c-23 0-43 20-43 43 0 24 20 43 43 43 24 0 43-19 43-43 0-23-19-43-43-43z"/>
<glyph glyph-name="marker-1" unicode="&#98;" d="M256 512c-99 0-179-80-179-179 0-96 165-320 172-330 2-2 4-3 7-3 3 0 5 1 7 3 7 10 172 234 172 330 0 99-80 179-179 179z m0-256c-42 0-77 34-77 77 0 42 35 77 77 77 42 0 77-35 77-77 0-43-35-77-77-77z"/>
<glyph glyph-name="delete-2" unicode="&#45;" d="M259 512c-141 0-256-115-256-256 0-141 115-256 256-256 142 0 256 115 256 256 0 141-114 256-256 256z m-167-256c0 94 73 168 167 168 36 0 70-8 97-27l-238-238c-19 27-26 61-26 97z m167-168c-35 0-69 8-97 27l239 238c18-27 26-61 26-97 0-94-73-168-168-168z"/>
<glyph glyph-name="map-target-1" unicode="&#57417;" d="M341 256c0-47-38-85-85-85-47 0-85 38-85 85 0 47 38 85 85 85 47 0 85-38 85-85z m149 21l-43 0c-10 89-81 160-170 170l0 42c0 12-9 22-21 22-12 0-21-10-21-22l0-42c-89-10-160-81-170-170l-43 0c-12 0-22-10-22-22 1-11 10-21 22-21 0 0 0 0 0 1l43 0c10-89 81-160 170-170l0-43c0-12 9-22 21-22 12 0 21 10 21 22l0 43c89 10 160 81 170 170l43 0c0-1 0-1 0-1 12 0 21 10 22 21 0 12-10 22-22 22z m-234-170c-82 0-149 67-149 149 0 82 67 149 149 149 82 0 149-67 149-149 0-82-67-149-149-149z"/>
<glyph glyph-name="download-1" unicode="&#106;" d="M256 503c-136 0-247-111-247-247 0-136 111-247 247-247 136 0 247 111 247 247 0 136-111 247-247 247z m116-267l-110-119c0 0 0 0 0 0 0-1-1-1-2-2 0 0 0 0-1 0 0-1-1-1-2-1 0 0-1 0-1 0 0 0 0 0 0 0-1 0-2 0-3 1-1 0-1 0-1 0-1 0-2 1-2 2 0 0 0 0 0 0l-112 119c-3 4-3 9 0 12 4 3 9 3 12 0l97-104 0 258c0 5 4 9 9 9 5 0 9-4 9-9l0-258 95 104c3 3 8 3 12 0 3-3 3-8 0-12z"/>
<glyph glyph-name="android-settings" unicode="&#107;" d="M414 235c1 6 1 14 1 21 0 7-1 14-1 21l45 34c4 3 5 8 2 14l-43 71c-2 5-8 7-13 5l-53-21c-10 8-23 15-36 21l-7 55c-1 4-6 8-11 8l-85 0c-5 0-10-4-11-8l-8-55c-13-6-25-13-36-21l-54 21c-5 2-10 0-12-5l-43-71c-2-5-1-11 2-14l46-34c0-7-1-14-1-21 0-7 1-14 1-21l-45-34c-4-3-5-8-2-14l43-71c2-5 8-7 12-5l54 21c10-8 23-15 36-21l8-55c1-5 6-8 11-8l85 0c5 0 10 4 11 8l8 55c13 6 25 13 36 21l54-21c5-2 10 0 12 5l43 71c2 5 1 11-2 14z m-159-52c-41 0-74 32-74 73 0 41 33 73 74 73 42 0 75-32 75-73 0-41-33-73-75-73z"/>
<glyph glyph-name="id-1" unicode="&#108;" d="M501 437l-490 0c-6 0-11-4-11-10l0-342c0-6 5-10 11-10l85 0c6 0 11 4 11 10l0 16c0 15 12 27 26 27 15 0 27-12 27-27l0-16c0-6 5-10 11-10l170 0c6 0 11 4 11 10l0 16c0 15 12 27 27 27 14 0 26-12 26-27l0-16c0-6 5-10 11-10l85 0c6 0 11 4 11 10l0 342c0 6-5 10-11 10z m-224-85l86 0 0-21-86 0z m-42-149l-171 0 0 10c0 27 13 57 48 69-10 10-16 23-16 38 0 29 24 53 53 53 30 0 54-24 54-53 0-15-6-28-16-38 34-12 48-42 48-69z m213 0l-171 0 0 21 171 0z m0 42l-171 0 0 22 171 0z m0 43l-171 0 0 21 171 0z"/>
<glyph glyph-name="android-menu" unicode="&#57418;" d="M64 128l384 0 0 43-384 0z m0 107l384 0 0 42-384 0z m0 149l0-43 384 0 0 43z"/>
<glyph glyph-name="android-checkmark-circle" unicode="&#57419;" d="M171 296l-29-30 93-93 208 208-29 29-179-178z m251-40c0-92-74-166-166-166-92 0-166 74-166 166 0 92 74 166 166 166 16 0 31-2 46-6l32 32c-24 11-50 16-78 16-114 0-208-94-208-208 0-114 94-208 208-208 114 0 208 94 208 208z"/>
<glyph glyph-name="youtube" unicode="&#57422;" d="M314 157l0-61c0-12-4-19-11-19-5 0-9 2-13 6l0 86c4 5 8 7 13 7 7 0 11-7 11-19z m97-1l0-13-26 0 0 13c0 13 4 20 13 20 8 0 13-7 13-20z m-276 63l30 0 0 26-89 0 0-26 30 0 0-163 29 0z m82-163l25 0 0 141-25 0 0-108c-6-8-11-12-16-12-4 0-6 2-6 6-1 1-1 4-1 10l0 104-25 0 0-112c0-9 1-16 2-20 2-7 8-11 17-11 9 0 19 6 29 17z m122 42l0 57c0 13 0 23-2 28-3 11-10 16-20 16-10 0-19-5-27-16l0 62-25 0 0-189 25 0 0 14c9-11 17-16 27-16 10 0 17 5 20 16 2 5 2 14 2 28z m97 3l0 4-26 0c0-10 0-16-1-18-1-6-5-10-11-10-9 0-13 7-13 20l0 25 51 0 0 29c0 15-3 26-8 33-7 10-17 15-30 15-13 0-23-5-31-15-5-7-8-18-8-33l0-49c0-15 3-26 9-33 7-10 17-15 31-15 13 0 24 5 30 15 4 5 6 10 6 16 1 1 1 7 1 16z m-174 261l0 60c0 13-4 20-12 20-8 0-12-7-12-20l0-60c0-13 4-20 12-20 8 0 12 7 12 20z m206-215c0-44-3-77-8-100-2-11-8-20-16-28-9-7-18-12-29-13-35-4-88-6-159-6-71 0-124 2-159 6-11 1-20 6-29 13-8 8-14 17-16 28-5 22-8 55-8 100 0 45 3 78 8 100 2 12 8 21 16 29 9 7 18 12 30 13 35 4 87 6 158 6 71 0 124-2 159-6 11-1 20-6 29-13 8-8 14-17 16-29 5-21 8-54 8-100z m-285 365l29 0-35-114 0-77-28 0 0 77c-3 14-9 34-18 61-7 19-13 37-18 53l30 0 20-75z m105-95l0-50c0-16-2-27-8-34-7-10-17-14-30-14-13 0-23 4-30 14-5 7-8 19-8 34l0 50c0 15 3 26 8 33 7 10 17 15 30 15 13 0 23-5 30-15 6-7 8-18 8-33z m96 46l0-142-26 0 0 15c-10-12-20-17-29-17-9 0-15 3-17 10-2 5-3 12-3 22l0 112 26 0 0-105c0-6 1-9 1-10 0-4 2-6 6-6 5 0 10 4 16 12l0 109z"/>
<glyph glyph-name="id-8" unicode="&#57423;" d="M459 512l-427 0c-6 0-11-5-11-11l0-490c0-6 5-11 11-11l427 0c6 0 10 5 10 11l0 490c0 6-4 11-10 11z m-11-491l-405 0 0 470 405 0z m-377 106l121 41 0 29c-8 6-20 20-21 52-9 5-14 18-14 31 0 7 2 14 5 19 1 2 3 4 6 6-7 14-15 35-6 49 3 5 10 10 23 10 12 22 45 31 71 31 30 0 67-11 74-40 5-21-1-39-6-50 2-2 4-4 5-6 3-5 5-11 5-19 0-12-5-26-14-31-2-32-13-46-21-52l0-29 120-41c5-1 8-5 8-10l0 342c0 6-5 10-11 10l-341 0c-6 0-11-4-11-10l0-342c0 5 3 9 7 10z"/>
<glyph glyph-name="download-12" unicode="&#57424;" d="M248 110c2-2 5-3 8-3 3 0 6 1 8 3l149 149c3 3 4 8 2 12-1 4-5 6-10 6l-64 0 0 224c0 6-4 11-10 11l-150 0c-6 0-10-5-10-11l0-224-64 0c-5 0-9-2-10-6-2-4-1-9 2-12z m243 29c-12 0-22-10-22-22l0-74-426 0 0 74c0 12-10 22-22 22-11 0-21-10-21-22l0-96c0-11 10-21 21-21l470 0c11 0 21 10 21 21l0 96c0 12-10 22-21 22z"/>
<glyph glyph-name="attention" unicode="&#57425;" d="M499 65c4-6 4-12 0-18-3-5-8-8-15-8 0 0-457 0-457 0-6 0-11 3-14 8-4 6-4 12-1 18 0 0 228 400 228 400 3 6 8 9 16 9 7 0 12-3 15-9 0 0 228-400 228-400m-215 25c0 0 0 51 0 51 0 0-56 0-56 0 0 0 0-51 0-51 0 0 56 0 56 0m0 89c0 0 0 154 0 154 0 0-56 0-56 0 0 0 0-154 0-154 0 0 56 0 56 0"/>
<glyph glyph-name="setting-gears-1" unicode="&#57427;" d="M500 329l-27 16c2 12 2 25 0 38l27 15c4 3 5 8 3 12l-32 56c-2 2-3 3-6 4-2 0-4 0-6-1l-26-16c-8 7-18 13-31 19l0 31c0 5-4 9-9 9l-64 0c-5 0-9-4-9-9l0-30c-16-5-25-12-34-20l-28 16c-4 2-9 1-11-3l-33-56c-1-2-2-4-1-7 1-2 2-4 4-5l27-15c-2-13-2-26 0-38l-27-16c-2-1-4-3-4-5-1-2-1-5 1-7l32-56c2-4 7-5 11-3l29 16c9-8 18-15 34-20l0-23c0-5 4-9 9-9l64 0c5 0 9 4 9 9l0 24c13 7 23 13 31 19l26-16c2-1 4-1 6-1 3 1 4 2 6 4l32 56c2 4 1 10-3 12z m-142-17c-28 0-51 23-51 52 0 28 23 51 51 51 29 0 52-23 52-51 0-29-23-52-52-52z m-59-124c1 2 1 5-1 7l-32 56c-1 2-3 3-5 4-2 0-5 0-7-1l-25-16c-8 6-19 12-32 19l0 25c0 5-4 9-8 9l-65 0c-5 0-8-4-8-9l0-24c-17-5-26-12-35-20l-27 16c-4 2-10 1-12-3l-33-56c-1-2-1-5 0-7 0-2 2-4 4-5l26-16c-2-12-2-25 0-38l-27-15c-2-1-3-3-4-5 0-3 0-5 1-7l32-56c3-4 8-5 12-3l28 16c9-8 18-15 35-20l0-30c0-5 3-9 8-9l65 0c4 0 8 4 8 9l0 31c13 6 24 12 32 19l25-16c2-1 5-1 7-1 2 1 4 2 5 4l32 56c2 2 2 4 1 7 0 2-2 4-4 5l-27 15c2 13 2 26 0 38l27 16c2 1 4 3 4 5z m-145-91c-29 0-52 23-52 51 0 29 23 52 52 52 28 0 51-23 51-52 0-28-23-51-51-51z"/>
<glyph glyph-name="setting-adjustment" unicode="&#57428;" d="M503 512l-494 0c-5 0-9-4-9-9l0-494c0-5 4-9 9-9l494 0c5 0 9 4 9 9l0 494c0 5-4 9-9 9z m-358-435c-19 0-34 15-34 34 0 19 15 34 34 34 19 0 34-15 34-34 0-19-15-34-34-34z m43 205c0-5-4-9-9-9l-25 0 0-71c0-5-4-8-9-8-5 0-8 3-8 8l0 71-26 0c-5 0-9 4-9 9l0 34c0 4 4 8 9 8l26 0 0 115c0 5 3 8 8 8 5 0 9-3 9-8l0-115 25 0c5 0 9-4 9-8z m77-205c-19 0-35 15-35 34 0 19 16 34 35 34 18 0 34-15 34-34 0-19-16-34-34-34z m42 273c0-5-4-9-8-9l-26 0 0-139c0-5-4-8-8-8-5 0-9 3-9 8l0 139-26 0c-4 0-8 4-8 9l0 34c0 5 4 9 8 9l26 0 0 46c0 5 4 8 9 8 4 0 8-3 8-8l0-46 26 0c4 0 8-4 8-9z m60-273c-19 0-34 15-34 34 0 19 15 34 34 34 19 0 34-15 34-34 0-19-15-34-34-34z m43 170c0-4-4-8-9-8l-26 0 0-37c0-5-3-8-8-8-5 0-9 3-9 8l0 37-25 0c-5 0-9 4-9 8l0 35c0 4 4 8 9 8l25 0 0 149c0 5 4 8 9 8 5 0 8-3 8-8l0-149 26 0c5 0 9-4 9-8z"/>
<glyph glyph-name="android-options" unicode="&#57429;" d="M32 128l272 0 0-32-272 0z m368 0l80 0 0-32-80 0z m-16-64c0-17-14-32-32-32-18 0-32 15-32 32l0 95c0 18 14 33 32 33 18 0 32-15 32-33z m-352 208l80 0 0-32-80 0z m176 0l272 0 0-32-272 0z m-16-64c0-17-14-32-32-32-18 0-32 15-32 32l0 95c0 18 14 33 32 33 18 0 32-15 32-33z m-160 208l272 0 0-32-272 0z m368 0l80 0 0-32-80 0z m-16-64c0-17-14-32-32-32-18 0-32 15-32 32l0 95c0 18 14 33 32 33 18 0 32-15 32-33z"/>
<glyph glyph-name="power-1" unicode="&#57430;" d="M245 213c18 0 32 20 32 43l0 171c0 23-14 42-32 42-17 0-32-19-32-42l0-171c0-23 15-43 32-43z m75 199l0-47c51-27 85-80 85-141 0-88-71-160-160-160-88 0-160 72-160 160 0 61 35 114 86 141l0 47c-75-30-128-103-128-188 0-112 91-203 202-203 112 0 203 91 203 203 0 85-53 158-128 188z"/>
<glyph glyph-name="spinner" unicode="&#57426;" d="M480 224l-64 0c-18 0-32 14-32 32 0 18 14 32 32 32l64 0c18 0 32-14 32-32 0-18-14-32-32-32z m-88 122c-13-12-33-12-45 0-13 13-13 33 0 46l45 45c12 12 33 12 45 0 13-13 13-33 0-45z m-136-346c-18 0-32 14-32 32l0 64c0 18 14 32 32 32 18 0 32-14 32-32l0-64c0-18-14-32-32-32z m0 384c-18 0-32 14-32 32l0 64c0 18 14 32 32 32 18 0 32-14 32-32l0-64c0-18-14-32-32-32z m-136-309c-12-13-32-13-45 0-12 12-12 33 0 45l45 45c13 13 33 13 46 0 12-12 12-32 0-45z m0 271l-45 46c-12 12-12 32 0 45 13 12 33 12 45 0l46-45c12-13 12-33 0-46-13-12-33-12-46 0z m8-90c0-18-14-32-32-32l-64 0c-18 0-32 14-32 32 0 18 14 32 32 32l64 0c18 0 32-14 32-32z m264-91l45-45c13-12 13-33 0-45-12-13-33-13-45 0l-45 45c-13 13-13 33 0 45 12 13 32 13 45 0z"/>
<glyph glyph-name="ios-copy-outline" unicode="&#57431;" d="M304 416l-16 0 0-80 80 0 0 16-64 0z m21 32l-165 0 0-48-48 0 0-336 240 0 0 48 48 0 0 261z m11-368l-208 0 0 304 32 0 0-272 176 0z m48 48l-208 0 0 304 143 0 65-66z"/>
<glyph glyph-name="github" unicode="&#57432;" d="M475 256c0-48-14-91-41-129-28-38-64-65-109-79-5-1-8-1-11 2-2 2-3 5-3 8l0 61c0 18-5 32-15 40 11 1 20 3 29 5 9 3 18 6 27 11 9 6 17 12 23 19 6 8 11 18 15 30 4 13 6 27 6 43 0 23-8 43-23 59 7 18 7 37-2 59-5 1-13 0-23-4-10-3-19-8-26-12l-11-7c-18 5-36 7-55 7-19 0-37-2-55-7-3 2-7 5-12 8-5 3-13 6-24 11-11 4-19 5-24 4-9-22-9-41-2-59-15-16-23-36-23-59 0-16 2-30 6-42 4-13 9-23 15-30 6-8 14-14 23-20 9-5 18-8 27-11 8-2 18-4 29-5-8-7-12-17-14-29-4-2-8-4-13-5-4-1-10-1-16-1-6 0-13 2-19 6-6 4-11 10-16 18-3 6-8 11-14 15-5 4-10 6-14 7l-5 1c-4 0-7-1-9-2-1-1-2-2-1-3 0-1 1-3 2-4 2-1 3-2 4-3l2-2c4-2 8-5 13-11 4-5 7-10 9-14l2-7c3-7 7-13 13-17 6-5 12-8 19-9 7-1 14-2 20-2 6 0 12 0 16 1l6 1c0-7 0-16 1-25 0-10 0-15 0-16 0-3-2-6-4-8-2-3-6-3-11-2-45 14-81 41-109 79-27 38-41 81-41 129 0 40 9 77 29 110 20 34 46 60 80 80 33 20 70 29 110 29 40 0 77-9 110-29 34-20 60-46 80-80 20-33 29-70 29-110z"/>
<glyph glyph-name="user-lock" unicode="&#57433;" d="M329 166c0 20 10 38 24 51l-43 15c-12 4-22 8-34 13-4 1-7 3-11 4l0 41c9 6 28 25 29 64 4 2 7 6 9 10 3 5 4 12 4 19 0 12-4 22-10 27 5 13 14 37 8 61-7 27-46 37-78 37-29 0-64-8-76-30-15 1-23-5-26-10-12-16-4-43 0-58 0-1 0-1 0-1-2-2-5-4-7-8-2-5-4-12-4-19 0-13 5-23 13-28 2-41 26-65 35-72l0-33c-14-5-29-10-43-15-49-16-91-30-99-53-11-32-11-89-11-91 0-3 0-5 2-6 2-2 4-3 6-3l282 0 0 68c0 11 8 17 17 17z m166-17l-17 0 0 11c0 34-34 68-68 68-35 0-69-34-69-68l0-11-17 0c-4 0-8-3-8-8l0-128c0-5 4-9 8-9l171 0c5 0 8 4 8 9l0 128c0 5-3 8-8 8z m-77-68l0-32c0-5-4-9-8-9-5 0-9 4-9 9l0 32c-3 3-6 7-6 12 0 4 2 7 4 10 3 3 6 4 10 4 8 0 15-6 15-14 0-5-2-9-6-12z m43 68l-103 0 0 11c0 25 26 51 52 51 25 0 51-26 51-51z"/>
<glyph glyph-name="world" unicode="&#57434;" d="M248 512c-137 0-248-111-248-248 0-137 111-248 248-248 137 0 248 111 248 248 0 137-111 248-248 248z m216-240l-96 0c-1 35-8 69-19 100 22 9 42 21 60 35 32-36 53-83 55-135z m-225-224c-26 23-49 51-65 85 21 6 43 10 66 11l0-96c0 0-1 0-1 0z m18 432c30-26 55-59 71-98-23-8-47-13-72-14l0 112c0 0 1 0 1 0z m26-3c45-8 84-28 115-58-17-13-35-24-55-32-14 35-35 65-60 90z m-43 3l0-112c-25 1-49 6-72 14 16 39 41 72 71 98 0 0 1 0 1 0z m-87-93c-20 8-38 19-55 32 31 30 70 50 115 58-25-25-46-55-60-90z m9-20c24-9 51-14 78-15l0-80-96 0c1 34 7 66 18 95z m78-111l0-96c-25-1-50-5-73-13-13 33-22 70-23 109z m-27-205c-40 7-76 24-105 49 16 11 33 20 51 27 14-29 32-54 54-76z m43-3l0 96c23-1 45-5 66-11-16-34-39-62-65-85 0 0-1 0-1 0z m81 79c18-7 35-16 51-27-29-25-65-42-105-49 22 22 40 47 54 76z m-8 20c-23 8-48 12-73 13l0 96 96 0c-1-39-10-76-23-109z m-73 125l0 80c27 1 54 6 78 15 11-29 17-62 18-95l-96 0z m-169 135c18-14 38-26 60-35-11-31-18-65-19-100l-96 0c2 52 23 99 55 135z m-55-151l96 0c1-41 10-79 24-114-20-8-39-19-56-31-38 37-62 88-64 145z m368-145c-17 12-36 23-56 31 14 35 23 73 24 114l96 0c-2-57-26-108-64-145z"/>
<glyph glyph-name="user-lock-1" unicode="&#57435;" d="M297 475c-7 27-47 37-78 37l0 0c-29 0-64-8-76-30-11 1-19-2-25-8-14-15-6-44-1-60 0 0 0 0 0 0-3-2-5-5-7-9-3-5-4-11-4-18 0-14 5-24 13-28 2-42 25-65 35-73l0-33c-14-5-29-10-43-14-49-16-92-30-100-54-10-32-11-89-11-91 0-2 1-5 3-6 1-2 3-3 6-3l222 0 0 17-214 0c1 17 3 55 11 78 5 15 49 30 88 42 16 6 33 11 49 17 4 2 6 5 6 8l0 43c0 3-2 6-4 7-1 1-31 22-31 68 0 5-4 9-9 9-1 0-4 5-4 13 0 8 3 13 4 13 5 0 9 3 9 8 0 2-1 5-3 11-3 9-10 35-3 43 4 4 11 4 17 2 4-1 9 2 10 7 3 14 29 24 62 24 0 0 0 0 0 0 32 0 58-10 61-24 5-19-3-39-8-50-2-6-3-8-3-11 0-5 4-9 9-9 1 0 4-5 4-14 0-8-3-13-4-13-5 0-9-4-9-9 0-45-24-58-25-59-3-1-5-4-5-7l0-52c0-3 2-6 6-8 5-2 11-4 17-6 11-5 22-9 34-13l5 17c-11 3-22 7-33 12-4 1-8 3-12 4l0 41c9 7 28 25 30 65 4 2 7 5 9 9 2 5 4 12 4 19 0 13-4 23-11 28 5 12 15 36 9 60z m121-364c-9 0-17-8-17-17 0-7 4-12 9-15 0-1-1-1-1-2l0-26c0-5 4-8 9-8 5 0 8 3 8 8l0 26c0 1 0 1 0 2 5 3 9 8 9 15 0 9-8 17-17 17z m0-17l0-9 0 9z m-1 151c-39 0-72-33-76-74l0-17-8 0c-5 0-9-4-9-9l0-136c0-5 4-9 9-9l170 0c5 0 9 4 9 9l0 136c0 5-4 9-9 9l-8 0 0 17c0 39-36 74-78 74z m-59-75c3 32 29 57 59 57 32 0 61-27 61-56l0-17-120 0z m137-153l-154 0 0 120 154 0z"/>
<glyph glyph-name="user-lock-2" unicode="&#57436;" d="M325 231c-9 3-19 6-29 10-13 4-27 8-40 13l0 40c10 7 29 25 32 63 8 5 12 15 12 29 0 12-3 22-10 28 6 13 14 36 8 59-7 29-47 39-79 39 0 0 0 0 0 0-29 0-64-8-76-30-11 1-20-2-26-8-14-16-6-45-2-61-2-2-4-5-6-8-3-5-4-12-4-19 0-14 5-25 13-30 2-37 21-55 31-62l0-40c-13-5-27-9-40-13-50-17-90-30-98-55-10-31-11-88-11-90 0-3 1-5 3-8 2-2 5-3 8-3l265 0 0 83c0 13 10 20 20 20l15 0c0 15 6 30 14 43z m176-60l-15 0 0 9c0 41-40 81-81 81-40 0-80-40-80-81l0-9-16 0c-6 0-10-5-10-11l0-149c0-6 4-11 10-11l192 0c6 0 11 5 11 11l0 149c0 6-5 11-11 11z m-83-81c-1 0-1-1-2-1l0-38c0-6-5-11-11-11-6 0-10 5-10 11l0 38c-4 3-7 8-7 13 0 10 7 18 17 18 10 0 18-8 18-17 0-5-2-9-5-13z m-72 78l0 12c0 29 31 59 59 59 29 0 59-30 59-59l0-12z"/>
<glyph glyph-name="user-lock-2-1" unicode="&#57437;" d="M256 254l0 40c10 7 29 25 32 63 8 5 13 15 13 29 0 12-4 22-10 28 5 13 13 36 7 59-7 29-47 39-79 39 0 0 0 0 0 0-29 0-64-8-76-30-11 1-20-2-26-8-14-16-6-45-2-61-2-2-4-5-6-8-3-5-4-12-4-19 0-14 5-25 13-30 2-37 21-55 31-62l0-40c-13-5-27-9-40-13-50-17-90-30-98-55-10-31-11-86-11-88 0-3 1-6 3-8 2-2 5-3 8-3l256 0 0 21-245 0c0 17 3 51 9 71 5 15 48 29 85 41 16 6 32 11 48 17 4 1 7 5 7 10l0 53c0 4-3 8-7 10 0 0-25 11-25 54 0 6-4 11-10 11-1 0-3 4-3 11 0 6 2 10 2 10 6 0 11 5 11 11 0 3-1 5-3 11-2 8-10 34-3 41 2 2 7 3 14 1 6-1 11 3 13 8 3 13 28 23 59 23 0 0 0 0 0 0 30 0 55-10 59-23 4-18-4-37-8-48-2-5-3-8-3-12 0-2 1-5 3-7 2-2 4-3 7-3 0-1 2-5 2-12 0-6-2-10-2-11-6-1-10-5-10-11 0-42-25-54-26-54-4-2-6-5-6-10l0-53c0-5 2-9 7-10 16-6 31-11 47-16l6-2 7 20-7 2c-12 4-26 8-39 13z m245-92l-10 0 0 10c0 41-34 75-75 75-41 0-75-34-75-75l0-10-10 0c-6 0-11-5-11-11l0-139c0-6 5-10 11-10l170 0c6 0 11 4 11 10l0 139c0 6-5 11-11 11z m-138 10c0 30 24 54 53 54 29 0 53-24 53-54l0-10-106 0z m128-149l-150 0 0 117 150 0z m-85 56c0-1-1-2-1-3l0-21c0-6 5-11 11-11 6 0 11 5 11 11l0 21c0 1-1 2-1 3 6 4 11 11 11 19 0 11-10 21-22 21-12 0-21-10-21-21 0-9 5-16 12-19z"/>
<glyph glyph-name="external-link" unicode="&#57438;" d="M402 247l0-92c0-22-8-42-24-58-16-16-35-24-58-24l-238 0c-22 0-42 8-58 24-16 16-24 36-24 58l0 238c0 23 8 42 24 58 16 16 36 24 58 24l201 0c3 0 5 0 7-2 2-2 3-4 3-7l0-18c0-3-1-5-3-7-2-1-4-2-7-2l-201 0c-12 0-23-5-32-14-9-9-13-19-13-32l0-238c0-12 4-23 13-32 9-9 20-13 32-13l238 0c13 0 23 4 32 13 9 9 14 20 14 32l0 92c0 3 1 5 2 6 2 2 4 3 7 3l18 0c3 0 5-1 7-3 1-1 2-3 2-6z m110 247l0-147c0-5-2-9-5-12-4-4-8-6-13-6-5 0-10 2-13 6l-50 50-187-186c-2-2-4-3-6-3-3 0-5 1-7 3l-32 32c-2 2-3 4-3 7 0 2 1 4 3 6l186 187-50 50c-4 3-6 8-6 13 0 5 2 9 6 13 3 3 7 5 12 5l147 0c5 0 9-2 13-5 3-4 5-8 5-13z"/>
<glyph glyph-name="rss-1" unicode="&#57439;" d="M0 324l0-34c163 0 290-127 290-290l34 0c0 182-142 324-324 324z m362 38c-96 97-225 150-362 150l0-34c128 0 248-50 338-140 90-90 140-210 140-338l34 0c0 137-53 266-150 362z m-302-243c-33 0-60-26-60-59 0-33 27-60 60-60 33 0 59 27 59 60 0 33-26 59-59 59z"/>
<glyph glyph-name="ios-close" unicode="&#57420;" d="M403 403c-81 81-213 81-294 0-81-81-81-213 0-294 81-81 213-81 294 0 81 81 81 213 0 294z m-51-231l-12-12-84 84-84-84-12 12 84 84-84 84 12 12 84-84 84 84 12-12-84-84z"/>
<glyph glyph-name="ios-close-outline" unicode="&#57421;" d="M403 403c-81 81-213 81-294 0-81-81-81-213 0-294 81-81 213-81 294 0 81 81 81 213 0 294z m-12-282c-74-74-195-74-270 0-74 74-74 195 0 270 75 74 196 74 270 0 74-75 74-196 0-270z m-51 231l-84-84-84 84-12-12 84-84-84-84 12-12 84 84 84-84 12 12-84 84 84 84z"/>
<glyph glyph-name="times" unicode="&#57440;" d="M426 134c0-7-3-14-8-19l-39-39c-5-5-12-8-20-8-7 0-14 3-19 8l-84 84-84-84c-5-5-12-8-19-8-8 0-15 3-20 8l-39 39c-5 5-8 12-8 19 0 8 3 14 8 20l84 84-84 84c-5 5-8 12-8 19 0 8 3 14 8 20l39 38c5 6 12 8 20 8 7 0 14-2 19-8l84-84 84 84c5 6 12 8 19 8 8 0 15-2 20-8l39-38c5-6 8-12 8-20 0-7-3-14-8-19l-84-84 84-84c5-6 8-12 8-20z"/>
</font>
</defs>
</svg>
