<svg viewBox="0 0 12 12" version="1.1" xmlns="http://www.w3.org/2000/svg" xmlns:xlink="http://www.w3.org/1999/xlink">
    <path d="M4.111,9.7375 C4.17791412,9.7350708 4.23081407,9.67995746 4.23050139,9.613 L4.23050139,8.4425 C4.23050139,8.40837262 4.21661116,8.37571559 4.19196569,8.35210882 C4.16732022,8.32850205 4.13409434,8.31599838 4.1,8.3175 C3.9,8.3265 3.7,8.331 3.5,8.331 C2.44865585,8.35735806 1.40045667,8.20520011 0.4,7.881 C0.361216702,7.86621785 0.317625345,7.87165019 0.283656196,7.89549874 C0.249687048,7.91934729 0.229770639,7.95850151 0.230480639,8 L0.230480639,9.0765 C0.230480639,9.45 1.694,9.75 3.5,9.75 C3.709,9.75 3.91266667,9.74583333 4.111,9.7375 Z"></path>
    <path d="M3.5,3.831 C4.59460638,3.88694305 5.68811726,3.70139102 6.703,3.2875 C6.7440034,3.26591255 6.76962473,3.22333876 6.76950045,3.177 L6.76950045,2 C6.76950045,1.95868452 6.74913309,1.9200256 6.7150204,1.89671693 C6.68090771,1.87340826 6.6374812,1.86846115 6.599,1.8835 C5.59854333,2.20770011 4.55034415,2.35985806 3.499,2.3335 C2.44765585,2.35985806 1.39945667,2.20770011 0.399,1.8835 C0.360747726,1.86929997 0.317972509,1.87466348 0.284410343,1.89786818 C0.250848178,1.92107288 0.230723965,1.95919771 0.2305,2 L0.2305,3.1775 C0.2305,3.22365921 0.256155661,3.26599613 0.297,3.2875 C1.31188274,3.70139102 2.40539362,3.88694305 3.5,3.831 Z"></path>
    <path d="M3.5,1.831 C4.59460638,1.88694305 5.68811726,1.70139102 6.703,1.2875 C6.7440034,1.26591255 6.76962473,1.22333876 6.76950045,1.177 L6.76950045,0.9665 C6.76950045,0.594 5.306,0.291 3.5,0.291 C1.694,0.291 0.2305,0.594 0.2305,0.9665 L0.2305,1.1775 C0.2305,1.22365921 0.256155661,1.26599613 0.297,1.2875 C1.31188274,1.70139102 2.40539362,1.88694305 3.5,1.831 L3.5,1.831 Z"></path>
    <path d="M3.5,7.831 C3.7135,7.831 3.917,7.8255 4.1115,7.8165 C4.17818184,7.81329562 4.23057695,7.75825875 4.23049986,7.6915 L4.23049986,6.9255 C4.22572123,6.77469273 4.2503459,6.62439736 4.303,6.483 C4.31860751,6.44353569 4.31294864,6.39883062 4.288,6.3645 C4.26263546,6.33081042 4.22209885,6.31204347 4.18,6.3145 C3.9535,6.3265 3.726,6.333 3.5,6.333 C2.44865585,6.35935806 1.40045667,6.20720011 0.4,5.883 C0.361549539,5.86835193 0.318353053,5.87356443 0.284490696,5.89693844 C0.250628338,5.92031246 0.230437685,5.95885392 0.230499856,6 L0.230499856,7.1795 C0.230561066,7.22565921 0.256155661,7.26799613 0.297,7.2895 C1.31203633,7.70270814 2.40554177,7.88757645 3.5,7.831 Z"></path>
    <path d="M3.5,5.831 C4.58838977,5.81679246 5.66795216,5.63343554 6.7,5.2875 C6.74111708,5.265963 6.76691478,5.22341605 6.76700002,5.177 L6.76700002,4 C6.76700002,3.95868452 6.74663309,3.9200256 6.7125204,3.89671693 C6.67840771,3.87340826 6.6349812,3.86846115 6.5965,3.8835 C5.59604333,4.20770011 4.54784415,4.35985806 3.4965,4.3335 C2.44515585,4.35985806 1.39695667,4.20770011 0.3965,3.8835 C0.358546274,3.87031855 0.316569947,3.87618401 0.283683157,3.8992642 C0.250796367,3.92234439 0.231008244,3.95982566 0.2305,4 L0.2305,5.1795 C0.2305,5.22565921 0.256155661,5.26799613 0.297,5.2895 C1.31203633,5.70270814 2.40554177,5.88757645 3.5,5.831 Z"></path>
    <path d="M5.4,7.8405 C5.3615188,7.82546115 5.31809229,7.83040826 5.2839796,7.85371693 C5.24986691,7.8770256 5.22949955,7.91568452 5.22949955,7.957 L5.22949955,9.136 C5.22937527,9.18233876 5.2549966,9.22491255 5.296,9.2465 C6.31119161,9.66053606 7.40505997,9.84609082 8.5,9.79 C9.59460638,9.84594305 10.6881173,9.66039102 11.703,9.2465 C11.7439234,9.224828 11.7695,9.1823077 11.7695,9.136 L11.7695,7.957 C11.7695,7.91568452 11.7491331,7.8770256 11.7150204,7.85371693 C11.6809077,7.83040826 11.6374812,7.82546115 11.599,7.8405 C10.5985433,8.16470011 9.55034415,8.31685806 8.499,8.2905 C7.44799018,8.31674467 6.40013865,8.1645881 5.4,7.8405 L5.4,7.8405 Z"></path>
    <path d="M8.5,10.29 C7.44865585,10.3163581 6.40045667,10.1642001 5.4,9.84 C5.3615188,9.82496115 5.31809229,9.82990826 5.2839796,9.85321693 C5.24986691,9.8765256 5.22949998,9.91518452 5.22949998,9.9565 L5.22949998,11.033 C5.22949998,11.4065 6.693,11.7085 8.499,11.7085 C10.305,11.7085 11.7685,11.4085 11.7685,11.033 L11.7685,9.957 C11.7685,9.91568452 11.7481331,9.8770256 11.7140204,9.85371693 C11.6799077,9.83040826 11.6364812,9.82546115 11.598,9.8405 C10.5981502,10.1643066 9.55064699,10.3162927 8.5,10.29 L8.5,10.29 Z"></path>
    <path d="M5.23049955,6.9255 L5.23049955,7.136 C5.23037527,7.18233876 5.2559966,7.22491255 5.297,7.2465 C6.31188274,7.66039102 7.40539362,7.84594305 8.5,7.79 C9.59460638,7.84594305 10.6881173,7.66039102 11.703,7.2465 C11.7440034,7.22491255 11.7696247,7.18233876 11.7695005,7.136 L11.7695005,6.9255 C11.7695005,6.553 10.306,6.25 8.5,6.25 C6.694,6.25 5.23049955,6.553 5.23049955,6.9255 Z"></path>
</svg>
