<svg xmlns="http://www.w3.org/2000/svg" viewBox="0 0 18 18">
    <g fill-rule="nonzero">
        <path d="M8.156 13.969a5.06 5.06 0 018.903-3.295.375.375 0 00.66-.244V9.091c0-.218-.02-.574-.044-.79l-.667-6a.802.802 0 00-.79-.707h-5.624a.895.895 0 00-.837.636L8.06 8.345H2.343a.875.875 0 00-.825.649l-.682 2.755a.375.375 0 00.51.435 3.563 3.563 0 014.938 3.286c0 .207.168.375.375.375h1.336a.375.375 0 00.36-.478 5.05 5.05 0 01-.2-1.398zm6.63-8.052a.375.375 0 01-.235.348l-4.193 1.677a.375.375 0 01-.496-.462l1.318-4.125a.375.375 0 01.357-.261h2.874c.207 0 .375.168.375.375v2.448z"/>
        <path d="M17.156 13.969a3.938 3.938 0 10-7.875 0 3.938 3.938 0 007.875 0zm-3.937 1.875a1.875 1.875 0 110-3.75 1.875 1.875 0 010 3.75zM2.719 13.031a2.437 2.437 0 100 4.875 2.437 2.437 0 000-4.875zm0 3.375a.937.937 0 11-.002-1.875.937.937 0 01.002 1.875zM4.219 1.594h.375v2.314c-.45.16-.75.584-.75 1.06v1.876c0 .207.168.375.375.375h2.25a.375.375 0 00.375-.375V4.969c0-.477-.3-.902-.75-1.06V.843a.75.75 0 00-.75-.75H4.219a.75.75 0 000 1.5z"/>
    </g>
</svg>
