<svg fill="currentColor" xmlns="http://www.w3.org/2000/svg" viewBox="0 0 33 29"><path fill-rule="evenodd" clip-rule="evenodd" d="M1.714 1.071a.643.643 0 00-.643.643v24c0 .355.288.643.643.643h9.143a.5.5 0 010 1H1.714a1.643 1.643 0 01-1.643-1.643v-24C.071.807.807.071 1.714.071h15.192c.436 0 .854.174 1.162.482l4.236 4.236c.308.308.482.726.482 1.162v3.763a.5.5 0 01-1 0V5.951a.643.643 0 00-.189-.455L17.361 1.26a.643.643 0 00-.455-.189H1.714zM24.27 13.673c-.14-.004-.341.113-.341.44 0 1.583-.792 3.21-1.777 4.423-.497.612-1.059 1.14-1.625 1.518-.397.266-.82.474-1.241.571v5.2c.749.118 1.307.234 1.783.333.171.035.332.069.487.099.657.129 1.25.214 2.23.214h4.642c.284 0 .443-.034.52-.075.027-.015.032-.024.034-.026.002-.005.018-.034.018-.114a.571.571 0 00-.572-.57.5.5 0 010-1h.715a.572.572 0 000-1.144.5.5 0 110-1h.714a.571.571 0 100-1.143.5.5 0 110-1h.714c.054 0 .19-.048.345-.274.147-.214.227-.475.227-.654a.571.571 0 00-.572-.572h-5.714a.5.5 0 01-.46-.697l.003-.005.008-.018a7.95 7.95 0 00.142-.365c.092-.245.21-.585.317-.96.108-.378.201-.783.247-1.161.047-.386.04-.705-.024-.93-.263-.939-.677-1.086-.82-1.09zm-4.299 5.55c-.249.166-.48.285-.685.36v-.47a.5.5 0 00-.5-.5h-3.572a.5.5 0 00-.5.5v8.572a.5.5 0 00.5.5h3.572a.5.5 0 00.5-.5v-.847c.64.104 1.127.205 1.565.296.176.037.345.071.512.104.709.14 1.367.233 2.423.233h4.642c.309 0 .685-.028.995-.195.167-.09.32-.222.427-.41.106-.185.15-.393.15-.61 0-.261-.064-.508-.177-.726a1.571 1.571 0 00.714-2.142 1.572 1.572 0 00.69-2.187c.217-.138.39-.329.514-.511.242-.353.402-.807.402-1.22 0-.867-.704-1.57-1.572-1.57h-4.988c.078-.224.165-.488.246-.773a8.78 8.78 0 00.278-1.313c.053-.44.061-.911-.054-1.322-.316-1.126-.974-1.8-1.758-1.819-.786-.02-1.367.639-1.367 1.44 0 1.275-.654 2.685-1.553 3.793-.445.548-.935 1.003-1.404 1.317zm-1.685.39v7.572h-2.572v-7.571h2.572zM17.179 25.4a.679.679 0 100 1.358.679.679 0 000-1.358zm.321.679a.321.321 0 11-.643 0 .321.321 0 01.643 0zM5.143 9.214a.5.5 0 100 1H16a.5.5 0 100-1H5.143zm-.5 3.93a.5.5 0 01.5-.5H12a.5.5 0 110 1H5.143a.5.5 0 01-.5-.5zm.5-7.358a.5.5 0 100 1h8a.5.5 0 000-1h-8zm-.5 10.785a.5.5 0 01.5-.5h4.571a.5.5 0 110 1h-4.57a.5.5 0 01-.5-.5zm.5 2.929a.5.5 0 000 1h4.571a.5.5 0 000-1h-4.57z"/></svg>
