<?xml version="1.0" encoding="UTF-8"?>
<svg width="24px" height="24px" viewBox="0 0 24 24" version="1.1" xmlns="http://www.w3.org/2000/svg" xmlns:xlink="http://www.w3.org/1999/xlink">
    <!-- Generator: Sketch 63.1 (92452) - https://sketch.com -->
    <title>Filled_Icons_1_</title>
    <desc>Created with Sketch.</desc>
    <g id="formulaire-dépôt---carte-interactive" stroke="none" stroke-width="1" fill="none" fill-rule="evenodd">
        <g id="page-Modifier-un-dépôt-(bureau)-Copy-10" transform="translate(-312.000000, -2069.000000)" fill="#ACACAC" fill-rule="nonzero">
            <g id="Group-7" transform="translate(245.000000, 1814.000000)">
                <g id="Contenu-du-formulaire-Copy-2" transform="translate(21.000000, 75.000000)">
                    <g id="Question-3" transform="translate(0.000000, 165.000000)">
                        <g id="bubble-chat-question-2.2.3.1" transform="translate(45.000000, 15.000000)">
                            <g id="Filled_Icons_1_">
                                <path d="M12.996,0.902 C6.379,0.902 0.996,5.336 0.996,10.785 C0.996,13.359 2.173,15.77 4.321,17.617 L1.911,22.427 C1.697,22.851 2.145,23.305 2.569,23.104 L9.006,20.109 C10.284,20.479 11.626,20.668 12.996,20.668 C19.613,20.668 24.996,16.234 24.996,10.785 C24.996,5.336 19.613,0.902 12.996,0.902 Z M13.496,16.402 C12.944,16.402 12.496,15.955 12.496,15.402 C12.496,14.85 12.944,14.402 13.496,14.402 C14.048,14.402 14.496,14.85 14.496,15.402 C14.496,15.955 14.048,16.402 13.496,16.402 Z M13.996,12.367 L13.996,13.151 C13.996,13.427 13.772,13.651 13.496,13.651 C13.22,13.651 12.996,13.427 12.996,13.151 L12.996,11.902 C12.996,11.626 13.22,11.402 13.496,11.402 C14.874,11.402 15.996,10.295 15.996,8.933 C15.996,7.571 14.874,6.464 13.496,6.464 C12.141,6.464 10.996,7.637 10.996,9.026 C10.996,9.301 10.772,9.526 10.496,9.526 C10.22,9.526 9.996,9.301 9.996,9.026 C9.996,7.061 11.566,5.464 13.496,5.464 C15.426,5.464 16.996,7.02 16.996,8.933 C16.996,10.678 15.69,12.126 13.996,12.367 Z" id="Shape"></path>
                            </g>
                        </g>
                    </g>
                </g>
            </g>
        </g>
    </g>
</svg>