<svg xmlns="http://www.w3.org/2000/svg" viewBox="0 0 18 18"><g fill-rule="nonzero" ><path d="M7.298 4.654a.375.375 0 00.096.518c.206.143.411.291.616.446.133.1.317.1.45 0a16 16 0 016.546-2.911.187.187 0 00.09-.323A8.965 8.965 0 009.027.028c-.075 0-.144 0-.216.006a.375.375 0 00-.356.393 6.894 6.894 0 01-1.158 4.227zM9.367 6.563a.375.375 0 00.116.3c.401.378.783.776 1.144 1.193a.375.375 0 00.462.083 6.57 6.57 0 016.6.122.188.188 0 00.28-.182 8.938 8.938 0 00-1.6-4.242.375.375 0 00-.366-.15 15.193 15.193 0 00-6.478 2.597.375.375 0 00-.158.279zM9.626 9.188a.375.375 0 00.028-.525 15.608 15.608 0 00-1.13-1.149.375.375 0 00-.508 0 18.519 18.519 0 00-4.89 7.999c-.044.144.002.3.116.396a8.941 8.941 0 004.836 2.059.187.187 0 00.183-.28 6.69 6.69 0 011.365-8.5z"/><path d="M10.836 10.183a.375.375 0 00-.57-.06 5.645 5.645 0 00-.6 7.696c.079.108.21.165.342.15a8.942 8.942 0 003.087-.91.375.375 0 00.202-.387 15.272 15.272 0 00-2.461-6.49zM.848 6.553a5.736 5.736 0 003.986-1.01.375.375 0 00-.04-.639A19.964 19.964 0 002.1 3.726a.375.375 0 00-.43.139 8.933 8.933 0 00-1.132 2.19.375.375 0 00.31.498zM3.167 2.93A21.13 21.13 0 015.83 4.19a.375.375 0 00.493-.115A5.782 5.782 0 007.319.653.375.375 0 006.853.3a8.962 8.962 0 00-3.797 2.001.375.375 0 00.111.63zM17.82 9.675a5.587 5.587 0 00-5.909-.698.375.375 0 00-.15.552 16.166 16.166 0 012.567 6.419.187.187 0 00.3.115 8.974 8.974 0 003.339-6.047.375.375 0 00-.146-.341zM7.03 6.837a.375.375 0 00.115-.3.375.375 0 00-.154-.279l-.428-.3a.375.375 0 00-.456.029A6.854 6.854 0 01.53 7.633.38.38 0 00.1 7.96a8.435 8.435 0 00-.076 1.072c0 2.005.673 3.952 1.91 5.53a.188.188 0 00.325-.056 19.35 19.35 0 014.77-7.669z"/></g></svg>
