<svg viewBox="0 0 18 18" version="1.1" xmlns="http://www.w3.org/2000/svg" xmlns:xlink="http://www.w3.org/1999/xlink">
    <path d="M9.38798739,16.7999969 L5.81038739,16.7999969 C5.70872862,16.8001737 5.62337305,16.8765807 5.61198739,16.9776 C5.60326968,17.05141 5.59899531,17.1256772 5.5991812,17.2 C5.5991812,18.3045695 6.49461789,19.2 7.5991812,19.2 C8.70375689,19.2 9.59919359,18.3045695 9.59919359,17.2 C9.59937948,17.1256772 9.59510511,17.05141 9.58638739,16.9776 C9.57570163,16.8762211 9.48992639,16.7994384 9.38798739,16.7999969 Z" id="Path"></path>
    <path d="M15.1559874,15.4208 C14.2403834,13.6008992 13.7621014,11.5924435 13.7591874,9.5552 L13.7591874,8.9408 C13.8041946,6.52092223 12.6454638,4.23643026 10.6663874,2.8432 C10.0987182,2.47725136 9.46405338,2.22762741 8.79918739,2.1088 L8.79918739,1.2 C8.79918739,0.5372583 8.26192909,0 7.59918739,0 C6.93644569,0 6.39918739,0.5372583 6.39918739,1.2 L6.39918739,2.1192 C5.56938803,2.27635707 4.78812579,2.62629459 4.11838739,3.1408 C2.3890105,4.56551668 1.40282594,6.70043398 1.43918739,8.9408 L1.43918739,9.5552 C1.4362734,11.5924435 0.957991415,13.6008992 0.0423873943,15.4208 C-0.0196829078,15.5446674 -0.013233767,15.6918343 0.0594340181,15.8097972 C0.132101803,15.9277602 0.260638538,15.9997184 0.399187394,16 L14.7991874,16 C14.9379671,16 15.0667557,15.9277909 15.1394717,15.8095867 C15.2121876,15.6913826 15.2184384,15.5439343 15.1559874,15.42 L15.1559874,15.4208 Z"></path>
</svg>
