<svg xmlns="http://www.w3.org/2000/svg" viewBox="0 0 18 15"><path d="M14.272.669a.844.844 0 01-.554 1.048l-1.643.497a.283.283 0 00-.175.15.291.291 0 000 .232l1.732 4.016c.05.116.17.184.296.167.137-.018.277-.028.416-.029a3.656 3.656 0 010 7.313 3.644 3.644 0 01-2.34-6.448.281.281 0 00.077-.327l-.637-1.48a.28.28 0 00-.328-.162l-4.591 1.17a.281.281 0 00-.181.146l-.242.477a.281.281 0 00.057.33 3.62 3.62 0 011.154 2.637A3.656 3.656 0 113.655 6.75c.217.001.433.023.645.065a.281.281 0 00.304-.148l.225-.45a.288.288 0 00.008-.24l-.817-1.87a.28.28 0 00-.258-.17h-.67a.844.844 0 110-1.687H6.47a.844.844 0 110 1.688H6.22a.281.281 0 00-.257.393l.253.58a.281.281 0 00.327.16L10.35 4.1a.281.281 0 00.182-.149.283.283 0 000-.236l-.182-.452A1.971 1.971 0 0111.588.599L13.23.1a.844.844 0 011.04.568zm.072 7.769a1.969 1.969 0 100 3.937 1.969 1.969 0 000-3.938zm-10.688 0a1.969 1.969 0 100 3.937 1.969 1.969 0 000-3.938z" fill-rule="evenodd"/></svg>
