<svg xmlns="http://www.w3.org/2000/svg" viewBox="0 0 18 18">
    <g fill-rule="nonzero">
        <path d="M4.372 6.52c.043.036.1.05.154.04l4.56-.869c.186-.036.376-.036.562 0l4.558.87a.187.187 0 00.225-.185v-1.11a2.065 2.065 0 00-2.063-2.063h-1.312a.187.187 0 01-.188-.187V.39a.375.375 0 00-.375-.375h-2.25a.375.375 0 00-.375.375v2.625a.188.188 0 01-.187.187H6.366a2.066 2.066 0 00-2.063 2.063v1.109c0 .056.025.11.069.146zM10.005 6.975a.189.189 0 00-.068.145v6.651c0 .078.048.147.12.175.443.171.805.505 1.01.934.167.282.465.46.793.473.451-.02.865-.258 1.111-.637.33-.571.945-.918 1.604-.905.245 0 .487.048.714.141a.189.189 0 00.253-.128l1.306-5.209a.375.375 0 00-.293-.46l-6.396-1.222a.188.188 0 00-.154.042zM3.163 13.706c.025.098.121.159.22.138.11-.022.22-.034.333-.035a1.875 1.875 0 011.594.884c.263.368.67.608 1.12.658a2.111 2.111 0 001.426-.766c.211-.29.503-.51.839-.637a.187.187 0 00.12-.175V7.114a.188.188 0 00-.068-.144.191.191 0 00-.154-.04L2.18 8.153a.375.375 0 00-.294.46l1.278 5.093z"/>
        <path d="M17.993 17.084a.75.75 0 00-.843-.644c-1.214.163-2.053-1.125-2.06-1.135a.782.782 0 00-1.288.022 2.45 2.45 0 01-2.006 1.132 2.045 2.045 0 01-1.753-1.08.782.782 0 00-1.287-.117 3.15 3.15 0 01-2.269 1.2 2.598 2.598 0 01-2.014-1.155.782.782 0 00-1.228-.067c-.012.014-1.15 1.395-2.4 1.234a.75.75 0 00-.196 1.487c.135.018.271.026.407.026a4.2 4.2 0 002.61-1.067.189.189 0 01.247.004 3.817 3.817 0 002.575 1.035 4.267 4.267 0 002.667-.991.187.187 0 01.248.012 3.352 3.352 0 002.393.975 3.772 3.772 0 002.535-.975.187.187 0 01.25 0 3.417 3.417 0 002.769.945.75.75 0 00.643-.84z"/>
    </g>
</svg>
