<svg fill="currentColor" xmlns="http://www.w3.org/2000/svg" x="0" y="0" viewBox="0 0 32 32" xml:space="preserve"><path class="st0" d="M30 1.5H15.6c-.3-.6-.9-1-1.6-1H7.3c-.7 0-1.3.4-1.6 1H2C1 1.5.2 2.3.2 3.3V30c0 1 .8 1.8 1.8 1.8h28c1 0 1.8-.8 1.8-1.8V3.3c0-1-.8-1.8-1.8-1.8zm-22.7 0H14c.5 0 .8.4.8.8v12L11 10c-.1-.1-.2-.2-.4-.2-.1 0-.3.1-.4.2l-3.8 4.3v-12c.1-.4.5-.8.9-.8zM30.8 30c0 .5-.4.8-.8.8H2c-.5 0-.8-.4-.8-.8V3.3c0-.5.4-.8.8-.8h3.5v11.8c0 .8.4 1 .6 1.1.2.1.7.1 1.2-.5l3.4-3.9 3.4 3.9c.3.4.7.5.9.5h.3c.2-.1.6-.3.6-1.1V2.5H30c.5 0 .8.4.8.8V30z"/><path class="st0" d="M27.3 8.2h-8c-.3 0-.5.2-.5.5s.2.5.5.5h8c.3 0 .5-.2.5-.5s-.2-.5-.5-.5zM27.3 13.5h-8c-.3 0-.5.2-.5.5s.2.5.5.5h8c.3 0 .5-.2.5-.5s-.2-.5-.5-.5zM27.3 18.8H4.7c-.3 0-.5.2-.5.5s.2.5.5.5h22.7c.3 0 .5-.2.5-.5s-.3-.5-.6-.5zM26.7 24.2h-22c-.3 0-.5.2-.5.5s.2.5.5.5h22c.3 0 .5-.2.5-.5s-.3-.5-.5-.5z"/></svg>
