
<svg xmlns="http://www.w3.org/2000/svg" viewBox="0 0 18 15"><g fill-rule="nonzero"><path d="M10.32 11.24c0 .78-.68 1.42-1.5 1.32-.66-.08-1.14-.68-1.14-1.36v-.34c-2.56-.14-5.14-.7-7.68-1.68v3.7c0 .84.68 1.52 1.52 1.52h14.94c.84 0 1.52-.68 1.52-1.52v-3.7c-2.54.98-5.12 1.54-7.68 1.68v.38h.02z"/><path d="M12.1 2.52V1.9A1.9 1.9 0 0010.2 0H7.8a1.9 1.9 0 00-1.9 1.9v.62H.96a.96.96 0 00-.96.96v5.06c2.56 1 5.12 1.58 7.68 1.72v-.14c0-.68.48-1.28 1.14-1.36.8-.1 1.5.52 1.5 1.32v.18c2.56-.14 5.12-.72 7.68-1.72V3.48a.96.96 0 00-.96-.96H12.1zm-5.2-.64c0-.5.4-.9.9-.9h2.4c.5 0 .9.4.9.9v.62H6.9v-.62z"/><path d="M9.82 11.24v-1.16c0-.46-.36-.82-.82-.82-.46 0-.82.36-.82.82V11.24c0 .46.36.82.82.82.46 0 .82-.36.82-.82z"/></g></svg>
