<svg fill="currentColor" xmlns="http://www.w3.org/2000/svg" viewBox="0 0 13 10"><path d="M1.083 0C.49 0 0 .502 0 1.111V8.89C0 9.498.49 10 1.083 10h10.834C12.51 10 13 9.498 13 8.889V1.11C13 .502 12.51 0 11.917 0H1.083zm0 .74h10.834c.206 0 .36.16.36.371v1.296H.723V1.111c0-.211.155-.37.361-.37zm.632.371a.457.457 0 00-.451.463c0 .256.202.463.451.463.25 0 .452-.207.452-.463a.457.457 0 00-.452-.463zm1.264 0a.457.457 0 00-.451.463c0 .256.202.463.451.463.25 0 .452-.207.452-.463a.457.457 0 00-.452-.463zm1.264 0a.457.457 0 00-.451.463c0 .256.202.463.451.463.25 0 .451-.207.451-.463a.457.457 0 00-.45-.463zM.723 3.148h11.555v5.74c0 .212-.155.371-.361.371H1.083a.357.357 0 01-.36-.37v-5.74z" /></svg>
