<svg fill="currentColor" xmlns="http://www.w3.org/2000/svg" viewBox="0 0 24 24"><path d="M12.02 18.6h-.04c-.92-.01-1.85-.21-2.68-.59l-3.18.58a.597.597 0 01-.57-.21.594.594 0 01-.1-.6l.9-2.4c-.57-.92-.89-1.98-.94-3.07-.06-1.19.21-2.37.77-3.43.56-1.05 1.4-1.93 2.43-2.55 1.02-.61 2.2-.93 3.39-.93h.01c.99 0 1.98.22 2.86.65.89.43 1.69 1.06 2.3 1.84a6.602 6.602 0 011.28 5.6c-.22.96-.67 1.88-1.29 2.65a6.75 6.75 0 01-2.31 1.83c-.88.41-1.86.63-2.83.63zm-2.65-1.81c.09 0 .18.02.26.06.72.36 1.54.55 2.35.55.78.01 1.62-.18 2.35-.52.73-.35 1.38-.86 1.89-1.49s.87-1.39 1.06-2.17a5.445 5.445 0 00-1.04-4.58c-.5-.63-1.16-1.15-1.88-1.5-.73-.36-1.54-.54-2.35-.54H12c-.98 0-1.94.27-2.77.77a5.375 5.375 0 00-2.62 4.89c.05.98.36 1.92.9 2.74.11.16.13.36.06.54l-.63 1.69 2.33-.42c.03-.02.07-.02.1-.02z" /></svg>