<svg fill="currentColor" xmlns="http://www.w3.org/2000/svg" viewBox="0 0 24 24"><path fill-rule="evenodd" clip-rule="evenodd" d="M9.37 6a.6.6 0 00-1.2 0v3.692a.6.6 0 001.2 0V8.446h4.015a.6.6 0 100-1.2H9.369V6zM5.845 7.692a1.523 1.523 0 011.077-.446.6.6 0 010 1.2.323.323 0 00-.323.323v2.17h10.8v-2.17a.323.323 0 00-.323-.323H15.83v1.246a.6.6 0 11-1.2 0V6a.6.6 0 011.2 0v1.246h1.246A1.523 1.523 0 0118.6 8.77v8.308a1.523 1.523 0 01-1.523 1.523H6.923A1.523 1.523 0 015.4 17.077V8.769c0-.404.16-.791.446-1.077zm.754 9.385v-4.939h10.8v4.939a.323.323 0 01-.323.323H6.923a.323.323 0 01-.323-.323z" /></svg>