<svg xmlns="http://www.w3.org/2000/svg" viewBox="0 0 18 16"><path d="M17.182 6.852A.818.818 0 0018 6.034v-.818a.818.818 0 00-.818-.818h-1.718a.205.205 0 01-.194-.14l-.9-2.7a1.227 1.227 0 00-1.165-.842h-8.41c-.529 0-.997.338-1.165.839l-.9 2.7a.205.205 0 01-.194.14H.818A.818.818 0 000 5.212v.818c0 .452.366.818.818.818h.564a.205.205 0 01.145.35L.24 8.488a.825.825 0 00-.24.578v2.694c0 .322.194.612.49.737a.205.205 0 01.124.187v1.942c.001.564.459 1.02 1.022 1.02h1.637c.564 0 1.022-.457 1.022-1.022v-1.84c0-.114.092-.205.205-.205h9c.113 0 .205.091.205.204v1.841c0 .565.458 1.022 1.022 1.023h1.637c.564 0 1.022-.458 1.022-1.023v-1.943c0-.081.049-.155.123-.188a.801.801 0 00.491-.736v-2.69a.825.825 0 00-.24-.58L16.473 7.2a.205.205 0 01.145-.35l.564.002zm-4.418-4.5c.088 0 .166.057.194.14l.951 2.864a.205.205 0 01-.195.269h-9.43a.205.205 0 01-.193-.27l.955-2.863a.205.205 0 01.19-.14h7.528zM4.09 10.534H1.636a.41.41 0 01-.409-.409v-.818a.41.41 0 01.41-.41H4.09a.41.41 0 01.409.41v.818a.41.41 0 01-.41.41zM13.5 9.307a.41.41 0 01.41-.41h2.454a.41.41 0 01.409.41v.818a.41.41 0 01-.41.41H13.91a.41.41 0 01-.409-.41v-.818z" fill-rule="nonzero"/></svg>
