<svg fill="currentColor" xmlns="http://www.w3.org/2000/svg" viewBox="0 0 32 32"><path fill-rule="evenodd" clip-rule="evenodd" d="M17.116 4.998a1.676 1.676 0 00-2.233 0l-1.68 1.501c-.32.287-.74.439-1.169.425l-2.252-.07a1.676 1.676 0 00-1.71 1.436l-.322 2.23a1.676 1.676 0 01-.622 1.077l-1.77 1.393a1.676 1.676 0 00-.388 2.2l1.187 1.914c.226.366.304.804.216 1.225l-.46 2.205a1.676 1.676 0 001.116 1.934l2.14.704c.408.135.75.421.953.8l1.065 1.985a1.676 1.676 0 002.098.764l2.092-.836c.4-.16.845-.16 1.244 0l2.092.836a1.676 1.676 0 002.098-.764l1.065-1.985c.204-.379.545-.665.953-.8l2.14-.704c.81-.266 1.29-1.099 1.117-1.934l-.46-2.205c-.088-.42-.011-.86.215-1.225l1.187-1.915a1.676 1.676 0 00-.388-2.199l-1.77-1.393a1.676 1.676 0 01-.622-1.078l-.322-2.23a1.676 1.676 0 00-1.71-1.435l-2.252.07a1.676 1.676 0 01-1.169-.425l-1.68-1.501zm3.426 9.663a.855.855 0 10-1.086-1.321l-4.316 3.546-2.586-2.203a.855.855 0 00-1.11 1.301l3.131 2.667a.855.855 0 001.097.01l4.87-4z" /></svg>
