<svg viewBox="0 0 18 18" version="1.1" xmlns="http://www.w3.org/2000/svg" xmlns:xlink="http://www.w3.org/1999/xlink">
    <path d="M15.3333333,7 C15.5174282,7 15.6666667,6.85076158 15.6666667,6.66666667 C15.6622585,2.9865958 12.6800709,0.00440815511 9,0 C8.81590508,0 8.66666667,0.149238417 8.66666667,0.333333333 L8.66666667,6.35 C8.66703331,6.70894114 8.95772609,6.99993207 9.31666667,7.00066667 L15.3333333,7 Z" id="Path"></path>
    <path d="M15.6666667,8 L9.33333333,8 C9.13136106,7.97421741 8.93713485,8.08685965 8.85921031,8.27496948 C8.78128578,8.4630793 8.83896078,8.68007168 9,8.80466667 L13.4786667,13.2833333 C13.6088333,13.4134606 13.8198334,13.4134606 13.95,13.2833333 C15.266913,11.9732782 16.0050781,10.1908797 16.000026,8.33333333 C16.000026,8.14923842 15.8507616,8 15.6666667,8 Z" id="Path"></path>
    <path d="M7.05866667,16.0000617 C8.8983951,15.9960728 10.6599456,15.255631 11.95,13.944 C12.0801273,13.8138334 12.0801273,13.6028333 11.95,13.4726667 L7.47133333,8.994 C7.39259569,8.89945368 7.34446707,8.783201 7.33333333,8.66066667 L7.33333333,2.32733333 C7.33333333,2.14323842 7.18409492,1.994 7,1.994 C4.49806904,2.00447974 2.19178037,3.34892771 0.949890641,5.52090337 C-0.29199909,7.69287903 -0.280817286,10.3624076 0.979223974,12.5239035 C2.23926524,14.6853993 4.55673571,16.0104798 7.05866667,16.0000617 Z" id="Path"></path>
</svg>
