<svg viewBox="0 0 8 8" version="1.1" xmlns="http://www.w3.org/2000/svg" xmlns:xlink="http://www.w3.org/1999/xlink">
    <path d="M4,0 C1.790861,0 0,1.790861 0,4 C0,6.209139 1.790861,8 4,8 C6.209139,8 8,6.209139 8,4 C7.99761172,1.79185102 6.20814898,0.00238828254 4,0 Z M5.73333333,5.74033333 C5.60768603,5.87330771 5.3991447,5.88245814 5.26233333,5.761 L3.60933333,4.24566667 C3.54001079,4.18276224 3.50033296,4.09360807 3.5,4 L3.5,2.16666667 C3.5,1.98257175 3.64923842,1.83333333 3.83333333,1.83333333 C4.01742825,1.83333333 4.16666667,1.98257175 4.16666667,2.16666667 L4.16666667,3.85333333 L5.71133333,5.26933333 C5.77682811,5.32887438 5.81595219,5.41202002 5.82007918,5.50043761 C5.82420617,5.58885519 5.79299714,5.67528371 5.73333333,5.74066667 L5.73333333,5.74033333 Z" id="Shape" fill="#FFFFFF" fill-rule="nonzero"></path>
</svg>
