<svg xmlns="http://www.w3.org/2000/svg" viewBox="0 0 15 18"><g fill-rule="nonzero"><path d="M5.715 12.24c.383-.338.81-.563 1.305-.675a3.471 3.471 0 01-1.012-2.452c0-1.553 1.012-2.858 2.407-3.33v-4.59A.653.653 0 007.763.54h-6.75a.653.653 0 00-.653.652v11.363a.225.225 0 00-.225.225v.72c0 .113.09.225.225.225h4.433a3.11 3.11 0 01.922-1.485zM6.03 2.092c0-.112.09-.225.225-.225h.652c.113 0 .226.09.226.225v.653c0 .112-.09.225-.226.225h-.652a.225.225 0 01-.225-.225v-.653zm0 2.138c0-.113.09-.225.225-.225h.652c.113 0 .226.09.226.225v.652c0 .113-.09.226-.226.226h-.652a.225.225 0 01-.225-.225V4.23zM3.87 2.092c0-.112.09-.225.225-.225h.63c.113 0 .225.09.225.225v.653c0 .112-.09.225-.225.225h-.652a.225.225 0 01-.226-.225v-.653h.023zm0 2.138c0-.113.09-.225.225-.225h.63c.113 0 .225.09.225.225v.652c0 .113-.09.226-.225.226h-.652a.225.225 0 01-.226-.225V4.23h.023zm0 2.16c0-.112.09-.225.225-.225h.63c.113 0 .225.09.225.225v.653c0 .112-.09.224-.225.224h-.652a.225.225 0 01-.226-.224V6.39h.023zm0 2.138c0-.113.09-.226.225-.226h.63c.113 0 .225.09.225.226v.652c0 .113-.09.225-.225.225h-.652a.225.225 0 01-.226-.225v-.652h.023zM2.812 11.34c0 .113-.09.225-.224.225h-.653a.225.225 0 01-.225-.225v-.652c0-.113.09-.226.225-.226h.652c.113 0 .225.09.225.226v.652zm0-2.16c0 .113-.09.225-.224.225h-.653a.225.225 0 01-.225-.225v-.652c0-.113.09-.226.225-.226h.652c.113 0 .225.09.225.226v.652zm0-2.16c0 .113-.09.225-.224.225h-.653a.225.225 0 01-.225-.225v-.652c0-.113.09-.226.225-.226h.652c.113 0 .225.09.225.225v.653zm0-2.137c0 .112-.09.224-.224.224h-.653a.225.225 0 01-.225-.224V4.23c0-.113.09-.225.225-.225h.652c.113 0 .225.09.225.225v.652zm0-2.138c0 .112-.09.225-.224.225h-.653a.225.225 0 01-.225-.225v-.653c0-.112.09-.225.225-.225h.652c.113 0 .225.09.225.225v.653zm1.283 8.797a.225.225 0 01-.225-.224v-.653c0-.112.09-.225.225-.225h.63c.113 0 .225.09.225.225v.653c0 .112-.09.225-.225.225h-.63zM14.265 16.762l-.585-2.587c-.27-1.215-1.192-2.048-2.407-2.025-.113 0-.203.067-.248.18l-.9 2.678-.315-1.598h.045c.112 0 .202-.09.202-.203v-.54a.202.202 0 00-.202-.202h-.697a.202.202 0 00-.203.203v.54c0 .112.09.202.203.202h.045l-.316 1.598-.9-2.678c-.045-.113-.135-.18-.247-.18-1.215-.023-2.138.832-2.408 2.025l-.585 2.565a.92.92 0 00.9 1.125h7.718a.902.902 0 00.9-1.102z"/><circle cx="9.495" cy="9.113" r="2.835"/></g></svg>
