<svg xmlns="http://www.w3.org/2000/svg" viewBox="0 0 17 18"><g fill-rule="nonzero"><path d="M9.488 12.656l3.6-5.944c.093-.15.206-.318.337-.45V.732a.569.569 0 00-.225-.47.661.661 0 00-.487-.15l-.15.02a48.226 48.226 0 01-11.626 0L.826.093a.682.682 0 00-.506.15.7.7 0 00-.225.487v6.056c0 1.163.225 2.307.656 3.394a6.481 6.481 0 006.019 4.069c.337 0 .656-.019.994-.075.075-.15.15-.281.224-.413.376-.543.9-.918 1.5-1.106zm-.207-9c1.256 0 1.707 1.031 1.744 1.594a.346.346 0 01-.094.3.399.399 0 01-.281.131H7.931a.337.337 0 01-.281-.131.346.346 0 01-.094-.3c.038-.563.469-1.594 1.725-1.594zM2.606 5.531a.346.346 0 01-.093-.3c.056-.543.468-1.593 1.743-1.593 1.238 0 1.688 1.03 1.744 1.593a.346.346 0 01-.094.3.442.442 0 01-.3.131H2.888a.362.362 0 01-.282-.13zm4.163 5.157A3.057 3.057 0 014.088 9.13c-.17-.3-.075-.694.224-.862.3-.169.694-.075.863.225.338.562.938.918 1.594.918.656 0 1.256-.337 1.556-.9a.625.625 0 01.863-.243c.3.168.412.562.243.862-.525.975-1.537 1.556-2.662 1.556zM16.144 6.806a1.457 1.457 0 00-2.1.469L10.819 12.6c.375.056.731.206 1.05.431.319.225.581.488.787.806l3.825-4.912c.506-.675.356-1.65-.337-2.119zM11.25 13.931a1.71 1.71 0 00-2.363.432c-.562.825 0 1.95-.993 3.037a.296.296 0 00.206.506c1.856.038 3.019-.825 3.563-1.631a1.664 1.664 0 00-.413-2.344z"/></g></svg>
