<svg fill="currentColor" xmlns="http://www.w3.org/2000/svg" viewBox="0 0 24 24"><path fill-rule="evenodd" clip-rule="evenodd" d="M17.92 8.39a.583.583 0 00-.46-.22h-.82c-.03-.27-.1-.62-.22-.97-.25-.77-.86-1.8-2.17-1.8-.33 0-.6.27-.6.6 0 .33.27.6.6.6.52 0 .83.36 1.03.97.07.2.11.41.14.6h-2.86V6c0-.33-.27-.6-.6-.6-.33 0-.6.27-.6.6v2.17H8.49c.03-.19.07-.39.14-.6.21-.61.52-.97 1.04-.97.33 0 .6-.27.6-.6 0-.33-.27-.6-.6-.6-1.32 0-1.92 1.03-2.17 1.8-.12.35-.19.7-.22.97h-.82a.597.597 0 00-.58.72l.91 4.61c.01.07.04.14.07.2a.642.642 0 00.51.29h2.15v3.42h-.31c-.33 0-.6.27-.6.6 0 .33.27.6.6.6h5.5c.33 0 .6-.27.6-.6 0-.33-.27-.6-.6-.6h-.32v-3.43h2.15a.6.6 0 00.59-.48l.92-4.62a.59.59 0 00-.13-.49zm-3.53 4.39v-1.24c0-.33-.27-.6-.6-.6-.33 0-.6.27-.6.6v5.86h-2.46v-5.86c0-.33-.27-.6-.6-.6-.33 0-.6.27-.6.6v1.25H7.87l-.68-3.42h9.54l-.68 3.42h-1.66v-.01z" /></svg>