<svg xmlns="http://www.w3.org/2000/svg" viewBox="0 0 18 18"><g fill-rule="nonzero"><path d="M16.279 5.982a.778.778 0 01-.7-.434 1.922 1.922 0 00-1.726-1.066 2.835 2.835 0 00-2.7 1.966l-5.97-6.2a.75.75 0 00-1.08 1.04l9.45 9.726a.187.187 0 00.31-.066A1.836 1.836 0 0115.6 9.732a2.218 2.218 0 002.216-2.216 1.535 1.535 0 00-1.537-1.534zm-1.841.6a.562.562 0 110-.002v.002zM9.313 8.235a.188.188 0 00-.171-.054c-.16.033-.322.05-.486.051H4.688c-1.084 0-1.833-.3-2.106-.845-.28-.558-.066-1.383.59-2.262a.75.75 0 00-.885-1.143 3.375 3.375 0 00-.525 5.982 27.225 27.225 0 00-1.2 6.518 1.5 1.5 0 003 0v-.473a2.463 2.463 0 012.615-2.527c.107.004 1.136 0 1.135 0 1.879 0 3 .96 3 2.567v.433a1.5 1.5 0 003 0c0-.45 0-.803-.005-1.085-.033-.851.038-1.703.214-2.536l.021-.128a.19.19 0 00-.05-.16L9.313 8.235z"/></g></svg>
