<?xml version="1.0" encoding="UTF-8"?>
<svg viewBox="0 0 24 24" version="1.1" xmlns="http://www.w3.org/2000/svg" xmlns:xlink="http://www.w3.org/1999/xlink">
    <!-- Generator: Sketch 63.1 (92452) - https://sketch.com -->
    <title>download-bottom</title>
    <desc>Created with Sketch.</desc>
    <g id="download-bottom" stroke="none" stroke-width="1" fill-rule="evenodd">
        <path d="M22.546,16.9379897 C21.8766309,16.9379897 21.334,17.4806309 21.334,18.15 L21.334,20.005 C21.3328971,20.8720202 20.6300207,21.5744492 19.763,21.575 L3.995,21.575 C3.12797927,21.5744492 2.42510291,20.8720202 2.424,20.005 L2.424,18.15 C2.424,17.4806309 1.88136912,16.9379897 1.212,16.9379897 C0.542630883,16.9379897 0,17.4806309 0,18.15 L0,20.005 C0,22.2121879 1.78781387,24.002241 3.995,24.005 L19.763,24.005 C21.972139,24.005 23.763,22.214139 23.763,20.005 L23.763,18.15 C23.763,17.8276894 23.6346241,17.5186523 23.4062475,17.291214 C23.1778708,17.0637756 22.8683078,16.9366703 22.546,16.9379897 Z" id="Path" fill-rule="nonzero"></path>
        <path d="M11.879,0 C10.8081199,0 9.94,0.86811987 9.94,1.939 L9.94,11.005 C9.94,11.1430712 9.82807119,11.255 9.69,11.255 L7.031,11.255 C6.65112662,11.2551551 6.30630447,11.4770386 6.14875506,11.8227003 C5.99120565,12.168362 6.04992833,12.5741776 6.299,12.861 L11.147,18.437 C11.3310487,18.6491864 11.5981139,18.7710693 11.879,18.7710693 C12.1598861,18.7710693 12.4269513,18.6491864 12.611,18.437 L17.459,12.861 C17.7080717,12.5741776 17.7667943,12.168362 17.6092449,11.8227003 C17.4516955,11.4770386 17.1068734,11.2551551 16.727,11.255 L14.068,11.255 C13.9299288,11.255 13.818,11.1430712 13.818,11.005 L13.818,1.939 C13.818,0.86811987 12.9498801,0 11.879,0 Z" id="Path" fill-rule="nonzero"></path>
    </g>
</svg>
