
<svg xmlns="http://www.w3.org/2000/svg" viewBox="0 0 18 18">
    <path d="M18 9a9 9 0 10-9 9h.094A8.916 8.916 0 0018 9.094v-.047V9zm-1.5 0c0 .667-.09 1.332-.27 1.975a.375.375 0 01-.51.244c-.463-.2-.858-.53-1.138-.95L12.92 7.771a1.875 1.875 0 00-1.56-.835h-.325a2.062 2.062 0 110-4.125h2.079c.078 0 .153.025.217.07A7.495 7.495 0 0116.5 9zM1.634 7.616c.036-.175.19-.3.369-.3h3.252a2.608 2.608 0 011.857.769l.838.84a2.625 2.625 0 01.105 3.6l-1.02 1.147a1.875 1.875 0 00-.473 1.246v.62a.375.375 0 01-.525.344A7.5 7.5 0 011.5 9c0-.464.046-.928.134-1.384z" fill-rule="nonzero"/>
</svg>
