
<svg xmlns="http://www.w3.org/2000/svg" viewBox="0 0 18 18"><g fill-rule="nonzero"><path d="M9.883 4.432a.187.187 0 01-.266 0L8.185 3a1.5 1.5 0 00-2.12 0L3.22 5.845a.75.75 0 101.06 1.06l2.712-2.712a.187.187 0 01.266 0L8.69 5.625a1.5 1.5 0 002.12 0l3.01-3.01a.188.188 0 01.265 0l1.024 1.025a.375.375 0 00.641-.265v-3A.375.375 0 0015.375 0h-3a.375.375 0 00-.265.64l.65.65a.188.188 0 010 .265L9.883 4.432zM2.375 8.625c-.276 0-.5.168-.5.375v6c0 .207.168.375.375.375H4.5A.375.375 0 004.875 15V9c0-.207-.225-.375-.5-.375h-2zM10.375 10.875h-2c-.277 0-.5.168-.5.375V15c0 .207.168.375.375.375h2.25a.375.375 0 00.375-.375v-3.75c0-.207-.225-.375-.5-.375zM13.5 5.974v9.053c.008.2.175.355.375.348h2.25c.2.007.367-.148.375-.348V5.974c0-.193-.225-.349-.5-.349h-2c-.275 0-.5.156-.5.349zM17.25 16.5H.75a.75.75 0 100 1.5h16.5a.75.75 0 100-1.5z"/></g></svg>
