<svg xmlns="http://www.w3.org/2000/svg" viewBox="0 0 12 18"><g fill-rule="nonzero"><path d="M8.727 1.01c0-.874-.79-.874-.79-.874-.792 0-.792.873-.792.873v3.655h1.582V1.009zM4.718 1.01c0-.874-.79-.874-.79-.874-.792 0-.792.873-.792.873v3.655h1.582V1.009zM10.773 5.345H1.09C0 5.345 0 6.436 0 6.436v.191c0 1.091 1.09 1.091 1.09 1.091h.955c-.027.218-.027.355-.027.355v1.663c0 2.755 2.755 2.755 2.755 2.755h.245v.164c0 .109-.027.545-.19.818-.192.272-.328.49-1.092.518-1.445-.027-2.4.845-2.754 1.609C.6 16.364.6 17.045.6 17.127c0 .464.382.873.873.873a.879.879 0 00.872-.873V17.1c0-.136.082-.545.273-.845.218-.273.41-.519 1.146-.519 1.281.028 2.209-.681 2.59-1.418.382-.736.41-1.39.41-1.663v-.11-.054h.381C9.9 12.49 9.9 9.736 9.9 9.736V8.073c0-.137 0-.246-.027-.355h.927c1.09 0 1.09-1.09 1.09-1.09v-.192c0-1.09-1.117-1.09-1.117-1.09z"/></g></svg>
