<svg viewBox="0 0 18 18" version="1.1" xmlns="http://www.w3.org/2000/svg" xmlns:xlink="http://www.w3.org/1999/xlink">
            <path d="M15.6213333,4.34933333 C13.858,2.40933333 10.9333333,0.358666667 8,0.4 C5.06666667,0.358 2.142,2.41 0.378666667,4.34933333 C-0.121793689,4.90886502 -0.121793689,5.75513498 0.378666667,6.31466667 C2.12133333,8.234 5.00466667,10.2666667 7.89266667,10.2666667 L8.098,10.2666667 C10.996,10.2666667 13.8786667,8.234 15.6233333,6.314 C16.1231308,5.75417789 16.1222696,4.90813672 15.6213333,4.34933333 Z M4.93333333,5.33333333 C4.93333333,3.6396601 6.30632677,2.26666667 8,2.26666667 C9.69367323,2.26666667 11.0666667,3.6396601 11.0666667,5.33333333 C11.0666667,7.02700657 9.69367323,8.4 8,8.4 C6.30632677,8.4 4.93333333,7.02700657 4.93333333,5.33333333 Z" id="Shape"></path>
            <circle id="Oval" cx="8" cy="5.33333333" r="1.33333333"></circle>
</svg>
