
<svg xmlns="http://www.w3.org/2000/svg" viewBox="0 0 18 15"><g fill-rule="nonzero"><circle cx="12.886" cy="2.045" r="2.045"/><circle cx="2.25" cy="6.954" r="1.636"/><path d="M16.927 9.548a1.227 1.227 0 00.19-1.725l-1.39-1.737a2.033 2.033 0 00-1.597-.768H9.554l-.479-.958A1.227 1.227 0 006.88 5.457l.592 1.183A2.035 2.035 0 009.3 7.773h.934a.204.204 0 01.198.253l-.205.819A.205.205 0 0110.03 9H8.531a2.033 2.033 0 00-1.898 1.285l-.613 1.531a1.227 1.227 0 002.279.912l.51-1.273h.9c.033.394.18.77.424 1.082l1.383 1.729a1.227 1.227 0 101.916-1.533l-1.256-1.571.77-3.08a.41.41 0 01.397-.31h.587l1.268 1.586a1.227 1.227 0 001.729.19z"/></g></svg>
