
<svg xmlns="http://www.w3.org/2000/svg" viewBox="0 0 18 18"><g fill-rule="nonzero"><circle cx="6.657" cy="2.014" r="1.875"/><circle cx="15.469" cy="10.452" r="1.5"/><path d="M8.625 6.979a4.707 4.707 0 00-4.787-1.425C2.15 6.014.954 7.759.518 9.284l-.191.668a1.125 1.125 0 102.164.62c.08-.285.519-2.374 1.938-2.836a.187.187 0 01.245.196l-.23 2.29-2.822 5.003a1.125 1.125 0 101.819 1.323l2.151-4.082.6.724a.375.375 0 01.086.24v2.457a1.125 1.125 0 002.25 0v-2.455c0-.613-.215-1.208-.608-1.68l-1.223-1.47.146-1.357a.187.187 0 01.34-.087l1.174 1.693a1.125 1.125 0 101.849-1.282C8.609 6.947 8.69 7.054 8.625 6.979zM17.708 14.079a.75.75 0 00-.862-.617c-.73.116-1.125-.259-1.835-.998-.891-.933-1.691-1.637-3.048-1.637a.75.75 0 100 1.5c.477.007.935.19 1.287.514l-1.486 4.109a.75.75 0 101.41.51l.574-1.585.182.086a.746.746 0 01.415.672v.572a.75.75 0 101.5 0v-.572a2.245 2.245 0 00-1.26-2.02l-.325-.15.164-.454a3.009 3.009 0 002.668.94.75.75 0 00.616-.87zM12.578 7.406a.75.75 0 101.5 0V6.141h1.8a.375.375 0 00.279-.626L14.28 3.06h.621a.375.375 0 00.308-.589L13.636.209a.375.375 0 00-.616 0l-1.57 2.266a.375.375 0 00.308.589h.62L10.5 5.514a.375.375 0 00.278.627h1.8v1.265z"/></g></svg>
