<svg fill="currentColor" xmlns="http://www.w3.org/2000/svg" viewBox="0 0 32 32"><path d="M20.424 2.861l6.048 6.048a.667.667 0 01.195.471v19.287a.667.667 0 01-.667.666H6a.667.667 0 01-.667-.666V3.333A.667.667 0 016 2.667h13.953c.177 0 .346.07.471.194zM20.781 0H5.333a2.667 2.667 0 00-2.666 2.667v26.666A2.667 2.667 0 005.333 32h21.334a2.667 2.667 0 002.666-2.667V8.552c0-.354-.14-.693-.39-.943L21.724.391c-.25-.25-.589-.39-.943-.391z" /><path d="M21.333 14.667h-12a1.333 1.333 0 010-2.667h12a1.333 1.333 0 110 2.667zM21.333 20h-12a1.334 1.334 0 010-2.667h12a1.333 1.333 0 110 2.667zM15.333 25.333h-6a1.333 1.333 0 010-2.666h6a1.333 1.333 0 110 2.666z" /></svg>
