<svg viewBox="0 0 18 18" version="1.1" xmlns="http://www.w3.org/2000/svg" xmlns:xlink="http://www.w3.org/1999/xlink">
    <path d="M14.5605,3.6855 L11.3145,0.4395 C11.0332609,0.158175938 10.6517922,0 10.254,0 L1.5,0 C0.671572875,0 0,0.671572875 0,1.5 L0,16.5 C0,17.3284271 0.671572875,18 1.5,18 L13.5,18 C14.3284271,18 15,17.3284271 15,16.5 L15,4.746 C15,4.34820778 14.8418241,3.9667391 14.5605,3.6855 Z M6.75,14.625 L3.375,14.625 C2.96078644,14.625 2.625,14.2892136 2.625,13.875 C2.625,13.4607864 2.96078644,13.125 3.375,13.125 L6.75,13.125 C7.16421356,13.125 7.5,13.4607864 7.5,13.875 C7.5,14.2892136 7.16421356,14.625 6.75,14.625 Z M10.125,11.625 L3.375,11.625 C2.96078644,11.625 2.625,11.2892136 2.625,10.875 C2.625,10.4607864 2.96078644,10.125 3.375,10.125 L10.125,10.125 C10.5392136,10.125 10.875,10.4607864 10.875,10.875 C10.875,11.2892136 10.5392136,11.625 10.125,11.625 Z M10.125,8.625 L3.375,8.625 C2.96078644,8.625 2.625,8.28921356 2.625,7.875 C2.625,7.46078644 2.96078644,7.125 3.375,7.125 L10.125,7.125 C10.5392136,7.125 10.875,7.46078644 10.875,7.875 C10.875,8.28921356 10.5392136,8.625 10.125,8.625 Z"></path>
</svg>
