<svg viewBox="0 0 18 18" xmlns="http://www.w3.org/2000/svg">
    <path d="M17.762 6.484a.75.75 0 00-1.061.035c-1.379 1.474-2.076 2.529-2.076 3.137v5.625a.75.75 0 11-1.5 0V5.156c0-1.035-.84-1.875-1.875-1.875h-.186a.187.187 0 01-.188-.187V1.78c0-.724-.587-1.311-1.312-1.312h-8.25C.589.469.001 1.056 0 1.78v14.25a1.315 1.315 0 001.313 1.313h8.25c.724-.001 1.311-.588 1.312-1.313V4.97c0-.104.084-.188.188-.188h.187c.207 0 .375.168.375.375v10.125a2.25 2.25 0 104.5 0v-1.67c0-.071.04-.136.104-.168l.774-.388c.382-.19.623-.58.622-1.005v-.894c0-.621-.504-1.125-1.125-1.125h-.195a.188.188 0 01-.188-.186v-.117c.461-.8 1.026-1.534 1.68-2.184a.75.75 0 00-.035-1.06zm-9.7 5.235a.375.375 0 01-.375.375h-.75a.375.375 0 01-.375-.375v-2.25c0-.207.168-.375.375-.375h.75c.207 0 .375.168.375.375v2.25zm.75-6.563a.375.375 0 01-.375.375h-6a.375.375 0 01-.375-.375v-2.25c0-.207.168-.375.375-.375h6c.207 0 .375.168.375.375v2.25z" fill-rule="nonzero"/>
</svg>
