
<svg xmlns="http://www.w3.org/2000/svg" viewBox="0 0 18 13"><g fill-rule="evenodd"><g fill-rule="nonzero"><path d="M16.952 4L9.238.936a.66.66 0 00-.476 0L1.048 4a.643.643 0 00-.405.61v4.345a.964.964 0 001.928 0V5.733l6.216 2.193a.643.643 0 00.426 0l7.715-2.723A.643.643 0 0016.952 4z"/><path d="M13.195 7.494L9 8.976 4.805 7.494a.643.643 0 00-.857.607v2.758c0 .273.172.516.43.607l3.31 1.167c.849.3 1.775.3 2.625 0l3.31-1.167a.643.643 0 00.429-.607V8.1a.643.643 0 00-.857-.607v.001z"/></g></g></svg>
