<svg xmlns="http://www.w3.org/2000/svg" viewBox="0 0 18 18"><g fill-rule="nonzero"><path d="M5.03 12.014c0 .86-.697 2.037-1.557 2.037s-1.557-1.177-1.557-2.037a1.557 1.557 0 013.114 0z"/><path d="M4.687 12.014c0 .057.012.161-.014.214.03-.059.008-.043 0-.006l-.011.06a2.786 2.786 0 01-.094.347c-.014.042-.032.083-.047.124.03-.077-.02.039-.03.064a2.931 2.931 0 01-.26.431c.049-.068-.022.026-.036.041l-.076.087c-.057.06-.12.115-.184.168.07-.057-.02.012-.04.024-.029.02-.06.037-.091.054-.016.008-.11.06-.065.034.049-.028-.014.006-.023.008a.833.833 0 01-.065.021l-.088.022c-.073.017.06 0 .012 0-.02 0-.038.004-.057.004a.918.918 0 01-.104 0c-.006 0-.055-.008-.057-.006.006-.01.086.015.002-.002a.733.733 0 01-.088-.024c-.018-.006-.035-.012-.055-.017-.055-.018-.02.011.008.004-.018.003-.067-.034-.084-.042a1.312 1.312 0 01-.112-.068l-.049-.035c.063.04.028.021.012.007-.031-.027-.063-.052-.094-.082a2.032 2.032 0 01-.208-.227c.008.008.043.057.006.008l-.068-.098a2.702 2.702 0 01-.136-.23c-.017-.035-.037-.07-.052-.107l-.022-.049c-.037-.078.018.047-.002-.004a2.415 2.415 0 01-.149-.53c-.006-.036-.02-.026.002.017-.016-.03-.008-.088-.01-.12a1.492 1.492 0 01.004-.229c0-.004.012-.09.004-.035a1.337 1.337 0 01.035-.16c.012-.042.028-.083.042-.124.005-.016.025-.06-.006.01.008-.016.013-.032.021-.047.037-.077.08-.151.128-.222l.029-.04c-.045.062-.012.015.002 0a1.295 1.295 0 01.168-.172l.04-.034c.064-.055-.06.039.011-.008.065-.043.128-.084.196-.12l.047-.023c.004-.002.082-.033.03-.014-.053.02.027-.01.03-.012.026-.007.05-.017.075-.023a1.21 1.21 0 01.114-.03c.023-.005.143-.021.053-.011.09-.01.18-.014.27-.01.03.002.157.022.069.004.047.01.096.018.143.03.047.011.092.025.137.04.015.006.031.014.049.018-.08-.025-.004-.002.013.006.083.04.157.086.231.135.018.012.063.049.002 0a1.296 1.296 0 01.151.137c.034.033.061.073.092.106.036.037-.045-.067 0 .002.014.021.03.041.043.063.047.072.087.146.122.225-.032-.073-.008-.018-.002.002l.025.074c.014.045.026.092.036.14.004.017.005.034.01.052.017.078-.005-.059.001.014.01.057.014.11.014.164.002.18.157.351.343.343.184-.008.345-.15.343-.343-.008-.856-.598-1.637-1.438-1.843-.836-.203-1.75.188-2.145.96-.386.75-.207 1.65.241 2.333.216.329.503.638.87.799.391.174.8.164 1.189-.02.397-.188.713-.56.922-.94.218-.392.36-.84.363-1.29.001-.18-.16-.351-.343-.343-.19.01-.345.152-.345.344zM6.6 16.402v1.245H.354v-1.245c0-.884.714-1.595 1.598-1.595h.374l1.154 1.38 1.143-1.38h.375A1.6 1.6 0 016.6 16.402z"/><path d="M6.252 16.402v1.245l.343-.342H.353l.342.342v-1.192-.053c0-.028 0-.057.002-.084.002-.024.002-.046.006-.069.008-.092-.012.041.004-.03.018-.086.037-.172.065-.254.008-.02.017-.041.023-.06.014-.05-.035.072.002-.003.024-.047.045-.092.073-.137a2.01 2.01 0 01.068-.108l.03-.04c-.051.07 0 .001.01-.01.06-.073.129-.136.2-.198.013-.012.05-.036-.01.006a2.067 2.067 0 01.172-.114c.037-.022.076-.04.115-.059.055-.027 0 0-.01.004.034-.012.065-.025.098-.035a1.618 1.618 0 01.204-.053c.037-.008.075-.01.016-.004.072-.008.147-.012.22-.012h.344l-.243-.1 1.01 1.207c.05.057.097.116.146.172.111.134.374.134.483 0l1.001-1.206.143-.173c-.08.034-.16.067-.243.1.134 0 .269-.002.402 0 .037 0 .072.002.11.006.015.002.103.018.015 0 .07.014.14.026.208.045l.074.024c.018.006.124.05.04.013.058.028.115.055.172.089.025.015.05.03.076.049.016.01.104.08.034.021.047.037.092.077.133.12l.07.074c.012.014.08.104.028.03.035.048.068.097.1.148.03.053.056.106.082.16-.04-.083.008.022.014.04.011.033.021.067.03.1.017.06.028.12.04.182-.016-.094.002.024.002.043-.002.043-.002.079-.002.116.002.18.157.35.343.343.184-.008.344-.151.343-.343a1.961 1.961 0 00-.606-1.409 1.97 1.97 0 00-1.355-.532c-.15 0-.345-.03-.486.03-.096.04-.145.113-.21.19l-.583.704c-.153.186-.308.37-.46.556h.483c-.205-.244-.409-.49-.615-.734-.133-.159-.266-.32-.4-.478-.113-.135-.191-.26-.393-.268a3.626 3.626 0 00-.683.03 1.94 1.94 0 00-.948.444c-.46.386-.672.961-.672 1.549v1.163c0 .187.156.343.343.343h6.242a.347.347 0 00.343-.343v-1.245c0-.18-.157-.35-.343-.343a.348.348 0 00-.343.343zM15.926 12.014c0 .86-.697 2.037-1.557 2.037s-1.557-1.177-1.557-2.037a1.557 1.557 0 013.114 0z"/><path d="M15.583 12.014c0 .057.012.161-.014.214.03-.059.008-.043 0-.006l-.011.06a2.682 2.682 0 01-.094.347c-.014.042-.032.083-.047.124.03-.077-.02.039-.03.064a2.931 2.931 0 01-.26.431c.049-.068-.022.026-.036.041l-.076.087c-.057.06-.12.115-.184.168.07-.057-.02.012-.04.024-.029.02-.06.037-.091.054-.016.008-.11.06-.065.034.049-.028-.014.006-.023.008a.833.833 0 01-.065.021l-.088.022c-.073.017.06 0 .012 0-.02 0-.038.004-.057.004a.918.918 0 01-.104 0c-.006 0-.055-.008-.057-.006.006-.01.086.015.002-.002a.733.733 0 01-.088-.024c-.018-.006-.035-.012-.055-.017-.055-.018-.02.011.008.004-.018.003-.067-.034-.084-.042a1.312 1.312 0 01-.112-.068l-.049-.035c.063.04.028.021.012.007-.032-.027-.063-.052-.094-.082a2.032 2.032 0 01-.208-.227c.008.008.043.057.006.008l-.068-.098a2.702 2.702 0 01-.136-.23c-.017-.035-.037-.07-.053-.107-.007-.016-.013-.033-.021-.049-.037-.078.018.047-.002-.004a2.415 2.415 0 01-.149-.53c-.006-.036-.02-.026.002.017-.016-.03-.008-.088-.01-.12a1.492 1.492 0 01.004-.229c0-.004.012-.09.004-.035a1.337 1.337 0 01.035-.16c.012-.042.028-.083.042-.124.005-.016.025-.06-.006.01.007-.016.013-.032.021-.047.037-.077.08-.151.128-.222l.029-.04c-.045.062-.012.015.002 0a1.295 1.295 0 01.168-.172l.04-.034c.064-.055-.06.039.011-.008.065-.043.128-.084.196-.12l.047-.023c.004-.002.082-.033.03-.014-.053.02.027-.01.03-.012.026-.007.05-.017.075-.023a1.21 1.21 0 01.114-.03c.023-.005.143-.021.053-.011.09-.01.18-.014.27-.01.03.002.157.022.069.004.047.01.096.018.143.03.047.011.092.025.137.04.015.006.031.014.049.018-.08-.025-.004-.002.013.006.083.04.157.086.231.135.018.012.063.049.002 0a1.296 1.296 0 01.151.137c.034.033.06.073.092.106.036.037-.045-.067 0 .002.014.021.03.041.043.063.047.072.087.146.122.225-.032-.073-.008-.018-.002.002l.025.074c.014.045.026.092.036.14.003.017.005.034.01.052.017.078-.005-.059.001.014.01.057.014.11.014.164.002.18.157.351.343.343.184-.008.345-.15.343-.343-.008-.856-.598-1.637-1.438-1.843-.836-.203-1.75.188-2.145.96-.386.75-.207 1.65.241 2.333.216.329.503.638.87.799.391.174.8.164 1.189-.02.397-.188.713-.56.922-.94.218-.392.36-.84.363-1.29.001-.18-.16-.351-.343-.343a.353.353 0 00-.345.344zM17.49 16.402v1.245h-6.247v-1.245a1.6 1.6 0 011.604-1.595h.374l1.154 1.38 1.143-1.38h.374c.884 0 1.599.711 1.599 1.595z"/><path d="M17.15 16.402v1.245l.343-.342H11.25l.343.342v-1.192-.053c0-.028 0-.057.002-.084.002-.024.002-.046.006-.069.008-.092-.012.041.004-.03.018-.086.037-.172.065-.254.007-.02.017-.041.023-.06.014-.05-.035.072.002-.003.024-.047.045-.092.073-.137a2.01 2.01 0 01.068-.108l.03-.04c-.051.07 0 .001.01-.01.06-.073.129-.136.2-.198.013-.012.05-.036-.01.006a2.067 2.067 0 01.172-.114c.037-.022.076-.04.115-.059.055-.027 0 0-.01.004.034-.012.065-.025.098-.035.045-.016.092-.028.14-.04.021-.005.043-.01.064-.013.037-.008.074-.01.016-.004.072-.008.147-.012.22-.012h.344l-.243-.1 1.01 1.207c.05.057.097.116.146.172.111.134.374.134.483 0l1.001-1.206.143-.173c-.08.034-.16.067-.243.1.133 0 .269-.002.402 0 .037 0 .072.002.11.006.015.002.103.018.015 0 .07.014.14.026.208.045l.074.024c.018.006.124.05.04.013.058.028.115.055.172.089.025.015.05.03.076.049.016.01.104.08.033.021.047.037.093.077.134.12l.07.074c.012.014.08.104.028.03.035.048.068.097.1.148.03.053.056.106.082.16-.04-.083.008.022.013.04.012.033.022.067.032.1.015.06.027.12.039.182-.016-.094.002.024.002.043-.004.043-.002.079-.002.116.002.18.157.35.343.343.184-.008.344-.151.342-.343a1.961 1.961 0 00-.605-1.409 1.97 1.97 0 00-1.355-.532c-.151 0-.345-.03-.486.03-.096.04-.145.113-.21.19l-.583.704c-.153.186-.308.37-.46.556h.483c-.205-.244-.409-.49-.615-.734-.133-.159-.266-.32-.4-.478-.113-.135-.191-.26-.393-.268a3.626 3.626 0 00-.683.03 1.94 1.94 0 00-.948.444c-.46.386-.672.961-.672 1.549v1.163c0 .187.156.343.342.343H17.493a.347.347 0 00.342-.343v-1.245c0-.18-.156-.35-.342-.343a.348.348 0 00-.343.343z"/><g><path d="M10.479 1.904c0 .86-.697 2.037-1.557 2.037S7.365 2.764 7.365 1.904a1.557 1.557 0 013.114 0z"/><path d="M10.136 1.904c0 .057.012.16-.014.213.03-.058.008-.043 0-.006l-.011.061c-.008.041-.018.082-.028.124-.02.076-.041.15-.066.223-.014.041-.032.082-.047.123.03-.076-.02.04-.03.065a2.931 2.931 0 01-.26.43c.049-.068-.022.026-.036.042-.025.03-.05.057-.076.086-.057.06-.12.116-.184.169.07-.057-.02.011-.04.023-.029.02-.06.037-.091.055-.016.008-.11.059-.065.033.049-.027-.014.006-.023.008a.833.833 0 01-.065.022c-.03.007-.059.013-.088.021-.073.018.06 0 .012 0-.02 0-.038.004-.057.004a.918.918 0 01-.104 0c-.006 0-.055-.008-.057-.006.006-.01.086.016.002-.002a.733.733 0 01-.088-.023l-.055-.018c-.055-.018-.02.012.008.004-.018.004-.067-.033-.084-.041a1.312 1.312 0 01-.112-.069l-.049-.035c.063.041.027.022.012.008-.032-.028-.063-.053-.094-.082a2.032 2.032 0 01-.208-.228c.008.008.043.057.006.008-.023-.031-.045-.064-.068-.098a2.702 2.702 0 01-.136-.229c-.017-.035-.037-.07-.053-.108-.007-.015-.013-.033-.021-.049-.037-.078.018.047-.002-.003-.03-.079-.059-.155-.082-.236a2.415 2.415 0 01-.067-.295c-.006-.036-.02-.026.002.017-.016-.029-.008-.088-.01-.12a1.492 1.492 0 01.004-.228c0-.004.012-.09.004-.036a1.337 1.337 0 01.035-.16c.012-.041.028-.082.042-.124.005-.015.025-.06-.006.01l.021-.047c.037-.076.08-.15.127-.221l.03-.041c-.045.062-.012.015.002 0a1.295 1.295 0 01.168-.172l.04-.034c.064-.055-.06.04.011-.008.065-.043.128-.084.196-.12l.047-.023c.004-.002.082-.033.03-.013-.053.02.027-.01.03-.012.026-.008.05-.018.075-.024a1.21 1.21 0 01.114-.03c.023-.005.143-.02.053-.01.09-.01.18-.015.27-.01.03.001.157.02.069.003.047.01.096.018.143.03.047.011.092.025.137.04.015.007.031.015.049.018-.08-.025-.004-.001.013.006.083.04.157.087.231.135.018.012.063.05.002 0a1.296 1.296 0 01.151.138c.034.033.06.072.092.105.036.038-.045-.066 0 .002.014.022.03.041.043.063.047.072.087.147.122.225-.032-.072-.008-.017-.002.002l.025.075c.014.045.026.092.036.139.003.017.005.035.01.053.017.078-.005-.06.001.013.008.055.012.11.014.165.002.18.157.35.343.343.184-.008.345-.151.343-.343-.008-.856-.598-1.638-1.438-1.843-.836-.204-1.75.188-2.145.96-.386.75-.207 1.649.241 2.332.216.33.503.639.87.8.391.174.8.164 1.189-.02.397-.188.713-.56.922-.94.218-.392.36-.84.363-1.291.001-.18-.16-.35-.343-.343-.19.01-.345.153-.345.345z"/></g><g><path d="M12.046 6.291v1.25H5.798V6.29c0-.883.718-1.59 1.602-1.59h.374L8.928 6.08 10.07 4.7h.374c.882 0 1.6.708 1.6 1.591z"/><path d="M11.701 6.291v1.246l.343-.343H5.802l.342.343V6.344v-.053c0-.027 0-.057.002-.084.002-.024.002-.045.006-.069.008-.092-.012.042.004-.029.018-.086.037-.172.065-.255.008-.02.017-.04.023-.06.014-.05-.035.072.002-.002.024-.047.045-.092.073-.137a2.01 2.01 0 01.098-.15c-.051.071 0 .003.01-.009.06-.072.129-.135.2-.198.013-.012.05-.035-.01.006a2.067 2.067 0 01.172-.114c.037-.021.076-.039.115-.058.055-.028 0 0-.01.004.034-.012.065-.026.098-.036a1.618 1.618 0 01.204-.053c.037-.007.075-.01.016-.003.072-.008.147-.012.22-.012h.344c-.08-.034-.16-.067-.243-.1l1.01 1.206c.05.057.097.116.146.173.111.133.374.133.483 0l1.001-1.207.143-.172-.243.1c.134 0 .269-.002.402 0 .037 0 .072.002.11.006.015.002.103.017.015 0 .07.013.14.025.208.045l.074.023c.018.006.124.051.04.014a1.664 1.664 0 01.249.137c.015.01.103.08.032.022.047.037.093.076.134.119l.07.074c.012.014.08.104.028.03.035.049.068.098.1.149.03.053.056.105.082.16-.04-.084.008.022.013.04.012.033.022.066.032.1.015.06.027.119.039.182-.016-.094.002.023.002.043-.004.04-.002.078-.002.115.002.18.157.35.343.343.184-.008.344-.15.343-.343a1.961 1.961 0 00-.606-1.408 1.97 1.97 0 00-1.355-.533c-.15 0-.345-.03-.486.03-.096.04-.145.113-.21.19-.193.235-.39.47-.583.705-.153.186-.308.37-.46.556h.483l-.615-.735-.4-.478c-.113-.135-.191-.26-.393-.268a3.626 3.626 0 00-.683.03 1.94 1.94 0 00-.948.444c-.46.386-.672.962-.672 1.55v1.163c0 .186.156.343.343.343h6.242a.347.347 0 00.343-.343V6.29c0-.18-.157-.35-.343-.343a.348.348 0 00-.343.343z"/></g><path d="M11.627 12.655L9.45 11.484c-.094-.051-.188-.104-.282-.153a.525.525 0 00-.515.015c-.049.026-.096.051-.145.079l-1.27.683c-.34.183-.678.365-1.02.547-.22.12-.309.444-.172.656.145.225.42.3.657.172.72-.387 1.441-.775 2.162-1.161.1-.055.202-.108.301-.163h-.483l2.158 1.162c.1.055.202.108.302.162.221.12.533.063.656-.172.117-.223.063-.53-.172-.656z"/><path d="M8.442 8.935v2.81c0 .25.221.49.48.479a.488.488 0 00.48-.48v-2.46-.349c0-.25-.222-.491-.48-.48a.488.488 0 00-.48.48z"/></g></svg>
