<svg xmlns="http://www.w3.org/2000/svg" viewBox="0 0 18 18"><g fill-rule="nonzero"><path d="M8.901 14.2a.375.375 0 00.116-.37 2.995 2.995 0 01-.066-1.13 3.397 3.397 0 011.28-2.175.75.75 0 00.269-.578V4.125c0-1.036-.84-1.875-1.875-1.875h-.75a.375.375 0 01-.375-.375v-.75A1.125 1.125 0 006.375 0h-2.25C3.504 0 3 .504 3 1.125v.75a.375.375 0 01-.375.375h-.75C.839 2.25 0 3.09 0 4.125v12A1.875 1.875 0 001.875 18H6.23a.258.258 0 00.256-.3 1.68 1.68 0 01.304-1.257A15.474 15.474 0 018.9 14.2zm-3.73-1.369A.375.375 0 014.5 12.6v-1.912a.375.375 0 00-.375-.376H3a.375.375 0 01-.296-.605L5.33 6.33a.375.375 0 01.67.231v1.875c0 .208.168.376.375.376h1.17a.375.375 0 01.296.605l-2.67 3.413zM17.97 10.553a.375.375 0 00-.498-.305 6.66 6.66 0 01-2.8.225 4.992 4.992 0 00-2.938.387 2.85 2.85 0 00-1.668 1.989 2.1 2.1 0 00.246 1.247c.081.157.042.35-.095.461a15.337 15.337 0 00-2.518 2.55.563.563 0 00.909.663 18.203 18.203 0 015.275-4.356.563.563 0 11.543.985c-.96.53-1.867 1.15-2.711 1.85a.375.375 0 00-.037.543 1.7 1.7 0 00.44.345c.263.14.556.216.855.22a4.056 4.056 0 002.04-.6c1.528-.849 3.236-4.007 2.957-6.204z"/></g></svg>
