<svg fill="currentColor" xmlns="http://www.w3.org/2000/svg" viewBox="0 0 13 10"><path d="M1.276 0h10.448C12.424 0 13 .619 13 1.373v7.254C13 9.38 12.425 10 11.724 10H1.276C.576 10 0 9.381 0 8.627V1.373C0 .62.575 0 1.276 0zm10.662 9.268L8.16 5.078a2.742 2.742 0 01-3.324-.004L1.057 9.266a.588.588 0 00.219.042h10.447a.59.59 0 00.215-.04zM8.654 4.635l3.695 4.1a.717.717 0 00.008-.108V1.373a.728.728 0 00-.036-.227l-3.667 3.49zM.65 8.728l3.692-4.096L.68 1.146a.727.727 0 00-.036.227v7.253c0 .035.002.069.007.102zM1.177.7l3.816 3.632a2.159 2.159 0 003.014 0L11.824.7a.579.579 0 00-.1-.008H1.277a.579.579 0 00-.1.008z" /></svg>
