<svg xmlns="http://www.w3.org/2000/svg" viewBox="0 0 16 18"><g fill-rule="nonzero"><path d="M8.215 3.469c-1.503-.056-2.908.562-3.844 1.725a4.365 4.365 0 00-.898 2.137 4.208 4.208 0 00.956 3.225c.547.675.917 1.313 1.151 1.969l.079.244c.039.131.175.225.331.225h1.483V9.319l-1.756-1.8a.512.512 0 01.02-.732.564.564 0 01.76.02L8.02 8.362 9.54 6.806a.545.545 0 01.761-.019.496.496 0 01.02.732l-1.756 1.8v3.675h1.483a.358.358 0 00.331-.225l.079-.244c.214-.638.585-1.275 1.112-1.912.41-.507.722-1.088.897-1.707.664-2.775-1.502-5.325-4.253-5.437zM10.049 13.781H5.95a.212.212 0 00-.214.207v.618c0 .113.097.207.214.207h4.117a.212.212 0 00.215-.207v-.618c0-.113-.098-.207-.234-.207zM10.049 15.581H5.95a.212.212 0 00-.214.207v.618c0 .113.097.207.214.207h.469c.136.73.78 1.293 1.58 1.293s1.463-.562 1.58-1.293h.469a.212.212 0 00.214-.207v-.618c.02-.113-.078-.207-.214-.207zM8 2.4a.535.535 0 00.546-.525V.619A.535.535 0 008 .094c-.312 0-.546.225-.546.525v1.256c0 .3.253.525.546.525zM4.468 2.925a.53.53 0 00.469.263.503.503 0 00.273-.076c.253-.15.351-.45.195-.712L4.74 1.313A.552.552 0 004 1.125c-.254.15-.351.45-.195.712l.663 1.088zM2.966 4.388L1.815 3.75a.557.557 0 00-.742.188c-.156.243-.058.562.195.712l1.152.637a.461.461 0 00.273.075.53.53 0 00.468-.262.504.504 0 00-.195-.712zM2.42 7.763a.535.535 0 00-.547-.526H.546A.535.535 0 000 7.763c0 .3.234.524.546.524h1.327c.293 0 .547-.243.547-.525zM2.42 10.256l-1.152.638c-.253.15-.35.45-.195.712a.53.53 0 00.468.263.503.503 0 00.274-.075l1.15-.638c.255-.15.352-.45.196-.712-.156-.244-.468-.319-.741-.188zM14.712 10.894l-1.151-.638a.557.557 0 00-.741.188c-.157.243-.059.562.195.712l1.15.638a.461.461 0 00.274.075.53.53 0 00.468-.263c.156-.243.059-.562-.195-.712zM15.454 7.256h-1.327a.535.535 0 00-.547.525c0 .3.235.525.547.525h1.327A.535.535 0 0016 7.781c0-.3-.254-.525-.546-.525zM13.307 5.344a.503.503 0 00.273-.075l1.152-.638c.253-.15.35-.45.195-.712a.552.552 0 00-.742-.188l-1.15.638c-.255.15-.352.45-.196.712a.53.53 0 00.468.263zM10.79 3.112a.461.461 0 00.273.075.53.53 0 00.469-.262l.663-1.106c.156-.244.059-.563-.195-.713a.557.557 0 00-.741.188L10.595 2.4a.504.504 0 00.195.712z"/></g></svg>
