<svg xmlns="http://www.w3.org/2000/svg" viewBox="0 0 18 18" fill="currentColor"><path d="M17.723 8.25a1.846 1.846 0 00-1.846-1.846h-4.66a.185.185 0 01-.176-.242 6.414 6.414 0 00.384-3.255c-.434-1.55-1.354-1.993-2.073-1.894a1.477 1.477 0 00-1.229 1.514c0 2.028-1.572 4.243-2.979 5.214a.37.37 0 00-.16.305v7.47a.37.37 0 00.3.363c.263.05.503.1.729.147a12.82 12.82 0 003.033.348h4.8c1.446 0 1.662-.812 1.662-1.292a1.66 1.66 0 00-.17-.735c.81-.412 1.139-1.4.738-2.215a1.662 1.662 0 00.708-2.273c.58-.328.94-.942.94-1.609zM3.877 8.066a.738.738 0 00-.739-.739h-2.4A.738.738 0 000 8.066v8.123c0 .408.33.738.738.738h2.4c.408 0 .739-.33.739-.738V8.066zm-1.108 6.83a.554.554 0 11-1.107 0 .554.554 0 011.107 0z"/></svg>
