<svg xmlns="http://www.w3.org/2000/svg" viewBox="0 0 32 32">
<path d="M3.333 11.333h5.334c.368 0 .666.299.666.667v17.333a.667.667 0 01-.666.667H3.333a.667.667 0 01-.666-.667V12c0-.368.298-.667.666-.667zM5.973 2C7.8 2 9.28 3.492 9.28 5.333S7.8 8.667 5.973 8.667 2.667 7.175 2.667 5.333 4.147 2 5.973 2zm18.694 28h4a.667.667 0 00.666-.667v-11.2c0-5.026-2.84-7.466-6.813-7.466a5.616 5.616 0 00-4.227 1.693.547.547 0 01-.96-.36.667.667 0 00-.666-.667h-4A.667.667 0 0012 12v17.333c0 .368.299.667.667.667h4a.667.667 0 00.666-.667v-10a3.333 3.333 0 116.667 0v10c0 .368.299.667.667.667z" /></svg>
