<svg xmlns="http://www.w3.org/2000/svg" viewBox="0 0 17 17"><g fill-rule="nonzero" fill="none"><path d="M8 16a.667.667 0 01-.66-.568l-.007-.099v-1.082a.333.333 0 00-.28-.328 6.011 6.011 0 01-4.976-4.976.333.333 0 00-.26-.273l-.068-.007H.667A.667.667 0 01.568 7.34l.099-.008h1.082c.163 0 .302-.119.328-.28a6.011 6.011 0 014.976-4.976.333.333 0 00.273-.26l.007-.068V.667A.667.667 0 018.66.568l.008.099v1.082c0 .163.119.302.28.328a6.011 6.011 0 014.976 4.976.333.333 0 00.26.273l.068.007h1.082c.335 0 .612.247.66.568L16 8H9l-.117.007L9 8h3.667A4.667 4.667 0 108 12.667V16z" fill="#707070"/><path d="M8 5.333A2.667 2.667 0 0110.667 8H9a1 1 0 00-1 1v1.667a2.667 2.667 0 010-5.334z" fill="#707070"/><path d="M16 9a1 1 0 011 1v6a1 1 0 01-1 1h-6a1 1 0 01-1-1v-6a1 1 0 011-1h6zm-1.428 2.019a.574.574 0 00-.558.156l-.912.913a.143.143 0 01-.204 0l-.912-.913a.574.574 0 10-.81.811l.912.912a.144.144 0 010 .204l-.913.912a.574.574 0 10.811.81l.912-.912a.143.143 0 01.204 0l.912.913a.574.574 0 10.81-.811l-.912-.912a.144.144 0 010-.204l.913-.912a.574.574 0 00-.253-.967z" fill="#DD3C4C"/></g></svg>
