<svg xmlns="http://www.w3.org/2000/svg" viewBox="0 0 16 16" fill="currentColor"><circle cx="8" cy="8" r="2.667"/><path d="M15.333 7.333h-1.082a.333.333 0 01-.328-.28 6.011 6.011 0 00-4.976-4.976.333.333 0 01-.28-.328V.667a.667.667 0 00-1.334 0v1.082c0 .163-.119.302-.28.328a6.011 6.011 0 00-4.976 4.976.333.333 0 01-.328.28H.667a.667.667 0 000 1.334h1.082c.163 0 .302.119.328.28a6.011 6.011 0 004.976 4.976c.161.026.28.165.28.328v1.082a.667.667 0 101.334 0v-1.082c0-.163.119-.302.28-.328a6.011 6.011 0 004.976-4.976.333.333 0 01.328-.28h1.082a.667.667 0 100-1.334zM8 12.667a4.667 4.667 0 110-9.334 4.667 4.667 0 010 9.334z"/></svg>
