<svg xmlns="http://www.w3.org/2000/svg" viewBox="0 0 18 18"><g fill-rule="nonzero"><path d="M6.246 5.775a.375.375 0 00.34-.397c-.09-1.45-.159-2.678-.192-3.353a.375.375 0 00-.225-.325C4.275.87 1.91 2.925.279 3.404a.39.39 0 00-.263.255.362.362 0 00.082.353c.99 1.097 3.49 2.01 6.148 1.763zM17.984 3.66a.39.39 0 00-.262-.256C16.089 2.925 13.725.87 11.83 1.7a.375.375 0 00-.225.324c-.033.675-.101 1.904-.191 3.356a.375.375 0 00.34.397c2.657.245 5.157-.668 6.15-1.765a.362.362 0 00.08-.353z"/><path d="M12.375 7.5a.75.75 0 100 1.5c.621 0 1.125.504 1.125 1.125 0 .934-1.696 1.393-3.42 1.759a.187.187 0 01-.226-.197l.117-1.558c.288-3.856.529-8.297.529-8.629a1.5 1.5 0 00-3 0c0 .331.24 4.773.53 8.63l.117 1.556a.188.188 0 01-.226.198c-1.726-.366-3.421-.825-3.421-1.759C4.5 9.504 5.004 9 5.625 9a.75.75 0 000-1.5A2.625 2.625 0 003 10.125c0 1.449 1.136 2.212 2.604 2.706a.187.187 0 01.037.338A2.064 2.064 0 004.5 15a2.25 2.25 0 002.25 2.25.75.75 0 100-1.5A.75.75 0 016 15c0-.516.962-.873 2.093-1.154a.187.187 0 01.232.166c.106 1.304.21 2.424.3 3.643a.375.375 0 00.743 0c.094-1.219.197-2.339.3-3.643a.187.187 0 01.233-.166C11.039 14.127 12 14.484 12 15a.75.75 0 01-.75.75.75.75 0 100 1.5A2.25 2.25 0 0013.5 15a2.064 2.064 0 00-1.142-1.83.188.188 0 01.038-.339C13.864 12.337 15 11.574 15 10.125A2.625 2.625 0 0012.375 7.5z"/></g></svg>
