<svg xmlns="http://www.w3.org/2000/svg" viewBox="0 0 32 32" fill="currentColor"><g><path d="M23.166 15.668c-4.136 0-7.5 3.365-7.5 7.5s3.364 7.5 7.5 7.5 7.5-3.365 7.5-7.5-3.364-7.5-7.5-7.5m0 16c-4.686 0-8.5-3.814-8.5-8.5 0-4.687 3.814-8.5 8.5-8.5 4.688 0 8.5 3.813 8.5 8.5 0 4.686-3.813 8.5-8.5 8.5"/><path d="M22.06 26.907c-.397 0-.778-.157-1.062-.44l-2-2a.5.5 0 01.707-.707l2 2a.5.5 0 00.754-.055l3.872-5.163a.502.502 0 01.701-.101c.22.166.265.48.1.7l-3.873 5.165a1.506 1.506 0 01-1.2.6M1.833 26.334a.5.5 0 01-.457-.703L3.91 19.93A10.774 10.774 0 010 11.845C0 5.308 6.505 0 14.5 0S29 5.31 29 11.835a9.822 9.822 0 01-.236 2.078.5.5 0 01-.976-.218A8.869 8.869 0 0028 11.83C28 5.86 21.944 1 14.5 1S1 5.859 1 11.834a9.772 9.772 0 003.829 7.55c.183.14.246.387.152.599l-2.152 4.84 6.317-2.91a.498.498 0 01.36-.023c.993.311 2.024.53 3.063.645a.5.5 0 01-.111.994 17.252 17.252 0 01-3.066-.628l-7.35 3.387a.496.496 0 01-.209.046"/></g></svg>
