<svg viewBox="0 0 32 31" fill="currentColor" xmlns="http://www.w3.org/2000/svg">
    <path d="M16.1999 0.5C7.4999 0.5 0.399902 6.4 0.399902 13.7C0.399902 17.2 2.0999 20.5 4.7999 22.8L1.6999 30.1C1.5999 30.3 1.5999 30.6 1.7999 30.7C1.8999 30.8 1.9999 30.8 2.0999 30.8C2.1999 30.8 2.1999 30.8 2.4999 30.8L10.7999 26.1C12.4999 26.6 14.3999 26.9 16.1999 26.9C24.8999 26.9 31.9999 21 31.9999 13.7C31.9999 6.4 24.8999 0.5 16.1999 0.5ZM15.9999 25.9C14.1999 25.9 12.3999 25.7 10.6999 25.1C10.5999 25 10.3999 25 10.2999 25.1L3.0999 29.2L5.6999 22.9C5.6999 22.7 5.6999 22.4 5.4999 22.3C2.8999 20.2 1.2999 17.1 1.1999 13.7C1.1999 7 7.8999 1.5 16.0999 1.5C24.2999 1.5 30.7999 7 30.7999 13.7C30.7999 20.4 24.1999 25.9 15.9999 25.9Z"/>
    <path d="M15.6 5.79994C13.4 6.09994 11.7 8.09994 11.7 10.2999C11.7 10.5999 11.9 10.7999 12.2 10.7999C12.5 10.7999 12.7 10.5999 12.7 10.2999C12.7 8.49994 14 6.99994 15.7 6.79994C17.4 6.49994 19 7.59994 19.5 9.29994C19.9 10.9999 19.1 12.7999 17.5 13.4999C16.3 13.9999 15.6 15.0999 15.6 16.3999V16.9999C15.6 17.2999 15.8 17.4999 16.1 17.4999C16.4 17.4999 16.6 17.2999 16.7 16.9999V16.2999C16.7 15.3999 17.2 14.5999 18 14.2999C20 13.3999 21.1 11.1999 20.5 8.99994C19.9 6.89994 17.8 5.49994 15.6 5.79994Z" />
    <path d="M16.0998 19.6C15.6998 19.6 15.2998 19.9 15.2998 20.4C15.2998 20.8 15.5998 21.2 16.0998 21.2C16.4998 21.2 16.8998 20.8 16.8998 20.4C16.8998 20 16.4998 19.6 16.0998 19.6ZM15.8998 20.4C15.8998 20.3 15.9998 20.2 16.0998 20.2C16.1998 20.2 16.1998 20.2 16.1998 20.4C16.1998 20.6 15.8998 20.6 15.8998 20.4Z"  />
</svg>
