<svg viewBox="0 0 16 15" version="1.1" xmlns="http://www.w3.org/2000/svg" xmlns:xlink="http://www.w3.org/1999/xlink">
    <path d="M14.6666667,0.340909091 L1.33333333,0.340909091 C0.781048584,0.340909091 0.333333333,0.798799688 0.333333333,1.36363636 L0.333333333,10.6036364 C0.335201471,10.8710788 0.442287841,11.1264862 0.63043286,11.3122367 C0.818577879,11.4979871 1.07193089,11.5984316 1.33333333,11.5909091 L3.33333333,11.5909091 L3.33333333,14.3181818 C3.33328925,14.4450617 3.40214632,14.5614693 3.51205388,14.6203211 C3.62196143,14.6791729 3.75473312,14.6707307 3.85666667,14.5984091 L8.104,11.5909091 L14.6666667,11.5909091 C15.2189514,11.5909091 15.6666667,11.1330185 15.6666667,10.5681818 L15.6666667,1.36363636 C15.6666667,0.798799688 15.2189514,0.340909091 14.6666667,0.340909091 Z M3.5,7.5 C3.5,7.21758166 3.72385763,6.98863636 4,6.98863636 L12,6.98863636 C12.2761424,6.98863636 12.5,7.21758166 12.5,7.5 C12.5,7.78241834 12.2761424,8.01136364 12,8.01136364 L4,8.01136364 C3.72385763,8.01136364 3.5,7.78241834 3.5,7.5 Z M12,4.94318182 L4,4.94318182 C3.72385763,4.94318182 3.5,4.71423652 3.5,4.43181818 C3.5,4.14939984 3.72385763,3.92045455 4,3.92045455 L12,3.92045455 C12.2761424,3.92045455 12.5,4.14939984 12.5,4.43181818 C12.5,4.71423652 12.2761424,4.94318182 12,4.94318182 Z" id="Shape"></path>
</svg>
