<svg fill="currentColor" xmlns="http://www.w3.org/2000/svg" viewBox="0 0 33 32"><path d="M14.52 12.476a.285.285 0 00.081.166l5.255 5.256a.285.285 0 00.167.082 6.443 6.443 0 003.674-.599.289.289 0 00.077-.463l-8.193-8.193a.288.288 0 00-.463.077 6.435 6.435 0 00-.599 3.674zM16.004 7.516l8.98 8.98a1.2 1.2 0 001.632 0 1.154 1.154 0 000-1.633.264.264 0 01-.048-.308 6.41 6.41 0 00-8.624-8.623.264.264 0 01-.308-.049 1.155 1.155 0 00-1.632 0 1.205 1.205 0 000 1.633zM7.364 21.733a1.256 1.256 0 00-.079 1.517.289.289 0 01-.037.363l-1.451 1.451a1.155 1.155 0 001.633 1.633l1.448-1.448a.287.287 0 01.363-.037 1.256 1.256 0 001.525-.077l7.731-6.526a.29.29 0 00.015-.422l-4.2-4.2a.29.29 0 00-.425.018l-6.523 7.728z" /></svg>
