<svg fill="none" xmlns="http://www.w3.org/2000/svg" viewBox="0 0 24 24">
  <path d="M5.3 19h13.4a.3.3 0 00.3-.3V7.64a.3.3 0 00-.3-.3h-1.45v-.87A1.46 1.46 0 0015.79 5h-.29a.3.3 0 00-.3.3v2.03H5.3a.3.3 0 00-.3.3V18.7a.3.3 0 00.3.29zm5.24-6.74a2.04 2.04 0 010-2.85v2.85zm6.71.62V7.92h1.17v5.83h-1.47c.2-.25.3-.56.3-.88zm-1.46-7.3a.88.88 0 01.88.88v5.25c-.26-.2-.56-.3-.88-.3V5.59zm-2.33 3.83a2.04 2.04 0 010 2.85V9.41zm0 3.6a2.61 2.61 0 000-4.35v-.74h1.75v3.79a.3.3 0 00.29.29h.3a.88.88 0 010 1.75h-2.34v-.74zm0 1.32h4.96v.59h-4.96v-.59zm0 1.17h4.96v.58h-4.96v-.58zm0 1.17h4.96v.58h-4.96v-.58zm0 1.16h4.96v.59h-4.96v-.59zm-2.34 0V7.92h1.76v10.5h-1.76v-.59zM5.58 7.92h1.14a1.46 1.46 0 01-1.14 1.13V7.92zm0 1.72a2.04 2.04 0 001.73-1.72h3.23v.74a2.61 2.61 0 000 4.35v.74h-3.2a2.04 2.04 0 00-1.76-2.02V9.64zm0 2.68a1.46 1.46 0 011.17 1.43H5.58v-1.43zm0 2.01h4.96v.59H5.58v-.59zm0 1.17h4.96v.58H5.58v-.58zm0 1.17h4.96v.58H5.58v-.58zm0 1.16h4.96v.59H5.58v-.59z" fill="currentColor"/>
  <path d="M8.5 10.54H7.33v.59H8.5v-.59z" fill="currentColor"/>
</svg>
