<svg viewBox="0 0 8 8" version="1.1" xmlns="http://www.w3.org/2000/svg" xmlns:xlink="http://www.w3.org/1999/xlink">
    <path d="M4,0 C1.790861,0 0,1.790861 0,4 C0,6.209139 1.790861,8 4,8 C6.209139,8 8,6.209139 8,4 C7.99761172,1.79185102 6.20814898,0.00238828254 4,0 Z M2.41666667,2.16666667 C2.7848565,2.16666667 3.08333333,2.4651435 3.08333333,2.83333333 C3.08333333,3.20152317 2.7848565,3.5 2.41666667,3.5 C2.04847683,3.5 1.75,3.20152317 1.75,2.83333333 C1.75,2.4651435 2.04847683,2.16666667 2.41666667,2.16666667 Z M2.78633333,4.75633333 C2.64476434,4.63832849 2.62566183,4.42790232 2.74366667,4.28633333 C2.86167151,4.14476434 3.07209768,4.12566183 3.21366667,4.24366667 L3.947,4.855 C3.9779465,4.88060294 4.02272017,4.88060294 4.05366667,4.855 L4.787,4.24366667 C4.87857908,4.16733092 5.00392628,4.14565064 5.11582451,4.18679257 C5.22772275,4.22793451 5.30917202,4.32564822 5.32949118,4.44312591 C5.34981034,4.56060359 5.30591241,4.67999759 5.21433333,4.75633333 L4.59833333,5.26933333 C4.57934716,5.28516626 4.56837082,5.30861175 4.56837082,5.33333333 C4.56837082,5.35805491 4.57934716,5.3815004 4.59833333,5.39733333 L5.21433333,5.91033333 C5.30591241,5.98666908 5.34981034,6.10606308 5.32949118,6.22354076 C5.30917202,6.34101844 5.22772275,6.43873216 5.11582451,6.47987409 C5.00392628,6.52101603 4.87857908,6.49933575 4.787,6.423 L4.05366667,5.81166667 C4.02272017,5.78606373 3.9779465,5.78606373 3.947,5.81166667 L3.21366667,6.423 C3.12208759,6.49933575 2.99674039,6.52101603 2.88484215,6.47987409 C2.77294392,6.43873216 2.69149465,6.34101844 2.67117549,6.22354076 C2.65085633,6.10606308 2.69475425,5.98666908 2.78633333,5.91033333 L3.40233333,5.39733333 C3.42131951,5.3815004 3.43229585,5.35805491 3.43229585,5.33333333 C3.43229585,5.30861175 3.42131951,5.28516626 3.40233333,5.26933333 L2.78633333,4.75633333 Z M5.58333333,3.5 C5.2151435,3.5 4.91666667,3.20152317 4.91666667,2.83333333 C4.91666667,2.4651435 5.2151435,2.16666667 5.58333333,2.16666667 C5.95152317,2.16666667 6.25,2.4651435 6.25,2.83333333 C6.25,3.20152317 5.95152317,3.5 5.58333333,3.5 Z" id="Shape-Copy" fill-rule="nonzero"></path>
</svg>
