<svg xmlns="http://www.w3.org/2000/svg" viewBox="0 0 32 32">
<g id="Page-1" stroke="none" strokeWidth="1" fill="none" fillRule="evenodd">
          <path
            d="M9.501,17 C9.77714237,17 10.001,17.2238576 10.001,17.5 C10.001,17.7454599 9.82412484,17.9496084 9.59087563,17.9919443 L9.501,18 L1.898,18 C1.62185763,18 1.398,17.7761424 1.398,17.5 C1.398,17.2545401 1.57487516,17.0503916 1.80812437,17.0080557 L1.898,17 L9.501,17 Z"
            id="Path"
            fill="#000000"
          />
          <path
            d="M21.496,5 C21.7721424,5 21.996,5.22385763 21.996,5.5 C21.996,5.74545989 21.8191248,5.94960837 21.5858756,5.99194433 L21.496,6 L2.512,6 C2.23585763,6 2.012,5.77614237 2.012,5.5 C2.012,5.25454011 2.18887516,5.05039163 2.42212437,5.00805567 L2.512,5 L21.496,5 Z"
            id="Path"
            fill="#000000"
          />
          <path
            d="M11.001,11 C11.2771424,11 11.501,11.2238576 11.501,11.5 C11.501,11.7454599 11.3241248,11.9496084 11.0908756,11.9919443 L11.001,12 L0.511,12 C0.234857625,12 0.011,11.7761424 0.011,11.5 C0.011,11.2545401 0.187875161,11.0503916 0.421124368,11.0080557 L0.511,11 L11.001,11 Z"
            id="Path"
            fill="#000000"
          />
          <path
            d="M10.8370576,0.0593832303 C17.0774137,-0.55537703 22.7389773,3.73811965 23.8303684,9.91297504 C23.878431,10.1849026 23.6969525,10.4443059 23.425025,10.4923684 C23.1530974,10.540431 22.8936941,10.3589525 22.8456316,10.087025 C21.8451897,4.42674084 16.6554231,0.491035558 10.9350967,1.0545658 C5.21477031,1.61809604 0.892756329,6.49084156 1.01605755,12.237536 C1.13935878,17.9842304 5.6663985,22.6671105 11.4056316,22.9847641 C11.681352,23.0000246 11.8924964,23.2359112 11.8772359,23.5116316 C11.8619754,23.787352 11.6260888,23.9984964 11.3503684,23.9832359 C5.08938687,23.6367047 0.150798079,18.5281083 0.0162876534,12.2589871 C-0.118222772,5.98986588 4.59670157,0.674143491 10.8370576,0.0593832303 Z"
            id="Path"
            fill="#000000"
          />
          <path
            d="M10.9015983,0.186859949 C11.0889002,-0.0160504197 11.4052297,-0.0287036007 11.6081401,0.158598278 C11.8110504,0.345900156 11.8237036,0.662229683 11.6364017,0.865140051 C5.83385111,7.15123655 5.89063368,15.3341782 11.778,23.184 C11.9436854,23.4049139 11.8989139,23.7183146 11.678,23.884 C11.4570861,24.0496854 11.1436854,24.0049139 10.978,23.784 C4.81458774,15.566117 4.75408228,6.84666895 10.9015983,0.186859949 Z"
            id="Path"
            fill="#000000"
          />
          <path
            d="M12.3835969,0.165438073 C12.5827298,-0.025875068 12.8992488,-0.0195359377 13.0905619,0.179596916 C15.4009777,2.5844484 16.9348522,5.62848883 17.4929486,8.91632402 C17.5391616,9.18857202 17.355924,9.44673564 17.083676,9.49294861 C16.811428,9.53916158 16.5532644,9.35592398 16.5070514,9.08367598 C15.9825207,5.99358153 14.5408982,3.13261925 12.3694381,0.872403084 C12.1781249,0.67327023 12.1844641,0.356751213 12.3835969,0.165438073 Z"
            id="Path"
            fill="#000000"
          />
          <path
            d="M17.5,11 C13.9101491,11 11,13.9101491 11,17.5 C11,21.0898509 13.9101491,24 17.5,24 C21.0898509,24 24,21.0898509 24,17.5 C24,13.9101491 21.0898509,11 17.5,11 Z M17.5,12 C20.5375661,12 23,14.4624339 23,17.5 C23,20.5375661 20.5375661,23 17.5,23 C14.4624339,23 12,20.5375661 12,17.5 C12,14.4624339 14.4624339,12 17.5,12 Z"
            id="Oval"
            fill="#000000"
          />
          <path
            d="M17.5,14 C17.7454599,14 17.9496084,14.1768752 17.9919443,14.4101244 L18,14.5 L18,20.5 C18,20.7761424 17.7761424,21 17.5,21 C17.2545401,21 17.0503916,20.8231248 17.0080557,20.5898756 L17,20.5 L17,14.5 C17,14.2238576 17.2238576,14 17.5,14 Z"
            id="Path"
            fill="#000000"
          />
          <path
            d="M20.5,17 C20.7761424,17 21,17.2238576 21,17.5 C21,17.7454599 20.8231248,17.9496084 20.5898756,17.9919443 L20.5,18 L14.5,18 C14.2238576,18 14,17.7761424 14,17.5 C14,17.2545401 14.1768752,17.0503916 14.4101244,17.0080557 L14.5,17 L20.5,17 Z"
            id="Path"
            fill="#000000"
          />
        </g>
        </svg>