<svg viewBox="0 0 41 39" fill="none" xmlns="http://www.w3.org/2000/svg">
    <path fill-rule="evenodd" clip-rule="evenodd" d="M1.12581 1.12581C1.84665 0.404966 2.82432 0 3.84375 0H29.4688C30.4882 0 31.4658 0.404966 32.1867 1.12581C32.9075 1.84665 33.3125 2.82432 33.3125 3.84375V33.3125C33.3125 33.9921 33.5825 34.6439 34.063 35.1245C34.5436 35.605 35.1954 35.875 35.875 35.875C36.5546 35.875 37.2064 35.605 37.687 35.1245C38.1675 34.6439 38.4375 33.9921 38.4375 33.3125V8.96875C38.4375 8.26114 39.0111 7.6875 39.7188 7.6875C40.4264 7.6875 41 8.26114 41 8.96875V33.3125C41 34.6717 40.46 35.9753 39.4989 36.9364C38.5378 37.8975 37.2342 38.4375 35.875 38.4375H5.125C3.76577 38.4375 2.4622 37.8975 1.50108 36.9364C0.539954 35.9753 0 34.6717 0 33.3125V3.84375C0 2.82432 0.404966 1.84665 1.12581 1.12581ZM31.4366 35.875C30.9907 35.1025 30.75 34.2199 30.75 33.3125V3.84375C30.75 3.50394 30.615 3.17805 30.3747 2.93777C30.1344 2.69749 29.8086 2.5625 29.4688 2.5625H3.84375C3.50394 2.5625 3.17805 2.69749 2.93777 2.93777C2.69749 3.17805 2.5625 3.50394 2.5625 3.84375V33.3125C2.5625 33.9921 2.83248 34.6439 3.31304 35.1245C3.7936 35.605 4.44538 35.875 5.125 35.875H31.4366Z" fill="#BEC4CB"/>
    <path fill-rule="evenodd" clip-rule="evenodd" d="M6.40625 24.3438C6.40625 23.6361 6.97989 23.0625 7.6875 23.0625H25.625C26.3326 23.0625 26.9062 23.6361 26.9062 24.3438C26.9062 25.0514 26.3326 25.625 25.625 25.625H7.6875C6.97989 25.625 6.40625 25.0514 6.40625 24.3438Z" fill="#BEC4CB"/>
    <path fill-rule="evenodd" clip-rule="evenodd" d="M6.40625 29.4688C6.40625 28.7611 6.97989 28.1875 7.6875 28.1875H17.9375C18.6451 28.1875 19.2188 28.7611 19.2188 29.4688C19.2188 30.1764 18.6451 30.75 17.9375 30.75H7.6875C6.97989 30.75 6.40625 30.1764 6.40625 29.4688Z" fill="#BEC4CB"/>
    <path fill-rule="evenodd" clip-rule="evenodd" d="M6.40625 7.6875C6.40625 6.97989 6.97989 6.40625 7.6875 6.40625H25.625C26.3326 6.40625 26.9062 6.97989 26.9062 7.6875V17.9375C26.9062 18.6451 26.3326 19.2188 25.625 19.2188H7.6875C6.97989 19.2188 6.40625 18.6451 6.40625 17.9375V7.6875ZM8.96875 8.96875V16.6562H24.3438V8.96875H8.96875Z" fill="#BEC4CB"/>
</svg>
