<svg viewBox="0 0 8 8" version="1.1" xmlns="http://www.w3.org/2000/svg" xmlns:xlink="http://www.w3.org/1999/xlink">   
            <path d="M5.337,3.12133333 C5.31671701,3.04957498 5.25123651,3.00002217 5.17666667,2.99999976 L2.819,2.99999976 C2.74430655,2.99987285 2.67864987,3.0494559 2.65833333,3.12133333 L2.18766667,4.788 C2.17346641,4.83823847 2.18362714,4.89222819 2.21511858,4.9338676 C2.24661002,4.97550701 2.29579319,4.99999976 2.348,4.99999976 L5.648,4.99999976 C5.70020681,4.99999976 5.74938998,4.97550701 5.78088142,4.9338676 C5.81237286,4.89222819 5.82253359,4.83823847 5.80833333,4.788 L5.337,3.12133333 Z" id="Path"></path>
            <path d="M7.66666667,7.33333333 L6.65733333,7.33333333 C6.58276349,7.33331117 6.51728299,7.28375836 6.497,7.212 L6.18766667,6.12133333 C6.16738367,6.04957498 6.10190318,6.00002217 6.02733333,6 L1.971,6 C1.89643016,6.00002217 1.83094966,6.04957498 1.81066667,6.12133333 L1.50233333,7.212 C1.48205034,7.28375836 1.41656984,7.33331117 1.342,7.33333333 L0.333333333,7.33333333 C0.149238417,7.33333333 0,7.48257175 0,7.66666667 C0,7.85076158 0.149238417,8 0.333333333,8 L7.66666667,8 C7.85076158,8 8,7.85076158 8,7.66666667 C8,7.48257175 7.85076158,7.33333333 7.66666667,7.33333333 Z" id="Path"></path>
            <path d="M4.8,2 C4.85220681,2 4.90138998,1.97550701 4.93288142,1.9338676 C4.96437286,1.89222819 4.97453359,1.83823847 4.96033333,1.788 L4.575,0.435 C4.50153978,0.178166357 4.26713149,0.000831391508 4,0 C3.72850368,0.000701296939 3.49022353,0.180940583 3.41566667,0.442 L3.03533333,1.788 C3.02113308,1.83823847 3.03129381,1.89222819 3.06278525,1.9338676 C3.09427669,1.97550701 3.14345986,2 3.19566667,2 L4.8,2 Z" id="Path"></path>
</svg>
