<svg xmlns="http://www.w3.org/2000/svg" viewBox="0 0 32 32">
<path d="M18,14.5c-0.908,0-1.804,0.208-2.619,0.608c-0.248,0.121-0.351,0.421-0.229,0.669c0.007,0.014,0.015,0.028,0.023,0.042 c0.866,1.408,1.325,3.028,1.325,4.681c0,0.276,0.224,0.5,0.5,0.5h6.5c0.276,0,0.5-0.224,0.5-0.5C24,17.186,21.314,14.5,18,14.5z M17.944,6.5c2.071,0,3.75,1.679,3.75,3.75S20.015,14,17.944,14s-3.75-1.679-3.75-3.75S15.873,6.5,17.944,6.5z M7.5,3 c2.623,0,4.75,2.127,4.75,4.75S10.123,12.5,7.5,12.5s-4.75-2.127-4.75-4.75S4.877,3,7.5,3z M15,20.5c0-4.142-3.358-7.5-7.5-7.5 S0,16.358,0,20.5C0,20.776,0.224,21,0.5,21h14C14.776,21,15,20.776,15,20.5z" />	
</svg>
