<svg xmlns="http://www.w3.org/2000/svg" viewBox="0 0 16 18"><g fill-rule="evenodd"><g fill-rule="nonzero"><path d="M9.366 13.09a.904.904 0 00-1.092.656 3.24 3.24 0 11-5.36-3.149.9.9 0 00-1.231-1.314 5.04 5.04 0 108.338 4.896.9.9 0 00-.655-1.089z"/><path d="M14.702 14.052l-1.052.175a.36.36 0 01-.405-.255l-1.03-3.6a.899.899 0 00-1.012-.641c-.144.024-3.102.511-4.818.827a.36.36 0 01-.423-.316l-.11-1.04a.36.36 0 01.296-.392l3.275-.567a.9.9 0 10-.306-1.772l-3.112.538a.36.36 0 01-.42-.317l-.149-1.406a.36.36 0 01.15-.331 2.338 2.338 0 10-2.165.288.36.36 0 01.233.3l.583 5.508a1.62 1.62 0 001.919 1.383c.977-.192 2.976-.531 4.232-.742a.36.36 0 01.406.256l1.03 3.6a.9.9 0 00.865.652c.126 0 2.183-.351 2.308-.372a.9.9 0 00-.295-1.776z"/></g></g></svg>
