<svg xmlns="http://www.w3.org/2000/svg" viewBox="0 0 18 18"><path d="M17.83 11.46l-.805-1.446a1.125 1.125 0 00-.9-.45h-.188a.375.375 0 01-.375-.375v-.75c0-.207.168-.375.375-.375h.188a1.125 1.125 0 001.125-1.127V2.813c0-.62-.504-1.124-1.125-1.124h-.563a.375.375 0 01-.375-.375V.938a.938.938 0 00-1.875 0v.375a.375.375 0 01-.375.375H5.062a.375.375 0 01-.375-.375V.938a.938.938 0 00-1.875 0v.375a.375.375 0 01-.375.375h-.562C1.254 1.688.75 2.19.75 2.813v4.124c0 .622.504 1.125 1.125 1.125h.187c.208 0 .375.168.375.376v.75a.375.375 0 01-.375.374h-.187a1.145 1.145 0 00-.928.494l-.76 1.382a.937.937 0 00.75 1.5H1.7c.06 0 .115.027.15.074a.188.188 0 01.035.162l-.919 3.661a.938.938 0 001.819.456l1.017-4.07a.375.375 0 01.364-.284h9.67c.172 0 .322.118.363.285l1.017 4.069a.938.938 0 001.135.681.938.938 0 00.682-1.137l-.916-3.664a.188.188 0 01.034-.162.186.186 0 01.15-.075h.762A.939.939 0 0018 12a.95.95 0 00-.17-.54zM4.312 8.438c0-.207.168-.374.375-.374h8.625c.208 0 .375.167.375.374v.75a.375.375 0 01-.375.376H4.687a.375.375 0 01-.375-.376v-.75z" fill-rule="nonzero" /></svg>
