
<svg xmlns="http://www.w3.org/2000/svg" viewBox="0 0 16 19"><g stroke="#6B7885" fill="none" fill-rule="evenodd" stroke-linecap="round" stroke-linejoin="round"><path d="M3.497 17.41h-2c-.552 0-1-.474-1-1.058V2.587c0-.585.448-1.059 1-1.059h7.086c.266 0 .52.112.708.31l3.914 4.145c.187.198.292.468.292.749v3.267"/><path d="M13.497 6.822h-4c-.552 0-1-.474-1-1.059V1.528M5.497 17.41v-5.294M5.497 12.116H6c.828 0 1.5.711 1.5 1.588 0 .878-.672 1.589-1.5 1.589h-.5M9.497 17.41c1.105 0 2-.948 2-2.117v-1.06c0-1.169-.895-2.117-2-2.117v5.294zM13.497 17.41v-4.235c0-.585.448-1.059 1-1.059h1M13.497 15.293h1.5"/></g></svg>
