<svg xmlns="http://www.w3.org/2000/svg" viewBox="0 0 32 32"><g stroke="#707070" fill="none" fill-rule="evenodd" stroke-linecap="round" stroke-linejoin="round"><path d="M16.72 18.108l-4.715 1.887 1.887-4.715L26.148 3.024l2.828 2.828z"/><path d="M28.976 5.852l-2.828-2.828 1.415-1.415a2 2 0 112.828 2.828l-1.415 1.415zM13.892 15.28l2.828 2.828M26.148 3.024a2.715 2.715 0 00-3.839 0L19.333 6H18M30.391 1.609l.942-.942M12.005 19.995l-1.338 1.338"/><path d="M18 3.333H3.333A2.667 2.667 0 00.667 6v22.667a2.667 2.667 0 002.666 2.666H16L23.333 24v-8"/><path d="M16 31.333v-6c0-.736.597-1.333 1.333-1.333h6"/></g></svg>
