<svg viewBox="0 0 18 18" version="1.1" xmlns="http://www.w3.org/2000/svg" xmlns:xlink="http://www.w3.org/1999/xlink">
    <path d="M10.0446667,2.65733333 C9.98225171,2.59436827 9.89732437,2.55886192 9.80866667,2.55866667 L9.80866667,2.55866667 C9.72010497,2.55866667 9.63519122,2.59394623 9.57266667,2.65666667 L2.29133333,9.94 C2.16120602,10.0701666 2.16120602,10.2811667 2.29133333,10.4113333 L5.59,13.71 C5.72016662,13.8401273 5.93116672,13.8401273 6.06133333,13.71 L13.3393333,6.432 C13.469017,6.30191008 13.469017,6.09142325 13.3393333,5.96133333 L10.0446667,2.65733333 Z" id="Path"></path>
    <path d="M1.62,11.2 C1.53463221,11.1149149 1.40998205,11.0825415 1.294,11.1153333 C1.17783114,11.1479128 1.08833504,11.2407236 1.06,11.358 L0.056,15.5426667 C0.0290569297,15.6554235 0.0626344175,15.7740808 0.144666667,15.856 C0.227183826,15.9369966 0.345378844,15.9701918 0.458,15.944 L4.63933333,14.944 C4.75673943,14.9159021 4.84977795,14.8265207 4.88255889,14.7103351 C4.91533983,14.5941495 4.88273939,14.4693199 4.79733333,14.384 L1.62,11.2 Z" id="Path"></path>
    <path d="M15.4666667,1.94933333 L14.0513333,0.533333333 C13.4007299,-0.11597143 12.3472701,-0.11597143 11.6966667,0.533333333 L10.7513333,1.478 C10.621206,1.60816662 10.621206,1.81916672 10.7513333,1.94933333 L14.0513333,5.24866667 C14.1815,5.37879398 14.3925,5.37879398 14.5226667,5.24866667 L15.4666667,4.30266667 C16.1150848,3.65221708 16.1150848,2.59978292 15.4666667,1.94933333 Z" id="Path"></path>
</svg>
