<svg xmlns="http://www.w3.org/2000/svg" viewBox="0 0 17 18"><g fill-rule="evenodd"><path d="M16.222 15.943l-2.035-1.224a.18.18 0 01-.048-.266c.175-.22.271-.492.272-.773V9.345v-.03l-.36-4.275a2.16 2.16 0 00-2.16-2.16h-1.26a.18.18 0 01-.18-.18V1.62c0-.1.08-.18.18-.18h.9a.72.72 0 000-1.44h-6.48a.72.72 0 100 1.44h.9c.1 0 .18.08.18.18V2.7c0 .1-.08.18-.18.18h-1.26a2.148 2.148 0 00-2.16 2.1l-.36 4.335v4.365c0 .282.096.555.272.775a.18.18 0 01-.048.267L.36 15.946a.72.72 0 10.742 1.234l3.685-2.211a.184.184 0 01.093-.026h6.823c.032 0 .064.01.092.026l3.685 2.21a.72.72 0 10.742-1.233v-.003zM7.572 1.62c0-.1.08-.18.18-.18h1.08c.099 0 .18.08.18.18V2.7c0 .1-.081.18-.18.18h-1.08a.18.18 0 01-.18-.18V1.62zm-2.52 11.34a1.08 1.08 0 110-2.16 1.08 1.08 0 010 2.16zm6.48 0a1.08 1.08 0 110-2.16 1.08 1.08 0 010 2.16zm1.313-4.378a.18.18 0 01-.132.058H3.869a.18.18 0 01-.18-.194l.282-3.406a.72.72 0 01.72-.72h7.2a.74.74 0 01.72.78l.279 3.346c.005.05-.011.1-.045.136z" fill-rule="nonzero"/></g></svg>
