<svg xmlns="http://www.w3.org/2000/svg" viewBox="0 0 18 18"><g fill-rule="nonzero"><path d="M11.564 11.803v-1.48L9.52 13.928l2.044 3.605V16.02h2.608s.305.08.595-.45l2.398-4.137s-.338.37-.837.37h-4.764z"/><path d="M14.598 11.341l-2.283-3.954 3.675-2.122 1.755 3.038s.493 1.01 0 2.02c-.5 1.02-1.304 1.018-1.304 1.018h-1.843zM5.031 8.931l1.283.74L4.211 6.1.067 6.07l1.31.755-1.3 2.26s-.223.224.092.74l2.387 4.143s-.152-.477.097-.91l2.378-4.128z"/><path d="M3.917 11.79l4.566-.004.004 4.244-3.508.004c-.641 0-1.204-.272-1.75-1.009-.423-.572-.438-1.28-.232-1.638l.92-1.597zM10.806 4.664l-1.282.741 4.144-.034 2.099-3.574-1.31.757L13.153.297s-.084-.305-.689-.29L7.684 0s.489.107.739.54l2.383 4.124z"/><path d="M8.888 2.269L6.607 6.224 2.93 4.104l1.752-3.04S5.312.132 6.432.054c1.133-.079 1.534.619 1.534.619l.922 1.596z"/></g></svg>
