<svg fill="currentColor" xmlns="http://www.w3.org/2000/svg" viewBox="0 0 24 24"><path fill-rule="evenodd" clip-rule="evenodd" d="M12.11 5.4c-.68 0-1.344.239-1.843.683-.348.308-.597.7-.718 1.132H8.022a1.69 1.69 0 00-1.121.417c-.31.276-.501.666-.501 1.09v8.168c0 .424.19.814.501 1.09a1.69 1.69 0 001.121.417h8.176a1.69 1.69 0 001.121-.417c.31-.276.501-.666.501-1.09V8.722c0-.424-.19-.814-.5-1.09a1.69 1.69 0 00-1.122-.417h-1.526a2.376 2.376 0 00-.718-1.132A2.782 2.782 0 0012.11 5.4zm-1.047 1.58c.267-.237.643-.38 1.047-.38.405 0 .78.143 1.047.38.265.235.397.537.397.835a.6.6 0 00.6.6h2.044c.134 0 .25.048.325.114a.26.26 0 01.097.193v8.168a.261.261 0 01-.097.193.492.492 0 01-.325.114H8.022a.492.492 0 01-.324-.114.26.26 0 01-.098-.193V8.722a.26.26 0 01.098-.193.492.492 0 01.324-.114h2.044a.6.6 0 00.6-.6c0-.298.133-.6.397-.835zm3.689 4.37a.6.6 0 00-.96-.72l-2.35 3.13-1.07-.633a.6.6 0 10-.612 1.032l1.534.908a.6.6 0 00.785-.156l2.673-3.56z" /></svg>