<svg viewBox="0 0 32 32" fill="none" xmlns="http://www.w3.org/2000/svg">
    <g clip-path="url(#clip0)">
        <path d="M16.0223 32C7.1855 32 0 24.8591 0 16.0223C0 7.1855 7.1855 0 16.0223 0C24.8591 0 32.0446 7.1855 32.0446 16.0223C32 24.8591 24.8591 32 16.0223 32Z" fill="url(#paint0_radial)"/>
        <path d="M16.0224 8.79223C18.3878 8.79223 18.6556 8.79223 19.5482 8.83686C20.3962 8.88149 20.8871 9.01538 21.1995 9.14927C21.6012 9.32779 21.9136 9.50631 22.226 9.81873C22.5385 10.1311 22.717 10.3989 22.8955 10.8452C23.0294 11.1576 23.1633 11.6039 23.2079 12.4966C23.2079 13.3892 23.2079 13.6569 23.2079 16.0224C23.2079 18.3878 23.2079 18.6555 23.1633 19.5482C23.1186 20.3961 22.9848 20.8871 22.8509 21.1995C22.6723 21.6012 22.4938 21.9136 22.1814 22.226C21.869 22.5384 21.6012 22.7169 21.1549 22.8954C20.8425 23.0293 20.3962 23.1632 19.5036 23.2078C18.611 23.2078 18.3432 23.2078 16.0224 23.2078C13.657 23.2078 13.3892 23.2078 12.4966 23.1632C11.6486 23.1186 11.1577 22.9847 10.8453 22.8508C10.4436 22.6723 10.1312 22.4938 9.81879 22.1813C9.50637 21.8689 9.32785 21.6012 9.14933 21.1549C9.01544 20.8424 8.88155 20.3961 8.83692 19.5035C8.79229 18.5663 8.79229 18.2985 8.79229 15.9777C8.79229 13.6123 8.79229 13.3445 8.83692 12.4519C8.88155 11.6039 9.01544 11.113 9.14933 10.8006C9.32785 10.3989 9.50637 10.0865 9.81879 9.7741C10.1312 9.46168 10.399 9.28316 10.8453 9.10464C11.1577 8.97075 11.604 8.83686 12.4966 8.79223C13.3892 8.83686 13.657 8.79223 16.0224 8.79223ZM16.0224 7.23016C13.657 7.23016 13.3446 7.23016 12.4074 7.27479C11.4701 7.31942 10.8453 7.45332 10.2651 7.67647C9.6849 7.89962 9.19396 8.21203 8.70303 8.70297C8.21209 9.1939 7.89968 9.68484 7.67653 10.265C7.45338 10.8452 7.31948 11.4701 7.27485 12.4073C7.23022 13.3445 7.23022 13.6569 7.23022 16.0224C7.23022 18.3878 7.23022 18.7002 7.27485 19.6374C7.31948 20.5747 7.45338 21.1995 7.67653 21.7797C7.89968 22.3599 8.21209 22.8508 8.70303 23.3417C9.19396 23.8327 9.6849 24.1451 10.2651 24.3682C10.8453 24.5914 11.4701 24.7253 12.4074 24.7699C13.3446 24.8145 13.657 24.8145 16.0224 24.8145C18.3878 24.8145 18.7002 24.8145 19.6375 24.7699C20.5747 24.7253 21.1995 24.5914 21.7797 24.3682C22.3599 24.1451 22.8509 23.8327 23.3418 23.3417C23.8327 22.8508 24.1451 22.3599 24.3683 21.7797C24.5915 21.1995 24.7253 20.5747 24.77 19.6374C24.8146 18.7002 24.8146 18.3878 24.8146 16.0224C24.8146 13.6569 24.8146 13.3445 24.77 12.4073C24.7253 11.4701 24.5915 10.8452 24.3683 10.265C24.1451 9.68484 23.8327 9.1939 23.3418 8.70297C22.8509 8.21203 22.3599 7.89962 21.7797 7.67647C21.1995 7.45332 20.5747 7.31942 19.6375 7.27479C18.7002 7.23016 18.3878 7.23016 16.0224 7.23016Z" fill="white"/>
        <path d="M16.0223 11.5147C13.523 11.5147 11.5146 13.5231 11.5146 16.0224C11.5146 18.5217 13.523 20.5301 16.0223 20.5301C18.477 20.5301 20.53 18.4771 20.53 16.0224C20.53 13.5231 18.477 11.5147 16.0223 11.5147ZM16.0223 18.9234C14.4156 18.9234 13.0767 17.6291 13.0767 15.9778C13.0767 14.3711 14.371 13.0321 16.0223 13.0321C17.629 13.0321 18.9679 14.3264 18.9679 15.9778C18.9233 17.6291 17.629 18.9234 16.0223 18.9234Z" fill="white"/>
        <path d="M21.735 11.3361C21.735 11.9163 21.2441 12.4073 20.6639 12.4073C20.0837 12.4073 19.5928 11.9163 19.5928 11.3361C19.5928 10.7559 20.0837 10.265 20.6639 10.265C21.2887 10.265 21.735 10.7559 21.735 11.3361Z" fill="white"/>
    </g>
    <defs>
        <radialGradient id="paint0_radial" cx="0" cy="0" r="1" gradientUnits="userSpaceOnUse" gradientTransform="translate(-0.800982 32.1182) scale(59.1868)">
            <stop stop-color="#F5EC53"/>
            <stop offset="0.2412" stop-color="#E48244"/>
            <stop offset="0.3974" stop-color="#D15767"/>
            <stop offset="0.4888" stop-color="#C84278"/>
            <stop offset="1" stop-color="#192CFA"/>
        </radialGradient>
        <clipPath id="clip0">
            <rect width="32" height="32" fill="white"/>
        </clipPath>
    </defs>
</svg>
