<svg viewBox="0 0 32 32" fill="none" xmlns="http://www.w3.org/2000/svg">
    <path d="M16.0223 32C7.1855 32 0 24.8591 0 16.0223C0 7.1855 7.1855 0 16.0223 0C24.8591 0 32.0446 7.1855 32.0446 16.0223C32 24.8591 24.8591 32 16.0223 32Z" fill="#29A9E1"/>
    <path d="M7.4978 21.3781C9.05987 22.3599 10.8897 22.9401 12.8535 22.9401C19.3695 22.9401 23.0292 17.4506 22.806 12.5412C23.4755 12.0503 24.1003 11.4255 24.5466 10.7114C23.9218 10.9792 23.2523 11.1577 22.5383 11.2469C23.2523 10.8006 23.8325 10.1312 24.0557 9.32784C23.3862 9.72951 22.6275 10.0419 21.8242 10.1758C21.1993 9.50636 20.2621 9.06006 19.2802 9.06006C17.0041 9.06006 15.3528 11.1577 15.8883 13.3446C12.9873 13.2107 10.3988 11.8271 8.65819 9.68489C7.72095 11.2469 8.16726 13.2999 9.72932 14.3711C9.14913 14.3711 8.61356 14.1926 8.12263 13.9248C8.078 15.5315 9.23839 17.0489 10.9343 17.4059C10.4434 17.5398 9.90785 17.5845 9.37228 17.4506C9.81858 18.8341 11.1129 19.8606 12.6303 19.8606C11.2021 21.0656 9.32765 21.6012 7.4978 21.3781Z" fill="white"/>
</svg>
