<svg viewBox="0 0 32 32" fill="none" xmlns="http://www.w3.org/2000/svg">
    <path d="M32 16C32 7.1532 24.8468 0 16 0C7.1532 0 0 7.1532 0 16C0 24.8468 7.1532 32 16 32C24.8468 32 32 24.8468 32 16Z" fill="#AFAFAF"/>
    <path d="M32 16C32 7.1532 24.8468 0 16 0C7.1532 0 0 7.1532 0 16C0 24.8468 7.1532 32 16 32C24.8468 32 32 24.8468 32 16Z" fill="#D40C18"/>
    <path d="M20.1004 21.9053H11.9221C9.7383 21.9053 7.95557 20.1226 7.95557 17.9387V14.0613C7.95557 11.8775 9.7383 10.0947 11.9221 10.0947H20.1004C22.2843 10.0947 24.067 11.8775 24.067 14.0613V17.9387C24.0447 20.1449 22.2843 21.9053 20.1004 21.9053Z" fill="white"/>
    <path d="M19.2757 16.0449L13.9053 18.9418C13.727 19.0309 13.5042 18.9195 13.5042 18.6967V12.8582C13.5042 12.6577 13.727 12.524 13.9053 12.6131L19.2757 15.5323C19.454 15.666 19.454 15.9334 19.2757 16.0449Z" fill="#DB0C0B"/>
</svg>
