<svg fill="currentColor" xmlns="http://www.w3.org/2000/svg" viewBox="0 0 24 24"><path fill-rule="evenodd" clip-rule="evenodd" d="M17.337 5.444a1.637 1.637 0 00-.894.04L6.517 8.792h-.001a1.637 1.637 0 00-.64 2.708h.001l2.348 2.351-.079 2.94a.6.6 0 00.877.55l1.771-.921 1.703 1.7a1.638 1.638 0 002.711-.64l3.306-9.925a1.637 1.637 0 00-1.177-2.111zM15.91 6.926L6.898 9.93a.44.44 0 00-.281.534c.02.071.058.137.11.19l2.142 2.143 7.042-5.87zm-6.486 6.97l-.052 1.91 1.257-.654a.6.6 0 01.701.108l2.014 2.011a.438.438 0 00.725-.17l3.263-9.797-7.908 6.592z" /></svg>