<svg xmlns="http://www.w3.org/2000/svg" viewBox="0 0 32 32">
<path d="M27.333 12a2.666 2.666 0 00-2.666-2.667h-4.334a.333.333 0 00-.333.334v2c0 .184.15.333.333.333H24c.368 0 .667.299.667.667v16a.667.667 0 01-.667.666H8a.667.667 0 01-.667-.666v-16c0-.368.299-.667.667-.667h3.667c.184 0 .333-.15.333-.333V9.665a.333.333 0 00-.335-.332H7.334A2.666 2.666 0 004.666 12v17.333A2.666 2.666 0 007.333 32h17.334a2.666 2.666 0 002.666-2.667V12zM14 14.667a2 2 0 004 0V7.665c0-.184.15-.333.333-.333h2.334a1.334 1.334 0 00.933-2.276L16.933.389a1.334 1.334 0 00-1.885 0l-4.667 4.667a1.333 1.333 0 00.952 2.277h2.334c.184 0 .333.15.333.334v7z" /></svg>
