<svg xmlns="http://www.w3.org/2000/svg" viewBox="0 0 18 18"><g fill-rule="evenodd"><g fill-rule="nonzero"><path d="M8.518 15.9l.844-4.5a2.25 2.25 0 011.48-1.712.189.189 0 00.125-.157A2.595 2.595 0 0112 7.754a.188.188 0 00.075-.15v-.988a1.212 1.212 0 00-1.239-1.178h-.45a.187.187 0 00-.188.187v.938a.563.563 0 01-1.125 0v-3a3 3 0 10-6 0v3a.563.563 0 01-1.125 0v-.938a.188.188 0 00-.187-.188h-.45A1.212 1.212 0 00.075 6.617v9.643a1.212 1.212 0 001.242 1.178h7.162a.187.187 0 00.174-.259 2.243 2.243 0 01-.135-1.278zM4.575 3.562a1.5 1.5 0 013 0V5.25a.188.188 0 01-.188.188H4.764a.188.188 0 01-.188-.188V3.562z"/><path d="M17.06 11.605a1.125 1.125 0 00-1.106-.918h-.129a.187.187 0 01-.188-.187v-.694a1.795 1.795 0 00-1.875-1.697 1.795 1.795 0 00-1.875 1.697v.694a.187.187 0 01-.187.188h-.127c-.542 0-1.006.385-1.106.917l-.844 4.5a1.125 1.125 0 001.106 1.333H16.8a1.125 1.125 0 001.106-1.332l-.846-4.5zm-3.296-2.371c.407 0 .75.262.75.572v.694a.187.187 0 01-.188.188H13.2a.187.187 0 01-.188-.188v-.694c.002-.31.345-.572.752-.572z"/></g></g></svg>
