<svg xmlns="http://www.w3.org/2000/svg" viewBox="0 0 24 24"><title>small-caps</title><path d="M10.25,19.748H9a.25.25,0,0,1-.25-.25V4.5A.25.25,0,0,1,9,4.248h3.792a.458.458,0,0,1,.458.458V6.248a1,1,0,1,0,2,0V4.706a2.461,2.461,0,0,0-2.458-2.458H2.708A2.461,2.461,0,0,0,.25,4.706V6.248a1,1,0,0,0,2,0V4.706a.458.458,0,0,1,.458-.458H6.5a.25.25,0,0,1,.25.25v15a.25.25,0,0,1-.25.25H5.25a1,1,0,0,0,0,2h5a1,1,0,0,0,0-2Z"/><path d="M23.75,10.748a2,2,0,0,0-2-2h-7a2,2,0,0,0-2,2v1a1,1,0,0,0,2,0V11a.25.25,0,0,1,.25-.25h2a.25.25,0,0,1,.25.25v8.5a.25.25,0,0,1-.25.25h-.75a1,1,0,0,0,0,2h4a1,1,0,0,0,0-2H19.5a.25.25,0,0,1-.25-.25V11a.25.25,0,0,1,.25-.25h2a.25.25,0,0,1,.25.25v.75a1,1,0,0,0,2,0Z"/></svg>