<svg viewBox="0 0 18 18" version="1.1" xmlns="http://www.w3.org/2000/svg" xmlns:xlink="http://www.w3.org/1999/xlink">
    <g id="office-stamp-document" stroke="none" stroke-width="1" fill="none" fill-rule="evenodd" stroke-linecap="round" stroke-linejoin="round">
        <g id="office-stamp-document-copy" stroke="#6C757D">
            <path d="M4.875,4.875 L4.875,1.125 C4.875,0.710786438 5.21078644,0.375 5.625,0.375 L13.125,0.375 L17.625,4.875 L17.625,16.875 C17.625,17.2892136 17.2892136,17.625 16.875,17.625 L11.625,17.625" id="Path"></path>
            <path d="M13.125,0.375 L13.125,4.125 C13.125,4.53921356 13.4607864,4.875 13.875,4.875 L17.625,4.875" id="Path"></path>
            <path d="M1.125,15.375 L10.125,15.375 L10.125,16.875 C10.125,17.2892136 9.78921356,17.625 9.375,17.625 L1.875,17.625 C1.46078644,17.625 1.125,17.2892136 1.125,16.875 L1.125,15.375 Z" id="Path"></path>
            <path d="M7.875,13.125 C7.06298464,13.1253298 6.39814237,12.4794356 6.375,11.66775 L6.375,11.66775 C6.36125688,11.1806308 6.58500427,10.717194 6.975,10.425 C7.74977473,9.84391895 8.06579402,8.83225734 7.75953742,7.91348753 C7.45328082,6.99471771 6.59346842,6.375 5.625,6.375 C4.65653158,6.375 3.79671918,6.99471771 3.49046258,7.91348753 C3.18420598,8.83225734 3.50022527,9.84391895 4.275,10.425 C4.66368064,10.7179402 4.88711086,11.1804407 4.875,11.667 L4.875,11.667 C4.8522557,12.4789801 4.18729847,13.1253185 3.375,13.125 L1.875,13.125 C1.04657288,13.125 0.375,13.7965729 0.375,14.625 C0.375,15.0392136 0.710786438,15.375 1.125,15.375 L10.125,15.375 C10.5392136,15.375 10.875,15.0392136 10.875,14.625 C10.875,13.7965729 10.2034271,13.125 9.375,13.125 L7.875,13.125 Z" id="Path"></path>
            <line x1="15.75" y1="7.87425" x2="9.75" y2="7.87425" id="Path"></line>
            <line x1="15.75" y1="13.87425" x2="12.75" y2="13.87425" id="Path"></line>
            <line x1="15.75" y1="10.87425" x2="10.875" y2="10.87425" id="Path"></line>
        </g>
    </g>
</svg>
