<svg viewBox="0 0 64 64" fill="none" xmlns="http://www.w3.org/2000/svg">
<path d="M21.9565 21.9565V12.8261C21.9565 12.3418 22.1489 11.8773 22.4914 11.5348C22.8338 11.1924 23.2983 11 23.7826 11H42.0435L53 21.9565V51.1739C53 51.6582 52.8076 52.1227 52.4652 52.4652C52.1227 52.8076 51.6582 53 51.1739 53H38.3913" stroke="#85919D" stroke-width="2" stroke-linecap="round" stroke-linejoin="round"/>
<path d="M42.0435 11V20.1304C42.0435 20.6147 42.2358 21.0792 42.5783 21.4217C42.9208 21.7641 43.3852 21.9565 43.8695 21.9565H53" stroke="#85919D" stroke-width="2" stroke-linecap="round" stroke-linejoin="round"/>
<path d="M12.8263 47.5217H34.7393V51.1739C34.7393 51.6582 34.5469 52.1227 34.2045 52.4651C33.862 52.8076 33.3976 53 32.9132 53H14.6524C14.1681 53 13.7036 52.8076 13.3611 52.4651C13.0187 52.1227 12.8263 51.6582 12.8263 51.1739V47.5217Z" stroke="#85919D" stroke-width="2" stroke-linecap="round" stroke-linejoin="round"/>
<path d="M29.2609 42.0434C28.31 42.0438 27.3965 41.6733 26.7145 41.0108C26.0325 40.3482 25.6358 39.4458 25.6087 38.4953V38.4953C25.5922 37.9109 25.7163 37.331 25.9705 36.8045C26.2247 36.2779 26.6016 35.8201 27.0696 35.4695C27.9894 34.7796 28.6689 33.8178 29.0117 32.7203C29.3545 31.6229 29.3433 30.4453 28.9797 29.3545C28.6161 28.2637 27.9186 27.315 26.9858 26.6427C26.053 25.9704 24.9324 25.6086 23.7826 25.6086C22.6328 25.6086 21.5122 25.9704 20.5794 26.6427C19.6467 27.315 18.9491 28.2637 18.5855 29.3545C18.2219 30.4453 18.2107 31.6229 18.5535 32.7203C18.8964 33.8178 19.5758 34.7796 20.4957 35.4695C20.9621 35.8211 21.338 36.2788 21.592 36.8047C21.8461 37.3307 21.9711 37.9096 21.9565 38.4935V38.4935C21.9299 39.4443 21.5334 40.3472 20.8513 41.0101C20.1693 41.6731 19.2555 42.0438 18.3043 42.0434H14.6522C13.6836 42.0434 12.7546 42.4282 12.0697 43.1131C11.3848 43.798 11 44.727 11 45.6956C11 46.1799 11.1924 46.6444 11.5348 46.9868C11.8773 47.3293 12.3418 47.5217 12.8261 47.5217H34.7391C35.2234 47.5217 35.6879 47.3293 36.0304 46.9868C36.3728 46.6444 36.5652 46.1799 36.5652 45.6956C36.5652 44.727 36.1804 43.798 35.4955 43.1131C34.8106 42.4282 33.8817 42.0434 32.913 42.0434H29.2609Z" stroke="#85919D" stroke-width="2" stroke-linecap="round" stroke-linejoin="round"/>
<path d="M48.435 29.259H33.8263" stroke="#85919D" stroke-width="2" stroke-linecap="round" stroke-linejoin="round"/>
<path d="M48.4346 43.8679H41.1302" stroke="#85919D" stroke-width="2" stroke-linecap="round" stroke-linejoin="round"/>
<path d="M48.4348 36.5635H36.5652" stroke="#85919D" stroke-width="2" stroke-linecap="round" stroke-linejoin="round"/>
</svg>
