<svg xmlns="http://www.w3.org/2000/svg" viewBox="0 0 8 8" fill="currentColor"><g><path d="M4.825 5.546c0-.29.235-.525.525-.525h1.575A.075.075 0 007 4.946V2.104a.6.6 0 00-.6-.6h-.229a.075.075 0 00-.057.026 1.196 1.196 0 01-1.184.394.075.075 0 00-.07.02l-.885.885a.6.6 0 01-.85-.849l.348-.348a.075.075 0 00-.053-.128H1.6a.6.6 0 00-.6.6v4.492a.6.6 0 00.6.6h3.15a.075.075 0 00.075-.075V5.546zM2.05 5.404c0-.125.1-.225.225-.225h1.5a.225.225 0 110 .45h-1.5a.225.225 0 01-.225-.225zm3.675-1.725a.225.225 0 110 .45h-3.45a.225.225 0 110-.45h3.45z"/><path d="M5.35 5.471a.076.076 0 00-.075.075v1.525a.075.075 0 00.092.073c.386-.087.74-.282 1.02-.56.28-.28.476-.634.562-1.02a.074.074 0 00-.074-.092H5.35zM3.338 2.192a.3.3 0 10.424.424l1.13-1.13c.02-.02.05-.028.077-.019a.75.75 0 10-.482-.482.075.075 0 01-.019.076l-1.13 1.13z"/></g></svg>
