<svg xmlns="http://www.w3.org/2000/svg" viewBox="0 0 24 24"><g><path d="M22 6.513a2 2 0 00-2-2h-1a1 1 0 000 2h.5a.5.5 0 01.5.5v9.474a.25.25 0 01-.25.25H16.5a1.752 1.752 0 00-1.75 1.75v3.25a.25.25 0 01-.25.25h-10a.5.5 0 01-.5-.5V7.013a.5.5 0 01.5-.5H8a1 1 0 100-2H4a2 2 0 00-2 2v15.474a2 2 0 002 2h11.025a7.02 7.02 0 004.932-2.043A6.93 6.93 0 0022 17.013v-10.5zm-5.422 15.223a.25.25 0 01-.328-.237v-3.012a.253.253 0 01.25-.25h3.016c.079 0 .153.037.2.1.047.065.06.148.035.224a4.974 4.974 0 01-3.176 3.171l.003.004z"/><path d="M8.793 8.306a1 1 0 101.414 1.414l4.768-4.769a.251.251 0 01.254-.061 2.5 2.5 0 10-1.607-1.607c.03.09.006.188-.061.254L8.793 8.306zM17.75 13.013a.75.75 0 00-.75-.75H7a.75.75 0 100 1.5h10a.75.75 0 00.75-.75zM7 17.263a.75.75 0 100 1.5h4.25a.75.75 0 100-1.5H7z"/></g></svg>
