<svg width="8px" height="8px" viewBox="0 0 8 8" version="1.1" xmlns="http://www.w3.org/2000/svg" xmlns:xlink="http://www.w3.org/1999/xlink">
    <path d="M3.825,5.5461 C3.82533065,5.25628758 4.06018758,5.02143065 4.35,5.0211 L5.925,5.0211 C5.96642136,5.0211 6,4.98752136 6,4.9461 L6,2.1036 C6,1.77222915 5.73137085,1.50359979 5.4,1.50359979 L5.1714,1.50359979 C5.14934762,1.50359979 5.12838992,1.51320392 5.1141,1.53 C4.88660277,1.79886367 4.55219684,1.9538296 4.2,1.9536 C4.10914924,1.95395168 4.01855769,1.94388595 3.93,1.9236 C3.90479446,1.91785698 3.87840494,1.92544538 3.8601,1.9437 L2.9751,2.8287 C2.74073796,3.06322771 2.36062772,3.06336202 2.12610001,2.82899999 C1.89157229,2.59463796 1.89143797,2.21452772 2.1258,1.98 L2.4735,1.6323 C2.49500653,1.61084787 2.50144952,1.57854158 2.48981765,1.55048051 C2.47818577,1.52241943 2.45077633,1.50414565 2.4204,1.5042 L0.6,1.5042 C0.26862915,1.5042 0,1.77282915 0,2.1042 L0,6.5961 C0,6.92747085 0.26862915,7.1961 0.6,7.1961 L3.75,7.1961 C3.79142136,7.1961 3.825,7.16252136 3.825,7.1211 L3.825,5.5461 Z M1.05,5.4036 C1.05,5.27933593 1.15073593,5.1786 1.275,5.1786 L2.775,5.1786 C2.89926407,5.1786 3,5.27933593 3,5.4036 C3,5.52786407 2.89926407,5.6286 2.775,5.6286 L1.275,5.6286 C1.15073593,5.6286 1.05,5.52786407 1.05,5.4036 Z M4.725,3.6786 C4.84926407,3.6786 4.95,3.77933593 4.95,3.9036 C4.95,4.02786407 4.84926407,4.1286 4.725,4.1286 L1.275,4.1286 C1.15073593,4.1286 1.05,4.02786407 1.05,3.9036 C1.05,3.77933593 1.15073593,3.6786 1.275,3.6786 L4.725,3.6786 Z" id="Shape"></path>
    <path d="M4.35,5.4711 C4.3087816,5.47158593 4.27548593,5.5048816 4.27499993,5.5461 L4.27499993,7.071 C4.27496774,7.09386285 4.28536565,7.11549189 4.30324134,7.1297457 C4.32111702,7.14399951 4.34451809,7.14932131 4.3668,7.1442 C4.75273835,7.05670262 5.10623254,6.86228081 5.3868,6.5832 C5.66775709,6.30381633 5.86293425,5.94989508 5.9493,5.5632 C5.95434718,5.54110286 5.94904599,5.51791013 5.9349,5.5002 C5.92036574,5.48199087 5.89819447,5.47157038 5.8749,5.472 L4.35,5.4711 Z" id="Path"></path>
    <path d="M2.3379,2.1915 C2.25991302,2.26682234 2.22863622,2.37836337 2.25609085,2.4832522 C2.28354549,2.58814103 2.36545897,2.67005451 2.4703478,2.69750915 C2.57523663,2.72496378 2.68677766,2.69368698 2.7621,2.6157 L3.8925,1.4853 C3.91240451,1.46529678 3.94188237,1.45821745 3.9687,1.467 C4.29848187,1.57393259 4.65857719,1.44090118 4.83963052,1.14524875 C5.02068384,0.849596328 4.97550573,0.468381255 4.73036224,0.223237762 C4.48521875,-0.0219057306 4.10400367,-0.0670838412 3.80835125,0.113969484 C3.51269882,0.295022809 3.37966741,0.655118126 3.4866,0.9849 C3.49538255,1.01171763 3.48830322,1.04119549 3.4683,1.0611 L2.3379,2.1915 Z" id="Path"></path>
</svg>
