<svg xmlns="http://www.w3.org/2000/svg" viewBox="0 0 12 18"><g fill-rule="evenodd"><path d="M9.275 10.299a.28.28 0 01.23-.442.857.857 0 00.723-1.317L8.181 5.322a.215.215 0 01.07-.3.857.857 0 00.298-1.178L6.368.207a.446.446 0 00-.736 0L3.451 3.844a.857.857 0 00.297 1.179.215.215 0 01.071.299L1.771 8.541a.857.857 0 00.724 1.316.28.28 0 01.23.442L.978 12.795a.857.857 0 00.702 1.348h3.034c.237 0 .429.192.429.428v2.572a.857.857 0 101.714 0V14.57c0-.236.192-.428.429-.428h3.033a.857.857 0 00.703-1.348l-1.747-2.496z" fill-rule="nonzero"/></g></svg>
