<svg viewBox="0 0 8 8" version="1.1" xmlns="http://www.w3.org/2000/svg" xmlns:xlink="http://www.w3.org/1999/xlink">
    <path d="M4.38316203,4.029387 C4.37532588,4.02157062 4.3709219,4.01095747 4.3709219,3.99988945 C4.3709219,3.98882143 4.37532588,3.97820827 4.38316203,3.9703919 L5.926867,2.42685359 C6.02447521,2.32910731 6.02436329,2.17074122 5.92661702,2.07313301 C5.82887074,1.97552479 5.67050465,1.97563671 5.57289643,2.07338298 L4.02935812,3.61625468 C4.02154175,3.62409084 4.01092859,3.62849481 3.99986057,3.62849481 C3.98879255,3.62849481 3.9781794,3.62409084 3.97036303,3.61625468 L2.42682471,2.07338298 C2.3292165,1.97572875 2.17092501,1.97569144 2.07327078,2.07329965 C1.97561655,2.17090787 1.97557924,2.32919936 2.07318745,2.42685359 L3.61655911,3.9703919 C3.62439527,3.97820827 3.62879924,3.98882143 3.62879924,3.99988945 C3.62879924,4.01095747 3.62439527,4.02157062 3.61655911,4.029387 L2.07318745,5.57309196 C2.01004601,5.63626317 1.98540235,5.72832134 2.0085395,5.81458904 C2.03167666,5.90085674 2.09907954,5.96822786 2.18535813,5.99132434 C2.27163673,6.01442083 2.36368327,5.98973378 2.42682471,5.92656257 L3.97036303,4.3828576 C3.9781794,4.37502145 3.98879255,4.37061747 3.99986057,4.37061747 C4.01092859,4.37061747 4.02154175,4.37502145 4.02935812,4.3828576 L5.57289643,5.92656257 C5.67050465,6.0242168 5.82879613,6.0242541 5.92645036,5.92664589 C6.0241046,5.82903768 6.0241419,5.6707462 5.92653369,5.57309196 L4.38316203,4.029387 Z" id="Path-Copy" stroke="#FFFFFF" stroke-width="0.5" fill="#FFFFFF"></path>
</svg>
