<svg viewBox="0 0 48 48" fill="none" xmlns="http://www.w3.org/2000/svg">
<g clip-path="url(#clip0)">
<path d="M2.78611 12.788C2.59509 12.9725 2.44273 13.1932 2.33791 13.4372C2.23309 13.6812 2.17792 13.9436 2.17561 14.2092C2.1733 14.4748 2.22391 14.7381 2.32447 14.9839C2.42503 15.2297 2.57354 15.453 2.76132 15.6408C2.94911 15.8286 3.17241 15.9771 3.41821 16.0776C3.664 16.1782 3.92736 16.2288 4.19292 16.2265C4.45847 16.2242 4.72091 16.169 4.96492 16.0642C5.20893 15.9594 5.42962 15.807 5.61411 15.616C8.54146 12.693 12.1246 10.5114 16.0653 9.25275C20.0061 7.99414 24.1904 7.69492 28.2701 8.38C28.608 8.44009 28.9557 8.41223 29.2796 8.29909C29.6036 8.18595 29.8931 7.99135 30.1201 7.734L30.1321 7.72C30.3638 7.4536 30.5209 7.13061 30.5873 6.78386C30.6537 6.43711 30.6272 6.07895 30.5104 5.74577C30.3936 5.4126 30.1906 5.11628 29.9222 4.88693C29.6538 4.65759 29.3294 4.50339 28.9821 4.44C24.2664 3.64094 19.4279 3.98177 14.8707 5.43402C10.3136 6.88627 6.17003 9.40779 2.78611 12.788V12.788Z" />
<path d="M42.3862 15.616C42.7634 15.9803 43.2686 16.1819 43.793 16.1773C44.3173 16.1728 44.819 15.9624 45.1898 15.5916C45.5606 15.2208 45.7709 14.7192 45.7755 14.1948C45.7801 13.6704 45.5785 13.1652 45.2141 12.788C45.0641 12.638 44.9121 12.492 44.7601 12.346C44.3758 11.98 43.8619 11.7816 43.3314 11.7946C42.8008 11.8075 42.2971 12.0307 41.9311 12.415C41.5652 12.7993 41.3668 13.3132 41.3797 13.8438C41.3927 14.3743 41.6159 14.878 42.0001 15.244C42.1321 15.366 42.2602 15.49 42.3862 15.616Z" />
<path d="M21.494 17.722C21.7663 17.4074 21.9336 17.0158 21.9728 16.6016C22.012 16.1874 21.921 15.7713 21.7126 15.4113C21.5042 15.0512 21.1887 14.7651 20.81 14.5928C20.4314 14.4205 20.0084 14.3706 19.6 14.45C16.0999 15.1557 12.8263 16.7091 10.066 18.974C9.50603 19.4367 8.96603 19.9267 8.44603 20.444C8.25501 20.6285 8.10264 20.8492 7.99782 21.0932C7.893 21.3372 7.83783 21.5996 7.83552 21.8652C7.83322 22.1308 7.88382 22.3941 7.98438 22.6399C8.08494 22.8857 8.23345 23.109 8.42124 23.2968C8.60902 23.4846 8.83232 23.6331 9.07812 23.7336C9.32391 23.8342 9.58727 23.8848 9.85283 23.8825C10.1184 23.8802 10.3808 23.825 10.6248 23.7202C10.8688 23.6154 11.0895 23.463 11.274 23.272C13.7556 20.7854 16.9154 19.0858 20.358 18.386C20.7899 18.3029 21.1819 18.0785 21.472 17.748L21.494 17.722Z" />
<path d="M35.6701 19.666C35.4991 19.868 35.3696 20.1018 35.289 20.3539C35.2084 20.606 35.1783 20.8716 35.2004 21.1353C35.2225 21.3991 35.2964 21.6559 35.4178 21.8911C35.5392 22.1263 35.7058 22.3352 35.9081 22.506C36.1901 22.752 36.4641 23.006 36.7301 23.272C37.1073 23.6363 37.6125 23.8379 38.1369 23.8333C38.6613 23.8288 39.1629 23.6184 39.5337 23.2476C39.9045 22.8768 40.1149 22.3752 40.1194 21.8508C40.124 21.3264 39.9224 20.8212 39.5581 20.444C39.2061 20.092 38.8401 19.758 38.4661 19.444C38.0628 19.1066 37.5429 18.9415 37.0189 18.9846C36.4949 19.0276 36.0089 19.2753 35.6661 19.674L35.6701 19.666Z" />
<path d="M29.4162 26.908C29.2344 27.1202 29.0992 27.3682 29.0191 27.636C28.9391 27.9037 28.916 28.1852 28.9514 28.4624C28.9869 28.7396 29.08 29.0063 29.2248 29.2453C29.3696 29.4843 29.5629 29.6903 29.7922 29.85C30.2535 30.1668 30.6829 30.5279 31.0742 30.928C31.4495 31.303 31.9584 31.5136 32.4889 31.5134C33.0194 31.5132 33.5282 31.3023 33.9032 30.927C34.2782 30.5517 34.4888 30.0428 34.4886 29.5123C34.4884 28.9817 34.2775 28.473 33.9022 28.098C33.3499 27.5472 32.7533 27.0428 32.1182 26.59C31.7093 26.2975 31.206 26.168 30.7067 26.2268C30.2074 26.2856 29.7479 26.5285 29.4182 26.908H29.4162Z" />
<path d="M20 40C20 41.0609 20.4214 42.0783 21.1716 42.8284C21.9217 43.5786 22.9391 44 24 44C25.0609 44 26.0783 43.5786 26.8284 42.8284C27.5786 42.0783 28 41.0609 28 40C28 38.9391 27.5786 37.9217 26.8284 37.1716C26.0783 36.4214 25.0609 36 24 36C22.9391 36 21.9217 36.4214 21.1716 37.1716C20.4214 37.9217 20 38.9391 20 40Z" />
<path d="M44.3082 0.485994C43.9077 0.138801 43.3856 -0.035157 42.8568 0.00234483C42.3281 0.0398466 41.8358 0.28574 41.4882 0.685994L3.48823 44.686C3.30867 44.8835 3.17046 45.1149 3.08173 45.3667C2.99301 45.6184 2.95558 45.8854 2.97164 46.1518C2.98771 46.4182 3.05694 46.6788 3.17526 46.918C3.29359 47.1573 3.45861 47.3704 3.6606 47.5449C3.86259 47.7194 4.09746 47.8517 4.35138 47.934C4.60529 48.0163 4.87312 48.0469 5.13906 48.0241C5.405 48.0013 5.66368 47.9255 5.89986 47.8011C6.13604 47.6767 6.34493 47.5064 6.51424 47.3L44.5142 3.29999C44.8588 2.89897 45.0306 2.37781 44.992 1.85048C44.9534 1.32314 44.7076 0.832552 44.3082 0.485994V0.485994Z" />
</g>
<defs>
<clipPath id="clip0">
<rect width="48" height="48" fill="white"/>
</clipPath>
</defs>
</svg>
