<?xml version="1.0" encoding="UTF-8"?>
<svg width="260px" height="83px" viewBox="0 0 260 83" version="1.1" xmlns="http://www.w3.org/2000/svg" xmlns:xlink="http://www.w3.org/1999/xlink">
    <!-- Generator: Sketch 57.1 (83088) - https://sketch.com -->
    <title>visuel-scolarité</title>
    <desc>Created with Sketch.</desc>
    <defs>
        <rect id="path-1" x="0" y="0" width="260" height="83"></rect>
    </defs>
    <g id="Page-dépôt-boites-à-idées" stroke="none" stroke-width="1" fill="none" fill-rule="evenodd">
        <g id="visuel-scolarité">
            <mask id="mask-2" fill="white">
                <use xlink:href="#path-1"></use>
            </mask>
            <use id="Rectangle" fill="#D3D3D3" xlink:href="#path-1"></use>
            <g id="Group-5" mask="url(#mask-2)">
                <g transform="translate(-23.000000, -30.000000)" id="Group-16">
                    <g>
                        <g id="Group-5">
                            <path d="M15.420766,1.41555821 C46.4205389,-2.81367365 77.2819274,3.48614153 108.004932,20.3150037 C121.686614,27.8092951 199.172444,19.5956699 218.791824,25.4733323 C265.257115,39.3936133 255.376835,63.5728834 286.371058,63.5728834 L173.644593,65.1414826 L15.420766,65.1414826 L15.420766,1.41555821 Z" id="Path-2" fill="#D4DBF1" transform="translate(150.895912, 32.641483) scale(-1, 1) translate(-150.895912, -32.641483) "></path>
                            <path d="M3.8661774,28.795025 C29.9162027,16.2875649 57.5527886,17.5697174 86.775935,32.6414826 C108.998494,44.1027121 184.082924,53.2212901 208.631222,59.7265324 C232.505241,66.0530922 249.266344,85.1414826 271,85.1414826 L127.653632,85.1414826 L4.54747351e-13,85.1414826 L3.8661774,28.795025 Z" id="Path-2" fill="#BEC4D9"></path>
                            <path d="M15.420766,48.265018 C35.5748647,44.2886935 61.0134161,50.8668808 91.7364203,67.9995798 C105.418102,75.6291769 180.65644,74.1577019 200.275821,80.1414826 C246.741112,94.3130875 255.376835,111.544563 286.371058,111.544563 L173.644593,113.141483 L15.420766,113.141483 L15.420766,48.265018 Z" id="Path-2" fill="#A6ACC2" transform="translate(150.895912, 80.141483) scale(-1, 1) translate(-150.895912, -80.141483) "></path>
                            <path d="M3.8661774,64.0877991 C29.2806209,60.3691468 56.5994159,66.0065471 85.8225623,81 C108.045121,92.4016773 189.165429,94.0611152 213.713728,100.532557 C237.587746,106.826244 270.808151,120.141483 292.541808,120.141483 L127.653632,120.141483 L0,120.141483 L3.8661774,64.0877991 Z" id="Path-2" fill="#9298AF"></path>
                        </g>
                        <g id="mortarboard" opacity="0.800478981" transform="translate(124.000000, 57.000000)" fill="#FFFFFF" fill-rule="nonzero">
                            <path d="M57.4705053,8.73341695 L29.7604732,0.0400703297 L29.7604732,0.0400703297 C29.5908961,-0.0131780611 29.4090768,-0.0132011448 29.2394862,0.0400041856 L1.52948604,8.73340725 C1.00252587,8.89872941 0.709360337,9.45993514 0.874682502,9.98689531 C0.962156158,10.2657154 1.16721154,10.4923235 1.43593154,10.6071356 L10.2119993,14.3567593 L10.2119993,14.3567593 L10.2119993,18.9695457 C9.23687697,19.3943352 8.54378532,20.4453605 8.54378532,21.6746646 C8.54378532,22.9039688 9.23687697,23.9549941 10.2119993,24.3797836 L10.2119993,32 L12.1245038,32 L12.1245038,24.3797836 C13.0996261,23.9549941 13.7927178,22.9039688 13.7927178,21.6746646 C13.7927178,20.4453605 13.0996261,19.3943352 12.1245038,18.9695457 L12.1245038,15.1738467 L14.4376143,16.1621496 L14.4376143,24.1431616 L14.7900252,24.4611533 C19.1408455,28.3875241 24.2394551,30.3505683 29.3380647,30.3505683 C34.4366743,30.3505683 39.5354114,28.3875241 43.8862317,24.4611533 L44.2386426,24.1431616 L44.2386426,16.3005911 L57.5640669,10.6071439 C58.0719371,10.3901502 58.3077392,9.8025319 58.0907456,9.29466164 C57.9759324,9.02594331 57.7493244,8.82088966 57.4705053,8.73341695 Z M11.1682516,22.4634987 C10.7756781,22.4634987 10.4562899,22.1096253 10.4562899,21.6746646 C10.4562899,21.239704 10.7756781,20.8858306 11.1682516,20.8858306 C11.560825,20.8858306 11.8802132,21.239704 11.8802132,21.6746646 C11.8802132,22.1096253 11.560825,22.4634987 11.1682516,22.4634987 Z M29.4999901,2.16048575 L54.0160033,9.85175941 L29.4999901,20.3266964 L14.956413,14.1126502 L29.693408,10.7356661 L29.3061896,8.66059733 L11.6600202,12.7042197 L4.98397687,9.85175941 L29.4999901,2.16048575 Z M42.3260105,23.1298545 C34.503612,29.9149013 24.1725174,29.9151838 16.3501189,23.1298545 L16.3501189,16.9792371 L29.5001176,22.5977022 L42.3260105,17.1176786 L42.3260105,23.1298545 L42.3260105,23.1298545 Z" id="Shape"></path>
                        </g>
                    </g>
                </g>
            </g>
        </g>
    </g>
</svg>