<?xml version="1.0" encoding="UTF-8"?>
<svg width="260px" height="83px" viewBox="0 0 260 83" version="1.1" xmlns="http://www.w3.org/2000/svg" xmlns:xlink="http://www.w3.org/1999/xlink">
    <!-- Generator: Sketch 57.1 (83088) - https://sketch.com -->
    <title>visuel-solidarité</title>
    <desc>Created with Sketch.</desc>
    <defs>
        <rect id="path-1" x="0" y="0" width="260" height="83"></rect>
    </defs>
    <g id="Page-dépôt-boites-à-idées" stroke="none" stroke-width="1" fill="none" fill-rule="evenodd">
        <g id="visuel-solidarité">
            <mask id="mask-2" fill="white">
                <use xlink:href="#path-1"></use>
            </mask>
            <use id="Rectangle" fill="#D3D3D3" xlink:href="#path-1"></use>
            <g id="Group-5" mask="url(#mask-2)">
                <g transform="translate(-23.000000, -30.000000)" id="Group-16">
                    <g>
                        <g id="Group-5">
                            <path d="M15.420766,1.41555821 C46.4205389,-2.81367365 77.2819274,3.48614153 108.004932,20.3150037 C121.686614,27.8092951 199.172444,19.5956699 218.791824,25.4733323 C265.257115,39.3936133 255.376835,63.5728834 286.371058,63.5728834 L173.644593,65.1414826 L15.420766,65.1414826 L15.420766,1.41555821 Z" id="Path-2" fill="#EACDCA" transform="translate(150.895912, 32.641483) scale(-1, 1) translate(-150.895912, -32.641483) "></path>
                            <path d="M3.8661774,28.795025 C29.9162027,16.2875649 57.5527886,17.5697174 86.775935,32.6414826 C108.998494,44.1027121 184.082924,53.2212901 208.631222,59.7265324 C232.505241,66.0530922 249.266344,85.1414826 271,85.1414826 L127.653632,85.1414826 L4.54747351e-13,85.1414826 L3.8661774,28.795025 Z" id="Path-2" fill="#D6B7B4"></path>
                            <path d="M15.420766,48.265018 C35.5748647,44.2886935 61.0134161,50.8668808 91.7364203,67.9995798 C105.418102,75.6291769 180.65644,74.1577019 200.275821,80.1414826 C246.741112,94.3130875 255.376835,111.544563 286.371058,111.544563 L173.644593,113.141483 L15.420766,113.141483 L15.420766,48.265018 Z" id="Path-2" fill="#C2A4A1" transform="translate(150.895912, 80.141483) scale(-1, 1) translate(-150.895912, -80.141483) "></path>
                            <path d="M3.8661774,64.0877991 C29.2806209,60.3691468 56.5994159,66.0065471 85.8225623,81 C108.045121,92.4016773 189.165429,94.0611152 213.713728,100.532557 C237.587746,106.826244 270.808151,120.141483 292.541808,120.141483 L127.653632,120.141483 L0,120.141483 L3.8661774,64.0877991 Z" id="Path-2" fill="#AD928F"></path>
                        </g>
                        <g id="Group-6" opacity="0.798316592" transform="translate(131.000000, 54.000000)" stroke="#FFFFFF">
                            <g id="love-it" stroke-linecap="round" stroke-linejoin="round" stroke-width="2.19">
                                <path d="M22.0004266,36 L3.2505594,17.7100491 C-0.123976821,14.574824 -0.965433922,9.73009015 1.17085474,5.73603936 L1.17085474,5.73603936 C2.7974577,2.74513478 5.82858836,0.665143328 9.33574101,0.133214692 C12.8428937,-0.398713943 16.4080886,0.680815078 18.9392238,3.04111694 L22.0004266,5.68529435 L25.0616294,3.04111694 C27.5931251,0.681577071 31.1580553,-0.3974389 34.6649044,0.134443707 C38.1717536,0.666326314 41.2028019,2.74575206 42.8299985,5.73603936 L42.8299985,5.73603936 C44.9650177,9.73027543 44.1236901,14.5742632 40.7502938,17.7100491 L22.0004266,36 Z" id="Path"></path>
                            </g>
                            <g id="handshake-(1)" transform="translate(10.000000, 7.000000)" fill="#FFFFFF" fill-rule="nonzero" stroke-width="0.5">
                                <path d="M20.5229527,8.88186913 L22.8438804,6.53324952 C22.9438731,6.43205711 23,6.29487318 23,6.1517549 C23,6.00863661 22.9438731,5.87145269 22.8438804,5.77026028 L17.2980544,0.157973454 C17.0898441,-0.0526578181 16.7523211,-0.0526578181 16.5441108,0.157973454 L15.4559951,1.25906712 C14.2105413,0.636190449 12.6578745,0.847746557 11.6223826,1.89558511 L9.19415123,4.35287289 C8.84863184,4.3201183 8.50052316,4.31310497 8.15416606,4.33429911 L6.45588917,2.61564658 C6.35589645,2.51445417 6.22026277,2.45765386 6.07891739,2.45765386 C5.93757202,2.45765386 5.80193833,2.51445417 5.70194562,2.61564658 L0.156119624,8.2279334 C0.0561269089,8.32912581 0,8.46630974 0,8.60942802 C0,8.75254631 0.0561269089,8.88973023 0.15619578,8.99092264 L0.993225435,9.83807191 L0.662175675,13.2053207 C0.354048846,13.9530502 0.499658954,14.8485221 1.09991987,15.4559848 C1.49646372,15.8573634 2.01744633,16.0580527 2.53842894,16.0580527 C2.56873899,16.0580527 2.5991252,16.0572049 2.62943525,16.0558947 C2.62806445,16.0867997 2.62722673,16.1177816 2.62722673,16.1489178 C2.62722673,16.6988095 2.83886402,17.2158696 3.22307061,17.6046858 C3.60735335,17.9935021 4.11820722,18.2076785 4.66165583,18.2076785 C4.69242282,18.2076785 4.7230375,18.2067537 4.75357602,18.2054435 C4.72912997,18.7629652 4.92660225,19.3286562 5.3462975,19.7533868 C5.73058024,20.1422031 6.24143412,20.3563796 6.78488272,20.3563796 C6.81564971,20.3563796 6.84626439,20.3554547 6.87680291,20.3541445 C6.85235686,20.9116662 7.04982915,21.4773572 7.46960055,21.9020879 C7.86614439,22.3034664 8.387127,22.5041557 8.90810961,22.5041557 C9.28576679,22.5041557 9.66334781,22.3981079 9.99363601,22.1871684 C10.0013278,22.1959543 10.0087149,22.2048944 10.0170159,22.213295 L11.174205,23.3844449 C11.5797352,23.7948407 12.1122936,24 12.6450042,24 C13.1775625,24 13.7102731,23.7947636 14.1157272,23.3844449 C14.5086156,22.9869198 14.7249745,22.4582993 14.7249745,21.8959994 C14.7249745,21.8584665 14.7238322,21.8211648 14.7219283,21.7840172 C14.7586354,21.7859439 14.795571,21.7871 14.8325828,21.7871 C15.3882164,21.7871 15.9104936,21.5681452 16.303382,21.170543 C16.6962703,20.7730179 16.9126293,20.2443974 16.9126293,19.6820974 C16.9126293,19.6441792 16.911487,19.6064922 16.9095069,19.5689592 C16.9463664,19.5709631 16.983302,19.5721191 17.0202376,19.5721191 C17.5528721,19.5721191 18.0855065,19.3669598 18.4910368,18.9566411 C18.883849,18.5590389 19.1002079,18.0304184 19.1002079,17.4681955 C19.1002079,17.4306626 19.0990656,17.3933609 19.0971617,17.3562134 C19.133945,17.3581401 19.1708045,17.3592962 19.2078924,17.3592962 C19.7634498,17.3592962 20.2858032,17.1403414 20.6786916,16.7427392 C21.0715038,16.345137 21.2878627,15.8165165 21.2878627,15.2542936 C21.2878627,14.6920707 21.0715038,14.1634502 20.6786916,13.765848 L19.4374263,12.5096903 C20.1539773,11.411217 20.508407,10.1508975 20.511377,8.89273595 C20.5151087,8.88895954 20.5191449,8.88572261 20.5229527,8.88186913 Z M16.9210065,1.30238025 L21.712965,6.1517549 L20.3718594,7.50887384 C20.1190979,6.2864726 19.5260718,5.12657481 18.6012344,4.19056427 L16.334149,1.89627874 L16.9210065,1.30238025 Z M1.85386342,14.6929956 C1.47635856,14.3109615 1.47635856,13.6893179 1.85386342,13.3072838 L1.85378727,13.3072838 L2.66073534,12.4908082 C2.84350953,12.3057641 3.08675152,12.203801 3.34530085,12.203801 C3.60385018,12.203801 3.84709217,12.305687 4.02994252,12.4908082 C4.21279287,12.6759295 4.31354714,12.9219357 4.31354714,13.1836641 C4.31354714,13.4453926 4.21286903,13.6914759 4.02986636,13.87652 L3.87496523,14.0332796 L3.22307061,14.6929956 L3.22314676,14.6929956 C2.84556574,15.0748755 2.23129213,15.0750297 1.85386342,14.6929956 Z M4.66165583,17.1286268 C4.40303034,17.1286268 4.15986451,17.0267407 3.97701416,16.8416195 C3.79416381,16.6564983 3.69340953,16.4104921 3.69340953,16.1487636 C3.69340953,15.8872664 3.79393534,15.6414143 3.97655722,15.4563702 C3.97670953,15.456216 3.97686185,15.4560619 3.97709031,15.4558307 L5.51460207,13.899795 C5.69737626,13.7147509 5.94061825,13.6127878 6.19916758,13.6127878 C6.45779307,13.6127878 6.7009589,13.7146738 6.88380925,13.899795 C7.26123796,14.2817521 7.26131412,14.9032415 6.88411388,15.2852756 L6.53280664,15.6407978 L5.34622134,16.8414654 C5.16344715,17.0267407 4.92020516,17.1286268 4.66165583,17.1286268 Z M6.78488272,19.2772507 C6.52625723,19.2772507 6.2830914,19.1753647 6.10024105,18.9902435 C5.72273618,18.6082094 5.72273618,17.9865658 6.10024105,17.6045317 L6.10016489,17.6045317 L7.63782896,16.0485731 C7.63813358,16.0482648 7.63836205,16.0479566 7.63866668,16.0476483 L8.28401189,15.3945603 C8.46678609,15.2095162 8.71002808,15.1075531 8.96857741,15.1075531 C9.22712674,15.1075531 9.47036873,15.2094391 9.65321908,15.3945603 C9.83606943,15.5796816 9.9368237,15.8256878 9.9368237,16.0874162 C9.9368237,16.3491446 9.83614558,16.5952279 9.65314292,16.7802721 L9.00695999,17.4342078 L7.46944823,18.9901664 C7.28667404,19.1753647 7.04343205,19.2772507 6.78488272,19.2772507 Z M8.22339179,21.1389445 C7.84588692,20.7569104 7.84588692,20.1352668 8.22339179,19.7532327 L9.76105585,18.1970429 C10.1386369,17.8153171 10.7527582,17.81524 11.1301869,18.1972741 C11.5076917,18.5793083 11.5076917,19.2009518 11.1301869,19.5829859 L9.59275128,21.1390216 C9.21524641,21.5209015 8.60089665,21.5210557 8.22339179,21.1389445 Z M20.2215276,15.2541395 C20.2215276,15.5281991 20.1160517,15.7857657 19.9245957,15.9795958 C19.7331397,16.1733488 19.4786267,16.2800903 19.2078162,16.2800903 C18.9370058,16.2800903 18.6824166,16.1733488 18.4909606,15.9795958 L18.1864131,15.6713944 C17.9782029,15.4607631 17.6406798,15.4607631 17.4324696,15.6713944 C17.2243355,15.8820257 17.2243355,16.2236753 17.4324696,16.4343066 L17.7370932,16.742508 C17.9285492,16.936261 18.033949,17.1939048 18.033949,17.4679643 C18.033949,17.7420239 17.928473,17.9995906 17.7370932,18.1934207 C17.3419202,18.5933349 16.6987073,18.5934891 16.303382,18.1934207 L15.9988345,17.8852193 C15.7906242,17.674588 15.4531012,17.674588 15.2448909,17.8852193 C15.0367568,18.0958505 15.0367568,18.4375002 15.2448909,18.6481314 L15.5495146,18.9563328 C15.7409706,19.1500859 15.8463703,19.4077296 15.8463703,19.6817892 C15.8463703,19.9558487 15.7408944,20.2134925 15.5494384,20.4072455 C15.1542654,20.8072368 14.511281,20.8072368 14.1160318,20.4074767 C14.1159557,20.4073996 14.1158795,20.4073226 14.1158033,20.4072455 C14.1157272,20.4070914 14.1155749,20.4070143 14.1154226,20.4068602 L13.8111797,20.0990441 C13.6031217,19.8884128 13.2655226,19.8884128 13.0573123,20.0991212 C12.8491782,20.3097524 12.8491782,20.6514021 13.0573884,20.8620333 L13.3618598,21.1701577 C13.5533919,21.3639878 13.6587917,21.6215544 13.6587917,21.895614 C13.6587917,22.1696736 13.5533158,22.4273173 13.3618598,22.6210704 C12.9666106,23.0211388 12.3233977,23.0210617 11.9281486,22.6210704 L10.7820782,21.4612496 L11.8843589,20.3456669 C12.6775227,19.5429097 12.6775227,18.2368109 11.8842827,17.4340537 C11.5909302,17.1371815 11.229418,16.9503648 10.8502377,16.873141 C10.9505351,16.6272118 11.0031588,16.3613216 11.0031588,16.087185 C11.0031588,15.5372933 10.7915215,15.0202332 10.4073149,14.6314169 C10.0230322,14.2426007 9.51217832,14.0284242 8.96872972,14.0284242 C8.69791929,14.0284242 8.43518138,14.0816793 8.19216786,14.18318 C8.11578348,13.7994504 7.9312577,13.4336009 7.63782896,13.1367287 C7.25354622,12.7478354 6.74269234,12.533736 6.19924374,12.533736 C5.8935539,12.533736 5.59822126,12.6014802 5.32992398,12.7299553 C5.24660941,12.353239 5.06017973,12.0071964 4.78388607,11.7275878 C4.39960333,11.3387716 3.88874945,11.1245951 3.34530085,11.1245951 C2.80185224,11.1245951 2.29099837,11.3387716 1.90679178,11.7275878 L1.87579633,11.7589551 L2.07913262,9.69040652 C2.09497305,9.52948515 2.03861767,9.36987397 1.92552614,9.25550265 L1.28688264,8.60919681 L6.07884124,3.75982216 L7.57423877,5.2732383 C7.67918162,5.37944023 7.82007006,5.43631761 7.9718488,5.43069153 C7.98608996,5.43015204 8.00025496,5.428996 8.0143438,5.42730047 C8.38659391,5.39084654 8.76242335,5.39192551 9.13436883,5.42992084 L8.80316676,8.86730297 C8.74726832,9.44825377 8.91823835,10.0163339 9.28462445,10.4670371 C9.65108671,10.9177402 10.1690231,11.1970405 10.7430864,11.2533013 C10.8136067,11.2602376 10.8834417,11.2636287 10.9528959,11.2636287 C12.049998,11.2636287 12.9916659,10.4174042 13.0995788,9.28995277 L13.2452651,7.76906088 L19.9245957,14.528529 C20.1160517,14.7225132 20.2215276,14.980157 20.2215276,15.2541395 Z M18.6647484,11.727819 L13.4859178,6.48677654 C13.4524853,6.45286591 13.4153212,6.42504377 13.3762533,6.40207703 L13.4779976,5.33967231 C13.5064037,5.04310841 13.2918725,4.77937617 12.9988246,4.7506292 C12.7055481,4.72157395 12.4450949,4.93891028 12.4166887,5.23555125 L12.03827,9.18606292 C11.9802392,9.7926779 11.4450154,10.2382944 10.8458969,10.1795674 C10.5554382,10.1510516 10.2933095,10.009783 10.1078699,9.78165695 C9.92243023,9.55360794 9.83599327,9.26613826 9.86424712,8.97211766 L10.2668834,4.79317163 L12.37625,2.65849729 C13.2593539,1.7647209 14.6963399,1.7647209 15.5794439,2.65849729 L17.8472147,4.95355351 C19.6383256,6.76607684 19.9459194,9.57981161 18.6647484,11.727819 Z" id="Shape"></path>
                            </g>
                        </g>
                    </g>
                </g>
            </g>
        </g>
    </g>
</svg>