<?xml version="1.0" encoding="UTF-8"?>
<svg width="260px" height="83px" viewBox="0 0 260 83" version="1.1" xmlns="http://www.w3.org/2000/svg" xmlns:xlink="http://www.w3.org/1999/xlink">
    <!-- Generator: Sketch 57.1 (83088) - https://sketch.com -->
    <title>visuel-santé</title>
    <desc>Created with Sketch.</desc>
    <defs>
        <rect id="path-1" x="0" y="0" width="260" height="83"></rect>
        <path d="M4,0 L256,0 C258.209139,-4.05812251e-16 260,1.790861 260,4 L260,83 L260,83 L0,83 L0,4 C-2.705415e-16,1.790861 1.790861,4.05812251e-16 4,0 Z" id="path-3"></path>
    </defs>
    <g id="Page-dépôt-boites-à-idées" stroke="none" stroke-width="1" fill="none" fill-rule="evenodd">
        <g id="visuel-santé">
            <mask id="mask-2" fill="white">
                <use xlink:href="#path-1"></use>
            </mask>
            <use id="Rectangle" fill="#D3D3D3" xlink:href="#path-1"></use>
            <g id="Group-16" mask="url(#mask-2)">
                <g id="Group-5">
                    <mask id="mask-4" fill="white">
                        <use xlink:href="#path-3"></use>
                    </mask>
                    <use id="Rectangle" fill="#D3D3D3" xlink:href="#path-3"></use>
                    <path d="M-7.57923396,-28.5844418 C23.4205389,-32.8136736 54.2819274,-26.5138585 85.0049316,-9.68499626 C98.6866138,-2.19070491 176.172444,-10.4043301 195.791824,-4.52666772 C242.257115,9.39361334 232.376835,33.5728834 263.371058,33.5728834 L150.644593,35.1414826 L-7.57923396,35.1414826 L-7.57923396,-28.5844418 Z" id="Path-2" fill="#D3E6D8" mask="url(#mask-4)" transform="translate(127.895912, 2.641483) scale(-1, 1) translate(-127.895912, -2.641483) "></path>
                    <path d="M-19.1338226,-1.20497501 C6.91620274,-13.7124351 34.5527886,-12.4302826 63.775935,2.64148264 C85.9984936,14.1027121 161.082924,23.2212901 185.631222,29.7265324 C209.505241,36.0530922 226.266344,55.1414826 248,55.1414826 L104.653632,55.1414826 L-23,55.1414826 L-19.1338226,-1.20497501 Z" id="Path-2" fill="#BBD1C0" mask="url(#mask-4)"></path>
                    <path d="M-7.57923396,18.265018 C12.5748647,14.2886935 38.0134161,20.8668808 68.7364203,37.9995798 C82.4181024,45.6291769 157.65644,44.1577019 177.275821,50.1414826 C223.741112,64.3130875 232.376835,81.5445632 263.371058,81.5445632 L150.644593,83.1414826 L-7.57923396,83.1414826 L-7.57923396,18.265018 Z" id="Path-2" fill="#A2BAA7" mask="url(#mask-4)" transform="translate(127.895912, 50.141483) scale(-1, 1) translate(-127.895912, -50.141483) "></path>
                    <path d="M-19.1338226,34.0877991 C6.28062092,30.3691468 33.5994159,36.0065471 62.8225623,51 C85.0451208,62.4016773 166.165429,64.0611152 190.713728,70.5325566 C214.587746,76.8262439 247.808151,90.1414826 269.541808,90.1414826 L104.653632,90.1414826 L-23,90.1414826 L-19.1338226,34.0877991 Z" id="Path-2" fill="#91A896" mask="url(#mask-4)"></path>
                </g>
                <g id="ecology-leaf" opacity="0.799944196" transform="translate(109.000000, 24.000000)" stroke="#FFFFFF" stroke-linecap="round" stroke-linejoin="round" stroke-width="2.19">
                    <path d="M28.565,31.91375 C25.4155526,33.6958957 21.8706517,34.6626869 18.2525,34.72625 C12.1775453,34.72625 6.78931734,30.8254168 4.89269246,25.0541182 C2.99606757,19.2828195 5.0198815,12.946068 9.910625,9.3425 C9.910625,9.3425 14.5025,4.72625 25.7525,4.72625 C30.9518405,4.97195935 36.1052971,3.65191681 40.54625,0.936875 C40.8099455,0.757536474 41.1467214,0.724542358 41.4402087,0.849293406 C41.733696,0.974044454 41.9436411,1.23943038 41.9975,1.55375 C42.875,6.635 44.3225,23.2475 28.565,31.91375 Z" id="Path"></path>
                    <path d="M23.8775,16.91375 C18.0553447,18.5171626 12.5995523,21.2348706 7.8125,24.91625 L0.51875,31.13375" id="Path"></path>
                </g>
            </g>
            <g id="Group-5" mask="url(#mask-2)">
                <g transform="translate(-23.000000, -30.000000)" id="Group-16">
                    <g>
                        <g id="Group-5">
                            <path d="M15.420766,1.41555821 C46.4205389,-2.81367365 77.2819274,3.48614153 108.004932,20.3150037 C121.686614,27.8092951 199.172444,19.5956699 218.791824,25.4733323 C265.257115,39.3936133 255.376835,63.5728834 286.371058,63.5728834 L173.644593,65.1414826 L15.420766,65.1414826 L15.420766,1.41555821 Z" id="Path-2" fill="#D8E3F3" transform="translate(150.895912, 32.641483) scale(-1, 1) translate(-150.895912, -32.641483) "></path>
                            <path d="M3.8661774,28.795025 C29.9162027,16.2875649 57.5527886,17.5697174 86.775935,32.6414826 C108.998494,44.1027121 184.082924,53.2212901 208.631222,59.7265324 C232.505241,66.0530922 249.266344,85.1414826 271,85.1414826 L127.653632,85.1414826 L4.54747351e-13,85.1414826 L3.8661774,28.795025 Z" id="Path-2" fill="#B9C6D8"></path>
                            <path d="M15.420766,48.265018 C35.5748647,44.2886935 61.0134161,50.8668808 91.7364203,67.9995798 C105.418102,75.6291769 180.65644,74.1577019 200.275821,80.1414826 C246.741112,94.3130875 255.376835,111.544563 286.371058,111.544563 L173.644593,113.141483 L15.420766,113.141483 L15.420766,48.265018 Z" id="Path-2" fill="#A3B0C1" transform="translate(150.895912, 80.141483) scale(-1, 1) translate(-150.895912, -80.141483) "></path>
                            <path d="M3.8661774,64.0877991 C29.2806209,60.3691468 56.5994159,66.0065471 85.8225623,81 C108.045121,92.4016773 189.165429,94.0611152 213.713728,100.532557 C237.587746,106.826244 270.808151,120.141483 292.541808,120.141483 L127.653632,120.141483 L0,120.141483 L3.8661774,64.0877991 Z" id="Path-2" fill="#96A0AD"></path>
                        </g>
                        <g id="hospital-shield" opacity="0.802269345" transform="translate(132.000000, 49.000000)" stroke="#FFFFFF" stroke-linecap="round" stroke-linejoin="round" stroke-width="2.19">
                            <path d="M31.5,17.1818182 C31.5,16.6546373 31.0726354,16.2272727 30.5454545,16.2272727 L25.7727273,16.2272727 L25.7727273,11.4545455 C25.7727273,10.9273646 25.3453627,10.5 24.8181818,10.5 L17.1818182,10.5 C16.6546373,10.5 16.2272727,10.9273646 16.2272727,11.4545455 L16.2272727,16.2272727 L11.4545455,16.2272727 C10.9273646,16.2272727 10.5,16.6546373 10.5,17.1818182 L10.5,24.8181818 C10.5,25.3453627 10.9273646,25.7727273 11.4545455,25.7727273 L16.2272727,25.7727273 L16.2272727,30.5454545 C16.2272727,31.0726354 16.6546373,31.5 17.1818182,31.5 L24.8181818,31.5 C25.3453627,31.5 25.7727273,31.0726354 25.7727273,30.5454545 L25.7727273,25.7727273 L30.5454545,25.7727273 C31.0726354,25.7727273 31.5,25.3453627 31.5,24.8181818 L31.5,17.1818182 Z" id="Path"></path>
                            <path d="M0.954545455,7.20681818 L0.954545455,21.7865455 C1.06944846,31.6549065 7.33721594,40.4003448 16.6453636,43.68 L18.7854545,44.4703636 C20.2151397,44.9953945 21.7848603,44.9953945 23.2145455,44.4703636 L25.3546364,43.68 C34.6627841,40.4003448 40.9305515,31.6549065 41.0454545,21.7865455 L41.0454545,7.20681818 C41.0415336,6.03596368 40.3401467,4.98012867 39.2623636,4.52263636 C33.4790397,2.10985408 27.2661731,0.895987495 21,0.954545455 C14.7338269,0.895987495 8.5209603,2.10985408 2.73763636,4.52263636 C1.65985326,4.98012867 0.95846642,6.03596368 0.954545455,7.20681818 Z" id="Path"></path>
                        </g>
                    </g>
                </g>
            </g>
        </g>
    </g>
</svg>