<?xml version="1.0" encoding="UTF-8"?>
<svg width="260px" height="83px" viewBox="0 0 260 83" version="1.1" xmlns="http://www.w3.org/2000/svg" xmlns:xlink="http://www.w3.org/1999/xlink">
    <!-- Generator: Sketch 57.1 (83088) - https://sketch.com -->
    <title>visuel-sport</title>
    <desc>Created with Sketch.</desc>
    <defs>
        <rect id="path-1" x="0" y="0" width="260" height="83"></rect>
    </defs>
    <g id="Page-dépôt-boites-à-idées" stroke="none" stroke-width="1" fill="none" fill-rule="evenodd">
        <g id="visuel-sport">
            <mask id="mask-2" fill="white">
                <use xlink:href="#path-1"></use>
            </mask>
            <use id="Rectangle" fill="#D3D3D3" xlink:href="#path-1"></use>
            <g id="Group-16" mask="url(#mask-2)">
                <g transform="translate(-23.000000, -30.000000)">
                    <g id="Group-5">
                        <path d="M15.420766,1.41555821 C46.4205389,-2.81367365 77.2819274,3.48614153 108.004932,20.3150037 C121.686614,27.8092951 199.172444,19.5956699 218.791824,25.4733323 C265.257115,39.3936133 255.376835,63.5728834 286.371058,63.5728834 L173.644593,65.1414826 L15.420766,65.1414826 L15.420766,1.41555821 Z" id="Path-2" fill="#E4DED1" transform="translate(150.895912, 32.641483) scale(-1, 1) translate(-150.895912, -32.641483) "></path>
                        <path d="M3.8661774,28.795025 C29.9162027,16.2875649 57.5527886,17.5697174 86.775935,32.6414826 C108.998494,44.1027121 184.082924,53.2212901 208.631222,59.7265324 C232.505241,66.0530922 249.266344,85.1414826 271,85.1414826 L127.653632,85.1414826 L4.54747351e-13,85.1414826 L3.8661774,28.795025 Z" id="Path-2" fill="#CEC8BB"></path>
                        <path d="M15.420766,48.265018 C35.5748647,44.2886935 61.0134161,50.8668808 91.7364203,67.9995798 C105.418102,75.6291769 180.65644,74.1577019 200.275821,80.1414826 C246.741112,94.3130875 255.376835,111.544563 286.371058,111.544563 L173.644593,113.141483 L15.420766,113.141483 L15.420766,48.265018 Z" id="Path-2" fill="#BBB5A9" transform="translate(150.895912, 80.141483) scale(-1, 1) translate(-150.895912, -80.141483) "></path>
                        <path d="M3.8661774,64.0877991 C29.2806209,60.3691468 56.5994159,66.0065471 85.8225623,81 C108.045121,92.4016773 189.165429,94.0611152 213.713728,100.532557 C237.587746,106.826244 270.808151,120.141483 292.541808,120.141483 L127.653632,120.141483 L0,120.141483 L3.8661774,64.0877991 Z" id="Path-2" fill="#A6A197"></path>
                    </g>
                    <g id="basketball-ball" opacity="0.796479725" transform="translate(131.000000, 49.000000)" stroke-linecap="round" stroke-linejoin="round">
                        <circle id="Oval" stroke="#FFFFFF" stroke-width="2.19" cx="22.5" cy="22.5" r="21.5625"></circle>
                        <path d="M6.7125,37.276875 C9.315,29.341875 17.3325,11.964375 38.375625,7.951875" id="Path" stroke="#FFFFFF" stroke-width="2.19"></path>
                        <path d="M6.495,8.05125 C15.06375,11.145 31.0575,19.726875 34.441875,40.479375" id="Path" stroke="#FFFFFF" stroke-width="2.19"></path>
                        <path d="M19.77,1.11 C19.9884031,5.86970373 18.0712944,10.4785529 14.5416752,13.6792197 C11.012056,16.8798865 6.23821831,18.3384029 1.5225,17.656875" id="Path" stroke="#FFFFFF" stroke-width="2.19"></path>
                        <path d="M22.0575,43.99125 C13.1775,29.611875 29.911875,12.924375 44.0625,21.9375" id="Path" stroke="#FFFFFF" stroke-width="2.19"></path>
                    </g>
                </g>
            </g>
        </g>
    </g>
</svg>