<?xml version="1.0" encoding="UTF-8"?>
<svg width="260px" height="83px" viewBox="0 0 260 83" version="1.1" xmlns="http://www.w3.org/2000/svg" xmlns:xlink="http://www.w3.org/1999/xlink">
    <!-- Generator: Sketch 57.1 (83088) - https://sketch.com -->
    <title>visuel-mobilités</title>
    <desc>Created with Sketch.</desc>
    <defs>
        <rect id="path-1" x="0" y="0" width="260" height="83"></rect>
    </defs>
    <g id="Page-dépôt-boites-à-idées" stroke="none" stroke-width="1" fill="none" fill-rule="evenodd">
        <g id="visuel-mobilités">
            <mask id="mask-2" fill="white">
                <use xlink:href="#path-1"></use>
            </mask>
            <use id="Rectangle" fill="#D3D3D3" xlink:href="#path-1"></use>
            <g id="Group-5" mask="url(#mask-2)">
                <g transform="translate(-23.000000, -30.000000)" id="Group-16">
                    <g>
                        <g id="Group-5">
                            <path d="M15.420766,1.41555821 C46.4205389,-2.81367365 77.2819274,3.48614153 108.004932,20.3150037 C121.686614,27.8092951 199.172444,19.5956699 218.791824,25.4733323 C265.257115,39.3936133 255.376835,63.5728834 286.371058,63.5728834 L173.644593,65.1414826 L15.420766,65.1414826 L15.420766,1.41555821 Z" id="Path-2" fill="#CCE3DD" transform="translate(150.895912, 32.641483) scale(-1, 1) translate(-150.895912, -32.641483) "></path>
                            <path d="M3.8661774,28.795025 C29.9162027,16.2875649 57.5527886,17.5697174 86.775935,32.6414826 C108.998494,44.1027121 184.082924,53.2212901 208.631222,59.7265324 C232.505241,66.0530922 249.266344,85.1414826 271,85.1414826 L127.653632,85.1414826 L4.54747351e-13,85.1414826 L3.8661774,28.795025 Z" id="Path-2" fill="#B6CEC8"></path>
                            <path d="M15.420766,48.265018 C35.5748647,44.2886935 61.0134161,50.8668808 91.7364203,67.9995798 C105.418102,75.6291769 180.65644,74.1577019 200.275821,80.1414826 C246.741112,94.3130875 255.376835,111.544563 286.371058,111.544563 L173.644593,113.141483 L15.420766,113.141483 L15.420766,48.265018 Z" id="Path-2" fill="#A1BAB3" transform="translate(150.895912, 80.141483) scale(-1, 1) translate(-150.895912, -80.141483) "></path>
                            <path d="M3.8661774,64.0877991 C29.2806209,60.3691468 56.5994159,66.0065471 85.8225623,81 C108.045121,92.4016773 189.165429,94.0611152 213.713728,100.532557 C237.587746,106.826244 270.808151,120.141483 292.541808,120.141483 L127.653632,120.141483 L0,120.141483 L3.8661774,64.0877991 Z" id="Path-2" fill="#91A7A1"></path>
                        </g>
                        <g id="bicycle" opacity="0.796991257" transform="translate(129.000000, 57.000000)" stroke="#FFFFFF" stroke-linecap="round" stroke-linejoin="round" stroke-width="2.19">
                            <circle id="Oval" cx="8.54947917" cy="21.2673611" r="8.50694444"></circle>
                            <circle id="Oval" cx="40.4505208" cy="21.2673611" r="8.50694444"></circle>
                            <polyline id="Path" points="22.3732639 21.2694878 34.4616319 5.00846354 18.1197917 10.6336806 8.54947917 21.2673611 22.3732639 21.2673611 15.4613715 4.25347222"></polyline>
                            <path d="M40.4505208,21.2673611 L33.4174045,2.17565104 C33.3129589,1.89224456 33.3339621,1.57779315 33.475171,1.31079471 C33.6163799,1.04379628 33.8644697,0.849445376 34.1575087,0.776258681 L37.2604167,0" id="Path"></path>
                            <path d="M12.8029514,4.25347222 L19.1831597,4.25347222" id="Path"></path>
                        </g>
                    </g>
                </g>
            </g>
        </g>
    </g>
</svg>