<?xml version="1.0" encoding="UTF-8"?>
<svg width="260px" height="83px" viewBox="0 0 260 83" version="1.1" xmlns="http://www.w3.org/2000/svg" xmlns:xlink="http://www.w3.org/1999/xlink">
    <!-- Generator: Sketch 57.1 (83088) - https://sketch.com -->
    <title>visuel-propreté</title>
    <desc>Created with Sketch.</desc>
    <defs>
        <rect id="path-1" x="0" y="0" width="260" height="83"></rect>
        <path d="M4,0 L256,0 C258.209139,-4.05812251e-16 260,1.790861 260,4 L260,83 L260,83 L0,83 L0,4 C-2.705415e-16,1.790861 1.790861,4.05812251e-16 4,0 Z" id="path-3"></path>
    </defs>
    <g id="Page-dépôt-boites-à-idées" stroke="none" stroke-width="1" fill="none" fill-rule="evenodd">
        <g id="visuel-propreté">
            <mask id="mask-2" fill="white">
                <use xlink:href="#path-1"></use>
            </mask>
            <use id="Rectangle" fill="#D3D3D3" xlink:href="#path-1"></use>
            <g id="Group-16" mask="url(#mask-2)">
                <g id="Group-5">
                    <mask id="mask-4" fill="white">
                        <use xlink:href="#path-3"></use>
                    </mask>
                    <use id="Rectangle" fill="#D3D3D3" xlink:href="#path-3"></use>
                    <path d="M-7.57923396,-28.5844418 C23.4205389,-32.8136736 54.2819274,-26.5138585 85.0049316,-9.68499626 C98.6866138,-2.19070491 176.172444,-10.4043301 195.791824,-4.52666772 C242.257115,9.39361334 232.376835,33.5728834 263.371058,33.5728834 L150.644593,35.1414826 L-7.57923396,35.1414826 L-7.57923396,-28.5844418 Z" id="Path-2" fill="#D7CFE1" mask="url(#mask-4)" transform="translate(127.895912, 2.641483) scale(-1, 1) translate(-127.895912, -2.641483) "></path>
                    <path d="M-19.1338226,-1.20497501 C6.91620274,-13.7124351 34.5527886,-12.4302826 63.775935,2.64148264 C85.9984936,14.1027121 161.082924,23.2212901 185.631222,29.7265324 C209.505241,36.0530922 226.266344,55.1414826 248,55.1414826 L104.653632,55.1414826 L-23,55.1414826 L-19.1338226,-1.20497501 Z" id="Path-2" fill="#C4BAD0" mask="url(#mask-4)"></path>
                    <path d="M-7.57923396,18.265018 C12.5748647,14.2886935 38.0134161,20.8668808 68.7364203,37.9995798 C82.4181024,45.6291769 157.65644,44.1577019 177.275821,50.1414826 C223.741112,64.3130875 232.376835,81.5445632 263.371058,81.5445632 L150.644593,83.1414826 L-7.57923396,83.1414826 L-7.57923396,18.265018 Z" id="Path-2" fill="#AAA1B6" mask="url(#mask-4)" transform="translate(127.895912, 50.141483) scale(-1, 1) translate(-127.895912, -50.141483) "></path>
                    <path d="M-19.1338226,34.0877991 C6.28062092,30.3691468 33.5994159,36.0065471 62.8225623,51 C85.0451208,62.4016773 166.165429,64.0611152 190.713728,70.5325566 C214.587746,76.8262439 247.808151,90.1414826 269.541808,90.1414826 L104.653632,90.1414826 L-23,90.1414826 L-19.1338226,34.0877991 Z" id="Path-2" fill="#958DA0" mask="url(#mask-4)"></path>
                </g>
                <g id="bin-1" opacity="0.79813058" transform="translate(108.000000, 19.000000)" stroke="#FFFFFF" stroke-linecap="round" stroke-linejoin="round" stroke-width="2.19">
                    <path d="M39.375,8.4375 L35.9775,40.704375 C35.7770057,42.6124791 34.1686084,44.0614929 32.25,44.0625 L12.75,44.0625 C10.8306745,44.0625 9.22119452,42.613192 9.020625,40.704375 L5.625,8.4375" id="Path"></path>
                    <path d="M0.9375,8.4375 L44.0625,8.4375" id="Path"></path>
                    <path d="M14.0625,8.4375 L14.0625,2.8125 C14.0625,1.77696609 14.9019661,0.9375 15.9375,0.9375 L29.0625,0.9375 C30.0980339,0.9375 30.9375,1.77696609 30.9375,2.8125 L30.9375,8.4375" id="Path"></path>
                    <path d="M22.5,16.875 L22.5,36.5625" id="Path"></path>
                    <path d="M30.9375,16.875 L30,36.5625" id="Path"></path>
                    <path d="M14.0625,16.875 L15,36.5625" id="Path"></path>
                </g>
            </g>
        </g>
    </g>
</svg>