<?xml version="1.0" encoding="UTF-8"?>
<svg width="260px" height="83px" viewBox="0 0 260 83" version="1.1" xmlns="http://www.w3.org/2000/svg" xmlns:xlink="http://www.w3.org/1999/xlink">
    <!-- Generator: Sketch 57.1 (83088) - https://sketch.com -->
    <title>visuel-jeunesse</title>
    <desc>Created with Sketch.</desc>
    <defs>
        <rect id="path-1" x="0" y="0" width="260" height="83"></rect>
    </defs>
    <g id="Page-dépôt-boites-à-idées" stroke="none" stroke-width="1" fill="none" fill-rule="evenodd">
        <g id="visuel-jeunesse">
            <mask id="mask-2" fill="white">
                <use xlink:href="#path-1"></use>
            </mask>
            <use id="Rectangle" fill="#D3D3D3" xlink:href="#path-1"></use>
            <g id="Group-5" mask="url(#mask-2)">
                <g transform="translate(-23.000000, -30.000000)" id="Group-16">
                    <g>
                        <g id="Group-5">
                            <path d="M15.420766,1.41555821 C46.4205389,-2.81367365 77.2819274,3.48614153 108.004932,20.3150037 C121.686614,27.8092951 199.172444,19.5956699 218.791824,25.4733323 C265.257115,39.3936133 255.376835,63.5728834 286.371058,63.5728834 L173.644593,65.1414826 L15.420766,65.1414826 L15.420766,1.41555821 Z" id="Path-2" fill="#E9D7E3" transform="translate(150.895912, 32.641483) scale(-1, 1) translate(-150.895912, -32.641483) "></path>
                            <path d="M3.8661774,28.795025 C29.9162027,16.2875649 57.5527886,17.5697174 86.775935,32.6414826 C108.998494,44.1027121 184.082924,53.2212901 208.631222,59.7265324 C232.505241,66.0530922 249.266344,85.1414826 271,85.1414826 L127.653632,85.1414826 L4.54747351e-13,85.1414826 L3.8661774,28.795025 Z" id="Path-2" fill="#D6C3CF"></path>
                            <path d="M15.420766,48.265018 C35.5748647,44.2886935 61.0134161,50.8668808 91.7364203,67.9995798 C105.418102,75.6291769 180.65644,74.1577019 200.275821,80.1414826 C246.741112,94.3130875 255.376835,111.544563 286.371058,111.544563 L173.644593,113.141483 L15.420766,113.141483 L15.420766,48.265018 Z" id="Path-2" fill="#C4B2BD" transform="translate(150.895912, 80.141483) scale(-1, 1) translate(-150.895912, -80.141483) "></path>
                            <path d="M3.8661774,64.0877991 C29.2806209,60.3691468 56.5994159,66.0065471 85.8225623,81 C108.045121,92.4016773 189.165429,94.0611152 213.713728,100.532557 C237.587746,106.826244 270.808151,120.141483 292.541808,120.141483 L127.653632,120.141483 L0,120.141483 L3.8661774,64.0877991 Z" id="Path-2" fill="#B2A1AC"></path>
                        </g>
                        <g id="family-child-play-ball" opacity="0.803455171" transform="translate(131.000000, 48.000000)" stroke="#FFFFFF" stroke-linecap="round" stroke-linejoin="round" stroke-width="2.19">
                            <circle id="Oval" cx="31.25" cy="7.1225" r="6.25"></circle>
                            <circle id="Oval" cx="3.75" cy="28.3725" r="3.75"></circle>
                            <path d="M44.1775,26.0275 L39.9275,20.72 C38.7454111,19.2324084 36.9475628,18.3675624 35.0475,18.3725 L21.0675,18.3725 L19.605,15.445 C19.005687,14.2463739 17.8124395,13.4585275 16.4747424,13.3782348 C15.1370453,13.297942 13.8581265,13.9374014 13.1197424,15.0557348 C12.3813583,16.1740681 12.295687,17.6013739 12.895,18.8 L14.7025,22.4125 C15.7530943,24.5393888 17.9227975,25.8827231 20.295,25.875 L23.945,25.875 L23.0075,29.625 L17.94,29.625 C15.3823432,29.6148422 13.08006,31.1738452 12.14,33.5525 L10.2675,38.23 C9.75719143,39.476302 9.95437133,40.9005412 10.7840859,41.9613227 C11.6138004,43.0221041 12.948621,43.5565116 14.2811432,43.3614013 C15.6136654,43.1662909 16.7392388,42.2716279 17.23,41.0175 L18.7875,37.1225 L21.5375,37.1225 C21.6409294,38.3273039 22.0916432,39.4762333 22.835,40.43 L27.06,45.7125 C28.376905,47.242499 30.6686662,47.4554598 32.2449376,46.194308 C33.821209,44.9331562 34.116274,42.6505134 32.9125,41.03 L29.075,36.2275 L31.4275,26.8175 C31.5663386,26.2608398 32.0662869,25.8701585 32.64,25.87 L34.435,25.87 L38.31,30.715 C39.6044174,32.3325039 41.964996,32.5944173 43.5825,31.3 C45.2000039,30.0055826 45.4619173,27.645004 44.1675,26.0275 L44.1775,26.0275 Z" id="Path"></path>
                        </g>
                    </g>
                </g>
            </g>
        </g>
    </g>
</svg>