<?xml version="1.0" encoding="UTF-8"?>
<svg width="260px" height="83px" viewBox="0 0 260 83" version="1.1" xmlns="http://www.w3.org/2000/svg" xmlns:xlink="http://www.w3.org/1999/xlink">
    <!-- Generator: Sketch 57.1 (83088) - https://sketch.com -->
    <title>visuel-qualité de vie</title>
    <desc>Created with Sketch.</desc>
    <defs>
        <rect id="path-1" x="0" y="0" width="260" height="83"></rect>
    </defs>
    <g id="Page-dépôt-boites-à-idées" stroke="none" stroke-width="1" fill="none" fill-rule="evenodd">
        <g id="visuel-qualité-de-vie">
            <mask id="mask-2" fill="white">
                <use xlink:href="#path-1"></use>
            </mask>
            <use id="Rectangle" fill="#D3D3D3" xlink:href="#path-1"></use>
            <g id="Group-5" mask="url(#mask-2)">
                <g transform="translate(-23.000000, -30.000000)" id="Group-16">
                    <g>
                        <g id="Group-5">
                            <path d="M15.420766,1.41555821 C46.4205389,-2.81367365 77.2819274,3.48614153 108.004932,20.3150037 C121.686614,27.8092951 199.172444,19.5956699 218.791824,25.4733323 C265.257115,39.3936133 255.376835,63.5728834 286.371058,63.5728834 L173.644593,65.1414826 L15.420766,65.1414826 L15.420766,1.41555821 Z" id="Path-2" fill="#D4E7EC" transform="translate(150.895912, 32.641483) scale(-1, 1) translate(-150.895912, -32.641483) "></path>
                            <path d="M3.8661774,28.795025 C29.9162027,16.2875649 57.5527886,17.5697174 86.775935,32.6414826 C108.998494,44.1027121 184.082924,53.2212901 208.631222,59.7265324 C232.505241,66.0530922 249.266344,85.1414826 271,85.1414826 L127.653632,85.1414826 L4.54747351e-13,85.1414826 L3.8661774,28.795025 Z" id="Path-2" fill="#C1D5DA"></path>
                            <path d="M15.420766,48.265018 C35.5748647,44.2886935 61.0134161,50.8668808 91.7364203,67.9995798 C105.418102,75.6291769 180.65644,74.1577019 200.275821,80.1414826 C246.741112,94.3130875 255.376835,111.544563 286.371058,111.544563 L173.644593,113.141483 L15.420766,113.141483 L15.420766,48.265018 Z" id="Path-2" fill="#AEC2C7" transform="translate(150.895912, 80.141483) scale(-1, 1) translate(-150.895912, -80.141483) "></path>
                            <path d="M3.8661774,64.0877991 C29.2806209,60.3691468 56.5994159,66.0065471 85.8225623,81 C108.045121,92.4016773 189.165429,94.0611152 213.713728,100.532557 C237.587746,106.826244 270.808151,120.141483 292.541808,120.141483 L127.653632,120.141483 L0,120.141483 L3.8661774,64.0877991 Z" id="Path-2" fill="#9FAFB3"></path>
                        </g>
                        <g id="park-bench-light" opacity="0.797851562" transform="translate(128.000000, 49.000000)" stroke="#FFFFFF" stroke-linecap="round" stroke-linejoin="round" stroke-width="2.19">
                            <path d="M24.502,42 L23.498,46" id="Path"></path>
                            <path d="M42.502,42 L43.498,46" id="Path"></path>
                            <path d="M46,40 C46,41.1045695 45.1045695,42 44,42 L24,42 C22.8954305,42 22,41.1045695 22,40 C22,38.8954305 22.8954305,38 24,38 L44,38 C45.1045695,38 46,38.8954305 46,40 Z" id="Path"></path>
                            <path d="M26,38 L26,34" id="Path"></path>
                            <path d="M42,38 L42,34" id="Path"></path>
                            <rect id="Rectangle" x="22" y="30" width="24" height="4" rx="0.5"></rect>
                            <path d="M15.9980431,44.9379985 C16.0154498,45.2137839 15.9161399,45.4843663 15.7236798,45.6855359 C15.5312197,45.8867054 15.2627655,46.0005298 14.982022,46 L9.01797798,46 C8.73723446,46.0005298 8.4687803,45.8867054 8.27632022,45.6855359 C8.08386014,45.4843663 7.9845502,45.2137839 8.00195685,44.9379985 L8.83103009,31.8760031 C8.897669,30.8201342 9.78822115,29.9979686 10.8630724,30 L13.1409917,30 C14.2158429,29.9979686 15.1063951,30.8201342 15.173034,31.8760031 L15.9980431,44.9379985 Z" id="Path"></path>
                            <path d="M12,11 L12,30" id="Path"></path>
                            <path d="M20,8 L20,12 C20,13.1045695 19.1045695,14 18,14 L6,14 C4.8954305,14 4,13.1045695 4,12 L4,8" id="Path"></path>
                            <circle id="Oval" cx="20" cy="4" r="4"></circle>
                            <circle id="Oval" cx="4" cy="4" r="4"></circle>
                        </g>
                    </g>
                </g>
            </g>
        </g>
    </g>
</svg>