<svg xmlns="http://www.w3.org/2000/svg" viewBox="0 0 17 18">
    <g fill-rule="nonzero">
        <path d="M13.839 5.625H2.66a.375.375 0 00-.375.409l.966 10.602A1.5 1.5 0 004.745 18h7.01a1.5 1.5 0 001.494-1.364l.963-10.602a.375.375 0 00-.373-.409zm-6.9 9.75a.562.562 0 11-1.125 0v-6.75a.563.563 0 011.125 0v6.75zm3.75 0a.562.562 0 11-1.125 0v-6.75a.563.563 0 011.125 0v6.75zM15.75 3h-3.563A.187.187 0 0112 2.812v-.937C12 .839 11.16 0 10.125 0h-3.75C5.339 0 4.5.84 4.5 1.875v.938A.188.188 0 014.312 3H.75a.75.75 0 000 1.5h15a.75.75 0 100-1.5zM6 2.812v-.937c0-.207.168-.375.375-.375h3.75c.207 0 .375.168.375.375v.938a.187.187 0 01-.188.187H6.189A.188.188 0 016 2.812z"/>
    </g>
</svg>
