<svg xmlns="http://www.w3.org/2000/svg" viewBox="0 0 18 18"><g fill-rule="nonzero"><path d="M8.41 4.2a.205.205 0 00-.096-.202C7.282 3.355 4.936 2.34.414 2.28A.41.41 0 000 2.69v12.898c0 .224.18.406.403.41 4.215.053 6.54.94 7.679 1.58a.202.202 0 00.304-.177V4.456c.003-.086.01-.17.023-.255zM14.932 13.456a.614.614 0 01-.51.604 6.888 6.888 0 00-3.512 1.848c-.323.358-.604.75-.84 1.17a.205.205 0 00.268.282 17.175 17.175 0 017.259-1.363.41.41 0 00.403-.409V2.689a.41.41 0 00-.415-.409c-.911.012-1.73.065-2.47.144a.205.205 0 00-.183.204v10.828z"/><path d="M13.556 13.01a.205.205 0 00.149-.198V.6a.205.205 0 00-.275-.193c-.956.32-1.82.867-2.52 1.592a4.463 4.463 0 00-1.296 2.466V14.98a.205.205 0 00.358.135l.019-.021a7.627 7.627 0 013.565-2.086z"/></g></svg>
