<svg viewBox="0 0 24 24" xmlns="http://www.w3.org/2000/svg">
    <g fill="none" fill-rule="evenodd">
        <path d="M12 0c6.627 0 12 5.373 12 12s-5.373 12-12 12S0 18.627 0 12 5.373 0 12 0zm2.054 10H9.946a.39.39 0 00-.238.08c-1.7 1.3-3.6 3.6-3.6 5.6C6.107 18.5 7.678 20 12 20c4.321 0 5.893-1.5 5.893-4.321 0-1.997-1.9-4.298-3.601-5.598a.394.394 0 00-.238-.081zm-.647 1.833a.5.5 0 010 1c-1.18 0-1.882.492-2.096 1.467a.167.167 0 00.163.2h1.169a.5.5 0 010 1H11.47a.166.166 0 00-.162.2c.213.972.916 1.467 2.096 1.467a.5.5 0 010 1c-1.756 0-2.874-.934-3.11-2.525a.166.166 0 00-.162-.142H9.6a.5.5 0 110-1h.533c.083 0 .153-.06.165-.142.235-1.59 1.354-2.525 3.11-2.525zM14 8h-4a.667.667 0 000 1.333h4A.667.667 0 0014 8zm-1.996-4a.333.333 0 00-.31.21l-.293.733a.167.167 0 01-.22.091l-1.248-.53a.333.333 0 00-.425.466A6.11 6.11 0 0110.314 7a.333.333 0 00.333.292h2.71A.333.333 0 0013.69 7a6.11 6.11 0 01.804-2.033.333.333 0 00-.425-.466l-1.242.533a.167.167 0 01-.22-.091l-.294-.734A.333.333 0 0012.004 4z" fill="currentColor" fill-rule="nonzero"/>
    </g>
</svg>
