<svg xmlns="http://www.w3.org/2000/svg" viewBox="0 0 17 14"><g fill-rule="nonzero"><path d="M11.68 3.108a.175.175 0 01-.13-.168v-.754a2.1 2.1 0 00-2.1-2.1h-6.3a2.1 2.1 0 00-2.1 2.1v.754c0 .08-.054.15-.132.17C.38 3.246.002 3.731 0 4.288v1.4c.001.557.38 1.043.92 1.18.076.02.13.09.13.17v2.847a2.09 2.09 0 00.97 1.759c.05.032.08.087.08.147v.897a1.225 1.225 0 002.45 0v-.528c0-.097.078-.175.175-.175h3.15c.097 0 .175.078.175.175v.528a1.225 1.225 0 002.45 0v-.897c0-.06.03-.115.08-.147a2.09 2.09 0 00.97-1.759V7.04c0-.08.054-.15.13-.17.54-.137.919-.623.92-1.18v-1.4a1.222 1.222 0 00-.92-1.181zm-7.83 6.956h-.7a.525.525 0 010-1.05h.7a.525.525 0 010 1.05zm5.6 0h-.7a.525.525 0 010-1.05h.7a.525.525 0 010 1.05zm.7-2.628a.175.175 0 01-.175.175h-7.35a.175.175 0 01-.175-.175v-5.25a.7.7 0 01.7-.7h6.3a.7.7 0 01.7.7v5.25zM14.875 4.289a1.922 1.922 0 00-.805 3.67c.062.029.102.09.102.159v5.096a.7.7 0 001.4 0V8.12c0-.068.04-.13.102-.159a1.922 1.922 0 00-.799-3.672z"/></g></svg>
