<svg xmlns="http://www.w3.org/2000/svg" viewBox="0 0 40 40" fill="currentColor">
<g><path d="M12.5 17.5h-1.667a1.667 1.667 0 000 3.333H12.5a1.667 1.667 0 100-3.333zM20.833 17.5h-1.666a1.667 1.667 0 000 3.333h1.666a1.667 1.667 0 100-3.333zM29.167 17.5H27.5a1.667 1.667 0 000 3.333h1.667a1.667 1.667 0 000-3.333zM12.5 24.167h-1.667a1.667 1.667 0 000 3.333H12.5a1.667 1.667 0 000-3.333zM20.833 24.167h-1.666a1.667 1.667 0 100 3.333h1.666a1.667 1.667 0 000-3.333zM29.167 24.167H27.5a1.667 1.667 0 100 3.333h1.667a1.667 1.667 0 000-3.333zM12.5 30.833h-1.667a1.667 1.667 0 000 3.334H12.5a1.667 1.667 0 000-3.334zM20.833 30.833h-1.666a1.667 1.667 0 000 3.334h1.666a1.667 1.667 0 000-3.334zM29.167 30.833H27.5a1.667 1.667 0 000 3.334h1.667a1.667 1.667 0 000-3.334z"/><path d="M35.833 5H31.25a.417.417 0 01-.417-.417V1.667a1.667 1.667 0 10-3.333 0v7.916a1.25 1.25 0 01-2.5 0v-3.75A.833.833 0 0024.167 5H13.75a.417.417 0 01-.417-.415V1.667a1.667 1.667 0 10-3.333 0v7.916a1.25 1.25 0 11-2.5 0v-3.75A.833.833 0 006.667 5h-2.5A3.333 3.333 0 00.833 8.333v28.334A3.333 3.333 0 004.167 40h31.666a3.333 3.333 0 003.334-3.333V8.333A3.333 3.333 0 0035.833 5zm0 30.833c0 .46-.373.834-.833.834H5a.833.833 0 01-.833-.834v-20c0-.46.373-.833.833-.833h30c.46 0 .833.373.833.833v20z"/></g></svg>
