<svg xmlns="http://www.w3.org/2000/svg" viewBox="0 0 17 18"><g fill-rule="nonzero"><path d="M4.144 3.525h.168c-.093.431-.15.881-.15 1.313v2.268c0 .263.207.469.47.469h.787a.464.464 0 00.469-.469v-.731h4.725v.731c0 .263.206.469.468.469h.788a.464.464 0 00.469-.469v-2.25c0-.45-.057-.881-.15-1.312h.168a.464.464 0 00.469-.469v-.263a.464.464 0 00-.469-.468h-.6l-.393-1.219A1.492 1.492 0 009.938.094H6.543c-.656 0-1.219.412-1.425 1.031l-.394 1.2h-.6a.464.464 0 00-.469.469v.262a.493.493 0 00.488.469zm7.031.844v.45c0 .15-.131.281-.281.281h-.957c-.187 0-.318-.169-.28-.356l.056-.3a.28.28 0 01.243-.225l.882-.15a.306.306 0 01.337.3zM6.019 1.406a.546.546 0 01.525-.375h3.412c.244 0 .45.15.525.375l.45 1.407c.019.056-.018.13-.093.13H5.663c-.075 0-.113-.055-.094-.13l.45-1.407zM5.325 4.37c0-.169.15-.319.337-.281l.882.15a.329.329 0 01.244.224l.056.3c.037.188-.094.357-.282.357h-.956a.288.288 0 01-.281-.281v-.47z"/><circle cx="3.15" cy="10.556" r="2.006"/><path d="M5.231 13.594c-.375-.281-.825-.469-1.331-.469H2.4a2.13 2.13 0 00-2.119 1.894l-.206 1.743a.434.434 0 00.337.488c.863.188 1.782.281 2.738.281.375 0 .75-.018 1.125-.037-.038-.15-.038-.3-.019-.45l.207-1.744a2.99 2.99 0 01.768-1.706z"/><circle cx="13.35" cy="10.556" r="2.006"/><path d="M16.219 15.019a2.117 2.117 0 00-2.119-1.894h-1.5c-.506 0-.956.169-1.331.469.412.45.694 1.05.768 1.687l.207 1.744c.018.15.018.319-.019.45.375.037.731.037 1.125.037.956 0 1.875-.093 2.737-.28a.434.434 0 00.338-.488l-.206-1.725zM9 13.5H7.5a2.13 2.13 0 00-2.119 1.894l-.206 1.743a.45.45 0 00.338.488c.862.188 1.78.281 2.737.281.956 0 1.875-.093 2.738-.281a.434.434 0 00.337-.488l-.206-1.743A2.132 2.132 0 009 13.5z"/><circle cx="8.25" cy="10.95" r="2.006"/></g></svg>
