<svg xmlns="http://www.w3.org/2000/svg" viewBox="0 0 18 18"><path d="M1.605.378a.967.967 0 011.231.584l.881 2.466a.321.321 0 01-.302.43H2.049a.32.32 0 01-.302-.214L1.021 1.61A.963.963 0 011.605.378zM8.198 11.38a.643.643 0 00-.484.622v2.784c0 .355.288.643.643.643h1.286a.964.964 0 110 1.928H3.857a.964.964 0 010-1.928h1.286a.643.643 0 00.643-.643v-2.784c0-.293-.2-.55-.484-.622A5.786 5.786 0 01.964 5.786c0-.355.288-.643.643-.643h10.286c.355 0 .643.288.643.643a5.786 5.786 0 01-4.338 5.594zM13.5 9a.292.292 0 01-.244-.129.297.297 0 01-.023-.276c.388-.886.589-1.842.588-2.81a1.929 1.929 0 00-1.928-1.928h-1.525a.32.32 0 01-.285-.468A3.85 3.85 0 1113.5 9z" fill-rule="nonzero"/></svg>
