
<svg xmlns="http://www.w3.org/2000/svg" viewBox="0 0 18 18"><g fill-rule="nonzero" ><path d="M12.008 7.023a.375.375 0 00-.36-.273H6.343a.375.375 0 00-.362.273l-1.059 3.75a.375.375 0 00.361.477h7.425a.375.375 0 00.36-.477l-1.06-3.75zM17.25 16.5h-2.271a.375.375 0 01-.36-.273l-.697-2.454a.375.375 0 00-.36-.273H4.434a.375.375 0 00-.361.273l-.694 2.454a.375.375 0 01-.36.273H.75a.75.75 0 100 1.5h16.5a.75.75 0 100-1.5zM10.8 4.5a.375.375 0 00.36-.477L10.295.979A1.35 1.35 0 009 0a1.371 1.371 0 00-1.315.995L6.83 4.022a.375.375 0 00.36.477h3.61z"/></g></svg>
