<svg xmlns="http://www.w3.org/2000/svg" viewBox="0 0 16 17"><g stroke="#6D7A87" fill="none" fill-rule="evenodd" stroke-linecap="round" stroke-linejoin="round"><path d="M3.498 16.41h-2c-.552 0-1-.474-1-1.058V1.587c0-.585.448-1.059 1-1.059h7.086c.265 0 .52.111.707.31l3.914 4.145c.188.198.293.467.293.748V9"/><path d="M13.498 5.822h-4c-.552 0-1-.474-1-1.059V.528M5.498 16.41c1.105 0 2-.948 2-2.117v-1.06c0-1.169-.895-2.117-2-2.117v5.294zM10.498 11.116c-.552 0-1 .474-1 1.06v3.176c0 .584.448 1.058 1 1.058s1-.474 1-1.058v-3.177c0-.585-.448-1.059-1-1.059h0zM15.498 11.116c-1.105 0-2 .948-2 2.118v1.059c0 1.17.895 2.117 2 2.117"/></g></svg>
