<svg xmlns="http://www.w3.org/2000/svg" xmlns:xlink="http://www.w3.org/1999/xlink" viewBox="0 0 30 30"><defs><path id="a" d="M0 0h30v30H0z"/><path d="M26.25 14.875c2.125 0 3.75 1.625 3.75 3.75v3.75c0 2.125-1.625 3.75-3.75 3.75H25v3.125c0 .25-.125.5-.375.625-.125.125-.125.125-.25.125s-.375-.125-.5-.125l-3.5-3.625H17.5c-2.125 0-3.75-1.625-3.75-3.75v-1.875c0-.375.25-.625.625-.625s.625.25.625.625V22.5c0 1.375 1.125 2.5 2.5 2.5h3.125c.125 0 .375.125.5.125l2.625 2.625V25.5c0-.375.25-.625.625-.625h1.875c1.375 0 2.5-1.125 2.5-2.5v-3.75c0-1.375-1.125-2.5-2.5-2.5h-.625c-.375 0-.625-.25-.625-.625s.25-.625.625-.625h.625zM18.125 0c3.125 0 5.625 2.5 5.625 5.625v6.25c0 3.125-2.5 5.625-5.625 5.625H12.75l-5.5 4.875c-.125.125-.25.125-.375.125h-.25a.687.687 0 01-.375-.625V17.5h-.625A5.602 5.602 0 010 11.875v-6.25C0 2.5 2.5 0 5.625 0h12.5zm0 1.25h-12.5c-2.375 0-4.375 2-4.375 4.375v6.25c0 2.375 2 4.375 4.375 4.375h1.25c.375 0 .625.25.625.625V20.5l4.625-4.125c.1-.1.2-.12.3-.124l5.7-.001c2.375 0 4.375-2 4.375-4.375v-6.25c0-2.375-2-4.375-4.375-4.375z" id="c"/></defs><g fill="none" fill-rule="evenodd"><mask id="b" fill="#fff"><use xlink:href="#a"/></mask><g mask="url(#b)"><mask id="d" fill="#fff"><use xlink:href="#c"/></mask><use fill="#000" fill-rule="nonzero" xlink:href="#c"/><path fill="#FFF" mask="url(#d)" d="M0 0h30v30H0z"/></g></g></svg>