
<svg xmlns="http://www.w3.org/2000/svg" viewBox="0 0 18 17"><g fill-rule="nonzero"><path d="M10.031 8.906h-.094v7.088c0 .169.132.319.32.319.168 0 .318-.15.318-.32v-7.2l-.188.057a1.274 1.274 0 01-.356.056z"/><path d="M17.381 8.1c-.356-.9-1.218-2.25-1.594-2.85l-.618-1.2c-.019-.056-.056-.094-.094-.15a1.427 1.427 0 00-1.031-.525 1.485 1.485 0 00-1.425.9L11.53 6.469l-1.706.487a.742.742 0 00-.506.919.76.76 0 00.712.544c.075 0 .131-.019.207-.038l2.024-.581a.755.755 0 00.47-.394l.487-.975c.769 1.556.562 2.006-.281 3.694a.314.314 0 00.187.45c.281.094.563.15.863.206l-.113.244c-.056.131-.075.262-.056.394l.243 4.031a.882.882 0 00.882.825H15a.881.881 0 00.825-.937l-.225-3.825.263-.62a14.34 14.34 0 001.78-.168c.17-.019.282-.188.263-.356-.056-.469-.187-1.444-.525-2.269zM11.813 3.6c.862 0 1.556-.694 1.556-1.556 0-.207-.038-.413-.131-.6a.512.512 0 00.356-.15.51.51 0 000-.732l-.3-.3a.51.51 0 00-.732 0 .512.512 0 00-.15.357 1.642 1.642 0 00-.6-.132c-.862 0-1.556.694-1.556 1.557 0 .862.694 1.556 1.556 1.556zM6.787 8.944L6.6 8.887v7.144c0 .169.15.319.319.319s.319-.15.319-.319v-7.05h-.094c-.113 0-.244-.018-.357-.037z"/><path d="M7.35 6.975l-1.688-.487-1.087-2.194a2.606 2.606 0 00-.338-.506c-.3-.3-.693-.45-1.106-.413a1.42 1.42 0 00-1.05.544c-.037.056-.075.094-.093.15L.206 7.537a.994.994 0 000 .863l1.669 3.188-.581 3.712a.962.962 0 00.787 1.087c.057 0 .094.02.15.02.45 0 .863-.338.938-.807l.637-4.031a.878.878 0 00-.094-.582l-1.03-1.95 1.274-2.475.469.938c.094.206.281.338.487.412l2.026.582c.075.018.15.037.224.037a.782.782 0 00.75-.562.808.808 0 00-.562-.994z"/><circle cx="5.362" cy="2.1" r="1.556"/></g></svg>
