<svg viewBox="0 0 12 12" width="12" height="12" xmlns="http://www.w3.org/2000/svg">
    <g fill="currentColor" fill-rule="nonzero">
        <path d="M9.704 6.149a.763.763 0 00-.762.762v3.238a.318.318 0 01-.318.318h-6.78a.319.319 0 01-.319-.318v-6.78c0-.176.143-.318.318-.318h3.238a.762.762 0 100-1.526H1.843A1.845 1.845 0 000 3.37v6.78c0 1.016.827 1.843 1.843 1.843h6.78a1.846 1.846 0 001.844-1.843V6.91a.762.762 0 00-.763-.762z"/>
        <path d="M10.149 0H6.987a.762.762 0 100 1.525H9.39L4.328 6.586a.762.762 0 101.078 1.078l5.06-5.06v2.4a.763.763 0 001.526 0v-3.16A1.845 1.845 0 0010.15 0z"/>
    </g>
</svg>
