<svg xmlns="http://www.w3.org/2000/svg" viewBox="0 0 18 14"><g fill-rule="nonzero"><path d="M4.177 10.922a1.505 1.505 0 01-1.032-1.425V8.175c0-.866.34-1.697.948-2.313a.375.375 0 00.058-.45 2.636 2.636 0 01-.32-.93.375.375 0 00-.307-.315A3 3 0 000 7.125v1.626c0 .207.168.375.375.375h.634c.193 0 .356.146.375.338l.37 3.7c.02.192.182.338.375.337h1.746a.375.375 0 00.375-.338l.185-1.846a.375.375 0 00-.258-.395zM3 3.75c.235 0 .468-.045.686-.133a.375.375 0 00.22-.244c.14-.486.417-.921.797-1.255a.375.375 0 00.127-.3A1.833 1.833 0 103 3.75zM7.968 4.105a1.52 1.52 0 10-3.04 0 1.52 1.52 0 003.04 0z"/><path d="M6.45 6a2.175 2.175 0 00-2.175 2.175v1.32c0 .206.168.374.375.374h.375a.375.375 0 01.375.338l.295 2.953c.02.193.182.339.375.338h.773a.375.375 0 00.375-.338L7.5 10.21a.375.375 0 01.375-.338h.375a.375.375 0 00.375-.375V8.175A2.175 2.175 0 006.45 6zM15 4.125c-.176 0-.352.015-.525.046a.375.375 0 00-.306.316 2.636 2.636 0 01-.32.929.375.375 0 00.057.45c.608.615.948 1.445.95 2.309v1.32a1.505 1.505 0 01-1.033 1.424.375.375 0 00-.255.394l.184 1.846c.02.193.182.339.375.338h1.75a.375.375 0 00.376-.338l.37-3.699a.375.375 0 01.375-.338h.627A.375.375 0 0018 8.747V7.125a3 3 0 00-3-3zM14.095 3.375c.032.11.113.2.22.244a1.833 1.833 0 10-1.145-1.8.375.375 0 00.127.3c.38.334.657.77.798 1.256zM11.55 2.584a1.52 1.52 0 100 3.041 1.52 1.52 0 000-3.04z"/><path d="M13.73 9.496V8.175a2.177 2.177 0 10-4.355 0v1.32c0 .206.168.374.375.374h.375a.375.375 0 01.375.338l.296 2.953c.019.193.181.339.375.338h.773a.375.375 0 00.375-.338l.295-2.953a.375.375 0 01.375-.338h.375a.375.375 0 00.375-.375l-.01.002z"/></g></svg>
