<svg xmlns="http://www.w3.org/2000/svg" viewBox="0 0 18 18"><g fill-rule="nonzero"><path d="M16.125 7.125a.75.75 0 00-.75.75v8.25A.375.375 0 0115 16.5H3a.375.375 0 01-.375-.375v-8.25a.75.75 0 00-1.5 0V16.5a1.5 1.5 0 001.5 1.5h12.75a1.5 1.5 0 001.5-1.5V7.875a.75.75 0 00-.75-.75z"/><path d="M8.256 6.604a.375.375 0 00.181-.32V.375A.375.375 0 008.063 0H5.569a.375.375 0 00-.363.284l-.686 2.74c-.03.12-.045.242-.045.365v2.599c0 .111.05.217.135.288a3.15 3.15 0 003.646.329zM3.136 6.037A.375.375 0 003.35 5.7V3.066L4 .466A.375.375 0 003.637 0H2.049a.782.782 0 00-.699.433L.079 2.973A.75.75 0 000 3.307v.605a2.25 2.25 0 003.136 2.124zM17.92 2.972L16.65.432A.782.782 0 0015.951 0h-1.588A.375.375 0 0014 .466l.65 2.6V5.7c0 .145.084.277.215.339A2.25 2.25 0 0018 3.913v-.605a.745.745 0 00-.08-.336zM13.39 6.277a.375.375 0 00.135-.288v-2.6c0-.123-.015-.245-.045-.364l-.686-2.74A.375.375 0 0012.43 0H9.939a.375.375 0 00-.376.375v5.907c0 .131.07.253.182.321a3.15 3.15 0 003.646-.325zM8.053 9.815a2.199 2.199 0 00-2.093.471c-.628.649-.685 1.804-.15 3.09.375.913 1.138 1.985 2.043 1.999.325-.003.64-.115.894-.317a.375.375 0 01.456 0c.256.203.572.315.9.318.895-.014 1.655-1.086 2.033-2 .532-1.285.475-2.44-.15-3.089a1.919 1.919 0 00-1.512-.537.188.188 0 01-.122-.335c.157-.123.342-.206.537-.242a.75.75 0 10-.294-1.471c-.993.2-1.803.915-2.124 1.875a.375.375 0 01-.418.238z"/></g></svg>
