<svg xmlns="http://www.w3.org/2000/svg" viewBox="0 0 16 16" fill="currentColor"><path d="M3.7 12.1h2.7c.3 0 .5-.2.5-.5s-.2-.5-.5-.5H3.7c-.2 0-.5.1-.7.1V3.6c0-.6.5-1.1 1.1-1.1h7.4v3.9c0 .3.2.5.5.5s.5-.2.5-.5v-4c0-.5-.4-.9-.9-.9H4.1C2.9 1.5 2 2.4 2 3.6v9.2c0 .9.8 1.7 1.7 1.7h2.7c.3 0 .5-.2.5-.5s-.2-.5-.5-.5H3.7c-.4 0-.7-.3-.7-.7s.3-.7.7-.7z"/><path class="st0" d="M13.9 9.7c-.1-.4-.5-.6-.8-.6h-1.2l-.7-1.5c-.2-.3-.5-.5-.8-.5-.3 0-.7.2-.8.5l-.7 1.5H7.7c-.4 0-.7.2-.9.6-.1.3 0 .7.2 1l1.1 1.1-.6 1.5c-.1.4-.1.8.2 1 .2.2.4.2.6.2.2 0 .3 0 .5-.1l1.6-.9 1.6.9c.3.2.8.2 1.1-.1.3-.3.4-.7.2-1l-.6-1.5 1.1-1.1c.2-.3.3-.7.1-1zm-2.2 1.6c-.1.1-.2.4-.1.5l.7 1.6-1.7-1c-.1 0-.2-.1-.2-.1s-.2 0-.2.1l-1.6.9.7-1.5c.1-.2 0-.4-.1-.5L8 10.1h1.3c.2 0 .4-.1.5-.3l.7-1.6.7 1.6c.1.2.3.3.5.3H13l-1.3 1.2z"/></svg>
