<svg viewBox="0 0 12 12" version="1.1" xmlns="http://www.w3.org/2000/svg" xmlns:xlink="http://www.w3.org/1999/xlink">
    <path d="M11.379732,0.999031911 C11.1477412,0.859404732 10.848055,0.843001729 10.5983716,0.956264988 C9.96346828,1.1845043 9.28826894,1.31260279 8.60338833,1.33475225 C7.82210561,1.28390288 7.05165561,1.14315341 6.31152677,0.916064081 C4.68836659,0.496948242 4.12603854,0.397728982 2.88147068,0.539715164 C2.51975918,0.581443263 2.24936819,0.854299114 2.24999886,1.17694231 L2.24999886,7.60053405 C2.24999886,7.78347405 2.33833234,7.95770594 2.49274465,8.07941695 C2.64715695,8.20112795 2.85297278,8.25873832 3.0584372,8.2377612 C4.14876375,8.12699487 4.6564546,8.2210821 6.17324145,8.61368245 C6.95774336,8.85413684 7.77499571,9.00098125 8.60338833,9.05033272 C9.44964336,9.02256206 10.2826275,8.85548245 11.059645,8.55765778 C11.3845672,8.44817446 11.6785703,8.30105624 11.6785703,7.9041792 L11.6785703,1.52335438 C11.6805231,1.31615205 11.569228,1.12086384 11.379732,0.999031911 Z" id="Path"></path>
    <path d="M0.75,0 C0.335786438,0 0,0.335786438 0,0.75 L0,11.25 C0,11.6642136 0.335786438,12 0.75,12 C1.16421356,12 1.5,11.6642136 1.5,11.25 L1.5,0.75 C1.5,0.335786438 1.16421356,0 0.75,0 Z" id="Path"></path>          
</svg>
