<svg xmlns="http://www.w3.org/2000/svg" viewBox="0 0 32 32">
<path d="M8.133 9.867a.666.666 0 00.907-.08c3.435-3.844 9.335-4.175 13.179-.74.201.18.396.369.581.566a.667.667 0 00.943.004l.004-.004L27.64 5.96a.667.667 0 00.004-.943l-.004-.004C21.581-1.419 11.455-1.72 5.023 4.337c-.407.383-.792.787-1.156 1.21A.666.666 0 004 6.533l4.133 3.334zM6.987 19.72a.666.666 0 00.186-.707 9.195 9.195 0 010-5.946.669.669 0 00-.213-.734L2.6 8.853a.667.667 0 00-1.013.227 15.908 15.908 0 00.2 14.2.667.667 0 001.04.187l4.16-3.747zM32 14a.667.667 0 00-.667-.667H18a.667.667 0 00-.667.667v5.333c0 .368.299.667.667.667h6.453a9.1 9.1 0 01-1.52 2.227.666.666 0 000 .893l3.56 4a.666.666 0 00.974 0A15.998 15.998 0 0032 16.8V14zM20.693 24.613a.666.666 0 00-.773-.16 9.24 9.24 0 01-10.8-2.173.666.666 0 00-.933 0l-4 3.573a.667.667 0 00-.004.943l.004.004a16 16 0 0020 3 .667.667 0 00.16-1.013l-3.654-4.174z" /></svg>
