
<svg xmlns="http://www.w3.org/2000/svg" viewBox="0 0 18 18"><path d="M17.747 5.072a.75.75 0 00-.722-.947H4.16a.187.187 0 01-.185-.15l-.429-2.04A2.448 2.448 0 001.163 0a.937.937 0 100 1.875.564.564 0 01.55.45l2.375 11.302c.123.58.452 1.094.927 1.448a.187.187 0 01.01.292 1.5 1.5 0 102.325.467.186.186 0 01.008-.182.189.189 0 01.16-.089h4.478a.187.187 0 01.168.271 1.5 1.5 0 102.68-.009.18.18 0 01.162-.262.937.937 0 100-1.876H6.473a.565.565 0 01-.55-.446l-.135-.641a.187.187 0 01.184-.225h8.066a2.25 2.25 0 002.17-1.658l1.54-5.645z" fill-rule="nonzero"/></svg>
