<svg viewBox="0 0 12 12" version="1.1" xmlns="http://www.w3.org/2000/svg" xmlns:xlink="http://www.w3.org/1999/xlink">
    <path d="M11.125,3.57942761 L8.7465,3.57942761 C8.70940252,3.57943998 8.67421607,3.56297383 8.65045734,3.53448268 C8.62669862,3.50599152 8.61682245,3.46841917 8.6235,3.43192761 L9.1145,0.736927614 C9.15460307,0.517387906 9.07453679,0.293130117 8.90446136,0.148629989 C8.73438593,0.00412986112 8.50013985,-0.0386595981 8.28996135,0.0363799871 C8.07978285,0.111419572 7.92560306,0.292887903 7.8855,0.512427614 L7.345,3.47592761 C7.33416139,3.5354058 7.28245725,3.57870276 7.222,3.57892761 L5.4055,3.57892761 C5.36840252,3.57893998 5.33321607,3.56247383 5.30945734,3.53398268 C5.28569862,3.50549152 5.27582245,3.46791917 5.2825,3.43142761 L5.774,0.736427614 C5.82970448,0.399868329 5.6052436,0.0808135663 5.26965413,0.0195367574 C4.93406465,-0.0417400515 4.61133229,0.177400207 4.5445,0.511927614 L4.004,3.47592761 C3.99316139,3.5354058 3.94145725,3.57870276 3.881,3.57892761 L1.581,3.57892761 C1.23582204,3.57892762 0.956000019,3.85874965 0.956000019,4.20392761 C0.956000019,4.54910558 1.23582204,4.8289276 1.581,4.82892761 L3.6075,4.82892761 C3.64488894,4.82957256 3.6800598,4.84679162 3.7035,4.87592761 C3.72751525,4.90426473 3.73743862,4.9419368 3.7305,4.97842761 L3.395,6.81742761 C3.38413285,6.8768146 3.33237308,6.91994774 3.272,6.91992761 L0.625,6.91992761 C0.279822031,6.91992761 0,7.19974965 0,7.54492761 C0,7.89010558 0.279822031,8.16992761 0.625,8.16992761 L2.9985,8.16992761 C3.03560711,8.16987171 3.07080511,8.18637077 3.0945,8.21492761 C3.11778082,8.24266167 3.12765832,8.27924499 3.1215,8.31492761 L2.6305,11.0099276 C2.57479552,11.3464869 2.7992564,11.6655417 3.13484587,11.7268185 C3.47043535,11.7880953 3.79316771,11.568955 3.86,11.2344276 L4.4,8.26992761 C4.41226924,8.21174787 4.46354079,8.17006369 4.523,8.16992761 L6.3395,8.16992761 C6.37659748,8.16991525 6.41178393,8.18638139 6.43554266,8.21487255 C6.45930138,8.24336371 6.46917755,8.28093606 6.4625,8.31742761 L5.971,11.0124276 C5.91529552,11.3489869 6.1397564,11.6680417 6.47534587,11.7293185 C6.81093535,11.7905953 7.13366771,11.571455 7.2005,11.2369276 L7.741,8.27242761 C7.75309521,8.21414184 7.80447251,8.17237168 7.864,8.17242761 L10.1705,8.17242761 C10.515678,8.17242761 10.7955,7.89260558 10.7955,7.54742761 C10.7955,7.20224965 10.515678,6.92242761 10.1705,6.92242761 L8.1375,6.92242761 C8.10040252,6.92243998 8.06521607,6.90597383 8.04145734,6.87748268 C8.01769862,6.84899152 8.00782245,6.81141917 8.0145,6.77492761 L8.35,4.93442761 C8.36086715,4.87504063 8.41262692,4.83190749 8.473,4.83192761 L11.123,4.83192761 C11.468178,4.83192761 11.748,4.55210558 11.748,4.20692761 C11.748,3.86174965 11.468178,3.58192761 11.123,3.58192761 L11.125,3.57942761 Z M6.736,6.81742761 C6.72513285,6.8768146 6.67337308,6.91992762 6.613,6.91992762 L4.7965,6.91992762 C4.75940252,6.91992762 4.72421607,6.90347383 4.70045734,6.87498268 C4.67669862,6.84649152 4.66682245,6.80891917 4.6735,6.77242761 L5.009,4.93192761 C5.02005087,4.87264811 5.07169951,4.82960757 5.132,4.8294264 L6.9485,4.8294264 C6.98555395,4.82926385 7.02075527,4.84561361 7.04453387,4.87403193 C7.06831246,4.90245025 7.07819693,4.9399835 7.0715,4.97642761 L6.736,6.81742761 Z" fill-rule="nonzero"></path>
</svg>
