<svg xmlns="http://www.w3.org/2000/svg" viewBox="0 0 17 18"><g fill-rule="evenodd"><g fill-rule="nonzero"><path d="M2.068 9.294a.375.375 0 00.318-.176l.756-1.205a1.19 1.19 0 011.081-.591c.435.019.828.266 1.034.65l.687 1.23a.187.187 0 00.337-.018l1.2-2.872a1.247 1.247 0 011.274-.788c.538.075.971.477 1.086 1.007l.997 4.169a.188.188 0 00.355.03l.268-.642a1.255 1.255 0 011.143-.794h2.846c.153 0 .29-.092.348-.233.442-1.027.68-2.13.702-3.247 0-3.46-2.007-5.163-3.996-5.315a4.224 4.224 0 00-4.085 2.563.188.188 0 01-.338 0A4.213 4.213 0 003.996.498C2.007.65 0 2.353 0 5.814c.022 1.117.26 2.22.702 3.247a.375.375 0 00.347.233h1.02z"/><path d="M13.043 10.794a.375.375 0 00-.346.23l-.647 1.544a1.252 1.252 0 01-1.142.795c-.044 0-.089-.003-.133-.008a1.29 1.29 0 01-1.084-1.006L8.694 8.18a.187.187 0 00-.356-.028L7.31 10.61a1.255 1.255 0 01-1.058.79 1.217 1.217 0 01-1.161-.649l-.768-1.376A.187.187 0 004 9.366l-.525.834a1.23 1.23 0 01-1.039.593h-.21a.375.375 0 00-.314.578 21.604 21.604 0 005.928 6.032.84.84 0 00.82 0 21.6 21.6 0 005.925-6.031.375.375 0 00-.315-.579l-1.227.001z"/></g></g></svg>
