<svg xmlns="http://www.w3.org/2000/svg" viewBox="0 0 18 18"><g fill-rule="nonzero"><path d="M9.259 3.633a.375.375 0 00-.518 0l-6 5.728a.375.375 0 00-.116.27v7.431c0 .415.336.75.75.75h11.25a.75.75 0 00.75-.75v-7.43c0-.103-.042-.2-.116-.271l-6-5.728zm3.491 9.013c0 .23-.187.417-.417.417h-1.708a.375.375 0 00-.375.375v1.712a.416.416 0 01-.417.416H8.167a.416.416 0 01-.417-.416v-1.712a.375.375 0 00-.375-.375H5.667a.417.417 0 01-.417-.417v-1.667a.416.416 0 01.417-.416h1.708a.375.375 0 00.375-.375V8.479c0-.23.186-.416.417-.416h1.666a.417.417 0 01.417.416v1.709c0 .207.168.375.375.375h1.708a.416.416 0 01.417.416v1.667z"/><path d="M17.767 8.27L9.517.395a.75.75 0 00-1.034 0L.232 8.27a.75.75 0 001.034 1.085l7.474-7.133a.375.375 0 01.518 0l7.474 7.133a.75.75 0 001.034-1.085z"/></g></svg>
