<svg viewBox="0 0 8 8" xmlns="http://www.w3.org/2000/svg" fill="currentColor"><g><path d="M5.337 3.121A.167.167 0 005.177 3H2.819c-.075 0-.14.05-.16.121l-.471 1.667a.167.167 0 00.16.212h3.3a.167.167 0 00.16-.212l-.471-1.667zM7.667 7.333h-1.01a.167.167 0 01-.16-.121l-.31-1.09A.167.167 0 006.028 6H1.971c-.075 0-.14.05-.16.121l-.309 1.091a.167.167 0 01-.16.121H.333a.333.333 0 000 .667h7.334a.333.333 0 000-.667zM4.8 2a.167.167 0 00.16-.212L4.575.435A.6.6 0 004 0a.61.61 0 00-.584.442l-.38 1.346a.167.167 0 00.16.212H4.8z"/></g></svg>
