<svg xmlns="http://www.w3.org/2000/svg" viewBox="0 0 16 16" fill="currentColor"><path d="M8 0a8 8 0 110 16A8 8 0 018 0zm1.286 3.168a.642.642 0 00-.386.562l-.052 1.692a.107.107 0 01-.071.096c-2.123.747-3.584 2.053-4.03 3.618-.413 1.445.104 2.985 1.456 4.337a.4.4 0 00.564-.016.4.4 0 00.016-.564c-.65-.65-.865-1.388-.618-2.137.304-.923 1.243-1.73 2.467-2.157a.093.093 0 01.128.091l-.04 1.41a.558.558 0 00.353.542c.221.087.48.028.656-.148l3.42-3.42a.4.4 0 00.016-.564L9.934 3.28a.582.582 0 00-.648-.112z" /></svg>
