<svg fill="currentColor" xmlns="http://www.w3.org/2000/svg" viewBox="0 0 32 32"><path fill-rule="evenodd" clip-rule="evenodd" d="M1.833 27.398a.833.833 0 00-.833.834v2c0 .092.075.166.167.166h12a.167.167 0 00.166-.166v-2a.833.833 0 00-.833-.834H1.833zM0 28.232c0-1.013.82-1.834 1.833-1.834H12.5c1.012 0 1.833.821 1.833 1.834v2c0 .644-.522 1.166-1.166 1.166h-12A1.167 1.167 0 010 30.232v-2z" /><path fill-rule="evenodd" clip-rule="evenodd" d="M3.167 24.732a.833.833 0 00-.834.833v.833H12v-.833a.833.833 0 00-.833-.833h-8zm-1.834.833c0-1.013.821-1.833 1.834-1.833h8c1.012 0 1.833.82 1.833 1.833v1.333a.5.5 0 01-.5.5H1.833a.5.5 0 01-.5-.5v-1.333zM8.813 11.251a.5.5 0 010-.707l7.334-7.333a.5.5 0 01.707 0l4.667 4.667a.5.5 0 010 .707l-7.334 7.333a.5.5 0 01-.707 0l-4.667-4.667zm1.061-.353l3.96 3.96 6.626-6.626-3.96-3.96-6.626 6.626z" /><path fill-rule="evenodd" clip-rule="evenodd" d="M7.437 9.34c.493-.043.999.12 1.416.538l.667.667a.5.5 0 11-.707.706l-.666-.665c-.21-.21-.426-.267-.623-.25a1.024 1.024 0 00-.614.307c-.18.18-.29.402-.308.612-.017.195.04.411.252.623l6 6c.21.211.427.268.623.25.21-.018.434-.126.614-.306s.289-.402.307-.613c.017-.195-.04-.412-.252-.624l-.666-.667a.5.5 0 11.707-.707l.667.667c.418.418.584.924.54 1.419-.041.479-.276.913-.596 1.233-.32.32-.755.553-1.234.595-.494.043-1-.122-1.418-.54l-6-6c-.418-.418-.583-.924-.54-1.418.042-.479.277-.912.597-1.232a2.02 2.02 0 011.234-.595zM16.77.007c.493-.044.999.12 1.416.537l6 6c.42.42.585.925.542 1.42-.042.479-.277.913-.597 1.233-.32.32-.755.553-1.234.595-.494.043-1-.122-1.417-.54l-.667-.667a.5.5 0 11.708-.707l.666.667c.21.21.427.268.623.25a1.02 1.02 0 00.615-.306c.18-.18.288-.403.307-.613.017-.195-.04-.412-.252-.624l-6-6c-.21-.21-.426-.266-.622-.25a1.024 1.024 0 00-.615.308c-.18.18-.289.402-.307.612-.017.195.039.41.25.623l.668.666a.5.5 0 01-.708.707l-.666-.666c-.418-.418-.584-.924-.54-1.418.042-.479.276-.913.597-1.232A2.02 2.02 0 0116.77.007zM17.146 11.543a.5.5 0 01.708 0L31.52 25.21a.5.5 0 11-.707.707L17.146 12.25a.5.5 0 010-.707z"/></svg>
