<svg viewBox="0 0 12 15" version="1.1" xmlns="http://www.w3.org/2000/svg" xmlns:xlink="http://www.w3.org/1999/xlink">
   <path d="M9.73384615,5.38523077 C9.60369665,5.38523176 9.49804686,5.27999466 9.49753846,5.14984615 L9.49753846,3.81969231 C9.49753846,1.7101345 7.78740396,0 5.67784615,0 C3.56828834,0 1.85815385,1.7101345 1.85815385,3.81969231 L1.85815385,5.14984615 C1.85815385,5.21227404 1.83335447,5.27214503 1.78921129,5.31628821 C1.74506811,5.36043139 1.68519711,5.38523077 1.62276923,5.38523077 C0.727259005,5.38523019 0.00101878296,6.1106442 0,7.00615385 L0,13.3753846 C0.00101822782,14.2700242 0.726283073,14.994876 1.62092308,14.9953846 L9.732,14.9953846 C10.6237705,14.9953846 11.3482631,14.2754453 11.353859,13.3836923 L11.353859,7.01446154 C11.355563,6.58343739 11.1857316,6.16943815 10.8818161,5.86379101 C10.5779007,5.55814387 10.1648731,5.38596289 9.73384615,5.38523077 Z M5.67784615,11.9298462 C4.91314419,11.9298462 4.29323077,11.3099327 4.29323077,10.5452308 C4.29323077,9.78052881 4.91314419,9.16061538 5.67784615,9.16061538 C6.44254812,9.16061538 7.06246154,9.78052881 7.06246154,10.5452308 C7.06246154,11.3099327 6.44254812,11.9298462 5.67784615,11.9298462 Z M7.65138462,4.92369231 C7.65138462,5.17859296 7.44474681,5.38523077 7.18984615,5.38523077 L4.16584615,5.38523077 C3.9109455,5.38523077 3.70430769,5.17859296 3.70430769,4.92369231 L3.70430769,3.816 C3.70430769,2.7260448 4.58789096,1.84246154 5.67784615,1.84246154 C6.76780135,1.84246154 7.65138462,2.7260448 7.65138462,3.816 L7.65138462,4.92369231 Z"></path>     
</svg>
