<svg fill="currentColor" xmlns="http://www.w3.org/2000/svg" viewBox="0 0 32 32" xml:space="preserve"><path class="st0" d="M31.6 31l-4.4-4.4c1.2-1.2 2-2.8 2-4.6 0-3.6-2.9-6.5-6.5-6.5s-6.5 2.9-6.5 6.5 2.9 6.5 6.5 6.5c1.4 0 2.7-.5 3.8-1.2l4.4 4.4c.1.1.3.1.4.1.2 0 .3 0 .3-.1.2-.2.2-.5 0-.7zm-14.4-9c0-3 2.5-5.5 5.5-5.5s5.5 2.5 5.5 5.5c0 1.6-.7 3.1-1.8 4.1-.1 0-.2.1-.3.1-.1.1-.1.1-.1.2-.9.7-2.1 1.1-3.3 1.1-3 0-5.5-2.5-5.5-5.5z"/><path class="st0" d="M14.6 1.2C22 1.2 28.1 6 28.1 12c0 .7-.1 1.3-.2 1.9 0 .3.1.5.4.6.3 0 .5-.1.6-.4.1-.7.2-1.4.2-2.1C29.1 5.5 22.6.2 14.6.2S.1 5.5.1 12c.1 3.2 1.5 6.1 3.9 8.1l-2.5 5.7c-.1.2 0 .5.1.6.1.1.3.1.4.1h.2l7.3-3.4c1 .3 2.1.5 3.1.6.3.1.6-.1.6-.4.1-.3-.1-.6-.4-.6-1.1-.1-2.1-.3-3.1-.6-.2-.1-.3-.1-.4 0L3 25l2.2-4.9c0-.2 0-.5-.2-.6C2.7 17.7 1.3 15 1.2 12c0-6 6-10.8 13.4-10.8z"/></svg>
