<svg viewBox="0 0 12 12" version="1.1" xmlns="http://www.w3.org/2000/svg" xmlns:xlink="http://www.w3.org/1999/xlink">
    <path d="M9.371077,4.33993113 C7.66473854,3.33611574 5.31938469,3.47494651 2.881477,4.71113113 C2.83397515,4.73510892 2.77645789,4.72598549 2.73870777,4.68848498 L1.25883085,3.21451574 C1.04719051,3.00432851 0.729882832,2.9421019 0.454532524,3.05678633 C0.179182216,3.17147075 -0.000137606804,3.44054456 0,3.73882344 L0,9.54805421 C0,9.81994824 0.220413741,10.040362 0.492307772,10.040362 L6.29760008,10.040362 C6.59638387,10.0404973 6.86580763,9.86057537 6.98016556,9.5845427 C7.09452349,9.30851002 7.03127833,8.99076622 6.81993854,8.7795619 L5.58916931,7.54879267 C5.56122287,7.52115461 5.54822404,7.48179195 5.55421546,7.44294651 C5.56043273,7.40407327 5.58473076,7.37045796 5.61969239,7.3523619 C7.02129239,6.63506959 8.50313854,6.51543882 9.54436931,7.07420805 C10.3876924,7.52270036 10.8307693,8.37882344 10.8307693,9.54706959 C10.8307693,9.81896362 11.051183,10.0393773 11.323077,10.0393773 C11.594971,10.0393773 11.8153847,9.81896362 11.8153847,9.54706959 C11.8153847,7.11753113 10.9474462,5.26793113 9.371077,4.33993113 Z" fill-rule="nonzero"></path>
</svg>
