<svg xmlns="http://www.w3.org/2000/svg" viewBox="0 0 17 18"><g fill-rule="nonzero"><path d="M15.81 12.262a.75.75 0 00-1.017.3 7.35 7.35 0 01-.675 1.006.075.075 0 01-.06.029h-1.526a.075.075 0 01-.07-.104c.043-.103.087-.206.127-.315a.75.75 0 00-1.41-.515 8.016 8.016 0 01-.394.893.075.075 0 01-.067.04H5.866a.075.075 0 01-.066-.039 8.154 8.154 0 01-.428-.911.75.75 0 00-1.397.546c.04.103.083.201.127.3a.075.075 0 01-.069.106H2.44a.075.075 0 01-.059-.029 7.386 7.386 0 01-.675-1.005.75.75 0 10-1.317.718 8.951 8.951 0 0015.72 0 .75.75 0 00-.298-1.02zm-3.553 2.835a.075.075 0 01.04.137c-.313.207-.643.39-.985.546a.075.075 0 01-.09-.022.075.075 0 010-.092c.13-.168.257-.346.382-.536a.075.075 0 01.062-.033h.59zm-2.677 0a.075.075 0 01.054.126 6.21 6.21 0 01-1.317 1.093.075.075 0 01-.08 0 7.33 7.33 0 01-1.262-1.091.075.075 0 01.056-.126l2.549-.002zm-4.14.633a.075.075 0 01-.087.116c-.4-.17-.785-.375-1.15-.611a.075.075 0 01.045-.138h.69c.026 0 .049.012.063.032.143.215.291.415.44.6zM.69 5.737a.75.75 0 001.017-.3c.197-.353.423-.69.675-1.006a.075.075 0 01.058-.029h1.593a.075.075 0 01.069.106 7.175 7.175 0 00-.126.296.75.75 0 101.396.547c.124-.312.268-.615.43-.91a.075.075 0 01.065-.038h4.767c.028 0 .053.014.066.038.162.295.305.598.429.91a.75.75 0 101.396-.547c-.04-.102-.083-.2-.126-.296a.075.075 0 01.069-.106h1.591c.024 0 .045.01.06.029.252.316.478.653.675 1.006a.75.75 0 001.317-.719 8.951 8.951 0 00-15.72 0 .75.75 0 00.298 1.02zm3.554-2.834a.075.075 0 01-.04-.138 7.388 7.388 0 011.148-.611.075.075 0 01.088.115c-.15.187-.297.387-.443.6a.075.075 0 01-.061.033l-.692.001zm2.794 0a.075.075 0 01-.055-.126A7.46 7.46 0 018.21 1.705a.075.075 0 01.085 0c.449.31.861.669 1.23 1.07a.075.075 0 01-.056.126l-2.431.002zm4.022-.633a.075.075 0 010-.092.075.075 0 01.09-.024c.399.17.783.375 1.147.611a.075.075 0 01-.041.138h-.69a.075.075 0 01-.063-.033 9.836 9.836 0 00-.443-.6zM6.395 6.917a.656.656 0 00-.656.657v.959c0 .643.14 1.279.411 1.862l.468 1.018a.656.656 0 00.6.381h.037a.656.656 0 00.586-.45l.125-.381a.075.075 0 01.143 0l.125.382a.656.656 0 001.22.07l.468-1.02c.271-.583.412-1.218.412-1.861v-.959a.656.656 0 10-1.312 0v.96c0 .15-.011.3-.033.45a.075.075 0 01-.068.063.075.075 0 01-.075-.051l-.182-.555a.656.656 0 00-1.246 0l-.183.555a.075.075 0 01-.075.052.075.075 0 01-.067-.064 3.088 3.088 0 01-.033-.45v-.96a.656.656 0 00-.665-.658zM11.53 6.917a.656.656 0 00-.656.657v.959c.002.656.16 1.303.463 1.886l.518 1.018a.657.657 0 001.2-.075l.225-.61a.075.075 0 01.141 0l.225.61c.09.245.316.414.577.43h.04a.658.658 0 00.585-.358l.519-1.018c.302-.583.46-1.23.462-1.886v-.955a.656.656 0 10-1.313 0v.96c0 .242-.032.485-.097.72a.075.075 0 01-.069.055.075.075 0 01-.075-.05l-.306-.84a.657.657 0 00-1.233 0l-.306.84a.075.075 0 01-.143-.006 2.721 2.721 0 01-.097-.72v-.959a.656.656 0 00-.66-.658zM1.194 6.917a.656.656 0 00-.656.657v.959c0 .643.14 1.278.411 1.862l.469 1.018a.656.656 0 001.219-.07l.126-.382a.075.075 0 01.143 0l.125.383a.656.656 0 00.586.45h.038c.256 0 .488-.15.595-.382l.468-1.017c.272-.584.412-1.22.413-1.863v-.957a.656.656 0 10-1.313 0v.96c0 .15-.01.3-.033.45a.075.075 0 01-.067.063.075.075 0 01-.075-.052l-.182-.555a.656.656 0 00-1.247 0l-.182.555a.075.075 0 01-.146-.013 3.075 3.075 0 01-.033-.45v-.958a.656.656 0 00-.659-.658z"/></g></svg>
