<svg xmlns="http://www.w3.org/2000/svg" viewBox="0 0 18 18"><g fill-rule="evenodd"><g fill-rule="nonzero"><path d="M17.913 17.385l-1.875-2.25A.375.375 0 0015.75 15H2.25a.375.375 0 00-.288.135l-1.875 2.25A.375.375 0 00.375 18h17.25a.375.375 0 00.288-.615z"/><rect x="2.25" y="7.875" width="3" height="6.375" rx=".5"/><rect x="7.5" y="7.875" width="3" height="6.375" rx=".5"/><rect x="12.75" y="7.875" width="3" height="6.375" rx=".5"/><path d="M1.563 6.958c.07.104.187.167.312.167h14.25a.375.375 0 00.312-.167l.75-1.125a.375.375 0 00-.312-.583H1.125a.375.375 0 00-.312.583l.75 1.125zM1.125 4.5h15.75a.375.375 0 00.161-.714L9.161.036a.38.38 0 00-.322 0L.964 3.786a.375.375 0 00.161.714z"/></g></g></svg>
