<svg fill="currentColor" xmlns="http://www.w3.org/2000/svg" viewBox="0 0 33 32"><path d="M17.25 9h-6a.75.75 0 100 1.5h6a.75.75 0 100-1.5zM18 13.25a.75.75 0 00-.75-.75h-8a.75.75 0 100 1.5h8a.75.75 0 00.75-.75zM9.25 16a.75.75 0 100 1.5h5.5a.75.75 0 100-1.5h-5.5z" /><path d="M15.8 21.655a.252.252 0 00-.231-.155H7a.5.5 0 01-.5-.5V6.5A.5.5 0 017 6h13a.5.5 0 01.5.5v10.07a.25.25 0 00.427.176l1.28-1.28a1 1 0 00.293-.707V6a2 2 0 00-2-2h-14a2 2 0 00-2 2v15.5a2 2 0 002 2h7.868a.5.5 0 00.478-.353c.095-.31.267-.592.5-.819l.4-.4a.25.25 0 00.054-.273zM16.562 24.13a.251.251 0 00-.422.129l-.628 3.14a.498.498 0 00.59.59l3.143-.628a.25.25 0 00.127-.422l-2.81-2.808zM27.727 15.765a2.62 2.62 0 00-3.7 0l-6.5 6.5a.5.5 0 000 .707l3 3a.5.5 0 00.707 0l6.5-6.5a2.622 2.622 0 00-.007-3.707z" /></svg>
