<svg xmlns="http://www.w3.org/2000/svg" viewBox="0 0 26 26"><path d="M13.586 1.011A11.972 11.972 0 002.801 8.906a.274.274 0 01-.3.18L.634 8.81a.57.57 0 00-.536.236.553.553 0 00-.024.587l2.964 5.2c.085.149.236.25.406.273.025.002.05.002.074 0a.553.553 0 00.39-.162l4.17-4.144a.553.553 0 00-.309-.939L5.871 9.58a.278.278 0 01-.212-.387 9.137 9.137 0 118.702 12.821 9.092 9.092 0 01-7.697-3.718 1.383 1.383 0 00-2.223 1.638 11.895 11.895 0 009.588 4.857c.146 0 .293 0 .442-.009a11.893 11.893 0 10-.876-23.77h-.009z" fill="#6C757D" fill-rule="nonzero"/></svg>
