<svg viewBox="0 0 48 48" fill="none" xmlns="http://www.w3.org/2000/svg">
<path d="M0.498047 24C0.498047 28.6483 1.87642 33.1921 4.45885 37.057C7.04128 40.9219 10.7118 43.9342 15.0062 45.713C19.3006 47.4918 24.0261 47.9572 28.5851 47.0504C33.144 46.1436 37.3317 43.9052 40.6185 40.6184C43.9053 37.3316 46.1436 33.144 47.0505 28.585C47.9573 24.0261 47.4919 19.3006 45.7131 15.0062C43.9343 10.7117 40.9219 7.04124 37.0571 4.4588C33.1922 1.87637 28.6483 0.498001 24 0.498001C17.7692 0.505411 11.7957 2.98389 7.38981 7.38976C2.98393 11.7956 0.505457 17.7692 0.498047 24V24ZM42.498 24C42.498 27.6595 41.4128 31.2369 39.3796 34.2796C37.3464 37.3223 34.4566 39.6937 31.0755 41.094C27.6945 42.4943 23.9742 42.8604 20.385 42.1462C16.7959 41.432 13.4991 39.6694 10.9117 37.0815C8.32435 34.4935 6.56252 31.1964 5.84907 27.6071C5.13562 24.0178 5.50259 20.2975 6.90358 16.9168C8.30456 13.5361 10.6766 10.6468 13.7198 8.61421C16.763 6.58166 20.3405 5.49721 24 5.498C28.9053 5.50382 33.608 7.45501 37.0765 10.9235C40.545 14.3921 42.4962 19.0948 42.502 24H42.498Z" />
<path d="M17.6661 14.132C17.434 13.8998 17.1583 13.7157 16.855 13.59C16.5516 13.4643 16.2265 13.3997 15.8981 13.3997C15.5698 13.3997 15.2447 13.4643 14.9413 13.59C14.638 13.7157 14.3623 13.8998 14.1301 14.132C13.898 14.3642 13.7138 14.6398 13.5881 14.9432C13.4625 15.2465 13.3978 15.5717 13.3978 15.9C13.3978 16.2283 13.4625 16.5535 13.5881 16.8568C13.7138 17.1602 13.898 17.4358 14.1301 17.668L20.1101 23.646C20.1567 23.6924 20.1936 23.7476 20.2189 23.8084C20.2441 23.8691 20.257 23.9342 20.257 24C20.257 24.0658 20.2441 24.1309 20.2189 24.1916C20.1936 24.2524 20.1567 24.3076 20.1101 24.354L14.1301 30.334C13.8914 30.5647 13.7011 30.8406 13.5701 31.1456C13.4392 31.4507 13.3703 31.7788 13.3675 32.1107C13.3647 32.4427 13.4281 32.7718 13.5539 33.079C13.6797 33.3862 13.8654 33.6653 14.1002 33.9C14.335 34.1347 14.6141 34.3202 14.9214 34.4458C15.2287 34.5714 15.5579 34.6346 15.8899 34.6316C16.2218 34.6286 16.5498 34.5596 16.8548 34.4285C17.1598 34.2974 17.4356 34.1068 17.6661 33.868L23.6441 27.89C23.6904 27.8432 23.7456 27.806 23.8063 27.7807C23.8671 27.7553 23.9323 27.7423 23.9981 27.7423C24.064 27.7423 24.1292 27.7553 24.1899 27.7807C24.2507 27.806 24.3058 27.8432 24.3521 27.89L30.3321 33.868C30.5642 34.1 30.8397 34.2841 31.1428 34.4097C31.446 34.5353 31.771 34.5999 32.0991 34.5999C32.4273 34.5999 32.7523 34.5353 33.0554 34.4097C33.3586 34.2841 33.6341 34.1 33.8661 33.868C34.0982 33.636 34.2823 33.3605 34.4078 33.0573C34.5334 32.7541 34.5981 32.4292 34.5981 32.101C34.5981 31.7728 34.5334 31.4479 34.4078 31.1447C34.2823 30.8415 34.0982 30.566 33.8661 30.334L27.8881 24.354C27.8416 24.3076 27.8046 24.2524 27.7794 24.1916C27.7542 24.1309 27.7412 24.0658 27.7412 24C27.7412 23.9342 27.7542 23.8691 27.7794 23.8084C27.8046 23.7476 27.8416 23.6924 27.8881 23.646L33.8661 17.668C34.105 17.4374 34.2955 17.1616 34.4266 16.8567C34.5577 16.5517 34.6268 16.2237 34.6298 15.8917C34.6327 15.5598 34.5696 15.2306 34.444 14.9233C34.3183 14.616 34.1328 14.3368 33.8981 14.102C33.6635 13.8672 33.3844 13.6815 33.0772 13.5557C32.77 13.4299 32.4408 13.3666 32.1089 13.3694C31.7769 13.3722 31.4488 13.441 31.1438 13.572C30.8387 13.7029 30.5628 13.8933 30.3321 14.132L24.3521 20.112C24.2581 20.2056 24.1308 20.2581 23.9981 20.2581C23.8655 20.2581 23.7382 20.2056 23.6441 20.112L17.6661 14.132Z" />
</svg>
