<svg  viewBox="0 0 32 32" fill="none" xmlns="http://www.w3.org/2000/svg">
    <path d="M16.0223 32C7.1855 32 0 24.8591 0 16.0223C0 7.1855 7.1855 0 16.0223 0C24.8591 0 32.0446 7.1855 32.0446 16.0223C32 24.8591 24.8591 32 16.0223 32Z" fill="#3E5C9A"/>
    <path d="M13.5677 25.6624H17.4505V15.9329H20.173L20.4408 12.6749H17.4505C17.4505 12.6749 17.4505 11.4699 17.4505 10.8004C17.4505 10.0417 17.5844 9.72931 18.3431 9.72931C18.9233 9.72931 20.4408 9.72931 20.4408 9.72931V6.3374C20.4408 6.3374 18.2093 6.3374 17.763 6.3374C14.862 6.3374 13.5677 7.63168 13.5677 10.0417C13.5677 12.184 13.5677 12.6303 13.5677 12.6303H11.5593V15.9329H13.5677V25.6624Z" fill="white"/>
</svg>
