<svg  viewBox="0 0 32 32" xmlns="http://www.w3.org/2000/svg">
    <path d="M16.0223 32C7.1855 32 0 24.8591 0 16.0223C0 7.1855 7.1855 0 16.0223 0C24.8591 0 32.0446 7.1855 32.0446 16.0223C32 24.8591 24.8591 32 16.0223 32Z" fill="#117BB8"/>
    <path d="M12.0505 12.4517H8.7478V23.163H12.0505V12.4517Z" fill="white"/>
    <path d="M10.399 11.0237C11.4702 11.0237 12.3628 10.1311 12.3628 9.05993C12.3628 7.9888 11.4702 7.09619 10.399 7.09619C9.32791 7.09619 8.4353 7.9888 8.4353 9.05993C8.4353 10.1311 9.32791 11.0237 10.399 11.0237Z" fill="white"/>
    <path d="M17.3614 17.5394C17.3614 16.022 18.0755 15.1294 19.3698 15.1294C20.5748 15.1294 21.155 15.9774 21.155 17.5394C21.155 19.1015 21.155 23.1629 21.155 23.1629H24.4576C24.4576 23.1629 24.4576 19.2354 24.4576 16.379C24.4576 13.5227 22.8509 12.1392 20.5748 12.1392C18.2986 12.1392 17.3614 13.9244 17.3614 13.9244V12.4962H14.1926V23.2075H17.3614C17.3614 23.1182 17.3614 19.1908 17.3614 17.5394Z" fill="white"/>
</svg>
