<svg fill="currentColor" xmlns="http://www.w3.org/2000/svg" viewBox="0 0 15 14"><path d="M8.17 7.656H11v-.048a1.334 1.334 0 01.856-1.277 1.296 1.296 0 011.269.232V1.406a.1.1 0 00-.17-.07l-5.33 5.329a1.504 1.504 0 01-2.125 0L.17 1.335a.099.099 0 00-.107-.022.1.1 0 00-.063.093V7.97a1.093 1.093 0 001.094 1.094h5.492A1.625 1.625 0 018.17 7.656z" /><path d="M6.08 6.086a.688.688 0 00.967 0L12.344.788a.273.273 0 00-.154-.464 1.094 1.094 0 00-.158-.012H1.094C1.042.313.99.318.937.325a.273.273 0 00-.154.464L6.08 6.086zM12.614 7.343a.381.381 0 00-.432-.134.393.393 0 00-.244.399v.986H8.171a.702.702 0 00-.671.729v1.98a.702.702 0 00.671.728h3.767v.986a.38.38 0 00.368.42.398.398 0 00.308-.154l2.257-2.619c.17-.203.17-.499 0-.702l-2.257-2.62z" /></svg>
