<svg xmlns="http://www.w3.org/2000/svg" viewBox="0 0 33 33"><path d="M32.625 32.625a13.936 13.936 0 00-1.375-5.579c-1.026-2.051-5.5-3.437-11-5.5v-4.125a5.156 5.156 0 002.063-4.125c.687 0 1.375-2.75 0-3.437 0-.413 1.84-3.85 1.375-6.188-.688-3.437-10.313-3.437-11-.687-4.126 0-1.376 6.316-1.376 6.875-1.374.687-.687 3.437 0 3.437 0 1.623.765 3.151 2.063 4.125v4.125c-5.5 2.063-9.976 3.449-11 5.5A13.936 13.936 0 001 32.625h31.625z" stroke="#707070" fill="none" fill-rule="evenodd" stroke-linecap="round" stroke-linejoin="round"/></svg>
