<svg xmlns="http://www.w3.org/2000/svg" viewBox="0 0 10 10" fill="currentColor"><path d="M9.561 8.009c-.306-.613-1.35-.996-2.796-1.528l-.447-.166a.105.105 0 01-.068-.097v-.884c0-.03.013-.058.035-.078.332-.297.54-.709.583-1.153a.103.103 0 01.03-.063.792.792 0 00.185-.375.954.954 0 00-.133-.805.105.105 0 01-.016-.105c.274-.55.396-1.163.354-1.776C7.15.288 6.176.02 5.384 0 4.725-.013 3.912.13 3.63.569a.105.105 0 01-.071.047.77.77 0 00-.524.302c-.433.583.058 1.875.045 1.833a.105.105 0 01-.02.098.946.946 0 00-.143.815c.027.14.09.269.185.375.017.017.028.04.03.064.042.444.25.855.583 1.153.022.02.035.048.035.078v.884a.105.105 0 01-.068.098l-.448.167C1.788 7.014.744 7.4.439 8.011A4.405 4.405 0 000 9.793c0 .115.093.208.208.208h9.584A.208.208 0 0010 9.793a4.405 4.405 0 00-.439-1.784z" /></svg>
