<svg xmlns="http://www.w3.org/2000/svg" viewBox="0 0 18 18"><path d="M16.588 8.722v2.14h-1.852a1.018 1.018 0 00-.837-1.593h-.912c-.734 0-1.444.294-1.967.808V8.722a.34.34 0 01.34-.34h4.888a.34.34 0 01.34.34zm1.148-1.99h-1.34v-5.57h1.34c.122 0 .222.1.222.222V6.51c0 .123-.1.222-.222.222zM11.562 0c.23.012.419.225.419.476l-.002 3.066c0 .123.1.222.222.222a.223.223 0 00.223-.222V.61a.439.439 0 01.88.015v2.918a.222.222 0 00.443 0V.811a.44.44 0 01.88 0v2.732a.222.222 0 10.445 0V.996c0-.24.193-.441.463-.435.23.012.418.225.418.474V7.938h-4.43L10.25 6.736a2.378 2.378 0 01-.744-1.723v-.912a.574.574 0 011.15-.005l-.001 1.397a.222.222 0 10.444 0L11.1.438c0-.247.205-.45.462-.437zM8.72 1.163h1.937l-.001 2.101a1.018 1.018 0 00-1.593.837v.912c0 .624.213 1.229.591 1.718H8.72a.339.339 0 01-.337-.34v-.073V1.577v-.074c0-.188.151-.34.337-.34zM1.832 0h5.124c.123 0 .222.099.222.221v1.133H1.61V.222c0-.122.099-.221.222-.221zM0 6.19c.012-.231.226-.419.476-.419l3.067.001a.222.222 0 10-.001-.444H.613a.439.439 0 01.012-.88h2.919a.222.222 0 000-.443H.81a.44.44 0 01-.437-.44.44.44 0 01.437-.44h2.733a.222.222 0 10-.001-.446H.996a.439.439 0 01-.435-.462c.013-.23.225-.418.474-.418h6.903v4.429c-.897.796-1.426 2.018-2.925 2.018h-.912a.573.573 0 01-.571-.575c0-.314.252-.57.564-.574l1.4.001a.222.222 0 000-.444L.437 6.652a.439.439 0 01-.437-.462zM1.61 9.24V7.095h1.654A1.016 1.016 0 004.1 8.69l.001.001h.912c1.387 0 2.115-.973 2.165-1.01v1.56a.339.339 0 01-.34.336H1.95a.339.339 0 01-.34-.337zM.264 11.225h1.537v5.569H.264a.222.222 0 01-.222-.222v-5.125c0-.122.1-.222.222-.222zm6.372 6.733c-.23-.013-.419-.226-.419-.477l.002-3.066a.222.222 0 10-.445 0v2.93a.44.44 0 01-.88-.011v-2.92a.222.222 0 00-.443 0v2.733a.44.44 0 01-.88 0v-2.732a.222.222 0 10-.445 0v2.547c0 .244-.2.443-.462.435-.231-.012-.419-.225-.419-.474V10.02h4.429l1.275 1.203c.473.446.744 1.074.744 1.723v.912a.574.574 0 01-1.15.007l.001-1.399a.222.222 0 10-.443 0l-.003 5.055a.438.438 0 01-.462.438zm2.645-1.164H7.542l.001-2.1a1.018 1.018 0 001.594-.837v-.912a2.82 2.82 0 00-.594-1.72h.738c.186 0 .337.153.337.34v4.889c0 .187-.151.34-.337.34zm1.739.94v-1.131h5.568v1.131c0 .123-.099.222-.221.222h-5.125a.222.222 0 01-.222-.222zm5.945-1.575h-6.903v-4.43c.897-.795 1.426-2.018 2.925-2.018h.912a.574.574 0 01.005 1.15l-1.397-.001a.222.222 0 000 .444l5.055.002c.25 0 .45.209.437.462-.012.23-.226.418-.476.418h-3.067a.222.222 0 10.001.444h2.93a.439.439 0 01-.012.88h-2.918a.222.222 0 000 .443h2.732a.44.44 0 01.437.44.44.44 0 01-.437.44h-2.732a.222.222 0 00-.204.31c.033.08.112.136.204.136h2.546c.25 0 .448.209.436.462-.013.23-.225.418-.474.418z" fill-rule="nonzero"/></svg>
