<svg viewBox="0 0 20 20" fill="none" xmlns="http://www.w3.org/2000/svg">
<path d="M16.25 5.00001H19.5C19.5413 5.00009 19.5816 4.98791 19.6159 4.96502C19.6503 4.94213 19.677 4.90957 19.6928 4.87145C19.7086 4.83334 19.7128 4.79139 19.7047 4.75093C19.6966 4.71047 19.6767 4.67332 19.6475 4.64418L15.3558 0.354179C15.3268 0.325067 15.2898 0.305198 15.2495 0.297075C15.2092 0.288952 15.1674 0.292938 15.1293 0.30853C15.0913 0.324123 15.0587 0.350625 15.0357 0.384699C15.0127 0.418773 15.0003 0.458895 15 0.500012V3.75001C15 4.08153 15.1317 4.39947 15.3661 4.63389C15.6005 4.86832 15.9185 5.00001 16.25 5.00001Z" />
<path d="M14.1666 3.75V0.206667C14.1661 0.151703 14.144 0.0991393 14.105 0.060429C14.066 0.0217186 14.0132 -1.75883e-06 13.9583 1.06822e-10H4.99992C4.55789 1.06822e-10 4.13397 0.175595 3.82141 0.488155C3.50885 0.800716 3.33325 1.22464 3.33325 1.66667V5.90167C3.33338 5.93561 3.34176 5.96902 3.35769 5.99901C3.37361 6.02899 3.39659 6.05464 3.42465 6.07376C3.4527 6.09287 3.48499 6.10487 3.51872 6.10872C3.55245 6.11256 3.58661 6.10814 3.61825 6.09583C4.46305 5.75997 5.4011 5.74244 6.25786 6.0465C7.11463 6.35056 7.83176 6.95551 8.27583 7.74879C8.71991 8.54207 8.86068 9.46966 8.67196 10.359C8.48325 11.2483 7.97789 12.0388 7.24992 12.5833C7.19955 12.6215 7.15842 12.6706 7.12957 12.7269C7.10072 12.7831 7.08489 12.8451 7.08325 12.9083C7.08325 12.9275 7.08325 12.9467 7.08325 12.9658C7.09371 13.0683 7.14242 13.163 7.21965 13.2311C7.29688 13.2993 7.39696 13.3358 7.49992 13.3333H8.33325C9.1068 13.3333 9.84867 13.6406 10.3956 14.1876C10.9426 14.7346 11.2499 15.4764 11.2499 16.25C11.2497 16.5627 11.1792 16.8714 11.0434 17.1532C10.9077 17.4349 10.7102 17.6825 10.4658 17.8775C10.4356 17.9012 10.4126 17.9329 10.3995 17.969C10.3864 18.0051 10.3837 18.0441 10.3916 18.0817C10.4078 18.164 10.4162 18.2477 10.4166 18.3317V19.165C10.4154 19.3574 10.3873 19.5487 10.3333 19.7333C10.3245 19.7643 10.323 19.797 10.329 19.8286C10.335 19.8603 10.3482 19.8901 10.3677 19.9158C10.3872 19.9415 10.4123 19.9623 10.4412 19.9766C10.4701 19.991 10.5019 19.9984 10.5341 19.9983H18.3333C18.7753 19.9983 19.1992 19.8227 19.5118 19.5102C19.8243 19.1976 19.9999 18.7737 19.9999 18.3317V6.04C19.9995 5.98504 19.9773 5.93247 19.9383 5.89376C19.8993 5.85505 19.8465 5.83333 19.7916 5.83333H16.2499C15.6974 5.83333 15.1675 5.61384 14.7768 5.22314C14.3861 4.83244 14.1666 4.30253 14.1666 3.75Z" />
<path d="M9.16658 19.1667V18.5417C9.16658 18.4865 9.14464 18.4335 9.10557 18.3944C9.0665 18.3553 9.0135 18.3334 8.95825 18.3334H1.04159C0.986332 18.3334 0.933341 18.3553 0.894271 18.3944C0.855201 18.4335 0.833252 18.4865 0.833252 18.5417V19.1667C0.833252 19.3877 0.921049 19.5997 1.07733 19.756C1.23361 19.9122 1.44557 20 1.66659 20H8.33325C8.55427 20 8.76623 19.9122 8.92251 19.756C9.07879 19.5997 9.16658 19.3877 9.16658 19.1667Z" />
<path d="M0.833333 17.0834H9.16667C9.38768 17.0834 9.59964 16.9956 9.75592 16.8393C9.9122 16.683 10 16.4711 10 16.25C10 15.808 9.8244 15.3841 9.51184 15.0715C9.19928 14.759 8.77536 14.5834 8.33333 14.5834H7.5C7.06622 14.5836 6.64946 14.4146 6.33825 14.1124C6.02705 13.8102 5.84591 13.3986 5.83333 12.965C5.82609 12.6982 5.88283 12.4336 5.99881 12.1932C6.1148 11.9528 6.28665 11.7437 6.5 11.5834C6.91976 11.2685 7.22983 10.8296 7.38628 10.3288C7.54273 9.82795 7.53763 9.29058 7.37171 8.7928C7.20578 8.29502 6.88744 7.86207 6.46178 7.55527C6.03611 7.24847 5.52471 7.08337 5 7.08337C4.47529 7.08337 3.96389 7.24847 3.53822 7.55527C3.11256 7.86207 2.79422 8.29502 2.62829 8.7928C2.46237 9.29058 2.45727 9.82795 2.61372 10.3288C2.77017 10.8296 3.08023 11.2685 3.5 11.5834C3.71255 11.7433 3.8839 11.9517 3.99984 12.1911C4.11578 12.4305 4.17297 12.6941 4.16667 12.96C4.15537 13.3945 3.9748 13.8074 3.66345 14.1106C3.35211 14.4139 2.93462 14.5835 2.5 14.5834H1.66667C1.22464 14.5834 0.800716 14.759 0.488155 15.0715C0.175595 15.3841 0 15.808 0 16.25C0 16.4711 0.0877974 16.683 0.244078 16.8393C0.400358 16.9956 0.61232 17.0834 0.833333 17.0834Z" />
</svg>
