<svg viewBox="0 0 33 32" fill="currentColor" xmlns="http://www.w3.org/2000/svg">
    <path d="M28.5 15.1578C28.4992 14.4287 28.2092 13.7297 27.6937 13.2141C27.1781 12.6986 26.4791 12.4086 25.75 12.4078H20.03C19.9909 12.4078 19.9524 12.3986 19.9175 12.381C19.8826 12.3634 19.8524 12.3379 19.8291 12.3065C19.8059 12.2751 19.7903 12.2387 19.7837 12.2002C19.7771 12.1617 19.7796 12.1222 19.791 12.0848C20.2915 10.7345 20.4368 9.27835 20.213 7.8558C19.58 5.5998 18.158 4.9698 17.129 5.1098C16.5894 5.19856 16.1008 5.48121 15.7548 5.90469C15.4089 6.32817 15.2294 6.86336 15.25 7.4098C15.25 10.4288 12.556 13.7288 10.197 14.6498C10.1426 14.4394 10.0203 14.2528 9.84912 14.119C9.67789 13.9852 9.46729 13.9117 9.25 13.9098H5.5C5.23478 13.9098 4.98043 14.0152 4.79289 14.2027C4.60536 14.3902 4.5 14.6446 4.5 14.9098V25.9098C4.5 26.175 4.60536 26.4294 4.79289 26.6169C4.98043 26.8044 5.23478 26.9098 5.5 26.9098H9.25C9.51522 26.9098 9.76957 26.8044 9.95711 26.6169C10.1446 26.4294 10.25 26.175 10.25 25.9098V25.5808C11.279 25.7278 12.05 25.8688 12.712 25.9888C14.0394 26.271 15.3929 26.4121 16.75 26.4098H23.25C25.506 26.4098 25.75 25.0098 25.75 24.4098C25.7502 24.1067 25.695 23.8061 25.587 23.5228C26.0739 23.2146 26.4394 22.7477 26.6216 22.201C26.8038 21.6543 26.7916 21.0615 26.587 20.5228C27.1108 20.1916 27.4929 19.6776 27.6592 19.0806C27.8255 18.4836 27.7641 17.8461 27.487 17.2918C27.8038 17.0337 28.0592 16.7083 28.2344 16.3392C28.4096 15.97 28.5004 15.5664 28.5 15.1578ZM8.25 24.1578C8.25 24.3061 8.20601 24.4511 8.1236 24.5745C8.04119 24.6978 7.92406 24.7939 7.78701 24.8507C7.64997 24.9075 7.49917 24.9223 7.35368 24.8934C7.2082 24.8645 7.07456 24.793 6.96967 24.6881C6.86478 24.5832 6.79335 24.4496 6.76441 24.3041C6.73547 24.1586 6.75032 24.0078 6.80709 23.8708C6.86386 23.7337 6.95999 23.6166 7.08332 23.5342C7.20666 23.4518 7.35166 23.4078 7.5 23.4078C7.69891 23.4078 7.88968 23.4868 8.03033 23.6275C8.17098 23.7681 8.25 23.9589 8.25 24.1578ZM26.5 15.1578C26.4997 15.3566 26.4206 15.5472 26.28 15.6878C26.1394 15.8284 25.9488 15.9075 25.75 15.9078H25.25C24.9848 15.9078 24.7304 16.0132 24.5429 16.2007C24.3554 16.3882 24.25 16.6426 24.25 16.9078C24.25 17.173 24.3554 17.4274 24.5429 17.6149C24.7304 17.8024 24.9848 17.9078 25.25 17.9078C25.3826 17.9078 25.5098 17.9605 25.6036 18.0542C25.6973 18.148 25.75 18.2752 25.75 18.4078C25.75 18.5404 25.6973 18.6676 25.6036 18.7614C25.5098 18.8551 25.3826 18.9078 25.25 18.9078H24.25C23.9848 18.9078 23.7304 19.0132 23.5429 19.2007C23.3554 19.3882 23.25 19.6426 23.25 19.9078C23.25 20.173 23.3554 20.4274 23.5429 20.6149C23.7304 20.8024 23.9848 20.9078 24.25 20.9078C24.3826 20.9078 24.5098 20.9605 24.6036 21.0542C24.6973 21.148 24.75 21.2752 24.75 21.4078C24.75 21.5404 24.6973 21.6676 24.6036 21.7614C24.5098 21.8551 24.3826 21.9078 24.25 21.9078H23.25C22.9848 21.9078 22.7304 22.0132 22.5429 22.2007C22.3554 22.3882 22.25 22.6426 22.25 22.9078C22.25 23.173 22.3554 23.4274 22.5429 23.6149C22.7304 23.8024 22.9848 23.9078 23.25 23.9078C23.3746 23.9094 23.4941 23.9574 23.5851 24.0425C23.6761 24.1276 23.732 24.2436 23.742 24.3678C23.58 24.3992 23.415 24.4126 23.25 24.4078H16.75C15.5141 24.4093 14.2815 24.2796 13.073 24.0208C12.339 23.8858 11.452 23.7208 10.25 23.5608V16.7308C13.745 15.8218 17.25 11.3718 17.25 7.4078C17.25 7.2158 17.329 7.1078 17.402 7.0918C17.565 7.0708 18.002 7.3678 18.287 8.3968C18.581 9.4428 17.856 11.7838 17.331 13.0148C17.266 13.1668 17.2398 13.3326 17.2546 13.4973C17.2694 13.662 17.3248 13.8205 17.4158 13.9585C17.5069 14.0965 17.6307 14.2098 17.7763 14.2882C17.9219 14.3666 18.0846 14.4077 18.25 14.4078H25.75C25.9488 14.4081 26.1394 14.4872 26.28 14.6278C26.4206 14.7684 26.4997 14.959 26.5 15.1578Z" />
</svg>
