<svg xmlns="http://www.w3.org/2000/svg" viewBox="0 0 16 16">
<path	
          fill="#000"	
          d="M14.498 2.545h-3.143a.162.162 0 01-.166-.159v-.795C11.19.712 10.45 0 9.535 0h-3.31c-.913 0-1.654.712-1.654 1.59v.796a.156.156 0 01-.049.113.169.169 0 01-.117.046H1.262a.65.65 0 00-.662.637.65.65 0 00.662.636h13.236a.65.65 0 00.662-.636.65.65 0 00-.662-.637zm-8.603-.159v-.795c0-.176.148-.318.33-.318h3.31c.182 0 .33.142.33.318v.795c0 .088-.074.16-.165.16H6.06a.162.162 0 01-.165-.16zm6.949 2.387H2.916a.325.325 0 00-.33.318V14c0 .703.592 1.273 1.323 1.273h7.942c.73 0 1.324-.57 1.324-1.273V5.09a.325.325 0 00-.331-.317zm-6.122 8.272a.487.487 0 01-.497.478.487.487 0 01-.496-.478V7.318c0-.263.222-.477.496-.477.275 0 .497.214.497.477v5.727zm3.309 0a.487.487 0 01-.496.478.487.487 0 01-.497-.478V7.318c0-.263.222-.477.497-.477.274 0 .496.214.496.477v5.727z"	
        />
</svg>
