<svg xmlns="http://www.w3.org/2000/svg" viewBox="0 0 18 14"><g fill-rule="nonzero"><path d="M4.294 9.525h4.069a.977.977 0 01.337-.563l.131-.093c.244-.207.563-.319.9-.319.244 0 .469.056.694.169l.319.187.956-.862-1.425-1.369a.981.981 0 01-.281-.862c.056-.32.262-.582.543-.732a1.83 1.83 0 01.825-.187c.3 0 .582.075.863.206l1.819.9.712-.638V3.037a.98.98 0 00-.975-.974h-2.85v-.75c0-.638-.525-1.144-1.143-1.144H8.306c-.637 0-1.143.525-1.143 1.143v.732h-2.87a.98.98 0 00-.974.975V8.53a.961.961 0 00.975.994zm3.825-8.213c0-.093.075-.168.168-.168H9.77c.094 0 .168.075.168.169v.73H8.12v-.73z"/><path d="M17.456 4.894a2.767 2.767 0 00-1.762.694l-1.538 1.35-2.287-1.125a1.153 1.153 0 00-.994 0c-.131.056-.15.224-.037.318L12.863 8.1l-2.025 1.781-.807-.45a.657.657 0 00-.712.057l-.132.093c-.093.075-.093.225 0 .282l1.107.862c.168.131.3.3.393.488l.62 1.256c.056.112.187.131.28.056l.132-.094c.206-.168.281-.431.206-.675l-.244-.881 2.157-1.613 1.5 2.4c.075.113.243.132.318.02.207-.282.281-.638.207-.976l-.638-2.456 1.631-1.219a2.785 2.785 0 001.031-1.575.447.447 0 00-.43-.562zM8.7 11.231l-.019.019c-.487.3-.993.581-1.518.806a8.45 8.45 0 01-1.613.507 5.558 5.558 0 01-1.669.093c-.543-.056-1.087-.187-1.575-.431-.469-.244-.9-.6-1.162-1.069A2.72 2.72 0 01.769 9.62a4.191 4.191 0 01.469-1.613A6.799 6.799 0 012.25 6.581a.204.204 0 000-.281.204.204 0 00-.281 0A6.85 6.85 0 00.788 7.763 4.424 4.424 0 00.13 9.58a3.286 3.286 0 00.356 1.969c.32.619.825 1.106 1.407 1.462.581.357 1.237.563 1.875.675a7.689 7.689 0 001.968.02c.657-.076 1.276-.245 1.894-.45.619-.207 1.2-.488 1.763-.788.018 0 .018-.019.037-.019.319-.206.432-.619.225-.938-.206-.375-.619-.487-.956-.28z"/></g></svg>
