<svg xmlns="http://www.w3.org/2000/svg" viewBox="0 0 32 32">
<path d="M31.093 8.587a.668.668 0 00-.266-1.16l-1.054-.267a.667.667 0 01-.44-.933l.587-1.187a.668.668 0 00-.773-.933l-2.667.746a.669.669 0 01-.587-.106 6.666 6.666 0 00-10.666 5.333v.48a.333.333 0 01-.294.333c-3.746.44-7.333-1.466-11.2-5.92a.677.677 0 00-.68-.2.667.667 0 00-.386.56 10.1 10.1 0 00.613 6.56.334.334 0 01-.347.48L1.44 12.08a.667.667 0 00-.76.787 6.867 6.867 0 003.16 5.04.334.334 0 010 .6l-.707.28a.667.667 0 00-.346.92 5.812 5.812 0 004.266 3.306.333.333 0 010 .627 14.589 14.589 0 01-5.72 1.107.68.68 0 00-.266 1.333 26.75 26.75 0 0010.853 2.573c3.305.051 6.553-.877 9.333-2.666a16.667 16.667 0 007.414-13.907v-1.16a.665.665 0 01.24-.507l2.186-1.826z" /></svg>
