<svg xmlns="http://www.w3.org/2000/svg" viewBox="0 0 16 14" fill="currentColor"><circle cx="8.012" cy="7.575" r="2.1"/><path d="M8.012 10.438a3.43 3.43 0 00-3.265 2.382.219.219 0 00.21.288h6.106a.222.222 0 00.212-.29 3.433 3.433 0 00-3.263-2.38zM8 2.667a4.889 4.889 0 00-4.306 7.207.668.668 0 00.903.268.666.666 0 00.267-.902 3.556 3.556 0 116.263 0 .668.668 0 001.174.634A4.889 4.889 0 008 2.667z"/><path d="M8 0A7.565 7.565 0 00.444 7.556a7.487 7.487 0 001.584 4.629.667.667 0 001.054-.818 6.16 6.16 0 01-1.304-3.811 6.222 6.222 0 0112.444 0 6.16 6.16 0 01-1.305 3.813.667.667 0 101.053.818 7.479 7.479 0 001.586-4.631A7.565 7.565 0 008 0z"/></svg>
