<svg xmlns="http://www.w3.org/2000/svg" viewBox="0 0 18 14"><g fill-rule="nonzero"><path d="M1.457 6.832a.188.188 0 01-.019.225.162.162 0 00.122.269h3.165a.375.375 0 00.369-.442 3.98 3.98 0 00-.6-1.496.562.562 0 01.936-.624c.447.669.73 1.433.825 2.232.023.19.184.331.375.33h.45a.75.75 0 00.61-.313l1.197-1.688a.189.189 0 00.026-.168.185.185 0 00-.12-.12 2.672 2.672 0 00-.178-.053.188.188 0 01-.14-.184 2.107 2.107 0 00-1.863-2.121.188.188 0 01-.167-.129A2.455 2.455 0 003.506.76 2.456 2.456 0 001.97 3.84a.188.188 0 01-.07.2 2.06 2.06 0 00-.689 2.244c.057.193.14.377.245.548zM14.71 8.449H.938a.75.75 0 00-.712.98 5.607 5.607 0 005.35 3.895h4.5a5.607 5.607 0 005.351-3.894.75.75 0 00-.714-.981h-.002zM17.21 2.799l-.818.058a.186.186 0 01-.184-.108.188.188 0 01.039-.211l.642-.643a.563.563 0 00-.795-.796l-.643.644a.188.188 0 01-.32-.15l.059-.818a.564.564 0 00-1.125-.08l-.114 1.58a.188.188 0 01-.28.15 1.125 1.125 0 00-1.539.287l-.191.267a.188.188 0 00.02.242l1 1a.375.375 0 01-.53.531l-.866-.866a.187.187 0 00-.285.023l-.587.825a.187.187 0 00.02.242l.75.75a.375.375 0 01-.531.53l-.62-.62a.188.188 0 00-.284.023l-.98 1.37a.187.187 0 00.15.3h3.927a.75.75 0 00.456-.155l1.737-1.33c.469-.365.576-1.03.246-1.524a.187.187 0 01.15-.281l1.575-.113a.564.564 0 00-.08-1.126l.001-.001z"/></g></svg>
