<svg xmlns="http://www.w3.org/2000/svg" viewBox="0 0 14 14"><g fill="none" fill-rule="evenodd"><path d="M13.252 6.037l-1.072-.862a.637.637 0 01-.233-.566l.148-1.368a1.22 1.22 0 00-1.345-1.346l-1.37.147a.638.638 0 01-.566-.234L7.95.737a1.258 1.258 0 00-1.902 0l-.863 1.071a.634.634 0 01-.566.234l-1.368-.147A1.22 1.22 0 001.906 3.24l.149 1.368a.634.634 0 01-.234.567l-1.073.862a1.22 1.22 0 000 1.903l1.072.862c.17.137.258.35.233.567l-.148 1.368a1.22 1.22 0 001.345 1.346l1.369-.149a.637.637 0 01.566.234l.864 1.074a1.22 1.22 0 001.902 0l.863-1.073a.638.638 0 01.566-.233l1.368.149a1.22 1.22 0 001.346-1.346l-.149-1.368a.633.633 0 01.234-.567l1.072-.862a1.22 1.22 0 000-1.903l.001-.002zM7.233 8.778a1.041 1.041 0 01-1.553.11L4.254 7.468a.583.583 0 11.825-.825l1.313 1.313 2.28-3.04a.583.583 0 11.934.7L7.233 8.778z" fill="#3B88FD" fill-rule="nonzero"/></g></svg>
