<svg xmlns="http://www.w3.org/2000/svg" viewBox="0 0 24 24">
    <path d="M12 0c6.627 0 12 5.373 12 12s-5.373 12-12 12S0 18.627 0 12 5.373 0 12 0zM6.833 10.712H4.667a.667.667 0 00-.667.667v7.333c0 .368.298.667.667.667h2.166a.667.667 0 00.667-.667v-7.333a.667.667 0 00-.667-.667zm5.61-5.7a1.333 1.333 0 00-1.11 1.367c0 1.83-1.419 3.83-2.689 4.707a.334.334 0 00-.144.275v6.744c0 .16.113.297.27.327.238.045.454.09.658.133.897.214 1.817.32 2.739.314H16.5c1.305 0 1.5-.733 1.5-1.166 0-.23-.052-.457-.154-.664a1.5 1.5 0 00.667-2 1.5 1.5 0 00.639-2.052 1.667 1.667 0 00-.819-3.118h-4.207a.167.167 0 01-.158-.219 5.79 5.79 0 00.347-2.938c-.392-1.4-1.223-1.8-1.872-1.71zM6 17.045a.5.5 0 110 1 .5.5 0 010-1z" fill="currentColor" fill-rule="nonzero"/>
</svg>
