<svg xmlns="http://www.w3.org/2000/svg" viewBox="0 0 26 26" ><path d="M13 14.473c-.642 0-1.117-.522-1.188-1.188l-.594-5.3c-.096-.926.879-1.782 1.782-1.782s1.878.856 1.759 1.782l-.57 5.3c-.072.666-.547 1.188-1.189 1.188m1.759 3.542c0-.975-.785-1.76-1.759-1.76-.974 0-1.782.785-1.782 1.76 0 .974.808 1.782 1.782 1.782s1.759-.808 1.759-1.782m7.438 4.182A12.968 12.968 0 0026 13c0-3.589-1.45-6.845-3.803-9.197A12.968 12.968 0 0013 0C9.411 0 6.155 1.45 3.803 3.803A12.968 12.968 0 000 13c0 3.589 1.45 6.845 3.803 9.197A12.968 12.968 0 0013 26c3.589 0 6.845-1.45 9.197-3.803" fill="#F0AD4E" fill-rule="evenodd" /></svg>
