<svg xmlns="http://www.w3.org/2000/svg" viewBox="0 0 18 18"><g fill-rule="nonzero"><path d="M15.828 13.409a.72.72 0 00-.631.373c-.821 1.496-.821 1.909-.821 2.045a1.453 1.453 0 102.905 0c0-.136 0-.55-.823-2.045a.72.72 0 00-.63-.373zM11.16 5.04a.36.36 0 00-.36.36V9c0 .199.161.36.36.36h1.44c.596 0 1.08.484 1.08 1.08v1.08c0 .398.322.72.72.72h2.16a.72.72 0 00.72-.72v-1.08c0-4.874-4.28-5.4-6.12-5.4z"/><rect y="5.04" width="2.88" height="4.32" rx=".5"/><path d="M8.465 2.952a.247.247 0 01-.185-.24V2.7a.36.36 0 01.36-.36h3.42a.72.72 0 000-1.44h-3.6a.18.18 0 01-.18-.18.72.72 0 00-.72-.72H6.12a.72.72 0 00-.72.72.18.18 0 01-.18.18h-3.6a.72.72 0 100 1.44h3.42a.36.36 0 01.36.36c0 .118-.08.222-.194.252A2.165 2.165 0 003.6 5.04v4.32a2.16 2.16 0 002.16 2.16h2.16a2.16 2.16 0 002.16-2.16V5.04a2.164 2.164 0 00-1.615-2.088z"/></g></svg>
