<svg viewBox="0 0 16 16" fill="currentColor" xmlns="http://www.w3.org/2000/svg">
    <path d="M8 4C8.16392 3.99981 8.32601 4.03225 8.47543 4.09516C8.62485 4.15808 8.75818 4.25001 8.86651 4.36482L13.7834 9.58083C13.9388 9.75367 14.0156 9.9764 13.9974 10.2014C13.9791 10.4264 13.8672 10.6358 13.6857 10.7848C13.5041 10.9338 13.2673 11.0106 13.0259 10.9988C12.7845 10.987 12.5576 10.8875 12.3937 10.7216L8.09422 6.1604C8.08246 6.14788 8.06797 6.13784 8.05172 6.13097C8.03547 6.1241 8.01784 6.12054 8 6.12054C7.98216 6.12054 7.96453 6.1241 7.94828 6.13097C7.93203 6.13784 7.91754 6.14788 7.90578 6.1604L3.60629 10.7216C3.44244 10.8875 3.21554 10.987 2.9741 10.9988C2.73266 11.0106 2.49586 10.9338 2.31432 10.7848C2.13278 10.6358 2.02092 10.4264 2.00265 10.2014C1.98438 9.9764 2.06116 9.75367 2.21657 9.58083L7.13198 4.36669C7.24051 4.25159 7.37404 4.15937 7.5237 4.09614C7.67336 4.03292 7.83572 4.00015 8 4Z" />
</svg>
