<svg viewBox="0 0 12 7" fill="none" xmlns="http://www.w3.org/2000/svg">
    <path d="M6 9.53674e-07C6.16392 -0.000188351 6.32601 0.0322542 6.47543 0.0951648C6.62485 0.158075 6.75818 0.250007 6.86651 0.364822L11.7834 5.58083C11.9388 5.75367 12.0156 5.9764 11.9974 6.20139C11.9791 6.42638 11.8672 6.63577 11.6857 6.78479C11.5041 6.93381 11.2673 7.01062 11.0259 6.99881C10.7845 6.98701 10.5576 6.88751 10.3937 6.7216L6.09422 2.1604C6.08246 2.14788 6.06797 2.13784 6.05172 2.13097C6.03547 2.1241 6.01784 2.12054 6 2.12054C5.98216 2.12054 5.96453 2.1241 5.94828 2.13097C5.93203 2.13784 5.91754 2.14788 5.90578 2.1604L1.60629 6.7216C1.44244 6.88751 1.21554 6.98701 0.974099 6.99881C0.732662 7.01062 0.495856 6.93381 0.314317 6.78479C0.132778 6.63577 0.0209152 6.42638 0.00264792 6.20139C-0.0156194 5.9764 0.0611588 5.75367 0.216565 5.58083L5.13198 0.366693C5.24051 0.251594 5.37404 0.159368 5.5237 0.0961437C5.67336 0.0329199 5.83572 0.000146389 6 9.53674e-07Z" fill="currentColor"/>
</svg>
