<svg viewBox="0 0 16 16" fill="currentColor" xmlns="http://www.w3.org/2000/svg">
    <path d="M4.5 8C4.49981 7.83608 4.53225 7.67399 4.59516 7.52457C4.65808 7.37515 4.75001 7.24182 4.86482 7.13349L10.0808 2.21657C10.2537 2.06116 10.4764 1.98438 10.7014 2.00265C10.9264 2.02092 11.1358 2.13278 11.2848 2.31432C11.4338 2.49586 11.5106 2.73266 11.4988 2.9741C11.487 3.21554 11.3875 3.44244 11.2216 3.60629L6.6604 7.90578C6.64788 7.91754 6.63784 7.93203 6.63097 7.94828C6.6241 7.96453 6.62054 7.98216 6.62054 8C6.62054 8.01784 6.6241 8.03547 6.63097 8.05172C6.63784 8.06797 6.64788 8.08246 6.6604 8.09422L11.2216 12.3937C11.3875 12.5576 11.487 12.7845 11.4988 13.0259C11.5106 13.2673 11.4338 13.5041 11.2848 13.6857C11.1358 13.8672 10.9264 13.9791 10.7014 13.9974C10.4764 14.0156 10.2537 13.9388 10.0808 13.7834L4.86669 8.86802C4.75159 8.75949 4.65937 8.62596 4.59614 8.4763C4.53292 8.32664 4.50015 8.16428 4.5 8Z" />
</svg>
