<svg viewBox="0 0 16 16" fill="currentColor" xmlns="http://www.w3.org/2000/svg">
    <path d="M11.5 8C11.5002 7.83608 11.4677 7.67399 11.4048 7.52457C11.3419 7.37515 11.25 7.24182 11.1352 7.13349L5.91917 2.21657C5.74633 2.06116 5.5236 1.98438 5.29861 2.00265C5.07362 2.02092 4.86423 2.13278 4.71521 2.31432C4.56619 2.49586 4.48938 2.73266 4.50119 2.9741C4.51299 3.21554 4.61249 3.44244 4.7784 3.60629L9.3396 7.90578C9.35212 7.91754 9.36216 7.93203 9.36903 7.94828C9.3759 7.96453 9.37946 7.98216 9.37946 8C9.37946 8.01784 9.3759 8.03547 9.36903 8.05172C9.36216 8.06797 9.35212 8.08246 9.3396 8.09422L4.7784 12.3937C4.61249 12.5576 4.51299 12.7845 4.50119 13.0259C4.48938 13.2673 4.56619 13.5041 4.71521 13.6857C4.86423 13.8672 5.07362 13.9791 5.29861 13.9974C5.5236 14.0156 5.74633 13.9388 5.91917 13.7834L11.1333 8.86802C11.2484 8.75949 11.3406 8.62596 11.4039 8.4763C11.4671 8.32664 11.4999 8.16428 11.5 8Z" />
</svg>
