<svg viewBox="0 0 16 16" fill="currentColor" xmlns="http://www.w3.org/2000/svg">
    <path fill-rule="evenodd" clip-rule="evenodd" d="M8.7598 4.64675C8.8365 4.61556 8.91817 4.59998 8.99976 4.59998C9.08135 4.59998 9.16302 4.61556 9.23972 4.64675C9.31643 4.67794 9.38796 4.72469 9.4482 4.78614C9.44822 4.78616 9.44824 4.78618 9.44825 4.78619L14.2856 9.71994C14.4403 9.87768 14.4378 10.1309 14.28 10.2856C14.1223 10.4403 13.869 10.4378 13.7144 10.28L8.99976 5.47147L4.28561 10.28C4.13095 10.4378 3.8777 10.4403 3.71995 10.2856C3.5622 10.131 3.55969 9.8777 3.71434 9.71995L8.55126 4.78619C8.55128 4.78618 8.55129 4.78617 8.5513 4.78616C8.61155 4.7247 8.68308 4.67794 8.7598 4.64675ZM8.8369 5.06615L8.83693 5.06618L8.8369 5.06615L8.87697 5.34622Z" />
</svg>
