<svg viewBox="0 0 12 7" fill="none" xmlns="http://www.w3.org/2000/svg">
    <path d="M6 7C6.16392 7.00019 6.32601 6.96775 6.47543 6.90484C6.62485 6.84192 6.75818 6.74999 6.86651 6.63518L11.7834 1.41917C11.9388 1.24633 12.0156 1.0236 11.9974 0.798607C11.9791 0.573618 11.8672 0.364228 11.6857 0.21521C11.5041 0.0661929 11.2673 -0.0106241 11.0259 0.00118506C10.7845 0.0129942 10.5576 0.112492 10.3937 0.278404L6.09422 4.8396C6.08246 4.85212 6.06797 4.86216 6.05172 4.86903C6.03547 4.8759 6.01784 4.87946 6 4.87946C5.98216 4.87946 5.96453 4.8759 5.94828 4.86903C5.93203 4.86216 5.91754 4.85212 5.90578 4.8396L1.60629 0.278404C1.44244 0.112492 1.21554 0.0129942 0.974099 0.00118506C0.732662 -0.0106241 0.495856 0.0661929 0.314317 0.21521C0.132778 0.364228 0.0209152 0.573618 0.00264792 0.798607C-0.0156194 1.0236 0.0611588 1.24633 0.216565 1.41917L5.13198 6.63331C5.24051 6.74841 5.37404 6.84063 5.5237 6.90386C5.67336 6.96708 5.83572 6.99985 6 7Z" fill="currentColor"/>
</svg>
