<svg viewBox="0 0 16 16" fill="currentColor" xmlns="http://www.w3.org/2000/svg">
    <path d="M8 12C8.16392 12.0002 8.32601 11.9677 8.47543 11.9048C8.62485 11.8419 8.75818 11.75 8.86651 11.6352L13.7834 6.41917C13.9388 6.24633 14.0156 6.0236 13.9974 5.79861C13.9791 5.57362 13.8672 5.36423 13.6857 5.21521C13.5041 5.06619 13.2673 4.98938 13.0259 5.00119C12.7845 5.01299 12.5576 5.11249 12.3937 5.2784L8.09422 9.8396C8.08246 9.85212 8.06797 9.86216 8.05172 9.86903C8.03547 9.8759 8.01784 9.87946 8 9.87946C7.98216 9.87946 7.96453 9.8759 7.94828 9.86903C7.93203 9.86216 7.91754 9.85212 7.90578 9.8396L3.60629 5.2784C3.44244 5.11249 3.21554 5.01299 2.9741 5.00119C2.73266 4.98938 2.49586 5.06619 2.31432 5.21521C2.13278 5.36423 2.02092 5.57362 2.00265 5.79861C1.98438 6.0236 2.06116 6.24633 2.21657 6.41917L7.13198 11.6333C7.24051 11.7484 7.37404 11.8406 7.5237 11.9039C7.67336 11.9671 7.83572 11.9999 8 12Z" />
</svg>
