<svg viewBox="0 0 8 12" fill="none" xmlns="http://www.w3.org/2000/svg">
    <path d="M7.5 6C7.50019 5.83608 7.46775 5.67399 7.40484 5.52457C7.34192 5.37515 7.24999 5.24182 7.13518 5.13349L1.91917 0.216565C1.74633 0.0611591 1.5236 -0.0156193 1.29861 0.00264835C1.07362 0.020916 0.864228 0.132778 0.71521 0.314318C0.566193 0.495856 0.489376 0.732662 0.501185 0.974099C0.512994 1.21554 0.612492 1.44244 0.778404 1.60629L5.3396 5.90578C5.35212 5.91754 5.36216 5.93203 5.36903 5.94828C5.3759 5.96453 5.37946 5.98216 5.37946 6C5.37946 6.01784 5.3759 6.03547 5.36903 6.05172C5.36216 6.06797 5.35212 6.08246 5.3396 6.09422L0.778404 10.3937C0.612492 10.5576 0.512994 10.7845 0.501185 11.0259C0.489376 11.2673 0.566193 11.5041 0.71521 11.6857C0.864228 11.8672 1.07362 11.9791 1.29861 11.9974C1.5236 12.0156 1.74633 11.9388 1.91917 11.7834L7.13331 6.86802C7.24841 6.75949 7.34063 6.62596 7.40386 6.4763C7.46708 6.32664 7.49985 6.16428 7.5 6Z" fill="currentColor"/>
</svg>
