<svg viewBox="0 0 16 16" fill="currentColor" xmlns="http://www.w3.org/2000/svg">
    <path fill-rule="evenodd" clip-rule="evenodd" d="M2.71995 5.71434C2.8777 5.55969 3.13095 5.5622 3.28561 5.71995L7.99976 10.5285L12.7144 5.71994C12.869 5.56219 13.1223 5.5597 13.28 5.71436C13.4378 5.86902 13.4403 6.12227 13.2856 6.28001L8.44825 11.2138C8.44824 11.2138 8.44822 11.2138 8.4482 11.2138C8.38795 11.2753 8.31642 11.322 8.23971 11.3532C8.16302 11.3844 8.08135 11.4 7.99976 11.4C7.91816 11.4 7.8365 11.3844 7.7598 11.3532C7.68309 11.322 7.61155 11.2753 7.5513 11.2138C7.55129 11.2138 7.55128 11.2138 7.55126 11.2138L2.71434 6.28C2.55969 6.12225 2.5622 5.869 2.71995 5.71434Z" />
</svg>
