<svg viewBox="0 0 8 12" fill="none" xmlns="http://www.w3.org/2000/svg">
    <path d="M0.500001 6C0.499812 5.83608 0.532254 5.67399 0.595165 5.52457C0.658075 5.37515 0.750007 5.24182 0.864822 5.13349L6.08083 0.216565C6.25367 0.0611591 6.4764 -0.0156193 6.70139 0.00264835C6.92638 0.020916 7.13577 0.132778 7.28479 0.314318C7.43381 0.495856 7.51062 0.732662 7.49881 0.974099C7.48701 1.21554 7.38751 1.44244 7.2216 1.60629L2.6604 5.90578C2.64788 5.91754 2.63784 5.93203 2.63097 5.94828C2.6241 5.96453 2.62054 5.98216 2.62054 6C2.62054 6.01784 2.6241 6.03547 2.63097 6.05172C2.63784 6.06797 2.64788 6.08246 2.6604 6.09422L7.2216 10.3937C7.38751 10.5576 7.48701 10.7845 7.49881 11.0259C7.51062 11.2673 7.43381 11.5041 7.28479 11.6857C7.13577 11.8672 6.92638 11.9791 6.70139 11.9974C6.4764 12.0156 6.25367 11.9388 6.08083 11.7834L0.866693 6.86802C0.751594 6.75949 0.659368 6.62596 0.596144 6.4763C0.53292 6.32664 0.500146 6.16428 0.500001 6Z" fill="currentColor"/>
</svg>
