<svg viewBox="0 0 10 12" fill="none" xmlns="http://www.w3.org/2000/svg">
    <path d="M9.5 8.75C9.30109 8.75 9.11032 8.67098 8.96967 8.53033C8.82902 8.38968 8.75 8.19891 8.75 8V5.569C8.77887 4.61954 8.46708 3.69109 7.87101 2.9515C7.27494 2.21191 6.43391 1.71 5.5 1.5365V0.5C5.5 0.367392 5.44732 0.240215 5.35355 0.146447C5.25978 0.0526784 5.13261 0 5 0C4.86739 0 4.74021 0.0526784 4.64645 0.146447C4.55268 0.240215 4.5 0.367392 4.5 0.5V1.5365C3.56608 1.71 2.72506 2.21191 2.12899 2.9515C1.53291 3.69109 1.22113 4.61954 1.25 5.569V8C1.25 8.19891 1.17098 8.38968 1.03033 8.53033C0.889678 8.67098 0.698912 8.75 0.5 8.75C0.367392 8.75 0.240215 8.80268 0.146447 8.89644C0.0526784 8.99021 0 9.11739 0 9.25C0 9.38261 0.0526784 9.50978 0.146447 9.60355C0.240215 9.69732 0.367392 9.75 0.5 9.75H9.5C9.63261 9.75 9.75978 9.69732 9.85355 9.60355C9.94732 9.50978 10 9.38261 10 9.25C10 9.11739 9.94732 8.99021 9.85355 8.89644C9.75978 8.80268 9.63261 8.75 9.5 8.75Z" fill="currentColor"/>
    <path d="M6.118 10.5H3.882C3.85131 10.5001 3.82171 10.5114 3.79885 10.5319C3.77598 10.5523 3.76144 10.5805 3.758 10.611C3.75256 10.6571 3.74988 10.7036 3.75 10.75C3.75 11.0815 3.8817 11.3995 4.11612 11.6339C4.35054 11.8683 4.66848 12 5 12C5.33152 12 5.64947 11.8683 5.88389 11.6339C6.11831 11.3995 6.25 11.0815 6.25 10.75C6.25012 10.7036 6.24745 10.6571 6.242 10.611C6.23878 10.5804 6.22431 10.5521 6.20139 10.5316C6.17848 10.5111 6.14876 10.4998 6.118 10.5Z" fill="currentColor"/>
</svg>
