<svg viewBox="0 0 11 12" fill="none" xmlns="http://www.w3.org/2000/svg">
<path d="M4.33338 11.3335H2.00001C1.44772 11.3335 1 10.8858 1 10.3335" stroke="currentColor" stroke-width="0.8" stroke-linecap="round" stroke-linejoin="round"/>
<path d="M9.00011 5.00021V1.66683C9.00011 1.48274 8.85087 1.3335 8.66677 1.3335H2.33335C1.59696 1.3335 1 1.93046 1 2.66685V10.3336C1 9.78132 1.44772 9.3336 2.00001 9.3336H4.33338" stroke="currentColor" stroke-width="0.8" stroke-linecap="round" stroke-linejoin="round"/>
<path fill-rule="evenodd" clip-rule="evenodd" d="M7.97797 6.19104L8.66154 7.66662H9.99489C10.1327 7.66121 10.259 7.74289 10.3106 7.87074C10.3622 7.99859 10.328 8.14508 10.2251 8.23685L9.06954 9.37597L9.71133 10.8498C9.76873 10.988 9.73163 11.1475 9.61911 11.2463C9.50658 11.345 9.34364 11.3611 9.21399 11.2862L7.66241 10.4147L6.11128 11.2862C5.98163 11.3611 5.81869 11.345 5.70616 11.2463C5.59364 11.1475 5.55654 10.988 5.61394 10.8498L6.25528 9.37731L5.09971 8.23818C4.99546 8.14706 4.96009 8.00005 5.01147 7.87148C5.06286 7.7429 5.18982 7.66078 5.32816 7.66662H6.66151L7.34774 6.18971C7.40931 6.07252 7.53088 5.99923 7.66326 5.99951C7.79564 5.99979 7.9169 6.07359 7.97797 6.19104Z" stroke="currentColor" stroke-width="0.8" stroke-linecap="round" stroke-linejoin="round"/>
</svg>
