<svg viewBox="0 0 16 16" fill="currentColor" xmlns="http://www.w3.org/2000/svg">
    <path fill-rule="evenodd" clip-rule="evenodd" d="M4.81244 2C5.1231 2 5.37494 2.25184 5.37494 2.5625V5.18749C5.37494 5.49815 5.1231 5.74999 4.81244 5.74999C4.50178 5.74999 4.24994 5.49815 4.24994 5.18749V2.5625C4.24994 2.25184 4.50178 2 4.81244 2Z" />
    <path fill-rule="evenodd" clip-rule="evenodd" d="M11.1874 2C11.498 2 11.7499 2.25184 11.7499 2.5625V5.18749C11.7499 5.49815 11.498 5.74999 11.1874 5.74999C10.8767 5.74999 10.6249 5.49815 10.6249 5.18749V2.5625C10.6249 2.25184 10.8767 2 11.1874 2Z" />
    <path fill-rule="evenodd" clip-rule="evenodd" d="M3.125 3.87506C2.50368 3.87506 2 4.37874 2 5.00006V7.25005H14V5.00006C14 4.37874 13.4963 3.87506 12.875 3.87506H3.125ZM14 8.37505H2V12.875C2 13.4964 2.50368 14 3.125 14H12.875C13.4963 14 14 13.4964 14 12.875V8.37505Z" />
    <path fill-rule="evenodd" clip-rule="evenodd" d="M3.125 4.62506C2.91789 4.62506 2.75 4.79295 2.75 5.00006V6.50005H13.25V5.00006C13.25 4.79295 13.0821 4.62506 12.875 4.62506H3.125ZM14 5.00006C14 4.37874 13.4963 3.87506 12.875 3.87506H3.125C2.50368 3.87506 2 4.37874 2 5.00006V7.25005H14V5.00006ZM2 8.37505H14V12.875C14 13.4964 13.4963 14 12.875 14H3.125C2.50368 14 2 13.4964 2 12.875V8.37505ZM13.25 9.12504H2.75V12.875C2.75 13.0821 2.91789 13.25 3.125 13.25H12.875C13.0821 13.25 13.25 13.0821 13.25 12.875V9.12504Z" />
</svg>
