<svg viewBox="0 0 16 16" fill="currentColor" xmlns="http://www.w3.org/2000/svg">
    <path fill-rule="evenodd" clip-rule="evenodd" d="M5.6666 2.60001C5.88752 2.60001 6.0666 2.77909 6.0666 3.00001V3.93335H9.93335V3.00001C9.93335 2.77909 10.1124 2.60001 10.3333 2.60001C10.5543 2.60001 10.7333 2.77909 10.7333 3.00001V3.93335H12.3333C12.9224 3.93335 13.4 4.41091 13.4 5.00002V7.00001V12.3333C13.4 12.9225 12.9224 13.4 12.3333 13.4H3.66664C3.07754 13.4 2.59998 12.9225 2.59998 12.3333V7.00001V5.00002C2.59998 4.41091 3.07754 3.93335 3.66664 3.93335H5.2666V3.00001C5.2666 2.77909 5.44569 2.60001 5.6666 2.60001ZM9.93335 4.73335V5.33334C9.93335 5.55425 10.1124 5.73334 10.3333 5.73334C10.5543 5.73334 10.7333 5.55425 10.7333 5.33334V4.73335H12.3333C12.4806 4.73335 12.6 4.85274 12.6 5.00002V6.60001H3.39998V5.00002C3.39998 4.85274 3.51937 4.73335 3.66664 4.73335H5.2666V5.33334C5.2666 5.55425 5.44569 5.73334 5.6666 5.73334C5.88752 5.73334 6.0666 5.55425 6.0666 5.33334V4.73335H9.93335ZM12.6 7.40001V12.3333C12.6 12.4806 12.4806 12.6 12.3333 12.6H3.66664C3.51937 12.6 3.39998 12.4806 3.39998 12.3333V7.40001H12.6Z" />
</svg>
