<svg  viewBox="0 0 12 12" fill="none" xmlns="http://www.w3.org/2000/svg">
    <path fill-rule="evenodd" clip-rule="evenodd" d="M2.8125 6.10352e-05C3.12316 6.10352e-05 3.375 0.2519 3.375 0.562559L3.375 3.18755C3.375 3.49821 3.12316 3.75005 2.8125 3.75005C2.50184 3.75005 2.25 3.49821 2.25 3.18755V0.562559C2.25 0.2519 2.50184 6.10352e-05 2.8125 6.10352e-05Z" fill="currentColor"/>
    <path fill-rule="evenodd" clip-rule="evenodd" d="M9.1875 6.10352e-05C9.49816 6.10352e-05 9.75 0.2519 9.75 0.562559V3.18755C9.75 3.49821 9.49816 3.75005 9.1875 3.75005C8.87684 3.75005 8.625 3.49821 8.625 3.18755V0.562559C8.625 0.2519 8.87684 6.10352e-05 9.1875 6.10352e-05Z" fill="currentColor"/>
    <path fill-rule="evenodd" clip-rule="evenodd" d="M1.125 1.87506C0.503678 1.87506 0 2.37874 0 3.00006V5.25005H12V3.00006C12 2.37874 11.4963 1.87506 10.875 1.87506H1.125ZM12 6.37505H0V10.875C0 11.4964 0.503678 12 1.125 12H10.875C11.4963 12 12 11.4964 12 10.875V6.37505Z" fill="currentColor"/>
    <path fill-rule="evenodd" clip-rule="evenodd" d="M1.125 2.62506C0.91789 2.62506 0.749997 2.79295 0.749997 3.00006V4.50005H11.25V3.00006C11.25 2.79295 11.0821 2.62506 10.875 2.62506H1.125ZM12 3.00006C12 2.37874 11.4963 1.87506 10.875 1.87506H1.125C0.503678 1.87506 0 2.37874 0 3.00006V5.25005H12V3.00006ZM0 6.37505H12V10.875C12 11.4964 11.4963 12 10.875 12H1.125C0.503678 12 0 11.4964 0 10.875V6.37505ZM11.25 7.12504H0.749997V10.875C0.749997 11.0821 0.91789 11.25 1.125 11.25H10.875C11.0821 11.25 11.25 11.0821 11.25 10.875V7.12504Z" fill="currentColor"/>
</svg>
