<svg viewBox="0 0 12 12" fill="none" xmlns="http://www.w3.org/2000/svg">
    <path d="M6 0C4.81331 0 3.65328 0.351894 2.66658 1.01118C1.67989 1.67047 0.910851 2.60754 0.456725 3.7039C0.00259973 4.80026 -0.11622 6.00665 0.115291 7.17054C0.346802 8.33443 0.918247 9.40352 1.75736 10.2426C2.59648 11.0818 3.66557 11.6532 4.82946 11.8847C5.99335 12.1162 7.19975 11.9974 8.2961 11.5433C9.39246 11.0891 10.3295 10.3201 10.9888 9.33342C11.6481 8.34673 12 7.18669 12 6C11.9981 4.40927 11.3654 2.88422 10.2406 1.75941C9.11578 0.634589 7.59073 0.00185261 6 0V0ZM9.4635 4.1L6.041 8.7445C6.0006 8.79811 5.94992 8.84313 5.89192 8.87695C5.83392 8.91076 5.76977 8.93268 5.70321 8.94143C5.63665 8.95018 5.56902 8.94558 5.50425 8.92791C5.43949 8.91024 5.37889 8.87984 5.326 8.8385L2.882 6.8845C2.83072 6.84346 2.78803 6.79272 2.75635 6.73519C2.72468 6.67765 2.70465 6.61443 2.69741 6.54915C2.68278 6.41732 2.72112 6.28507 2.804 6.1815C2.88688 6.07793 3.00751 6.01153 3.13935 5.9969C3.27119 5.98228 3.40344 6.02062 3.507 6.1035L5.545 7.734L8.6585 3.5085C8.69598 3.45225 8.74448 3.40419 8.80106 3.36722C8.85765 3.33024 8.92114 3.30512 8.9877 3.29338C9.05426 3.28163 9.12252 3.28351 9.18833 3.29889C9.25415 3.31426 9.31617 3.34283 9.37064 3.38285C9.42511 3.42287 9.4709 3.47352 9.50524 3.53174C9.53958 3.58996 9.56176 3.65453 9.57044 3.72157C9.57912 3.7886 9.57412 3.85669 9.55574 3.92174C9.53736 3.98678 9.50598 4.04742 9.4635 4.1Z" fill="currentColor"/>
</svg>
