<svg viewBox="0 0 12 12" fill="none" xmlns="http://www.w3.org/2000/svg">
    <path d="M10.2442 1.75538C9.40456 0.916826 8.33509 0.345938 7.17095 0.114881C6.00682 -0.116176 4.80029 0.00297152 3.70388 0.457262C2.60747 0.911552 1.67041 1.68059 1.01114 2.66716C0.351874 3.65374 0 4.81355 0 6C0 7.18645 0.351874 8.34626 1.01114 9.33284C1.67041 10.3194 2.60747 11.0884 3.70388 11.5427C4.80029 11.997 6.00682 12.1162 7.17095 11.8851C8.33509 11.6541 9.40456 11.0832 10.2442 10.2446C11.3686 9.11794 12 7.59146 12 6C12 4.40854 11.3686 2.88206 10.2442 1.75538ZM8.35309 7.64032C8.43853 7.73544 8.48429 7.85965 8.48098 7.98744C8.47768 8.11523 8.42556 8.23691 8.33533 8.3275C8.2451 8.41808 8.1236 8.4707 7.99578 8.47454C7.86796 8.47839 7.74352 8.43317 7.648 8.34817L6.09168 6.7924C6.06808 6.76912 6.03626 6.75606 6.00311 6.75606C5.96995 6.75606 5.93813 6.76912 5.91453 6.7924L4.35872 8.34817C4.26367 8.43984 4.13674 8.49107 4.00467 8.49107C3.8726 8.49107 3.74567 8.43984 3.65062 8.34817C3.60409 8.30171 3.56718 8.24654 3.542 8.18581C3.51682 8.12508 3.50385 8.05999 3.50385 7.99425C3.50385 7.9285 3.51682 7.86341 3.542 7.80268C3.56718 7.74195 3.60409 7.68678 3.65062 7.64032L5.20694 6.08504C5.21857 6.07347 5.2278 6.05971 5.2341 6.04456C5.2404 6.0294 5.24365 6.01316 5.24365 5.99675C5.24365 5.98034 5.2404 5.96409 5.2341 5.94894C5.2278 5.93379 5.21857 5.92003 5.20694 5.90845L3.65062 4.35268C3.5642 4.25767 3.51763 4.13308 3.52056 4.0047C3.52349 3.87631 3.5757 3.75398 3.66638 3.66301C3.75705 3.57205 3.87924 3.51943 4.00766 3.51604C4.13607 3.51265 4.26087 3.55876 4.35622 3.64482L5.91203 5.2006C5.92365 5.21225 5.93746 5.22149 5.95266 5.22779C5.96786 5.2341 5.98415 5.23734 6.00061 5.23734C6.01706 5.23734 6.03336 5.2341 6.04856 5.22779C6.06375 5.22149 6.07756 5.21225 6.08918 5.2006L7.6455 3.64482C7.7394 3.55102 7.86672 3.49835 7.99947 3.4984C8.13222 3.49845 8.25951 3.55121 8.35334 3.64507C8.44718 3.73894 8.49987 3.86623 8.49982 3.99893C8.49977 4.13163 8.44699 4.25888 8.35309 4.35268L6.79678 5.90845C6.7734 5.9319 6.76027 5.96365 6.76027 5.99675C6.76027 6.02985 6.7734 6.0616 6.79678 6.08504L8.35309 7.64032Z" fill="currentColor"/>
</svg>
