<svg viewBox="0 0 12 12" fill="none" xmlns="http://www.w3.org/2000/svg">
    <path d="M5.99161 0.00133907C4.38859 0.0275823 2.86029 0.683619 1.73708 1.82763C1.17509 2.38716 0.731669 3.05425 0.433339 3.78904C0.135009 4.52383 -0.0121086 5.31122 0.000779109 6.10415C-0.000143024 6.87896 0.151844 7.64633 0.44803 8.36229C0.744216 9.07825 1.17878 9.72873 1.72681 10.2764C2.27484 10.8241 2.92558 11.2583 3.64171 11.5541C4.35785 11.8498 5.12531 12.0014 5.90012 12H6.0071C7.61061 11.9835 9.14208 11.3316 10.2655 10.1873C11.3889 9.04294 12.0125 7.49971 11.9994 5.89618C12.0013 5.11197 11.8463 4.33532 11.5436 3.61188C11.2409 2.88844 10.7966 2.23283 10.2369 1.6836C9.67712 1.13437 9.0132 0.702613 8.28414 0.413714C7.55509 0.124814 6.77563 -0.0153923 5.99161 0.00133907ZM5.25019 8.27141C5.24658 8.17338 5.26256 8.07562 5.29718 7.98384C5.33181 7.89206 5.38438 7.80811 5.45183 7.73689C5.51928 7.66567 5.60026 7.60861 5.69002 7.56905C5.77978 7.52949 5.87653 7.50822 5.97461 7.5065H5.98811C6.18539 7.50688 6.37486 7.58361 6.51681 7.72062C6.65876 7.85763 6.74216 8.04427 6.74952 8.24141C6.75319 8.33946 6.73726 8.43725 6.70267 8.52906C6.66807 8.62086 6.6155 8.70485 6.54803 8.77608C6.48057 8.84732 6.39957 8.90438 6.30977 8.94391C6.21998 8.98345 6.1232 9.00467 6.0251 9.00633H6.0116C5.8144 9.0057 5.62506 8.92888 5.48317 8.79192C5.34127 8.65497 5.2578 8.46847 5.25019 8.27141ZM5.50016 6.25064V3.25097C5.50016 3.11838 5.55283 2.99122 5.64659 2.89746C5.74035 2.8037 5.86751 2.75103 6.0001 2.75103C6.1327 2.75103 6.25986 2.8037 6.35362 2.89746C6.44738 2.99122 6.50005 3.11838 6.50005 3.25097V6.25064C6.50005 6.38323 6.44738 6.51039 6.35362 6.60415C6.25986 6.69791 6.1327 6.75058 6.0001 6.75058C5.86751 6.75058 5.74035 6.69791 5.64659 6.60415C5.55283 6.51039 5.50016 6.38323 5.50016 6.25064Z" fill="currentColor"/>
</svg>
