<svg width="10" height="12" viewBox="0 0 10 12" fill="none" xmlns="http://www.w3.org/2000/svg">
    <path d="M0.0010611 4.36496C0.0558028 5.30619 0.051214 6.08671 0.0471582 6.77537C0.0364277 8.60116 0.019625 9.79071 1.289 11.0746C2.50887 12.3084 4.4938 12.3085 5.71374 11.0746C5.71376 11.0746 5.71376 11.0746 5.71378 11.0745L9.15518 7.59375C9.56276 7.18154 9.56283 6.51424 9.15518 6.10195C9.06904 6.01482 8.97142 5.94614 8.86725 5.89593L9.43761 5.31904C9.84423 4.90776 9.84423 4.23856 9.43761 3.82724C9.34171 3.73024 9.23153 3.65642 9.11393 3.60516C9.34064 3.20576 9.28914 2.68253 8.94595 2.33544C8.85513 2.24357 8.75153 2.17238 8.64093 2.12156C8.89849 1.71755 8.85767 1.16685 8.50067 0.805781C8.1611 0.46232 7.64381 0.405944 7.2459 0.635761C7.19433 0.51518 7.12038 0.404209 7.02575 0.308522C6.61915 -0.102755 5.95748 -0.102778 5.55129 0.308076C5.53016 0.329361 3.71151 2.16216 2.54694 3.33837L2.36814 2.0597C2.35405 1.49078 1.8944 1.03199 1.32559 1.03199C0.756158 1.03199 0.296648 1.49148 0.282997 2.06104C0.282742 2.07076 0.282928 2.08051 0.283484 2.09022C0.311318 2.56837 0.326406 3.04969 0.330554 3.59175C0.0959668 3.81404 -0.0120333 4.13038 0.0010611 4.36496ZM8.66355 7.09652L5.2221 10.5774C4.27332 11.537 2.72945 11.537 1.78063 10.5774C0.726377 9.51103 0.731754 8.59818 0.742438 6.77954C0.746517 6.08437 0.751152 5.29705 0.696132 4.34081C0.713538 4.0399 1.07749 3.89902 1.289 4.11294C1.40694 4.23223 1.36177 4.28357 1.39429 4.41107C1.39436 4.4117 1.39445 4.41233 1.39456 4.41294L1.6736 6.40877C1.7137 6.69523 2.06115 6.81306 2.26366 6.60814C2.86369 6.00115 2.20076 6.67129 5.72372 3.10928C5.85988 2.98178 6.07301 2.98457 6.20537 3.11842C6.34125 3.25586 6.34125 3.47825 6.20537 3.61568C6.20532 3.61573 6.2053 3.61577 6.20525 3.61582L4.73045 5.10748C4.59468 5.2448 4.59468 5.46742 4.73045 5.60474C4.86617 5.74206 5.08629 5.74206 5.22208 5.60474C5.3375 5.488 7.0737 3.73195 7.18866 3.61568C7.32423 3.4786 7.54475 3.4786 7.68026 3.6157C7.81615 3.75314 7.81615 3.97553 7.68026 4.11296C7.68026 4.11296 5.8289 5.98552 5.71371 6.10202C5.57795 6.23934 5.57795 6.46196 5.71371 6.59928C5.84945 6.7366 6.06958 6.7366 6.20534 6.59928L7.68026 5.10748C7.81584 4.97037 8.03641 4.9704 8.1719 5.10748C8.30745 5.24459 8.30748 5.46766 8.17192 5.60474C7.92649 5.85298 6.80407 6.98824 6.697 7.09654C6.56123 7.23386 6.56123 7.45648 6.697 7.5938C6.83274 7.73112 7.05287 7.73112 7.18863 7.5938L8.17366 6.5975C8.30938 6.46217 8.52858 6.46278 8.66355 6.59926C8.79943 6.73667 8.79943 6.95908 8.66355 7.09652ZM8.45434 2.83274C8.59022 2.97018 8.59022 3.19257 8.45434 3.33L8.37589 3.40935C8.32544 3.30276 8.25698 3.20443 8.1719 3.1184C8.08684 3.03237 7.98964 2.96312 7.88424 2.91209L7.96287 2.83258C8.09843 2.69566 8.31888 2.69571 8.45434 2.83274ZM8.946 4.8218L8.86708 4.90162C8.81744 4.79621 8.74974 4.69738 8.66355 4.6102C8.57738 4.52304 8.47967 4.45455 8.37545 4.40434L8.45434 4.32454C8.58992 4.18744 8.81049 4.18746 8.94598 4.32452C9.08151 4.46163 9.08153 4.6847 8.946 4.8218ZM8.00906 1.30309C8.14453 1.4401 8.14506 1.66185 8.00992 1.79948C7.96561 1.84395 8.26606 1.54247 6.90097 2.91212C6.85052 2.80553 6.78206 2.70719 6.69698 2.62114C6.61155 2.53474 6.51477 2.46673 6.41156 2.41662C6.47351 2.35424 7.47877 1.34198 7.51738 1.30306C7.65303 1.16596 7.87353 1.166 8.00906 1.30309ZM2.54609 4.33343C3.58442 3.28305 6.0176 0.83091 6.04249 0.805828C6.17809 0.66872 6.39859 0.668743 6.53414 0.805828C6.66384 0.937005 6.66863 1.14322 6.55458 1.2803C3.30355 4.56193 8.08341 -0.27336 2.2645 5.61271L2.08998 4.36463C2.22922 4.47168 2.42376 4.4572 2.54609 4.33343ZM0.978555 2.06607C0.995891 1.76523 1.35994 1.62435 1.57142 1.83823C1.68936 1.95754 1.64417 2.00883 1.67669 2.13633C1.67678 2.13698 1.90464 3.76671 1.90464 3.76671C1.70026 3.46526 1.36789 3.30091 1.02268 3.30771C1.01605 2.8702 1.00164 2.46715 0.978555 2.06607Z" fill="currentColor"/>
</svg>
