<svg width="12" height="12" viewBox="0 0 12 12" fill="none" xmlns="http://www.w3.org/2000/svg">
    <path d="M8.78217 6.44256L7.40662 7.81811C7.2739 7.95084 7.05872 7.95084 6.92601 7.81811L6.90944 7.80154C6.77672 7.66881 6.77672 7.45363 6.90944 7.32093L8.78217 5.44821C8.98812 5.24226 8.98812 4.90837 8.78217 4.70242C8.57623 4.49648 8.24233 4.49648 8.03639 4.70242L6.16366 6.57515C6.03094 6.70788 5.81576 6.70788 5.68305 6.57515L5.66648 6.55858C5.53376 6.42585 5.53376 6.2107 5.66648 6.07797L8.03639 3.70806C8.24233 3.50212 8.24233 3.16823 8.03639 2.96228C7.83044 2.75634 7.49655 2.75634 7.29061 2.96228L4.9207 5.33219C4.78798 5.46492 4.5728 5.46492 4.44009 5.33219C4.30739 5.19946 4.30737 4.98428 4.44009 4.85158L6.31282 2.97885C6.51876 2.77291 6.51876 2.43902 6.31282 2.23307C6.10687 2.02713 5.77298 2.02713 5.56704 2.23307C5.15147 2.64867 1.77558 6.02453 1.63516 6.16495C1.53373 5.33629 1.40611 4.08178 1.40604 4.08096V4.08098C1.40604 3.88335 1.32326 3.68571 1.15765 3.54456C0.716812 3.16886 0.0145781 3.46591 0 4.06368C0.205734 7.56121 -0.407719 9.43368 1.20009 11.0415C2.29844 12.1399 4.3278 12.3885 5.42616 11.2901L9.52793 7.18835C9.73387 6.9824 9.73387 6.64851 9.52793 6.44256C9.32198 6.23662 8.98809 6.23662 8.78217 6.44256Z" fill="currentColor"/>
    <path d="M0.70291 2.67514C0.995879 2.67514 1.28041 2.76631 1.51643 2.93342C1.46088 2.42037 1.41822 2.00225 1.41822 2.00225C1.41822 2.00201 1.41822 2.00201 1.41822 2.00178C1.41799 1.80444 1.33525 1.60709 1.16979 1.466C0.728856 1.09001 0.0266445 1.38744 0.012207 1.98514C0.0295508 2.28022 0.0410352 2.56358 0.0485352 2.83615C0.248691 2.73115 0.473457 2.67514 0.70291 2.67514Z" fill="currentColor"/>
    <path d="M2.17105 4.63499L5.07004 1.73577C5.28027 1.52577 5.55285 1.40108 5.84629 1.37905L6.32512 0.900223C6.5309 0.694207 6.5309 0.360457 6.32512 0.154441C6.1184 -0.0518085 5.78493 -0.0511522 5.57934 0.154441C5.24441 0.489129 2.9902 2.74358 2.05176 3.68202C2.08574 3.7971 2.1052 3.91686 2.10871 4.03921C2.11691 4.11749 2.14012 4.34389 2.17105 4.63499Z" fill="currentColor"/>
    <path d="M7.11338 2.23382C7.25471 2.16304 7.40893 2.12015 7.56947 2.10843L8.04854 1.62936C8.25432 1.42358 8.25432 1.0896 8.04854 0.883583C7.84275 0.678271 7.50868 0.677661 7.30275 0.883583L6.61182 1.57452C6.84043 1.72363 7.02525 1.95428 7.11338 2.23382Z" fill="currentColor"/>
    <path d="M11.6484 2.15625H10.9453C10.7512 2.15625 10.5938 2.31366 10.5938 2.50781C10.5938 2.70197 10.7512 2.85938 10.9453 2.85938H11.6484C11.8426 2.85938 12 2.70197 12 2.50781C12 2.31366 11.8426 2.15625 11.6484 2.15625Z" fill="currentColor"/>
    <path d="M11.1705 0.102973C11.0332 -0.0343242 10.8106 -0.0343242 10.6733 0.102973L9.97016 0.806098C9.83286 0.943395 9.83286 1.16598 9.97016 1.30328C10.1075 1.44057 10.3301 1.44057 10.4673 1.30328L11.1705 0.600152C11.3078 0.462879 11.3078 0.24027 11.1705 0.102973Z" fill="currentColor"/>
</svg>
