<svg viewBox="0 0 16 16" fill="currentColor" xmlns="http://www.w3.org/2000/svg">
    <path fill-rule="evenodd" clip-rule="evenodd" d="M7.99988 14C11.3136 14 13.9999 11.3137 13.9999 8C13.9999 4.68629 11.3136 2 7.99988 2C4.68617 2 1.99988 4.68629 1.99988 8C1.99988 11.3137 4.68617 14 7.99988 14ZM8.56238 4.25C8.56238 3.93934 8.31054 3.6875 7.99988 3.6875C7.68922 3.6875 7.43738 3.93934 7.43738 4.25V8.375C7.43738 8.68566 7.68922 8.9375 7.99988 8.9375H11.3749C11.6855 8.9375 11.9374 8.68566 11.9374 8.375C11.9374 8.06434 11.6855 7.8125 11.3749 7.8125H8.56238V4.25Z" />
</svg>
