<svg viewBox="0 0 12 12" fill="none" xmlns="http://www.w3.org/2000/svg">
    <path fill-rule="evenodd" clip-rule="evenodd" d="M6 12C9.31371 12 12 9.31371 12 6C12 2.68629 9.31371 0 6 0C2.68629 0 0 2.68629 0 6C0 9.31371 2.68629 12 6 12ZM6.5625 2.25C6.5625 1.93934 6.31066 1.6875 6 1.6875C5.68934 1.6875 5.4375 1.93934 5.4375 2.25V6.375C5.4375 6.68566 5.68934 6.9375 6 6.9375H9.375C9.68566 6.9375 9.9375 6.68566 9.9375 6.375C9.9375 6.06434 9.68566 5.8125 9.375 5.8125H6.5625V2.25Z" fill="currentColor"/>
</svg>
