<svg viewBox="0 0 16 16" fill="currentColor" xmlns="http://www.w3.org/2000/svg">
    <path fill-rule="evenodd" clip-rule="evenodd" d="M7.99998 3.39998C5.45947 3.39998 3.39998 5.45947 3.39998 7.99998C3.39998 10.5405 5.45947 12.6 7.99998 12.6C10.5405 12.6 12.6 10.5405 12.6 7.99998C12.6 5.45947 10.5405 3.39998 7.99998 3.39998ZM2.59998 7.99998C2.59998 5.01764 5.01764 2.59998 7.99998 2.59998C10.9823 2.59998 13.4 5.01764 13.4 7.99998C13.4 10.9823 10.9823 13.4 7.99998 13.4C5.01764 13.4 2.59998 10.9823 2.59998 7.99998Z" />
    <path fill-rule="evenodd" clip-rule="evenodd" d="M8.00044 5.20867C8.22136 5.20867 8.40044 5.38776 8.40044 5.60867V7.82402L10.8794 10.0964C11.0423 10.2457 11.0533 10.4987 10.904 10.6616C10.7547 10.8244 10.5017 10.8354 10.3388 10.6861L7.73015 8.29484C7.6475 8.21907 7.60044 8.1121 7.60044 7.99998V5.60867C7.60044 5.38776 7.77953 5.20867 8.00044 5.20867Z" />
</svg>
