<svg viewBox="0 0 32 32" fill="none" xmlns="http://www.w3.org/2000/svg">
<path fill-rule="evenodd" clip-rule="evenodd" d="M14.0536 3.24101C14.5488 3.7907 15.254 4.10454 15.9938 4.10454C16.7337 4.10454 17.4388 3.7907 17.934 3.24101L19.1964 1.85591C19.9377 1.03545 21.1151 0.770193 22.1366 1.19349C23.1582 1.61679 23.8029 2.63706 23.7466 3.7414L23.6519 5.60955C23.6148 6.34649 23.8911 7.06475 24.4125 7.58689C24.9339 8.10903 25.6517 8.38636 26.3887 8.35039L28.2569 8.25564C29.3605 8.20124 30.3791 8.84658 30.8013 9.86767C31.2235 10.8888 30.9581 12.065 30.1384 12.8059L28.7479 14.0602C28.1989 14.5561 27.8856 15.2613 27.8856 16.0011C27.8856 16.7409 28.1989 17.4461 28.7479 17.942L30.1384 19.1963C30.9588 19.9376 31.2241 21.115 30.8008 22.1366C30.3775 23.1581 29.3572 23.8028 28.2529 23.7466L26.3847 23.6518C25.6461 23.6138 24.926 23.8907 24.403 24.4136C23.88 24.9366 23.6032 25.6567 23.6412 26.3953L23.7359 28.2635C23.7849 29.362 23.1411 30.3737 22.1253 30.7947C21.1095 31.2157 19.9389 30.956 19.1964 30.145L17.9407 28.7559C17.445 28.2069 16.7401 27.8937 16.0005 27.8937C15.2609 27.8937 14.5559 28.2069 14.0603 28.7559L12.7993 30.145C12.0579 30.9599 10.8852 31.2225 9.86702 30.8016C8.84888 30.3808 8.20391 29.3667 8.25435 28.2662L8.35043 26.398C8.38842 25.6594 8.1116 24.9393 7.58863 24.4163C7.06566 23.8933 6.34554 23.6165 5.60692 23.6545L3.73878 23.7492C2.63488 23.8069 1.61418 23.1636 1.18994 22.1428C0.765696 21.122 1.02974 19.9448 1.84928 19.203L3.23838 17.9487C3.78738 17.4528 4.10068 16.7476 4.10068 16.0078C4.10068 15.268 3.78738 14.5628 3.23838 14.0669L1.84928 12.8059C1.03249 12.065 0.768836 10.891 1.19039 9.87198C1.61194 8.85296 2.62792 8.20833 3.72944 8.26098L5.59758 8.35572C6.33763 8.39463 7.05938 8.11744 7.58314 7.59318C8.1069 7.06891 8.38339 6.34689 8.34376 5.60688L8.25435 3.7374C8.2027 2.63635 8.84724 1.62121 9.86568 1.19961C10.8841 0.777997 12.0576 1.04052 12.7993 1.85591L14.0536 3.24101Z"  stroke="currentColor"  stroke-width="1.7" stroke-linecap="round" stroke-linejoin="round"/>
<path fill-rule="evenodd" clip-rule="evenodd" d="M9.98914 16.0019C9.98914 19.3183 12.6776 22.0067 15.9939 22.0067C19.3102 22.0067 21.9986 19.3183 21.9986 16.0019C21.9986 12.6856 19.3102 9.99719 15.9939 9.99719C12.6776 9.99719 9.98914 12.6856 9.98914 16.0019H9.98914Z"  stroke="currentColor" stroke-width="1.7" stroke-linecap="round" stroke-linejoin="round"/>
</svg>
