<svg viewBox="0 0 24 24" xmlns="http://www.w3.org/2000/svg" fill="currentColor"><path d="M22.546 16.938c-.67 0-1.212.543-1.212 1.212v1.855a1.572 1.572 0 01-1.571 1.57H3.995c-.867 0-1.57-.703-1.571-1.57V18.15a1.212 1.212 0 10-2.424 0v1.855a4 4 0 003.995 4h15.768a4 4 0 004-4V18.15a1.212 1.212 0 00-1.217-1.212z"/><path d="M11.879 0C10.809 0 9.94.868 9.94 1.939v9.066a.25.25 0 01-.25.25H7.031a.97.97 0 00-.732 1.606l4.848 5.576a.969.969 0 001.464 0l4.848-5.576a.97.97 0 00-.732-1.606h-2.659a.25.25 0 01-.25-.25V1.939C13.818.869 12.95 0 11.879 0z"/></svg>
