<svg viewBox="0 0 24 25" fill="none" xmlns="http://www.w3.org/2000/svg">
<path d="M9.4905 9.33081C10.25 9.33081 10.8658 8.69711 10.8658 7.9154C10.8658 7.1337 10.25 6.5 9.4905 6.5C8.73096 6.5 8.11523 7.1337 8.11523 7.9154C8.11523 8.69711 8.73096 9.33081 9.4905 9.33081Z" fill="#85919D"/>
<path d="M14.6248 9.33081C15.3843 9.33081 16 8.69711 16 7.9154C16 7.1337 15.3843 6.5 14.6248 6.5C13.8652 6.5 13.2495 7.1337 13.2495 7.9154C13.2495 8.69711 13.8652 9.33081 14.6248 9.33081Z" fill="#85919D"/>
<path d="M9.4905 13.9153C10.25 13.9153 10.8658 13.2816 10.8658 12.4999C10.8658 11.7182 10.25 11.0845 9.4905 11.0845C8.73096 11.0845 8.11523 11.7182 8.11523 12.4999C8.11523 13.2816 8.73096 13.9153 9.4905 13.9153Z" fill="#85919D"/>
<path d="M14.6248 13.9153C15.3843 13.9153 16 13.2816 16 12.4999C16 11.7182 15.3843 11.0845 14.6248 11.0845C13.8652 11.0845 13.2495 11.7182 13.2495 12.4999C13.2495 13.2816 13.8652 13.9153 14.6248 13.9153Z" fill="#85919D"/>
<path d="M9.4905 18.5002C10.25 18.5002 10.8658 17.8665 10.8658 17.0848C10.8658 16.3031 10.25 15.6694 9.4905 15.6694C8.73096 15.6694 8.11523 16.3031 8.11523 17.0848C8.11523 17.8665 8.73096 18.5002 9.4905 18.5002Z" fill="#85919D"/>
<path d="M14.6248 18.5002C15.3843 18.5002 16 17.8665 16 17.0848C16 16.3031 15.3843 15.6694 14.6248 15.6694C13.8652 15.6694 13.2495 16.3031 13.2495 17.0848C13.2495 17.8665 13.8652 18.5002 14.6248 18.5002Z" fill="#85919D"/>
</svg>
