<svg viewBox="0 0 10 12" fill="none" xmlns="http://www.w3.org/2000/svg">
    <path d="M8.18179 10.6072H1.51515C1.43478 10.6072 1.3577 10.5753 1.30087 10.5184C1.24404 10.4616 1.21212 10.3845 1.21212 10.3042V2.42539C1.21212 2.26466 1.14826 2.1105 1.03461 1.99685C0.920948 1.88319 0.766795 1.81934 0.606058 1.81934C0.445322 1.81934 0.291169 1.88319 0.177511 1.99685C0.0638525 2.1105 0 2.26466 0 2.42539V10.6072C0 10.9287 0.127705 11.237 0.355021 11.4643C0.582337 11.6916 0.890644 11.8193 1.21212 11.8193H8.18179C8.34253 11.8193 8.49668 11.7554 8.61034 11.6418C8.724 11.5281 8.78785 11.374 8.78785 11.2132C8.78785 11.0525 8.724 10.8983 8.61034 10.7847C8.49668 10.671 8.34253 10.6072 8.18179 10.6072Z" fill="currentColor"/>
    <path d="M9.84228 1.85454L8.11865 0.157575C8.0689 0.107614 8.00978 0.067974 7.94467 0.0409322C7.87956 0.0138904 7.80976 -2.01312e-05 7.73925 2.18665e-08H2.65806C2.51565 2.18665e-08 2.37907 0.0565734 2.27837 0.157274C2.17767 0.257975 2.12109 0.394555 2.12109 0.536968V9.09209C2.12109 9.2345 2.17767 9.37108 2.27837 9.47178C2.37907 9.57248 2.51565 9.62906 2.65806 9.62906H9.46288C9.6053 9.62906 9.74188 9.57248 9.84258 9.47178C9.94328 9.37108 9.99985 9.2345 9.99985 9.09209V2.23454C9.99985 2.16395 9.98594 2.09405 9.9589 2.02885C9.93186 1.96365 9.89223 1.90441 9.84228 1.85454Z" fill="currentColor"/>
</svg>
