<svg viewBox="0 0 10 12" fill="none" xmlns="http://www.w3.org/2000/svg">
    <path d="M7.66667 11H1.66667C1.48986 11 1.32029 10.9297 1.19526 10.8047C1.07024 10.6797 1 10.5101 1 10.3333V3.16663" stroke="currentColor" stroke-width="0.8" stroke-linecap="round" stroke-linejoin="round"/>
    <path d="M9.33322 8.73733C9.33812 8.94885 9.25904 9.15369 9.11327 9.30703C8.96751 9.46037 8.76693 9.54973 8.55544 9.55555H3.111C2.89951 9.54973 2.69894 9.46037 2.55317 9.30703C2.40741 9.15369 2.32832 8.94885 2.33322 8.73733V1.81822C2.32832 1.60671 2.40741 1.40187 2.55317 1.24852C2.69894 1.09518 2.89951 1.00582 3.111 1H7.06656C7.16972 1.00052 7.2717 1.02202 7.3663 1.06321C7.46089 1.10439 7.54611 1.16439 7.61678 1.23956L9.10522 2.80578C9.25233 2.96212 9.33393 3.16889 9.33322 3.38356V8.73733Z" stroke="currentColor" stroke-width="0.8" stroke-linecap="round" stroke-linejoin="round"/>
</svg>
