<svg viewBox="0 0 14 11" fill="none" xmlns="http://www.w3.org/2000/svg">
<path d="M7.875 9.75H1.375C1.14294 9.75 0.920376 9.65781 0.756282 9.49372C0.592187 9.32962 0.5 9.10706 0.5 8.875V1.875C0.5 1.64294 0.592187 1.42038 0.756282 1.25628C0.920376 1.09219 1.14294 1 1.375 1H11.875C12.1071 1 12.3296 1.09219 12.4937 1.25628C12.6578 1.42038 12.75 1.64294 12.75 1.875V5.8125" stroke="currentColor" stroke-linecap="round" stroke-linejoin="round"/>
<path d="M5.375 9.75H11.875C12.1071 9.75 12.3296 9.65781 12.4937 9.49372C12.6578 9.32962 12.75 9.10706 12.75 8.875V1.875C12.75 1.64294 12.6578 1.42038 12.4937 1.25628C12.3296 1.09219 12.1071 1 11.875 1H1.375C1.14294 1 0.920377 1.09219 0.756283 1.25628C0.592188 1.42038 0.5 1.64294 0.5 1.875V5.8125" stroke="currentColor" stroke-linecap="round" stroke-linejoin="round"/>
<path d="M12.5523 1.3208L7.80159 4.9748C7.46426 5.2343 7.0506 5.375 6.625 5.375C6.19941 5.375 5.78575 5.2343 5.44842 4.9748L0.697754 1.3208" stroke="currentColor" stroke-linecap="round" stroke-linejoin="round"/>
</svg>
