<svg viewBox="0 0 32 22" fill="none" xmlns="http://www.w3.org/2000/svg">
    <path d="M31.8507 2.44265C31.8061 2.42373 31.7569 2.41857 31.7094 2.42784C31.6618 2.4371 31.6182 2.46037 31.584 2.49465L18.588 15.488C17.9004 16.1752 16.9681 16.5612 15.996 16.5612C15.0239 16.5612 14.0916 16.1752 13.404 15.488L0.413336 2.49465C0.379346 2.46006 0.335672 2.43657 0.288069 2.42729C0.240466 2.41801 0.191167 2.42336 0.146669 2.44265C0.102945 2.46149 0.0657262 2.49277 0.0396472 2.5326C0.0135683 2.57243 -0.00021881 2.61905 2.62608e-06 2.66666V18.6667C2.62608e-06 19.3739 0.280954 20.0522 0.781051 20.5523C1.28115 21.0524 1.95942 21.3333 2.66667 21.3333H29.3333C30.0406 21.3333 30.7189 21.0524 31.2189 20.5523C31.719 20.0522 32 19.3739 32 18.6667V2.66666C32.0002 2.61871 31.9861 2.57179 31.9595 2.5319C31.9329 2.492 31.895 2.46093 31.8507 2.44265Z" fill="currentColor"/>
    <path d="M14.8195 14.0747C15.1324 14.3867 15.5563 14.5619 15.9982 14.5619C16.4401 14.5619 16.8639 14.3867 17.1769 14.0747L30.0915 1.16C30.1789 1.07257 30.2403 0.962539 30.2688 0.842218C30.2973 0.721897 30.2918 0.596024 30.2528 0.478667C30.1062 0.0400003 29.6982 0 29.3328 0H2.66619C2.29952 0 1.88886 0.0400003 1.74486 0.478667C1.70592 0.596024 1.70039 0.721897 1.72888 0.842218C1.75737 0.962539 1.81876 1.07257 1.90619 1.16L14.8195 14.0747Z" fill="currentColor"/>
</svg>
