<svg viewBox="0 0 48 49" fill="none" xmlns="http://www.w3.org/2000/svg">
<rect transform="translate(0 0.259766)" fill="white"/>
<path d="M40.0001 9.5931C40.0001 9.23948 39.8597 8.90034 39.6096 8.65029C39.3596 8.40024 39.0204 8.25977 38.6668 8.25977H30.0001C29.7369 8.26108 29.48 8.34028 29.2617 8.48739C29.0434 8.6345 28.8735 8.84294 28.7735 9.08643C28.6714 9.32925 28.6435 9.59686 28.6933 9.85552C28.7431 10.1142 28.8685 10.3523 29.0535 10.5398L32.0001 13.4598C32.032 13.4897 32.0574 13.5258 32.0748 13.566C32.0922 13.6061 32.1012 13.6494 32.1012 13.6931C32.1012 13.7368 32.0922 13.7801 32.0748 13.8202C32.0574 13.8604 32.032 13.8965 32.0001 13.9264L26.1601 19.7531C26.0053 19.9068 25.8825 20.0896 25.7986 20.2909C25.7148 20.4923 25.6716 20.7083 25.6716 20.9264C25.6716 21.1446 25.7148 21.3605 25.7986 21.5619C25.8825 21.7633 26.0053 21.9461 26.1601 22.0998C26.3129 22.2562 26.4954 22.3805 26.6969 22.4654C26.8984 22.5502 27.1148 22.594 27.3335 22.594C27.5521 22.594 27.7686 22.5502 27.9701 22.4654C28.1716 22.3805 28.3541 22.2562 28.5068 22.0998L34.3335 16.2598C34.3634 16.2279 34.3996 16.2025 34.4397 16.1851C34.4798 16.1677 34.5231 16.1588 34.5668 16.1588C34.6105 16.1588 34.6538 16.1677 34.6939 16.1851C34.7341 16.2025 34.7702 16.2279 34.8001 16.2598L37.7201 19.1798C37.8425 19.3082 37.9893 19.4109 38.1518 19.4818C38.3144 19.5528 38.4895 19.5906 38.6668 19.5931C39.0204 19.5931 39.3596 19.4526 39.6096 19.2026C39.8597 18.9525 40.0001 18.6134 40.0001 18.2598V9.5931Z" fill="currentColor"/>
<path d="M9.33333 40.2598H18C18.2632 40.2585 18.5202 40.1793 18.7385 40.0322C18.9568 39.8851 19.1266 39.6767 19.2267 39.4332C19.3288 39.1904 19.3567 38.9227 19.3068 38.6641C19.257 38.4054 19.1317 38.1673 18.9467 37.9798L16 35.0598C15.9681 35.0299 15.9427 34.9938 15.9253 34.9536C15.908 34.9135 15.899 34.8702 15.899 34.8265C15.899 34.7828 15.908 34.7395 15.9253 34.6994C15.9427 34.6593 15.9681 34.6231 16 34.5932L21.8133 28.7665C22.1245 28.4553 22.2993 28.0333 22.2993 27.5932C22.2993 27.1531 22.1245 26.731 21.8133 26.4198C21.5021 26.1087 21.0801 25.9338 20.64 25.9338C20.1999 25.9338 19.7779 26.1087 19.4667 26.4198L13.6667 32.2598C13.6367 32.2917 13.6006 32.3172 13.5605 32.3345C13.5203 32.3519 13.4771 32.3609 13.4333 32.3609C13.3896 32.3609 13.3463 32.3519 13.3062 32.3345C13.2661 32.3172 13.2299 32.2917 13.2 32.2598L10.28 29.3132C10.0925 29.1282 9.8544 29.0028 9.59575 28.953C9.3371 28.9032 9.06948 28.9311 8.82667 29.0332C8.58317 29.1332 8.37474 29.3031 8.22763 29.5214C8.08052 29.7397 8.00131 29.9966 8 30.2598V38.9265C8 39.2801 8.14048 39.6193 8.39052 39.8693C8.64057 40.1194 8.97971 40.2598 9.33333 40.2598Z" fill="currentColor"/>
</svg>
