<svg viewBox="0 0 17 32" fill="none" xmlns="http://www.w3.org/2000/svg">
    <path d="M10.7513 31.9746C10.5926 31.9809 10.491 31.9937 10.3894 31.9937C8.2175 31.9937 6.05199 31.9873 3.88013 32C3.57531 32 3.49275 31.9174 3.49275 31.6126C3.49911 26.5577 3.49911 21.4963 3.49911 16.4414C3.49911 16.308 3.49911 16.1746 3.49911 16.0032C2.31792 16.0032 1.16849 16.0032 0 16.0032C0 14.1997 0 12.4279 0 10.6053C0.120659 10.6053 0.234967 10.6053 0.342925 10.6053C1.29549 10.6053 2.24806 10.5989 3.20063 10.6116C3.44195 10.6116 3.50546 10.5418 3.50546 10.3068C3.49275 8.89067 3.49275 7.46816 3.50546 6.05201C3.51181 5.06134 3.67057 4.09607 4.1278 3.20065C4.7819 1.93691 5.81702 1.1177 7.12522 0.60966C8.1921 0.19053 9.31613 0.0381187 10.4465 0.0190673C12.2881 -0.00633457 14.1298 0.00636634 15.9714 1.58762e-05C16.1429 1.58762e-05 16.2826 -0.00633459 16.2826 0.234983C16.2762 1.98136 16.2762 3.72774 16.2762 5.47412C16.2762 5.49317 16.2699 5.51222 16.2445 5.59477C16.1365 5.59477 16.0159 5.59477 15.8952 5.59477C14.7521 5.59477 13.609 5.58842 12.466 5.59477C11.8055 5.59477 11.2721 5.86149 10.9355 6.43939C10.8339 6.61085 10.7704 6.83312 10.7704 7.03633C10.7513 8.11591 10.7704 9.19549 10.7577 10.2751C10.7577 10.5291 10.8339 10.5989 11.0816 10.5989C12.6692 10.5862 14.2568 10.5926 15.8444 10.5926C15.9714 10.5926 16.0921 10.5926 16.308 10.5926C16.0857 12.4088 15.8698 14.187 15.6475 15.9841C13.9964 15.9841 12.3898 15.9841 10.7513 15.9841C10.7513 21.3249 10.7513 26.6339 10.7513 31.9746Z" fill="currentColor"/>
</svg>
