<svg viewBox="0 0 10 12" fill="none" xmlns="http://www.w3.org/2000/svg">
    <path d="M9.707 2.457L7.543 0.293C7.35551 0.105451 7.10119 5.66374e-05 6.836 0L1 0C0.734784 0 0.48043 0.105357 0.292893 0.292893C0.105357 0.48043 0 0.734784 0 1V11C0 11.2652 0.105357 11.5196 0.292893 11.7071C0.48043 11.8946 0.734784 12 1 12H9C9.26522 12 9.51957 11.8946 9.70711 11.7071C9.89464 11.5196 10 11.2652 10 11V3.164C9.99994 2.89881 9.89455 2.64449 9.707 2.457ZM4.5 9.75H2.25C2.11739 9.75 1.99021 9.69732 1.89645 9.60355C1.80268 9.50979 1.75 9.38261 1.75 9.25C1.75 9.11739 1.80268 8.99021 1.89645 8.89645C1.99021 8.80268 2.11739 8.75 2.25 8.75H4.5C4.63261 8.75 4.75979 8.80268 4.85355 8.89645C4.94732 8.99021 5 9.11739 5 9.25C5 9.38261 4.94732 9.50979 4.85355 9.60355C4.75979 9.69732 4.63261 9.75 4.5 9.75ZM6.75 7.75H2.25C2.11739 7.75 1.99021 7.69732 1.89645 7.60355C1.80268 7.50979 1.75 7.38261 1.75 7.25C1.75 7.11739 1.80268 6.99021 1.89645 6.89645C1.99021 6.80268 2.11739 6.75 2.25 6.75H6.75C6.88261 6.75 7.00979 6.80268 7.10355 6.89645C7.19732 6.99021 7.25 7.11739 7.25 7.25C7.25 7.38261 7.19732 7.50979 7.10355 7.60355C7.00979 7.69732 6.88261 7.75 6.75 7.75ZM6.75 5.75H2.25C2.11739 5.75 1.99021 5.69732 1.89645 5.60355C1.80268 5.50979 1.75 5.38261 1.75 5.25C1.75 5.11739 1.80268 4.99021 1.89645 4.89645C1.99021 4.80268 2.11739 4.75 2.25 4.75H6.75C6.88261 4.75 7.00979 4.80268 7.10355 4.89645C7.19732 4.99021 7.25 5.11739 7.25 5.25C7.25 5.38261 7.19732 5.50979 7.10355 5.60355C7.00979 5.69732 6.88261 5.75 6.75 5.75Z" fill="currentColor"/>
</svg>
