<svg viewBox="0 0 10 12" fill="currentColor" xmlns="http://www.w3.org/2000/svg">
    <path d="M5.10952 1.12259C4.02519 0.309343 2.29432 0.724229 1.48658 0.985658C1.28871 1.0497 1.16113 1.23699 1.16113 1.44497V5.00517C1.16113 5.35171 1.50566 5.59451 1.84099 5.5071C2.80487 5.25587 4.30024 5.06177 5.34178 5.84517C6.445 6.67176 8.435 6.23276 9.33498 5.97123C9.54129 5.91127 9.67726 5.71976 9.67726 5.50491V1.92712C9.67726 1.58738 9.34584 1.34541 9.01604 1.42701C7.94676 1.69159 6.19593 1.9374 5.10952 1.12259Z" />
    <path d="M0.387097 0C0.174194 0 0 0.174194 0 0.387097V11.6129C0 11.8258 0.174194 12 0.387097 12C0.6 12 0.774194 11.8258 0.774194 11.6129V6V0.967742V0.387097C0.774194 0.174194 0.6 0 0.387097 0Z"/>
</svg>
