<svg viewBox="0 0 32 32" fill="none" xmlns="http://www.w3.org/2000/svg">
<path d="M13.944 24.4986L10.2947 28.1466C9.58688 28.823 8.64562 29.2004 7.66666 29.2004C6.68771 29.2004 5.74644 28.823 5.03866 28.1466L3.84933 26.9586C3.15261 26.2618 2.76121 25.3167 2.76121 24.3313C2.76121 23.3459 3.15261 22.4008 3.84933 21.704L11.5827 13.9706C12.2799 13.2742 13.2251 12.883 14.2107 12.883C15.1962 12.883 16.1414 13.2742 16.8387 13.9706L18.0293 15.16C18.28 15.4107 18.6201 15.5516 18.9747 15.5516C19.3292 15.5516 19.6693 15.4107 19.92 15.16C20.1707 14.9093 20.3116 14.5692 20.3116 14.2146C20.3116 13.8601 20.1707 13.52 19.92 13.2693L18.7293 12.08C17.5316 10.8838 15.9081 10.212 14.2153 10.212C12.5226 10.212 10.8991 10.8838 9.70133 12.08L1.968 19.8133C1.37528 20.406 0.905108 21.1096 0.58433 21.884C0.263552 22.6584 0.0984497 23.4884 0.0984497 24.3266C0.0984497 25.1649 0.263552 25.9949 0.58433 26.7693C0.905108 27.5437 1.37528 28.2473 1.968 28.84L3.15733 30.028C3.74987 30.6212 4.45352 31.0918 5.22807 31.4129C6.00262 31.734 6.83286 31.8993 7.67133 31.8993C8.5098 31.8993 9.34004 31.734 10.1146 31.4129C10.8891 31.0918 11.5928 30.6212 12.1853 30.028L15.8333 26.3813C15.9572 26.2575 16.0555 26.1105 16.1226 25.9488C16.1896 25.787 16.2242 25.6136 16.2243 25.4385C16.2243 25.2633 16.1899 25.0899 16.1229 24.9281C16.056 24.7662 15.9578 24.6192 15.834 24.4953C15.7102 24.3714 15.5632 24.2731 15.4014 24.2061C15.2397 24.139 15.0663 24.1044 14.8911 24.1044C14.716 24.1043 14.5426 24.1387 14.3808 24.2057C14.2189 24.2727 14.0719 24.3709 13.948 24.4946L13.944 24.4986Z" fill="currentColor"/>
<path d="M30.0347 3.15067L28.8453 1.96134C27.6461 0.768519 26.0234 0.098938 24.332 0.098938C22.6406 0.098938 21.0179 0.768519 19.8187 1.96134L15.9453 5.828C15.7024 6.07947 15.5681 6.41628 15.5711 6.76587C15.5741 7.11547 15.7144 7.44988 15.9616 7.69709C16.2088 7.94431 16.5432 8.08453 16.8928 8.08757C17.2424 8.09061 17.5792 7.95621 17.8307 7.71334L21.6973 3.84667C22.3947 3.15093 23.3396 2.76021 24.3247 2.76021C25.3097 2.76021 26.2546 3.15093 26.952 3.84667L28.1427 5.03734C28.488 5.38232 28.762 5.79199 28.9489 6.24292C29.1358 6.69385 29.232 7.1772 29.232 7.66534C29.232 8.15347 29.1358 8.63682 28.9489 9.08775C28.762 9.53868 28.488 9.94835 28.1427 10.2933L20.4093 18.0267C20.0651 18.373 19.6556 18.6476 19.2045 18.8346C18.7534 19.0216 18.2696 19.1172 17.7813 19.116C17.2935 19.1173 16.8103 19.0218 16.3597 18.835C15.909 18.6483 15.4999 18.374 15.156 18.028C15.0339 17.8976 14.8868 17.7931 14.7235 17.7206C14.5602 17.6482 14.384 17.6093 14.2053 17.6062C14.0267 17.6032 13.8493 17.6361 13.6836 17.703C13.518 17.7699 13.3674 17.8694 13.241 17.9956C13.1145 18.1218 13.0147 18.2721 12.9474 18.4376C12.8802 18.6031 12.8469 18.7805 12.8496 18.9591C12.8522 19.1378 12.8907 19.3141 12.9628 19.4775C13.035 19.641 13.1392 19.7883 13.2693 19.9107C13.8605 20.5048 14.5637 20.9758 15.3382 21.2962C16.1128 21.6166 16.9432 21.7802 17.7813 21.7773C18.6197 21.7803 19.4503 21.6168 20.2251 21.2964C20.9998 20.9759 21.7033 20.5049 22.2947 19.9107L30.028 12.1773C30.6211 11.5847 31.0915 10.881 31.4125 10.1065C31.7335 9.33195 31.8988 8.50175 31.8988 7.66334C31.8988 6.82492 31.7335 5.99472 31.4125 5.22019C31.0915 4.44565 30.6211 3.74196 30.028 3.14934L30.0347 3.15067Z" fill="currentColor"/>
</svg>
