<svg viewBox="0 0 32 32" fill="none" xmlns="http://www.w3.org/2000/svg">
    <path d="M1.00415 2.89917C1.00415 1.7946 1.89958 0.89917 3.00415 0.89917H29.105C30.2096 0.89917 31.105 1.7946 31.105 2.89917V29C31.105 30.1046 30.2096 31 29.105 31H3.00415C1.89958 31 1.00415 30.1046 1.00415 29V2.89917Z" stroke="currentColor" stroke-width="1.7" stroke-linecap="round" stroke-linejoin="round"/>
    <path d="M-nan -nanL7.78906 10.3406C7.78906 10.6893 7.85776 11.0347 7.99123 11.3569C8.1247 11.6791 8.32033 11.9719 8.56695 12.2185C8.81357 12.4652 9.10635 12.6608 9.42857 12.7943C9.7508 12.9277 10.0962 12.9964 10.4449 12.9964C10.7937 12.9964 11.1391 12.9277 11.4613 12.7943C11.7835 12.6608 12.0763 12.4652 12.3229 12.2185C12.5695 11.9719 12.7652 11.6791 12.8986 11.3569C13.0321 11.0347 13.1008 10.6893 13.1008 10.3406C13.1008 9.99179 13.0321 9.64643 12.8986 9.3242C12.7652 9.00198 12.5695 8.7092 12.3229 8.46258C12.0763 8.21596 11.7835 8.02033 11.4613 7.88686C11.1391 7.75339 10.7937 7.68469 10.4449 7.68469C10.0962 7.68469 9.7508 7.75339 9.42857 7.88686C9.10635 8.02033 8.81357 8.21596 8.56695 8.46258C8.32033 8.7092 8.1247 9.00198 7.99123 9.3242C7.85776 9.64643 7.78906 9.99179 7.78906 10.3406L-nan -nanL-nan -nanZ" stroke="currentColor" stroke-width="1.7" stroke-linecap="round" stroke-linejoin="round"/>
    <path d="M30.5039 20.5486C30.8359 20.8806 31.3741 20.8806 31.706 20.5486C32.038 20.2167 32.038 19.6785 31.706 19.3465L30.5039 20.5486ZM1.4963 27.18L7.45031 21.226L6.24823 20.0239L0.294223 25.9779L1.4963 27.18ZM9.07666 21.226L9.93234 22.0817L11.1344 20.8796L10.2787 20.0239L9.07666 21.226ZM13.9628 22.0817L22.1868 13.8578L20.9847 12.6557L12.7608 20.8796L13.9628 22.0817ZM23.8131 13.8578L30.5039 20.5486L31.706 19.3465L25.0152 12.6557L23.8131 13.8578ZM22.1868 13.8578C22.6359 13.4087 23.364 13.4087 23.8131 13.8578L25.0152 12.6557C23.9022 11.5427 22.0977 11.5427 20.9847 12.6557L22.1868 13.8578ZM9.93234 22.0817C11.0453 23.1947 12.8499 23.1947 13.9628 22.0817L12.7608 20.8796C12.3117 21.3287 11.5835 21.3287 11.1344 20.8796L9.93234 22.0817ZM7.45031 21.226C7.89941 20.7769 8.62756 20.7769 9.07666 21.226L10.2787 20.0239C9.16574 18.9109 7.36122 18.9109 6.24823 20.0239L7.45031 21.226Z" fill="currentColor"/>
</svg>
