<svg viewBox="0 0 16 16" fill="currentColor" xmlns="http://www.w3.org/2000/svg">
    <path d="M8 2C6.81331 2 5.65328 2.35189 4.66658 3.01118C3.67989 3.67047 2.91085 4.60754 2.45673 5.7039C2.0026 6.80025 1.88378 8.00665 2.11529 9.17054C2.3468 10.3344 2.91825 11.4035 3.75736 12.2426C4.59648 13.0818 5.66557 13.6532 6.82946 13.8847C7.99335 14.1162 9.19975 13.9974 10.2961 13.5433C11.3925 13.0891 12.3295 12.3201 12.9888 11.3334C13.6481 10.3467 14 9.18669 14 8C13.9983 6.40923 13.3656 4.8841 12.2407 3.75926C11.1159 2.63441 9.59077 2.00172 8 2V2ZM8.125 4.5C8.27334 4.5 8.41834 4.54399 8.54168 4.6264C8.66502 4.70881 8.76115 4.82594 8.81791 4.96299C8.87468 5.10003 8.88953 5.25083 8.86059 5.39632C8.83165 5.5418 8.76022 5.67544 8.65533 5.78033C8.55044 5.88522 8.41681 5.95665 8.27132 5.98559C8.12583 6.01453 7.97503 5.99967 7.83799 5.94291C7.70094 5.88614 7.58381 5.79001 7.5014 5.66668C7.41899 5.54334 7.375 5.39834 7.375 5.25C7.375 5.05109 7.45402 4.86032 7.59467 4.71967C7.73532 4.57902 7.92609 4.5 8.125 4.5ZM9.25 11.25H7.25C7.11739 11.25 6.99022 11.1973 6.89645 11.1036C6.80268 11.0098 6.75 10.8826 6.75 10.75C6.75 10.6174 6.80268 10.4902 6.89645 10.3964C6.99022 10.3027 7.11739 10.25 7.25 10.25H7.625C7.65815 10.25 7.68995 10.2368 7.71339 10.2134C7.73683 10.1899 7.75 10.1581 7.75 10.125V7.875C7.75 7.84185 7.73683 7.81005 7.71339 7.78661C7.68995 7.76317 7.65815 7.75 7.625 7.75H7.25C7.11739 7.75 6.99022 7.69732 6.89645 7.60355C6.80268 7.50978 6.75 7.38261 6.75 7.25C6.75 7.11739 6.80268 6.99021 6.89645 6.89645C6.99022 6.80268 7.11739 6.75 7.25 6.75H7.75C8.01522 6.75 8.26957 6.85536 8.45711 7.04289C8.64464 7.23043 8.75 7.48478 8.75 7.75V10.125C8.75 10.1581 8.76317 10.1899 8.78661 10.2134C8.81005 10.2368 8.84185 10.25 8.875 10.25H9.25C9.38261 10.25 9.50979 10.3027 9.60355 10.3964C9.69732 10.4902 9.75 10.6174 9.75 10.75C9.75 10.8826 9.69732 11.0098 9.60355 11.1036C9.50979 11.1973 9.38261 11.25 9.25 11.25Z" />
</svg>
