<svg viewBox="0 0 32 32" fill="none" xmlns="http://www.w3.org/2000/svg">
    <path d="M17.2388 13.1839C17.5112 13.0192 17.6189 12.7784 17.7583 12.582C18.4489 11.6317 19.3041 10.8968 20.3685 10.371C21.8256 9.65511 23.3714 9.57909 24.9299 9.7248C26.1273 9.8325 27.2613 10.238 28.2939 10.8968C29.523 11.6824 30.4036 12.7721 31.0054 14.0772C31.3729 14.8691 31.6136 15.7117 31.7593 16.5859C31.8924 17.4032 31.9937 18.2078 31.9937 19.0377C31.9874 23.1556 31.9874 27.2736 32.0001 31.3915C32.0001 31.683 31.9177 31.759 31.6326 31.7526C29.6877 31.74 27.7491 31.74 25.8042 31.7526C25.5191 31.7526 25.4557 31.6703 25.4557 31.3979C25.462 27.5143 25.4811 23.6245 25.4494 19.7409C25.443 18.8603 25.3227 17.986 24.8665 17.1815C24.4611 16.4719 23.8972 15.9651 23.156 15.6736C22.1614 15.2809 21.135 15.2048 20.096 15.4963C19.0444 15.7877 18.3158 16.4782 17.7963 17.4159C17.5049 17.9417 17.4035 18.4929 17.3212 19.082C17.2388 19.7156 17.2515 20.3364 17.2515 20.9636C17.2388 24.429 17.2388 27.8881 17.2515 31.3535C17.2515 31.6703 17.1755 31.759 16.8524 31.7526C14.9328 31.7336 13.0068 31.74 11.0872 31.7526C10.8212 31.7526 10.7261 31.6703 10.7325 31.4232C10.7388 31.2458 10.7515 31.0684 10.7515 30.891C10.7515 24.2073 10.7578 17.5236 10.7451 10.8398C10.7451 10.5611 10.8022 10.4597 11.1063 10.4597C13.0385 10.4724 14.9708 10.4724 16.9031 10.4597C17.1628 10.4597 17.2515 10.523 17.2452 10.7955C17.2262 11.5684 17.2388 12.3476 17.2388 13.1839Z" fill="currentColor"/>
    <path d="M6.65754 10.6498C6.65754 10.8715 6.66387 11.0932 6.66387 11.315C6.66387 17.986 6.66387 24.6571 6.66387 31.3345C6.66387 31.74 6.66387 31.74 6.25208 31.74C4.23745 31.74 2.21649 31.74 0.201867 31.74C0.195532 31.5816 0.189197 31.4232 0.189197 31.2648C0.189197 26.2726 0.189197 21.2867 0.189197 16.2945C0.189197 14.5143 0.195532 12.7277 0.182861 10.9475C0.182861 10.7194 0.239879 10.6371 0.48062 10.6371C2.53959 10.6498 4.59857 10.6434 6.65754 10.6498Z" fill="currentColor"/>
    <path d="M6.64573 10.6499C4.58676 10.6499 2.53412 10.6499 0.475148 10.6372C0.234406 10.6372 0.177388 10.7132 0.177388 10.9476C0.183724 12.7279 0.177388 14.5081 0.177388 16.2946C0.177388 21.2869 0.177388 26.2727 0.177388 31.265C0.177388 31.4233 0.183724 31.5817 0.190059 31.7401C0.0823589 31.7464 0 31.7211 0 31.5944C0 31.512 0 31.4233 0 31.341C0 24.5749 0 17.8151 0 11.049C0 10.5675 0.0443471 10.5232 0.519495 10.5232C2.45176 10.5232 4.38403 10.5232 6.30996 10.5295C6.42399 10.5232 6.59505 10.4345 6.64573 10.6499Z" fill="currentColor"/>
    <path d="M0.823486 5.50543C1.05156 5.54344 1.20994 5.65748 1.27329 5.88555C1.0769 5.80953 0.931186 5.68282 0.823486 5.50543Z" fill="currentColor"/>
    <path d="M0.682861 5.32812C0.803232 5.32812 0.809567 5.41682 0.822238 5.50551C0.689197 5.51185 0.689197 5.42315 0.682861 5.32812Z" fill="currentColor"/>
    <circle cx="3.42337" cy="3.24051" r="3.24051" fill="currentColor"/>
</svg>
