<svg viewBox="0 0 32 32" fill="none" xmlns="http://www.w3.org/2000/svg">
    <path d="M8.99731 22.9983L22.9919 9.00366" stroke="currentColor" stroke-width="1.7" stroke-linecap="round" stroke-linejoin="round"/>
    <path d="M10.3098 16.0298C9.47144 15.9815 8.63236 16.1109 7.84751 16.4094C7.06266 16.708 6.34977 17.1691 5.75553 17.7624L2.75669 20.7613C1.6319 21.8861 1 23.4116 1 25.0023C1 25.7899 1.15514 26.5699 1.45655 27.2975C1.75796 28.0252 2.19975 28.6864 2.75669 29.2433C3.31363 29.8003 3.97482 30.2421 4.70249 30.5435C5.43017 30.8449 6.21009 31 6.99772 31C8.58842 31 10.114 30.3681 11.2388 29.2433L14.2376 26.2445C14.8309 25.6503 15.292 24.9374 15.5906 24.1525C15.8892 23.3677 16.0186 22.5286 15.9703 21.6902" stroke="currentColor" stroke-width="1.7" stroke-linecap="round" stroke-linejoin="round"/>
    <path d="M21.6776 15.9703C22.516 16.0185 23.355 15.8891 24.1399 15.5905C24.9247 15.2919 25.6376 14.8308 26.2319 14.2376L29.2307 11.2388C30.3555 10.114 30.9874 8.58842 30.9874 6.99772C30.9874 5.40703 30.3555 3.88148 29.2307 2.75669C28.1059 1.6319 26.5804 1 24.9897 1C23.399 1 21.8734 1.6319 20.7487 2.75669L17.7498 5.75553C17.1579 6.35049 16.6982 7.06367 16.4008 7.84845C16.1034 8.63324 15.9749 9.47195 16.0238 10.3098" stroke="currentColor" stroke-width="1.7" stroke-linecap="round" stroke-linejoin="round"/>
</svg>
