<svg viewBox="0 0 10 12" fill="none" xmlns="http://www.w3.org/2000/svg">
<path d="M8.5 4.75H8.125V3.375C8.125 2.47989 7.76942 1.62145 7.13649 0.988515C6.50355 0.355579 5.64511 0 4.75 0C3.85489 0 2.99645 0.355579 2.36351 0.988515C1.73058 1.62145 1.375 2.47989 1.375 3.375V4.75H1C0.734784 4.75 0.48043 4.85536 0.292893 5.04289C0.105357 5.23043 0 5.48478 0 5.75V11C0 11.2652 0.105357 11.5196 0.292893 11.7071C0.48043 11.8946 0.734784 12 1 12H8.5C8.76522 12 9.01957 11.8946 9.20711 11.7071C9.39464 11.5196 9.5 11.2652 9.5 11V5.75C9.5 5.48478 9.39464 5.23043 9.20711 5.04289C9.01957 4.85536 8.76522 4.75 8.5 4.75ZM3.75 7.75C3.74921 7.57427 3.79473 7.40144 3.88199 7.24891C3.96925 7.09638 4.09517 6.96954 4.24705 6.88116C4.39894 6.79278 4.57143 6.74598 4.74716 6.74548C4.92289 6.74499 5.09564 6.79081 5.24803 6.87832C5.40041 6.96584 5.52704 7.09197 5.61516 7.24401C5.70329 7.39604 5.74979 7.56861 5.74999 7.74434C5.75019 7.92007 5.70408 8.09275 5.6163 8.24498C5.52853 8.39722 5.40218 8.52363 5.25 8.6115V9.75C5.25 9.88261 5.19732 10.0098 5.10355 10.1036C5.00979 10.1973 4.88261 10.25 4.75 10.25C4.61739 10.25 4.49021 10.1973 4.39645 10.1036C4.30268 10.0098 4.25 9.88261 4.25 9.75V8.6115C4.09844 8.52435 3.97246 8.39888 3.8847 8.24767C3.79694 8.09646 3.75049 7.92483 3.75 7.75ZM2.625 3.375C2.625 2.81141 2.84888 2.27091 3.2474 1.8724C3.64591 1.47388 4.18641 1.25 4.75 1.25C5.31359 1.25 5.85409 1.47388 6.2526 1.8724C6.65112 2.27091 6.875 2.81141 6.875 3.375V4.5C6.875 4.5663 6.84866 4.62989 6.80178 4.67678C6.75489 4.72366 6.6913 4.75 6.625 4.75H2.875C2.8087 4.75 2.74511 4.72366 2.69822 4.67678C2.65134 4.62989 2.625 4.5663 2.625 4.5V3.375Z" fill="currentColor"/>
</svg>
