<svg viewBox="0 0 12 12" fill="currentColor" xmlns="http://www.w3.org/2000/svg">
    <path d="M1.24937 10.5004H5.2482C5.38077 10.5004 5.50791 10.4477 5.60165 10.354C5.69539 10.2602 5.74805 10.1331 5.74805 10.0005V9.25076C5.74805 9.0519 5.66905 8.86119 5.52844 8.72058C5.38783 8.57997 5.19712 8.50098 4.99827 8.50098H1.49929C1.30044 8.50098 1.10973 8.57997 0.969117 8.72058C0.828506 8.86119 0.749512 9.0519 0.749512 9.25076V10.0005C0.749512 10.1331 0.802175 10.2602 0.895915 10.354C0.989656 10.4477 1.1168 10.5004 1.24937 10.5004Z" />
    <path d="M11.2468 9.00088C11.3252 8.92521 11.3876 8.83451 11.4302 8.7342C11.4728 8.63389 11.4947 8.52603 11.4947 8.41705C11.4947 8.30806 11.4728 8.2002 11.4302 8.09989C11.3876 7.99958 11.3252 7.90889 11.2468 7.83322L7.84076 4.76761C7.82821 4.75625 7.81811 4.74246 7.81106 4.72707C7.804 4.71168 7.80015 4.69502 7.79973 4.6781C7.79931 4.66118 7.80233 4.64435 7.80861 4.62864C7.81489 4.61292 7.8243 4.59864 7.83626 4.58667L8.7175 3.70492C8.73879 3.68364 8.76705 3.67076 8.79708 3.66865C8.82711 3.66653 8.85689 3.67533 8.88095 3.69343C9.03276 3.80703 9.22197 3.8589 9.41049 3.83859C9.59901 3.81828 9.77283 3.72731 9.89696 3.58398C10.0211 3.44065 10.0863 3.25562 10.0795 3.06613C10.0727 2.87665 9.99429 2.69678 9.86017 2.56276L7.52035 0.222942C7.38654 0.0874398 7.20618 0.00793324 7.01588 0.000562324C6.82559 -0.00680859 6.63962 0.0585085 6.49572 0.183254C6.35183 0.308 6.2608 0.482827 6.2411 0.672245C6.22141 0.861663 6.27453 1.05148 6.38968 1.20316C6.40774 1.22714 6.41652 1.25684 6.41441 1.28678C6.4123 1.31673 6.39943 1.3449 6.37819 1.36611L3.6115 4.1318C3.59022 4.15306 3.562 4.16597 3.532 4.16817C3.502 4.17038 3.4722 4.16172 3.44804 4.1438C3.29623 4.03095 3.10737 3.97966 2.91933 4.0002C2.73129 4.02075 2.55796 4.11161 2.43409 4.25457C2.31022 4.39753 2.24497 4.58203 2.25141 4.77109C2.25785 4.96014 2.33552 5.13977 2.46883 5.27396L4.80865 7.61378C4.94267 7.7479 5.12253 7.82627 5.31202 7.83309C5.5015 7.83992 5.68654 7.7747 5.82987 7.65057C5.9732 7.52644 6.06417 7.35262 6.08448 7.1641C6.10479 6.97559 6.05292 6.78637 5.93932 6.63457C5.92132 6.61053 5.91263 6.58079 5.91483 6.55085C5.91704 6.5209 5.92999 6.49276 5.95131 6.47161L6.83255 5.58987C6.84457 5.57786 6.8589 5.56842 6.87469 5.56214C6.89047 5.55586 6.90737 5.55286 6.92435 5.55332C6.94134 5.55379 6.95804 5.55772 6.97346 5.56486C6.98887 5.572 7.00267 5.58222 7.014 5.59487L10.0806 9.00088C10.1563 9.07901 10.2469 9.14114 10.3471 9.18357C10.4472 9.22599 10.5549 9.24786 10.6637 9.24786C10.7725 9.24786 10.8801 9.22599 10.9803 9.18357C11.0805 9.14114 11.1711 9.07901 11.2468 9.00088Z" />
    <path d="M5.99825 11.0002H0.499854C0.367284 11.0002 0.240145 11.0529 0.146404 11.1466C0.052663 11.2404 0 11.3675 0 11.5001C0 11.6327 0.052663 11.7598 0.146404 11.8535C0.240145 11.9473 0.367284 12 0.499854 12H5.99825C6.13082 12 6.25796 11.9473 6.3517 11.8535C6.44544 11.7598 6.4981 11.6327 6.4981 11.5001C6.4981 11.3675 6.44544 11.2404 6.3517 11.1466C6.25796 11.0529 6.13082 11.0002 5.99825 11.0002Z" />
</svg>
