<svg viewBox="0 0 12 4" fill="currentColor" xmlns="http://www.w3.org/2000/svg">
    <path d="M0 2.08706C0 2.43299 0.137421 2.76475 0.382033 3.00937C0.626644 3.25398 0.958409 3.3914 1.30434 3.3914C1.65027 3.3914 1.98204 3.25398 2.22665 3.00937C2.47126 2.76475 2.60868 2.43299 2.60868 2.08706C2.60868 1.74112 2.47126 1.40936 2.22665 1.16475C1.98204 0.920136 1.65027 0.782715 1.30434 0.782715C0.958409 0.782715 0.626644 0.920136 0.382033 1.16475C0.137421 1.40936 0 1.74112 0 2.08706Z" />
    <path d="M4.6958 2.08706C4.6958 2.43299 4.83322 2.76475 5.07783 3.00937C5.32245 3.25398 5.65421 3.3914 6.00014 3.3914C6.34608 3.3914 6.67784 3.25398 6.92245 3.00937C7.16706 2.76475 7.30448 2.43299 7.30448 2.08706C7.30448 1.74112 7.16706 1.40936 6.92245 1.16475C6.67784 0.920136 6.34608 0.782715 6.00014 0.782715C5.65421 0.782715 5.32245 0.920136 5.07783 1.16475C4.83322 1.40936 4.6958 1.74112 4.6958 2.08706Z" />
    <path d="M9.39136 2.08706C9.39136 2.43299 9.52878 2.76475 9.77339 3.00937C10.018 3.25398 10.3498 3.3914 10.6957 3.3914C11.0416 3.3914 11.3734 3.25398 11.618 3.00937C11.8626 2.76475 12 2.43299 12 2.08706C12 1.74112 11.8626 1.40936 11.618 1.16475C11.3734 0.920136 11.0416 0.782715 10.6957 0.782715C10.3498 0.782715 10.018 0.920136 9.77339 1.16475C9.52878 1.40936 9.39136 1.74112 9.39136 2.08706Z" />
</svg>
