<svg width="16" height="16" viewBox="0 0 16 16" fill="none" xmlns="http://www.w3.org/2000/svg">
    <path d="M8.4 6.125C8.4 5.90409 8.22091 5.725 8 5.725C7.77909 5.725 7.6 5.90409 7.6 6.125H8.4ZM7.6 8C7.6 8.22091 7.77909 8.4 8 8.4C8.22091 8.4 8.4 8.22091 8.4 8H7.6ZM5.8125 8.4H10.1875V7.6H5.8125V8.4ZM11.4375 9.25C11.0375 9.25 11.0375 9.25 11.0375 9.25C11.0375 9.25 11.0375 9.25001 11.0375 9.25001C11.0375 9.25002 11.0375 9.25002 11.0375 9.25003C11.0375 9.25003 11.0375 9.25004 11.0375 9.25005C11.0375 9.25006 11.0375 9.25006 11.0375 9.25007C11.0375 9.25008 11.0375 9.25009 11.0375 9.25011C11.0375 9.25012 11.0375 9.25013 11.0375 9.25014C11.0375 9.25016 11.0375 9.25017 11.0375 9.25019C11.0375 9.2502 11.0375 9.25022 11.0375 9.25024C11.0375 9.25026 11.0375 9.25028 11.0375 9.2503C11.0375 9.25031 11.0375 9.25034 11.0375 9.25036C11.0375 9.25038 11.0375 9.2504 11.0375 9.25042C11.0375 9.25045 11.0375 9.25047 11.0375 9.2505C11.0375 9.25052 11.0375 9.25055 11.0375 9.25058C11.0375 9.25061 11.0375 9.25063 11.0375 9.25066C11.0375 9.25069 11.0375 9.25072 11.0375 9.25075C11.0375 9.25079 11.0375 9.25082 11.0375 9.25085C11.0375 9.25088 11.0375 9.25092 11.0375 9.25095C11.0375 9.25099 11.0375 9.25102 11.0375 9.25106C11.0375 9.2511 11.0375 9.25114 11.0375 9.25118C11.0375 9.25121 11.0375 9.25126 11.0375 9.2513C11.0375 9.25134 11.0375 9.25138 11.0375 9.25142C11.0375 9.25146 11.0375 9.25151 11.0375 9.25155C11.0375 9.2516 11.0375 9.25164 11.0375 9.25169C11.0375 9.25174 11.0375 9.25179 11.0375 9.25183C11.0375 9.25188 11.0375 9.25193 11.0375 9.25198C11.0375 9.25203 11.0375 9.25209 11.0375 9.25214C11.0375 9.25219 11.0375 9.25224 11.0375 9.2523C11.0375 9.25235 11.0375 9.25241 11.0375 9.25246C11.0375 9.25252 11.0375 9.25258 11.0375 9.25264C11.0375 9.25269 11.0375 9.25275 11.0375 9.25281C11.0375 9.25287 11.0375 9.25293 11.0375 9.253C11.0375 9.25306 11.0375 9.25312 11.0375 9.25319C11.0375 9.25325 11.0375 9.25331 11.0375 9.25338C11.0375 9.25345 11.0375 9.25351 11.0375 9.25358C11.0375 9.25365 11.0375 9.25372 11.0375 9.25379C11.0375 9.25386 11.0375 9.25393 11.0375 9.254C11.0375 9.25407 11.0375 9.25414 11.0375 9.25422C11.0375 9.25429 11.0375 9.25436 11.0375 9.25444C11.0375 9.25451 11.0375 9.25459 11.0375 9.25467C11.0375 9.25475 11.0375 9.25482 11.0375 9.2549C11.0375 9.25498 11.0375 9.25506 11.0375 9.25514C11.0375 9.25522 11.0375 9.25531 11.0375 9.25539C11.0375 9.25547 11.0375 9.25555 11.0375 9.25564C11.0375 9.25572 11.0375 9.25581 11.0375 9.2559C11.0375 9.25598 11.0375 9.25607 11.0375 9.25616C11.0375 9.25625 11.0375 9.25634 11.0375 9.25643C11.0375 9.25652 11.0375 9.25661 11.0375 9.2567C11.0375 9.25679 11.0375 9.25689 11.0375 9.25698C11.0375 9.25707 11.0375 9.25717 11.0375 9.25727C11.0375 9.25736 11.0375 9.25746 11.0375 9.25756C11.0375 9.25765 11.0375 9.25775 11.0375 9.25785C11.0375 9.25795 11.0375 9.25805 11.0375 9.25815C11.0375 9.25826 11.0375 9.25836 11.0375 9.25846C11.0375 9.25856 11.0375 9.25867 11.0375 9.25877C11.0375 9.25888 11.0375 9.25899 11.0375 9.25909C11.0375 9.2592 11.0375 9.25931 11.0375 9.25942C11.0375 9.25953 11.0375 9.25964 11.0375 9.25975C11.0375 9.25986 11.0375 9.25997 11.0375 9.26008C11.0375 9.26019 11.0375 9.26031 11.0375 9.26042C11.0375 9.26054 11.0375 9.26065 11.0375 9.26077C11.0375 9.26088 11.0375 9.261 11.0375 9.26112C11.0375 9.26124 11.0375 9.26136 11.0375 9.26148C11.0375 9.2616 11.0375 9.26172 11.0375 9.26184C11.0375 9.26196 11.0375 9.26208 11.0375 9.26221C11.0375 9.26233 11.0375 9.26245 11.0375 9.26258C11.0375 9.26271 11.0375 9.26283 11.0375 9.26296C11.0375 9.26309 11.0375 9.26322 11.0375 9.26334C11.0375 9.26347 11.0375 9.2636 11.0375 9.26373C11.0375 9.26386 11.0375 9.264 11.0375 9.26413C11.0375 9.26426 11.0375 9.2644 11.0375 9.26453C11.0375 9.26467 11.0375 9.2648 11.0375 9.26494C11.0375 9.26507 11.0375 9.26521 11.0375 9.26535C11.0375 9.26549 11.0375 9.26563 11.0375 9.26577C11.0375 9.26591 11.0375 9.26605 11.0375 9.26619C11.0375 9.26633 11.0375 9.26647 11.0375 9.26662C11.0375 9.26676 11.0375 9.2669 11.0375 9.26705C11.0375 9.2672 11.0375 9.26734 11.0375 9.26749C11.0375 9.26764 11.0375 9.26778 11.0375 9.26793C11.0375 9.26808 11.0375 9.26823 11.0375 9.26838C11.0375 9.26853 11.0375 9.26869 11.0375 9.26884C11.0375 9.26899 11.0375 9.26914 11.0375 9.2693C11.0375 9.26945 11.0375 9.26961 11.0375 9.26976C11.0375 9.26992 11.0375 9.27008 11.0375 9.27024C11.0375 9.27039 11.0375 9.27055 11.0375 9.27071C11.0375 9.27087 11.0375 9.27103 11.0375 9.27119C11.0375 9.27135 11.0375 9.27152 11.0375 9.27168C11.0375 9.27184 11.0375 9.27201 11.0375 9.27217C11.0375 9.27234 11.0375 9.2725 11.0375 9.27267C11.0375 9.27284 11.0375 9.27301 11.0375 9.27317C11.0375 9.27334 11.0375 9.27351 11.0375 9.27368C11.0375 9.27385 11.0375 9.27402 11.0375 9.2742C11.0375 9.27437 11.0375 9.27454 11.0375 9.27472C11.0375 9.27489 11.0375 9.27506 11.0375 9.27524C11.0375 9.27542 11.0375 9.27559 11.0375 9.27577C11.0375 9.27595 11.0375 9.27613 11.0375 9.2763C11.0375 9.27648 11.0375 9.27666 11.0375 9.27684C11.0375 9.27703 11.0375 9.27721 11.0375 9.27739C11.0375 9.27757 11.0375 9.27776 11.0375 9.27794C11.0375 9.27813 11.0375 9.27831 11.0375 9.2785C11.0375 9.27868 11.0375 9.27887 11.0375 9.27906C11.0375 9.27925 11.0375 9.27944 11.0375 9.27962C11.0375 9.27981 11.0375 9.28 11.0375 9.2802C11.0375 9.28039 11.0375 9.28058 11.0375 9.28077C11.0375 9.28097 11.0375 9.28116 11.0375 9.28136C11.0375 9.28155 11.0375 9.28175 11.0375 9.28194C11.0375 9.28214 11.0375 9.28234 11.0375 9.28254C11.0375 9.28273 11.0375 9.28293 11.0375 9.28313C11.0375 9.28333 11.0375 9.28353 11.0375 9.28374C11.0375 9.28394 11.0375 9.28414 11.0375 9.28434C11.0375 9.28455 11.0375 9.28475 11.0375 9.28496C11.0375 9.28516 11.0375 9.28537 11.0375 9.28558C11.0375 9.28578 11.0375 9.28599 11.0375 9.2862C11.0375 9.28641 11.0375 9.28662 11.0375 9.28683C11.0375 9.28704 11.0375 9.28725 11.0375 9.28746C11.0375 9.28768 11.0375 9.28789 11.0375 9.2881C11.0375 9.28832 11.0375 9.28853 11.0375 9.28875C11.0375 9.28896 11.0375 9.28918 11.0375 9.2894C11.0375 9.28961 11.0375 9.28983 11.0375 9.29005C11.0375 9.29027 11.0375 9.29049 11.0375 9.29071C11.0375 9.29093 11.0375 9.29115 11.0375 9.29138C11.0375 9.2916 11.0375 9.29182 11.0375 9.29205C11.0375 9.29227 11.0375 9.29249 11.0375 9.29272C11.0375 9.29295 11.0375 9.29317 11.0375 9.2934C11.0375 9.29363 11.0375 9.29386 11.0375 9.29409C11.0375 9.29431 11.0375 9.29454 11.0375 9.29478C11.0375 9.29501 11.0375 9.29524 11.0375 9.29547C11.0375 9.2957 11.0375 9.29594 11.0375 9.29617C11.0375 9.29641 11.0375 9.29664 11.0375 9.29688C11.0375 9.29711 11.0375 9.29735 11.0375 9.29759C11.0375 9.29782 11.0375 9.29806 11.0375 9.2983C11.0375 9.29854 11.0375 9.29878 11.0375 9.29902C11.0375 9.29926 11.0375 9.29951 11.0375 9.29975C11.0375 9.29999 11.0375 9.30023 11.0375 9.30048C11.0375 9.30072 11.0375 9.30097 11.0375 9.30122C11.0375 9.30146 11.0375 9.30171 11.0375 9.30196C11.0375 9.3022 11.0375 9.30245 11.0375 9.3027C11.0375 9.30295 11.0375 9.3032 11.0375 9.30345C11.0375 9.3037 11.0375 9.30396 11.0375 9.30421C11.0375 9.30446 11.0375 9.30471 11.0375 9.30497C11.0375 9.30522 11.0375 9.30548 11.0375 9.30573C11.0375 9.30599 11.0375 9.30625 11.0375 9.3065C11.0375 9.30676 11.0375 9.30702 11.0375 9.30728C11.0375 9.30754 11.0375 9.3078 11.0375 9.30806C11.0375 9.30832 11.0375 9.30858 11.0375 9.30885C11.0375 9.30911 11.0375 9.30937 11.0375 9.30964C11.0375 9.3099 11.0375 9.31017 11.0375 9.31043C11.0375 9.3107 11.0375 9.31096 11.0375 9.31123C11.0375 9.3115 11.0375 9.31177 11.0375 9.31204C11.0375 9.31231 11.0375 9.31258 11.0375 9.31285C11.0375 9.31312 11.0375 9.31339 11.0375 9.31366C11.0375 9.31393 11.0375 9.31421 11.0375 9.31448C11.0375 9.31476 11.0375 9.31503 11.0375 9.31531C11.0375 9.31558 11.0375 9.31586 11.0375 9.31614C11.0375 9.31641 11.0375 9.31669 11.0375 9.31697C11.0375 9.31725 11.0375 9.31753 11.0375 9.31781C11.0375 9.31809 11.0375 9.31837 11.0375 9.31865C11.0375 9.31894 11.0375 9.31922 11.0375 9.3195C11.0375 9.31979 11.0375 9.32007 11.0375 9.32036C11.0375 9.32064 11.0375 9.32093 11.0375 9.32122C11.0375 9.3215 11.0375 9.32179 11.0375 9.32208C11.0375 9.32237 11.0375 9.32266 11.0375 9.32295C11.0375 9.32324 11.0375 9.32353 11.0375 9.32382C11.0375 9.32411 11.0375 9.32441 11.0375 9.3247C11.0375 9.32499 11.0375 9.32529 11.0375 9.32558C11.0375 9.32588 11.0375 9.32617 11.0375 9.32647C11.0375 9.32677 11.0375 9.32707 11.0375 9.32736C11.0375 9.32766 11.0375 9.32796 11.0375 9.32826C11.0375 9.32856 11.0375 9.32886 11.0375 9.32916C11.0375 9.32946 11.0375 9.32977 11.0375 9.33007C11.0375 9.33037 11.0375 9.33068 11.0375 9.33098C11.0375 9.33129 11.0375 9.33159 11.0375 9.3319C11.0375 9.3322 11.0375 9.33251 11.0375 9.33282C11.0375 9.33313 11.0375 9.33344 11.0375 9.33375C11.0375 9.33406 11.0375 9.33437 11.0375 9.33468C11.0375 9.33499 11.0375 9.3353 11.0375 9.33561C11.0375 9.33593 11.0375 9.33624 11.0375 9.33655C11.0375 9.33687 11.0375 9.33718 11.0375 9.3375C11.0375 9.33781 11.0375 9.33813 11.0375 9.33845C11.0375 9.33876 11.0375 9.33908 11.0375 9.3394C11.0375 9.33972 11.0375 9.34004 11.0375 9.34036C11.0375 9.34068 11.0375 9.341 11.0375 9.34132C11.0375 9.34165 11.0375 9.34197 11.0375 9.34229C11.0375 9.34262 11.0375 9.34294 11.0375 9.34327C11.0375 9.34359 11.0375 9.34392 11.0375 9.34424C11.0375 9.34457 11.0375 9.3449 11.0375 9.34523C11.0375 9.34555 11.0375 9.34588 11.0375 9.34621C11.0375 9.34654 11.0375 9.34687 11.0375 9.34721C11.0375 9.34754 11.0375 9.34787 11.0375 9.3482C11.0375 9.34854 11.0375 9.34887 11.0375 9.3492C11.0375 9.34954 11.0375 9.34987 11.0375 9.35021C11.0375 9.35054 11.0375 9.35088 11.0375 9.35122C11.0375 9.35156 11.0375 9.3519 11.0375 9.35223C11.0375 9.35257 11.0375 9.35291 11.0375 9.35325C11.0375 9.35359 11.0375 9.35394 11.0375 9.35428C11.0375 9.35462 11.0375 9.35496 11.0375 9.35531C11.0375 9.35565 11.0375 9.356 11.0375 9.35634C11.0375 9.35669 11.0375 9.35703 11.0375 9.35738C11.0375 9.35773 11.0375 9.35807 11.0375 9.35842C11.0375 9.35877 11.0375 9.35912 11.0375 9.35947C11.0375 9.35982 11.0375 9.36017 11.0375 9.36052C11.0375 9.36087 11.0375 9.36122 11.0375 9.36158C11.0375 9.36193 11.0375 9.36228 11.0375 9.36264C11.0375 9.36299 11.0375 9.36335 11.0375 9.3637C11.0375 9.36406 11.0375 9.36442 11.0375 9.36477C11.0375 9.36513 11.0375 9.36549 11.0375 9.36585C11.0375 9.36621 11.0375 9.36657 11.0375 9.36693C11.0375 9.36729 11.0375 9.36765 11.0375 9.36801C11.0375 9.36837 11.0375 9.36873 11.0375 9.3691C11.0375 9.36946 11.0375 9.36983 11.0375 9.37019C11.0375 9.37056 11.0375 9.37092 11.0375 9.37129C11.0375 9.37165 11.0375 9.37202 11.0375 9.37239C11.0375 9.37276 11.0375 9.37313 11.0375 9.3735C11.0375 9.37386 11.0375 9.37424 11.0375 9.37461C11.0375 9.37498 11.0375 9.37535 11.0375 9.37572C11.0375 9.37609 11.0375 9.37647 11.0375 9.37684C11.0375 9.37721 11.0375 9.37759 11.0375 9.37796C11.0375 9.37834 11.0375 9.37872 11.0375 9.37909C11.0375 9.37947 11.0375 9.37985 11.0375 9.38023C11.0375 9.3806 11.0375 9.38098 11.0375 9.38136C11.0375 9.38174 11.0375 9.38212 11.0375 9.3825C11.0375 9.38289 11.0375 9.38327 11.0375 9.38365C11.0375 9.38403 11.0375 9.38442 11.0375 9.3848C11.0375 9.38519 11.0375 9.38557 11.0375 9.38596C11.0375 9.38634 11.0375 9.38673 11.0375 9.38712C11.0375 9.3875 11.0375 9.38789 11.0375 9.38828C11.0375 9.38867 11.0375 9.38906 11.0375 9.38945C11.0375 9.38984 11.0375 9.39023 11.0375 9.39062C11.0375 9.39101 11.0375 9.3914 11.0375 9.3918C11.0375 9.39219 11.0375 9.39258 11.0375 9.39298C11.0375 9.39337 11.0375 9.39377 11.0375 9.39416C11.0375 9.39456 11.0375 9.39496 11.0375 9.39535C11.0375 9.39575 11.0375 9.39615 11.0375 9.39655C11.0375 9.39695 11.0375 9.39735 11.0375 9.39775C11.0375 9.39815 11.0375 9.39855 11.0375 9.39895C11.0375 9.39935 11.0375 9.39976 11.0375 9.40016C11.0375 9.40056 11.0375 9.40097 11.0375 9.40137C11.0375 9.40177 11.0375 9.40218 11.0375 9.40259C11.0375 9.40299 11.0375 9.4034 11.0375 9.40381C11.0375 9.40421 11.0375 9.40462 11.0375 9.40503C11.0375 9.40544 11.0375 9.40585 11.0375 9.40626C11.0375 9.40667 11.0375 9.40708 11.0375 9.40749C11.0375 9.40791 11.0375 9.40832 11.0375 9.40873C11.0375 9.40914 11.0375 9.40956 11.0375 9.40997C11.0375 9.41039 11.0375 9.4108 11.0375 9.41122C11.0375 9.41163 11.0375 9.41205 11.0375 9.41247C11.0375 9.41289 11.0375 9.41331 11.0375 9.41372C11.0375 9.41414 11.0375 9.41456 11.0375 9.41498C11.0375 9.4154 11.0375 9.41582 11.0375 9.41625C11.0375 9.41667 11.0375 9.41709 11.0375 9.41751C11.0375 9.41794 11.0375 9.41836 11.0375 9.41879C11.0375 9.41921 11.0375 9.41963 11.0375 9.42006C11.0375 9.42049 11.0375 9.42091 11.0375 9.42134C11.0375 9.42177 11.0375 9.4222 11.0375 9.42263C11.0375 9.42305 11.0375 9.42348 11.0375 9.42391C11.0375 9.42434 11.0375 9.42477 11.0375 9.42521C11.0375 9.42564 11.0375 9.42607 11.0375 9.4265C11.0375 9.42694 11.0375 9.42737 11.0375 9.4278C11.0375 9.42824 11.0375 9.42867 11.0375 9.42911C11.0375 9.42954 11.0375 9.42998 11.0375 9.43042C11.0375 9.43086 11.0375 9.43129 11.0375 9.43173C11.0375 9.43217 11.0375 9.43261 11.0375 9.43305C11.0375 9.43349 11.0375 9.43393 11.0375 9.43437C11.0375 9.43481 11.0375 9.43526 11.0375 9.4357C11.0375 9.43614 11.0375 9.43658 11.0375 9.43703C11.0375 9.43747 11.0375 9.43792 11.0375 9.43836C11.0375 9.43881 11.0375 9.43925 11.0375 9.4397C11.0375 9.44015 11.0375 9.44059 11.0375 9.44104C11.0375 9.44149 11.0375 9.44194 11.0375 9.44239C11.0375 9.44284 11.0375 9.44329 11.0375 9.44374C11.0375 9.44419 11.0375 9.44464 11.0375 9.4451C11.0375 9.44555 11.0375 9.446 11.0375 9.44645C11.0375 9.44691 11.0375 9.44736 11.0375 9.44782C11.0375 9.44827 11.0375 9.44873 11.0375 9.44918C11.0375 9.44964 11.0375 9.4501 11.0375 9.45056C11.0375 9.45101 11.0375 9.45147 11.0375 9.45193C11.0375 9.45239 11.0375 9.45285 11.0375 9.45331C11.0375 9.45377 11.0375 9.45423 11.0375 9.45469C11.0375 9.45515 11.0375 9.45562 11.0375 9.45608C11.0375 9.45654 11.0375 9.45701 11.0375 9.45747C11.0375 9.45794 11.0375 9.4584 11.0375 9.45887C11.0375 9.45933 11.0375 9.4598 11.0375 9.46027C11.0375 9.46073 11.0375 9.4612 11.0375 9.46167C11.0375 9.46214 11.0375 9.46261 11.0375 9.46308C11.0375 9.46355 11.0375 9.46402 11.0375 9.46449C11.0375 9.46496 11.0375 9.46543 11.0375 9.4659C11.0375 9.46638 11.0375 9.46685 11.0375 9.46732C11.0375 9.4678 11.0375 9.46827 11.0375 9.46875C11.0375 9.46922 11.0375 9.4697 11.0375 9.47017C11.0375 9.47065 11.0375 9.47113 11.0375 9.47161C11.0375 9.47208 11.0375 9.47256 11.0375 9.47304C11.0375 9.47352 11.0375 9.474 11.0375 9.47448C11.0375 9.47496 11.0375 9.47544 11.0375 9.47592C11.0375 9.4764 11.0375 9.47689 11.0375 9.47737C11.0375 9.47785 11.0375 9.47834 11.0375 9.47882C11.0375 9.47931 11.0375 9.47979 11.0375 9.48028C11.0375 9.48076 11.0375 9.48125 11.0375 9.48173C11.0375 9.48222 11.0375 9.48271 11.0375 9.4832C11.0375 9.48369 11.0375 9.48417 11.0375 9.48466C11.0375 9.48515 11.0375 9.48564 11.0375 9.48614C11.0375 9.48663 11.0375 9.48712 11.0375 9.48761C11.0375 9.4881 11.0375 9.48859 11.0375 9.48909C11.0375 9.48958 11.0375 9.49008 11.0375 9.49057C11.0375 9.49106 11.0375 9.49156 11.0375 9.49206C11.0375 9.49255 11.0375 9.49305 11.0375 9.49355C11.0375 9.49404 11.0375 9.49454 11.0375 9.49504C11.0375 9.49554 11.0375 9.49604 11.0375 9.49654C11.0375 9.49704 11.0375 9.49754 11.0375 9.49804C11.0375 9.49854 11.0375 9.49904 11.0375 9.49954C11.0375 9.50005 11.0375 9.50055 11.0375 9.50105C11.0375 9.50156 11.0375 9.50206 11.0375 9.50257C11.0375 9.50307 11.0375 9.50358 11.0375 9.50408C11.0375 9.50459 11.0375 9.5051 11.0375 9.5056C11.0375 9.50611 11.0375 9.50662 11.0375 9.50713C11.0375 9.50764 11.0375 9.50815 11.0375 9.50866C11.0375 9.50917 11.0375 9.50968 11.0375 9.51019C11.0375 9.5107 11.0375 9.51121 11.0375 9.51172C11.0375 9.51224 11.0375 9.51275 11.0375 9.51326C11.0375 9.51378 11.0375 9.51429 11.0375 9.51481C11.0375 9.51532 11.0375 9.51584 11.0375 9.51636C11.0375 9.51687 11.0375 9.51739 11.0375 9.51791C11.0375 9.51842 11.0375 9.51894 11.0375 9.51946C11.0375 9.51998 11.0375 9.5205 11.0375 9.52102C11.0375 9.52154 11.0375 9.52206 11.0375 9.52258C11.0375 9.5231 11.0375 9.52362 11.0375 9.52415C11.0375 9.52467 11.0375 9.52519 11.0375 9.52572C11.0375 9.52624 11.0375 9.52676 11.0375 9.52729C11.0375 9.52781 11.0375 9.52834 11.0375 9.52887C11.0375 9.52939 11.0375 9.52992 11.0375 9.53045C11.0375 9.53097 11.0375 9.5315 11.0375 9.53203C11.0375 9.53256 11.0375 9.53309 11.0375 9.53362C11.0375 9.53415 11.0375 9.53468 11.0375 9.53521C11.0375 9.53574 11.0375 9.53627 11.0375 9.53681C11.0375 9.53734 11.0375 9.53787 11.0375 9.53841C11.0375 9.53894 11.0375 9.53947 11.0375 9.54001C11.0375 9.54054 11.0375 9.54108 11.0375 9.54162C11.0375 9.54215 11.0375 9.54269 11.0375 9.54323C11.0375 9.54376 11.0375 9.5443 11.0375 9.54484C11.0375 9.54538 11.0375 9.54592 11.0375 9.54646C11.0375 9.547 11.0375 9.54754 11.0375 9.54808C11.0375 9.54862 11.0375 9.54916 11.0375 9.5497C11.0375 9.55024 11.0375 9.55079 11.0375 9.55133C11.0375 9.55187 11.0375 9.55242 11.0375 9.55296C11.0375 9.55351 11.0375 9.55405 11.0375 9.5546C11.0375 9.55514 11.0375 9.55569 11.0375 9.55624C11.0375 9.55678 11.0375 9.55733 11.0375 9.55788C11.0375 9.55843 11.0375 9.55898 11.0375 9.55953C11.0375 9.56007 11.0375 9.56062 11.0375 9.56118C11.0375 9.56173 11.0375 9.56228 11.0375 9.56283C11.0375 9.56338 11.0375 9.56393 11.0375 9.56449C11.0375 9.56504 11.0375 9.56559 11.0375 9.56615C11.0375 9.5667 11.0375 9.56725 11.0375 9.56781C11.0375 9.56837 11.0375 9.56892 11.0375 9.56948C11.0375 9.57003 11.0375 9.57059 11.0375 9.57115C11.0375 9.57171 11.0375 9.57226 11.0375 9.57282C11.0375 9.57338 11.0375 9.57394 11.0375 9.5745C11.0375 9.57506 11.0375 9.57562 11.0375 9.57618C11.0375 9.57674 11.0375 9.57731 11.0375 9.57787C11.0375 9.57843 11.0375 9.57899 11.0375 9.57956C11.0375 9.58012 11.0375 9.58068 11.0375 9.58125C11.0375 9.58181 11.0375 9.58238 11.0375 9.58294C11.0375 9.58351 11.0375 9.58408 11.0375 9.58464C11.0375 9.58521 11.0375 9.58578 11.0375 9.58635C11.0375 9.58691 11.0375 9.58748 11.0375 9.58805C11.0375 9.58862 11.0375 9.58919 11.0375 9.58976C11.0375 9.59033 11.0375 9.5909 11.0375 9.59147C11.0375 9.59205 11.0375 9.59262 11.0375 9.59319C11.0375 9.59376 11.0375 9.59434 11.0375 9.59491C11.0375 9.59548 11.0375 9.59606 11.0375 9.59663C11.0375 9.59721 11.0375 9.59778 11.0375 9.59836C11.0375 9.59894 11.0375 9.59951 11.0375 9.60009C11.0375 9.60067 11.0375 9.60124 11.0375 9.60182C11.0375 9.6024 11.0375 9.60298 11.0375 9.60356C11.0375 9.60414 11.0375 9.60472 11.0375 9.6053C11.0375 9.60588 11.0375 9.60646 11.0375 9.60704C11.0375 9.60763 11.0375 9.60821 11.0375 9.60879C11.0375 9.60937 11.0375 9.60996 11.0375 9.61054C11.0375 9.61113 11.0375 9.61171 11.0375 9.6123C11.0375 9.61288 11.0375 9.61347 11.0375 9.61405C11.0375 9.61464 11.0375 9.61523 11.0375 9.61581C11.0375 9.6164 11.0375 9.61699 11.0375 9.61758C11.0375 9.61817 11.0375 9.61875 11.0375 9.61934C11.0375 9.61993 11.0375 9.62052 11.0375 9.62111C11.0375 9.62171 11.0375 9.6223 11.0375 9.62289C11.0375 9.62348 11.0375 9.62407 11.0375 9.62467C11.0375 9.62526 11.0375 9.62585 11.0375 9.62645C11.0375 9.62704 11.0375 9.62763 11.0375 9.62823C11.0375 9.62883 11.0375 9.62942 11.0375 9.63002C11.0375 9.63061 11.0375 9.63121 11.0375 9.63181C11.0375 9.6324 11.0375 9.633 11.0375 9.6336C11.0375 9.6342 11.0375 9.6348 11.0375 9.6354C11.0375 9.636 11.0375 9.6366 11.0375 9.6372C11.0375 9.6378 11.0375 9.6384 11.0375 9.639C11.0375 9.6396 11.0375 9.64021 11.0375 9.64081C11.0375 9.64141 11.0375 9.64201 11.0375 9.64262C11.0375 9.64322 11.0375 9.64383 11.0375 9.64443C11.0375 9.64504 11.0375 9.64564 11.0375 9.64625C11.0375 9.64685 11.0375 9.64746 11.0375 9.64807C11.0375 9.64867 11.0375 9.64928 11.0375 9.64989C11.0375 9.6505 11.0375 9.65111 11.0375 9.65172C11.0375 9.65233 11.0375 9.65294 11.0375 9.65355C11.0375 9.65416 11.0375 9.65477 11.0375 9.65538C11.0375 9.65599 11.0375 9.6566 11.0375 9.65722C11.0375 9.65783 11.0375 9.65844 11.0375 9.65905C11.0375 9.65967 11.0375 9.66028 11.0375 9.6609C11.0375 9.66151 11.0375 9.66213 11.0375 9.66274C11.0375 9.66336 11.0375 9.66397 11.0375 9.66459C11.0375 9.66521 11.0375 9.66582 11.0375 9.66644C11.0375 9.66706 11.0375 9.66768 11.0375 9.6683C11.0375 9.66892 11.0375 9.66954 11.0375 9.67016C11.0375 9.67077 11.0375 9.6714 11.0375 9.67202C11.0375 9.67264 11.0375 9.67326 11.0375 9.67388C11.0375 9.6745 11.0375 9.67512 11.0375 9.67575C11.0375 9.67637 11.0375 9.67699 11.0375 9.67762C11.0375 9.67824 11.0375 9.67887 11.0375 9.67949C11.0375 9.68012 11.0375 9.68074 11.0375 9.68137C11.0375 9.68199 11.0375 9.68262 11.0375 9.68325C11.0375 9.68388 11.0375 9.6845 11.0375 9.68513C11.0375 9.68576 11.0375 9.68639 11.0375 9.68702C11.0375 9.68765 11.0375 9.68828 11.0375 9.68891C11.0375 9.68954 11.0375 9.69017 11.0375 9.6908C11.0375 9.69143 11.0375 9.69206 11.0375 9.69269C11.0375 9.69333 11.0375 9.69396 11.0375 9.69459C11.0375 9.69523 11.0375 9.69586 11.0375 9.69649C11.0375 9.69713 11.0375 9.69776 11.0375 9.6984C11.0375 9.69903 11.0375 9.69967 11.0375 9.70031C11.0375 9.70094 11.0375 9.70158 11.0375 9.70222C11.0375 9.70285 11.0375 9.70349 11.0375 9.70413C11.0375 9.70477 11.0375 9.70541 11.0375 9.70605C11.0375 9.70669 11.0375 9.70733 11.0375 9.70797C11.0375 9.70861 11.0375 9.70925 11.0375 9.70989C11.0375 9.71053 11.0375 9.71117 11.0375 9.71182C11.0375 9.71246 11.0375 9.7131 11.0375 9.71374C11.0375 9.71439 11.0375 9.71503 11.0375 9.71568C11.0375 9.71632 11.0375 9.71696 11.0375 9.71761C11.0375 9.71826 11.0375 9.7189 11.0375 9.71955C11.0375 9.72019 11.0375 9.72084 11.0375 9.72149C11.0375 9.72214 11.0375 9.72278 11.0375 9.72343C11.0375 9.72408 11.0375 9.72473 11.0375 9.72538C11.0375 9.72603 11.0375 9.72668 11.0375 9.72733C11.0375 9.72798 11.0375 9.72863 11.0375 9.72928C11.0375 9.72993 11.0375 9.73058 11.0375 9.73124C11.0375 9.73189 11.0375 9.73254 11.0375 9.73319C11.0375 9.73385 11.0375 9.7345 11.0375 9.73516C11.0375 9.73581 11.0375 9.73646 11.0375 9.73712C11.0375 9.73777 11.0375 9.73843 11.0375 9.73909C11.0375 9.73974 11.0375 9.7404 11.0375 9.74106C11.0375 9.74171 11.0375 9.74237 11.0375 9.74303C11.0375 9.74369 11.0375 9.74435 11.0375 9.745C11.0375 9.74566 11.0375 9.74632 11.0375 9.74698C11.0375 9.74764 11.0375 9.7483 11.0375 9.74896C11.0375 9.74963 11.0375 9.75029 11.0375 9.75095C11.0375 9.75161 11.0375 9.75227 11.0375 9.75294C11.0375 9.7536 11.0375 9.75426 11.0375 9.75493C11.0375 9.75559 11.0375 9.75625 11.0375 9.75692C11.0375 9.75758 11.0375 9.75825 11.0375 9.75891C11.0375 9.75958 11.0375 9.76025 11.0375 9.76091C11.0375 9.76158 11.0375 9.76225 11.0375 9.76291C11.0375 9.76358 11.0375 9.76425 11.0375 9.76492C11.0375 9.76559 11.0375 9.76626 11.0375 9.76693C11.0375 9.7676 11.0375 9.76827 11.0375 9.76894C11.0375 9.76961 11.0375 9.77028 11.0375 9.77095C11.0375 9.77162 11.0375 9.77229 11.0375 9.77296C11.0375 9.77364 11.0375 9.77431 11.0375 9.77498C11.0375 9.77566 11.0375 9.77633 11.0375 9.777C11.0375 9.77768 11.0375 9.77835 11.0375 9.77903C11.0375 9.7797 11.0375 9.78038 11.0375 9.78105C11.0375 9.78173 11.0375 9.78241 11.0375 9.78308C11.0375 9.78376 11.0375 9.78444 11.0375 9.78511C11.0375 9.78579 11.0375 9.78647 11.0375 9.78715C11.0375 9.78783 11.0375 9.78851 11.0375 9.78919C11.0375 9.78987 11.0375 9.79055 11.0375 9.79123C11.0375 9.79191 11.0375 9.79259 11.0375 9.79327C11.0375 9.79395 11.0375 9.79463 11.0375 9.79532C11.0375 9.796 11.0375 9.79668 11.0375 9.79736C11.0375 9.79805 11.0375 9.79873 11.0375 9.79942C11.0375 9.8001 11.0375 9.80078 11.0375 9.80147C11.0375 9.80215 11.0375 9.80284 11.0375 9.80353C11.0375 9.80421 11.0375 9.8049 11.0375 9.80558C11.0375 9.80627 11.0375 9.80696 11.0375 9.80765C11.0375 9.80833 11.0375 9.80902 11.0375 9.80971C11.0375 9.8104 11.0375 9.81109 11.0375 9.81178C11.0375 9.81247 11.0375 9.81316 11.0375 9.81385C11.0375 9.81454 11.0375 9.81523 11.0375 9.81592C11.0375 9.81661 11.0375 9.8173 11.0375 9.818C11.0375 9.81869 11.0375 9.81938 11.0375 9.82007C11.0375 9.82077 11.0375 9.82146 11.0375 9.82215C11.0375 9.82285 11.0375 9.82354 11.0375 9.82424C11.0375 9.82493 11.0375 9.82563 11.0375 9.82632C11.0375 9.82702 11.0375 9.82771 11.0375 9.82841C11.0375 9.82911 11.0375 9.8298 11.0375 9.8305C11.0375 9.8312 11.0375 9.8319 11.0375 9.8326C11.0375 9.83329 11.0375 9.83399 11.0375 9.83469C11.0375 9.83539 11.0375 9.83609 11.0375 9.83679C11.0375 9.83749 11.0375 9.83819 11.0375 9.83889C11.0375 9.83959 11.0375 9.84029 11.0375 9.841C11.0375 9.8417 11.0375 9.8424 11.0375 9.8431C11.0375 9.8438 11.0375 9.84451 11.0375 9.84521C11.0375 9.84591 11.0375 9.84662 11.0375 9.84732C11.0375 9.84803 11.0375 9.84873 11.0375 9.84944C11.0375 9.85014 11.0375 9.85085 11.0375 9.85155C11.0375 9.85226 11.0375 9.85296 11.0375 9.85367C11.0375 9.85438 11.0375 9.85509 11.0375 9.85579C11.0375 9.8565 11.0375 9.85721 11.0375 9.85792C11.0375 9.85863 11.0375 9.85933 11.0375 9.86004C11.0375 9.86075 11.0375 9.86146 11.0375 9.86217C11.0375 9.86288 11.0375 9.86359 11.0375 9.8643C11.0375 9.86502 11.0375 9.86573 11.0375 9.86644C11.0375 9.86715 11.0375 9.86786 11.0375 9.86858C11.0375 9.86929 11.0375 9.87 11.0375 9.87071C11.0375 9.87143 11.0375 9.87214 11.0375 9.87286C11.0375 9.87357 11.0375 9.87428 11.0375 9.875H11.8375C11.8375 9.87428 11.8375 9.87357 11.8375 9.87286C11.8375 9.87214 11.8375 9.87143 11.8375 9.87071C11.8375 9.87 11.8375 9.86929 11.8375 9.86858C11.8375 9.86786 11.8375 9.86715 11.8375 9.86644C11.8375 9.86573 11.8375 9.86502 11.8375 9.8643C11.8375 9.86359 11.8375 9.86288 11.8375 9.86217C11.8375 9.86146 11.8375 9.86075 11.8375 9.86004C11.8375 9.85933 11.8375 9.85863 11.8375 9.85792C11.8375 9.85721 11.8375 9.8565 11.8375 9.85579C11.8375 9.85509 11.8375 9.85438 11.8375 9.85367C11.8375 9.85296 11.8375 9.85226 11.8375 9.85155C11.8375 9.85085 11.8375 9.85014 11.8375 9.84944C11.8375 9.84873 11.8375 9.84803 11.8375 9.84732C11.8375 9.84662 11.8375 9.84591 11.8375 9.84521C11.8375 9.84451 11.8375 9.8438 11.8375 9.8431C11.8375 9.8424 11.8375 9.8417 11.8375 9.841C11.8375 9.84029 11.8375 9.83959 11.8375 9.83889C11.8375 9.83819 11.8375 9.83749 11.8375 9.83679C11.8375 9.83609 11.8375 9.83539 11.8375 9.83469C11.8375 9.83399 11.8375 9.83329 11.8375 9.8326C11.8375 9.8319 11.8375 9.8312 11.8375 9.8305C11.8375 9.8298 11.8375 9.82911 11.8375 9.82841C11.8375 9.82771 11.8375 9.82702 11.8375 9.82632C11.8375 9.82563 11.8375 9.82493 11.8375 9.82424C11.8375 9.82354 11.8375 9.82285 11.8375 9.82215C11.8375 9.82146 11.8375 9.82077 11.8375 9.82007C11.8375 9.81938 11.8375 9.81869 11.8375 9.818C11.8375 9.8173 11.8375 9.81661 11.8375 9.81592C11.8375 9.81523 11.8375 9.81454 11.8375 9.81385C11.8375 9.81316 11.8375 9.81247 11.8375 9.81178C11.8375 9.81109 11.8375 9.8104 11.8375 9.80971C11.8375 9.80902 11.8375 9.80833 11.8375 9.80765C11.8375 9.80696 11.8375 9.80627 11.8375 9.80558C11.8375 9.8049 11.8375 9.80421 11.8375 9.80353C11.8375 9.80284 11.8375 9.80215 11.8375 9.80147C11.8375 9.80078 11.8375 9.8001 11.8375 9.79942C11.8375 9.79873 11.8375 9.79805 11.8375 9.79736C11.8375 9.79668 11.8375 9.796 11.8375 9.79532C11.8375 9.79463 11.8375 9.79395 11.8375 9.79327C11.8375 9.79259 11.8375 9.79191 11.8375 9.79123C11.8375 9.79055 11.8375 9.78987 11.8375 9.78919C11.8375 9.78851 11.8375 9.78783 11.8375 9.78715C11.8375 9.78647 11.8375 9.78579 11.8375 9.78511C11.8375 9.78444 11.8375 9.78376 11.8375 9.78308C11.8375 9.78241 11.8375 9.78173 11.8375 9.78105C11.8375 9.78038 11.8375 9.7797 11.8375 9.77903C11.8375 9.77835 11.8375 9.77768 11.8375 9.777C11.8375 9.77633 11.8375 9.77566 11.8375 9.77498C11.8375 9.77431 11.8375 9.77364 11.8375 9.77296C11.8375 9.77229 11.8375 9.77162 11.8375 9.77095C11.8375 9.77028 11.8375 9.76961 11.8375 9.76894C11.8375 9.76827 11.8375 9.7676 11.8375 9.76693C11.8375 9.76626 11.8375 9.76559 11.8375 9.76492C11.8375 9.76425 11.8375 9.76358 11.8375 9.76291C11.8375 9.76225 11.8375 9.76158 11.8375 9.76091C11.8375 9.76025 11.8375 9.75958 11.8375 9.75891C11.8375 9.75825 11.8375 9.75758 11.8375 9.75692C11.8375 9.75625 11.8375 9.75559 11.8375 9.75493C11.8375 9.75426 11.8375 9.7536 11.8375 9.75294C11.8375 9.75227 11.8375 9.75161 11.8375 9.75095C11.8375 9.75029 11.8375 9.74963 11.8375 9.74896C11.8375 9.7483 11.8375 9.74764 11.8375 9.74698C11.8375 9.74632 11.8375 9.74566 11.8375 9.745C11.8375 9.74435 11.8375 9.74369 11.8375 9.74303C11.8375 9.74237 11.8375 9.74171 11.8375 9.74106C11.8375 9.7404 11.8375 9.73974 11.8375 9.73909C11.8375 9.73843 11.8375 9.73777 11.8375 9.73712C11.8375 9.73646 11.8375 9.73581 11.8375 9.73516C11.8375 9.7345 11.8375 9.73385 11.8375 9.73319C11.8375 9.73254 11.8375 9.73189 11.8375 9.73124C11.8375 9.73058 11.8375 9.72993 11.8375 9.72928C11.8375 9.72863 11.8375 9.72798 11.8375 9.72733C11.8375 9.72668 11.8375 9.72603 11.8375 9.72538C11.8375 9.72473 11.8375 9.72408 11.8375 9.72343C11.8375 9.72278 11.8375 9.72214 11.8375 9.72149C11.8375 9.72084 11.8375 9.72019 11.8375 9.71955C11.8375 9.7189 11.8375 9.71826 11.8375 9.71761C11.8375 9.71696 11.8375 9.71632 11.8375 9.71568C11.8375 9.71503 11.8375 9.71439 11.8375 9.71374C11.8375 9.7131 11.8375 9.71246 11.8375 9.71182C11.8375 9.71117 11.8375 9.71053 11.8375 9.70989C11.8375 9.70925 11.8375 9.70861 11.8375 9.70797C11.8375 9.70733 11.8375 9.70669 11.8375 9.70605C11.8375 9.70541 11.8375 9.70477 11.8375 9.70413C11.8375 9.70349 11.8375 9.70285 11.8375 9.70222C11.8375 9.70158 11.8375 9.70094 11.8375 9.70031C11.8375 9.69967 11.8375 9.69903 11.8375 9.6984C11.8375 9.69776 11.8375 9.69713 11.8375 9.69649C11.8375 9.69586 11.8375 9.69523 11.8375 9.69459C11.8375 9.69396 11.8375 9.69333 11.8375 9.69269C11.8375 9.69206 11.8375 9.69143 11.8375 9.6908C11.8375 9.69017 11.8375 9.68954 11.8375 9.68891C11.8375 9.68828 11.8375 9.68765 11.8375 9.68702C11.8375 9.68639 11.8375 9.68576 11.8375 9.68513C11.8375 9.6845 11.8375 9.68388 11.8375 9.68325C11.8375 9.68262 11.8375 9.68199 11.8375 9.68137C11.8375 9.68074 11.8375 9.68012 11.8375 9.67949C11.8375 9.67887 11.8375 9.67824 11.8375 9.67762C11.8375 9.67699 11.8375 9.67637 11.8375 9.67575C11.8375 9.67512 11.8375 9.6745 11.8375 9.67388C11.8375 9.67326 11.8375 9.67264 11.8375 9.67202C11.8375 9.6714 11.8375 9.67077 11.8375 9.67016C11.8375 9.66954 11.8375 9.66892 11.8375 9.6683C11.8375 9.66768 11.8375 9.66706 11.8375 9.66644C11.8375 9.66582 11.8375 9.66521 11.8375 9.66459C11.8375 9.66397 11.8375 9.66336 11.8375 9.66274C11.8375 9.66213 11.8375 9.66151 11.8375 9.6609C11.8375 9.66028 11.8375 9.65967 11.8375 9.65905C11.8375 9.65844 11.8375 9.65783 11.8375 9.65722C11.8375 9.6566 11.8375 9.65599 11.8375 9.65538C11.8375 9.65477 11.8375 9.65416 11.8375 9.65355C11.8375 9.65294 11.8375 9.65233 11.8375 9.65172C11.8375 9.65111 11.8375 9.6505 11.8375 9.64989C11.8375 9.64928 11.8375 9.64867 11.8375 9.64807C11.8375 9.64746 11.8375 9.64685 11.8375 9.64625C11.8375 9.64564 11.8375 9.64504 11.8375 9.64443C11.8375 9.64383 11.8375 9.64322 11.8375 9.64262C11.8375 9.64201 11.8375 9.64141 11.8375 9.64081C11.8375 9.64021 11.8375 9.6396 11.8375 9.639C11.8375 9.6384 11.8375 9.6378 11.8375 9.6372C11.8375 9.6366 11.8375 9.636 11.8375 9.6354C11.8375 9.6348 11.8375 9.6342 11.8375 9.6336C11.8375 9.633 11.8375 9.6324 11.8375 9.63181C11.8375 9.63121 11.8375 9.63061 11.8375 9.63002C11.8375 9.62942 11.8375 9.62883 11.8375 9.62823C11.8375 9.62763 11.8375 9.62704 11.8375 9.62645C11.8375 9.62585 11.8375 9.62526 11.8375 9.62467C11.8375 9.62407 11.8375 9.62348 11.8375 9.62289C11.8375 9.6223 11.8375 9.62171 11.8375 9.62111C11.8375 9.62052 11.8375 9.61993 11.8375 9.61934C11.8375 9.61875 11.8375 9.61817 11.8375 9.61758C11.8375 9.61699 11.8375 9.6164 11.8375 9.61581C11.8375 9.61523 11.8375 9.61464 11.8375 9.61405C11.8375 9.61347 11.8375 9.61288 11.8375 9.6123C11.8375 9.61171 11.8375 9.61113 11.8375 9.61054C11.8375 9.60996 11.8375 9.60937 11.8375 9.60879C11.8375 9.60821 11.8375 9.60763 11.8375 9.60704C11.8375 9.60646 11.8375 9.60588 11.8375 9.6053C11.8375 9.60472 11.8375 9.60414 11.8375 9.60356C11.8375 9.60298 11.8375 9.6024 11.8375 9.60182C11.8375 9.60124 11.8375 9.60067 11.8375 9.60009C11.8375 9.59951 11.8375 9.59894 11.8375 9.59836C11.8375 9.59778 11.8375 9.59721 11.8375 9.59663C11.8375 9.59606 11.8375 9.59548 11.8375 9.59491C11.8375 9.59434 11.8375 9.59376 11.8375 9.59319C11.8375 9.59262 11.8375 9.59205 11.8375 9.59147C11.8375 9.5909 11.8375 9.59033 11.8375 9.58976C11.8375 9.58919 11.8375 9.58862 11.8375 9.58805C11.8375 9.58748 11.8375 9.58691 11.8375 9.58635C11.8375 9.58578 11.8375 9.58521 11.8375 9.58464C11.8375 9.58408 11.8375 9.58351 11.8375 9.58294C11.8375 9.58238 11.8375 9.58181 11.8375 9.58125C11.8375 9.58068 11.8375 9.58012 11.8375 9.57956C11.8375 9.57899 11.8375 9.57843 11.8375 9.57787C11.8375 9.57731 11.8375 9.57674 11.8375 9.57618C11.8375 9.57562 11.8375 9.57506 11.8375 9.5745C11.8375 9.57394 11.8375 9.57338 11.8375 9.57282C11.8375 9.57226 11.8375 9.57171 11.8375 9.57115C11.8375 9.57059 11.8375 9.57003 11.8375 9.56948C11.8375 9.56892 11.8375 9.56837 11.8375 9.56781C11.8375 9.56725 11.8375 9.5667 11.8375 9.56615C11.8375 9.56559 11.8375 9.56504 11.8375 9.56449C11.8375 9.56393 11.8375 9.56338 11.8375 9.56283C11.8375 9.56228 11.8375 9.56173 11.8375 9.56118C11.8375 9.56062 11.8375 9.56007 11.8375 9.55953C11.8375 9.55898 11.8375 9.55843 11.8375 9.55788C11.8375 9.55733 11.8375 9.55678 11.8375 9.55624C11.8375 9.55569 11.8375 9.55514 11.8375 9.5546C11.8375 9.55405 11.8375 9.55351 11.8375 9.55296C11.8375 9.55242 11.8375 9.55187 11.8375 9.55133C11.8375 9.55079 11.8375 9.55024 11.8375 9.5497C11.8375 9.54916 11.8375 9.54862 11.8375 9.54808C11.8375 9.54754 11.8375 9.547 11.8375 9.54646C11.8375 9.54592 11.8375 9.54538 11.8375 9.54484C11.8375 9.5443 11.8375 9.54376 11.8375 9.54323C11.8375 9.54269 11.8375 9.54215 11.8375 9.54162C11.8375 9.54108 11.8375 9.54054 11.8375 9.54001C11.8375 9.53947 11.8375 9.53894 11.8375 9.53841C11.8375 9.53787 11.8375 9.53734 11.8375 9.53681C11.8375 9.53627 11.8375 9.53574 11.8375 9.53521C11.8375 9.53468 11.8375 9.53415 11.8375 9.53362C11.8375 9.53309 11.8375 9.53256 11.8375 9.53203C11.8375 9.5315 11.8375 9.53097 11.8375 9.53045C11.8375 9.52992 11.8375 9.52939 11.8375 9.52887C11.8375 9.52834 11.8375 9.52781 11.8375 9.52729C11.8375 9.52676 11.8375 9.52624 11.8375 9.52572C11.8375 9.52519 11.8375 9.52467 11.8375 9.52415C11.8375 9.52362 11.8375 9.5231 11.8375 9.52258C11.8375 9.52206 11.8375 9.52154 11.8375 9.52102C11.8375 9.5205 11.8375 9.51998 11.8375 9.51946C11.8375 9.51894 11.8375 9.51842 11.8375 9.51791C11.8375 9.51739 11.8375 9.51687 11.8375 9.51636C11.8375 9.51584 11.8375 9.51532 11.8375 9.51481C11.8375 9.51429 11.8375 9.51378 11.8375 9.51326C11.8375 9.51275 11.8375 9.51224 11.8375 9.51172C11.8375 9.51121 11.8375 9.5107 11.8375 9.51019C11.8375 9.50968 11.8375 9.50917 11.8375 9.50866C11.8375 9.50815 11.8375 9.50764 11.8375 9.50713C11.8375 9.50662 11.8375 9.50611 11.8375 9.5056C11.8375 9.5051 11.8375 9.50459 11.8375 9.50408C11.8375 9.50358 11.8375 9.50307 11.8375 9.50257C11.8375 9.50206 11.8375 9.50156 11.8375 9.50105C11.8375 9.50055 11.8375 9.50005 11.8375 9.49954C11.8375 9.49904 11.8375 9.49854 11.8375 9.49804C11.8375 9.49754 11.8375 9.49704 11.8375 9.49654C11.8375 9.49604 11.8375 9.49554 11.8375 9.49504C11.8375 9.49454 11.8375 9.49404 11.8375 9.49355C11.8375 9.49305 11.8375 9.49255 11.8375 9.49206C11.8375 9.49156 11.8375 9.49106 11.8375 9.49057C11.8375 9.49008 11.8375 9.48958 11.8375 9.48909C11.8375 9.48859 11.8375 9.4881 11.8375 9.48761C11.8375 9.48712 11.8375 9.48663 11.8375 9.48614C11.8375 9.48564 11.8375 9.48515 11.8375 9.48466C11.8375 9.48417 11.8375 9.48369 11.8375 9.4832C11.8375 9.48271 11.8375 9.48222 11.8375 9.48173C11.8375 9.48125 11.8375 9.48076 11.8375 9.48028C11.8375 9.47979 11.8375 9.47931 11.8375 9.47882C11.8375 9.47834 11.8375 9.47785 11.8375 9.47737C11.8375 9.47689 11.8375 9.4764 11.8375 9.47592C11.8375 9.47544 11.8375 9.47496 11.8375 9.47448C11.8375 9.474 11.8375 9.47352 11.8375 9.47304C11.8375 9.47256 11.8375 9.47208 11.8375 9.47161C11.8375 9.47113 11.8375 9.47065 11.8375 9.47017C11.8375 9.4697 11.8375 9.46922 11.8375 9.46875C11.8375 9.46827 11.8375 9.4678 11.8375 9.46732C11.8375 9.46685 11.8375 9.46638 11.8375 9.4659C11.8375 9.46543 11.8375 9.46496 11.8375 9.46449C11.8375 9.46402 11.8375 9.46355 11.8375 9.46308C11.8375 9.46261 11.8375 9.46214 11.8375 9.46167C11.8375 9.4612 11.8375 9.46073 11.8375 9.46027C11.8375 9.4598 11.8375 9.45933 11.8375 9.45887C11.8375 9.4584 11.8375 9.45794 11.8375 9.45747C11.8375 9.45701 11.8375 9.45654 11.8375 9.45608C11.8375 9.45562 11.8375 9.45515 11.8375 9.45469C11.8375 9.45423 11.8375 9.45377 11.8375 9.45331C11.8375 9.45285 11.8375 9.45239 11.8375 9.45193C11.8375 9.45147 11.8375 9.45101 11.8375 9.45056C11.8375 9.4501 11.8375 9.44964 11.8375 9.44918C11.8375 9.44873 11.8375 9.44827 11.8375 9.44782C11.8375 9.44736 11.8375 9.44691 11.8375 9.44645C11.8375 9.446 11.8375 9.44555 11.8375 9.4451C11.8375 9.44464 11.8375 9.44419 11.8375 9.44374C11.8375 9.44329 11.8375 9.44284 11.8375 9.44239C11.8375 9.44194 11.8375 9.44149 11.8375 9.44104C11.8375 9.44059 11.8375 9.44015 11.8375 9.4397C11.8375 9.43925 11.8375 9.43881 11.8375 9.43836C11.8375 9.43792 11.8375 9.43747 11.8375 9.43703C11.8375 9.43658 11.8375 9.43614 11.8375 9.4357C11.8375 9.43526 11.8375 9.43481 11.8375 9.43437C11.8375 9.43393 11.8375 9.43349 11.8375 9.43305C11.8375 9.43261 11.8375 9.43217 11.8375 9.43173C11.8375 9.43129 11.8375 9.43086 11.8375 9.43042C11.8375 9.42998 11.8375 9.42954 11.8375 9.42911C11.8375 9.42867 11.8375 9.42824 11.8375 9.4278C11.8375 9.42737 11.8375 9.42694 11.8375 9.4265C11.8375 9.42607 11.8375 9.42564 11.8375 9.42521C11.8375 9.42477 11.8375 9.42434 11.8375 9.42391C11.8375 9.42348 11.8375 9.42305 11.8375 9.42263C11.8375 9.4222 11.8375 9.42177 11.8375 9.42134C11.8375 9.42091 11.8375 9.42049 11.8375 9.42006C11.8375 9.41963 11.8375 9.41921 11.8375 9.41879C11.8375 9.41836 11.8375 9.41794 11.8375 9.41751C11.8375 9.41709 11.8375 9.41667 11.8375 9.41625C11.8375 9.41582 11.8375 9.4154 11.8375 9.41498C11.8375 9.41456 11.8375 9.41414 11.8375 9.41372C11.8375 9.41331 11.8375 9.41289 11.8375 9.41247C11.8375 9.41205 11.8375 9.41163 11.8375 9.41122C11.8375 9.4108 11.8375 9.41039 11.8375 9.40997C11.8375 9.40956 11.8375 9.40914 11.8375 9.40873C11.8375 9.40832 11.8375 9.40791 11.8375 9.40749C11.8375 9.40708 11.8375 9.40667 11.8375 9.40626C11.8375 9.40585 11.8375 9.40544 11.8375 9.40503C11.8375 9.40462 11.8375 9.40421 11.8375 9.40381C11.8375 9.4034 11.8375 9.40299 11.8375 9.40259C11.8375 9.40218 11.8375 9.40177 11.8375 9.40137C11.8375 9.40097 11.8375 9.40056 11.8375 9.40016C11.8375 9.39976 11.8375 9.39935 11.8375 9.39895C11.8375 9.39855 11.8375 9.39815 11.8375 9.39775C11.8375 9.39735 11.8375 9.39695 11.8375 9.39655C11.8375 9.39615 11.8375 9.39575 11.8375 9.39535C11.8375 9.39496 11.8375 9.39456 11.8375 9.39416C11.8375 9.39377 11.8375 9.39337 11.8375 9.39298C11.8375 9.39258 11.8375 9.39219 11.8375 9.3918C11.8375 9.3914 11.8375 9.39101 11.8375 9.39062C11.8375 9.39023 11.8375 9.38984 11.8375 9.38945C11.8375 9.38906 11.8375 9.38867 11.8375 9.38828C11.8375 9.38789 11.8375 9.3875 11.8375 9.38712C11.8375 9.38673 11.8375 9.38634 11.8375 9.38596C11.8375 9.38557 11.8375 9.38519 11.8375 9.3848C11.8375 9.38442 11.8375 9.38403 11.8375 9.38365C11.8375 9.38327 11.8375 9.38289 11.8375 9.3825C11.8375 9.38212 11.8375 9.38174 11.8375 9.38136C11.8375 9.38098 11.8375 9.3806 11.8375 9.38023C11.8375 9.37985 11.8375 9.37947 11.8375 9.37909C11.8375 9.37872 11.8375 9.37834 11.8375 9.37796C11.8375 9.37759 11.8375 9.37721 11.8375 9.37684C11.8375 9.37647 11.8375 9.37609 11.8375 9.37572C11.8375 9.37535 11.8375 9.37498 11.8375 9.37461C11.8375 9.37424 11.8375 9.37386 11.8375 9.3735C11.8375 9.37313 11.8375 9.37276 11.8375 9.37239C11.8375 9.37202 11.8375 9.37165 11.8375 9.37129C11.8375 9.37092 11.8375 9.37056 11.8375 9.37019C11.8375 9.36983 11.8375 9.36946 11.8375 9.3691C11.8375 9.36873 11.8375 9.36837 11.8375 9.36801C11.8375 9.36765 11.8375 9.36729 11.8375 9.36693C11.8375 9.36657 11.8375 9.36621 11.8375 9.36585C11.8375 9.36549 11.8375 9.36513 11.8375 9.36477C11.8375 9.36442 11.8375 9.36406 11.8375 9.3637C11.8375 9.36335 11.8375 9.36299 11.8375 9.36264C11.8375 9.36228 11.8375 9.36193 11.8375 9.36158C11.8375 9.36122 11.8375 9.36087 11.8375 9.36052C11.8375 9.36017 11.8375 9.35982 11.8375 9.35947C11.8375 9.35912 11.8375 9.35877 11.8375 9.35842C11.8375 9.35807 11.8375 9.35773 11.8375 9.35738C11.8375 9.35703 11.8375 9.35669 11.8375 9.35634C11.8375 9.356 11.8375 9.35565 11.8375 9.35531C11.8375 9.35496 11.8375 9.35462 11.8375 9.35428C11.8375 9.35394 11.8375 9.35359 11.8375 9.35325C11.8375 9.35291 11.8375 9.35257 11.8375 9.35223C11.8375 9.3519 11.8375 9.35156 11.8375 9.35122C11.8375 9.35088 11.8375 9.35054 11.8375 9.35021C11.8375 9.34987 11.8375 9.34954 11.8375 9.3492C11.8375 9.34887 11.8375 9.34854 11.8375 9.3482C11.8375 9.34787 11.8375 9.34754 11.8375 9.34721C11.8375 9.34687 11.8375 9.34654 11.8375 9.34621C11.8375 9.34588 11.8375 9.34555 11.8375 9.34523C11.8375 9.3449 11.8375 9.34457 11.8375 9.34424C11.8375 9.34392 11.8375 9.34359 11.8375 9.34327C11.8375 9.34294 11.8375 9.34262 11.8375 9.34229C11.8375 9.34197 11.8375 9.34165 11.8375 9.34132C11.8375 9.341 11.8375 9.34068 11.8375 9.34036C11.8375 9.34004 11.8375 9.33972 11.8375 9.3394C11.8375 9.33908 11.8375 9.33876 11.8375 9.33845C11.8375 9.33813 11.8375 9.33781 11.8375 9.3375C11.8375 9.33718 11.8375 9.33687 11.8375 9.33655C11.8375 9.33624 11.8375 9.33593 11.8375 9.33561C11.8375 9.3353 11.8375 9.33499 11.8375 9.33468C11.8375 9.33437 11.8375 9.33406 11.8375 9.33375C11.8375 9.33344 11.8375 9.33313 11.8375 9.33282C11.8375 9.33251 11.8375 9.3322 11.8375 9.3319C11.8375 9.33159 11.8375 9.33129 11.8375 9.33098C11.8375 9.33068 11.8375 9.33037 11.8375 9.33007C11.8375 9.32977 11.8375 9.32946 11.8375 9.32916C11.8375 9.32886 11.8375 9.32856 11.8375 9.32826C11.8375 9.32796 11.8375 9.32766 11.8375 9.32736C11.8375 9.32707 11.8375 9.32677 11.8375 9.32647C11.8375 9.32617 11.8375 9.32588 11.8375 9.32558C11.8375 9.32529 11.8375 9.32499 11.8375 9.3247C11.8375 9.32441 11.8375 9.32411 11.8375 9.32382C11.8375 9.32353 11.8375 9.32324 11.8375 9.32295C11.8375 9.32266 11.8375 9.32237 11.8375 9.32208C11.8375 9.32179 11.8375 9.3215 11.8375 9.32122C11.8375 9.32093 11.8375 9.32064 11.8375 9.32036C11.8375 9.32007 11.8375 9.31979 11.8375 9.3195C11.8375 9.31922 11.8375 9.31894 11.8375 9.31865C11.8375 9.31837 11.8375 9.31809 11.8375 9.31781C11.8375 9.31753 11.8375 9.31725 11.8375 9.31697C11.8375 9.31669 11.8375 9.31641 11.8375 9.31614C11.8375 9.31586 11.8375 9.31558 11.8375 9.31531C11.8375 9.31503 11.8375 9.31476 11.8375 9.31448C11.8375 9.31421 11.8375 9.31393 11.8375 9.31366C11.8375 9.31339 11.8375 9.31312 11.8375 9.31285C11.8375 9.31258 11.8375 9.31231 11.8375 9.31204C11.8375 9.31177 11.8375 9.3115 11.8375 9.31123C11.8375 9.31096 11.8375 9.3107 11.8375 9.31043C11.8375 9.31017 11.8375 9.3099 11.8375 9.30964C11.8375 9.30937 11.8375 9.30911 11.8375 9.30885C11.8375 9.30858 11.8375 9.30832 11.8375 9.30806C11.8375 9.3078 11.8375 9.30754 11.8375 9.30728C11.8375 9.30702 11.8375 9.30676 11.8375 9.3065C11.8375 9.30625 11.8375 9.30599 11.8375 9.30573C11.8375 9.30548 11.8375 9.30522 11.8375 9.30497C11.8375 9.30471 11.8375 9.30446 11.8375 9.30421C11.8375 9.30396 11.8375 9.3037 11.8375 9.30345C11.8375 9.3032 11.8375 9.30295 11.8375 9.3027C11.8375 9.30245 11.8375 9.3022 11.8375 9.30196C11.8375 9.30171 11.8375 9.30146 11.8375 9.30122C11.8375 9.30097 11.8375 9.30072 11.8375 9.30048C11.8375 9.30023 11.8375 9.29999 11.8375 9.29975C11.8375 9.29951 11.8375 9.29926 11.8375 9.29902C11.8375 9.29878 11.8375 9.29854 11.8375 9.2983C11.8375 9.29806 11.8375 9.29782 11.8375 9.29759C11.8375 9.29735 11.8375 9.29711 11.8375 9.29688C11.8375 9.29664 11.8375 9.29641 11.8375 9.29617C11.8375 9.29594 11.8375 9.2957 11.8375 9.29547C11.8375 9.29524 11.8375 9.29501 11.8375 9.29478C11.8375 9.29454 11.8375 9.29431 11.8375 9.29409C11.8375 9.29386 11.8375 9.29363 11.8375 9.2934C11.8375 9.29317 11.8375 9.29295 11.8375 9.29272C11.8375 9.29249 11.8375 9.29227 11.8375 9.29205C11.8375 9.29182 11.8375 9.2916 11.8375 9.29138C11.8375 9.29115 11.8375 9.29093 11.8375 9.29071C11.8375 9.29049 11.8375 9.29027 11.8375 9.29005C11.8375 9.28983 11.8375 9.28961 11.8375 9.2894C11.8375 9.28918 11.8375 9.28896 11.8375 9.28875C11.8375 9.28853 11.8375 9.28832 11.8375 9.2881C11.8375 9.28789 11.8375 9.28768 11.8375 9.28746C11.8375 9.28725 11.8375 9.28704 11.8375 9.28683C11.8375 9.28662 11.8375 9.28641 11.8375 9.2862C11.8375 9.28599 11.8375 9.28578 11.8375 9.28558C11.8375 9.28537 11.8375 9.28516 11.8375 9.28496C11.8375 9.28475 11.8375 9.28455 11.8375 9.28434C11.8375 9.28414 11.8375 9.28394 11.8375 9.28374C11.8375 9.28353 11.8375 9.28333 11.8375 9.28313C11.8375 9.28293 11.8375 9.28273 11.8375 9.28254C11.8375 9.28234 11.8375 9.28214 11.8375 9.28194C11.8375 9.28175 11.8375 9.28155 11.8375 9.28136C11.8375 9.28116 11.8375 9.28097 11.8375 9.28077C11.8375 9.28058 11.8375 9.28039 11.8375 9.2802C11.8375 9.28 11.8375 9.27981 11.8375 9.27962C11.8375 9.27944 11.8375 9.27925 11.8375 9.27906C11.8375 9.27887 11.8375 9.27868 11.8375 9.2785C11.8375 9.27831 11.8375 9.27813 11.8375 9.27794C11.8375 9.27776 11.8375 9.27757 11.8375 9.27739C11.8375 9.27721 11.8375 9.27703 11.8375 9.27684C11.8375 9.27666 11.8375 9.27648 11.8375 9.2763C11.8375 9.27613 11.8375 9.27595 11.8375 9.27577C11.8375 9.27559 11.8375 9.27542 11.8375 9.27524C11.8375 9.27506 11.8375 9.27489 11.8375 9.27472C11.8375 9.27454 11.8375 9.27437 11.8375 9.2742C11.8375 9.27402 11.8375 9.27385 11.8375 9.27368C11.8375 9.27351 11.8375 9.27334 11.8375 9.27317C11.8375 9.27301 11.8375 9.27284 11.8375 9.27267C11.8375 9.2725 11.8375 9.27234 11.8375 9.27217C11.8375 9.27201 11.8375 9.27184 11.8375 9.27168C11.8375 9.27152 11.8375 9.27135 11.8375 9.27119C11.8375 9.27103 11.8375 9.27087 11.8375 9.27071C11.8375 9.27055 11.8375 9.27039 11.8375 9.27024C11.8375 9.27008 11.8375 9.26992 11.8375 9.26976C11.8375 9.26961 11.8375 9.26945 11.8375 9.2693C11.8375 9.26914 11.8375 9.26899 11.8375 9.26884C11.8375 9.26869 11.8375 9.26853 11.8375 9.26838C11.8375 9.26823 11.8375 9.26808 11.8375 9.26793C11.8375 9.26778 11.8375 9.26764 11.8375 9.26749C11.8375 9.26734 11.8375 9.2672 11.8375 9.26705C11.8375 9.2669 11.8375 9.26676 11.8375 9.26662C11.8375 9.26647 11.8375 9.26633 11.8375 9.26619C11.8375 9.26605 11.8375 9.26591 11.8375 9.26577C11.8375 9.26563 11.8375 9.26549 11.8375 9.26535C11.8375 9.26521 11.8375 9.26507 11.8375 9.26494C11.8375 9.2648 11.8375 9.26467 11.8375 9.26453C11.8375 9.2644 11.8375 9.26426 11.8375 9.26413C11.8375 9.264 11.8375 9.26386 11.8375 9.26373C11.8375 9.2636 11.8375 9.26347 11.8375 9.26334C11.8375 9.26322 11.8375 9.26309 11.8375 9.26296C11.8375 9.26283 11.8375 9.26271 11.8375 9.26258C11.8375 9.26245 11.8375 9.26233 11.8375 9.26221C11.8375 9.26208 11.8375 9.26196 11.8375 9.26184C11.8375 9.26172 11.8375 9.2616 11.8375 9.26148C11.8375 9.26136 11.8375 9.26124 11.8375 9.26112C11.8375 9.261 11.8375 9.26088 11.8375 9.26077C11.8375 9.26065 11.8375 9.26054 11.8375 9.26042C11.8375 9.26031 11.8375 9.26019 11.8375 9.26008C11.8375 9.25997 11.8375 9.25986 11.8375 9.25975C11.8375 9.25964 11.8375 9.25953 11.8375 9.25942C11.8375 9.25931 11.8375 9.2592 11.8375 9.25909C11.8375 9.25899 11.8375 9.25888 11.8375 9.25877C11.8375 9.25867 11.8375 9.25856 11.8375 9.25846C11.8375 9.25836 11.8375 9.25826 11.8375 9.25815C11.8375 9.25805 11.8375 9.25795 11.8375 9.25785C11.8375 9.25775 11.8375 9.25765 11.8375 9.25756C11.8375 9.25746 11.8375 9.25736 11.8375 9.25727C11.8375 9.25717 11.8375 9.25707 11.8375 9.25698C11.8375 9.25689 11.8375 9.25679 11.8375 9.2567C11.8375 9.25661 11.8375 9.25652 11.8375 9.25643C11.8375 9.25634 11.8375 9.25625 11.8375 9.25616C11.8375 9.25607 11.8375 9.25598 11.8375 9.2559C11.8375 9.25581 11.8375 9.25572 11.8375 9.25564C11.8375 9.25555 11.8375 9.25547 11.8375 9.25539C11.8375 9.25531 11.8375 9.25522 11.8375 9.25514C11.8375 9.25506 11.8375 9.25498 11.8375 9.2549C11.8375 9.25482 11.8375 9.25475 11.8375 9.25467C11.8375 9.25459 11.8375 9.25451 11.8375 9.25444C11.8375 9.25436 11.8375 9.25429 11.8375 9.25422C11.8375 9.25414 11.8375 9.25407 11.8375 9.254C11.8375 9.25393 11.8375 9.25386 11.8375 9.25379C11.8375 9.25372 11.8375 9.25365 11.8375 9.25358C11.8375 9.25351 11.8375 9.25345 11.8375 9.25338C11.8375 9.25331 11.8375 9.25325 11.8375 9.25319C11.8375 9.25312 11.8375 9.25306 11.8375 9.253C11.8375 9.25293 11.8375 9.25287 11.8375 9.25281C11.8375 9.25275 11.8375 9.25269 11.8375 9.25264C11.8375 9.25258 11.8375 9.25252 11.8375 9.25246C11.8375 9.25241 11.8375 9.25235 11.8375 9.2523C11.8375 9.25224 11.8375 9.25219 11.8375 9.25214C11.8375 9.25209 11.8375 9.25203 11.8375 9.25198C11.8375 9.25193 11.8375 9.25188 11.8375 9.25183C11.8375 9.25179 11.8375 9.25174 11.8375 9.25169C11.8375 9.25164 11.8375 9.2516 11.8375 9.25155C11.8375 9.25151 11.8375 9.25146 11.8375 9.25142C11.8375 9.25138 11.8375 9.25134 11.8375 9.2513C11.8375 9.25126 11.8375 9.25121 11.8375 9.25118C11.8375 9.25114 11.8375 9.2511 11.8375 9.25106C11.8375 9.25102 11.8375 9.25099 11.8375 9.25095C11.8375 9.25092 11.8375 9.25088 11.8375 9.25085C11.8375 9.25082 11.8375 9.25079 11.8375 9.25075C11.8375 9.25072 11.8375 9.25069 11.8375 9.25066C11.8375 9.25063 11.8375 9.25061 11.8375 9.25058C11.8375 9.25055 11.8375 9.25052 11.8375 9.2505C11.8375 9.25047 11.8375 9.25045 11.8375 9.25042C11.8375 9.2504 11.8375 9.25038 11.8375 9.25036C11.8375 9.25034 11.8375 9.25031 11.8375 9.2503C11.8375 9.25028 11.8375 9.25026 11.8375 9.25024C11.8375 9.25022 11.8375 9.2502 11.8375 9.25019C11.8375 9.25017 11.8375 9.25016 11.8375 9.25014C11.8375 9.25013 11.8375 9.25012 11.8375 9.25011C11.8375 9.25009 11.8375 9.25008 11.8375 9.25007C11.8375 9.25006 11.8375 9.25006 11.8375 9.25005C11.8375 9.25004 11.8375 9.25003 11.8375 9.25003C11.8375 9.25002 11.8375 9.25002 11.8375 9.25001C11.8375 9.25001 11.8375 9.25 11.8375 9.25C11.8375 9.25 11.8375 9.25 11.4375 9.25ZM4.9625 9.875V9.25H4.1625V9.875H4.9625ZM10.1875 8.4C10.6569 8.4 11.0375 8.78056 11.0375 9.25H11.8375C11.8375 8.33873 11.0988 7.6 10.1875 7.6V8.4ZM5.8125 7.6C4.90123 7.6 4.1625 8.33873 4.1625 9.25H4.9625C4.9625 8.78056 5.34306 8.4 5.8125 8.4V7.6ZM11.125 10.275H11.75V9.475H11.125V10.275ZM12.6 11.125V11.75H13.4V11.125H12.6ZM11.75 12.6H11.125V13.4H11.75V12.6ZM10.275 11.75V11.125H9.475V11.75H10.275ZM11.125 12.6C10.6556 12.6 10.275 12.2194 10.275 11.75H9.475C9.475 12.6613 10.2137 13.4 11.125 13.4V12.6ZM12.6 11.75C12.6 12.2194 12.2194 12.6 11.75 12.6V13.4C12.6613 13.4 13.4 12.6613 13.4 11.75H12.6ZM11.75 10.275C12.2194 10.275 12.6 10.6556 12.6 11.125H13.4C13.4 10.2137 12.6613 9.475 11.75 9.475V10.275ZM11.125 9.475C10.2137 9.475 9.475 10.2137 9.475 11.125H10.275C10.275 10.6556 10.6556 10.275 11.125 10.275V9.475ZM7.6875 3.4H8.3125V2.6H7.6875V3.4ZM9.1625 4.25V4.875H9.9625V4.25H9.1625ZM8.3125 5.725H7.6875V6.525H8.3125V5.725ZM6.8375 4.875V4.25H6.0375V4.875H6.8375ZM7.6875 5.725C7.21806 5.725 6.8375 5.34444 6.8375 4.875H6.0375C6.0375 5.78627 6.77623 6.525 7.6875 6.525V5.725ZM9.1625 4.875C9.1625 5.34444 8.78194 5.725 8.3125 5.725V6.525C9.22377 6.525 9.9625 5.78627 9.9625 4.875H9.1625ZM8.3125 3.4C8.78194 3.4 9.1625 3.78056 9.1625 4.25H9.9625C9.9625 3.33873 9.22377 2.6 8.3125 2.6V3.4ZM7.6875 2.6C6.77623 2.6 6.0375 3.33873 6.0375 4.25H6.8375C6.8375 3.78056 7.21806 3.4 7.6875 3.4V2.6ZM4.25 10.275H4.875V9.475H4.25V10.275ZM5.725 11.125V11.75H6.525V11.125H5.725ZM4.875 12.6H4.25V13.4H4.875V12.6ZM3.4 11.75V11.125H2.6V11.75H3.4ZM4.25 12.6C3.78056 12.6 3.4 12.2194 3.4 11.75H2.6C2.6 12.6613 3.33873 13.4 4.25 13.4V12.6ZM5.725 11.75C5.725 12.2194 5.34444 12.6 4.875 12.6V13.4C5.78627 13.4 6.525 12.6613 6.525 11.75H5.725ZM4.875 10.275C5.34444 10.275 5.725 10.6556 5.725 11.125H6.525C6.525 10.2137 5.78627 9.475 4.875 9.475V10.275ZM4.25 9.475C3.33873 9.475 2.6 10.2137 2.6 11.125H3.4C3.4 10.6556 3.78056 10.275 4.25 10.275V9.475ZM7.6 6.125V8H8.4V6.125H7.6ZM11.4375 9.25C11.8375 9.25 11.8375 9.25 11.8375 9.25C11.4375 9.25 11.0375 9.25 11.0375 9.25H11.8375C11.8375 9.25 11.4375 9.25 11.0375 9.25C11.0375 9.25 11.0375 9.25 11.4375 9.25Z" fill="currentColor"/>
</svg>
