<svg viewBox="0 0 16 16" fill="currentColor" xmlns="http://www.w3.org/2000/svg">
    <path d="M9.54247 3.96976C9.51916 3.94624 9.49143 3.92756 9.46088 3.91478C9.43032 3.90201 9.39755 3.8954 9.36443 3.89532C9.33135 3.89533 9.2986 3.90187 9.26804 3.91455C9.23749 3.92724 9.20974 3.94583 9.18639 3.96926L3.69326 9.4639C3.64611 9.51106 3.61963 9.57501 3.61963 9.64169C3.61963 9.70837 3.64611 9.77232 3.69326 9.81948L6.18181 12.308C6.22897 12.3552 6.29292 12.3817 6.3596 12.3817C6.42628 12.3817 6.49024 12.3552 6.53739 12.308L12.028 6.81742C12.075 6.77028 12.1014 6.70644 12.1014 6.63988C12.1014 6.57332 12.075 6.50948 12.028 6.46234L9.54247 3.96976Z" />
    <path d="M3.18673 10.4144C3.1551 10.3829 3.11564 10.3604 3.07242 10.3491C3.02919 10.3379 2.98376 10.3384 2.94079 10.3506C2.89775 10.3626 2.8587 10.3859 2.82767 10.4181C2.79664 10.4503 2.77475 10.4902 2.76426 10.5336L2.00682 13.6906C1.99683 13.7324 1.99773 13.7761 2.00944 13.8175C2.02115 13.8589 2.04328 13.8966 2.07372 13.927C2.10435 13.957 2.14207 13.9789 2.18339 13.9905C2.22471 14.0021 2.26829 14.0031 2.3101 13.9934L5.46455 13.2389C5.50805 13.2285 5.54798 13.2067 5.58024 13.1757C5.61249 13.1447 5.6359 13.1057 5.64804 13.0627C5.66019 13.0196 5.66063 12.9741 5.64933 12.9308C5.63803 12.8876 5.61539 12.8481 5.58375 12.8165L3.18673 10.4144Z" />
    <path d="M13.6328 3.43563L12.5651 2.36738C12.3294 2.13213 12.0099 2 11.6769 2C11.3439 2 11.0244 2.13213 10.7887 2.36738L10.0755 3.08005C10.0284 3.12721 10.0019 3.19116 10.0019 3.25784C10.0019 3.32452 10.0284 3.38847 10.0755 3.43563L12.5651 5.92469C12.6122 5.97184 12.6762 5.99832 12.7429 5.99832C12.8096 5.99832 12.8735 5.97184 12.9207 5.92469L13.6328 5.21102C13.8678 4.97533 13.9997 4.65611 13.9997 4.32332C13.9997 3.99053 13.8678 3.67132 13.6328 3.43563Z" />
</svg>
