<svg  viewBox="0 0 12 12" fill="none" xmlns="http://www.w3.org/2000/svg">
    <path d="M7.54247 1.9697C7.51916 1.94618 7.49143 1.9275 7.46088 1.91472C7.43032 1.90195 7.39755 1.89534 7.36443 1.89526C7.33135 1.89527 7.2986 1.9018 7.26804 1.91449C7.23749 1.92718 7.20974 1.94577 7.18639 1.9692L1.69326 7.46384C1.64611 7.511 1.61963 7.57495 1.61963 7.64163C1.61963 7.70831 1.64611 7.77226 1.69326 7.81942L4.18181 10.308C4.22897 10.3551 4.29292 10.3816 4.3596 10.3816C4.42628 10.3816 4.49024 10.3551 4.53739 10.308L10.028 4.81736C10.075 4.77022 10.1014 4.70638 10.1014 4.63982C10.1014 4.57326 10.075 4.50942 10.028 4.46228L7.54247 1.9697Z" fill="currentColor"/>
    <path d="M1.18679 8.41442C1.15516 8.3829 1.1157 8.36036 1.07248 8.34914C1.02926 8.33791 0.983822 8.3384 0.940849 8.35055C0.897808 8.36262 0.858763 8.38595 0.827734 8.41812C0.796705 8.4503 0.774815 8.49017 0.764316 8.53362L0.00688555 11.6906C-0.00311032 11.7324 -0.00220963 11.7761 0.00950154 11.8175C0.0212127 11.8589 0.0433429 11.8966 0.0737768 11.927C0.104407 11.957 0.14213 11.9789 0.183452 11.9905C0.224773 12.0021 0.268355 12.0031 0.31016 11.9934L3.46461 11.2389C3.50811 11.2285 3.54805 11.2067 3.5803 11.1757C3.61255 11.1447 3.63596 11.1057 3.6481 11.0627C3.66025 11.0196 3.66069 10.9741 3.64939 10.9308C3.63809 10.8876 3.61545 10.8481 3.58381 10.8165L1.18679 8.41442Z" fill="currentColor"/>
    <path d="M11.6329 1.43563L10.5651 0.367383C10.3294 0.132126 10.01 0 9.67695 0C9.34391 0 9.02448 0.132126 8.78875 0.367383L8.07558 1.08005C8.02844 1.12721 8.00195 1.19116 8.00195 1.25784C8.00195 1.32452 8.02844 1.38847 8.07558 1.43563L10.5651 3.92469C10.6123 3.97184 10.6763 3.99832 10.7429 3.99832C10.8096 3.99832 10.8736 3.97184 10.9207 3.92469L11.6329 3.21102C11.8678 2.97533 11.9998 2.65611 11.9998 2.32332C11.9998 1.99053 11.8678 1.67132 11.6329 1.43563Z" fill="currentColor"/>
</svg>
