<svg viewBox="0 0 12 12" fill="none" xmlns="http://www.w3.org/2000/svg">
    <path d="M11.4802 5.24998C11.5465 5.24998 11.6101 5.22364 11.657 5.17676C11.7039 5.12987 11.7302 5.06629 11.7302 4.99998C11.7286 3.67439 11.2013 2.40355 10.264 1.46621C9.32666 0.52888 8.05581 0.00158785 6.73022 0C6.66392 0 6.60033 0.0263391 6.55345 0.073223C6.50656 0.120107 6.48022 0.183695 6.48022 0.249999V4.76248C6.48036 4.89178 6.53174 5.01575 6.62313 5.10723C6.71451 5.1987 6.83843 5.25022 6.96772 5.25048L11.4802 5.24998Z" fill="currentColor"/>
    <path d="M11.7302 6.00004H6.98024C6.90655 5.99063 6.83182 6.00573 6.76755 6.043C6.70329 6.08026 6.65308 6.13764 6.62465 6.20627C6.59622 6.2749 6.59115 6.35097 6.61024 6.42277C6.62932 6.49456 6.67149 6.55808 6.73024 6.60354L10.0892 9.96253C10.1361 10.0094 10.1997 10.0357 10.266 10.0357C10.3323 10.0357 10.3958 10.0094 10.4427 9.96253C10.9317 9.47609 11.3194 8.89751 11.5833 8.26026C11.8472 7.62302 11.9821 6.93977 11.9802 6.25004C11.9802 6.18373 11.9539 6.12015 11.907 6.07326C11.8601 6.02638 11.7965 6.00004 11.7302 6.00004Z" fill="currentColor"/>
    <path d="M5.27428 11.9999C5.95737 11.9985 6.63339 11.8614 7.26312 11.5967C7.89285 11.332 8.46376 10.945 8.94276 10.458C8.98963 10.4111 9.01596 10.3475 9.01596 10.2812C9.01596 10.2149 8.98963 10.1513 8.94276 10.1045L5.58378 6.74546C5.52472 6.67456 5.48863 6.58737 5.48028 6.49547V1.74548C5.48028 1.67918 5.45394 1.61559 5.40705 1.56871C5.36017 1.52182 5.29658 1.49548 5.23028 1.49548C3.8373 1.50132 2.50369 2.06027 1.52283 3.04938C0.541974 4.03849 -0.0057886 5.37674 4.61399e-05 6.76971C0.00588088 8.16269 0.564835 9.4963 1.55395 10.4772C2.54306 11.458 3.8813 12.0058 5.27428 11.9999Z" fill="currentColor"/>
</svg>
