<svg viewBox="0 0 9 12" fill="none" xmlns="http://www.w3.org/2000/svg">
<path d="M4.32149 1C5.2024 1 6.04723 1.34994 6.67013 1.97284C7.29303 2.59574 7.64297 3.44057 7.64297 4.32149C7.64297 5.89233 5.20721 9.80459 4.50793 10.898C4.4879 10.9293 4.46032 10.955 4.42774 10.9728C4.39516 10.9907 4.35862 11 4.32149 11C4.28435 11 4.24781 10.9907 4.21523 10.9728C4.18265 10.955 4.15507 10.9293 4.13504 10.898C3.43576 9.80504 1 5.89233 1 4.32149C1 3.44057 1.34994 2.59574 1.97284 1.97284C2.59574 1.34994 3.44057 1 4.32149 1V1Z" stroke="currentColor" stroke-width="0.8" stroke-linecap="round" stroke-linejoin="round"/>
<path d="M4.32159 5.64986C5.05536 5.64986 5.65019 5.05503 5.65019 4.32127C5.65019 3.58751 5.05536 2.99268 4.32159 2.99268C3.58783 2.99268 2.993 3.58751 2.993 4.32127C2.993 5.05503 3.58783 5.64986 4.32159 5.64986Z" stroke="currentColor" stroke-width="0.8" stroke-linecap="round" stroke-linejoin="round"/>
</svg>
