<svg viewBox="0 0 12 12" fill="none" xmlns="http://www.w3.org/2000/svg">
    <path d="M4.71716 6.71716C4.56095 6.87337 4.56095 7.12663 4.71716 7.28284C4.87337 7.43905 5.12663 7.43905 5.28284 7.28284L4.71716 6.71716ZM11.4 1C11.4 0.779086 11.2209 0.6 11 0.6L7.4 0.6C7.17909 0.6 7 0.779086 7 1C7 1.22091 7.17909 1.4 7.4 1.4L10.6 1.4L10.6 4.6C10.6 4.82091 10.7791 5 11 5C11.2209 5 11.4 4.82091 11.4 4.6L11.4 1ZM5.28284 7.28284L8.28284 4.28284L7.71716 3.71716L4.71716 6.71716L5.28284 7.28284ZM8.28284 4.28284L11.2828 1.28284L10.7172 0.717157L7.71716 3.71716L8.28284 4.28284Z" fill="currentColor"/>
    <path d="M5.5 2H2C1.44772 2 1 2.44772 1 3V10C1 10.5523 1.44772 11 2 11H9C9.55228 11 10 10.5523 10 10V6.5" stroke="currentColor" stroke-width="0.8" stroke-linecap="round" stroke-linejoin="round"/>
</svg>
