<svg viewBox="0 0 12 12" fill="none" xmlns="http://www.w3.org/2000/svg">
    <path d="M2.875 3C3.00761 3 3.13479 2.94732 3.22855 2.85355C3.32232 2.75979 3.375 2.63261 3.375 2.5V1H7.793L8.875 2.0815V2.5C8.875 2.63261 8.92768 2.75979 9.02145 2.85355C9.11521 2.94732 9.24239 3 9.375 3C9.50761 3 9.63479 2.94732 9.72855 2.85355C9.82232 2.75979 9.875 2.63261 9.875 2.5V1.8745C9.87497 1.7419 9.82228 1.61475 9.7285 1.521L8.5 0.2935C8.31228 0.10623 8.05816 0.000735443 7.793 0H3.375C3.10978 0 2.85543 0.105357 2.66789 0.292893C2.48036 0.48043 2.375 0.734784 2.375 1V2.5C2.375 2.63261 2.42768 2.75979 2.52145 2.85355C2.61521 2.94732 2.74239 3 2.875 3Z" fill="currentColor"/>
    <path d="M10.75 3.5H1.25C0.918479 3.5 0.600537 3.6317 0.366117 3.86612C0.131696 4.10054 0 4.41848 0 4.75V7C0 7.33152 0.131696 7.64946 0.366117 7.88388C0.600537 8.1183 0.918479 8.25 1.25 8.25H2.5V11.375C2.50013 11.5407 2.56602 11.6996 2.6832 11.8168C2.80039 11.934 2.95928 11.9999 3.125 12H9.125C9.29072 11.9999 9.44961 11.934 9.5668 11.8168C9.68398 11.6996 9.74987 11.5407 9.75 11.375V8.25H10.75C10.9142 8.25 11.0767 8.21767 11.2284 8.15485C11.38 8.09203 11.5178 7.99996 11.6339 7.88388C11.75 7.76781 11.842 7.63001 11.9048 7.47835C11.9677 7.3267 12 7.16415 12 7V4.75C12 4.58585 11.9677 4.4233 11.9048 4.27165C11.842 4.11999 11.75 3.98219 11.6339 3.86612C11.5178 3.75004 11.38 3.65797 11.2284 3.59515C11.0767 3.53233 10.9142 3.5 10.75 3.5ZM1.75 5.75C1.65111 5.75 1.55444 5.72068 1.47221 5.66573C1.38999 5.61079 1.3259 5.5327 1.28806 5.44134C1.25022 5.34998 1.24031 5.24945 1.25961 5.15245C1.2789 5.05546 1.32652 4.96637 1.39645 4.89645C1.46637 4.82652 1.55546 4.7789 1.65245 4.75961C1.74945 4.74031 1.84998 4.75022 1.94134 4.78806C2.0327 4.8259 2.11079 4.88999 2.16573 4.97221C2.22068 5.05444 2.25 5.15111 2.25 5.25C2.25 5.38261 2.19732 5.50979 2.10355 5.60355C2.00979 5.69732 1.88261 5.75 1.75 5.75ZM8.75 10.75C8.75 10.8163 8.72366 10.8799 8.67678 10.9268C8.62989 10.9737 8.5663 11 8.5 11H3.75C3.6837 11 3.62011 10.9737 3.57322 10.9268C3.52634 10.8799 3.5 10.8163 3.5 10.75V6.2285C3.5 6.1622 3.52634 6.09861 3.57322 6.05172C3.62011 6.00484 3.6837 5.9785 3.75 5.9785H8.5C8.5663 5.9785 8.62989 6.00484 8.67678 6.05172C8.72366 6.09861 8.75 6.1622 8.75 6.2285V10.75Z" fill="currentColor"/>
    <path d="M7.5 7.3745H4.75C4.65054 7.3745 4.55516 7.41401 4.48484 7.48433C4.41451 7.55466 4.375 7.65004 4.375 7.7495C4.375 7.84896 4.41451 7.94434 4.48484 8.01466C4.55516 8.08499 4.65054 8.1245 4.75 8.1245H7.5C7.59946 8.1245 7.69484 8.08499 7.76516 8.01466C7.83549 7.94434 7.875 7.84896 7.875 7.7495C7.875 7.65004 7.83549 7.55466 7.76516 7.48433C7.69484 7.41401 7.59946 7.3745 7.5 7.3745Z" fill="currentColor"/>
    <path d="M6.625 9.1245H4.75C4.65054 9.1245 4.55516 9.16401 4.48484 9.23433C4.41451 9.30466 4.375 9.40004 4.375 9.4995C4.375 9.59896 4.41451 9.69434 4.48484 9.76466C4.55516 9.83499 4.65054 9.8745 4.75 9.8745H6.625C6.72446 9.8745 6.81984 9.83499 6.89016 9.76466C6.96049 9.69434 7 9.59896 7 9.4995C7 9.40004 6.96049 9.30466 6.89016 9.23433C6.81984 9.16401 6.72446 9.1245 6.625 9.1245Z" fill="currentColor"/>
</svg>
