<svg viewBox="0 0 10 12" fill="none" xmlns="http://www.w3.org/2000/svg">
    <path d="M4.83201 0.306572C4.71804 0.353678 4.62056 0.433446 4.55183 0.535836C4.48309 0.638226 4.44619 0.758662 4.44575 0.881981L4.44192 2.64945C4.44194 2.67136 4.43502 2.6927 4.42216 2.71043C4.4093 2.72816 4.39115 2.74136 4.37033 2.74815C2.173 3.46587 0.684536 4.78757 0.264396 6.40979C-0.123628 7.90856 0.46386 9.5349 1.91785 10.9889C1.99599 11.067 2.10197 11.1109 2.21248 11.1109C2.32298 11.1109 2.42896 11.067 2.5071 10.9889C2.58524 10.9108 2.62914 10.8048 2.62914 10.6943C2.62914 10.5838 2.58524 10.4778 2.5071 10.3996C1.80795 9.70049 1.56076 8.92296 1.79676 8.14721C2.08638 7.19055 3.04392 6.37443 4.3117 5.96519C4.32736 5.96 4.34403 5.95861 4.36032 5.96115C4.37662 5.96369 4.39208 5.97008 4.40542 5.97978C4.41876 5.98949 4.42959 6.00224 4.43701 6.01697C4.44444 6.0317 4.44824 6.04799 4.44811 6.06448V7.53762C4.44807 7.66128 4.48471 7.78216 4.5534 7.88499C4.62208 7.98781 4.71973 8.06795 4.83397 8.11526C4.94822 8.16258 5.07393 8.17494 5.1952 8.15078C5.31647 8.12663 5.42786 8.06704 5.51525 7.97956L8.98833 4.50649C9.06647 4.42835 9.11037 4.32237 9.11037 4.21186C9.11037 4.10136 9.06647 3.99538 8.98833 3.91724L5.51319 0.442101C5.42578 0.354674 5.31441 0.295132 5.19316 0.271008C5.07191 0.246883 4.94623 0.25926 4.83201 0.306572Z" fill="currentColor"/>
</svg>
