<svg viewBox="0 0 32 32" fill="none" xmlns="http://www.w3.org/2000/svg">
    <path d="M16 32C24.8366 32 32 24.8366 32 16C32 7.16344 24.8366 0 16 0C7.16344 0 0 7.16344 0 16C0 24.8366 7.16344 32 16 32Z" fill="#272B35"/>
    <path d="M15.8482 6.90064C10.7677 6.97647 6.74871 11.1471 6.82454 16.2277C6.90037 21.3082 11.071 25.3272 16.1516 25.2514C21.2321 25.1755 25.2511 21.0049 25.1753 15.9243C25.0994 10.7679 20.9288 6.74898 15.8482 6.90064ZM13.27 8.41723C12.7392 9.17552 12.2084 10.0855 11.8293 11.2229H9.47857C10.4644 9.93381 11.7535 8.94803 13.27 8.41723ZM8.87194 12.2845H11.6018C11.3743 13.2703 11.2226 14.3319 11.2226 15.4694H7.96198C8.03781 14.3319 8.34113 13.1945 8.87194 12.2845ZM7.96198 16.531H11.2226C11.2226 17.6684 11.3743 18.73 11.6018 19.7158H8.87194C8.34113 18.8059 8.03781 17.6684 7.96198 16.531ZM9.5544 20.8532H11.9051C12.2843 21.9907 12.7392 22.9006 13.3459 23.6589C11.7535 23.0523 10.4644 22.0665 9.5544 20.8532ZM15.4691 23.9623C14.2558 23.5831 13.4217 21.9907 13.0426 20.7774H15.4691V23.9623ZM15.4691 19.7916H12.6634C12.4359 18.8059 12.2843 17.7442 12.2084 16.6068H15.3933V19.7916H15.4691ZM15.4691 15.4694H12.2843C12.2843 14.3319 12.4359 13.2703 12.7392 12.2845H15.5449V15.4694H15.4691ZM15.4691 11.2229H13.0426C13.4975 10.0096 14.2558 8.49306 15.4691 8.03808V11.2229ZM24.0378 15.4694H20.7771C20.7771 14.3319 20.6255 13.2703 20.398 12.2845H23.1279C23.6587 13.1945 23.962 14.3319 24.0378 15.4694ZM22.5212 11.2229H20.1705C19.7914 10.0855 19.3364 9.17552 18.7298 8.41723C20.2463 8.94803 21.5354 9.93381 22.5212 11.2229ZM16.5307 8.03808C17.744 8.41723 18.5781 10.0096 18.9572 11.2229H16.5307V8.03808ZM16.5307 12.2845H19.3364C19.5639 13.2703 19.7155 14.3319 19.7914 15.4694H16.6065V12.2845H16.5307ZM16.5307 16.531H19.7155C19.7155 17.6684 19.5639 18.73 19.2606 19.7158H16.4549V16.531H16.5307ZM16.5307 23.9623V20.7774H18.9572C18.5781 22.0665 17.744 23.5831 16.5307 23.9623ZM18.7298 23.5831C19.2606 22.8248 19.7914 21.9149 20.1705 20.7774H22.5212C21.5354 22.0665 20.2463 23.0523 18.7298 23.5831ZM23.1279 19.7916H20.398C20.6255 18.8059 20.7771 17.7442 20.7771 16.6068H24.0378C23.962 17.6684 23.6587 18.8059 23.1279 19.7916Z" fill="#F9FBFC"/>
</svg>
