<svg viewBox="0 0 18 18" version="1.1" xmlns="http://www.w3.org/2000/svg" xmlns:xlink="http://www.w3.org/1999/xlink">
    <path fill="currentColor" d="M0.888888889,10.6666667 L4.44444444,10.6666667 C4.93536422,10.6666667 5.33333333,10.2686976 5.33333333,9.77777778 C5.33333333,9.286858 4.93536422,8.88888889 4.44444444,8.88888889 L0.888888889,8.88888889 C0.397969111,8.88888889 -6.01203334e-17,9.286858 0,9.77777778 C6.01203334e-17,10.2686976 0.397969111,10.6666667 0.888888889,10.6666667 Z M0,0.888888889 C6.01203334e-17,1.37980867 0.397969111,1.77777778 0.888888889,1.77777778 L15.1111111,1.77777778 C15.6020309,1.77777778 16,1.37980867 16,0.888888889 C16,0.397969111 15.6020309,-4.23247408e-16 15.1111111,0 L0.888888889,0 C0.397969111,9.01805001e-17 -6.01203334e-17,0.397969111 0,0.888888889 Z M0.888888889,6.22222222 L9.77777778,6.22222222 C10.2686976,6.22222222 10.6666667,5.82425311 10.6666667,5.33333333 C10.6666667,4.84241356 10.2686976,4.44444444 9.77777778,4.44444444 L0.888888889,4.44444444 C0.397969111,4.44444444 -6.01203334e-17,4.84241356 0,5.33333333 C6.01203334e-17,5.82425311 0.397969111,6.22222222 0.888888889,6.22222222 Z" />
</svg>
