<svg viewBox="0 0 14 12" fill="none" xmlns="http://www.w3.org/2000/svg">
<path d="M11.1739 7.72018C11.2767 7.72018 11.3784 7.74042 11.4734 7.77975C11.5683 7.81908 11.6546 7.87673 11.7273 7.9494C11.7999 8.02207 11.8576 8.10835 11.8969 8.2033C11.9363 8.29825 11.9565 8.40002 11.9565 8.50279C11.9565 8.60557 11.9363 8.70733 11.8969 8.80228C11.8576 8.89723 11.7999 8.98351 11.7273 9.05618C11.6546 9.12885 11.5683 9.1865 11.4734 9.22583C11.3784 9.26516 11.2767 9.2854 11.1739 9.2854H10.6521C10.8597 9.2854 11.0588 9.36786 11.2055 9.51462C11.3523 9.66139 11.4348 9.86045 11.4348 10.068C11.4348 10.5005 11.0841 10.5898 10.6521 10.5898H7.26083C5.77335 10.5898 5.43474 10.3289 3.60864 10.068V5.63322C4.88691 5.63322 6.99996 3.28538 6.99996 1.19842C6.99996 0.373546 8.14205 0.0662404 8.56518 1.57355C8.82605 2.50277 8.04344 4.32886 8.04344 4.32886H12.2174C12.4249 4.32886 12.624 4.41132 12.7708 4.55809C12.9175 4.70485 13 4.90391 13 5.11148C13 5.544 12.6494 6.15496 12.2174 6.15496H11.6956C11.9032 6.15496 12.1022 6.23741 12.249 6.38418C12.3958 6.53095 12.4782 6.73001 12.4782 6.93757C12.4782 7.14513 12.3958 7.34419 12.249 7.49096C12.1022 7.63773 11.9032 7.72018 11.6956 7.72018H11.1739Z" fill="white"/>
<path d="M11.1739 7.72018C11.2767 7.72018 11.3784 7.74042 11.4734 7.77975C11.5683 7.81908 11.6546 7.87673 11.7273 7.9494C11.7999 8.02207 11.8576 8.10835 11.8969 8.2033C11.9363 8.29825 11.9565 8.40002 11.9565 8.50279C11.9565 8.60557 11.9363 8.70733 11.8969 8.80228C11.8576 8.89724 11.7999 8.98351 11.7273 9.05618C11.6546 9.12885 11.5683 9.1865 11.4734 9.22583C11.3784 9.26516 11.2767 9.2854 11.1739 9.2854H10.6521C10.8597 9.2854 11.0588 9.36786 11.2055 9.51462C11.3523 9.66139 11.4348 9.86045 11.4348 10.068C11.4348 10.5005 11.0841 10.5898 10.6521 10.5898H7.26083C5.77335 10.5898 5.43474 10.3289 3.60864 10.068V5.63322C4.88691 5.63322 6.99996 3.28538 6.99996 1.19842C6.99996 0.373546 8.14205 0.0662404 8.56518 1.57355C8.82605 2.50277 8.04344 4.32886 8.04344 4.32886H12.2174C12.4249 4.32886 12.624 4.41132 12.7708 4.55809C12.9175 4.70485 13 4.90391 13 5.11148C13 5.544 12.6494 6.15496 12.2174 6.15496H11.6956C11.9032 6.15496 12.1022 6.23741 12.249 6.38418C12.3958 6.53095 12.4782 6.73001 12.4782 6.93757C12.4782 7.14513 12.3958 7.34419 12.249 7.49096C12.1022 7.63773 11.9032 7.72018 11.6956 7.72018H11.1739" stroke="currentColor" stroke-linecap="round" stroke-linejoin="round"/>
<path d="M3.6087 4.85059H1V11.1115H3.6087V4.85059Z" fill="white" stroke="currentColor" stroke-linecap="round" stroke-linejoin="round"/>
</svg>
