<svg viewBox="0 0 12 11" xmlns="http://www.w3.org/2000/svg">
    <path d="M0 5.87501C0 6.20653 0.131696 6.52447 0.366117 6.75889C0.600537 6.99331 0.918479 7.12501 1.25 7.12501H4.4055C4.42524 7.12505 4.44468 7.12976 4.46225 7.13877C4.47982 7.14777 4.495 7.1608 4.50656 7.1768C4.51812 7.1928 4.52572 7.21131 4.52876 7.23081C4.53179 7.25031 4.53016 7.27026 4.524 7.28901C4.24798 7.9886 4.15839 8.74789 4.264 9.49251C4.558 10.5425 5.181 10.8425 5.668 10.775C5.90753 10.7344 6.12407 10.6079 6.27718 10.4193C6.43029 10.2307 6.5095 9.99277 6.5 9.75001C6.5 8.37701 7.5645 6.87701 8.517 6.21951C8.55035 6.19649 8.5776 6.16572 8.59642 6.12983C8.61523 6.09395 8.62504 6.05403 8.625 6.01351V0.955508C8.62501 0.897437 8.60481 0.841173 8.56786 0.796375C8.53091 0.751578 8.47951 0.721041 8.4225 0.710008C8.244 0.676008 8.082 0.642508 7.929 0.610008C7.25616 0.449962 6.5666 0.370902 5.875 0.374508H2.625C1.646 0.375008 1.5 0.923008 1.5 1.25001C1.49941 1.42335 1.53894 1.59448 1.6155 1.75001C1.3517 1.8841 1.15132 2.11668 1.05774 2.39742C0.964162 2.67816 0.984912 2.98446 1.1155 3.25001C0.981548 3.31807 0.862585 3.41227 0.765634 3.52705C0.668683 3.64184 0.595707 3.77488 0.551013 3.91833C0.506319 4.06178 0.490813 4.21273 0.505409 4.36227C0.520006 4.51181 0.56441 4.65691 0.636 4.78901C0.443418 4.89761 0.283085 5.05534 0.171356 5.24613C0.0596259 5.43691 0.00049707 5.65392 0 5.87501H0Z" fill="currentColor"/>
    <path d="M9.375 6C9.375 6.13261 9.42768 6.25979 9.52145 6.35355C9.61521 6.44732 9.74239 6.5 9.875 6.5H11.5C11.6326 6.5 11.7598 6.44732 11.8536 6.35355C11.9473 6.25979 12 6.13261 12 6V0.5C12 0.367392 11.9473 0.240215 11.8536 0.146447C11.7598 0.0526785 11.6326 0 11.5 0H9.875C9.74239 0 9.61521 0.0526785 9.52145 0.146447C9.42768 0.240215 9.375 0.367392 9.375 0.5V6ZM10.125 1.375C10.125 1.30083 10.147 1.22833 10.1882 1.16666C10.2294 1.10499 10.288 1.05693 10.3565 1.02855C10.425 1.00016 10.5004 0.992736 10.5732 1.00721C10.6459 1.02167 10.7127 1.05739 10.7652 1.10983C10.8176 1.16228 10.8533 1.2291 10.8678 1.30184C10.8823 1.37458 10.8748 1.44998 10.8465 1.51851C10.8181 1.58703 10.77 1.6456 10.7083 1.6868C10.6467 1.72801 10.5742 1.75 10.5 1.75C10.4005 1.75 10.3052 1.71049 10.2348 1.64017C10.1645 1.56984 10.125 1.47446 10.125 1.375Z" fill="currentColor"/>
</svg>
