<svg viewBox="0 0 32 29" fill="none" xmlns="http://www.w3.org/2000/svg">
<path d="M32 13.0907C32 12.653 31.9138 12.2195 31.7463 11.8151C31.5787 11.4107 31.3332 11.0432 31.0237 10.7337C30.7142 10.4242 30.3467 10.1786 29.9423 10.0111C29.5379 9.84361 29.1044 9.75739 28.6667 9.75739H20.252C20.1994 9.75728 20.1475 9.74471 20.1007 9.72071C20.0538 9.6967 20.0133 9.66194 19.9825 9.61928C19.9517 9.57662 19.9314 9.52727 19.9233 9.47526C19.9152 9.42325 19.9196 9.37006 19.936 9.32006C20.672 7.45448 20.911 5.42972 20.6293 3.44406C19.8453 0.644058 18.184 -0.155942 16.8853 0.0240576C16.2466 0.132403 15.6692 0.469571 15.2609 0.972578C14.8526 1.47559 14.6413 2.11003 14.6667 2.75739C14.6667 6.41872 11.828 10.4187 9.288 12.1721C9.19907 12.2334 9.12639 12.3155 9.07622 12.4112C9.02605 12.5069 8.9999 12.6133 9 12.7214V26.2094C8.99997 26.3642 9.05384 26.5143 9.15238 26.6337C9.25092 26.7532 9.38797 26.8346 9.54 26.8641C10.016 26.9547 10.448 27.0441 10.856 27.1307C12.6502 27.5575 14.4891 27.7683 16.3333 27.7587H25C27.6107 27.7587 28 26.2921 28 25.4254C28.0005 24.9654 27.8952 24.5114 27.692 24.0987C28.3955 23.7412 28.9298 23.1209 29.1794 22.3723C29.4289 21.6237 29.3736 20.8069 29.0253 20.0987C29.3825 19.9172 29.6998 19.666 29.9583 19.3599C30.2168 19.0538 30.4114 18.6991 30.5306 18.3165C30.6498 17.934 30.6912 17.5315 30.6522 17.1327C30.6133 16.7339 30.4949 16.347 30.304 15.9947C30.8187 15.7045 31.247 15.2826 31.5451 14.7723C31.8431 14.262 32.0001 13.6817 32 13.0907Z" fill="currentColor"/>
<path d="M7 12.7574C7 12.4038 6.85952 12.0646 6.60948 11.8146C6.35943 11.5645 6.02029 11.4241 5.66667 11.4241H1.33333C0.979711 11.4241 0.640573 11.5645 0.390524 11.8146C0.140476 12.0646 0 12.4038 0 12.7574L0 27.4241C0 27.7777 0.140476 28.1168 0.390524 28.3669C0.640573 28.6169 0.979711 28.7574 1.33333 28.7574H5.66667C6.02029 28.7574 6.35943 28.6169 6.60948 28.3669C6.85952 28.1168 7 27.7777 7 27.4241V12.7574ZM5 25.0907C5 25.2885 4.94135 25.4819 4.83147 25.6463C4.72159 25.8108 4.56541 25.9389 4.38268 26.0146C4.19996 26.0903 3.99889 26.1101 3.80491 26.0715C3.61093 26.0329 3.43275 25.9377 3.29289 25.7978C3.15304 25.658 3.0578 25.4798 3.01921 25.2858C2.98063 25.0918 3.00043 24.8908 3.07612 24.7081C3.15181 24.5253 3.27998 24.3692 3.44443 24.2593C3.60888 24.1494 3.80222 24.0907 4 24.0907C4.26522 24.0907 4.51957 24.1961 4.70711 24.3836C4.89464 24.5712 5 24.8255 5 25.0907Z" fill="currentColor"/>
</svg>
