<svg viewBox="0 0 12 12" fill="none" xmlns="http://www.w3.org/2000/svg">
    <path d="M10.091 3.75H1.9092C1.83687 3.75 1.7675 3.77634 1.71635 3.82322C1.66521 3.87011 1.63647 3.9337 1.63647 4V11C1.63647 11.2652 1.75141 11.5196 1.95599 11.7071C2.16058 11.8946 2.43806 12 2.72738 12H9.27284C9.56217 12 9.83964 11.8946 10.0442 11.7071C10.2488 11.5196 10.3637 11.2652 10.3637 11V4C10.3637 3.9337 10.335 3.87011 10.2839 3.82322C10.2327 3.77634 10.1634 3.75 10.091 3.75ZM5.04557 10.25C5.04557 10.3495 5.00246 10.4448 4.92575 10.5152C4.84903 10.5855 4.74497 10.625 4.63647 10.625C4.52798 10.625 4.42392 10.5855 4.3472 10.5152C4.27048 10.4448 4.22738 10.3495 4.22738 10.25V5.75C4.22738 5.65054 4.27048 5.55516 4.3472 5.48484C4.42392 5.41451 4.52798 5.375 4.63647 5.375C4.74497 5.375 4.84903 5.41451 4.92575 5.48484C5.00246 5.55516 5.04557 5.65054 5.04557 5.75V10.25ZM7.77284 10.25C7.77284 10.3495 7.72974 10.4448 7.65302 10.5152C7.5763 10.5855 7.47225 10.625 7.36375 10.625C7.25525 10.625 7.1512 10.5855 7.07448 10.5152C6.99776 10.4448 6.95466 10.3495 6.95466 10.25V5.75C6.95466 5.65054 6.99776 5.55516 7.07448 5.48484C7.1512 5.41451 7.25525 5.375 7.36375 5.375C7.47225 5.375 7.5763 5.41451 7.65302 5.48484C7.72974 5.55516 7.77284 5.65054 7.77284 5.75V10.25Z" fill="currentColor"/>
    <path d="M11.4545 2H8.86364C8.82747 2 8.79279 1.98683 8.76721 1.96339C8.74164 1.93995 8.72727 1.90815 8.72727 1.875V1.25C8.72727 0.918479 8.5836 0.600537 8.32787 0.366117C8.07214 0.131696 7.7253 0 7.36364 0L4.63636 0C4.2747 0 3.92786 0.131696 3.67213 0.366117C3.4164 0.600537 3.27273 0.918479 3.27273 1.25V1.875C3.27273 1.90815 3.25836 1.93995 3.23279 1.96339C3.20721 1.98683 3.17253 2 3.13636 2H0.545455C0.400791 2 0.262052 2.05268 0.15976 2.14645C0.0574673 2.24021 0 2.36739 0 2.5C0 2.63261 0.0574673 2.75979 0.15976 2.85355C0.262052 2.94732 0.400791 3 0.545455 3H11.4545C11.5992 3 11.7379 2.94732 11.8402 2.85355C11.9425 2.75979 12 2.63261 12 2.5C12 2.36739 11.9425 2.24021 11.8402 2.14645C11.7379 2.05268 11.5992 2 11.4545 2ZM4.36364 1.875V1.25C4.36364 1.1837 4.39237 1.12011 4.44352 1.07322C4.49466 1.02634 4.56403 1 4.63636 1H7.36364C7.43597 1 7.50534 1.02634 7.55648 1.07322C7.60763 1.12011 7.63636 1.1837 7.63636 1.25V1.875C7.63636 1.90815 7.622 1.93995 7.59642 1.96339C7.57085 1.98683 7.53617 2 7.5 2H4.5C4.46383 2 4.42915 1.98683 4.40358 1.96339C4.378 1.93995 4.36364 1.90815 4.36364 1.875Z" fill="currentColor"/>
</svg>
