<svg viewBox="0 0 16 16" fill="currentColor" xmlns="http://www.w3.org/2000/svg">
    <path d="M12.0909 5.75H3.90908C3.83675 5.75 3.76738 5.77634 3.71623 5.82322C3.66509 5.87011 3.63635 5.9337 3.63635 6V13C3.63635 13.2652 3.75129 13.5196 3.95587 13.7071C4.16046 13.8946 4.43793 14 4.72726 14H11.2727C11.562 14 11.8395 13.8946 12.0441 13.7071C12.2487 13.5196 12.3636 13.2652 12.3636 13V6C12.3636 5.9337 12.3349 5.87011 12.2837 5.82322C12.2326 5.77634 12.1632 5.75 12.0909 5.75ZM7.04544 12.25C7.04544 12.3495 7.00234 12.4448 6.92562 12.5152C6.8489 12.5855 6.74485 12.625 6.63635 12.625C6.52785 12.625 6.4238 12.5855 6.34708 12.5152C6.27036 12.4448 6.22726 12.3495 6.22726 12.25V7.75C6.22726 7.65054 6.27036 7.55516 6.34708 7.48484C6.4238 7.41451 6.52785 7.375 6.63635 7.375C6.74485 7.375 6.8489 7.41451 6.92562 7.48484C7.00234 7.55516 7.04544 7.65054 7.04544 7.75V12.25ZM9.77272 12.25C9.77272 12.3495 9.72962 12.4448 9.6529 12.5152C9.57618 12.5855 9.47212 12.625 9.36363 12.625C9.25513 12.625 9.15107 12.5855 9.07435 12.5152C8.99764 12.4448 8.95453 12.3495 8.95453 12.25V7.75C8.95453 7.65054 8.99764 7.55516 9.07435 7.48484C9.15107 7.41451 9.25513 7.375 9.36363 7.375C9.47212 7.375 9.57618 7.41451 9.6529 7.48484C9.72962 7.55516 9.77272 7.65054 9.77272 7.75V12.25Z" />
    <path d="M13.4545 4H10.8636C10.8275 4 10.7928 3.98683 10.7672 3.96339C10.7416 3.93995 10.7273 3.90815 10.7273 3.875V3.25C10.7273 2.91848 10.5836 2.60054 10.3279 2.36612C10.0721 2.1317 9.7253 2 9.36364 2H6.63636C6.2747 2 5.92786 2.1317 5.67213 2.36612C5.4164 2.60054 5.27273 2.91848 5.27273 3.25V3.875C5.27273 3.90815 5.25836 3.93995 5.23279 3.96339C5.20721 3.98683 5.17253 4 5.13636 4H2.54545C2.40079 4 2.26205 4.05268 2.15976 4.14645C2.05747 4.24021 2 4.36739 2 4.5C2 4.63261 2.05747 4.75979 2.15976 4.85355C2.26205 4.94732 2.40079 5 2.54545 5H13.4545C13.5992 5 13.7379 4.94732 13.8402 4.85355C13.9425 4.75979 14 4.63261 14 4.5C14 4.36739 13.9425 4.24021 13.8402 4.14645C13.7379 4.05268 13.5992 4 13.4545 4ZM6.36364 3.875V3.25C6.36364 3.1837 6.39237 3.12011 6.44352 3.07322C6.49466 3.02634 6.56403 3 6.63636 3H9.36364C9.43597 3 9.50534 3.02634 9.55648 3.07322C9.60763 3.12011 9.63636 3.1837 9.63636 3.25V3.875C9.63636 3.90815 9.622 3.93995 9.59642 3.96339C9.57085 3.98683 9.53617 4 9.5 4H6.5C6.46383 4 6.42915 3.98683 6.40358 3.96339C6.378 3.93995 6.36364 3.90815 6.36364 3.875Z" />
</svg>
