<svg viewBox="0 0 32 27" fill="none" xmlns="http://www.w3.org/2000/svg">
    <path fill-rule="evenodd" clip-rule="evenodd" d="M32 3.1567C30.8243 3.69219 29.5583 4.05419 28.2303 4.21593C29.5863 3.38395 30.627 2.06447 31.1173 0.492992C29.8475 1.26348 28.4446 1.82397 26.9456 2.12447C25.7511 0.816738 24.0436 0 22.1542 0C18.531 0 15.5915 3.0142 15.5915 6.73165C15.5915 7.25939 15.6478 7.77163 15.7605 8.26487C10.3046 7.98338 5.46816 5.30617 2.22797 1.22873C1.66272 2.22647 1.33948 3.38395 1.33948 4.61668C1.33948 6.95114 2.49846 9.01186 4.26018 10.2196C3.18595 10.1868 2.17147 9.8806 1.28498 9.37985V9.4626C1.28498 12.7253 3.54819 15.4468 6.5534 16.0632C6.00316 16.2212 5.42267 16.3002 4.82342 16.3002C4.40093 16.3002 3.98769 16.2597 3.58744 16.1807C4.42318 18.8542 6.84614 20.8014 9.71985 20.8534C7.47338 22.6601 4.64118 23.7366 1.56648 23.7366C1.03673 23.7366 0.512742 23.7059 0 23.6441C2.9057 25.5509 6.3579 26.6661 10.0636 26.6661C22.1407 26.6661 28.7426 16.4097 28.7426 7.51338C28.7426 7.22064 28.7368 6.92789 28.7256 6.6409C30.009 5.69141 31.1228 4.50693 32 3.1567Z" fill="currentColor"/>
</svg>
