<svg viewBox="0 0 16 16" fill="currentColor" xmlns="http://www.w3.org/2000/svg">
    <path d="M5.13336 4.93333C5.13336 5.7113 5.44241 6.45741 5.99252 7.00751C6.54262 7.55762 7.28873 7.86667 8.06669 7.86667C8.84466 7.86667 9.59077 7.55762 10.1409 7.00751C10.691 6.45741 11 5.7113 11 4.93333C11 4.15536 10.691 3.40926 10.1409 2.85915C9.59077 2.30905 8.84466 2 8.06669 2C7.28873 2 6.54262 2.30905 5.99252 2.85915C5.44241 3.40926 5.13336 4.15536 5.13336 4.93333Z" />
    <path d="M8.06667 8.66669C6.72338 8.66824 5.43556 9.20255 4.48571 10.1524C3.53586 11.1022 3.00155 12.3901 3 13.7334C3 13.8041 3.0281 13.8719 3.0781 13.9219C3.12811 13.9719 3.19594 14 3.26667 14H12.8667C12.9374 14 13.0052 13.9719 13.0552 13.9219C13.1052 13.8719 13.1333 13.8041 13.1333 13.7334C13.1318 12.3901 12.5975 11.1022 11.6476 10.1524C10.6978 9.20255 9.40995 8.66824 8.06667 8.66669Z" />
</svg>
