<svg viewBox="0 0 11 12" fill="none" xmlns="http://www.w3.org/2000/svg">
    <path d="M2.1333 2.93333C2.1333 3.7113 2.44235 4.45741 2.99245 5.00751C3.54256 5.55762 4.28867 5.86667 5.06663 5.86667C5.8446 5.86667 6.59071 5.55762 7.14081 5.00751C7.69092 4.45741 7.99997 3.7113 7.99997 2.93333C7.99997 2.15536 7.69092 1.40926 7.14081 0.859153C6.59071 0.309047 5.8446 0 5.06663 0C4.28867 0 3.54256 0.309047 2.99245 0.859153C2.44235 1.40926 2.1333 2.15536 2.1333 2.93333Z" fill="currentColor"/>
    <path d="M5.06667 6.66663C3.72338 6.66818 2.43556 7.20249 1.48571 8.15233C0.535859 9.10218 0.00155269 10.39 0 11.7333C0 11.804 0.0280952 11.8718 0.0781049 11.9219C0.128115 11.9719 0.195942 12 0.266667 12H9.86667C9.93739 12 10.0052 11.9719 10.0552 11.9219C10.1052 11.8718 10.1333 11.804 10.1333 11.7333C10.1318 10.39 9.59747 9.10218 8.64762 8.15233C7.69778 7.20249 6.40995 6.66818 5.06667 6.66663Z" fill="currentColor"/>
</svg>
