<?xml version="1.0" encoding="utf-8"?>
<!-- Generator: Adobe Illustrator 21.0.0, SVG Export Plug-In . SVG Version: 6.00 Build 0)  -->
<svg version="1.1" id="Calque_1" xmlns="http://www.w3.org/2000/svg" xmlns:xlink="http://www.w3.org/1999/xlink" x="0px" y="0px"
	 viewBox="0 0 89.7 90.1" style="enable-background:new 0 0 89.7 90.1;" xml:space="preserve">
<g>
	<path d="M85.5,0H56.9c-2.3,0-4.2,1.9-4.2,4.2s1.9,4.2,4.2,4.2h19.1L35.1,49.2c-1.6,1.6-1.6,4.3,0,5.9c0.8,0.8,1.9,1.2,2.9,1.2
		s2.1-0.4,2.9-1.2l40.4-40.4v18.2c0,2.3,1.9,4.2,4.2,4.2s4.2-1.9,4.2-4.2V4.2C89.7,1.9,87.8,0,85.5,0z"/>
	<path d="M71.1,41.9c-2.3,0-4.2,1.9-4.2,4.2V79c0,1.5-1.3,2.8-2.8,2.8H11.1c-1.5,0-2.8-1.3-2.8-2.8V25.9c0-1.5,1.3-2.8,2.8-2.8h33
		c2.3,0,4.2-1.9,4.2-4.2s-1.9-4.2-4.2-4.2h-33C5,14.8,0,19.7,0,25.9V79c0,6.1,5,11.1,11.1,11.1h53.1c6.1,0,11.1-5,11.1-11.1V46.1
		C75.3,43.8,73.4,41.9,71.1,41.9z"/>
</g>
</svg>
