<svg width="640" height="480" xmlns="http://www.w3.org/2000/svg" xmlns:svg="http://www.w3.org/2000/svg" xmlns:xlink="http://www.w3.org/1999/xlink">
 <defs>
  <symbol viewBox="0 0 467.276 467.276" id="svg_2" xmlns:xlink="http://www.w3.org/1999/xlink" xmlns="http://www.w3.org/2000/svg">
   <g id="svg_1">
    <g id="svg_5">
     <path d="m379.284,51.144c-31.026,-26.847 -69.716,-37.684 -109.705,-42.472c-106.51,-33.972 -201.517,36.287 -243.001,133.708c-44.712,105.002 -23.435,222.217 73.516,287.698c98.98,66.846 235.022,39.369 310.942,-48.627c82.985,-96.177 62.505,-248.732 -31.752,-330.307zm-182.431,381.559c-56.157,-7.993 -110.636,-42.543 -139.091,-91.805c-25.438,-44.047 -25.225,-99.203 -13.82,-147.312c17.527,-73.96 70.566,-140.71 139.886,-156.686c0.104,0.005 0.193,0.035 0.297,0.035c24.943,0.739 51.291,0.782 77.045,3.567c2.438,0.764 4.875,1.523 7.333,2.42c4.058,1.48 7.611,1.29 10.582,0.071c27.787,4.677 54.319,13.579 76.957,31.392c50.079,39.405 76.479,110.461 75.032,172.696c-2.721,117.308 -123.1,201.435 -234.221,185.622z" id="svg_9"/>
     <path d="m169.279,211.913c23.28,0 23.28,-36.104 0,-36.104c-23.28,-0.001 -23.28,36.104 0,36.104z" id="svg_10"/>
     <path d="m293.832,213.715c23.287,0 23.287,-36.102 0,-36.102c-23.277,0 -23.277,36.102 0,36.102z" id="svg_11"/>
     <path d="m134.855,300.254c-17.034,15.935 8.549,41.411 25.532,25.527c43.302,-40.497 99.102,-44.783 142.351,-1.803c16.524,16.422 42.062,-9.1 25.527,-25.532c-57.345,-56.979 -135.789,-52.074 -193.41,1.808z" id="svg_12"/>
    </g>
   </g>
   <g id="svg_13"/>
   <g id="svg_14"/>
   <g id="svg_15"/>
   <g id="svg_16"/>
   <g id="svg_17"/>
   <g id="svg_18"/>
   <g id="svg_19"/>
   <g id="svg_20"/>
   <g id="svg_21"/>
   <g id="svg_22"/>
   <g id="svg_23"/>
   <g id="svg_24"/>
   <g id="svg_25"/>
   <g id="svg_26"/>
   <g id="svg_27"/>
  </symbol>
 </defs>
 <g class="layer">
  <title>Layer 1</title>
  <use x="396.56471" y="99.08339" transform="matrix(1.344469231977133,0,0,0.6383193588832546,-643.9365865232584,-38.38256494223015) " xlink:href="#svg_2" id="svg_3"/>
  <g id="svg_4"/>
  <text stroke="#000000" transform="matrix(3.8588794857592177,0,0,1,-884.1115251683083,0) " xml:space="preserve" text-anchor="middle" font-family="Sans-serif" font-size="57" id="svg_32" y="388" x="311" stroke-width="0" fill="#000000">C  KC</text>
  <text fill="#000000" stroke-width="0" x="315.99999" y="438" id="svg_6" font-size="32" font-family="Sans-serif" text-anchor="middle" xml:space="preserve" transform="matrix(2.4372875554586386,0,0,1,-449.1828772698997,0) " stroke="#000000">il é ou le fallback?</text>
  <path stroke="#000000" id="svg_8" d="m404.2483,171.99935c-1.78654,0.02939 -19.80723,10.16788 -16.54487,13.40045c3.26237,3.23256 7.37917,3.64398 15.37973,3.61459c8.00057,-0.02939 17.63232,-0.73467 17.01092,-3.52643c-0.6214,-2.79176 -14.05925,-13.51799 -15.84579,-13.48861z" stroke-linecap="null" stroke-linejoin="null" stroke-dasharray="null" stroke-width="5" fill="#000000"/>
 </g>
</svg>