<svg xmlns="http://www.w3.org/2000/svg" xmlns:xlink="http://www.w3.org/1999/xlink" viewBox="0 0 55 55"><defs><ellipse id="c" cx="1.644" cy="1.65" rx="1.644" ry="1.65"/><ellipse id="d" cx="1.644" cy="1.65" rx="1.644" ry="1.65"/><ellipse id="e" cx="1.644" cy="1.65" rx="1.644" ry="1.65"/><ellipse id="f" cx="1.644" cy="1.65" rx="1.644" ry="1.65"/><ellipse id="g" cx="1.644" cy="1.65" rx="1.644" ry="1.65"/><ellipse id="h" cx="1.644" cy="1.65" rx="1.644" ry="1.65"/><rect id="a" x="0" y="0" width="55" height="55" rx="3"/></defs><g fill="none" fill-rule="evenodd"><mask id="b" fill="#fff"><use xlink:href="#a"/></mask><use fill="#FFF" xlink:href="#a"/><g mask="url(#b)"><g transform="translate(38.5 28.6)"><rect stroke="#DDD" stroke-width=".3" fill="#F6F6F6" x=".15" y=".15" width="11.8" height="21.7" rx=".2"/><use fill="#DDD" xlink:href="#c" transform="translate(1.1 7.7)"/><rect fill-opacity=".3" fill="#3B88FD" x="1.1" y="18.7" width="9.9" height="2.2" rx=".3"/><path d="M0 5.5h12.1V.2a.2.2 0 00-.2-.2H.22A.22.22 0 000 .22V5.5z" fill="#DDD"/></g><g transform="translate(38.5 4.4)"><rect stroke="#DDD" stroke-width=".3" fill="#F6F6F6" x=".15" y=".15" width="11.8" height="21.7" rx=".2"/><use fill="#DDD" xlink:href="#d" transform="translate(1.1 7.7)"/><rect fill-opacity=".3" fill="#3B88FD" x="1.1" y="18.7" width="9.9" height="2.2" rx=".3"/></g><g transform="translate(22 28.6)"><rect stroke="#DDD" stroke-width=".3" fill="#F6F6F6" x=".15" y=".15" width="11.8" height="21.7" rx=".2"/><use fill="#DDD" xlink:href="#e" transform="translate(1.1 7.7)"/><rect fill-opacity=".3" fill="#3B88FD" x="1.1" y="18.7" width="9.9" height="2.2" rx=".3"/><path d="M0 5.5h12.1V.2a.2.2 0 00-.2-.2H.22A.22.22 0 000 .22V5.5z" fill="#DDD"/></g><g transform="translate(22 4.4)"><rect stroke="#DDD" stroke-width=".3" fill="#F6F6F6" x=".15" y=".15" width="11.8" height="21.7" rx=".2"/><use fill="#DDD" xlink:href="#f" transform="translate(1.1 7.7)"/><rect fill-opacity=".3" fill="#3B88FD" x="1.1" y="18.7" width="9.9" height="2.2" rx=".3"/></g><g transform="translate(5.5 28.6)"><rect stroke="#DDD" stroke-width=".3" fill="#F6F6F6" x=".15" y=".15" width="11.8" height="21.7" rx=".2"/><use fill="#DDD" xlink:href="#g" transform="translate(1.1 7.7)"/><rect fill-opacity=".3" fill="#3B88FD" x="1.1" y="18.7" width="9.9" height="2.2" rx=".3"/><path d="M0 5.5h12.1V.2a.2.2 0 00-.2-.2H.22A.22.22 0 000 .22V5.5z" fill="#DDD"/></g><g transform="translate(5.5 4.4)"><rect stroke="#DDD" stroke-width=".3" fill="#F6F6F6" x=".15" y=".15" width="11.8" height="21.7" rx=".2"/><use fill="#DDD" xlink:href="#h" transform="translate(1.1 7.7)"/><rect fill-opacity=".3" fill="#3B88FD" x="1.1" y="18.7" width="9.9" height="2.2" rx=".3"/></g></g><path d="M38.5 9.9h12.1V4.6a.2.2 0 00-.2-.2H38.72a.22.22 0 00-.22.22V9.9zM22 9.9h12.1V4.6a.2.2 0 00-.2-.2H22.22a.22.22 0 00-.22.22V9.9zM5.5 9.9h12.1V4.6a.2.2 0 00-.2-.2H5.72a.22.22 0 00-.22.22V9.9z" fill="#DDD"/></g></svg>
