<?xml version="1.0" encoding="UTF-8"?>
<svg width="500px" height="160px" viewBox="0 0 500 160" version="1.1" xmlns="http://www.w3.org/2000/svg" xmlns:xlink="http://www.w3.org/1999/xlink">
    <!-- Generator: Sketch 57.1 (83088) - https://sketch.com -->
    <title>visuel-grand</title>
    <desc>Created with Sketch.</desc>
    <defs>
        <rect id="path-1" x="0" y="0" width="500" height="159.615385"></rect>
    </defs>
    <g id="Page-dépôt-boites-à-idées" stroke="none" stroke-width="1" fill="none" fill-rule="evenodd">
        <g id="visuel-grand">
            <g id="Group-19">
                <mask id="mask-2" fill="white">
                    <use xlink:href="#path-1"></use>
                </mask>
                <use id="Rectangle" fill="#D3D3D3" xlink:href="#path-1"></use>
                <g id="visuel-par-defaut" mask="url(#mask-2)">
                    <g transform="translate(-44.230769, -57.692308)" id="Path-2">
                        <path d="M29.6553193,2.72222733 C89.2702671,-5.41091086 148.619091,6.70411832 207.701792,39.0673149 C234.012719,53.4794136 383.02393,37.6839805 420.753509,48.9871775 C510.109837,75.7569487 491.109298,122.255545 550.713574,122.255545 L333.93191,125.272082 L29.6553193,125.272082 L29.6553193,2.72222733 Z" fill="#DBE1E7" transform="translate(290.184447, 62.772082) scale(-1, 1) translate(-290.184447, -62.772082) "></path>
                        <path d="M7.43495654,55.3750481 C57.5311591,31.3222402 110.67844,33.7879182 166.876798,62.772082 C209.612488,84.8129078 354.005624,102.348635 401.213889,114.858716 C447.125463,127.025177 479.358353,163.73362 521.153846,163.73362 L245.487753,163.73362 L4.54747351e-13,163.73362 L7.43495654,55.3750481 Z" fill="#C9CFD5"></path>
                        <path d="M29.6553193,92.8173424 C68.4132013,85.1705645 117.333492,97.8209246 176.416193,130.768423 C202.72712,145.440725 347.416232,142.610965 385.14581,154.118236 C474.502138,181.371322 491.109298,214.508775 550.713574,214.508775 L333.93191,217.579774 L29.6553193,217.579774 L29.6553193,92.8173424 Z" fill="#B8BEC4" transform="translate(290.184447, 154.118236) scale(-1, 1) translate(-290.184447, -154.118236) "></path>
                        <path d="M7.43495654,123.245767 C56.3088864,116.094513 108.845031,126.935668 165.043389,155.769231 C207.779079,177.695533 363.779672,180.88676 410.987938,193.33184 C456.899511,205.435084 520.784906,231.041313 562.580399,231.041313 L245.487753,231.041313 L0,231.041313 L7.43495654,123.245767 Z" fill="#A9AFB4"></path>
                    </g>
                </g>
            </g>
            <g id="common-file-text-edit" opacity="0.802222842" transform="translate(208.692308, 37.538462)" stroke="#FFFFFF" stroke-linecap="round" stroke-linejoin="round" stroke-width="4.21597633">
                <path d="M15.4473684,30.0672515 L50.1695906,30.0672515" id="Path"></path>
                <path d="M15.4473684,41.0321637 L50.1695906,41.0321637" id="Path"></path>
                <path d="M15.4473684,19.1023392 L41.0321637,19.1023392" id="Path"></path>
                <path d="M15.4473684,51.997076 L42.8596491,51.997076" id="Path"></path>
                <path d="M15.4473684,62.9619883 L30.0672515,62.9619883" id="Path"></path>
                <path d="M30.0672515,84.8918129 L4.48245614,84.8918129 L4.48245598,84.8918129 C2.46387045,84.8918129 0.82748522,83.2554276 0.82748522,81.2368421 C0.82748522,81.2368421 0.82748522,81.2368421 0.82748522,81.2368421 L0.82748522,4.48245614 L0.82748522,4.48245669 C0.82748522,2.46387117 2.46387045,0.827485932 4.48245598,0.827485932 L53.0679823,0.827485932 L53.0679823,0.827485932 C54.0372623,0.827485932 54.9667652,1.21290625 55.6520467,1.89839236 L69.2010233,15.447369 L69.2010232,15.4473689 C69.8865093,16.1326503 70.2719296,17.0621533 70.2719296,18.0314332 L70.2719296,30.0672519" id="Path"></path>
                <path d="M56.3830409,80.505848 L41.0321637,84.8918129 L45.4181287,69.5409357 L71.6571637,43.3019006 L71.6571637,43.3019006 C74.6850402,40.2740242 79.5941886,40.2740242 82.622076,43.3019006 C85.6499525,46.329777 85.6499525,51.2389254 82.6220761,54.2668128 L56.3830409,80.505848 Z" id="Path"></path>
                <path d="M68.371345,46.5877193 L79.3362573,57.5526316" id="Path"></path>
                <path d="M45.4181287,69.5409357 L56.3830409,80.505848" id="Path"></path>
            </g>
        </g>
    </g>
</svg>