<?xml version="1.0" encoding="UTF-8"?>
<svg width="260px" height="83px" viewBox="0 0 260 83" version="1.1" xmlns="http://www.w3.org/2000/svg" xmlns:xlink="http://www.w3.org/1999/xlink">
    <!-- Generator: Sketch 57.1 (83088) - https://sketch.com -->
    <title>Group 20</title>
    <desc>Created with Sketch.</desc>
    <defs>
        <rect id="path-1" x="0" y="0" width="260" height="83"></rect>
    </defs>
    <g id="Page-dépôt-boites-à-idées" stroke="none" stroke-width="1" fill="none" fill-rule="evenodd">
        <g id="Group-20">
            <g id="Group-19">
                <mask id="mask-2" fill="white">
                    <use xlink:href="#path-1"></use>
                </mask>
                <use id="Rectangle" fill="#D3D3D3" xlink:href="#path-1"></use>
                <g id="visuel-par-defaut" mask="url(#mask-2)">
                    <g transform="translate(-23.000000, -30.000000)" id="Path-2">
                        <path d="M15.420766,1.41555821 C46.4205389,-2.81367365 77.2819274,3.48614153 108.004932,20.3150037 C121.686614,27.8092951 199.172444,19.5956699 218.791824,25.4733323 C265.257115,39.3936133 255.376835,63.5728834 286.371058,63.5728834 L173.644593,65.1414826 L15.420766,65.1414826 L15.420766,1.41555821 Z" fill="#DBE1E7" transform="translate(150.895912, 32.641483) scale(-1, 1) translate(-150.895912, -32.641483) "></path>
                        <path d="M3.8661774,28.795025 C29.9162027,16.2875649 57.5527886,17.5697174 86.775935,32.6414826 C108.998494,44.1027121 184.082924,53.2212901 208.631222,59.7265324 C232.505241,66.0530922 249.266344,85.1414826 271,85.1414826 L127.653632,85.1414826 L4.54747351e-13,85.1414826 L3.8661774,28.795025 Z" fill="#C9CFD5"></path>
                        <path d="M15.420766,48.265018 C35.5748647,44.2886935 61.0134161,50.8668808 91.7364203,67.9995798 C105.418102,75.6291769 180.65644,74.1577019 200.275821,80.1414826 C246.741112,94.3130875 255.376835,111.544563 286.371058,111.544563 L173.644593,113.141483 L15.420766,113.141483 L15.420766,48.265018 Z" fill="#B8BEC4" transform="translate(150.895912, 80.141483) scale(-1, 1) translate(-150.895912, -80.141483) "></path>
                        <path d="M3.8661774,64.0877991 C29.2806209,60.3691468 56.5994159,66.0065471 85.8225623,81 C108.045121,92.4016773 189.165429,94.0611152 213.713728,100.532557 C237.587746,106.826244 270.808151,120.141483 292.541808,120.141483 L127.653632,120.141483 L0,120.141483 L3.8661774,64.0877991 Z" fill="#A9AFB4"></path>
                    </g>
                </g>
            </g>
            <g id="common-file-text-edit" opacity="0.802222842" transform="translate(108.000000, 19.000000)" stroke="#FFFFFF" stroke-linecap="round" stroke-linejoin="round" stroke-width="2.19230769">
                <path d="M8.55263158,16.1549708 L26.6081871,16.1549708" id="Path"></path>
                <path d="M8.55263158,21.8567251 L26.6081871,21.8567251" id="Path"></path>
                <path d="M8.55263158,10.4532164 L21.8567251,10.4532164" id="Path"></path>
                <path d="M8.55263158,27.5584795 L22.8070175,27.5584795" id="Path"></path>
                <path d="M8.55263158,33.2602339 L16.1549708,33.2602339" id="Path"></path>
                <path d="M16.1549708,44.6637427 L2.85087719,44.6637427 L2.85087711,44.6637427 C1.80121264,44.6637427 0.950292315,43.8128224 0.950292315,42.7631579 C0.950292315,42.7631579 0.950292315,42.7631579 0.950292315,42.7631579 L0.950292315,2.85087719 L0.950292315,2.85087748 C0.950292315,1.80121301 1.80121264,0.950292685 2.85087711,0.950292685 L28.1153508,0.950292685 L28.1153508,0.950292685 C28.6193764,0.950292685 29.1027179,1.15071125 29.4590643,1.50716403 L36.5045321,8.55263187 L36.5045321,8.55263183 C36.8609848,8.90897817 37.0614034,9.39231969 37.0614034,9.89634528 L37.0614034,16.154971" id="Path"></path>
                <path d="M29.8391813,42.3830409 L21.8567251,44.6637427 L24.1374269,36.6812865 L37.7817251,23.0369883 L37.7817251,23.0369883 C39.3562209,21.4624926 41.9089781,21.4624926 43.4834795,23.0369883 C45.0579753,24.611484 45.0579753,27.1642412 43.4834795,28.7387427 L29.8391813,42.3830409 Z" id="Path"></path>
                <path d="M36.0730994,24.745614 L41.7748538,30.4473684" id="Path"></path>
                <path d="M24.1374269,36.6812865 L29.8391813,42.3830409" id="Path"></path>
            </g>
        </g>
    </g>
</svg>