<svg width="120" height="21" viewBox="0 0 120 21" fill="none" xmlns="http://www.w3.org/2000/svg">
<path d="M72.59 7.14011C73.89 7.14011 75.14 7.36011 76.31 7.79011L76.72 7.94011V5.28011L76.51 5.21011C75.28 4.81011 73.96 4.61011 72.59 4.61011C68.9 4.61011 67.03 5.95011 67.03 8.59011C67.03 10.9801 68.41 12.2401 71.03 12.2401H72.91C74.14 12.2401 74.3 12.7901 74.3 13.2701C74.3 13.9301 74.05 14.8001 71.84 14.8001C70.37 14.8001 69.03 14.5801 67.86 14.1501L67.45 14.0001V16.6701L67.66 16.7401C68.89 17.1401 70.3 17.3401 71.84 17.3401C75.36 17.3401 77.14 15.9701 77.14 13.2701C77.14 11.6101 76.41 9.62011 72.91 9.62011H71.03C70.22 9.62011 69.88 9.31011 69.88 8.59011C69.87 8.23011 69.87 7.14011 72.59 7.14011Z" fill="#1A88FF"/>
<path d="M101.09 13.3801C101.14 13.0001 101.17 12.6301 101.17 12.2501C101.17 9.38012 99.6699 7.87012 96.8399 7.87012C93.8899 7.87012 92.3899 9.42012 92.3899 12.4601C92.3899 15.6401 94.1099 17.2501 97.4999 17.2501C98.6299 17.2501 99.6099 17.1601 100.41 16.9901L100.65 16.9401V14.5701L100.29 14.6401C99.4199 14.8001 98.5399 14.8901 97.6699 14.8901C95.8099 14.8901 95.3499 14.2501 95.2599 13.6501H101.06L101.09 13.3801ZM95.2799 11.5001C95.4399 10.6301 95.9399 10.2201 96.8499 10.2201C97.8099 10.2201 98.2899 10.6001 98.3799 11.5001H95.2799Z" fill="#1A88FF"/>
<path d="M60.3699 10.5099L60.0699 10.5599L60.4899 13.1299L60.7899 13.0799C64.2999 12.5399 66.0899 10.9499 66.0899 8.35994C66.0899 5.95994 64.7099 4.68994 62.0999 4.68994H56.4099V17.2499H59.2499V7.24994H61.9499C62.7699 7.24994 63.1399 7.60994 63.1399 8.42994C63.1399 9.49994 62.2399 10.1799 60.3699 10.5099Z" fill="#1A88FF"/>
<path d="M55.12 4.68994H52.28V17.2499H55.12V4.68994Z" fill="#1A88FF"/>
<path d="M47.57 17.2599V7.22994H51.02V4.68994H41.28V7.22994H44.73V17.2599H47.57Z" fill="#1A88FF"/>
<path d="M91.81 17.2601V11.5101C91.81 9.13012 90.65 7.87012 88.46 7.87012C87.5 7.87012 86.58 8.22012 85.71 8.91012C85.22 8.22012 84.43 7.87012 83.35 7.87012C82.35 7.87012 81.45 8.20012 80.69 8.84012L80.49 7.87012H78.21V17.2601H81.05V10.9801C81.54 10.5001 82.05 10.2701 82.58 10.2701C83.03 10.2701 83.5 10.4101 83.5 11.4501V17.2601H86.34V10.9801C86.86 10.5101 87.4 10.2701 87.94 10.2701C88.66 10.2701 88.96 10.6201 88.96 11.4301V17.2601H91.81Z" fill="#1A88FF"/>
<path d="M21.36 9.98C23.35 9.43 25.37 9.67 27.11 10.69C29.33 11.99 30.7 14.39 30.87 17.18L0 0L0.2 1.06C0.33 1.73 0.46 2.38 0.59 3.03C1.7 8.71 2.75 14.07 1.63 19.92L1.42 21L15.68 12.89L12.83 11.31C10.81 11.81 8.7 11.53 6.89 10.47C4.56 9.09 3.11 6.66 2.94 3.9L33.53 20.99L33.33 19.92C32.21 14.08 33.26 8.74 34.37 3.08C34.5 2.41 34.63 1.74 34.77 1.04L34.97 0.02L18.61 8.45L21.36 9.98Z" fill="#1A88FF"/>
<path d="M110.51 13.3801C110.56 13.0001 110.59 12.6301 110.59 12.2501C110.59 9.38012 109.09 7.87012 106.26 7.87012C103.31 7.87012 101.81 9.42012 101.81 12.4601C101.81 15.6401 103.53 17.2501 106.92 17.2501C108.05 17.2501 109.03 17.1601 109.83 16.9901L110.07 16.9401V14.5701L109.71 14.6401C108.84 14.8001 107.96 14.8901 107.09 14.8901C105.23 14.8901 104.77 14.2501 104.68 13.6501H110.48L110.51 13.3801ZM104.69 11.5001C104.85 10.6301 105.35 10.2201 106.26 10.2201C107.22 10.2201 107.7 10.6001 107.79 11.5001H104.69Z" fill="#1A88FF"/>
<path d="M119.92 13.3801C119.97 13.0001 120 12.6301 120 12.2501C120 9.38012 118.5 7.87012 115.67 7.87012C112.72 7.87012 111.22 9.42012 111.22 12.4601C111.22 15.6401 112.94 17.2501 116.33 17.2501C117.46 17.2501 118.44 17.1601 119.24 16.9901L119.48 16.9401V14.5701L119.12 14.6401C118.25 14.8001 117.37 14.8901 116.5 14.8901C114.64 14.8901 114.18 14.2501 114.09 13.6501H119.89L119.92 13.3801ZM114.11 11.5001C114.27 10.6301 114.77 10.2201 115.68 10.2201C116.64 10.2201 117.12 10.6001 117.21 11.5001H114.11Z" fill="#1A88FF"/>
</svg>
