<?xml version="1.0" encoding="UTF-8"?>
<svg width="21px" height="24px" viewBox="0 0 21 24" version="1.1" xmlns="http://www.w3.org/2000/svg" xmlns:xlink="http://www.w3.org/1999/xlink">
    <g id="Page-1" stroke="none" stroke-width="1" fill="none" fill-rule="evenodd">
        <polygon id="Path" fill="#FFFFFF" fill-rule="nonzero" points="0.328767123 6.24657534 0.328767123 17.7205479 10.2575342 23.4739726 20.2191781 17.7205479 20.2191781 6.24657534 10.2575342 0.493150685"></polygon>
        <path d="M10.2575342,0.098630137 L0,6.04931507 L0,17.9178082 L10.290411,23.8356164 L20.5808219,17.9178082 L20.5808219,6.04931507 L10.2575342,0.098630137 Z M20.2191781,17.7205479 L10.2575342,23.4739726 L0.328767123,17.7205479 L0.328767123,6.24657534 L10.2575342,0.493150685 L20.2191781,6.24657534 L20.2191781,17.7205479 Z" id="Shape" fill="#1B1464" fill-rule="nonzero"></path>
        <polygon id="Path" fill="#0069CC" fill-rule="nonzero" points="14.9917808 5.85205479 10.4876712 3.25479452 5.98356164 5.85205479 2.9260274 7.62739726 2.9260274 7.62739726 2.9260274 16.339726 2.9260274 16.339726 10.4876712 20.7123288 18.0493151 16.339726 18.0493151 16.339726 18.0493151 7.62739726 18.0493151 7.62739726"></polygon>
        <g id="Group" transform="translate(2.630137, 2.958904)" fill-rule="nonzero">
            <polygon id="Path" fill="#034EA2" points="12.9205479 9.00821918 10.1917808 4.30684932 7.85753425 0.295890411 7.85753425 5.78630137 7.85753425 17.7534247 15.4191781 13.3808219 15.4191781 13.3808219"></polygon>
            <polygon id="Path" fill="#0069CC" points="10.1917808 4.30684932 12.9205479 9.00821918 15.4191781 4.66849315 15.4191781 4.66849315 12.3616438 2.89315068"></polygon>
            <polygon id="Path" fill="#ED1C24" points="12.3616438 2.89315068 7.85753425 0.295890411 10.1917808 4.30684932"></polygon>
            <polygon id="Path" fill="#0069CC" points="10.1917808 4.30684932 7.85753425 0.295890411"></polygon>
            <rect id="Rectangle" fill="#0069CC" x="11.539726" y="3.94520548" width="1" height="5.45753425"></rect>
            <polygon id="Path" fill="#ED1C24" points="15.4191781 13.3808219 15.4191781 4.66849315 12.9205479 9.00821918"></polygon>
            <polygon id="Path" fill="#ED1C24" points="12.9205479 9.00821918 15.4191781 13.3808219"></polygon>
            <polygon id="Path" fill="#0069CC" points="2.82739726 9.00821918 5.55616438 4.30684932 7.85753425 0.295890411 7.85753425 5.78630137 7.85753425 17.7534247 0.295890411 13.3808219 0.295890411 13.3808219"></polygon>
            <polygon id="Path" fill="#ED1C24" points="5.55616438 4.30684932 2.82739726 9.00821918 0.295890411 4.66849315 0.295890411 4.66849315 3.35342466 2.89315068"></polygon>
            <polygon id="Path" fill="#034EA2" points="3.35342466 2.89315068 7.85753425 0.295890411 5.55616438 4.30684932"></polygon>
            <polygon id="Path" fill="#0069CC" points="5.55616438 4.30684932 7.85753425 0.295890411"></polygon>
            <rect id="Rectangle" fill="#0069CC" x="4.17534247" y="3.94520548" width="1" height="5.45753425"></rect>
            <polygon id="Path" fill="#034EA2" points="0.295890411 13.3808219 0.295890411 4.66849315 2.82739726 9.00821918"></polygon>
            <polygon id="Path" fill="#0069CC" points="2.82739726 9.00821918 0.295890411 13.3808219"></polygon>
        </g>
        <path d="M13.2821918,12.8219178 C13.4136986,12.8219178 13.5452055,12.7890411 13.6767123,12.8219178 C13.7753425,12.8547945 13.9068493,12.8547945 13.9068493,12.8876712 C13.8739726,13.0849315 13.5780822,13.1178082 13.4465753,13.3150685 C13.4136986,13.3150685 13.4136986,13.3150685 13.3808219,13.3150685 C13.3150685,13.3479452 13.3479452,13.4794521 13.2821918,13.4794521 C13.2164384,13.4465753 13.1506849,13.4794521 13.0520548,13.5123288 C13.1506849,13.6109589 13.2821918,13.6767123 13.4136986,13.6438356 C13.4465753,13.6438356 13.4794521,13.6767123 13.4794521,13.7424658 C13.4794521,13.7424658 13.5123288,13.7424658 13.5123288,13.709589 C13.5452055,13.709589 13.5452055,13.709589 13.5452055,13.7424658 C13.5452055,13.7753425 13.5452055,13.8082192 13.5452055,13.8410959 C13.4794521,13.939726 13.3479452,13.9068493 13.2493151,13.9068493 C13.4465753,13.939726 13.6438356,13.939726 13.8082192,13.9068493 C13.939726,13.8410959 13.8082192,13.6109589 13.9068493,13.5123288 C13.8739726,13.5123288 13.9068493,13.4465753 13.8410959,13.4465753 C13.8739726,13.4136986 13.939726,13.3150685 13.9726027,13.3150685 C14.0054795,13.3150685 14.1041096,13.2821918 14.1041096,13.2493151 C14.1041096,13.2164384 14.0054795,13.1835616 14.0383562,13.1178082 C14.169863,13.0191781 14.3013699,12.8876712 14.2356164,12.7232877 C14.2027397,12.6575342 14.0054795,12.6575342 13.9068493,12.6246575 C13.7753425,12.5917808 13.6438356,12.6246575 13.5123288,12.6575342 C13.3808219,12.6575342 13.2821918,12.7232877 13.1506849,12.7561644 C12.9863014,12.8219178 12.8547945,12.9205479 12.690411,13.0191781 C12.9205479,12.9205479 13.0849315,12.8876712 13.2821918,12.8219178 Z" id="Path" fill="#034EA2" fill-rule="nonzero"></path>
        <path d="M15.1232877,14.2684932 C15.0575342,14.1369863 14.9589041,14.0383562 14.860274,13.9068493 C14.7616438,13.7424658 14.630137,13.6109589 14.5972603,13.4136986 C14.5315068,13.2164384 14.5972603,13.0520548 14.5972603,12.8547945 C14.5972603,12.4931507 14.4986301,12.1315068 14.4,11.8027397 C14.3342466,11.6383562 14.3013699,11.4410959 14.2356164,11.2767123 C14.2027397,11.1780822 14.169863,11.0794521 14.1041096,10.9808219 C14.0712329,10.9479452 14.0712329,10.8493151 14.1041096,10.8164384 C14.2027397,10.7506849 14.3013699,10.6520548 14.3671233,10.5863014 C14.4328767,10.4547945 14.3671233,10.290411 14.2684932,10.2246575 C14.1041096,10.1589041 14.1369863,10.3890411 14.0054795,10.4547945 C13.9726027,10.4547945 13.9726027,10.4547945 13.939726,10.4547945 C13.9068493,10.3890411 13.9726027,10.3561644 14.0054795,10.3232877 C14.0054795,10.290411 14.0054795,10.2575342 13.9726027,10.2575342 C13.8739726,10.2575342 13.7753425,10.2246575 13.7424658,10.1917808 C13.4794521,9.8630137 13.1506849,9.69863014 12.7890411,9.56712329 C12.8876712,9.6 12.9863014,9.6 13.0849315,9.6 C13.2493151,9.63287671 13.4465753,9.6 13.5780822,9.53424658 C13.709589,9.46849315 13.709589,9.30410959 13.7424658,9.17260274 C13.7753425,9.13972603 13.7424658,9.10684932 13.7424658,9.04109589 C13.7424658,8.97534247 13.6767123,8.90958904 13.6438356,8.84383562 C13.6438356,8.84383562 13.6109589,8.8109589 13.5780822,8.74520548 C13.3150685,8.44931507 12.2958904,7.59452055 10.3890411,7.7260274 C9.56712329,7.79178082 8.54794521,8.02191781 7.36438356,8.61369863 C7.33150685,8.61369863 7.29863014,8.64657534 7.23287671,8.64657534 C7.03561644,8.74520548 6.77260274,8.90958904 6.60821918,9.10684932 C6.4109589,9.3369863 6.24657534,9.6 6.18082192,9.89589041 C5.88493151,10.0931507 5.68767123,10.3890411 5.52328767,10.6849315 C5.3260274,11.0794521 5.0630137,11.4082192 5.0630137,11.8356164 C5.0630137,11.8684932 5.0630137,11.9013699 5.0630137,11.9013699 C5.09589041,12.0328767 5.09589041,12.1315068 5.12876712,12.2630137 C5.19452055,12.5260274 5.26027397,12.7890411 5.29315068,13.0520548 C5.3260274,13.1835616 5.35890411,13.3150685 5.39178082,13.4465753 C5.45753425,13.5780822 5.39178082,13.7424658 5.49041096,13.8739726 C5.52328767,13.939726 5.52328767,14.0383562 5.62191781,14.0712329 C5.62191781,14.1041096 5.62191781,14.1369863 5.62191781,14.169863 C5.65479452,14.2027397 5.65479452,14.2027397 5.68767123,14.2027397 C5.68767123,14.2356164 5.68767123,14.2684932 5.68767123,14.3013699 C5.88493151,14.5315068 6.11506849,14.7287671 6.24657534,14.9917808 C6.31232877,15.1232877 6.01643836,15.0575342 5.88493151,15.0246575 C5.65479452,14.9260274 5.49041096,14.7287671 5.29315068,14.5643836 C5.29315068,14.5643836 5.26027397,14.5972603 5.26027397,14.5972603 C5.35890411,14.7616438 5.72054795,14.9589041 5.52328767,15.090411 C5.42465753,15.1561644 5.29315068,15.0246575 5.22739726,15.1232877 C5.19452055,15.1561644 5.22739726,15.2219178 5.22739726,15.2547945 C5.09589041,15.1561644 4.93150685,15.2219178 4.8,15.1561644 C4.70136986,15.1232877 4.66849315,14.9589041 4.56986301,14.9589041 C4.2739726,14.8931507 3.97808219,14.8273973 3.64931507,14.8273973 C3.61643836,14.8273973 3.58356164,14.8273973 3.58356164,14.8273973 C3.28767123,14.7945205 2.99178082,14.7616438 2.72876712,14.7945205 L2.72876712,15.1232877 C2.99178082,15.0575342 3.25479452,14.9917808 3.51780822,14.9917808 C3.55068493,14.9917808 3.58356164,14.9917808 3.58356164,14.9917808 C3.64931507,14.9917808 3.74794521,14.9589041 3.81369863,14.9917808 C3.71506849,14.9917808 3.58356164,14.9917808 3.48493151,15.0246575 C3.22191781,15.0575342 2.95890411,15.1561644 2.69589041,15.2547945 L2.69589041,15.5835616 C2.82739726,15.6164384 2.99178082,15.6164384 3.12328767,15.6493151 C3.28767123,15.6821918 3.45205479,15.7150685 3.61643836,15.7808219 C3.84657534,15.8465753 4.0109589,15.9452055 4.20821918,16.0438356 C4.30684932,16.109589 4.33972603,16.1753425 4.43835616,16.2410959 C4.56986301,16.3068493 4.73424658,16.3068493 4.83287671,16.2410959 C4.86575342,16.2410959 4.93150685,16.2410959 4.96438356,16.2410959 C5.3260274,16.1424658 5.68767123,16.0438356 5.91780822,15.7479452 C5.91780822,15.7808219 5.95068493,15.7808219 5.95068493,15.7808219 C5.88493151,15.9780822 5.88493151,16.1753425 5.75342466,16.3726027 C5.75342466,16.4054795 5.72054795,16.4383562 5.78630137,16.4712329 C5.81917808,16.4712329 5.81917808,16.4712329 5.81917808,16.4712329 C5.78630137,16.4712329 5.78630137,16.4712329 5.78630137,16.5041096 C5.78630137,16.5369863 5.85205479,16.5041096 5.88493151,16.5369863 C5.75342466,16.569863 5.65479452,16.6027397 5.5890411,16.7013699 C5.5890411,16.7342466 5.62191781,16.7342466 5.65479452,16.7342466 C5.62191781,16.7671233 5.52328767,16.7671233 5.52328767,16.8 C5.52328767,16.8 5.55616438,16.8328767 5.55616438,16.8328767 C5.52328767,16.8328767 5.52328767,16.8328767 5.52328767,16.8657534 C5.52328767,16.8986301 5.52328767,16.8986301 5.52328767,16.9315068 C5.45753425,16.9315068 5.42465753,16.9972603 5.39178082,16.9972603 C5.49041096,17.0630137 5.55616438,16.9972603 5.65479452,16.9972603 C5.39178082,17.0958904 5.19452055,17.260274 4.93150685,17.3260274 C4.89863014,17.3260274 4.93150685,17.3917808 4.89863014,17.3917808 C4.96438356,17.4246575 5.03013699,17.3589041 5.09589041,17.3589041 C4.96438356,17.4575342 4.83287671,17.5232877 4.70136986,17.5890411 L5.49041096,18.0493151 C5.81917808,17.8520548 6.11506849,17.6219178 6.37808219,17.3260274 C6.37808219,17.3260274 6.4109589,17.3589041 6.4109589,17.3589041 C6.34520548,17.5890411 6.21369863,17.7534247 6.01643836,17.9178082 C5.88493151,17.9835616 5.78630137,18.1150685 5.68767123,18.1479452 L6.27945205,18.4767123 C6.4109589,18.3780822 6.50958904,18.3123288 6.6739726,18.2465753 C6.70684932,18.2465753 6.73972603,18.2794521 6.80547945,18.2794521 C7.00273973,18.0821918 7.23287671,17.8520548 7.56164384,17.9178082 C7.56164384,17.9506849 7.56164384,17.9506849 7.59452055,17.9506849 C7.59452055,17.9506849 7.59452055,17.9506849 7.59452055,17.9506849 C7.59452055,17.9506849 7.62739726,17.9506849 7.62739726,17.9178082 C7.62739726,17.9506849 7.62739726,17.9506849 7.59452055,17.9506849 C7.49589041,18.0164384 7.43013699,18.0821918 7.33150685,18.1479452 C7.29863014,18.1808219 7.33150685,18.1808219 7.36438356,18.1808219 C7.49589041,18.1150685 7.56164384,18.0493151 7.66027397,17.9835616 C7.62739726,18.0164384 7.62739726,18.0493151 7.62739726,18.0821918 C7.33150685,18.3123288 7.10136986,18.5424658 6.87123288,18.8054795 L9.99452055,20.6136986 C10.0931507,20.4821918 10.2246575,20.2849315 10.3561644,20.1205479 C10.9479452,19.2657534 11.8027397,18.1150685 12.0657534,17.8520548 C12.1643836,17.7863014 12.2630137,17.7863014 12.3945205,17.7534247 C12.7890411,17.7534247 13.2164384,17.8520548 13.6109589,17.8849315 C13.6438356,17.8849315 13.709589,17.9178082 13.7424658,17.9178082 C13.8739726,17.9506849 14.0383562,17.9178082 14.2027397,17.8849315 C14.3671233,17.8191781 14.5643836,17.7205479 14.630137,17.5232877 C14.6958904,17.3589041 14.7287671,17.1616438 14.630137,16.9972603 C14.4657534,16.8 14.7616438,16.7013699 14.860274,16.569863 C14.9260274,16.4383562 14.7945205,16.3726027 14.7945205,16.2739726 C14.7616438,16.2410959 14.6630137,16.2410959 14.630137,16.1753425 C14.7945205,16.109589 15.0575342,15.9452055 14.9260274,15.7479452 C14.860274,15.6164384 14.7287671,15.4520548 14.860274,15.3205479 C15.0246575,15.2219178 15.2876712,15.2219178 15.3534247,15.0575342 C15.5506849,14.7287671 15.2547945,14.4986301 15.1232877,14.2684932 Z M14.1041096,13.0849315 C14.0712329,13.1178082 14.169863,13.1506849 14.169863,13.2164384 C14.1369863,13.2493151 14.0712329,13.2821918 14.0383562,13.2821918 C14.0054795,13.3150685 13.939726,13.3808219 13.9068493,13.4136986 C13.939726,13.4136986 13.9068493,13.4794521 13.9726027,13.4794521 C13.8739726,13.6109589 14.0383562,13.8410959 13.8739726,13.8739726 C13.709589,13.939726 13.5123288,13.939726 13.3150685,13.8739726 C13.4136986,13.8410959 13.5452055,13.9068493 13.6109589,13.8082192 C13.6109589,13.7753425 13.6109589,13.7424658 13.6109589,13.709589 C13.6109589,13.6767123 13.5780822,13.6767123 13.5780822,13.6767123 C13.5452055,13.709589 13.5452055,13.709589 13.5452055,13.709589 C13.5452055,13.6767123 13.4794521,13.6109589 13.4794521,13.6109589 C13.3479452,13.6438356 13.2164384,13.5780822 13.1178082,13.4794521 C13.1835616,13.4465753 13.2493151,13.4136986 13.3479452,13.4465753 C13.4136986,13.4465753 13.3808219,13.3150685 13.4465753,13.2821918 C13.4794521,13.2821918 13.4794521,13.2821918 13.5123288,13.2821918 C13.6438356,13.0849315 13.939726,13.0191781 13.9726027,12.8547945 C13.9726027,12.8219178 13.8410959,12.8219178 13.7424658,12.7890411 C13.6109589,12.7561644 13.4794521,12.7890411 13.3479452,12.7890411 C13.1506849,12.8547945 12.9863014,12.8547945 12.8219178,12.9534247 C12.9534247,12.8547945 13.1178082,12.7561644 13.2821918,12.690411 C13.4136986,12.6575342 13.5123288,12.5917808 13.6438356,12.5917808 C13.7753425,12.5589041 13.939726,12.5260274 14.0383562,12.5589041 C14.169863,12.5917808 14.3342466,12.5917808 14.3671233,12.6575342 C14.3342466,12.8547945 14.2356164,12.9863014 14.1041096,13.0849315 Z" id="Shape" fill="#FFFFFF" fill-rule="nonzero"></path>
    </g>
</svg>
