<?xml version="1.0" encoding="utf-8"?>
<!-- Generator: Adobe Illustrator 19.2.0, SVG Export Plug-In . SVG Version: 6.00 Build 0)  -->
<svg version="1.1" xmlns="http://www.w3.org/2000/svg" xmlns:xlink="http://www.w3.org/1999/xlink" x="0px" y="0px" width="24px"
	 height="24px" viewBox="0 0 24 24" enable-background="new 0 0 24 24" xml:space="preserve">
<g id="Filled_Icons_1_">
	<path d="M12,0.006c-4.411,0-8,3.588-8,8c0,4.244,7.273,15.307,7.583,15.775c0.092,0.139,0.249,0.225,0.417,0.225
		s0.324-0.085,0.417-0.225C12.727,23.313,20,12.25,20,8.006C20,3.595,16.411,0.006,12,0.006z M12,11.506c-1.93,0-3.5-1.571-3.5-3.5
		s1.57-3.5,3.5-3.5s3.5,1.571,3.5,3.5S13.93,11.506,12,11.506z" fill="#f90000"/>
</g>
<g id="invisible_shape">
	<rect fill="none" width="24" height="24"/>
</g>
</svg>
