<?xml version="1.0" encoding="UTF-8"?>
<svg width="26px" height="26px" viewBox="0 0 26 26" version="1.1" xmlns="http://www.w3.org/2000/svg" xmlns:xlink="http://www.w3.org/1999/xlink">
    <!-- Generator: Sketch 57.1 (83088) - https://sketch.com -->
    <title>view-off</title>
    <desc>Created with Sketch.</desc>
    <g id="view-off" stroke="none" stroke-width="1" fill="none" fill-rule="evenodd" stroke-linecap="round" stroke-linejoin="round">
        <g transform="translate(1.000000, 3.000000)" id="Path" stroke="#FFFFFF" stroke-width="1.5">
            <path d="M19.518,6.288 C20.9931662,7.35658827 22.3306338,8.6033687 23.5,10 C23.5,10 18.352,16.5 12,16.5 C10.9825715,16.4943537 9.97159411,16.3379892 9,16.036"></path>
            <path d="M4.468,13.7 C2.99842344,12.6342775 1.66572143,11.3915866 0.5,10 C0.5,10 5.648,3.5 12,3.5 C12.8436321,3.50355982 13.6834986,3.61274247 14.5,3.825"></path>
            <path d="M8,10 C8,7.790861 9.790861,6 12,6"></path>
            <path d="M16,10 C16,12.209139 14.209139,14 12,14"></path>
            <path d="M21.75,0.25 L2.25,19.75"></path>
        </g>
    </g>
</svg>