<svg width="98" height="91" viewBox="0 0 98 91" fill="none" xmlns="http://www.w3.org/2000/svg">
    <path d="M51.4919 90.7495C74.9389 90.7495 93.9465 71.7419 93.9465 48.2949C93.9465 24.8479 74.9389 5.84033 51.4919 5.84033C28.0449 5.84033 9.03735 24.8479 9.03735 48.2949C9.03735 71.7419 28.0449 90.7495 51.4919 90.7495Z" fill="#E0EFFF"/>
    <path d="M54.7218 33.3831C53.992 30.5593 52.5847 27.956 50.6217 25.7988C48.6586 23.6417 46.1992 21.9957 43.4565 21.0036C40.7138 20.0115 37.7705 19.7032 34.8817 20.1055C31.993 20.5077 29.2459 21.6082 26.8785 23.3118C24.5111 25.0154 22.5948 27.2705 21.2957 29.8819C19.9966 32.4932 19.3539 35.382 19.4233 38.2978C19.4927 41.2136 20.272 44.0685 21.6938 46.6151C23.1156 49.1617 25.137 51.3232 27.5827 52.9122C31.539 55.479 34.3892 59.4357 35.5705 64.0014L51.5971 59.8504C50.4156 55.285 50.987 50.4426 53.1987 46.2777C55.3079 42.3233 55.8516 37.7201 54.7218 33.3831Z" fill="white"/>
    <path d="M47.044 75.2795C45.9915 75.5522 44.8957 75.6149 43.819 75.464C42.7423 75.3131 41.7059 74.9516 40.7689 74.4002C39.8319 73.8488 39.0127 73.1182 38.3581 72.2502C37.7035 71.3821 37.2262 70.3937 36.9536 69.3412L52.9802 65.1902" stroke="#003670" stroke-linecap="round" stroke-linejoin="round"/>
    <path d="M51.5986 59.8474L35.5701 63.9983L36.9537 69.3411L52.9822 65.1902L51.5986 59.8474Z" stroke="#003670" stroke-linecap="round" stroke-linejoin="round"/>
    <path d="M54.7218 33.3831C53.992 30.5593 52.5847 27.956 50.6217 25.7988C48.6586 23.6417 46.1992 21.9957 43.4565 21.0036C40.7138 20.0115 37.7705 19.7032 34.8817 20.1055C31.993 20.5077 29.2459 21.6082 26.8785 23.3118C24.5111 25.0154 22.5948 27.2705 21.2957 29.8819C19.9966 32.4932 19.3539 35.382 19.4233 38.2978C19.4927 41.2136 20.272 44.0685 21.6938 46.6151C23.1156 49.1617 25.137 51.3232 27.5827 52.9122C31.539 55.479 34.3892 59.4357 35.5705 64.0014L51.5971 59.8504C50.4156 55.285 50.987 50.4426 53.1987 46.2777C55.3079 42.3233 55.8516 37.7201 54.7218 33.3831Z" stroke="#003670" stroke-linecap="round" stroke-linejoin="round"/>
    <path d="M65.589 31.3207C65.2987 31.3999 64.9955 31.4207 64.6971 31.3818C64.3987 31.343 64.111 31.2452 63.8507 31.0942C63.5904 30.9433 63.3626 30.7421 63.1807 30.5024C62.9987 30.2627 62.8662 29.9893 62.7908 29.698C62.7154 29.4066 62.6986 29.1032 62.7414 28.8054C62.7841 28.5075 62.8857 28.2211 63.04 27.9628C63.1944 27.7044 63.3986 27.4794 63.6406 27.3006C63.8827 27.1218 64.1579 26.9929 64.4501 26.9213L69.7941 25.5415C70.3745 25.3994 70.9874 25.4916 71.5003 25.7981C72.0132 26.1046 72.3847 26.6008 72.5345 27.1792C72.6842 27.7577 72.6001 28.3718 72.3004 28.8887C72.0006 29.4055 71.5094 29.7836 70.933 29.9409L65.589 31.3207Z" fill="#C2DFFF" stroke="#003670" stroke-linecap="round" stroke-linejoin="round"/>
    <path d="M52.2384 13.6151C51.8033 13.727 51.3448 13.7075 50.9208 13.5591C50.4967 13.4107 50.1261 13.1401 49.8557 12.7813C49.5853 12.4226 49.4271 11.9918 49.4012 11.5433C49.3754 11.0948 49.4829 10.6486 49.7102 10.2612L52.509 5.50837C52.8228 5.00636 53.3201 4.64656 53.895 4.50546C54.47 4.36436 55.0773 4.45311 55.5878 4.75282C56.0984 5.05254 56.4719 5.53958 56.6289 6.11038C56.7859 6.68119 56.7141 7.29073 56.4287 7.80941L53.6267 12.5654C53.4767 12.8239 53.2767 13.0499 53.0383 13.2301C52.7999 13.4103 52.528 13.5412 52.2384 13.6151Z" fill="#C2DFFF" stroke="#003670" stroke-linecap="round" stroke-linejoin="round"/>
    <path d="M4.14872 47.2318C3.56547 47.3828 2.94611 47.2959 2.4269 46.9903C1.9077 46.6847 1.53117 46.1853 1.38015 45.6021C1.22913 45.0188 1.31599 44.3995 1.62162 43.8803C1.92725 43.361 2.42662 42.9845 3.00987 42.8335L8.35172 41.4537C8.64203 41.3745 8.94518 41.3537 9.24359 41.3926C9.542 41.4314 9.82971 41.5292 10.09 41.6802C10.3504 41.8311 10.5781 42.0323 10.76 42.272C10.942 42.5117 11.0745 42.7851 11.1499 43.0764C11.2253 43.3678 11.2421 43.6712 11.1994 43.969C11.1566 44.2669 11.055 44.5533 10.9007 44.8116C10.7463 45.0699 10.5421 45.295 10.3001 45.4738C10.058 45.6526 9.78285 45.7815 9.49056 45.8531L4.14872 47.2318Z" fill="#C2DFFF" stroke="#003670" stroke-linecap="round" stroke-linejoin="round"/>
    <path d="M12.5693 23.8886C12.2803 23.9639 11.9793 23.981 11.6836 23.9391C11.3879 23.8972 11.1035 23.7971 10.8467 23.6445L6.09077 20.8457C5.83044 20.6959 5.60237 20.496 5.41976 20.2576C5.23714 20.0192 5.1036 19.7469 5.02686 19.4566C4.95011 19.1662 4.93169 18.8635 4.97265 18.566C5.01361 18.2685 5.11314 17.982 5.26548 17.7232C5.41783 17.4644 5.61997 17.2383 5.86022 17.0581C6.10046 16.8779 6.37405 16.7471 6.66517 16.6733C6.95628 16.5994 7.25914 16.584 7.55624 16.628C7.85333 16.6719 8.13877 16.7743 8.39605 16.9292L13.152 19.7312C13.5389 19.9597 13.8494 20.2975 14.0445 20.7023C14.2395 21.107 14.3104 21.5604 14.2481 22.0053C14.1857 22.4503 13.993 22.8667 13.6943 23.2023C13.3955 23.5378 13.0041 23.7774 12.5693 23.8907V23.8886Z" fill="#C2DFFF" stroke="#003670" stroke-linecap="round" stroke-linejoin="round"/>
    <path d="M30.2763 10.5342C29.6933 10.6842 29.0745 10.597 28.5556 10.2916C28.0367 9.98625 27.6601 9.48758 27.5083 8.90496L26.1285 3.56311C26.0493 3.2728 26.0285 2.96965 26.0674 2.67124C26.1062 2.37283 26.204 2.08512 26.355 1.8248C26.5059 1.56448 26.7071 1.33673 26.9468 1.15479C27.1865 0.972838 27.4599 0.84031 27.7512 0.764896C28.0426 0.689482 28.346 0.672683 28.6438 0.715474C28.9417 0.758265 29.2281 0.859794 29.4864 1.01417C29.7447 1.16854 29.9698 1.37268 30.1486 1.61475C30.3274 1.85681 30.4563 2.13198 30.5279 2.42427L31.9077 7.76611C32.0577 8.34947 31.9702 8.96852 31.6644 9.48745C31.3585 10.0064 30.8594 10.3828 30.2763 10.5342Z" fill="#C2DFFF" stroke="#003670" stroke-linecap="round" stroke-linejoin="round"/>
    <path d="M65.7008 69.7277L68.5622 66.8663L60.8991 59.2021L58.0377 62.0646L55.3015 72.4639L65.7008 69.7277Z" fill="white"/>
    <path d="M65.7008 69.7277L68.5622 66.8663L60.8991 59.2021L58.0377 62.0646L55.3015 72.4639L65.7008 69.7277Z" stroke="#003670" stroke-linecap="round" stroke-linejoin="round"/>
    <path d="M55.3014 72.4636L53.9185 73.8466" stroke="#003670" stroke-linecap="round" stroke-linejoin="round"/>
    <path d="M81.4229 38.6797L89.0849 46.3427L66.0395 69.3881L64.9442 66.1043L62.208 65.5566L61.6603 62.8204L58.3765 61.7262L81.4229 38.6797Z" fill="white"/>
    <path d="M93.4637 41.9645L95.1057 40.3215C96.1217 39.3053 96.6925 37.9271 96.6924 36.4901C96.6923 35.0531 96.1213 33.675 95.1051 32.659C94.089 31.6429 92.7108 31.0722 91.2738 31.0723C89.8368 31.0724 88.4587 31.6433 87.4426 32.6595L85.8018 34.3004L93.4637 41.9645Z" fill="white"/>
    <path d="M93.4637 41.9645L95.1057 40.3215C96.1217 39.3053 96.6925 37.9271 96.6924 36.4901C96.6923 35.0531 96.1213 33.675 95.1051 32.659C94.089 31.6429 92.7108 31.0722 91.2738 31.0723C89.8368 31.0724 88.4587 31.6433 87.4426 32.6595L85.8018 34.3004L93.4637 41.9645Z" stroke="#003670" stroke-linecap="round" stroke-linejoin="round"/>
    <path d="M85.8004 34.3009L81.4219 38.6792L89.0842 46.342L93.4627 41.9638L85.8004 34.3009Z" fill="#C2DFFF"/>
    <path d="M85.8004 34.3009L81.4219 38.6792L89.0842 46.342L93.4627 41.9638L85.8004 34.3009Z" stroke="#003670" stroke-linecap="round" stroke-linejoin="round"/>
    <path d="M83.6123 36.4902L91.2743 44.1533" stroke="#003670" stroke-linecap="round" stroke-linejoin="round"/>
    <path d="M64.9438 66.104L86.896 44.1528" stroke="#003670" stroke-linecap="round" stroke-linejoin="round"/>
    <path d="M61.6599 62.8205L83.6121 40.8694" stroke="#003670" stroke-linecap="round" stroke-linejoin="round"/>
    <path d="M81.4229 38.6797L89.0849 46.3427L66.0395 69.3881L64.9442 66.1043L62.208 65.5566L61.6603 62.8204L58.3765 61.7262L81.4229 38.6797Z" stroke="#003670" stroke-linecap="round" stroke-linejoin="round"/>
</svg>
