<svg viewBox="0 0 96 96" fill="none" xmlns="http://www.w3.org/2000/svg">
    <path d="M48 96C74.5097 96 96 74.5097 96 48C96 21.4903 74.5097 0 48 0C21.4903 0 0 21.4903 0 48C0 74.5097 21.4903 96 48 96Z" fill="#E0EFFF"/>
    <path d="M73.6032 15.3912H16.866C15.064 15.3912 13.6032 16.852 13.6032 18.654V65.4492C13.6032 67.2512 15.064 68.712 16.866 68.712H73.6032C75.4052 68.712 76.866 67.2512 76.866 65.4492V18.654C76.866 16.852 75.4052 15.3912 73.6032 15.3912Z" fill="white" stroke="#003670" stroke-linecap="round" stroke-linejoin="round"/>
    <path d="M76.866 31.6584H13.6032V18.6552C13.6031 18.2266 13.6873 17.8022 13.8512 17.4062C14.0151 17.0102 14.2554 16.6504 14.5584 16.3473C14.8614 16.0442 15.2212 15.8037 15.6171 15.6397C16.0131 15.4756 16.4374 15.3912 16.866 15.3912H73.602C74.4677 15.3912 75.2979 15.7351 75.91 16.3472C76.5221 16.9593 76.866 17.7895 76.866 18.6552V31.6584Z" fill="#C2DFFF" stroke="#003670" stroke-linecap="round" stroke-linejoin="round"/>
    <path d="M13.6032 40.6968H76.866" stroke="#003670" stroke-linecap="round" stroke-linejoin="round"/>
    <path d="M13.6032 49.734H76.866" stroke="#003670" stroke-linecap="round" stroke-linejoin="round"/>
    <path d="M13.6032 58.7712H76.866" stroke="#003670" stroke-linecap="round" stroke-linejoin="round"/>
    <path d="M26.256 31.6584V68.7132" stroke="#003670" stroke-linecap="round" stroke-linejoin="round"/>
    <path d="M38.9076 31.6584V68.7132" stroke="#003670" stroke-linecap="round" stroke-linejoin="round"/>
    <path d="M51.5604 31.6584V68.712" stroke="#003670" stroke-linecap="round" stroke-linejoin="round"/>
    <path d="M64.2132 31.6584V68.712" stroke="#003670" stroke-linecap="round" stroke-linejoin="round"/>
    <path d="M26.256 40.6968H13.6032V49.734H26.256V40.6968Z" fill="#C2DFFF" stroke="#003670" stroke-linecap="round" stroke-linejoin="round"/>
    <path d="M38.9088 58.7712H26.256V68.712H38.9088V58.7712Z" fill="#C2DFFF" stroke="#003670" stroke-linecap="round" stroke-linejoin="round"/>
    <path d="M51.5604 31.6584H38.9076V40.6956H51.5604V31.6584Z" fill="#C2DFFF" stroke="#003670" stroke-linecap="round" stroke-linejoin="round"/>
    <path d="M44.5764 78.384C54.8058 78.384 63.0984 77.1994 63.0984 75.738C63.0984 74.2767 54.8058 73.092 44.5764 73.092C34.347 73.092 26.0544 74.2767 26.0544 75.738C26.0544 77.1994 34.347 78.384 44.5764 78.384Z" fill="#C2DFFF"/>
    <path d="M73.686 49.3728V35.6112C73.6857 34.5689 73.2715 33.5693 72.5346 32.8322C71.7977 32.095 70.7983 31.6806 69.756 31.68C68.7134 31.68 67.7134 32.0942 66.9762 32.8314C66.2389 33.5687 65.8248 34.5686 65.8248 35.6112V49.3728H73.686Z" fill="white" stroke="#003670" stroke-linecap="round" stroke-linejoin="round"/>
    <path d="M64.6092 80.0496C64.4628 80.0504 64.3218 80.1046 64.2126 80.202C64.1034 80.2995 64.0337 80.4335 64.0164 80.5788C63.9918 80.7992 63.9794 81.0207 63.9792 81.2424C64.0014 82.8094 64.6395 84.3046 65.7554 85.4048C66.8714 86.505 68.3755 87.1218 69.9426 87.1218C71.5097 87.1218 73.0138 86.505 74.1298 85.4048C75.2457 84.3046 75.8838 82.8094 75.906 81.2424C75.9058 81.0207 75.8933 80.7992 75.8688 80.5788C75.8515 80.4335 75.7817 80.2995 75.6726 80.202C75.5634 80.1046 75.4223 80.0504 75.276 80.0496H64.6092Z" fill="#C2DFFF" stroke="#003670" stroke-linecap="round" stroke-linejoin="round"/>
    <path d="M89.2884 74.8584C88.8324 74.5289 88.4609 74.0962 88.2041 73.5957C87.9474 73.0951 87.8128 72.5409 87.8112 71.9784V60.3732C87.8112 49.6728 79.7856 40.9656 69.9216 40.9656C60.0576 40.9656 52.0332 49.6728 52.0332 60.3732V71.9736C52.0314 72.5362 51.8966 73.0904 51.6396 73.591C51.3827 74.0915 51.0109 74.5242 50.5548 74.8536L89.2884 74.8584Z" fill="white" stroke="#003670" stroke-linecap="round" stroke-linejoin="round"/>
    <path d="M94.1364 77.9928C94.1365 78.4045 94.0556 78.8121 93.8981 79.1925C93.7406 79.5728 93.5098 79.9184 93.2187 80.2095C92.9276 80.5006 92.582 80.7315 92.2016 80.8889C91.8213 81.0464 91.4136 81.1273 91.002 81.1272H49.2048C48.3735 81.1272 47.5762 80.797 46.9884 80.2091C46.4006 79.6213 46.0704 78.8241 46.0704 77.9928C46.0704 77.1615 46.4006 76.3642 46.9884 75.7764C47.5762 75.1886 48.3735 74.8584 49.2048 74.8584H91.002C91.4136 74.8582 91.8213 74.9392 92.2016 75.0967C92.582 75.2541 92.9276 75.485 93.2187 75.7761C93.5098 76.0672 93.7406 76.4128 93.8981 76.7931C94.0556 77.1735 94.1365 77.5811 94.1364 77.9928Z" fill="white" stroke="#003670" stroke-linecap="round" stroke-linejoin="round"/>
    <path d="M23.3268 21.2076C23.3329 21.4416 23.2921 21.6745 23.2068 21.8925C23.1215 22.1105 22.9933 22.3091 22.83 22.4768C22.6666 22.6445 22.4714 22.7778 22.2557 22.8688C22.04 22.9598 21.8083 23.0067 21.5742 23.0067C21.3401 23.0067 21.1084 22.9598 20.8927 22.8688C20.677 22.7778 20.4817 22.6445 20.3184 22.4768C20.155 22.3091 20.0269 22.1105 19.9416 21.8925C19.8563 21.6745 19.8155 21.4416 19.8216 21.2076V10.692C19.8335 10.2351 20.0234 9.80096 20.3508 9.48204C20.6782 9.16312 21.1171 8.98465 21.5742 8.98465C22.0312 8.98465 22.4702 9.16312 22.7976 9.48204C23.1249 9.80096 23.3148 10.2351 23.3268 10.692V21.2076Z" fill="white" stroke="#003670" stroke-linecap="round" stroke-linejoin="round"/>
    <path d="M37.3476 21.2076C37.3537 21.4416 37.3129 21.6745 37.2276 21.8925C37.1423 22.1105 37.0142 22.3091 36.8508 22.4768C36.6875 22.6445 36.4922 22.7778 36.2765 22.8688C36.0608 22.9598 35.8291 23.0067 35.595 23.0067C35.3609 23.0067 35.1292 22.9598 34.9135 22.8688C34.6978 22.7778 34.5025 22.6445 34.3392 22.4768C34.1758 22.3091 34.0477 22.1105 33.9624 21.8925C33.8771 21.6745 33.8363 21.4416 33.8424 21.2076V10.692C33.8544 10.2351 34.0442 9.80096 34.3716 9.48204C34.699 9.16312 35.138 8.98465 35.595 8.98465C36.052 8.98465 36.491 9.16312 36.8184 9.48204C37.1457 9.80096 37.3356 10.2351 37.3476 10.692V21.2076Z" fill="white" stroke="#003670" stroke-linecap="round" stroke-linejoin="round"/>
    <path d="M56.6268 21.2076C56.633 21.4416 56.5922 21.6745 56.5068 21.8925C56.4215 22.1105 56.2934 22.3091 56.13 22.4768C55.9667 22.6445 55.7714 22.7778 55.5557 22.8688C55.34 22.9598 55.1083 23.0067 54.8742 23.0067C54.6401 23.0067 54.4084 22.9598 54.1927 22.8688C53.977 22.7778 53.7818 22.6445 53.6184 22.4768C53.4551 22.3091 53.327 22.1105 53.2416 21.8925C53.1563 21.6745 53.1155 21.4416 53.1216 21.2076V10.692C53.1336 10.2351 53.3235 9.80096 53.6509 9.48204C53.9782 9.16312 54.4172 8.98465 54.8742 8.98465C55.3313 8.98465 55.7702 9.16312 56.0976 9.48204C56.425 9.80096 56.6149 10.2351 56.6268 10.692V21.2076Z" fill="white" stroke="#003670" stroke-linecap="round" stroke-linejoin="round"/>
    <path d="M70.6476 21.2076C70.6538 21.4416 70.613 21.6745 70.5276 21.8925C70.4423 22.1105 70.3142 22.3091 70.1509 22.4768C69.9875 22.6445 69.7922 22.7778 69.5765 22.8688C69.3609 22.9598 69.1291 23.0067 68.895 23.0067C68.661 23.0067 68.4292 22.9598 68.2135 22.8688C67.9979 22.7778 67.8026 22.6445 67.6392 22.4768C67.4759 22.3091 67.3478 22.1105 67.2624 21.8925C67.1771 21.6745 67.1363 21.4416 67.1424 21.2076V10.692C67.1544 10.2351 67.3443 9.80096 67.6717 9.48204C67.999 9.16312 68.438 8.98465 68.895 8.98465C69.3521 8.98465 69.791 9.16312 70.1184 9.48204C70.4458 9.80096 70.6357 10.2351 70.6476 10.692V21.2076Z" fill="white" stroke="#003670" stroke-linecap="round" stroke-linejoin="round"/>
</svg>
