<svg viewBox="0 0 98 94" fill="none" xmlns="http://www.w3.org/2000/svg">
<path d="M50.9931 93.3429C76.6514 93.3429 97.4517 72.5427 97.4517 46.8843C97.4517 21.226 76.6514 0.425781 50.9931 0.425781C25.3347 0.425781 4.53452 21.226 4.53452 46.8843C4.53452 72.5427 25.3347 93.3429 50.9931 93.3429Z" fill="#E0EFFF"/>
<path d="M87.9458 39.5524C87.946 39.876 87.8824 40.1964 87.7586 40.4953C87.6349 40.7943 87.4534 41.0659 87.2247 41.2947C86.9959 41.5235 86.7242 41.7049 86.4253 41.8287C86.1263 41.9524 85.8059 42.016 85.4824 42.0159H36.2166C35.893 42.016 35.5726 41.9524 35.2736 41.8287C34.9747 41.7049 34.7031 41.5235 34.4743 41.2947C34.2455 41.0659 34.064 40.7943 33.9403 40.4953C33.8165 40.1964 33.7529 39.876 33.7531 39.5524V12.4566C33.7529 12.1331 33.8165 11.8127 33.9403 11.5137C34.064 11.2148 34.2455 10.9431 34.4743 10.7144C34.7031 10.4856 34.9747 10.3041 35.2736 10.1804C35.5726 10.0566 35.893 9.99301 36.2166 9.99316H85.4824C85.8059 9.99301 86.1263 10.0566 86.4253 10.1804C86.7242 10.3041 86.9959 10.4856 87.2247 10.7144C87.4534 10.9431 87.6349 11.2148 87.7586 11.5137C87.8824 11.8127 87.946 12.1331 87.9458 12.4566V24.7681L95.9774 33.8032C96.1354 33.9806 96.2387 34.1999 96.2748 34.4348C96.311 34.6696 96.2784 34.9099 96.181 35.1266C96.0836 35.3433 95.9256 35.5272 95.7261 35.6561C95.5265 35.7851 95.2939 35.8535 95.0563 35.8532H87.9458V39.5524Z" fill="white" stroke="#003670" stroke-linecap="round" stroke-linejoin="round"/>
<path d="M80.5558 18.6152H62.0816" stroke="#003670" stroke-linecap="round" stroke-linejoin="round"/>
<path d="M80.5558 24.7734H62.0816" stroke="#003670" stroke-linecap="round" stroke-linejoin="round"/>
<path d="M72.3455 30.9316H62.0816" stroke="#003670" stroke-linecap="round" stroke-linejoin="round"/>
<path d="M10.8688 82.4627C10.8688 83.201 11.1617 83.9091 11.6832 84.4317C12.2047 84.9543 12.9123 85.2487 13.6506 85.2502H69.2847C70.024 85.2502 70.733 84.9565 71.2558 84.4338C71.7785 83.911 72.0722 83.202 72.0722 82.4627V51.8628C72.0707 51.1245 71.7763 50.4169 71.2537 49.8954C70.7311 49.3739 70.023 49.0811 69.2847 49.0811H13.6506C12.9133 49.0826 12.2066 49.3762 11.6853 49.8975C11.1639 50.4188 10.8704 51.1255 10.8688 51.8628V65.7725L1.80014 75.9748C1.62262 76.1759 1.50694 76.424 1.46697 76.6893C1.427 76.9546 1.46445 77.2258 1.57482 77.4703C1.68519 77.7149 1.86379 77.9224 2.08918 78.0679C2.31457 78.2134 2.57717 78.2908 2.84546 78.2907H10.8747L10.8688 82.4627Z" fill="white" stroke="#003670" stroke-linecap="round" stroke-linejoin="round"/>
<path d="M26.1302 78.8197C31.421 78.8197 35.71 74.5307 35.71 69.2399C35.71 63.9492 31.421 59.6602 26.1302 59.6602C20.8395 59.6602 16.5505 63.9492 16.5505 69.2399C16.5505 74.5307 20.8395 78.8197 26.1302 78.8197Z" fill="#FAE5E7" stroke="#003670" stroke-linecap="round" stroke-linejoin="round"/>
<path d="M23.0474 69.0208C23.0474 69.8384 23.3722 70.6224 23.9503 71.2005C24.5284 71.7786 25.3124 72.1034 26.1299 72.1034C26.9475 72.1034 27.7315 71.7786 28.3096 71.2005C28.8877 70.6224 29.2125 69.8384 29.2125 69.0208V67.4761C29.2125 66.6585 28.8877 65.8745 28.3096 65.2964C27.7315 64.7183 26.9475 64.3936 26.1299 64.3936C25.3124 64.3936 24.5284 64.7183 23.9503 65.2964C23.3722 65.8745 23.0474 66.6585 23.0474 67.4761V69.0208Z" fill="white"/>
<path d="M23.0474 69.0208C23.0474 69.8384 23.3722 70.6224 23.9503 71.2005C24.5284 71.7786 25.3124 72.1034 26.1299 72.1034C26.9475 72.1034 27.7315 71.7786 28.3096 71.2005C28.8877 70.6224 29.2125 69.8384 29.2125 69.0208V67.4761C29.2125 66.6585 28.8877 65.8745 28.3096 65.2964C27.7315 64.7183 26.9475 64.3936 26.1299 64.3936C25.3124 64.3936 24.5284 64.7183 23.9503 65.2964C23.3722 65.8745 23.0474 66.6585 23.0474 67.4761V69.0208Z" stroke="#003670" stroke-linecap="round" stroke-linejoin="round"/>
<path d="M19.7294 76.3673C21.4877 77.9459 23.7673 78.8192 26.1303 78.8192C28.4932 78.8192 30.7728 77.9459 32.5311 76.3673C32.0047 75.1035 31.1159 74.0238 29.9768 73.2644C28.8377 72.5049 27.4993 72.0996 26.1303 72.0996C24.7612 72.0996 23.4228 72.5049 22.2837 73.2644C21.1446 74.0238 20.2559 75.1035 19.7294 76.3673Z" fill="white" stroke="#003670" stroke-linecap="round" stroke-linejoin="round"/>
<path d="M23.073 67.0776C23.1536 66.4559 23.422 65.8735 23.8423 65.4083C24.2626 64.943 24.8149 64.6171 25.4253 64.474C26.0357 64.3308 26.6753 64.3773 27.2586 64.6072C27.8419 64.8371 28.3412 65.2394 28.6898 65.7605C27.9603 66.4676 27.0526 66.9636 26.0635 67.1955C25.0743 67.4275 24.0408 67.3867 23.073 67.0776Z" fill="white" stroke="#003670" stroke-linecap="round" stroke-linejoin="round"/>
<path d="M65.1138 62.0195H44.2504" stroke="#003670" stroke-linecap="round" stroke-linejoin="round"/>
<path d="M65.1137 68.9746H44.2504" stroke="#003670" stroke-linecap="round" stroke-linejoin="round"/>
<path d="M55.8418 75.9287H44.2504" stroke="#003670" stroke-linecap="round" stroke-linejoin="round"/>
<path d="M47.3332 35.3109C52.624 35.3109 56.913 31.0219 56.913 25.7311C56.913 20.4404 52.624 16.1514 47.3332 16.1514C42.0425 16.1514 37.7534 20.4404 37.7534 25.7311C37.7534 31.0219 42.0425 35.3109 47.3332 35.3109Z" fill="#E4F9E9" stroke="#003670" stroke-linecap="round" stroke-linejoin="round"/>
<path d="M44.2505 25.513C44.2505 26.3306 44.5752 27.1146 45.1533 27.6927C45.7314 28.2708 46.5154 28.5955 47.333 28.5955C48.1505 28.5955 48.9346 28.2708 49.5127 27.6927C50.0907 27.1146 50.4155 26.3306 50.4155 25.513V23.9683C50.4155 23.1507 50.0907 22.3667 49.5127 21.7886C48.9346 21.2105 48.1505 20.8857 47.333 20.8857C46.5154 20.8857 45.7314 21.2105 45.1533 21.7886C44.5752 22.3667 44.2505 23.1507 44.2505 23.9683V25.513Z" fill="white"/>
<path d="M44.2505 25.513C44.2505 26.3306 44.5752 27.1146 45.1533 27.6927C45.7314 28.2708 46.5154 28.5955 47.333 28.5955C48.1505 28.5955 48.9346 28.2708 49.5127 27.6927C50.0907 27.1146 50.4155 26.3306 50.4155 25.513V23.9683C50.4155 23.1507 50.0907 22.3667 49.5127 21.7886C48.9346 21.2105 48.1505 20.8857 47.333 20.8857C46.5154 20.8857 45.7314 21.2105 45.1533 21.7886C44.5752 22.3667 44.2505 23.1507 44.2505 23.9683V25.513Z" stroke="#003670" stroke-linecap="round" stroke-linejoin="round"/>
<path d="M40.9324 32.8605C42.6907 34.4391 44.9703 35.3123 47.3333 35.3123C49.6962 35.3123 51.9759 34.4391 53.7341 32.8605C53.2077 31.5967 52.3189 30.517 51.1798 29.7575C50.0407 28.9981 48.7023 28.5928 47.3333 28.5928C45.9642 28.5928 44.6258 28.9981 43.4867 29.7575C42.3477 30.517 41.4589 31.5967 40.9324 32.8605Z" fill="white" stroke="#003670" stroke-linecap="round" stroke-linejoin="round"/>
<path d="M44.276 23.5698C44.3567 22.9481 44.625 22.3657 45.0454 21.9005C45.4657 21.4352 46.0179 21.1093 46.6283 20.9661C47.2387 20.823 47.8783 20.8695 48.4616 21.0994C49.0449 21.3293 49.5442 21.7316 49.8929 22.2527C49.1633 22.9598 48.2556 23.4558 47.2665 23.6877C46.2774 23.9197 45.2438 23.8789 44.276 23.5698Z" fill="white" stroke="#003670" stroke-linecap="round" stroke-linejoin="round"/>
</svg>
