<svg viewBox="0 0 81 76" fill="none" xmlns="http://www.w3.org/2000/svg">
    <path d="M36.9012 75.3115C57.2812 75.3115 73.8024 58.7903 73.8024 38.4103C73.8024 18.0304 57.2812 1.50916 36.9012 1.50916C16.5212 1.50916 0 18.0304 0 38.4103C0 58.7903 16.5212 75.3115 36.9012 75.3115Z" fill="#E0EFFF"/>
    <path d="M42.9163 68.0336C51.4082 68.0336 58.2921 67.2076 58.2921 66.1886C58.2921 65.1696 51.4082 64.3435 42.9163 64.3435C34.4245 64.3435 27.5405 65.1696 27.5405 66.1886C27.5405 67.2076 34.4245 68.0336 42.9163 68.0336Z" fill="#E0EFFF"/>
    <path d="M16.6242 68.9562C20.1907 68.9562 23.0819 68.3366 23.0819 67.5724C23.0819 66.8081 20.1907 66.1886 16.6242 66.1886C13.0577 66.1886 10.1665 66.8081 10.1665 67.5724C10.1665 68.3366 13.0577 68.9562 16.6242 68.9562Z" fill="#E0EFFF"/>
    <path d="M57.6026 4.19376L40.5076 15.8019C40.0861 16.0882 39.9764 16.6619 40.2626 17.0834L49.8953 31.2691C50.1815 31.6906 50.7552 31.8003 51.1767 31.5141L68.2718 19.9059C68.6933 19.6197 68.8029 19.0459 68.5167 18.6244L58.8841 4.43872C58.5979 4.01721 58.0241 3.90754 57.6026 4.19376Z" fill="white" stroke="#003670" stroke-linecap="round" stroke-linejoin="round"/>
    <path d="M57.0253 7.10412L43.4268 16.3452C43.0054 16.6315 42.8959 17.2052 43.1823 17.6266L48.4701 25.4077C48.7564 25.8291 49.3301 25.9385 49.7515 25.6522L63.35 16.4111C63.7713 16.1248 63.8808 15.5511 63.5944 15.1297L58.3067 7.34859C58.0203 6.92724 57.4466 6.81778 57.0253 7.10412Z" fill="#8AC2FF" stroke="#003670" stroke-width="0.999887" stroke-linecap="round" stroke-linejoin="round"/>
    <path d="M49.6138 16.0804C49.5279 16.1391 49.4537 16.2132 49.3951 16.2991C49.1673 16.0522 48.8583 15.8954 48.5246 15.8572C48.1908 15.819 47.8544 15.902 47.5768 16.0911C47.2991 16.2801 47.0985 16.5626 47.0117 16.8872C46.9248 17.2117 46.9574 17.5566 47.1036 17.8591C47.002 17.8818 46.9056 17.9234 46.8194 17.9818C46.6342 18.1075 46.5065 18.3017 46.4645 18.5216C46.4224 18.7415 46.4695 18.9691 46.5952 19.1543C46.721 19.3395 46.9152 19.4672 47.1351 19.5092C47.355 19.5513 47.5826 19.5042 47.7678 19.3785L50.5612 17.4818C50.7464 17.356 50.8741 17.1618 50.9161 16.9419C50.9582 16.722 50.9111 16.4944 50.7854 16.3092C50.6596 16.124 50.4654 15.9963 50.2455 15.9543C50.0256 15.9123 49.798 15.9593 49.6128 16.085L49.6138 16.0804Z" fill="white" stroke="#003670" stroke-linecap="round" stroke-linejoin="round"/>
    <path d="M54.6083 14.3839C55.5213 14.3839 56.2614 13.6437 56.2614 12.7307C56.2614 11.8177 55.5213 11.0775 54.6083 11.0775C53.6952 11.0775 52.9551 11.8177 52.9551 12.7307C52.9551 13.6437 53.6952 14.3839 54.6083 14.3839Z" fill="white" stroke="#003670" stroke-linecap="round" stroke-linejoin="round"/>
    <path d="M63.5347 15.0445L58.1259 13.7852C57.9502 13.7439 57.7654 13.7719 57.6097 13.8633C57.4541 13.9546 57.3396 14.1025 57.2901 14.276L55.9598 18.9136L52.0225 20.0206C51.9156 20.0506 51.8174 20.1056 51.7359 20.181C51.6544 20.2564 51.592 20.35 51.5538 20.4542L49.5796 25.7929L63.364 16.4357C63.5663 16.2982 63.7058 16.0859 63.7516 15.8456C63.7975 15.6053 63.746 15.3566 63.6085 15.1543L63.5347 15.0445Z" fill="white" stroke="#003670" stroke-linecap="round" stroke-linejoin="round"/>
    <path d="M50.3815 28.5254C50.4457 28.7785 50.4071 29.0467 50.2742 29.2714C50.1412 29.4961 49.9248 29.6591 49.6721 29.7247L30.5397 34.6778C30.2866 34.742 30.0184 34.7034 29.7937 34.5705C29.569 34.4375 29.406 34.2211 29.3404 33.9683L23.5229 11.4937L28.1218 4.68356L42.2503 1.03034C42.5034 0.966137 42.7716 1.00472 42.9963 1.13765C43.221 1.27058 43.384 1.48705 43.4496 1.73977L50.3815 28.5254Z" fill="white" stroke="#003670" stroke-linecap="round" stroke-linejoin="round"/>
    <path d="M28.7805 19.981L43.9238 16.0648" stroke="#003670" stroke-linecap="round" stroke-linejoin="round"/>
    <path d="M29.6172 23.2153L44.7605 19.2982" stroke="#003670" stroke-linecap="round" stroke-linejoin="round"/>
    <path d="M30.4529 26.4488L45.5971 22.5317" stroke="#003670" stroke-linecap="round" stroke-linejoin="round"/>
    <path d="M57.84 62.0318C57.7852 62.7905 57.4682 63.5065 56.9434 64.0572C56.4187 64.6079 55.7188 64.959 54.9636 65.0503C46.9479 66.0137 38.845 66.0025 30.832 65.0171C30.0825 64.9237 29.3889 64.5721 28.8705 64.0228C28.3521 63.4734 28.0413 62.7606 27.9916 62.0069L25.581 27.7395C25.5706 27.5905 25.591 27.441 25.6409 27.3002C25.6907 27.1594 25.769 27.0303 25.8708 26.9211C25.9726 26.8118 26.0959 26.7246 26.2328 26.665C26.3697 26.6053 26.5175 26.5745 26.6668 26.5743H59.1657C59.3151 26.5745 59.4628 26.6053 59.5997 26.665C59.7367 26.7246 59.8599 26.8118 59.9617 26.9211C60.0635 27.0303 60.1418 27.1594 60.1917 27.3002C60.2415 27.441 60.2619 27.5905 60.2515 27.7395L57.84 62.0318Z" fill="#8AC2FF"/>
    <path d="M57.84 62.0318C57.7852 62.7905 57.4682 63.5065 56.9434 64.0572C56.4187 64.6079 55.7188 64.959 54.9636 65.0503C46.9479 66.0137 38.845 66.0025 30.832 65.0171C30.0825 64.9237 29.3889 64.5721 28.8705 64.0228C28.3521 63.4734 28.0413 62.7606 27.9916 62.0069L25.581 27.7395C25.5706 27.5905 25.591 27.441 25.6409 27.3002C25.6907 27.1594 25.769 27.0303 25.8708 26.9211C25.9726 26.8118 26.0959 26.7246 26.2328 26.665C26.3697 26.6053 26.5175 26.5745 26.6668 26.5743H59.1657C59.3151 26.5745 59.4628 26.6053 59.5997 26.665C59.7367 26.7246 59.8599 26.8118 59.9617 26.9211C60.0635 27.0303 60.1418 27.1594 60.1916 27.3002C60.2415 27.441 60.2619 27.5905 60.2515 27.7395L57.84 62.0318Z" stroke="#003670" stroke-linecap="round" stroke-linejoin="round"/>
    <path d="M43.2484 31.7865H42.5842C42.0747 31.7865 41.6616 32.1995 41.6616 32.709V57.3212C41.6616 57.8307 42.0747 58.2437 42.5842 58.2437H43.2484C43.7579 58.2437 44.1709 57.8307 44.1709 57.3212V32.709C44.1709 32.1995 43.7579 31.7865 43.2484 31.7865Z" fill="white" stroke="#003670" stroke-linecap="round" stroke-linejoin="round"/>
    <path d="M51.8223 58.2169C51.7919 58.2169 51.7605 58.2169 51.73 58.2169L51.0704 58.1459C50.8272 58.1214 50.6036 58.0014 50.4487 57.8122C50.2939 57.6229 50.2206 57.38 50.2448 57.1367L52.6895 32.6453C52.7123 32.4181 52.8186 32.2074 52.9878 32.054C53.1571 31.9007 53.3772 31.8155 53.6055 31.8151C53.6364 31.8152 53.6672 31.817 53.6978 31.8206L54.3583 31.8861C54.4793 31.8976 54.5968 31.933 54.704 31.99C54.8113 32.0471 54.9062 32.1248 54.9834 32.2187C55.0605 32.3125 55.1183 32.4207 55.1536 32.537C55.1888 32.6533 55.2007 32.7754 55.1886 32.8963L52.7393 57.3857C52.7167 57.6133 52.6103 57.8243 52.4409 57.9779C52.2714 58.1315 52.051 58.2167 51.8223 58.2169Z" fill="white" stroke="#003670" stroke-linecap="round" stroke-linejoin="round"/>
    <path d="M34.0092 58.2169C33.7809 58.2163 33.5611 58.131 33.392 57.9777C33.223 57.8243 33.1168 57.6137 33.094 57.3867L30.6484 32.8963C30.6363 32.7754 30.6482 32.6533 30.6834 32.537C30.7186 32.4207 30.7765 32.3125 30.8536 32.2187C30.9308 32.1248 31.0257 32.0471 31.133 31.99C31.2402 31.933 31.3577 31.8976 31.4787 31.8861L32.1401 31.8206C32.1707 31.817 32.2015 31.8151 32.2324 31.8151C32.4607 31.8155 32.6808 31.9007 32.8501 32.054C33.0193 32.2074 33.1256 32.4181 33.1484 32.6453L35.5904 57.1367C35.6023 57.2575 35.5903 57.3795 35.555 57.4957C35.5198 57.6118 35.4619 57.7199 35.3848 57.8137C35.3076 57.9074 35.2127 57.985 35.1055 58.0421C34.9984 58.0991 34.881 58.1344 34.7601 58.1459L34.0996 58.2123C34.0719 58.2151 34.0405 58.2169 34.0092 58.2169Z" fill="white" stroke="#003670" stroke-linecap="round" stroke-linejoin="round"/>
    <path d="M28.415 10.1597L23.5256 11.4946L28.1244 4.68445L29.1448 8.92809C29.2081 9.18801 29.1672 9.4624 29.0309 9.69257C28.8945 9.92273 28.6735 10.0904 28.415 10.1597Z" fill="#E0EFFF" stroke="#003670" stroke-linecap="round" stroke-linejoin="round"/>
    <path d="M79.9695 43.4132C80.0004 43.5303 80.008 43.6524 79.9917 43.7725C79.9754 43.8925 79.9356 44.0082 79.8746 44.1129C79.8136 44.2176 79.7326 44.3092 79.6362 44.3826C79.5398 44.456 79.4299 44.5096 79.3127 44.5405L69.199 47.2057C69.0819 47.2366 68.9598 47.2441 68.8397 47.2278C68.7197 47.2115 68.604 47.1718 68.4993 47.1108C68.3946 47.0498 68.303 46.9688 68.2296 46.8724C68.1562 46.7759 68.1026 46.666 68.0717 46.5489L65.2773 35.9591C65.2464 35.842 65.2389 35.7199 65.2552 35.5998C65.2715 35.4798 65.3113 35.3641 65.3723 35.2594C65.4332 35.1547 65.5143 35.0631 65.6107 34.9897C65.7071 34.9164 65.817 34.8627 65.9342 34.8318L76.0469 32.1583C76.1641 32.1274 76.2862 32.1199 76.4062 32.1362C76.5263 32.1525 76.642 32.1922 76.7467 32.2532C76.8513 32.3142 76.943 32.3953 77.0164 32.4917C77.0897 32.5881 77.1434 32.698 77.1743 32.8152L79.9695 43.4132Z" fill="white" stroke="#003670" stroke-linecap="round" stroke-linejoin="round"/>
    <path d="M75.586 34.2081L67.3359 36.3837L69.2826 43.7657L77.5326 41.5901L75.586 34.2081Z" fill="#8AC2FF" stroke="#003670" stroke-linecap="round" stroke-linejoin="round"/>
    <path d="M6.53436 16.4209C6.33333 16.524 6.17137 16.6898 6.07299 16.8933C5.97462 17.0967 5.94518 17.3266 5.98914 17.5482L7.27515 24.0401C7.29931 24.1615 7.29879 24.2865 7.27362 24.4077C7.24845 24.5289 7.19915 24.6438 7.12865 24.7455C7.05815 24.8473 6.9679 24.9338 6.86326 24.9999C6.75863 25.0661 6.64175 25.1105 6.5196 25.1305C6.28224 25.1697 6.05132 25.2411 5.83324 25.3427C5.25596 25.6197 4.80116 26.0999 4.55594 26.6914C4.31073 27.2828 4.29233 27.944 4.50428 28.5482C4.71623 29.1524 5.14362 29.6571 5.7046 29.9658C6.26558 30.2745 6.92072 30.3653 7.54453 30.221C8.20734 30.0427 8.77624 29.6164 9.13357 29.0303C9.4909 28.4443 9.60931 27.7433 9.46431 27.0724L8.14048 20.397C8.10098 20.1939 8.1309 19.9834 8.22543 19.7994C8.31996 19.6153 8.47362 19.4684 8.66171 19.3822L14.2283 16.8323C14.3551 16.7738 14.4935 16.7449 14.6331 16.7477C14.7727 16.7505 14.9099 16.785 15.0342 16.8485C15.1586 16.912 15.2669 17.0029 15.351 17.1144C15.4351 17.2258 15.4928 17.3549 15.5198 17.4919L16.0521 20.1802C16.0763 20.3016 16.0757 20.4266 16.0506 20.5478C16.0254 20.669 15.9761 20.7839 15.9056 20.8857C15.8351 20.9874 15.7448 21.0739 15.6402 21.1401C15.5356 21.2062 15.4187 21.2506 15.2965 21.2706C14.9508 21.3261 14.6199 21.4508 14.3236 21.6373C14.0272 21.8238 13.7716 22.0682 13.572 22.3559C13.3724 22.6436 13.233 22.9686 13.162 23.3114C13.0911 23.6543 13.0901 24.008 13.1592 24.3512C13.2282 24.6945 13.3659 25.0203 13.5639 25.309C13.7619 25.5978 14.0161 25.8436 14.3114 26.0317C14.6067 26.2198 14.937 26.3464 15.2824 26.4038C15.6278 26.4612 15.9812 26.4483 16.3215 26.3658C16.9861 26.1874 17.5567 25.7602 17.9151 25.1727C18.2735 24.5852 18.3923 23.8824 18.2468 23.2098L16.2117 12.9466C16.1803 12.7887 16.1127 12.6402 16.0142 12.5128C15.9158 12.3855 15.7891 12.2827 15.6441 12.2126C15.4992 12.1425 15.3399 12.107 15.1789 12.1088C15.0179 12.1107 14.8596 12.1499 14.7163 12.2234L6.53436 16.4209Z" fill="white"/>
    <path d="M6.53436 16.4209C6.33333 16.524 6.17137 16.6898 6.07299 16.8933C5.97462 17.0967 5.94518 17.3266 5.98914 17.5482L7.27515 24.0401C7.29931 24.1615 7.29879 24.2865 7.27362 24.4077C7.24845 24.5289 7.19915 24.6438 7.12865 24.7455C7.05815 24.8473 6.9679 24.9338 6.86326 24.9999C6.75863 25.0661 6.64175 25.1105 6.5196 25.1305C6.28224 25.1697 6.05132 25.2411 5.83324 25.3427C5.25596 25.6197 4.80116 26.0999 4.55594 26.6914C4.31073 27.2828 4.29233 27.944 4.50428 28.5482C4.71623 29.1524 5.14362 29.6571 5.7046 29.9658C6.26558 30.2745 6.92072 30.3653 7.54453 30.221C8.20734 30.0427 8.77624 29.6164 9.13357 29.0303C9.4909 28.4443 9.60931 27.7433 9.46431 27.0724L8.14048 20.397C8.10098 20.1939 8.1309 19.9834 8.22543 19.7994C8.31996 19.6153 8.47362 19.4684 8.66171 19.3822L14.2283 16.8323C14.3551 16.7738 14.4935 16.7449 14.6331 16.7477C14.7727 16.7505 14.9099 16.785 15.0342 16.8485C15.1586 16.912 15.2669 17.0029 15.351 17.1144C15.4351 17.2258 15.4928 17.3549 15.5198 17.4919L16.0521 20.1802C16.0763 20.3016 16.0757 20.4266 16.0506 20.5478C16.0254 20.669 15.9761 20.7839 15.9056 20.8857C15.8351 20.9874 15.7448 21.0739 15.6402 21.1401C15.5356 21.2062 15.4187 21.2506 15.2965 21.2706C14.9508 21.3261 14.6199 21.4508 14.3236 21.6373C14.0272 21.8238 13.7716 22.0682 13.572 22.3559C13.3724 22.6436 13.233 22.9686 13.162 23.3114C13.0911 23.6543 13.0901 24.008 13.1592 24.3512C13.2282 24.6945 13.3659 25.0203 13.5639 25.309C13.7619 25.5978 14.0161 25.8436 14.3114 26.0317C14.6067 26.2198 14.937 26.3464 15.2824 26.4038C15.6278 26.4612 15.9812 26.4483 16.3215 26.3658C16.9861 26.1874 17.5567 25.7602 17.9151 25.1727C18.2735 24.5852 18.3923 23.8824 18.2468 23.2098L16.2117 12.9466C16.1803 12.7887 16.1127 12.6402 16.0142 12.5128C15.9158 12.3855 15.7891 12.2827 15.6441 12.2126C15.4992 12.1425 15.3399 12.107 15.1789 12.1088C15.0179 12.1107 14.8596 12.1499 14.7163 12.2234L6.53436 16.4209Z" stroke="#003670" stroke-linecap="round" stroke-linejoin="round"/>
    <path d="M10.6857 47.1679L10.5067 47.8072C10.3749 48.2784 10.4356 48.7828 10.6756 49.2092C10.9155 49.6357 11.3151 49.9494 11.7863 50.0812L14.2024 50.7575L15.3768 46.5646L12.9598 45.8883C12.4885 45.7565 11.9842 45.8172 11.5577 46.0571C11.1313 46.2971 10.8176 46.6967 10.6857 47.1679Z" fill="#E0EFFF" stroke="#003670" stroke-linecap="round" stroke-linejoin="round"/>
    <path d="M25.02 32.3087L15.041 67.9525L12.6369 67.28C12.4149 67.2138 12.2194 67.0796 12.0777 66.8964C11.9361 66.7132 11.8554 66.4902 11.8472 66.2588C11.0924 54.1193 14.4627 42.0812 21.411 32.0984C21.5385 31.9052 21.7232 31.7569 21.9393 31.6741C22.1554 31.5914 22.392 31.5785 22.6159 31.6371L25.02 32.3087Z" fill="#8AC2FF"/>
    <path d="M25.02 32.3087L15.041 67.9525L12.6369 67.28C12.4149 67.2138 12.2194 67.0796 12.0777 66.8964C11.9361 66.7132 11.8554 66.4902 11.8472 66.2588C11.0924 54.1193 14.4627 42.0812 21.411 32.0984C21.5385 31.9052 21.7232 31.7569 21.9393 31.6741C22.1554 31.5914 22.392 31.5785 22.6159 31.6371L25.02 32.3087Z" stroke="#003670" stroke-linecap="round" stroke-linejoin="round"/>
    <path d="M25.1806 32.353C25.2973 32.3857 25.4063 32.4411 25.5016 32.5159C25.5969 32.5908 25.6765 32.6837 25.7359 32.7893C25.7952 32.8949 25.8332 33.0112 25.8476 33.1315C25.862 33.2518 25.8526 33.3738 25.8199 33.4905L16.3381 67.3547C16.3054 67.4714 16.2501 67.5805 16.1752 67.6757C16.1004 67.771 16.0075 67.8506 15.9018 67.91C15.7962 67.9694 15.6799 68.0073 15.5596 68.0218C15.4393 68.0362 15.3173 68.0267 15.2007 67.994L12.9451 67.3621L22.9241 31.7211L25.1806 32.353Z" fill="#8AC2FF" stroke="#003670" stroke-linecap="round" stroke-linejoin="round"/>
    <path d="M66.7045 71.7755H51.8185C51.665 71.7772 51.5133 71.7418 51.3763 71.6724C51.2394 71.6031 51.1211 71.5017 51.0316 71.377C46.442 64.6748 46.7345 57.8047 48.395 50.8802C48.4496 50.6839 48.5683 50.5115 48.7321 50.3903C48.8958 50.2692 49.0954 50.2062 49.2991 50.2114H64.0596C64.1911 50.2058 64.3222 50.2299 64.4431 50.2821C64.564 50.3342 64.6715 50.413 64.7577 50.5125C64.8439 50.612 64.9066 50.7297 64.9409 50.8568C64.9753 50.9838 64.9806 51.117 64.9563 51.2464C63.5872 57.5953 64.5107 64.0382 67.5394 70.5688C67.5977 70.7036 67.6207 70.8509 67.6062 70.9971C67.5918 71.1432 67.5404 71.2832 67.4569 71.4039C67.3733 71.5247 67.2604 71.6221 67.1288 71.6871C66.9972 71.7521 66.8511 71.7826 66.7045 71.7755Z" fill="white" stroke="#003670" stroke-linecap="round" stroke-linejoin="round"/>
    <path d="M50.9773 60.2172H61.2838" stroke="#003670" stroke-linecap="round" stroke-linejoin="round"/>
    <path d="M51.8416 64.2255H62.149" stroke="#003670" stroke-linecap="round" stroke-linejoin="round"/>
    <path d="M53.1101 68.2339H63.4175" stroke="#003670" stroke-linecap="round" stroke-linejoin="round"/>
</svg>
