<svg viewBox="0 0 82 75" fill="none" xmlns="http://www.w3.org/2000/svg">
    <path d="M39.9726 74.5888C60.5698 74.5888 77.267 57.8915 77.267 37.2944C77.267 16.6973 60.5698 0 39.9726 0C19.3755 0 2.67822 16.6973 2.67822 37.2944C2.67822 57.8915 19.3755 74.5888 39.9726 74.5888Z" fill="#E0EFFF"/>
    <path d="M80.9583 27.6643L77.8759 8.78585C77.8131 8.46697 77.68 8.16609 77.4864 7.90511C77.2927 7.64413 77.0432 7.42962 76.7562 7.27718C76.4692 7.12473 76.1518 7.03819 75.8271 7.02386C75.5024 7.00952 75.1786 7.06775 74.8793 7.19431L45.7551 19.5052C45.2922 19.7008 44.9107 20.0499 44.675 20.4938C44.4393 20.9377 44.3637 21.4493 44.461 21.9424L47.5434 40.8208C47.6062 41.1397 47.7392 41.4406 47.9329 41.7015C48.1266 41.9625 48.3761 42.177 48.6631 42.3295C48.9501 42.4819 49.2675 42.5684 49.5922 42.5828C49.9169 42.5971 50.2407 42.5389 50.54 42.4123L79.6604 30.1052C80.1248 29.9101 80.5076 29.5606 80.7441 29.1159C80.9806 28.6711 81.0562 28.1584 80.9583 27.6643V27.6643Z" fill="white"/>
    <path d="M80.9582 27.6642C81.0555 28.1573 80.9799 28.6688 80.7442 29.1127C80.5085 29.5566 80.1271 29.9058 79.6641 30.1014L50.5437 42.4085C50.2444 42.5351 49.9206 42.5933 49.5959 42.579C49.2712 42.5647 48.9538 42.4781 48.6668 42.3257C48.3798 42.1732 48.1303 41.9587 47.9366 41.6977C47.743 41.4368 47.6099 41.1359 47.5471 40.817L44.4647 21.9423C44.3672 21.4497 44.4422 20.9385 44.6772 20.4946C44.9122 20.0508 45.2928 19.7014 45.7551 19.5051L74.8755 7.19797C75.1749 7.07141 75.4987 7.01318 75.8233 7.02752C76.148 7.04185 76.4654 7.12839 76.7525 7.28084C77.0395 7.43328 77.2889 7.64779 77.4826 7.90877C77.6763 8.16975 77.8094 8.47063 77.8721 8.78951L80.9582 27.6642Z" stroke="#003670" stroke-linecap="round" stroke-linejoin="round"/>
    <path d="M60.271 24.9019C61.0876 25.1001 61.944 25.0588 62.7378 24.7828C63.5315 24.5068 64.2289 24.0079 64.7463 23.3457L76.2898 7.09564C75.8217 6.97134 75.3255 7.0061 74.8792 7.19447L45.7551 19.5054C45.3421 19.6796 44.9927 19.9768 44.7546 20.3566L60.271 24.9019Z" fill="white" stroke="#003670" stroke-linecap="round" stroke-linejoin="round"/>
    <path d="M21.1511 43.3362L39.8347 35.4373" stroke="#003670" stroke-linecap="round" stroke-linejoin="round"/>
    <path d="M20.2178 49.6661L40.1647 41.2329" stroke="#003670" stroke-linecap="round" stroke-linejoin="round"/>
    <path d="M15.7256 51.5644L17.7404 50.7131" stroke="#003670" stroke-linecap="round" stroke-linejoin="round"/>
    <path d="M12.7048 52.8415L13.2083 52.6289" stroke="#003670" stroke-linecap="round" stroke-linejoin="round"/>
    <path d="M13.5972 46.5285L14.1006 46.3159" stroke="#003670" stroke-linecap="round" stroke-linejoin="round"/>
    <path d="M15.4973 39.7907L16.0008 39.5781" stroke="#003670" stroke-linecap="round" stroke-linejoin="round"/>
    <path d="M16.6189 45.2514L18.6328 44.4001" stroke="#003670" stroke-linecap="round" stroke-linejoin="round"/>
    <path d="M23.0503 36.5972L39.3079 29.7239" stroke="#003670" stroke-linecap="round" stroke-linejoin="round"/>
    <path d="M18.5181 38.5131L20.5329 37.6619" stroke="#003670" stroke-linecap="round" stroke-linejoin="round"/>
    <path d="M57.2214 24.0083L48.667 42.3292" stroke="#003670" stroke-linecap="round" stroke-linejoin="round"/>
    <path d="M66.4907 20.8896L80.9731 28.4222" stroke="#003670" stroke-linecap="round" stroke-linejoin="round"/>
    <path d="M37.1438 23.0388L35.5644 13.3674C35.5325 13.2039 35.4645 13.0497 35.3654 12.9158C35.2663 12.782 35.1385 12.672 34.9915 12.5938C34.8444 12.5156 34.6818 12.4713 34.5154 12.464C34.349 12.4567 34.1831 12.4866 34.0297 12.5516L19.112 18.859C18.8747 18.959 18.6792 19.1378 18.5584 19.3653C18.4376 19.5927 18.399 19.8548 18.4491 20.1074L20.022 29.7797C20.054 29.9432 20.122 30.0975 20.2213 30.2313C20.3205 30.3651 20.4484 30.4751 20.5955 30.5532C20.7427 30.6313 20.9054 30.6755 21.0719 30.6827C21.2383 30.6899 21.4042 30.6598 21.5576 30.5946L36.4753 24.2881C36.7138 24.189 36.9107 24.0105 37.0326 23.7828C37.1544 23.555 37.1937 23.2922 37.1438 23.0388V23.0388Z" fill="#C2DFFF"/>
    <path d="M37.144 23.0388C37.1943 23.2915 37.1558 23.5538 37.035 23.7815C36.9142 24.0091 36.7185 24.1881 36.4811 24.2881L21.5633 30.5946C21.4097 30.6608 21.2432 30.6917 21.0761 30.6851C20.909 30.6784 20.7455 30.6344 20.5976 30.5562C20.4497 30.478 20.3213 30.3677 20.2217 30.2333C20.1221 30.0989 20.0539 29.9439 20.0221 29.7797L18.4474 20.1074C18.3973 19.8548 18.4359 19.5927 18.5567 19.3653C18.6775 19.1378 18.873 18.959 19.1103 18.859L34.028 12.5516C34.1814 12.4866 34.3473 12.4567 34.5137 12.464C34.68 12.4713 34.8427 12.5156 34.9898 12.5938C35.1368 12.672 35.2646 12.782 35.3637 12.9158C35.4628 13.0497 35.5308 13.2039 35.5627 13.3674L37.144 23.0388Z" stroke="#003670" stroke-linecap="round" stroke-linejoin="round"/>
    <path d="M26.5485 21.6244C26.9669 21.7261 27.4058 21.7048 27.8124 21.5633C28.2191 21.4217 28.5763 21.1658 28.8411 20.8263L34.7532 12.5012C34.5135 12.4374 34.2593 12.4552 34.0307 12.5516L19.1129 18.859C18.9012 18.9484 18.7222 19.1007 18.6001 19.2954L26.5485 21.6244Z" stroke="#003670" stroke-linecap="round" stroke-linejoin="round"/>
    <path d="M24.9831 21.1667L20.6001 30.5528" stroke="#003670" stroke-linecap="round" stroke-linejoin="round"/>
    <path d="M29.7314 19.5684L37.1512 23.4274" stroke="#003670" stroke-linecap="round" stroke-linejoin="round"/>
    <path d="M1 35.5304L1.42982 35.3486" stroke="#003670" stroke-linecap="round" stroke-linejoin="round"/>
    <path d="M2.62036 29.7843L3.04925 29.6025" stroke="#003670" stroke-linecap="round" stroke-linejoin="round"/>
    <path d="M7.44067 32.807L16.423 29.0095" stroke="#003670" stroke-linecap="round" stroke-linejoin="round"/>
    <path d="M3.57617 34.4407L5.29451 33.7153" stroke="#003670" stroke-linecap="round" stroke-linejoin="round"/>
    <path d="M9.06128 27.0609L15.502 24.3384" stroke="#003670" stroke-linecap="round" stroke-linejoin="round"/>
    <path d="M5.19653 28.6953L6.91394 27.969" stroke="#003670" stroke-linecap="round" stroke-linejoin="round"/>
    <path d="M58.634 56.501L57.0546 46.8297C57.0227 46.6661 56.9547 46.5117 56.8555 46.3778C56.7563 46.2439 56.6285 46.1338 56.4813 46.0556C56.3342 45.9774 56.1714 45.9331 56.0049 45.9259C55.8384 45.9186 55.6724 45.9487 55.519 46.0139L40.6012 52.3213C40.3639 52.4213 40.1684 52.6001 40.0477 52.8275C39.9269 53.055 39.8883 53.3171 39.9383 53.5697L41.5159 63.242C41.5483 63.4052 41.6168 63.559 41.7162 63.6924C41.8156 63.8258 41.9435 63.9353 42.0906 64.013C42.2377 64.0907 42.4003 64.1347 42.5665 64.1416C42.7327 64.1485 42.8984 64.1183 43.0515 64.0532L57.9692 57.7467C58.2063 57.6471 58.4018 57.4688 58.5229 57.242C58.644 57.0151 58.6832 56.7534 58.634 56.501V56.501Z" fill="#C2DFFF"/>
    <path d="M58.6339 56.501C58.6842 56.7538 58.6457 57.0161 58.5249 57.2438C58.4041 57.4714 58.2085 57.6503 57.971 57.7504L43.0514 64.0531C42.8981 64.1183 42.7321 64.1484 42.5657 64.1412C42.3992 64.1341 42.2365 64.0898 42.0894 64.0117C41.9422 63.9337 41.8143 63.8237 41.7151 63.6899C41.6159 63.556 41.5478 63.4018 41.5158 63.2383L39.9364 53.5697C39.8863 53.3171 39.9249 53.055 40.0457 52.8275C40.1665 52.6001 40.362 52.4213 40.5993 52.3213L55.517 46.0139C55.6704 45.9487 55.8364 45.9186 56.0029 45.9259C56.1694 45.9331 56.3322 45.9774 56.4794 46.0556C56.6265 46.1338 56.7544 46.2439 56.8536 46.3778C56.9528 46.5117 57.0208 46.6661 57.0526 46.8297L58.6339 56.501Z" stroke="#003670" stroke-linecap="round" stroke-linejoin="round"/>
    <path d="M48.0347 55.0868C48.4525 55.1878 48.8906 55.1663 49.2965 55.025C49.7024 54.8836 50.059 54.6283 50.3237 54.2896L56.2377 45.9637C55.9979 45.8998 55.7437 45.9176 55.5151 46.014L40.5973 52.3214C40.386 52.4109 40.2073 52.5632 40.0854 52.7578L48.0347 55.0868Z" stroke="#003670" stroke-linecap="round" stroke-linejoin="round"/>
    <path d="M46.4721 54.6289L42.0891 64.015" stroke="#003670" stroke-linecap="round" stroke-linejoin="round"/>
    <path d="M51.2214 53.0308L58.6412 56.8898" stroke="#003670" stroke-linecap="round" stroke-linejoin="round"/>
    <path d="M22.49 68.9928L22.9189 68.811" stroke="#003670" stroke-linecap="round" stroke-linejoin="round"/>
    <path d="M24.1096 63.2468L24.5394 63.0649" stroke="#003670" stroke-linecap="round" stroke-linejoin="round"/>
    <path d="M28.9307 66.2694L37.913 62.4719" stroke="#003670" stroke-linecap="round" stroke-linejoin="round"/>
    <path d="M25.0662 67.9038L26.7836 67.1775" stroke="#003670" stroke-linecap="round" stroke-linejoin="round"/>
    <path d="M30.5503 60.5233L36.991 57.8008" stroke="#003670" stroke-linecap="round" stroke-linejoin="round"/>
    <path d="M26.6855 62.1577L28.403 61.4314" stroke="#003670" stroke-linecap="round" stroke-linejoin="round"/>
</svg>
