<svg viewBox="0 0 80 80" fill="none" xmlns="http://www.w3.org/2000/svg">
    <path d="M40 80C62.0914 80 80 62.0914 80 40C80 17.9086 62.0914 0 40 0C17.9086 0 0 17.9086 0 40C0 62.0914 17.9086 80 40 80Z" fill="#E0EFFF"/>
    <path d="M18.2069 18.1521H18.2071H60.6421L60.6423 18.1521C60.8863 18.152 61.128 18.2 61.3534 18.2933C61.5788 18.3866 61.7837 18.5235 61.9562 18.696C62.1288 18.8685 62.2656 19.0734 62.3589 19.2988C62.4522 19.5243 62.5002 19.7659 62.5001 20.0099V20.0101V45.1951C62.5001 45.6879 62.3044 46.1605 61.9559 46.5089C61.6075 46.8573 61.1349 47.0531 60.6421 47.0531H18.2071C17.7143 47.0531 17.2418 46.8573 16.8933 46.5089C16.5449 46.1605 16.3491 45.6879 16.3491 45.1951V20.0101L16.3491 20.0099C16.349 19.7659 16.397 19.5243 16.4903 19.2988C16.5837 19.0734 16.7205 18.8685 16.893 18.696C17.0656 18.5235 17.2704 18.3866 17.4958 18.2933C17.7213 18.2 17.9629 18.152 18.2069 18.1521Z" fill="white" stroke="#003670"/>
    <path d="M18.2071 17.6521H60.6421C60.9518 17.652 61.2585 17.7129 61.5446 17.8313C61.8308 17.9498 62.0908 18.1235 62.3098 18.3424C62.5288 18.5614 62.7024 18.8214 62.8209 19.1076C62.9394 19.3937 63.0003 19.7004 63.0001 20.0101V45.1951C63.0001 45.8205 62.7517 46.4202 62.3095 46.8625C61.8673 47.3047 61.2675 47.5531 60.6421 47.5531H18.2071C17.5817 47.5531 16.982 47.3047 16.5398 46.8625C16.0976 46.4202 15.8491 45.8205 15.8491 45.1951V20.0101C15.849 19.7004 15.9099 19.3937 16.0283 19.1076C16.1468 18.8214 16.3205 18.5614 16.5395 18.3424C16.7585 18.1235 17.0185 17.9498 17.3046 17.8313C17.5907 17.7129 17.8974 17.652 18.2071 17.6521V17.6521Z" stroke="#003670" stroke-linecap="round" stroke-linejoin="round"/>
    <path d="M17.5991 47.473L35.0121 31.801" stroke="#003670" stroke-linecap="round" stroke-linejoin="round"/>
    <path d="M61.2511 47.473L43.8381 31.801" stroke="#003670" stroke-linecap="round" stroke-linejoin="round"/>
    <path d="M60.6422 17.6521H18.2072C17.7762 17.6521 17.3534 17.7702 16.9849 17.9938C16.6164 18.2174 16.3162 18.5378 16.1172 18.9201L38.1902 33.9681C38.5593 34.203 38.9877 34.3278 39.4252 34.3278C39.8627 34.3278 40.2911 34.203 40.6602 33.9681L62.7332 18.9201C62.5338 18.5378 62.2335 18.2175 61.8648 17.994C61.4962 17.7704 61.0733 17.6522 60.6422 17.6521Z" fill="white" stroke="#003670" stroke-linecap="round" stroke-linejoin="round"/>
    <path d="M50.425 62.2722C50.425 61.4442 45.5 60.7722 39.425 60.7722C33.35 60.7722 28.425 61.4442 28.425 62.2722C28.425 63.1002 33.35 63.7722 39.425 63.7722C45.5 63.7722 50.425 63.1002 50.425 62.2722Z" fill="#8AC2FF"/>
    <path d="M75.3152 45.9213C76.7305 37.1988 70.807 28.9804 62.0845 27.5651C53.3621 26.1497 45.1437 32.0732 43.7283 40.7957C42.3129 49.5182 48.2365 57.7365 56.9589 59.1519C65.6814 60.5673 73.8998 54.6437 75.3152 45.9213Z" fill="#8AC2FF" stroke="#003670" stroke-linejoin="round"/>
    <path d="M61.3111 32.2131C67.4648 33.2106 71.6446 39.0078 70.6471 45.1615C69.6495 51.3151 63.8523 55.495 57.6987 54.4974C51.545 53.4999 47.3652 47.7027 48.3627 41.549C49.3603 35.3953 55.1575 31.2155 61.3111 32.2131Z" fill="white" stroke="#003670"/>
    <path d="M59.522 38.3062L59.553 43.3282H61.909" stroke="#003670" stroke-linecap="round" stroke-linejoin="round"/>
    <path d="M59.522 52.378V50.875" stroke="#003670" stroke-linecap="round" stroke-linejoin="round"/>
    <path d="M59.522 34.3401V35.8431" stroke="#003670" stroke-linecap="round" stroke-linejoin="round"/>
    <path d="M65.8989 36.9812L64.8359 38.0442" stroke="#003670" stroke-linecap="round" stroke-linejoin="round"/>
    <path d="M68.5408 43.3591H67.0378" stroke="#003670" stroke-linecap="round" stroke-linejoin="round"/>
    <path d="M65.8989 49.7361L64.8359 48.6731" stroke="#003670" stroke-linecap="round" stroke-linejoin="round"/>
    <path d="M53.145 49.7361L54.207 48.6731" stroke="#003670" stroke-linecap="round" stroke-linejoin="round"/>
    <path d="M50.5029 43.3591H52.0059" stroke="#003670" stroke-linecap="round" stroke-linejoin="round"/>
    <path d="M53.145 36.9812L54.207 38.0442" stroke="#003670" stroke-linecap="round" stroke-linejoin="round"/>
</svg>
