<svg viewBox="0 0 96 94" fill="none" xmlns="http://www.w3.org/2000/svg">
    <path d="M48.329 94C74.2864 94 95.329 72.9574 95.329 47C95.329 21.0426 74.2864 0 48.329 0C22.3716 0 1.329 21.0426 1.329 47C1.329 72.9574 22.3716 94 48.329 94Z" fill="#E0EFFF"/>
    <path d="M67.0655 36.66H8.59517C7.97191 36.66 7.37418 36.9076 6.93347 37.3483C6.49276 37.7891 6.24517 38.3868 6.24517 39.01V76.764H69.4155V39.01C69.4155 38.3868 69.1679 37.7891 68.7272 37.3483C68.2865 36.9076 67.6888 36.66 67.0655 36.66Z" fill="white" stroke="#003670" stroke-linecap="round" stroke-linejoin="round"/>
    <path d="M64.9564 41.1191H10.7666L10.7043 76.7639H64.9564V41.1191Z" fill="#8AC2FF"/>
    <path d="M64.9564 41.1191H10.7666L10.7043 76.7639H64.9564V41.1191Z" stroke="#003670" stroke-linecap="round" stroke-linejoin="round"/>
    <path d="M37.8304 87.2978C54.2484 87.2978 67.5579 86.4298 67.5579 85.3591C67.5579 84.2883 54.2484 83.4203 37.8304 83.4203C21.4123 83.4203 8.10286 84.2883 8.10286 85.3591C8.10286 86.4298 21.4123 87.2978 37.8304 87.2978Z" fill="#8AC2FF"/>
    <path d="M74.9897 81.2231H0.670998V77.9331C0.670998 77.6215 0.794792 77.3226 1.01515 77.1022C1.2355 76.8819 1.53437 76.7581 1.846 76.7581H73.8147C74.1264 76.7581 74.4252 76.8819 74.6456 77.1022C74.866 77.3226 74.9897 77.6215 74.9897 77.9331V81.2231Z" fill="white" stroke="#003670" stroke-linecap="round" stroke-linejoin="round"/>
    <path d="M74.9897 81.2231C68.0872 83.1956 60.9434 84.1961 53.7645 84.1958H21.8962C14.7174 84.1961 7.57355 83.1955 0.670998 81.2231H74.9897Z" fill="white" stroke="#003670" stroke-linecap="round" stroke-linejoin="round"/>
    <path d="M43.4703 67.3428C43.1075 67.3435 42.7481 67.2723 42.413 67.1333C42.0778 66.9944 41.7735 66.7904 41.5175 66.5333L37.8303 62.8461L34.1432 66.5333C33.8867 66.7896 33.5823 66.993 33.2473 67.1317C32.9122 67.2704 32.5531 67.3418 32.1905 67.3418C31.8279 67.3417 31.4688 67.2702 31.1338 67.1314C30.7988 66.9926 30.4945 66.7891 30.2381 66.5327C29.9817 66.2762 29.7784 65.9718 29.6396 65.6367C29.5009 65.3017 29.4295 64.9426 29.4296 64.58C29.4297 64.2174 29.5011 63.8583 29.64 63.5233C29.7788 63.1883 29.9822 62.8839 30.2387 62.6276L33.9258 58.9392L30.2387 55.2509C29.7408 54.7291 29.4668 54.0333 29.4754 53.3121C29.4839 52.591 29.7742 51.9018 30.2842 51.3919C30.7942 50.8821 31.4835 50.592 32.2047 50.5837C32.9258 50.5754 33.6216 50.8495 34.1432 51.3476L37.8303 55.0359L41.5175 51.3476C42.0353 50.8296 42.7376 50.5386 43.4699 50.5385C44.2023 50.5384 44.9047 50.8292 45.4226 51.347C45.9405 51.8647 46.2316 52.5671 46.2317 53.2994C46.2318 54.0318 45.941 54.7342 45.4232 55.2521L41.7349 58.9404L45.4232 62.6276C45.8091 63.0138 46.0718 63.5058 46.1782 64.0413C46.2846 64.5768 46.2298 65.1318 46.0208 65.6362C45.8118 66.1406 45.458 66.5718 45.004 66.8751C44.55 67.1784 44.0163 67.3404 43.4703 67.3405V67.3428Z" fill="white" stroke="#003670" stroke-linecap="round" stroke-linejoin="round"/>
    <path d="M88.7607 6.64112H45.9567C43.7886 6.64112 42.031 8.39871 42.031 10.5668V43.0732C42.031 45.2413 43.7886 46.9988 45.9567 46.9988H88.7607C90.9288 46.9988 92.6864 45.2413 92.6864 43.0732V10.5668C92.6864 8.39871 90.9288 6.64112 88.7607 6.64112Z" fill="#8AC2FF"/>
    <path d="M88.7607 6.64112H45.9567C43.7886 6.64112 42.031 8.39871 42.031 10.5668V43.0732C42.031 45.2413 43.7886 46.9988 45.9567 46.9988H88.7607C90.9288 46.9988 92.6864 45.2413 92.6864 43.0732V10.5668C92.6864 8.39871 90.9288 6.64112 88.7607 6.64112Z" stroke="#003670" stroke-linejoin="round"/>
    <path d="M88.7607 6.64112H45.9567C45.441 6.64112 44.9305 6.7427 44.4541 6.94006C43.9777 7.13741 43.5449 7.42668 43.1804 7.79134C42.8158 8.156 42.5267 8.5889 42.3295 9.06532C42.1323 9.54174 42.0308 10.0523 42.031 10.568V15.98H92.6864V10.568C92.6866 10.0523 92.5851 9.54174 92.3879 9.06532C92.1907 8.5889 91.9016 8.156 91.537 7.79134C91.1725 7.42668 90.7397 7.13741 90.2633 6.94006C89.7869 6.7427 89.2764 6.64112 88.7607 6.64112V6.64112Z" fill="white"/>
    <path d="M88.7607 6.64112H45.9567C44.9155 6.64112 43.917 7.05472 43.1808 7.79092C42.4446 8.52713 42.031 9.52564 42.031 10.5668V15.98H92.6864V10.5668C92.6864 10.0513 92.5849 9.54079 92.3876 9.0645C92.1903 8.58822 91.9011 8.15546 91.5366 7.79092C91.1721 7.42639 90.7393 7.13723 90.263 6.93994C89.7867 6.74266 89.2763 6.64112 88.7607 6.64112V6.64112Z" stroke="#003670" stroke-linejoin="round"/>
    <path d="M47.9201 13.2493C49.0045 13.2493 49.8835 12.3703 49.8835 11.2859C49.8835 10.2015 49.0045 9.32247 47.9201 9.32247C46.8357 9.32247 45.9567 10.2015 45.9567 11.2859C45.9567 12.3703 46.8357 13.2493 47.9201 13.2493Z" fill="#8AC2FF" stroke="#003670" stroke-linejoin="round"/>
    <path d="M55.7714 13.2493C56.8558 13.2493 57.7348 12.3703 57.7348 11.2859C57.7348 10.2015 56.8558 9.32247 55.7714 9.32247C54.687 9.32247 53.808 10.2015 53.808 11.2859C53.808 12.3703 54.687 13.2493 55.7714 13.2493Z" fill="#8AC2FF" stroke="#003670" stroke-linejoin="round"/>
    <path d="M63.6228 13.2493C64.7072 13.2493 65.5862 12.3703 65.5862 11.2859C65.5862 10.2015 64.7072 9.32247 63.6228 9.32247C62.5384 9.32247 61.6594 10.2015 61.6594 11.2859C61.6594 12.3703 62.5384 13.2493 63.6228 13.2493Z" fill="#8AC2FF" stroke="#003670" stroke-linejoin="round"/>
    <path d="M55.0487 31.9259C56.1195 31.9259 56.9875 31.0579 56.9875 29.9872C56.9875 28.9164 56.1195 28.0484 55.0487 28.0484C53.978 28.0484 53.11 28.9164 53.11 29.9872C53.11 31.0579 53.978 31.9259 55.0487 31.9259Z" fill="white" stroke="#003670" stroke-miterlimit="10"/>
    <path d="M79.6062 31.9259C80.677 31.9259 81.545 31.0579 81.545 29.9872C81.545 28.9164 80.677 28.0484 79.6062 28.0484C78.5355 28.0484 77.6675 28.9164 77.6675 29.9872C77.6675 31.0579 78.5355 31.9259 79.6062 31.9259Z" fill="white" stroke="#003670" stroke-miterlimit="10"/>
    <path d="M61.7841 36.5767C61.561 36.5766 61.3409 36.603 61.1405 36.6537C60.9401 36.7045 60.7647 36.7783 60.6277 36.8696C60.4906 36.9608 60.3956 37.0671 60.3498 37.1803C60.304 37.2934 60.3087 37.4105 60.3634 37.5227C60.7639 38.3361 61.6755 39.0573 62.9543 39.5724C64.233 40.0874 65.8062 40.367 67.4255 40.367C69.0447 40.367 70.6179 40.0874 71.8967 39.5724C73.1754 39.0573 74.087 38.3361 74.4875 37.5227C74.5422 37.4105 74.5469 37.2934 74.5011 37.1803C74.4553 37.0671 74.3603 36.9608 74.2233 36.8696C74.0862 36.7783 73.9108 36.7045 73.7104 36.6537C73.51 36.603 73.2899 36.5766 73.0668 36.5767C71.2096 36.7823 69.3231 36.9087 67.4261 36.9546C65.5286 36.9088 63.6417 36.7824 61.7841 36.5767V36.5767Z" fill="white" stroke="#003670" stroke-linecap="round" stroke-linejoin="round"/>
    <rect x="47.7354" y="25.3887" width="8.47581" height="2.79032" rx="1.39516" transform="rotate(-30 47.7354 25.3887)" fill="white" stroke="#003670"/>
    <rect x="79.4532" y="21.1508" width="8.47581" height="2.79032" rx="1.39516" transform="rotate(30 79.4532 21.1508)" fill="white" stroke="#003670"/>
</svg>
