<svg viewBox="0 0 94 94" fill="none" xmlns="http://www.w3.org/2000/svg">
    <path d="M46.8682 93.7363C72.7528 93.7363 93.7364 72.7527 93.7364 46.8682C93.7364 20.9836 72.7528 0 46.8682 0C20.9837 0 9.15527e-05 20.9836 9.15527e-05 46.8682C9.15527e-05 72.7527 20.9837 93.7363 46.8682 93.7363Z" fill="#E0EFFF"/>
    <path d="M66.0435 18.083H21.0231C20.4582 18.083 20.0002 18.541 20.0002 19.1059V82.5431C20.0002 83.1081 20.4582 83.566 21.0231 83.566H66.0435C66.6084 83.566 67.0664 83.1081 67.0664 82.5431V19.1059C67.0664 18.541 66.6084 18.083 66.0435 18.083Z" fill="#C2DFFF" stroke="#003670" stroke-linecap="round" stroke-linejoin="round"/>
    <path d="M60.928 23.1986H26.139C25.5741 23.1986 25.1161 23.6566 25.1161 24.2215V77.4274C25.1161 77.9924 25.5741 78.4503 26.139 78.4503H60.928C61.493 78.4503 61.9509 77.9924 61.9509 77.4274V24.2215C61.9509 23.6566 61.493 23.1986 60.928 23.1986Z" fill="white" stroke="#003670" stroke-linecap="round" stroke-linejoin="round"/>
    <path d="M49.1145 16.5011C49.0932 15.0348 48.4958 13.6358 47.4514 12.6064C46.407 11.5771 44.9995 11 43.5331 11C42.0666 11 40.6591 11.5771 39.6147 12.6064C38.5703 13.6358 37.9729 15.0348 37.9517 16.5011H32.1845C31.6418 16.5014 31.1215 16.7172 30.7379 17.1011C30.3542 17.4849 30.1387 18.0054 30.1387 18.5481V23.1986C30.1387 23.4699 30.2465 23.7301 30.4383 23.9219C30.6302 24.1137 30.8903 24.2215 31.1616 24.2215H55.9045C56.1758 24.2215 56.436 24.1137 56.6278 23.9219C56.8196 23.7301 56.9274 23.4699 56.9274 23.1986V18.5481C56.9274 18.0052 56.7117 17.4846 56.3279 17.1007C55.944 16.7168 55.4233 16.5011 54.8804 16.5011H49.1145Z" fill="white" stroke="#003670" stroke-linecap="round" stroke-linejoin="round"/>
    <path d="M41.4868 69.8899V72.2205C41.4868 72.5312 41.3634 72.8292 41.1437 73.049C40.9239 73.2687 40.6259 73.3922 40.3151 73.3922H30.3803C30.0695 73.3922 29.7715 73.2687 29.5517 73.049C29.332 72.8292 29.2086 72.5312 29.2086 72.2205V62.2856C29.2086 61.9748 29.332 61.6768 29.5517 61.4571C29.7715 61.2373 30.0695 61.1139 30.3803 61.1139H41.4868" stroke="#003670" stroke-linecap="round" stroke-linejoin="round"/>
    <path d="M32.6874 65.3506L36.1662 69.6894L46.6026 61.5965" stroke="#003670" stroke-linecap="round" stroke-linejoin="round"/>
    <path d="M30.7436 35.526H57.858" stroke="#003670" stroke-linecap="round" stroke-linejoin="round"/>
    <path d="M30.7436 40.2128H48.1739" stroke="#003670" stroke-linecap="round" stroke-linejoin="round"/>
    <path d="M30.7436 46.0715H52.9778" stroke="#003670" stroke-linecap="round" stroke-linejoin="round"/>
    <path d="M30.7436 50.7582H57.0202" stroke="#003670" stroke-linecap="round" stroke-linejoin="round"/>
    <path d="M45.6304 22.0883L42.0676 51.6379C41.9798 52.3658 42.4988 53.0271 43.2267 53.1148L85.6678 58.232C86.3957 58.3198 87.0569 57.8008 87.1447 57.0729L90.7075 27.5233C90.7952 26.7954 90.2763 26.1342 89.5484 26.0464L47.1073 20.9293C46.3794 20.8415 45.7182 21.3604 45.6304 22.0883Z" fill="#C2DFFF" stroke="#003670" stroke-linecap="round" stroke-linejoin="round"/>
    <path d="M48.0295 24.3832L45.9635 41.5183C45.9196 41.8826 46.1793 42.2135 46.5436 42.2574L63.6786 44.3234C64.0429 44.3674 64.3738 44.1077 64.4178 43.7434L66.4837 26.6083C66.5277 26.244 66.268 25.9131 65.9037 25.8692L48.7686 23.8032C48.4043 23.7593 48.0734 24.019 48.0295 24.3832Z" fill="white" stroke="#003670" stroke-linecap="round" stroke-linejoin="round"/>
    <path d="M55.964 38.8314C54.5184 38.6571 53.0535 38.9133 51.7528 39.568C50.4522 40.2227 49.3737 41.2467 48.6526 42.5117L62.1904 44.1439C61.7911 42.7436 60.9871 41.4925 59.8794 40.5474C58.7717 39.6023 57.4097 39.0053 55.964 38.8314Z" fill="#C2DFFF" stroke="#003670" stroke-linecap="round" stroke-linejoin="round"/>
    <path d="M58.3146 39.5227C58.0951 39.4161 57.9143 39.2437 57.7975 39.0294C57.6807 38.8152 57.6338 38.5698 57.6631 38.3276L57.8412 36.8512L54.612 36.4634L54.4339 37.9397C54.4048 38.1818 54.3009 38.4088 54.1366 38.589C53.9724 38.7692 53.756 38.8936 53.5177 38.945C52.9865 39.0593 52.4698 39.2322 51.9769 39.4606C52.2004 40.2614 52.6565 40.9779 53.2874 41.5194C53.9183 42.0609 54.6957 42.403 55.5212 42.5025C56.3466 42.602 57.183 42.4544 57.9245 42.0783C58.666 41.7022 59.2793 41.1145 59.6867 40.3898C59.2626 40.0511 58.8025 39.7603 58.3146 39.5227Z" fill="white" stroke="#003670" stroke-linecap="round" stroke-linejoin="round"/>
    <path d="M61.695 34.2525C61.7215 34.0439 61.6748 33.8326 61.5631 33.6544C61.4514 33.4763 61.2815 33.3423 61.0822 33.2753L61.1619 32.6894C61.2402 32.1129 61.2041 31.5266 61.0557 30.9639C60.9074 30.4013 60.6497 29.8735 60.2973 29.4105C59.9449 28.9474 59.5048 28.5584 59.0021 28.2654C58.4994 27.9725 57.9439 27.7815 57.3674 27.7032C56.7908 27.625 56.2045 27.6611 55.6419 27.8094C55.0793 27.9578 54.5514 28.2155 54.0884 28.5678C53.6254 28.9202 53.2363 29.3603 52.9434 29.863C52.6504 30.3658 52.4594 30.9212 52.3812 31.4978L52.3015 32.0837C52.0822 32.0936 51.874 32.1831 51.7159 32.3354C51.5577 32.4876 51.4604 32.6923 51.4422 32.9111C51.424 33.1299 51.486 33.3478 51.6168 33.5242C51.7475 33.7005 51.938 33.8232 52.1527 33.8693C52.224 34.8851 52.6429 35.8453 53.339 36.5885C54.035 37.3317 54.9658 37.8125 55.9748 37.95C56.9837 38.0875 58.0092 37.8733 58.8788 37.3435C59.7484 36.8138 60.409 36.0007 60.7495 35.041C60.977 35.051 61.2001 34.9757 61.375 34.8299C61.5499 34.684 61.664 34.4781 61.695 34.2525Z" fill="white" stroke="#003670" stroke-linecap="round" stroke-linejoin="round"/>
    <path d="M55.4662 25.2151C52.3905 25.9181 52.0273 28.4268 51.7227 30.6694C51.3817 33.1757 51.9078 31.7603 52.8744 32.4152C52.9193 32.4458 52.9703 32.4661 53.0238 32.4747C53.0774 32.4833 53.1322 32.48 53.1843 32.465C53.2365 32.45 53.2846 32.4237 53.3255 32.388C53.3663 32.3522 53.3987 32.3079 53.4205 32.2582L54.1832 30.5171C54.2722 30.3108 54.4367 30.1464 54.643 30.0575C54.8493 29.9686 55.0818 29.962 55.2928 30.039C56.3846 30.4797 57.5691 30.6408 58.7388 30.5077C58.9621 30.4907 59.1834 30.5596 59.3576 30.7002C59.5318 30.8409 59.6458 31.0428 59.6762 31.2646L59.948 33.1452C59.9556 33.1989 59.975 33.2503 60.0048 33.2956C60.0345 33.341 60.0739 33.3792 60.1201 33.4077C60.1663 33.4361 60.2182 33.454 60.2721 33.46C60.326 33.4661 60.3806 33.4602 60.4319 33.4428C61.538 33.0702 61.6669 34.5747 62.0079 32.0672C62.8609 25.8244 56.638 27.7671 55.4662 25.2151Z" fill="#C2DFFF" stroke="#003670" stroke-linecap="round" stroke-linejoin="round"/>
    <path d="M70.0538 28.0294L72.6175 28.3388" stroke="#003670" stroke-linecap="round" stroke-linejoin="round"/>
    <path d="M76.0357 28.7513L86.2893 29.9875" stroke="#003670" stroke-linecap="round" stroke-linejoin="round"/>
    <path d="M68.8177 38.2831L79.0713 39.5193" stroke="#003670" stroke-linecap="round" stroke-linejoin="round"/>
    <path d="M68.3024 42.5551L75.1381 43.38" stroke="#003670" stroke-linecap="round" stroke-linejoin="round"/>
    <path d="M69.5398 32.3026L74.666 32.9201" stroke="#003670" stroke-linecap="round" stroke-linejoin="round"/>
    <path d="M77.2293 33.2295L80.6472 33.642" stroke="#003670" stroke-linecap="round" stroke-linejoin="round"/>
    <path d="M45.4686 45.0031L44.9536 49.2747C44.8966 49.7469 45.2333 50.1759 45.7055 50.2328L62.794 52.2932C63.2662 52.3501 63.6952 52.0135 63.7521 51.5412L64.2672 47.2697C64.3241 46.7975 63.9875 46.3685 63.5152 46.3116L46.4267 44.2512C45.9545 44.1943 45.5255 44.5309 45.4686 45.0031Z" fill="white" stroke="#003670" stroke-linecap="round" stroke-linejoin="round"/>
    <path d="M79.9292 54.366C81.8705 54.366 83.4443 52.7922 83.4443 50.8509C83.4443 48.9096 81.8705 47.3358 79.9292 47.3358C77.9878 47.3358 76.4141 48.9096 76.4141 50.8509C76.4141 52.7922 77.9878 54.366 79.9292 54.366Z" stroke="#003670" stroke-linecap="round" stroke-linejoin="round"/>
</svg>
