<svg viewBox="0 0 96 96" fill="none" xmlns="http://www.w3.org/2000/svg">
    <path
        d="M48 96C74.5097 96 96 74.5097 96 48C96 21.4903 74.5097 0 48 0C21.4903 0 0 21.4903 0 48C0 74.5097 21.4903 96 48 96Z"
        fill="#E0EFFF"/>
    <path d="M5.75281 55.1507L71.3316 36.6395L67.7964 48.7751L5.75281 55.1507Z" fill="#C2DFFF" stroke="#003670"
          stroke-linecap="round" stroke-linejoin="round"/>
    <path
        d="M5.75281 55.1508L58.716 24.6624C59.0753 24.4555 59.4948 24.3784 59.9042 24.4439C60.3136 24.5095 60.688 24.7137 60.9648 25.0224L71.3316 36.6372L5.75281 55.1508Z"
        fill="white"/>
    <path
        d="M5.75281 55.1508L58.716 24.6624C59.0753 24.4555 59.4948 24.3784 59.9042 24.4439C60.3136 24.5095 60.688 24.7137 60.9648 25.0224L71.3316 36.6372L5.75281 55.1508Z"
        stroke="#003670" stroke-linecap="round" stroke-linejoin="round"/>
    <path
        d="M5.75281 55.1507L76.5108 46.2827C76.9251 46.2298 77.3449 46.3226 77.6982 46.5453C78.0516 46.7679 78.3165 47.1065 78.4476 47.503L86.0076 70.1566C86.1085 70.4599 86.1272 70.7844 86.0618 71.0972C85.9964 71.41 85.8492 71.6998 85.6352 71.9372C85.4213 72.1745 85.1482 72.3509 84.8439 72.4484C84.5396 72.5458 84.2148 72.5608 83.9028 72.4919L5.75281 55.1507Z"
        fill="white"/>
    <path
        d="M5.75281 55.1506L76.5108 46.2827C76.9251 46.2298 77.3449 46.3226 77.6982 46.5453C78.0516 46.7679 78.3165 47.1065 78.4476 47.503L86.0076 70.1566C86.1085 70.4599 86.1272 70.7844 86.0618 71.0972C85.9964 71.41 85.8492 71.6998 85.6352 71.9372C85.4213 72.1745 85.1482 72.3509 84.8439 72.4484C84.5396 72.5458 84.2148 72.5608 83.9028 72.4919L5.75281 55.1506Z"
        stroke="#003670" stroke-linecap="round" stroke-linejoin="round"/>
    <path
        d="M40.3752 74.94C40.5671 74.1565 40.5109 73.3328 40.2144 72.5826C39.9179 71.8324 39.3958 71.1928 38.7201 70.7521C38.0444 70.3115 37.2486 70.0915 36.4426 70.1227C35.6365 70.1538 34.86 70.4345 34.2204 70.926C33.1837 69.7039 31.7968 68.8294 30.2471 68.421C28.6974 68.0126 27.0596 68.0898 25.5552 68.6423C24.0508 69.1947 22.7524 70.1958 21.8353 71.5101C20.9183 72.8244 20.4269 74.3886 20.4276 75.9912C20.4276 76.008 20.4276 76.0248 20.4276 76.0416C20.2653 76.0139 20.1013 75.997 19.9368 75.9912C19.4169 75.9821 18.9004 76.0767 18.4174 76.2693C17.9345 76.462 17.4947 76.7489 17.1238 77.1134C16.7529 77.4778 16.4584 77.9125 16.2573 78.392C16.0562 78.8715 15.9526 79.3863 15.9526 79.9062C15.9526 80.4262 16.0562 80.941 16.2573 81.4205C16.4584 81.9 16.7529 82.3347 17.1238 82.6991C17.4947 83.0635 17.9345 83.3505 18.4174 83.5431C18.9004 83.7358 19.4169 83.8303 19.9368 83.8212H37.56C38.5982 83.8221 39.6097 83.4924 40.4479 82.8797C41.286 82.267 41.9073 81.4033 42.2215 80.4138C42.5357 79.4243 42.5266 78.3604 42.1955 77.3764C41.8644 76.3924 41.2285 75.5395 40.38 74.9412L40.3752 74.94Z"
        fill="white"/>
    <path
        d="M40.3752 74.94C40.5671 74.1565 40.5109 73.3328 40.2144 72.5826C39.9179 71.8324 39.3958 71.1928 38.7201 70.7521C38.0444 70.3115 37.2486 70.0915 36.4426 70.1227C35.6365 70.1538 34.86 70.4345 34.2204 70.926C33.1837 69.7039 31.7968 68.8294 30.2471 68.421C28.6974 68.0126 27.0596 68.0898 25.5552 68.6423C24.0508 69.1947 22.7524 70.1958 21.8353 71.5101C20.9183 72.8244 20.4269 74.3886 20.4276 75.9912C20.4276 76.008 20.4276 76.0248 20.4276 76.0416C20.2653 76.0139 20.1013 75.997 19.9368 75.9912C19.4169 75.9821 18.9004 76.0767 18.4174 76.2693C17.9345 76.462 17.4947 76.7489 17.1238 77.1134C16.7529 77.4778 16.4584 77.9125 16.2573 78.392C16.0562 78.8715 15.9526 79.3863 15.9526 79.9062C15.9526 80.4262 16.0562 80.941 16.2573 81.4205C16.4584 81.9 16.7529 82.3347 17.1238 82.6991C17.4947 83.0635 17.9345 83.3505 18.4174 83.5431C18.9004 83.7358 19.4169 83.8303 19.9368 83.8212H37.56C38.5982 83.8221 39.6097 83.4924 40.4479 82.8797C41.286 82.267 41.9073 81.4033 42.2215 80.4138C42.5357 79.4243 42.5266 78.3604 42.1955 77.3764C41.8644 76.3924 41.2285 75.5395 40.38 74.9412L40.3752 74.94Z"
        stroke="#003670" stroke-linecap="round" stroke-linejoin="round"/>
    <path
        d="M73.8168 13.5204C73.8639 13.3323 73.8885 13.1394 73.89 12.9456C73.892 12.4829 73.7642 12.0289 73.5212 11.6351C73.2781 11.2414 72.9295 10.9237 72.515 10.7181C72.1005 10.5125 71.6366 10.4273 71.1761 10.4721C70.7155 10.5169 70.2768 10.6899 69.9096 10.9716C69.2517 10.1943 68.3708 9.63793 67.3862 9.37789C66.4016 9.11785 65.3608 9.16668 64.4049 9.51775C63.449 9.86883 62.624 10.5052 62.0418 11.3407C61.4595 12.1762 61.1481 13.1704 61.1496 14.1888V14.2092C61.0464 14.2092 60.9444 14.1888 60.8376 14.1888C60.5113 14.1888 60.1881 14.253 59.8866 14.3779C59.5851 14.5028 59.3111 14.6859 59.0803 14.9167C58.8495 15.1474 58.6665 15.4214 58.5416 15.7229C58.4167 16.0244 58.3524 16.3476 58.3524 16.674C58.3524 17.0003 58.4167 17.3235 58.5416 17.625C58.6665 17.9265 58.8495 18.2005 59.0803 18.4313C59.3111 18.662 59.5851 18.8451 59.8866 18.97C60.1881 19.0949 60.5113 19.1592 60.8376 19.1592H72.0216C72.6815 19.1606 73.3246 18.9516 73.8575 18.5626C74.3905 18.1735 74.7855 17.6247 74.9851 16.9957C75.1848 16.3668 75.1787 15.6906 74.9677 15.0654C74.7567 14.4402 74.3519 13.8986 73.812 13.5192L73.8168 13.5204Z"
        fill="white"/>
    <path
        d="M73.8168 13.5204C73.8639 13.3323 73.8885 13.1394 73.89 12.9456C73.892 12.4829 73.7642 12.0289 73.5212 11.6351C73.2781 11.2414 72.9295 10.9237 72.515 10.7181C72.1005 10.5125 71.6366 10.4273 71.1761 10.4721C70.7155 10.5169 70.2768 10.6899 69.9096 10.9716C69.2517 10.1943 68.3708 9.63793 67.3862 9.37789C66.4016 9.11785 65.3608 9.16668 64.4049 9.51775C63.449 9.86883 62.624 10.5052 62.0418 11.3407C61.4595 12.1762 61.1481 13.1704 61.1496 14.1888V14.2092C61.0464 14.2092 60.9444 14.1888 60.8376 14.1888C60.5113 14.1888 60.1881 14.253 59.8866 14.3779C59.5851 14.5028 59.3111 14.6859 59.0803 14.9167C58.8495 15.1474 58.6665 15.4214 58.5416 15.7229C58.4167 16.0244 58.3524 16.3476 58.3524 16.674C58.3524 17.0003 58.4167 17.3235 58.5416 17.625C58.6665 17.9265 58.8495 18.2005 59.0803 18.4313C59.3111 18.662 59.5851 18.8451 59.8866 18.97C60.1881 19.0949 60.5113 19.1592 60.8376 19.1592H72.0216C72.6815 19.1606 73.3246 18.9516 73.8575 18.5626C74.3905 18.1735 74.7855 17.6247 74.9851 16.9957C75.1848 16.3668 75.1787 15.6906 74.9677 15.0654C74.7567 14.4402 74.3519 13.8986 73.812 13.5192L73.8168 13.5204Z"
        stroke="#003670" stroke-linecap="round" stroke-linejoin="round"/>
</svg>