<svg viewBox="0 0 81 81" fill="none" xmlns="http://www.w3.org/2000/svg">
<path d="M40.4514 80.4258C62.5428 80.4258 80.4514 62.5172 80.4514 40.4258C80.4514 18.3344 62.5428 0.425781 40.4514 0.425781C18.36 0.425781 0.451385 18.3344 0.451385 40.4258C0.451385 62.5172 18.36 80.4258 40.4514 80.4258Z" fill="#E0EFFF"/>
<path d="M5.24539 46.385L59.8944 30.959L56.9484 41.072L5.24539 46.385Z" fill="#C2DFFF" stroke="#003670" stroke-linecap="round" stroke-linejoin="round"/>
<path d="M5.24539 46.3844L49.3814 20.9774C49.6808 20.805 50.0304 20.7407 50.3716 20.7953C50.7127 20.8499 51.0247 21.0201 51.2554 21.2774L59.8944 30.9564L5.24539 46.3844Z" fill="white"/>
<path d="M5.24539 46.3844L49.3814 20.9774C49.6808 20.805 50.0304 20.7407 50.3716 20.7953C50.7127 20.8499 51.0248 21.0201 51.2554 21.2774L59.8944 30.9564L5.24539 46.3844Z" stroke="#003670" stroke-linecap="round" stroke-linejoin="round"/>
<path d="M5.24539 46.3845L64.2104 38.9945C64.5556 38.9504 64.9054 39.0278 65.1999 39.2134C65.4944 39.3989 65.7151 39.681 65.8244 40.0115L72.1244 58.8895C72.2085 59.1422 72.224 59.4126 72.1695 59.6733C72.115 59.9339 71.9924 60.1755 71.8141 60.3733C71.6358 60.5711 71.4082 60.7181 71.1546 60.7993C70.901 60.8805 70.6304 60.893 70.3704 60.8355L5.24539 46.3845Z" fill="white"/>
<path d="M5.24539 46.3845L64.2104 38.9945C64.5556 38.9504 64.9054 39.0278 65.1999 39.2134C65.4944 39.3989 65.7151 39.681 65.8244 40.0115L72.1244 58.8895C72.2085 59.1422 72.224 59.4126 72.1695 59.6733C72.115 59.9339 71.9924 60.1755 71.8141 60.3733C71.6358 60.5711 71.4082 60.7181 71.1546 60.7993C70.901 60.8805 70.6304 60.893 70.3704 60.8355L5.24539 46.3845Z" stroke="#003670" stroke-linecap="round" stroke-linejoin="round"/>
<path d="M34.0974 62.8754C34.2573 62.2225 34.2105 61.536 33.9634 60.9109C33.7163 60.2857 33.2812 59.7527 32.7182 59.3855C32.1551 59.0183 31.4919 58.835 30.8202 58.8609C30.1485 58.8869 29.5014 59.1208 28.9684 59.5304C28.1045 58.5119 26.9487 57.7832 25.6573 57.4429C24.3659 57.1025 23.0011 57.1669 21.7474 57.6273C20.4938 58.0876 19.4117 58.9218 18.6475 60.0171C17.8833 61.1124 17.4738 62.4159 17.4744 63.7514C17.4744 63.7654 17.4744 63.7794 17.4744 63.7934C17.3392 63.7703 17.2025 63.7562 17.0654 63.7514C16.6321 63.7438 16.2017 63.8226 15.7993 63.9831C15.3968 64.1437 15.0303 64.3828 14.7213 64.6865C14.4122 64.9902 14.1667 65.3524 13.9991 65.752C13.8316 66.1516 13.7453 66.5806 13.7453 67.0139C13.7453 67.4472 13.8316 67.8762 13.9991 68.2758C14.1667 68.6754 14.4122 69.0376 14.7213 69.3413C15.0303 69.645 15.3968 69.8841 15.7993 70.0447C16.2017 70.2052 16.6321 70.284 17.0654 70.2764H31.7514C32.6166 70.2772 33.4595 70.0023 34.158 69.4918C34.8564 68.9812 35.3741 68.2615 35.636 67.4369C35.8979 66.6123 35.8903 65.7257 35.6143 64.9057C35.3384 64.0857 34.8085 63.3749 34.1014 62.8764L34.0974 62.8754Z" fill="white"/>
<path d="M34.0974 62.8754C34.2573 62.2225 34.2105 61.536 33.9634 60.9109C33.7163 60.2857 33.2812 59.7527 32.7182 59.3855C32.1551 59.0183 31.4919 58.835 30.8202 58.8609C30.1485 58.8869 29.5014 59.1208 28.9684 59.5304C28.1045 58.5119 26.9487 57.7832 25.6573 57.4429C24.3659 57.1025 23.0011 57.1669 21.7474 57.6273C20.4938 58.0876 19.4117 58.9218 18.6475 60.0171C17.8833 61.1124 17.4738 62.4159 17.4744 63.7514C17.4744 63.7654 17.4744 63.7794 17.4744 63.7934C17.3392 63.7703 17.2025 63.7562 17.0654 63.7514C16.6321 63.7438 16.2017 63.8226 15.7993 63.9831C15.3968 64.1437 15.0303 64.3828 14.7213 64.6865C14.4122 64.9902 14.1667 65.3524 13.9991 65.752C13.8316 66.1516 13.7453 66.5806 13.7453 67.0139C13.7453 67.4472 13.8316 67.8762 13.9991 68.2758C14.1667 68.6754 14.4122 69.0376 14.7213 69.3413C15.0303 69.645 15.3968 69.8841 15.7993 70.0447C16.2017 70.2052 16.6321 70.284 17.0654 70.2764H31.7514C32.6166 70.2772 33.4595 70.0023 34.158 69.4918C34.8564 68.9812 35.3741 68.2615 35.636 67.4369C35.8979 66.6123 35.8903 65.7257 35.6143 64.9057C35.3384 64.0857 34.8085 63.3749 34.1014 62.8764L34.0974 62.8754Z" stroke="#003670" stroke-linecap="round" stroke-linejoin="round"/>
<path d="M61.9654 11.6928C62.0046 11.5361 62.0251 11.3753 62.0264 11.2138C62.0281 10.8282 61.9216 10.4499 61.719 10.1218C61.5165 9.79367 61.226 9.52892 60.8806 9.3576C60.5351 9.18629 60.1485 9.11526 59.7648 9.1526C59.381 9.18993 59.0154 9.33414 58.7094 9.56883C58.1611 8.92107 57.427 8.45746 56.6065 8.24076C55.786 8.02406 54.9188 8.06475 54.1221 8.35731C53.3255 8.64988 52.6381 9.18018 52.1529 9.87642C51.6676 10.5727 51.4081 11.4012 51.4094 12.2498V12.2668C51.3234 12.2668 51.2384 12.2498 51.1494 12.2498C50.8774 12.2498 50.6081 12.3034 50.3569 12.4075C50.1056 12.5115 49.8773 12.6641 49.685 12.8564C49.4927 13.0487 49.3401 13.277 49.236 13.5283C49.132 13.7796 49.0784 14.0489 49.0784 14.3208C49.0784 14.5928 49.132 14.8621 49.236 15.1134C49.3401 15.3646 49.4927 15.5929 49.685 15.7852C49.8773 15.9776 50.1056 16.1301 50.3569 16.2342C50.6081 16.3383 50.8774 16.3918 51.1494 16.3918H60.4694C61.0193 16.393 61.5552 16.2189 61.9993 15.8947C62.4434 15.5705 62.7726 15.1131 62.939 14.589C63.1053 14.0649 63.1003 13.5014 62.9245 12.9804C62.7487 12.4594 62.4113 12.008 61.9614 11.6918L61.9654 11.6928Z" fill="white"/>
<path d="M61.9654 11.6928C62.0046 11.5361 62.0251 11.3753 62.0264 11.2138C62.0281 10.8282 61.9216 10.4499 61.719 10.1218C61.5165 9.79367 61.226 9.52892 60.8806 9.3576C60.5351 9.18629 60.1485 9.11526 59.7648 9.1526C59.381 9.18993 59.0154 9.33414 58.7094 9.56883C58.1611 8.92107 57.427 8.45746 56.6065 8.24076C55.786 8.02406 54.9188 8.06475 54.1221 8.35731C53.3255 8.64988 52.6381 9.18018 52.1529 9.87642C51.6676 10.5727 51.4081 11.4012 51.4094 12.2498V12.2668C51.3234 12.2668 51.2384 12.2498 51.1494 12.2498C50.8774 12.2498 50.6081 12.3034 50.3569 12.4075C50.1056 12.5115 49.8773 12.6641 49.685 12.8564C49.4927 13.0487 49.3401 13.277 49.236 13.5283C49.132 13.7796 49.0784 14.0489 49.0784 14.3208C49.0784 14.5928 49.132 14.8621 49.236 15.1134C49.3401 15.3646 49.4927 15.5929 49.685 15.7852C49.8773 15.9776 50.1056 16.1301 50.3569 16.2342C50.6081 16.3383 50.8774 16.3918 51.1494 16.3918H60.4694C61.0193 16.393 61.5552 16.2189 61.9993 15.8947C62.4434 15.5705 62.7726 15.1131 62.939 14.589C63.1053 14.0649 63.1003 13.5014 62.9245 12.9804C62.7487 12.4594 62.4113 12.008 61.9614 11.6918L61.9654 11.6928Z" stroke="#003670" stroke-linecap="round" stroke-linejoin="round"/>
<path d="M55.6184 63.2767C60.6044 63.2767 64.6464 59.2347 64.6464 54.2487C64.6464 49.2627 60.6044 45.2207 55.6184 45.2207C50.6324 45.2207 46.5904 49.2627 46.5904 54.2487C46.5904 59.2347 50.6324 63.2767 55.6184 63.2767Z" fill="#C2DFFF" stroke="#003670" stroke-linecap="round" stroke-linejoin="round"/>
<path d="M57.2339 59.5C57.5101 59.5 57.7339 59.2761 57.7339 59V49.0059C57.7339 48.7297 57.5101 48.5059 57.2339 48.5059H55.4976C55.3845 48.5059 55.2747 48.5442 55.1862 48.6147L51.9665 51.1782C51.8625 51.2609 51.7958 51.3817 51.781 51.5137C51.7662 51.6457 51.8046 51.7782 51.8877 51.8819L52.9062 53.1534C52.9892 53.257 53.11 53.3234 53.2419 53.3378C53.3739 53.3523 53.5062 53.3137 53.6096 53.2306L54.6391 52.4033L54.6218 53.206L54.6216 53.206V53.2168V59C54.6216 59.2761 54.8455 59.5 55.1216 59.5H57.2339Z" fill="white" stroke="#003670" stroke-linecap="round" stroke-linejoin="round"/>
</svg>
