<svg viewBox="0 0 96 96" fill="none" xmlns="http://www.w3.org/2000/svg">
    <path d="M48 96C74.5097 96 96 74.5097 96 48C96 21.4903 74.5097 0 48 0C21.4903 0 0 21.4903 0 48C0 74.5097 21.4903 96 48 96Z" fill="#E0EFFF"/>
    <path d="M20.4302 71.9648C20.8886 71.9649 21.3425 71.8748 21.766 71.6995C22.1895 71.5242 22.5744 71.2672 22.8985 70.9431C23.2227 70.619 23.4798 70.2343 23.6553 69.8108C23.8307 69.3874 23.921 68.9335 23.921 68.4752V22.7996C23.9209 22.4346 23.9926 22.0733 24.1322 21.7361C24.2717 21.3989 24.4763 21.0925 24.7343 20.8344C24.9922 20.5763 25.2985 20.3716 25.6357 20.2319C25.9728 20.0923 26.3341 20.0204 26.699 20.0204H89.4158C90.1527 20.0207 90.8593 20.3136 91.3802 20.8348C91.9012 21.356 92.1938 22.0627 92.1938 22.7996V67.5128C92.1938 68.6935 91.7248 69.8259 90.8899 70.6608C90.055 71.4957 88.9226 71.9648 87.7418 71.9648H20.4302Z" fill="white" stroke="#003670" stroke-linecap="round" stroke-linejoin="round"/>
    <path d="M20.4303 71.9648C20.8886 71.9649 21.3425 71.8748 21.766 71.6995C22.1896 71.5242 22.5744 71.2672 22.8985 70.9431C23.2227 70.619 23.4799 70.2343 23.6553 69.8108C23.8308 69.3874 23.9211 68.9335 23.9211 68.4752V26.0396L7.29265 31.0675C6.93707 31.1749 6.60663 31.3525 6.32089 31.5899C6.03514 31.8272 5.79989 32.1194 5.62905 32.4492C5.45821 32.779 5.35525 33.1398 5.32626 33.5101C5.29726 33.8804 5.34283 34.2528 5.46025 34.6052L17.1195 69.5804C17.3514 70.2749 17.7959 70.8789 18.3901 71.3068C18.9843 71.7348 19.698 71.9649 20.4303 71.9648Z" fill="#C2DFFF" stroke="#003670" stroke-linecap="round" stroke-linejoin="round"/>
    <path d="M70.6035 20.0179L69.1767 15.2648C69.0719 14.9148 68.899 14.5889 68.6681 14.3058C68.4371 14.0228 68.1526 13.7881 67.8307 13.6152C67.5089 13.4423 67.1561 13.3346 66.7926 13.2983C66.4291 13.262 66.062 13.2977 65.7123 13.4036L43.8315 20.0179H70.6035Z" fill="#C2DFFF" stroke="#003670" stroke-linecap="round" stroke-linejoin="round"/>
    <path d="M31.3419 37.8283H84.7731" stroke="#003670" stroke-linecap="round" stroke-linejoin="round"/>
    <path d="M44.6991 45.2491H32.8263C32.0064 45.2491 31.3419 45.9137 31.3419 46.7335V61.5751C31.3419 62.395 32.0064 63.0595 32.8263 63.0595H44.6991C45.5189 63.0595 46.1835 62.395 46.1835 61.5751V46.7335C46.1835 45.9137 45.5189 45.2491 44.6991 45.2491Z" fill="#C2DFFF" stroke="#003670" stroke-linecap="round" stroke-linejoin="round"/>
    <path d="M46.1835 56.7079V61.5763C46.1835 61.9697 46.0272 62.347 45.7491 62.6251C45.4709 62.9033 45.0936 63.0595 44.7003 63.0595H32.8203C32.6254 63.0597 32.4324 63.0215 32.2523 62.947C32.0722 62.8725 31.9086 62.7633 31.7707 62.6256C31.6329 62.4878 31.5235 62.3243 31.4489 62.1442C31.3743 61.9642 31.3359 61.7712 31.3359 61.5763V55.1636C34.3096 54.805 37.3231 54.9675 40.2411 55.6435C42.1982 56.12 44.1827 56.4754 46.1835 56.7079Z" fill="white" stroke="#003670" stroke-linecap="round" stroke-linejoin="round"/>
    <path d="M41.8238 27.2648C41.8129 27.1436 41.828 27.0215 41.8683 26.9067C41.9086 26.7919 41.9731 26.6871 42.0574 26.5993C42.1417 26.5116 42.2439 26.443 42.357 26.3982C42.4701 26.3534 42.5915 26.3334 42.713 26.3396C43.0044 26.3661 43.2733 26.5073 43.4606 26.732L47.2226 31.7516H47.2466V27.2648C47.2423 27.1452 47.262 27.0259 47.3048 26.9141C47.3475 26.8023 47.4123 26.7003 47.4954 26.6141C47.5784 26.528 47.678 26.4594 47.7882 26.4126C47.8983 26.3658 48.0168 26.3417 48.1364 26.3417C48.2561 26.3417 48.3746 26.3658 48.4847 26.4126C48.5949 26.4594 48.6944 26.528 48.7775 26.6141C48.8606 26.7003 48.9254 26.8023 48.9681 26.9141C49.0109 27.0259 49.0306 27.1452 49.0262 27.2648V34.0052C49.037 34.1264 49.0217 34.2486 48.9812 34.3635C48.9408 34.4783 48.8762 34.5832 48.7919 34.671C48.7075 34.7588 48.6053 34.8275 48.4921 34.8724C48.3789 34.9174 48.2575 34.9375 48.1358 34.9316C47.8458 34.9016 47.5782 34.7616 47.3882 34.5404L43.6274 29.5796H43.6034V34.0052C43.6078 34.1248 43.5881 34.244 43.5453 34.3558C43.5026 34.4676 43.4378 34.5696 43.3547 34.6558C43.2716 34.742 43.1721 34.8105 43.0619 34.8573C42.9518 34.9041 42.8333 34.9282 42.7136 34.9282C42.594 34.9282 42.4755 34.9041 42.3654 34.8573C42.2552 34.8105 42.1556 34.742 42.0726 34.6558C41.9895 34.5696 41.9247 34.4676 41.882 34.3558C41.8392 34.244 41.8194 34.1248 41.8238 34.0052V27.2648Z" fill="#003670"/>
    <path d="M51.4526 27.4435C51.4526 26.8495 51.749 26.4103 52.3778 26.4103H55.3202C55.4305 26.4034 55.541 26.4196 55.6446 26.458C55.7483 26.4964 55.8427 26.5561 55.9218 26.6332C56.001 26.7103 56.0631 26.8031 56.1041 26.9057C56.1452 27.0083 56.1643 27.1183 56.1602 27.2288C56.1627 27.3388 56.1424 27.4481 56.1008 27.55C56.0592 27.6519 55.9971 27.7442 55.9183 27.821C55.8395 27.8979 55.7458 27.9577 55.6429 27.9968C55.54 28.0359 55.4302 28.0535 55.3202 28.0484H53.2322V29.7812H55.1786C55.2907 29.7722 55.4034 29.7869 55.5095 29.8243C55.6155 29.8617 55.7125 29.9209 55.7942 29.9982C55.8758 30.0755 55.9404 30.169 55.9836 30.2728C56.0268 30.3766 56.0477 30.4883 56.045 30.6007C56.0456 30.7125 56.0232 30.8231 55.9792 30.9259C55.9352 31.0286 55.8706 31.1212 55.7894 31.1979C55.7082 31.2746 55.612 31.3339 55.507 31.3719C55.4019 31.41 55.2902 31.4261 55.1786 31.4191H53.2322V33.2191H55.4282C55.5386 33.212 55.6492 33.2281 55.7529 33.2664C55.8566 33.3047 55.9511 33.3644 56.0302 33.4415C56.1094 33.5187 56.1715 33.6116 56.2125 33.7143C56.2535 33.8169 56.2725 33.9271 56.2682 34.0376C56.2705 34.1475 56.2501 34.2568 56.2085 34.3586C56.1668 34.4604 56.1046 34.5526 56.0259 34.6294C55.9472 34.7062 55.8535 34.7661 55.7507 34.8053C55.6479 34.8444 55.5381 34.8621 55.4282 34.8572H52.3658C52.2461 34.8637 52.1264 34.8453 52.0142 34.8032C51.9019 34.761 51.7997 34.6961 51.7138 34.6124C51.628 34.5287 51.5605 34.4281 51.5155 34.317C51.4706 34.2058 51.4491 34.0866 51.4526 33.9667V27.4435Z" fill="#003670"/>
    <path d="M57.9831 27.5263C57.9491 27.3947 57.9333 27.259 57.9363 27.1231C57.9398 27.0165 57.9644 26.9116 58.0086 26.8144C58.0527 26.7173 58.1156 26.6298 58.1937 26.557C58.2717 26.4842 58.3633 26.4276 58.4633 26.3902C58.5633 26.3529 58.6696 26.3357 58.7763 26.3395C59.015 26.3287 59.2484 26.4123 59.426 26.5721C59.6036 26.732 59.7112 26.9554 59.7255 27.1939L60.7335 32.2339H60.7575L62.3007 27.0343C62.3567 26.832 62.4775 26.6536 62.6446 26.5264C62.8117 26.3993 63.0159 26.3305 63.2259 26.3305C63.4358 26.3305 63.64 26.3993 63.8071 26.5264C63.9742 26.6536 64.095 26.832 64.1511 27.0343L65.6943 32.2339H65.7183L66.7275 27.1939C66.7417 26.9554 66.8493 26.732 67.0269 26.5721C67.2045 26.4123 67.4379 26.3287 67.6767 26.3395C67.892 26.3321 68.1014 26.4105 68.2589 26.5574C68.4164 26.7044 68.5092 26.9078 68.5167 27.1231C68.5196 27.259 68.5038 27.3947 68.4699 27.5263L66.9627 34.0063C66.9083 34.2749 66.7603 34.5154 66.5452 34.685C66.33 34.8547 66.0617 34.9425 65.7879 34.9327C65.5243 34.9355 65.2671 34.8523 65.0551 34.6958C64.8431 34.5392 64.6879 34.3178 64.6131 34.0651L63.2403 29.4847H63.2163L61.8399 34.0639C61.7652 34.3167 61.61 34.5382 61.398 34.6948C61.186 34.8514 60.9286 34.9345 60.6651 34.9315C60.3912 34.9413 60.1229 34.8535 59.9077 34.6838C59.6926 34.5142 59.5447 34.2737 59.4903 34.0051L57.9831 27.5263Z" fill="#003670"/>
    <path d="M75.5763 27.4555C75.5837 27.5658 75.5689 27.6765 75.5327 27.7809C75.4965 27.8853 75.4396 27.9814 75.3655 28.0633C75.2913 28.1453 75.2015 28.2115 75.1012 28.258C75.0009 28.3045 74.8923 28.3303 74.7819 28.3339C74.2947 28.3339 73.9143 27.9739 73.2027 27.9739C72.6927 27.9739 72.2295 28.2475 72.2295 28.7443C72.2295 29.9683 76.1894 29.1835 76.1894 32.2459C76.1818 32.6298 76.0958 33.0081 75.9367 33.3575C75.7776 33.7069 75.5487 34.0201 75.2642 34.2779C74.9797 34.5357 74.6455 34.7326 74.2821 34.8566C73.9187 34.9805 73.5338 35.0289 73.1511 34.9987C72.2379 34.9987 70.271 34.7851 70.271 33.6691C70.2645 33.5609 70.2802 33.4524 70.3173 33.3504C70.3544 33.2485 70.412 33.1553 70.4866 33.0765C70.5612 32.9977 70.6511 32.9351 70.7509 32.8926C70.8507 32.85 70.9582 32.8285 71.0667 32.8291C71.6247 32.8291 72.2895 33.2911 73.0599 33.2911C73.8303 33.2911 74.2706 32.8519 74.2706 32.2711C74.2706 30.8707 70.3107 31.7131 70.3107 28.9603C70.3167 28.5868 70.3989 28.2184 70.5522 27.8778C70.7055 27.5371 70.9266 27.2313 71.2022 26.979C71.4777 26.7267 71.8018 26.5333 72.1546 26.4105C72.5075 26.2878 72.8816 26.2383 73.2542 26.2651C73.9202 26.2675 75.5763 26.5195 75.5763 27.4555Z" fill="#003670"/>
    <path d="M62.5095 45.2491H84.7731" stroke="#003670" stroke-linecap="round" stroke-linejoin="round"/>
    <path d="M53.6042 51.1868H84.773" stroke="#003670" stroke-linecap="round" stroke-linejoin="round"/>
    <path d="M53.6042 57.1231H84.773" stroke="#003670" stroke-linecap="round" stroke-linejoin="round"/>
    <path d="M53.6042 63.0595H75.8678" stroke="#003670" stroke-linecap="round" stroke-linejoin="round"/>
    <path d="M53.3078 86.2508C61.7472 86.2508 68.5886 85.3181 68.5886 84.1676C68.5886 83.017 61.7472 82.0844 53.3078 82.0844C44.8685 82.0844 38.027 83.017 38.027 84.1676C38.027 85.3181 44.8685 86.2508 53.3078 86.2508Z" fill="#C2DFFF"/>
</svg>
