<svg viewBox="0 0 81 80" fill="none" xmlns="http://www.w3.org/2000/svg">
    <path d="M39.9853 79.9706C62.0686 79.9706 79.9706 62.0686 79.9706 39.9853C79.9706 17.902 62.0686 0 39.9853 0C17.902 0 0 17.902 0 39.9853C0 62.0686 17.902 79.9706 39.9853 79.9706Z" fill="#E0EFFF"/>
    <path d="M36.6912 71.8803C44.8068 71.8803 51.3858 71.1754 51.3858 70.3059C51.3858 69.4363 44.8068 68.7314 36.6912 68.7314C28.5756 68.7314 21.9966 69.4363 21.9966 70.3059C21.9966 71.1754 28.5756 71.8803 36.6912 71.8803Z" fill="#8AC2FF"/>
    <path d="M66.8672 56.7429C66.8672 57.1564 66.7857 57.5659 66.6275 57.9479C66.4692 58.3299 66.2373 58.6771 65.9449 58.9695C65.6525 59.2619 65.3054 59.4938 64.9233 59.6521C64.5413 59.8103 64.1318 59.8917 63.7183 59.8917H9.40128C8.98777 59.8917 8.57831 59.8103 8.19627 59.6521C7.81424 59.4938 7.46711 59.2619 7.17472 58.9695C6.88232 58.6771 6.65038 58.3299 6.49213 57.9479C6.33389 57.5659 6.25244 57.1564 6.25244 56.7429V18.9568H66.8672V56.7429Z" fill="#8AC2FF"/>
    <path d="M66.8672 12.6592C66.8672 11.8241 66.5354 11.0232 65.9449 10.4327C65.3544 9.84213 64.5534 9.51038 63.7183 9.51038H9.40128C8.56616 9.51038 7.76524 9.84213 7.17472 10.4327C6.58419 11.0232 6.25244 11.8241 6.25244 12.6592V18.9569H66.8672V12.6592Z" fill="white" stroke="#003670" stroke-linecap="round" stroke-linejoin="round"/>
    <path d="M10.9755 15.8079C11.8451 15.8079 12.55 15.103 12.55 14.2335C12.55 13.364 11.8451 12.6591 10.9755 12.6591C10.106 12.6591 9.40112 13.364 9.40112 14.2335C9.40112 15.103 10.106 15.8079 10.9755 15.8079Z" fill="#8AC2FF" stroke="#003670" stroke-linecap="round" stroke-linejoin="round"/>
    <path d="M17.2734 15.8079C18.1429 15.8079 18.8478 15.103 18.8478 14.2335C18.8478 13.364 18.1429 12.6591 17.2734 12.6591C16.4039 12.6591 15.699 13.364 15.699 14.2335C15.699 15.103 16.4039 15.8079 17.2734 15.8079Z" fill="#8AC2FF" stroke="#003670" stroke-linecap="round" stroke-linejoin="round"/>
    <path d="M23.571 15.8079C24.4405 15.8079 25.1454 15.103 25.1454 14.2335C25.1454 13.364 24.4405 12.6591 23.571 12.6591C22.7015 12.6591 21.9966 13.364 21.9966 14.2335C21.9966 15.103 22.7015 15.8079 23.571 15.8079Z" fill="#8AC2FF" stroke="#003670" stroke-linecap="round" stroke-linejoin="round"/>
    <path d="M66.8672 56.7429C66.8672 57.1564 66.7857 57.5659 66.6275 57.9479C66.4692 58.3299 66.2373 58.6771 65.9449 58.9695C65.6525 59.2619 65.3054 59.4938 64.9233 59.6521C64.5413 59.8103 64.1318 59.8917 63.7183 59.8917H9.40128C8.98777 59.8917 8.57831 59.8103 8.19627 59.6521C7.81424 59.4938 7.46711 59.2619 7.17472 58.9695C6.88232 58.6771 6.65038 58.3299 6.49213 57.9479C6.33389 57.5659 6.25244 57.1564 6.25244 56.7429V18.9568H66.8672V56.7429Z" stroke="#003670" stroke-linecap="round" stroke-linejoin="round"/>
    <path d="M57.1587 59.8918H15.699V26.3041C15.6992 26.0258 15.8099 25.759 16.0067 25.5622C16.2035 25.3655 16.4703 25.2548 16.7486 25.2545H56.1091C56.3874 25.2548 56.6542 25.3655 56.851 25.5622C57.0478 25.759 57.1585 26.0258 57.1587 26.3041V59.8918Z" fill="white"/>
    <path d="M57.1587 59.8918H15.699V26.3041C15.6992 26.0258 15.8099 25.759 16.0067 25.5622C16.2035 25.3655 16.4703 25.2548 16.7486 25.2545H56.1091C56.3874 25.2548 56.6542 25.3655 56.851 25.5622C57.0478 25.759 57.1585 26.0258 57.1587 26.3041V59.8918Z" stroke="#003670" stroke-linecap="round" stroke-linejoin="round"/>
    <path d="M31.968 34.701H50.5982" stroke="#003670" stroke-linecap="round" stroke-linejoin="round"/>
    <path d="M22.5215 39.9491H50.5982" stroke="#003670" stroke-linecap="round" stroke-linejoin="round"/>
    <path d="M22.5215 45.1971H50.5982" stroke="#003670" stroke-linecap="round" stroke-linejoin="round"/>
    <path d="M22.5215 50.4452H50.5982" stroke="#003670" stroke-linecap="round" stroke-linejoin="round"/>
    <path d="M70.0309 35.5021L47.2927 58.2538L52.0823 63.0405L74.8205 40.2889L70.0309 35.5021Z" fill="white"/>
    <path d="M47.2972 58.2557C47.1472 58.3067 43.7085 66.6367 43.7085 66.6367L52.0864 63.043L47.2972 58.2557Z" fill="#8AC2FF"/>
    <path d="M47.2972 58.2557C47.1472 58.3067 43.7085 66.6367 43.7085 66.6367L52.0864 63.043L47.2972 58.2557Z" stroke="#003670" stroke-linecap="round" stroke-linejoin="round"/>
    <path d="M70.0309 35.5021L47.2927 58.2538L52.0823 63.0405L74.8205 40.2889L70.0309 35.5021Z" stroke="#003670" stroke-linecap="round" stroke-linejoin="round"/>
    <path d="M72.4229 33.106L70.0298 35.5011L74.8206 40.2881L77.2137 37.893L72.4229 33.106Z" fill="#8AC2FF"/>
    <path d="M72.4229 33.106L70.0298 35.5011L74.8206 40.2881L77.2137 37.893L72.4229 33.106Z" stroke="#003670" stroke-linecap="round" stroke-linejoin="round"/>
    <path d="M79.0085 36.0978C79.3229 35.7832 79.5722 35.4099 79.7422 34.999C79.9122 34.5881 79.9997 34.1478 79.9996 33.7031C79.9994 33.2584 79.9117 32.8181 79.7414 32.4073C79.5711 31.9966 79.3216 31.6234 79.007 31.309C78.6925 30.9947 78.3191 30.7454 77.9082 30.5753C77.4974 30.4053 77.057 30.3179 76.6123 30.318C76.1677 30.3181 75.7274 30.4059 75.3166 30.5762C74.9058 30.7465 74.5326 30.996 74.2183 31.3105L72.4189 33.1099L77.2102 37.8971L79.0085 36.0978Z" fill="white"/>
    <path d="M79.0085 36.0978C79.3229 35.7832 79.5722 35.4099 79.7422 34.999C79.9122 34.5881 79.9997 34.1478 79.9996 33.7031C79.9994 33.2584 79.9117 32.8181 79.7414 32.4073C79.5711 31.9966 79.3216 31.6234 79.007 31.309C78.6925 30.9947 78.3191 30.7454 77.9082 30.5753C77.4974 30.4053 77.057 30.3179 76.6123 30.318C76.1677 30.3181 75.7274 30.4059 75.3166 30.5762C74.9058 30.7465 74.5326 30.996 74.2183 31.3105L72.4189 33.1099L77.2102 37.8971L79.0085 36.0978Z" stroke="#003670" stroke-linecap="round" stroke-linejoin="round"/>
    <path d="M43.7041 66.6343L42.5061 67.8323" stroke="#003670" stroke-linecap="round" stroke-linejoin="round"/>
</svg>
