<svg viewBox="0 0 96 96" fill="none" xmlns="http://www.w3.org/2000/svg">
    <path d="M48.0001 96C74.5097 96 96.0001 74.5097 96.0001 48C96.0001 21.4903 74.5097 0 48.0001 0C21.4904 0 6.10352e-05 21.4903 6.10352e-05 48C6.10352e-05 74.5097 21.4904 96 48.0001 96Z" fill="#E0EFFF"/>
    <path d="M51.1 82.8001C65.0175 82.8001 76.3 81.7255 76.3 80.4001C76.3 79.0746 65.0175 78.0001 51.1 78.0001C37.1824 78.0001 25.9 79.0746 25.9 80.4001C25.9 81.7255 37.1824 82.8001 51.1 82.8001Z" fill="#C2DFFF"/>
    <path d="M70.1045 61.2413H16.6189C16.2618 61.2413 15.9082 61.171 15.5782 61.0343C15.2483 60.8977 14.9485 60.6974 14.696 60.4449C14.4435 60.1924 14.2432 59.8926 14.1066 59.5627C13.9699 59.2327 13.8996 58.8791 13.8996 58.522V21.3636H72.8238V58.522C72.8238 58.8791 72.7535 59.2327 72.6168 59.5627C72.4802 59.8926 72.2799 60.1924 72.0274 60.4449C71.7748 60.6974 71.4751 60.8977 71.1451 61.0343C70.8152 61.171 70.4616 61.2413 70.1045 61.2413Z" fill="#C2DFFF"/>
    <path d="M72.8242 15.9193C72.8242 15.1981 72.5377 14.5065 72.0277 13.9965C71.5177 13.4865 70.826 13.2 70.1048 13.2H16.6192C15.8987 13.2011 15.2082 13.4881 14.6991 13.998C14.19 14.5078 13.9041 15.1989 13.9041 15.9193V21.3594H72.8242V15.9193Z" fill="white"/>
    <path d="M17.9829 18.6373C18.7338 18.6373 19.3426 18.0286 19.3426 17.2777C19.3426 16.5268 18.7338 15.918 17.9829 15.918C17.232 15.918 16.6232 16.5268 16.6232 17.2777C16.6232 18.0286 17.232 18.6373 17.9829 18.6373Z" fill="#003670"/>
    <path d="M22.5135 18.6373C23.2644 18.6373 23.8732 18.0286 23.8732 17.2777C23.8732 16.5268 23.2644 15.918 22.5135 15.918C21.7626 15.918 21.1539 16.5268 21.1539 17.2777C21.1539 18.0286 21.7626 18.6373 22.5135 18.6373Z" fill="#003670"/>
    <path d="M27.0498 18.6373C27.8007 18.6373 28.4094 18.0286 28.4094 17.2777C28.4094 16.5268 27.8007 15.918 27.0498 15.918C26.2989 15.918 25.6901 16.5268 25.6901 17.2777C25.6901 18.0286 26.2989 18.6373 27.0498 18.6373Z" fill="#003670"/>
    <path d="M70.1045 61.2413H16.6189C16.2618 61.2413 15.9082 61.171 15.5782 61.0343C15.2483 60.8977 14.9485 60.6974 14.696 60.4449C14.4435 60.1924 14.2432 59.8926 14.1066 59.5627C13.9699 59.2327 13.8996 58.8791 13.8996 58.522V21.3636H72.8238V58.522C72.8238 58.8791 72.7535 59.2327 72.6168 59.5627C72.4802 59.8926 72.2799 60.1924 72.0274 60.4449C71.7748 60.6974 71.4751 60.8977 71.1451 61.0343C70.8152 61.171 70.4616 61.2413 70.1045 61.2413V61.2413Z" stroke="#003670" stroke-linecap="round" stroke-linejoin="round"/>
    <path d="M72.8242 15.9193C72.8242 15.1981 72.5377 14.5065 72.0277 13.9965C71.5177 13.4865 70.826 13.2 70.1048 13.2H16.6192C15.8987 13.2011 15.2082 13.4881 14.6991 13.998C14.19 14.5078 13.9041 15.1989 13.9041 15.9193V21.3594H72.8242V15.9193Z" stroke="#003670" stroke-linecap="round" stroke-linejoin="round"/>
    <path d="M78.5434 73.0546H25.0578C24.3366 73.0546 23.6449 72.7681 23.1349 72.2581C22.6249 71.7481 22.3384 71.0565 22.3384 70.3353V33.1768H81.2627V70.3353C81.2627 71.0565 80.9762 71.7481 80.4662 72.2581C79.9563 72.7681 79.2646 73.0546 78.5434 73.0546Z" fill="#C2DFFF"/>
    <path d="M78.5439 25.0118H25.0583C24.337 25.0118 23.6454 25.2983 23.1354 25.8083C22.6254 26.3183 22.3389 27.01 22.3389 27.7312V33.1698H81.2632V27.7312C81.2632 27.01 80.9767 26.3183 80.4667 25.8083C79.9567 25.2983 79.2651 25.0118 78.5439 25.0118Z" fill="white"/>
    <path d="M26.4218 30.4505C27.1727 30.4505 27.7815 29.8418 27.7815 29.0909C27.7815 28.3399 27.1727 27.7312 26.4218 27.7312C25.6709 27.7312 25.0621 28.3399 25.0621 29.0909C25.0621 29.8418 25.6709 30.4505 26.4218 30.4505Z" fill="#003670"/>
    <path d="M30.9524 30.4505C31.7033 30.4505 32.312 29.8418 32.312 29.0909C32.312 28.3399 31.7033 27.7312 30.9524 27.7312C30.2015 27.7312 29.5927 28.3399 29.5927 29.0909C29.5927 29.8418 30.2015 30.4505 30.9524 30.4505Z" fill="#003670"/>
    <path d="M35.4849 30.4505C36.2358 30.4505 36.8446 29.8418 36.8446 29.0909C36.8446 28.3399 36.2358 27.7312 35.4849 27.7312C34.734 27.7312 34.1252 28.3399 34.1252 29.0909C34.1252 29.8418 34.734 30.4505 35.4849 30.4505Z" fill="#003670"/>
    <path d="M78.5434 73.0546H25.0578C24.3366 73.0546 23.6449 72.7681 23.1349 72.2581C22.6249 71.7481 22.3384 71.0565 22.3384 70.3352V33.1768H81.2627V70.3352C81.2627 71.0565 80.9762 71.7481 80.4662 72.2581C79.9563 72.7681 79.2646 73.0546 78.5434 73.0546V73.0546Z" stroke="#003670" stroke-linecap="round" stroke-linejoin="round"/>
    <path d="M78.5439 25.0118H25.0583C24.337 25.0118 23.6454 25.2983 23.1354 25.8083C22.6254 26.3183 22.3389 27.01 22.3389 27.7312V33.1698H81.2632V27.7312C81.2632 27.01 80.9767 26.3183 80.4667 25.8083C79.9568 25.2983 79.2651 25.0118 78.5439 25.0118Z" stroke="#003670" stroke-linecap="round" stroke-linejoin="round"/>
    <path d="M76.8537 57.1863H50.3375V68.3986H76.8537V57.1863Z" fill="white" stroke="#003670" stroke-linecap="round" stroke-linejoin="round"/>
    <path d="M55.4086 64.7656H71.7794" stroke="#003670" stroke-linecap="round" stroke-linejoin="round"/>
    <path d="M58.9847 60.8176H71.7819" stroke="#003670" stroke-linecap="round" stroke-linejoin="round"/>
    <path d="M76.8537 38.0764H50.3375V55.0172H76.8537V38.0764Z" fill="white" stroke="#003670" stroke-linecap="round" stroke-linejoin="round"/>
    <path d="M46.7631 38.0764H26.4216V68.3971H46.7631V38.0764Z" fill="white" stroke="#003670" stroke-linecap="round" stroke-linejoin="round"/>
    <path d="M46.756 38.0764H26.4216V53.7322H46.756V38.0764Z" fill="white" stroke="#003670" stroke-linecap="round" stroke-linejoin="round"/>
    <path d="M33.5797 53.7321L36.8803 49.1112C37.0613 48.8579 37.3002 48.6514 37.577 48.5089C37.8539 48.3664 38.1608 48.2921 38.4722 48.2921C38.7836 48.2921 39.0904 48.3664 39.3673 48.5089C39.6442 48.6514 39.8831 48.8579 40.0641 49.1112L43.3647 53.7321H33.5797Z" fill="#C2DFFF" stroke="#003670" stroke-linecap="round" stroke-linejoin="round"/>
    <path d="M27.0077 53.7321L31.3119 47.9909C31.4943 47.7479 31.7307 47.5507 32.0025 47.4148C32.2742 47.279 32.5739 47.2083 32.8777 47.2083C33.1816 47.2083 33.4812 47.279 33.753 47.4148C34.0248 47.5507 34.2612 47.7479 34.4436 47.9909L38.745 53.7321H27.0077Z" fill="#C2DFFF" stroke="#003670" stroke-linecap="round" stroke-linejoin="round"/>
    <path d="M40.9956 44.7972C42.087 44.7972 42.9717 43.9124 42.9717 42.821C42.9717 41.7296 42.087 40.8448 40.9956 40.8448C39.9042 40.8448 39.0194 41.7296 39.0194 42.821C39.0194 43.9124 39.9042 44.7972 40.9956 44.7972Z" fill="#C2DFFF" stroke="#003670" stroke-linecap="round" stroke-linejoin="round"/>
    <path d="M30.1945 56.8695H42.9916" stroke="#003670" stroke-linecap="round" stroke-linejoin="round"/>
    <path d="M30.1945 60.8176H42.9916" stroke="#003670" stroke-linecap="round" stroke-linejoin="round"/>
    <path d="M30.1945 64.7656H42.9916" stroke="#003670" stroke-linecap="round" stroke-linejoin="round"/>
    <path d="M63.2225 49.4505C63.7509 48.666 64.0556 47.7525 64.1041 46.8079C64.1525 45.8633 63.9428 44.9234 63.4975 44.089C63.0521 43.2546 62.388 42.5572 61.5763 42.0717C60.7645 41.5862 59.8359 41.331 58.8901 41.3333V46.5411L63.2225 49.4505Z" fill="#C2DFFF" stroke="#003670" stroke-linecap="round" stroke-linejoin="round"/>
    <path d="M58.8889 41.3333C57.9407 41.3336 57.0105 41.5923 56.1984 42.0818C55.3863 42.5713 54.723 43.2729 54.2799 44.1112C53.8367 44.9495 53.6306 45.8928 53.6836 46.8395C53.7365 47.7862 54.0466 48.7006 54.5805 49.4842L58.8889 46.5468V41.3333Z" fill="#C2DFFF" stroke="#003670" stroke-linecap="round" stroke-linejoin="round"/>
    <path d="M58.8905 46.5466L54.5807 49.4827C55.0609 50.1878 55.7067 50.7643 56.4616 51.1617C57.2165 51.5591 58.0573 51.7652 58.9104 51.762C59.7634 51.7588 60.6027 51.5464 61.3545 51.1433C62.1064 50.7403 62.7479 50.159 63.2228 49.4503L58.8905 46.5466Z" fill="#C2DFFF" stroke="#003670" stroke-linecap="round" stroke-linejoin="round"/>
    <path d="M69.0837 46.5468H73.3358" stroke="#003670" stroke-linecap="round" stroke-linejoin="round"/>
    <path d="M69.0837 42.6171H73.3358" stroke="#003670" stroke-linecap="round" stroke-linejoin="round"/>
    <path d="M69.0837 50.478H73.3358" stroke="#003670" stroke-linecap="round" stroke-linejoin="round"/>
</svg>
