<svg viewBox="0 0 64 64" fill="none" xmlns="http://www.w3.org/2000/svg">
    <path d="M32 56C45.2548 56 56 45.2548 56 32C56 18.7452 45.2548 8 32 8C18.7452 8 8 18.7452 8 32C8 45.2548 18.7452 56 32 56Z" fill="#E0EFFF"/>
    <path d="M33.55 49.4001C40.5087 49.4001 46.15 48.8628 46.15 48.2001C46.15 47.5373 40.5087 47.0001 33.55 47.0001C26.5912 47.0001 20.95 47.5373 20.95 48.2001C20.95 48.8628 26.5912 49.4001 33.55 49.4001Z" fill="#C2DFFF"/>
    <path d="M43.0522 38.6207H16.3094C16.1308 38.6207 15.954 38.5855 15.7891 38.5172C15.6241 38.4489 15.4742 38.3487 15.348 38.2225C15.2217 38.0962 15.1216 37.9463 15.0532 37.7814C14.9849 37.6164 14.9497 37.4396 14.9497 37.261V18.6818H44.4119V37.261C44.4119 37.4396 44.3767 37.6164 44.3084 37.7814C44.24 37.9463 44.1399 38.0962 44.0136 38.2225C43.8874 38.3487 43.7375 38.4489 43.5725 38.5172C43.4076 38.5855 43.2308 38.6207 43.0522 38.6207Z" fill="#C2DFFF"/>
    <path d="M44.4121 15.9597C44.4121 15.5991 44.2689 15.2533 44.0139 14.9983C43.7589 14.7433 43.4131 14.6 43.0525 14.6H16.3096C15.9494 14.6006 15.6041 14.7441 15.3496 14.999C15.095 15.2539 14.9521 15.5995 14.9521 15.9597V18.6797H44.4121V15.9597Z" fill="white"/>
    <path d="M16.9914 17.3187C17.3668 17.3187 17.6712 17.0143 17.6712 16.6389C17.6712 16.2634 17.3668 15.959 16.9914 15.959C16.6159 15.959 16.3116 16.2634 16.3116 16.6389C16.3116 17.0143 16.6159 17.3187 16.9914 17.3187Z" fill="#003670"/>
    <path d="M19.2567 17.3187C19.6322 17.3187 19.9365 17.0143 19.9365 16.6389C19.9365 16.2634 19.6322 15.959 19.2567 15.959C18.8812 15.959 18.5769 16.2634 18.5769 16.6389C18.5769 17.0143 18.8812 17.3187 19.2567 17.3187Z" fill="#003670"/>
    <path d="M21.5248 17.3187C21.9003 17.3187 22.2047 17.0143 22.2047 16.6389C22.2047 16.2634 21.9003 15.959 21.5248 15.959C21.1494 15.959 20.845 16.2634 20.845 16.6389C20.845 17.0143 21.1494 17.3187 21.5248 17.3187Z" fill="#003670"/>
    <path d="M43.0522 38.6207H16.3094C16.1308 38.6207 15.954 38.5855 15.7891 38.5172C15.6241 38.4489 15.4742 38.3487 15.348 38.2225C15.2217 38.0962 15.1216 37.9463 15.0532 37.7814C14.9849 37.6164 14.9497 37.4396 14.9497 37.261V18.6818H44.4119V37.261C44.4119 37.4396 44.3767 37.6164 44.3084 37.7814C44.24 37.9463 44.1399 38.0962 44.0136 38.2225C43.8874 38.3487 43.7375 38.4489 43.5725 38.5172C43.4076 38.5855 43.2308 38.6207 43.0522 38.6207V38.6207Z" stroke="#003670" stroke-width="0.5" stroke-linecap="round" stroke-linejoin="round"/>
    <path d="M44.4121 15.9597C44.4121 15.5991 44.2689 15.2533 44.0139 14.9983C43.7589 14.7433 43.4131 14.6 43.0525 14.6H16.3096C15.9494 14.6006 15.6041 14.7441 15.3496 14.999C15.095 15.2539 14.9521 15.5995 14.9521 15.9597V18.6797H44.4121V15.9597Z" stroke="#003670" stroke-width="0.5" stroke-linecap="round" stroke-linejoin="round"/>
    <path d="M47.2717 44.5273H20.5289C20.1682 44.5273 19.8224 44.3841 19.5674 44.1291C19.3124 43.8741 19.1692 43.5283 19.1692 43.1677V24.5884H48.6313V43.1677C48.6313 43.5283 48.4881 43.8741 48.2331 44.1291C47.9781 44.3841 47.6323 44.5273 47.2717 44.5273Z" fill="#C2DFFF"/>
    <path d="M47.2721 20.5059H20.5293C20.1687 20.5059 19.8229 20.6492 19.5679 20.9042C19.3129 21.1591 19.1697 21.505 19.1697 21.8656V24.5849H48.6318V21.8656C48.6318 21.505 48.4886 21.1591 48.2336 20.9042C47.9786 20.6492 47.6328 20.5059 47.2721 20.5059Z" fill="white"/>
    <path d="M21.2108 23.2253C21.5863 23.2253 21.8907 22.921 21.8907 22.5455C21.8907 22.17 21.5863 21.8657 21.2108 21.8657C20.8354 21.8657 20.531 22.17 20.531 22.5455C20.531 22.921 20.8354 23.2253 21.2108 23.2253Z" fill="#003670"/>
    <path d="M23.4762 23.2253C23.8516 23.2253 24.156 22.921 24.156 22.5455C24.156 22.17 23.8516 21.8657 23.4762 21.8657C23.1007 21.8657 22.7963 22.17 22.7963 22.5455C22.7963 22.921 23.1007 23.2253 23.4762 23.2253Z" fill="#003670"/>
    <path d="M25.7424 23.2253C26.1179 23.2253 26.4222 22.921 26.4222 22.5455C26.4222 22.17 26.1179 21.8657 25.7424 21.8657C25.3669 21.8657 25.0626 22.17 25.0626 22.5455C25.0626 22.921 25.3669 23.2253 25.7424 23.2253Z" fill="#003670"/>
    <path d="M47.2717 44.5273H20.5289C20.1682 44.5273 19.8224 44.3841 19.5674 44.1291C19.3124 43.8741 19.1692 43.5283 19.1692 43.1677V24.5884H48.6313V43.1677C48.6313 43.5283 48.4881 43.8741 48.2331 44.1291C47.9781 44.3841 47.6323 44.5273 47.2717 44.5273V44.5273Z" stroke="#003670" stroke-width="0.5" stroke-linecap="round" stroke-linejoin="round"/>
    <path d="M47.2721 20.5059H20.5293C20.1687 20.5059 19.8229 20.6492 19.5679 20.9042C19.3129 21.1591 19.1697 21.505 19.1697 21.8656V24.5849H48.6318V21.8656C48.6318 21.505 48.4886 21.1591 48.2336 20.9042C47.9786 20.6492 47.6328 20.5059 47.2721 20.5059Z" stroke="#003670" stroke-width="0.5" stroke-linecap="round" stroke-linejoin="round"/>
    <path d="M46.4268 36.5932H33.1687V42.1993H46.4268V36.5932Z" fill="white" stroke="#003670" stroke-width="0.5" stroke-linecap="round" stroke-linejoin="round"/>
    <path d="M35.7043 40.3829H43.8897" stroke="#003670" stroke-width="0.5" stroke-linecap="round" stroke-linejoin="round"/>
    <path d="M37.4924 38.4088H43.8909" stroke="#003670" stroke-width="0.5" stroke-linecap="round" stroke-linejoin="round"/>
    <path d="M46.4268 27.0382H33.1687V35.5086H46.4268V27.0382Z" fill="white" stroke="#003670" stroke-width="0.5" stroke-linecap="round" stroke-linejoin="round"/>
    <path d="M31.3815 27.0382H21.2108V42.1986H31.3815V27.0382Z" fill="white" stroke="#003670" stroke-width="0.5" stroke-linecap="round" stroke-linejoin="round"/>
    <path d="M31.378 27.0382H21.2108V34.8661H31.378V27.0382Z" fill="white" stroke="#003670" stroke-width="0.5" stroke-linecap="round" stroke-linejoin="round"/>
    <path d="M24.7898 34.866L26.4401 32.5556C26.5306 32.4289 26.6501 32.3257 26.7885 32.2545C26.9269 32.1832 27.0804 32.1461 27.2361 32.1461C27.3917 32.1461 27.5452 32.1832 27.6836 32.2545C27.8221 32.3257 27.9415 32.4289 28.032 32.5556L29.6823 34.866H24.7898Z" fill="#C2DFFF" stroke="#003670" stroke-width="0.5" stroke-linecap="round" stroke-linejoin="round"/>
    <path d="M21.5038 34.8661L23.6559 31.9955C23.7471 31.874 23.8653 31.7754 24.0012 31.7075C24.1371 31.6395 24.2869 31.6042 24.4388 31.6042C24.5908 31.6042 24.7406 31.6395 24.8765 31.7075C25.0124 31.7754 25.1306 31.874 25.2218 31.9955L27.3725 34.8661H21.5038Z" fill="#C2DFFF" stroke="#003670" stroke-width="0.5" stroke-linecap="round" stroke-linejoin="round"/>
    <path d="M28.4978 30.3986C29.0435 30.3986 29.4858 29.9562 29.4858 29.4105C29.4858 28.8648 29.0435 28.4224 28.4978 28.4224C27.9521 28.4224 27.5097 28.8648 27.5097 29.4105C27.5097 29.9562 27.9521 30.3986 28.4978 30.3986Z" fill="#C2DFFF" stroke="#003670" stroke-width="0.5" stroke-linecap="round" stroke-linejoin="round"/>
    <path d="M23.0972 36.4348H29.4957" stroke="#003670" stroke-width="0.5" stroke-linecap="round" stroke-linejoin="round"/>
    <path d="M23.0972 38.4088H29.4957" stroke="#003670" stroke-width="0.5" stroke-linecap="round" stroke-linejoin="round"/>
    <path d="M23.0972 40.3829H29.4957" stroke="#003670" stroke-width="0.5" stroke-linecap="round" stroke-linejoin="round"/>
    <path d="M39.6112 32.7252C39.8754 32.333 40.0278 31.8762 40.052 31.4039C40.0762 30.9316 39.9714 30.4617 39.7487 30.0445C39.526 29.6273 39.194 29.2786 38.7881 29.0358C38.3822 28.7931 37.9179 28.6655 37.445 28.6666V31.2705L39.6112 32.7252Z" fill="#C2DFFF" stroke="#003670" stroke-width="0.5" stroke-linecap="round" stroke-linejoin="round"/>
    <path d="M37.4444 28.6666C36.9703 28.6667 36.5052 28.7961 36.0992 29.0409C35.6931 29.2856 35.3615 29.6364 35.1399 30.0556C34.9183 30.4747 34.8153 30.9463 34.8417 31.4197C34.8682 31.8931 35.0233 32.3503 35.2902 32.7421L37.4444 31.2733V28.6666Z" fill="#C2DFFF" stroke="#003670" stroke-width="0.5" stroke-linecap="round" stroke-linejoin="round"/>
    <path d="M37.4452 31.2734L35.2903 32.7414C35.5304 33.094 35.8533 33.3822 36.2307 33.5809C36.6081 33.7796 37.0286 33.8827 37.4551 33.8811C37.8816 33.8795 38.3012 33.7732 38.6772 33.5717C39.0531 33.3702 39.3739 33.0796 39.6113 32.7252L37.4452 31.2734Z" fill="#C2DFFF" stroke="#003670" stroke-width="0.5" stroke-linecap="round" stroke-linejoin="round"/>
    <path d="M42.5418 31.2734H44.6679" stroke="#003670" stroke-width="0.5" stroke-linecap="round" stroke-linejoin="round"/>
    <path d="M42.5418 29.3086H44.6679" stroke="#003670" stroke-width="0.5" stroke-linecap="round" stroke-linejoin="round"/>
    <path d="M42.5418 33.239H44.6679" stroke="#003670" stroke-width="0.5" stroke-linecap="round" stroke-linejoin="round"/>
</svg>
