<svg viewBox="0 0 96 96" fill="none" xmlns="http://www.w3.org/2000/svg">
    <path d="M48.0001 96C74.5098 96 96.0001 74.5097 96.0001 48C96.0001 21.4903 74.5098 -2.28882e-05 48.0001 -2.28882e-05C21.4904 -2.28882e-05 9.15527e-05 21.4903 9.15527e-05 48C9.15527e-05 74.5097 21.4904 96 48.0001 96Z" fill="#E0EFFF"/>
    <path d="M64.5119 9.62878H25.4831C22.5604 9.62878 20.1911 11.9981 20.1911 14.9208V69.1632C20.1911 72.0859 22.5604 74.4552 25.4831 74.4552H64.5119C67.4346 74.4552 69.8039 72.0859 69.8039 69.1632V14.9208C69.8039 11.9981 67.4346 9.62878 64.5119 9.62878Z" fill="#C2DFFF" stroke="#001B38" stroke-linecap="round" stroke-linejoin="round"/>
    <path d="M62.5273 13.5972H27.4669C26.7366 13.5972 26.1445 14.1893 26.1445 14.9196V67.8408C26.1445 68.5712 26.7366 69.1632 27.4669 69.1632H62.5273C63.2577 69.1632 63.8497 68.5712 63.8497 67.8408V14.9196C63.8497 14.1893 63.2577 13.5972 62.5273 13.5972Z" fill="white" stroke="#001B38" stroke-linecap="round" stroke-linejoin="round"/>
    <path d="M49.9199 8.30518C49.9283 8.19358 49.9535 8.08798 49.9535 7.97398C49.9333 6.6715 49.4017 5.42922 48.4734 4.5153C47.5452 3.60139 46.2948 3.08914 44.9922 3.08914C43.6895 3.08914 42.4391 3.60139 41.5109 4.5153C40.5826 5.42922 40.051 6.6715 40.0308 7.97398C40.0308 8.08798 40.0572 8.19358 40.0644 8.30518H34.08C33.7299 8.30518 33.3941 8.44425 33.1466 8.6918C32.899 8.93935 32.7599 9.2751 32.7599 9.62518V14.9172C32.7599 15.2673 32.899 15.603 33.1466 15.8506C33.3941 16.0981 33.7299 16.2372 34.08 16.2372H55.9115C56.2616 16.2372 56.5974 16.0981 56.8449 15.8506C57.0925 15.603 57.2316 15.2673 57.2316 14.9172V9.62518C57.2316 9.2751 57.0925 8.93935 56.8449 8.6918C56.5974 8.44425 56.2616 8.30518 55.9115 8.30518H49.9199Z" fill="white" stroke="#001B38" stroke-linecap="round" stroke-linejoin="round"/>
    <path d="M44.3349 89.8368C52.372 89.8368 58.8873 88.9481 58.8873 87.852C58.8873 86.7558 52.372 85.8672 44.3349 85.8672C36.2979 85.8672 29.7825 86.7558 29.7825 87.852C29.7825 88.9481 36.2979 89.8368 44.3349 89.8368Z" fill="#C2DFFF"/>
    <path d="M65.5786 85.7064C77.2694 85.7064 86.7467 76.2292 86.7467 64.5384C86.7467 52.8476 77.2694 43.3704 65.5786 43.3704C53.8879 43.3704 44.4106 52.8476 44.4106 64.5384C44.4106 76.2292 53.8879 85.7064 65.5786 85.7064Z" fill="white" stroke="#001B38" stroke-linecap="round" stroke-linejoin="round"/>
    <path d="M65.5788 70.8888C64.9476 70.8882 64.3424 70.6371 63.896 70.1908C63.4497 69.7444 63.1987 69.1392 63.198 68.508V65.868C63.1975 65.5549 63.2588 65.2447 63.3781 64.9553C63.4975 64.6658 63.6728 64.4027 63.8939 64.1809C64.1149 63.9592 64.3775 63.7832 64.6666 63.6629C64.9557 63.5426 65.2657 63.4805 65.5788 63.48C66.4162 63.48 67.2347 63.2317 67.9309 62.7665C68.6271 62.3013 69.1697 61.6401 69.4902 60.8665C69.8106 60.0929 69.8944 59.2417 69.7311 58.4205C69.5677 57.5992 69.1645 56.8449 68.5724 56.2528C67.9803 55.6607 67.226 55.2575 66.4048 55.0942C65.5835 54.9308 64.7323 55.0146 63.9587 55.3351C63.1851 55.6555 62.5239 56.1981 62.0587 56.8943C61.5935 57.5906 61.3452 58.4091 61.3452 59.2464C61.3452 59.8778 61.0944 60.4834 60.6479 60.9299C60.2014 61.3764 59.5958 61.6272 58.9644 61.6272C58.333 61.6272 57.7274 61.3764 57.2809 60.9299C56.8345 60.4834 56.5836 59.8778 56.5836 59.2464C56.5824 57.5684 57.0502 55.9235 57.9344 54.4973C58.8186 53.0712 60.0838 51.9206 61.5874 51.1755C63.0909 50.4304 64.7727 50.1205 66.4431 50.2808C68.1134 50.441 69.7057 51.065 71.0401 52.0823C72.3745 53.0997 73.398 54.4698 73.9949 56.038C74.5918 57.6063 74.7384 59.3102 74.4182 60.9573C74.0979 62.6045 73.3236 64.1293 72.1825 65.3596C71.0415 66.59 69.5792 67.4768 67.9608 67.92V68.5044C67.9608 69.1364 67.7099 69.7425 67.2633 70.1896C66.8167 70.6367 66.2108 70.8882 65.5788 70.8888Z" fill="#C2DFFF" stroke="#001B38" stroke-linecap="round" stroke-linejoin="round"/>
    <path d="M65.5789 78.8268C67.2596 78.8268 68.6221 77.4644 68.6221 75.7836C68.6221 74.1029 67.2596 72.7404 65.5789 72.7404C63.8982 72.7404 62.5357 74.1029 62.5357 75.7836C62.5357 77.4644 63.8982 78.8268 65.5789 78.8268Z" fill="#C2DFFF" stroke="#001B38" stroke-linecap="round" stroke-linejoin="round"/>
</svg>
