<svg viewBox="0 0 82 80" fill="none" xmlns="http://www.w3.org/2000/svg">
    <path d="M40.9838 79.9676C63.0662 79.9676 80.9676 62.0662 80.9676 39.9838C80.9676 17.9014 63.0662 0 40.9838 0C18.9014 0 1 17.9014 1 39.9838C1 62.0662 18.9014 79.9676 40.9838 79.9676Z" fill="#E0EFFF"/>
    <path d="M43.3109 18.2288C43.3109 19.4703 42.3043 22.2822 41.0628 22.2822C39.8213 22.2822 38.8137 19.4703 38.8137 18.2288C38.8137 17.6323 39.0507 17.0603 39.4725 16.6385C39.8943 16.2167 40.4663 15.9797 41.0628 15.9797C41.6593 15.9797 42.2314 16.2167 42.6532 16.6385C43.0749 17.0603 43.3119 17.6323 43.3119 18.2288H43.3109Z" fill="white" stroke="#003670" stroke-linecap="round" stroke-linejoin="round"/>
    <path d="M26.017 25.7897C27.0925 26.4105 29.0237 28.6886 28.403 29.7641C27.7822 30.8397 24.8444 30.3059 23.7689 29.6842C23.5129 29.5366 23.2885 29.34 23.1085 29.1056C22.9285 28.8713 22.7964 28.6038 22.7198 28.3184C22.6432 28.0331 22.6235 27.7354 22.6619 27.4424C22.7003 27.1494 22.7961 26.8669 22.9437 26.6109C23.0913 26.3549 23.2879 26.1305 23.5222 25.9505C23.7566 25.7705 24.0241 25.6385 24.3094 25.5618C24.5948 25.4852 24.8925 25.4655 25.1855 25.504C25.4784 25.5424 25.761 25.6381 26.017 25.7857V25.7897Z" fill="white" stroke="#003670" stroke-linecap="round" stroke-linejoin="round"/>
    <path d="M23.9168 44.5442C24.9924 43.9235 27.9302 43.3897 28.5509 44.4653C29.1717 45.5408 27.2405 47.8179 26.1649 48.4386C25.9089 48.5863 25.6264 48.682 25.3334 48.7204C25.0404 48.7588 24.7428 48.7392 24.4574 48.6626C24.172 48.5859 23.9045 48.4538 23.6702 48.2738C23.4358 48.0938 23.2393 47.8695 23.0916 47.6135C22.944 47.3575 22.8483 47.075 22.8099 46.782C22.7715 46.489 22.7911 46.1913 22.8677 45.906C22.9444 45.6206 23.0764 45.3531 23.2564 45.1188C23.4364 44.8844 23.6608 44.6878 23.9168 44.5402V44.5442Z" fill="white" stroke="#003670" stroke-linecap="round" stroke-linejoin="round"/>
    <path d="M39.1096 55.7416C39.1096 54.5001 40.1162 51.6882 41.3587 51.6882C42.6012 51.6882 43.6068 54.5001 43.6068 55.7416C43.6068 56.3381 43.3699 56.9101 42.9481 57.3319C42.5263 57.7537 41.9542 57.9907 41.3577 57.9907C40.7612 57.9907 40.1892 57.7537 39.7674 57.3319C39.3456 56.9101 39.1086 56.3381 39.1086 55.7416H39.1096Z" fill="white" stroke="#003670" stroke-linecap="round" stroke-linejoin="round"/>
    <path d="M58.5037 29.4263C57.4292 30.047 54.4913 30.5808 53.8696 29.5052C53.2478 28.4297 55.1801 26.1526 56.2556 25.5318C56.5116 25.3842 56.7941 25.2885 57.0871 25.2501C57.3801 25.2116 57.6778 25.2313 57.9632 25.3079C58.2485 25.3845 58.516 25.5166 58.7504 25.6966C58.9847 25.8766 59.1813 26.101 59.3289 26.357C59.4765 26.613 59.5722 26.8955 59.6107 27.1885C59.6491 27.4815 59.6294 27.7791 59.5528 28.0645C59.4762 28.3499 59.3441 28.6174 59.1641 28.8517C58.9841 29.0861 58.7597 29.2826 58.5037 29.4303V29.4263Z" fill="white" stroke="#003670" stroke-linecap="round" stroke-linejoin="round"/>
    <path d="M14.2987 25.7956L16.8976 31.0605C17.0001 31.2696 17.1521 31.4504 17.3405 31.5874C17.5288 31.7243 17.7477 31.8131 17.9782 31.8462L23.7898 32.6909C24.0553 32.7288 24.3049 32.8404 24.5103 33.013C24.7157 33.1855 24.8686 33.4121 24.9519 33.6671C25.0351 33.9221 25.0452 34.1953 24.9812 34.4557C24.9172 34.7162 24.7815 34.9535 24.5895 35.1409L20.3842 39.2392C20.2174 39.4017 20.0927 39.6024 20.0209 39.824C19.9491 40.0455 19.9325 40.2812 19.9724 40.5107L20.964 46.2983C21.0093 46.5625 20.9798 46.8341 20.8789 47.0824C20.7779 47.3307 20.6095 47.5458 20.3926 47.7034C20.1758 47.8609 19.9192 47.9547 19.6518 47.974C19.3845 47.9933 19.1171 47.9375 18.8798 47.8127L13.6819 45.0798C13.4758 44.9715 13.2465 44.9149 13.0137 44.9149C12.7809 44.9149 12.5516 44.9715 12.3455 45.0798L7.14757 47.8127C6.91032 47.9375 6.6429 47.9933 6.37556 47.974C6.10821 47.9547 5.85161 47.8609 5.63477 47.7034C5.41793 47.5458 5.2495 47.3307 5.14853 47.0824C5.04756 46.8341 5.01808 46.5625 5.06342 46.2983L6.05601 40.5107C6.09538 40.2812 6.07847 40.0457 6.00674 39.8242C5.935 39.6027 5.81059 39.402 5.64418 39.2392L1.43788 35.1409C1.24591 34.9535 1.11022 34.7162 1.04618 34.4557C0.98214 34.1953 0.992309 33.9221 1.07554 33.6671C1.15876 33.4121 1.31172 33.1855 1.51709 33.013C1.72246 32.8404 1.97204 32.7288 2.23756 32.6909L8.04921 31.8462C8.27975 31.813 8.49873 31.7241 8.68718 31.5872C8.87564 31.4503 9.02789 31.2695 9.13077 31.0605L11.7297 25.7956C11.8491 25.5572 12.0324 25.3567 12.2593 25.2166C12.4862 25.0764 12.7475 25.0022 13.0142 25.0022C13.2808 25.0022 13.5422 25.0764 13.7691 25.2166C13.9959 25.3567 14.1793 25.5572 14.2987 25.7956Z" fill="#8AC2FF" stroke="#003670" stroke-linecap="round" stroke-linejoin="round"/>
    <path d="M70.276 25.7956L72.8749 31.0605C72.9774 31.2696 73.1294 31.4504 73.3178 31.5874C73.5061 31.7243 73.725 31.8131 73.9555 31.8462L79.7671 32.6909C80.0326 32.7288 80.2822 32.8404 80.4876 33.013C80.693 33.1855 80.8459 33.4121 80.9291 33.6671C81.0124 33.9221 81.0225 34.1953 80.9585 34.4557C80.8945 34.7162 80.7588 34.9535 80.5668 35.1409L76.3615 39.2392C76.1947 39.4017 76.07 39.6024 75.9982 39.824C75.9264 40.0455 75.9098 40.2812 75.9497 40.5107L76.9413 46.2983C76.9866 46.5625 76.9571 46.8341 76.8561 47.0824C76.7552 47.3307 76.5868 47.5458 76.3699 47.7034C76.1531 47.8609 75.8965 47.9547 75.6291 47.974C75.3618 47.9933 75.0944 47.9375 74.8571 47.8127L69.6592 45.0798C69.4531 44.9715 69.2238 44.9149 68.991 44.9149C68.7582 44.9149 68.5288 44.9715 68.3228 45.0798L63.1249 47.8127C62.8876 47.9375 62.6202 47.9933 62.3529 47.974C62.0855 47.9547 61.8289 47.8609 61.6121 47.7034C61.3952 47.5458 61.2268 47.3307 61.1258 47.0824C61.0249 46.8341 60.9954 46.5625 61.0407 46.2983L62.0333 40.5107C62.0727 40.2812 62.0558 40.0457 61.984 39.8242C61.9123 39.6027 61.7879 39.402 61.6215 39.2392L57.4152 35.1409C57.2232 34.9535 57.0875 34.7162 57.0235 34.4557C56.9594 34.1953 56.9696 33.9221 57.0528 33.6671C57.1361 33.4121 57.289 33.1855 57.4944 33.013C57.6998 32.8404 57.9493 32.7288 58.2149 32.6909L64.0265 31.8462C64.257 31.813 64.476 31.7241 64.6645 31.5872C64.8529 31.4503 65.0052 31.2695 65.1081 31.0605L67.707 25.7956C67.8264 25.5572 68.0097 25.3567 68.2366 25.2166C68.4635 25.0764 68.7248 25.0022 68.9915 25.0022C69.2581 25.0022 69.5195 25.0764 69.7464 25.2166C69.9732 25.3567 70.1566 25.5572 70.276 25.7956Z" fill="#8AC2FF" stroke="#003670" stroke-linecap="round" stroke-linejoin="round"/>
    <path d="M42.2715 25.7957L44.8705 31.0605C44.9732 31.2696 45.1254 31.4505 45.3139 31.5874C45.5024 31.7243 45.7215 31.8131 45.9521 31.8462L51.7637 32.6909C52.029 32.7292 52.2783 32.841 52.4834 33.0136C52.6886 33.1861 52.8414 33.4126 52.9245 33.6675C53.0077 33.9223 53.018 34.1953 52.9541 34.4557C52.8903 34.7161 52.755 34.9534 52.5634 35.1409L48.3571 39.2392C48.1905 39.4019 48.0659 39.6026 47.9942 39.8241C47.9224 40.0456 47.9056 40.2813 47.9453 40.5107L48.9379 46.2984C48.9832 46.5625 48.9537 46.8341 48.8527 47.0824C48.7518 47.3307 48.5833 47.5458 48.3665 47.7034C48.1497 47.8609 47.8931 47.9547 47.6257 47.974C47.3584 47.9933 47.0909 47.9375 46.8537 47.8127L41.6558 45.0798C41.4497 44.9715 41.2204 44.915 40.9876 44.915C40.7548 44.915 40.5254 44.9715 40.3193 45.0798L35.1214 47.8127C34.8843 47.9376 34.6169 47.9936 34.3495 47.9743C34.0822 47.955 33.8256 47.8612 33.6087 47.7036C33.3919 47.546 33.2236 47.3308 33.1228 47.0825C33.0219 46.8341 32.9927 46.5625 33.0383 46.2984L34.0299 40.5107C34.0698 40.2813 34.0531 40.0455 33.9814 39.824C33.9096 39.6024 33.7849 39.4017 33.6181 39.2392L29.4118 35.1409C29.2198 34.9535 29.0841 34.7162 29.0201 34.4557C28.956 34.1953 28.9662 33.9221 29.0494 33.6671C29.1326 33.4121 29.2856 33.1855 29.491 33.013C29.6963 32.8405 29.9459 32.7289 30.2114 32.6909L36.0231 31.8462C36.2535 31.813 36.4724 31.7241 36.6606 31.5872C36.8489 31.4503 37.001 31.2695 37.1036 31.0605L39.7026 25.7957C39.8217 25.5569 40.005 25.3561 40.2319 25.2157C40.4587 25.0753 40.7203 25.001 40.9871 25.001C41.2539 25.001 41.5154 25.0753 41.7423 25.2157C41.9692 25.3561 42.1525 25.5569 42.2715 25.7957Z" fill="white" stroke="#003670" stroke-linecap="round" stroke-linejoin="round"/>
    <path d="M66.7413 74.204C62.568 67.7066 56.8903 73.9981 50.298 63.7412C47.809 59.8678 48.0988 57.5247 50.8877 55.7305L41.5635 41.2213C41.1791 40.6235 41.0479 39.8975 41.1988 39.2029C41.3497 38.5084 41.7703 37.9022 42.3682 37.5178C42.966 37.1334 43.692 37.0022 44.3866 37.1532C45.0811 37.3041 45.6873 37.7247 46.0717 38.3225L53.2228 49.451C52.8384 48.8532 52.7072 48.1271 52.8581 47.4326C53.009 46.7381 53.4296 46.1319 54.0274 45.7475C54.6253 45.3631 55.3513 45.2319 56.0458 45.3828C56.7404 45.5337 57.3465 45.9544 57.7309 46.5522L58.4546 47.6787C58.0702 47.0809 57.9391 46.3549 58.09 45.6603C58.2409 44.9658 58.6615 44.3596 59.2593 43.9752C59.8571 43.5908 60.5832 43.4596 61.2777 43.6105C61.9723 43.7614 62.5784 44.1821 62.9628 44.7799L63.6865 45.9074C63.4962 45.6114 63.366 45.2808 63.3034 44.9345C63.2409 44.5882 63.2471 44.2329 63.3218 43.889C63.3966 43.5451 63.5383 43.2193 63.7389 42.9302C63.9396 42.6411 64.1952 42.3943 64.4912 42.2039C64.7872 42.0136 65.1178 41.8834 65.4641 41.8209C65.8105 41.7583 66.1657 41.7645 66.5096 41.8393C66.8535 41.914 67.1793 42.0557 67.4685 42.2563C67.7576 42.457 68.0044 42.7126 68.1947 43.0086L73.4446 51.1783C77.1761 56.9839 75.5757 59.45 77.7088 62.7736L79.7 65.8723" fill="white"/>
    <path d="M66.7413 74.204C62.568 67.7066 56.8903 73.9981 50.298 63.7412C47.809 59.8678 48.0988 57.5247 50.8877 55.7305L41.5635 41.2213C41.1791 40.6235 41.0479 39.8975 41.1988 39.2029C41.3497 38.5084 41.7703 37.9022 42.3682 37.5178C42.966 37.1334 43.692 37.0022 44.3866 37.1532C45.0811 37.3041 45.6873 37.7247 46.0717 38.3225L53.2228 49.451C52.8384 48.8532 52.7072 48.1271 52.8581 47.4326C53.009 46.7381 53.4296 46.1319 54.0274 45.7475C54.6253 45.3631 55.3513 45.2319 56.0458 45.3828C56.7404 45.5337 57.3465 45.9544 57.7309 46.5522L58.4546 47.6787C58.0702 47.0809 57.9391 46.3549 58.09 45.6603C58.2409 44.9658 58.6615 44.3596 59.2593 43.9752C59.8571 43.5908 60.5832 43.4596 61.2777 43.6105C61.9723 43.7614 62.5784 44.1821 62.9628 44.7799L63.6865 45.9074C63.4962 45.6114 63.366 45.2808 63.3034 44.9345C63.2409 44.5882 63.2471 44.2329 63.3218 43.889C63.3966 43.5451 63.5383 43.2193 63.7389 42.9302C63.9396 42.6411 64.1952 42.3943 64.4912 42.2039C64.7872 42.0136 65.1178 41.8834 65.4641 41.8209C65.8105 41.7583 66.1657 41.7645 66.5096 41.8393C66.8535 41.914 67.1793 42.0557 67.4685 42.2563C67.7576 42.457 68.0044 42.7126 68.1947 43.0086L73.4446 51.1783C77.1761 56.9839 75.5757 59.45 77.7088 62.7736L79.7 65.8723" stroke="#003670" stroke-linecap="round" stroke-linejoin="round"/>
    <path d="M54.1464 60.8014L50.8877 55.7305" stroke="#003670" stroke-linecap="round" stroke-linejoin="round"/>
    <path d="M60.0248 50.1259L58.4548 47.6829" stroke="#003670" stroke-linecap="round" stroke-linejoin="round"/>
    <path d="M55.3958 52.8338L53.2227 49.4531" stroke="#003670" stroke-linecap="round" stroke-linejoin="round"/>
    <path d="M64.5315 47.2286L63.6865 45.9136" stroke="#003670" stroke-linecap="round" stroke-linejoin="round"/>
</svg>
