<svg viewBox="0 0 87 97" fill="none" xmlns="http://www.w3.org/2000/svg">
    <path d="M42.1506 97.0001C65.4297 97.0001 84.3011 78.1286 84.3011 54.8495C84.3011 31.5704 65.4297 12.6989 42.1506 12.6989C18.8714 12.6989 0 31.5704 0 54.8495C0 78.1286 18.8714 97.0001 42.1506 97.0001Z" fill="#E0EFFF"/>
    <path d="M53.0138 80.4318C53.0129 81.6817 52.5159 82.8802 51.6319 83.7638C50.7478 84.6474 49.5491 85.144 48.2992 85.1442H23.8519C23.2327 85.1446 22.6196 85.0231 22.0474 84.7864C21.4752 84.5498 20.9553 84.2028 20.5173 83.7652C20.0793 83.3276 19.7318 82.8079 19.4947 82.236C19.2575 81.664 19.1354 81.051 19.1353 80.4318V27.9965C19.1364 26.7471 19.6336 25.5492 20.5177 24.6663C21.4018 23.7834 22.6003 23.2877 23.8498 23.2883H48.2971C49.5475 23.2883 50.7467 23.785 51.6308 24.6691C52.5149 25.5533 53.0117 26.7524 53.0117 28.0028L53.0138 80.4318Z" fill="white" stroke="#003670"/>
    <path d="M53.0138 80.4318C53.0129 81.6817 52.5159 82.8802 51.6319 83.7638C50.7478 84.6474 49.5491 85.144 48.2992 85.1442H23.8519C23.2327 85.1447 22.6196 85.0231 22.0474 84.7864C21.4752 84.5498 20.9553 84.2028 20.5173 83.7652C20.0793 83.3276 19.7318 82.8079 19.4947 82.236C19.2575 81.664 19.1354 81.051 19.1353 80.4318V27.9965C19.1364 26.7471 19.6336 25.5492 20.5177 24.6663C21.4018 23.7834 22.6003 23.2877 23.8498 23.2883H48.2971C49.5475 23.2883 50.7467 23.785 51.6308 24.6691C52.5149 25.5533 53.0117 26.7525 53.0117 28.0028L53.0138 80.4318Z" stroke="#003670" stroke-linecap="round" stroke-linejoin="round"/>
    <path d="M50.0683 32.1199H22.0814V75.573H50.0683V32.1199Z" fill="#C2DFFF" stroke="#003670"/>
    <path d="M50.0683 32.1199H22.0814V75.573H50.0683V32.1199Z" stroke="#003670" stroke-linecap="round" stroke-linejoin="round"/>
    <path d="M34.6013 27.7014L42.7027 27.7004" stroke="#003670" stroke-linecap="round" stroke-linejoin="round"/>
    <path d="M30.5976 27.6993H30.5976V27.7005C30.5976 27.7827 30.5732 27.8631 30.5275 27.9315C30.4818 27.9999 30.4168 28.0532 30.3408 28.0846C30.2648 28.1161 30.1812 28.1243 30.1006 28.1082L30.0028 28.5985L30.1006 28.1082C30.0199 28.0921 29.9458 28.0525 29.8877 27.9943C29.8296 27.9361 29.79 27.862 29.774 27.7813C29.7581 27.7006 29.7664 27.617 29.7979 27.5411C29.8294 27.4651 29.8828 27.4002 29.9512 27.3546C30.0197 27.309 30.1001 27.2847 30.1823 27.2848L30.1835 27.2848C30.2379 27.2847 30.2918 27.2954 30.3421 27.3162C30.3924 27.337 30.4381 27.3676 30.4766 27.4061C30.5151 27.4446 30.5455 27.4903 30.5663 27.5406C30.5871 27.591 30.5977 27.6449 30.5976 27.6993Z" fill="#C2DFFF" stroke="#003670"/>
    <path d="M36.0744 82.9377C37.4979 82.9377 38.6519 81.7837 38.6519 80.3602C38.6519 78.9367 37.4979 77.7827 36.0744 77.7827C34.6509 77.7827 33.4969 78.9367 33.4969 80.3602C33.4969 81.7837 34.6509 82.9377 36.0744 82.9377Z" fill="white" stroke="#003670" stroke-linecap="round" stroke-linejoin="round"/>
    <path d="M36.0745 95.178C43.9999 95.178 50.4247 94.3019 50.4247 93.2211C50.4247 92.1404 43.9999 91.2643 36.0745 91.2643C28.1492 91.2643 21.7244 92.1404 21.7244 93.2211C21.7244 94.3019 28.1492 95.178 36.0745 95.178Z" fill="#C2DFFF"/>
    <path d="M79.7993 1H43.2664C42.4097 0.999862 41.5614 1.16848 40.7699 1.49622C39.9784 1.82396 39.2592 2.3044 38.6534 2.91011C38.0476 3.51582 37.567 4.23494 37.2392 5.02639C36.9113 5.81784 36.7426 6.66612 36.7426 7.5228V31.0059C36.7426 31.8626 36.9113 32.7109 37.2392 33.5023C37.567 34.2938 38.0476 35.0129 38.6534 35.6186C39.2592 36.2243 39.9784 36.7048 40.7699 37.0325C41.5614 37.3602 42.4097 37.5289 43.2664 37.5287H46.178L44.5973 46.2465C44.5513 46.4985 44.5806 46.7585 44.6814 46.994C44.7822 47.2295 44.9501 47.4301 45.1642 47.5708C45.3783 47.7115 45.629 47.7861 45.8852 47.7852C46.1414 47.7843 46.3916 47.708 46.6047 47.5658L61.6599 37.5287H79.7993C81.5293 37.5287 83.1884 36.8415 84.4117 35.6182C85.6349 34.395 86.3221 32.7359 86.3221 31.0059V7.5228C86.3221 5.79284 85.6349 4.13375 84.4117 2.91048C83.1884 1.68722 81.5293 1 79.7993 1Z" fill="white" stroke="#003670"/>
    <path d="M79.7993 1H43.2664C42.4097 0.999862 41.5614 1.16848 40.7699 1.49622C39.9784 1.82396 39.2592 2.3044 38.6534 2.91011C38.0476 3.51582 37.567 4.23494 37.2392 5.02639C36.9113 5.81784 36.7426 6.66612 36.7426 7.5228V31.0059C36.7426 31.8626 36.9113 32.7109 37.2392 33.5023C37.567 34.2938 38.0476 35.0129 38.6534 35.6186C39.2592 36.2243 39.9784 36.7048 40.7699 37.0325C41.5614 37.3602 42.4097 37.5289 43.2664 37.5287H46.178L44.5973 46.2465C44.5513 46.4985 44.5806 46.7585 44.6814 46.994C44.7822 47.2295 44.9501 47.4301 45.1642 47.5708C45.3783 47.7115 45.629 47.7861 45.8852 47.7852C46.1414 47.7843 46.3916 47.708 46.6047 47.5658L61.6599 37.5287H79.7993C81.5293 37.5287 83.1884 36.8415 84.4117 35.6182C85.6349 34.395 86.3221 32.7359 86.3221 31.0059V7.5228C86.3221 5.79284 85.6349 4.13375 84.4117 2.91048C83.1884 1.68722 81.5293 1 79.7993 1V1Z" stroke="#003670" stroke-linecap="round" stroke-linejoin="round"/>
    <path d="M49.7933 21.8739C51.2342 21.8739 52.4024 20.7058 52.4024 19.2648C52.4024 17.8238 51.2342 16.6557 49.7933 16.6557C48.3523 16.6557 47.1841 17.8238 47.1841 19.2648C47.1841 20.7058 48.3523 21.8739 49.7933 21.8739Z" fill="#C2DFFF" stroke="#003670" stroke-linecap="round" stroke-linejoin="round"/>
    <path d="M61.5343 21.8739C62.9753 21.8739 64.1435 20.7058 64.1435 19.2648C64.1435 17.8238 62.9753 16.6557 61.5343 16.6557C60.0934 16.6557 58.9252 17.8238 58.9252 19.2648C58.9252 20.7058 60.0934 21.8739 61.5343 21.8739Z" fill="#C2DFFF" stroke="#003670" stroke-linecap="round" stroke-linejoin="round"/>
    <path d="M73.2765 21.8739C74.7175 21.8739 75.8857 20.7058 75.8857 19.2648C75.8857 17.8238 74.7175 16.6557 73.2765 16.6557C71.8356 16.6557 70.6674 17.8238 70.6674 19.2648C70.6674 20.7058 71.8356 21.8739 73.2765 21.8739Z" fill="#C2DFFF" stroke="#003670" stroke-linecap="round" stroke-linejoin="round"/>
</svg>
