<svg viewBox="0 0 96 94" fill="none" xmlns="http://www.w3.org/2000/svg">
    <path d="M48.0001 94C73.9575 94 95.0001 72.9574 95.0001 47C95.0001 21.0426 73.9575 0 48.0001 0C22.0427 0 1.00009 21.0426 1.00009 47C1.00009 72.9574 22.0427 94 48.0001 94Z" fill="#E0EFFF"/>
    <path d="M38.987 66.3838C39.055 66.637 39.0724 66.9012 39.0382 67.1611C39.0041 67.4211 38.919 67.6718 38.788 67.8989C38.6569 68.126 38.4824 68.325 38.2744 68.4846C38.0663 68.6442 37.8289 68.7613 37.5757 68.8291L11.6583 75.7726C11.4051 75.8405 11.1409 75.8579 10.881 75.8238C10.621 75.7896 10.3703 75.7046 10.1432 75.5735C9.91613 75.4424 9.71709 75.2679 9.55747 75.0599C9.39785 74.8519 9.28078 74.6145 9.21294 74.3612L0.943212 43.4877C0.806589 42.9757 0.878704 42.4304 1.14373 41.9715C1.40875 41.5126 1.84502 41.1777 2.35677 41.0401L20.2749 36.241L32.8573 43.5051L38.987 66.3838Z" fill="white" stroke="#003670" stroke-linecap="round" stroke-linejoin="round"/>
    <path d="M20.2748 36.2388L22.9339 46.162L32.8571 43.5029L20.2748 36.2388Z" fill="#C2DFFF" stroke="#003670" stroke-linecap="round" stroke-linejoin="round"/>
    <path d="M13.2398 48.7168C13.4146 49.3399 13.4007 50.0008 13.1998 50.6159C12.999 51.2311 12.6203 51.7729 12.1116 52.1728C11.6029 52.5728 10.987 52.8129 10.3419 52.8628C9.69669 52.9128 9.05119 52.7703 8.48699 52.4535C7.92278 52.1366 7.46519 51.6595 7.17208 51.0826C6.87897 50.5057 6.7635 49.8548 6.84026 49.2123C6.91703 48.5698 7.18259 47.9644 7.60336 47.4728C8.02413 46.9812 8.58123 46.6254 9.2042 46.4503C9.61801 46.3341 10.0507 46.3005 10.4774 46.3515C10.9042 46.4025 11.3168 46.537 11.6916 46.7475C12.0663 46.958 12.396 47.2402 12.6616 47.5781C12.9273 47.916 13.1237 48.303 13.2398 48.7168Z" fill="white" stroke="#003670" stroke-linecap="round" stroke-linejoin="round"/>
    <path d="M12.9998 68.0416L15.4277 61.3185C15.5265 61.0455 15.6787 60.795 15.8755 60.5816C16.0723 60.3682 16.3097 60.1962 16.5738 60.0758C16.8379 59.9553 17.1234 59.8887 17.4136 59.88C17.7037 59.8713 17.9927 59.9206 18.2636 60.0249L21.2674 61.1898L23.067 55.047C23.176 54.6751 23.3821 54.3389 23.6641 54.0731C23.9461 53.8073 24.2938 53.6214 24.6715 53.5345C25.0491 53.4476 25.4431 53.463 25.8129 53.5789C26.1827 53.6948 26.5149 53.9071 26.7754 54.194L33.9981 62.1475L12.9998 68.0416Z" fill="#C2DFFF" stroke="#003670" stroke-linecap="round" stroke-linejoin="round"/>
    <path d="M88.842 74.3312C88.7742 74.5844 88.6572 74.8219 88.4977 75.0299C88.3381 75.238 88.1391 75.4126 87.912 75.5437C87.685 75.6749 87.4343 75.76 87.1744 75.7942C86.9144 75.8284 86.6503 75.8111 86.397 75.7432L60.4802 68.7977C60.2269 68.7299 59.9895 68.6129 59.7814 68.4534C59.5734 68.2938 59.3988 68.0948 59.2676 67.8678C59.1365 67.6407 59.0514 67.3901 59.0172 67.1301C58.9829 66.8702 59.0003 66.606 59.0682 66.3528L67.3431 35.4806C67.4808 34.9689 67.8159 34.5327 68.2748 34.2679C68.7338 34.003 69.2791 33.931 69.7911 34.0678L87.7082 38.8707L94.9728 51.4528L88.842 74.3312Z" fill="white" stroke="#003670" stroke-linecap="round" stroke-linejoin="round"/>
    <path d="M87.7092 38.8687L85.0504 48.792L94.9738 51.4507L87.7092 38.8687Z" fill="#C2DFFF" stroke="#003670" stroke-linecap="round" stroke-linejoin="round"/>
    <path d="M75.1692 49.0794C75.0241 48.945 74.8467 48.8504 74.6543 48.8049C74.4618 48.7595 74.2609 48.7646 74.071 48.8198C73.8811 48.8751 73.7087 48.9785 73.5707 49.1202C73.4327 49.2618 73.3337 49.4368 73.2834 49.628L70.838 58.9207C70.7877 59.112 70.7878 59.313 70.8382 59.5042C70.8886 59.6954 70.9877 59.8703 71.1258 60.0119C71.2639 60.1534 71.4363 60.2568 71.6263 60.312C71.8162 60.3671 72.0171 60.3721 72.2096 60.3265L82.1459 57.9724C82.3479 57.9246 82.5331 57.8227 82.6816 57.6778C82.8302 57.5328 82.9366 57.3502 82.9894 57.1495C83.0422 56.9488 83.0395 56.7375 82.9815 56.5382C82.9236 56.3389 82.8125 56.1591 82.6602 56.018L75.1692 49.0794Z" fill="#C2DFFF"/>
    <path d="M75.1692 49.0794C75.0241 48.945 74.8467 48.8504 74.6543 48.8049C74.4618 48.7595 74.2609 48.7646 74.071 48.8198C73.8811 48.8751 73.7087 48.9785 73.5707 49.1202C73.4327 49.2618 73.3337 49.4368 73.2834 49.628L70.838 58.9207C70.7877 59.112 70.7878 59.313 70.8382 59.5042C70.8886 59.6954 70.9877 59.8703 71.1258 60.0119C71.2639 60.1534 71.4363 60.2568 71.6263 60.312C71.8162 60.3671 72.0171 60.3721 72.2096 60.3265L82.1459 57.9724C82.3479 57.9246 82.5331 57.8227 82.6816 57.6778C82.8302 57.5328 82.9366 57.3502 82.9894 57.1495C83.0422 56.9488 83.0395 56.7375 82.9815 56.5382C82.9236 56.3389 82.8125 56.1591 82.6602 56.018L75.1692 49.0794Z" stroke="#003670" stroke-linecap="round" stroke-linejoin="round"/>
    <path d="M68.7829 68.8774C68.7788 69.5801 68.496 70.2526 67.9967 70.7471C67.4973 71.2415 66.8222 71.5177 66.1194 71.5149L30.5453 71.3436C29.8427 71.3405 29.17 71.0585 28.6753 70.5596C28.1805 70.0606 27.9042 69.3856 27.9071 68.683L28.1095 26.2949C28.1126 25.5923 28.3947 24.9196 28.8936 24.4249C29.3926 23.9302 30.0676 23.6538 30.7702 23.6567L55.3704 23.7763L68.9302 37.4652L68.7829 68.8774Z" fill="white" stroke="#003670" stroke-linecap="round" stroke-linejoin="round"/>
    <path d="M55.3712 23.7732L55.3066 37.3975L68.931 37.4621L55.3712 23.7732Z" fill="#C2DFFF" stroke="#003670" stroke-linecap="round" stroke-linejoin="round"/>
    <path d="M34.8684 38.3139L48.4927 38.3785" stroke="#003670" stroke-linecap="round" stroke-linejoin="round"/>
    <path d="M34.8384 45.1235L60.9517 45.2485" stroke="#003670" stroke-linecap="round" stroke-linejoin="round"/>
    <path d="M34.8039 51.9379L60.9199 52.0636" stroke="#003670" stroke-linecap="round" stroke-linejoin="round"/>
    <path d="M22.5279 22.8503C22.5636 22.986 22.5723 23.1273 22.5535 23.2663C22.5346 23.4054 22.4886 23.5393 22.4179 23.6605C22.3473 23.7817 22.2535 23.8879 22.1419 23.9728C22.0302 24.0578 21.9029 24.1199 21.7673 24.1557L10.0564 27.2418C9.92075 27.2775 9.77937 27.2862 9.64036 27.2674C9.50134 27.2485 9.3674 27.2025 9.24618 27.1318C9.12496 27.0612 9.01885 26.9674 8.93389 26.8558C8.84893 26.7441 8.7868 26.6168 8.75103 26.4812L5.5154 14.2191C5.47962 14.0834 5.47091 13.9421 5.48977 13.8031C5.50863 13.664 5.55468 13.5301 5.62531 13.4089C5.69593 13.2877 5.78975 13.1816 5.90139 13.0966C6.01303 13.0116 6.14031 12.9495 6.27597 12.9137L17.9858 9.81804C18.1214 9.78226 18.2628 9.77355 18.4018 9.79241C18.5408 9.81127 18.6748 9.85733 18.796 9.92795C18.9172 9.99858 19.0233 10.0924 19.1083 10.204C19.1933 10.3157 19.2554 10.443 19.2912 10.5786L22.5279 22.8503Z" fill="white" stroke="#003670" stroke-linecap="round" stroke-linejoin="round"/>
    <path d="M17.452 12.1916L7.89912 14.7107L10.1532 23.2585L19.7061 20.7394L17.452 12.1916Z" fill="#C2DFFF" stroke="#003670" stroke-linecap="round" stroke-linejoin="round"/>
    <path d="M87.3065 22.4984L75.3458 27.1398C75.223 27.1891 75.0901 27.2079 74.9584 27.1949C74.8267 27.1819 74.7001 27.1373 74.5893 27.065C68.8119 23.1109 66.9047 17.4997 66.0799 11.4182C66.0626 11.2434 66.1041 11.0679 66.198 10.9195C66.2918 10.771 66.4325 10.6582 66.5978 10.5989L78.4576 5.99653C78.5616 5.95102 78.6745 5.92957 78.7878 5.93377C78.9012 5.93797 79.0122 5.96772 79.1125 6.02079C79.2128 6.07387 79.2998 6.1489 79.367 6.24029C79.4343 6.33168 79.48 6.43707 79.5009 6.54861C80.3805 12.0767 83.1314 16.9656 87.6011 21.2685C87.69 21.3586 87.7544 21.4698 87.7884 21.5917C87.8223 21.7136 87.8247 21.8422 87.7952 21.9652C87.7657 22.0883 87.7054 22.2018 87.6199 22.2951C87.5344 22.3884 87.4265 22.4583 87.3065 22.4984Z" fill="white" stroke="#003670" stroke-linecap="round" stroke-linejoin="round"/>
    <path d="M71.066 18.1155L79.3472 14.9019" stroke="#003670" stroke-linecap="round" stroke-linejoin="round"/>
    <path d="M73.0101 21.0665L81.292 17.8527" stroke="#003670" stroke-linecap="round" stroke-linejoin="round"/>
    <path d="M75.2795 23.8919L83.5614 20.678" stroke="#003670" stroke-linecap="round" stroke-linejoin="round"/>
    <path d="M56.5202 66.2908C56.1425 66.6683 55.6303 66.8804 55.0962 66.8804C54.5622 66.8804 54.05 66.6683 53.6723 66.2908L50.5647 63.1831V81.4825C50.5647 82.1502 50.2995 82.7905 49.8273 83.2626C49.3552 83.7348 48.7149 84 48.0472 84C47.3795 84 46.7392 83.7348 46.267 83.2626C45.7949 82.7905 45.5297 82.1502 45.5297 81.4825V63.1831L42.422 66.2908C42.0405 66.6486 41.5347 66.8439 41.0117 66.8354C40.4887 66.8269 39.9895 66.6152 39.6198 66.2452C39.25 65.8752 39.0387 65.3759 39.0306 64.8529C39.0225 64.3299 39.2182 63.8242 39.5762 63.4429L46.6253 56.3939C47.003 56.0163 47.5152 55.8042 48.0492 55.8042C48.5832 55.8042 49.0954 56.0163 49.4731 56.3939L56.5222 63.4429C56.8995 63.8209 57.1112 64.3332 57.1108 64.8673C57.1105 65.4013 56.898 65.9133 56.5202 66.2908Z" fill="#C2DFFF"/>
    <path d="M56.5202 66.2908C56.1425 66.6683 55.6303 66.8804 55.0962 66.8804C54.5622 66.8804 54.05 66.6683 53.6723 66.2908L50.5647 63.1831V81.4825C50.5647 82.1502 50.2995 82.7905 49.8273 83.2626C49.3552 83.7348 48.7149 84 48.0472 84C47.3795 84 46.7392 83.7348 46.267 83.2626C45.7949 82.7905 45.5297 82.1502 45.5297 81.4825V63.1831L42.422 66.2908C42.0405 66.6486 41.5347 66.8439 41.0117 66.8354C40.4887 66.8269 39.9895 66.6152 39.6198 66.2452C39.25 65.8752 39.0387 65.3759 39.0306 64.8529C39.0225 64.3299 39.2182 63.8242 39.5762 63.4429L46.6253 56.3939C47.003 56.0163 47.5152 55.8042 48.0492 55.8042C48.5832 55.8042 49.0954 56.0163 49.4731 56.3939L56.5222 63.4429C56.8995 63.8209 57.1112 64.3332 57.1108 64.8673C57.1105 65.4013 56.898 65.9133 56.5202 66.2908Z" fill="#C2DFFF" stroke="#003670" stroke-linejoin="round"/>
</svg>
