<svg width="97" height="97" viewBox="0 0 97 97" fill="none" xmlns="http://www.w3.org/2000/svg">
    <path d="M48.3076 96.3076C74.8173 96.3076 96.3076 74.8173 96.3076 48.3076C96.3076 21.7979 74.8173 0.307617 48.3076 0.307617C21.7979 0.307617 0.307617 21.7979 0.307617 48.3076C0.307617 74.8173 21.7979 96.3076 48.3076 96.3076Z" fill="#E0EFFF"/>
    <path d="M43.9516 42.8932L35.6968 51.1468C35.4282 51.4125 35.0871 51.593 34.7163 51.6657C34.3455 51.7384 33.9615 51.7001 33.6124 51.5556C33.2633 51.4111 32.9646 51.1668 32.7537 50.8533C32.5428 50.5398 32.4291 50.171 32.4268 49.7932V42.8932H13.9168C12.6943 42.8929 11.5219 42.407 10.6575 41.5424C9.79319 40.6778 9.30762 39.5054 9.30762 38.2828V14.4676C9.30762 13.2452 9.79323 12.0728 10.6576 11.2084C11.522 10.344 12.6944 9.8584 13.9168 9.8584H48.5728C49.7953 9.8584 50.9676 10.344 51.832 11.2084C52.6964 12.0728 53.182 13.2452 53.182 14.4676V38.2828C53.182 39.5054 52.6964 40.6778 51.8321 41.5424C50.9677 42.407 49.7954 42.8929 48.5728 42.8932H43.9516Z" fill="white" stroke="#003670" stroke-linecap="round" stroke-linejoin="round"/>
    <path d="M41.0102 33.3826C41.2979 33.0947 41.4594 32.7043 41.4594 32.2972C41.4594 31.8902 41.2979 31.4998 41.0102 31.2118L36.6674 26.8714C36.525 26.7278 36.445 26.5337 36.445 26.3314C36.445 26.1292 36.525 25.9351 36.6674 25.7914L41.0078 21.451C41.2954 21.1633 41.4569 20.7731 41.4569 20.3662C41.4569 19.9594 41.2954 19.5692 41.0078 19.2814L38.2946 16.5694C38.1523 16.4268 37.9832 16.3136 37.7971 16.2364C37.6109 16.1591 37.4114 16.1194 37.2098 16.1194C37.0083 16.1194 36.8088 16.1591 36.6226 16.2364C36.4365 16.3136 36.2674 16.4268 36.125 16.5694L31.7846 20.9086C31.641 21.0511 31.4469 21.131 31.2446 21.131C31.0423 21.131 30.8483 21.0511 30.7046 20.9086L26.3642 16.5694C26.2219 16.4268 26.0528 16.3136 25.8667 16.2364C25.6805 16.1591 25.481 16.1194 25.2794 16.1194C25.0779 16.1194 24.8784 16.1591 24.6922 16.2364C24.5061 16.3136 24.337 16.4268 24.1946 16.5694L21.4826 19.2814C21.34 19.4238 21.2268 19.5929 21.1496 19.779C21.0723 19.9652 21.0326 20.1647 21.0326 20.3662C21.0326 20.5678 21.0723 20.7673 21.1496 20.9535C21.2268 21.1396 21.34 21.3087 21.4826 21.451L25.8218 25.7914C25.9643 25.9351 26.0442 26.1292 26.0442 26.3314C26.0442 26.5337 25.9643 26.7278 25.8218 26.8714L21.4826 31.2118C21.3399 31.3543 21.2267 31.5235 21.1495 31.7097C21.0722 31.896 21.0325 32.0956 21.0325 32.2972C21.0325 32.4989 21.0722 32.6985 21.1495 32.8848C21.2267 33.071 21.3399 33.2402 21.4826 33.3826L24.1946 36.0946C24.4824 36.3822 24.8726 36.5437 25.2794 36.5437C25.6863 36.5437 26.0764 36.3822 26.3642 36.0946L30.7046 31.7542C30.8484 31.6121 31.0424 31.5323 31.2446 31.5323C31.4468 31.5323 31.6409 31.6121 31.7846 31.7542L36.125 36.0946C36.4128 36.3822 36.803 36.5437 37.2098 36.5437C37.6167 36.5437 38.0068 36.3822 38.2946 36.0946L41.0102 33.3826Z" fill="#C2DFFF" stroke="#003670" stroke-linecap="round" stroke-linejoin="round"/>
    <path d="M51.4601 38.9685L59.6405 47.1489C59.906 47.4141 60.2441 47.5946 60.6122 47.6678C60.9802 47.7409 61.3617 47.7033 61.7084 47.5597C62.0551 47.4162 62.3514 47.1731 62.5601 46.8612C62.7687 46.5493 62.8802 46.1825 62.8805 45.8073V38.9673H83.4005C84.0004 38.9673 84.5945 38.8491 85.1487 38.6196C85.703 38.39 86.2066 38.0535 86.6308 37.6292C87.0551 37.205 87.3916 36.7014 87.6211 36.1472C87.8507 35.5929 87.9689 34.9988 87.9689 34.3989V10.7913C87.9689 9.57969 87.4876 8.4177 86.6308 7.56095C85.7741 6.70421 84.6121 6.2229 83.4005 6.2229H49.0601C47.8486 6.22322 46.6868 6.70463 45.8301 7.5613C44.9734 8.41798 44.492 9.57978 44.4917 10.7913V34.4001C44.492 35.6116 44.9734 36.7734 45.8301 37.6301C46.6868 38.4868 47.8486 38.9682 49.0601 38.9685H51.4601Z" fill="white" stroke="#003670" stroke-linecap="round" stroke-linejoin="round"/>
    <path d="M78.6075 15.8133L76.5375 13.2933C76.3823 13.1046 76.1915 12.9484 75.9759 12.8335C75.7603 12.7186 75.5242 12.6473 75.281 12.6237C75.0379 12.6001 74.7925 12.6246 74.5588 12.6958C74.3251 12.7671 74.1078 12.8836 73.9191 13.0389L62.0643 22.7937L59.4039 19.5609C59.0903 19.1798 58.6381 18.9389 58.1468 18.8912C57.6556 18.8435 57.1655 18.9929 56.7843 19.3065L54.2643 21.3753C53.8833 21.6889 53.6424 22.1411 53.5947 22.6324C53.547 23.1237 53.6963 23.6138 54.0099 23.9949L56.6703 27.2277L59.9223 31.1793C60.0776 31.3681 60.2685 31.5245 60.4842 31.6395C60.6999 31.7545 60.9361 31.8258 61.1794 31.8495C61.4227 31.8731 61.6683 31.8485 61.9021 31.7772C62.1358 31.7058 62.3533 31.5891 62.5419 31.4337L66.4935 28.1829L78.3532 18.4281C78.7328 18.1145 78.9728 17.6633 79.0204 17.1732C79.0681 16.6831 78.9197 16.1941 78.6075 15.8133Z" fill="#C2DFFF" stroke="#003670" stroke-linecap="round" stroke-linejoin="round"/>
    <path d="M39.6578 86.7091C39.8618 86.7095 40.0624 86.658 40.2409 86.5593C40.4194 86.4606 40.5698 86.3181 40.6778 86.1451C40.7859 85.9722 40.8482 85.7746 40.8587 85.5709C40.8691 85.3672 40.8276 85.1643 40.7378 84.9811C39.1827 81.9787 36.8402 79.4559 33.9611 77.6828C31.082 75.9097 27.7749 74.9531 24.3938 74.9155C21.0122 74.9526 17.7043 75.9089 14.8246 77.682C11.9449 79.4551 9.60175 81.9783 8.04623 84.9811C7.9565 85.1643 7.91492 85.3672 7.92542 85.5709C7.93592 85.7746 7.99815 85.9722 8.10623 86.1451C8.21432 86.3181 8.36469 86.4606 8.54316 86.5593C8.72163 86.658 8.9223 86.7095 9.12623 86.7091H39.6578Z" fill="white" stroke="#003670" stroke-linecap="round" stroke-linejoin="round"/>
    <path d="M32.664 62.3872C32.664 64.5813 31.7924 66.6855 30.241 68.237C28.6895 69.7884 26.5853 70.66 24.3912 70.66C22.1971 70.66 20.0929 69.7884 18.5415 68.237C16.99 66.6855 16.1184 64.5813 16.1184 62.3872V58.2508C16.1184 56.0567 16.99 53.9525 18.5415 52.4011C20.0929 50.8496 22.1971 49.978 24.3912 49.978C26.5853 49.978 28.6895 50.8496 30.241 52.4011C31.7924 53.9525 32.664 56.0567 32.664 58.2508V62.3872Z" fill="white" stroke="#003670" stroke-linecap="round" stroke-linejoin="round"/>
    <path d="M80.0041 86.7085C80.208 86.7089 80.4087 86.6573 80.5871 86.5586C80.7656 86.4599 80.916 86.3174 81.0241 86.1445C81.1322 85.9715 81.1944 85.7739 81.2049 85.5702C81.2154 85.3666 81.1738 85.1636 81.0841 84.9805C79.5586 81.9541 77.2228 79.4107 74.337 77.6336C71.4511 75.8565 68.1286 74.9155 64.7395 74.9155C61.3504 74.9155 58.0278 75.8565 55.142 77.6336C52.2561 79.4107 49.9203 81.9541 48.3949 84.9805C48.3051 85.1636 48.2636 85.3666 48.2741 85.5702C48.2845 85.7739 48.3468 85.9715 48.4549 86.1445C48.5629 86.3174 48.7133 86.4599 48.8918 86.5586C49.0703 86.6573 49.2709 86.7089 49.4749 86.7085H80.0041Z" fill="white" stroke="#003670" stroke-linecap="round" stroke-linejoin="round"/>
    <path d="M73.0104 62.3872C73.0104 64.5813 72.1388 66.6855 70.5874 68.237C69.0359 69.7884 66.9317 70.66 64.7376 70.66C62.5436 70.66 60.4393 69.7884 58.8879 68.237C57.3364 66.6855 56.4648 64.5813 56.4648 62.3872V58.2508C56.4648 56.0567 57.3364 53.9525 58.8879 52.4011C60.4393 50.8496 62.5436 49.978 64.7376 49.978C66.9317 49.978 69.0359 50.8496 70.5874 52.4011C72.1388 53.9525 73.0104 56.0567 73.0104 58.2508V62.3872Z" fill="white" stroke="#003670" stroke-linecap="round" stroke-linejoin="round"/>
</svg>
