<?xml version="1.0" encoding="UTF-8"?>
<svg width="260px" height="83px" viewBox="0 0 260 83" version="1.1" xmlns="http://www.w3.org/2000/svg" xmlns:xlink="http://www.w3.org/1999/xlink">
    <!-- Generator: Sketch 57.1 (83088) - https://sketch.com -->
    <title>visuel-autonomie, handicap</title>
    <desc>Created with Sketch.</desc>
    <defs>
        <rect id="path-1" x="0" y="0" width="260" height="83"></rect>
    </defs>
    <g id="Page-dépôt-boites-à-idées" stroke="none" stroke-width="1" fill="none" fill-rule="evenodd">
        <g id="visuel-autonomie,-handicap">
            <mask id="mask-2" fill="white">
                <use xlink:href="#path-1"></use>
            </mask>
            <use id="Rectangle" fill="#D3D3D3" xlink:href="#path-1"></use>
            <g id="Group-5" mask="url(#mask-2)">
                <g transform="translate(-23.000000, -30.000000)" id="Group-16">
                    <g>
                        <g id="Group-5">
                            <path d="M15.420766,1.41555821 C46.4205389,-2.81367365 77.2819274,3.48614153 108.004932,20.3150037 C121.686614,27.8092951 199.172444,19.5956699 218.791824,25.4733323 C265.257115,39.3936133 255.376835,63.5728834 286.371058,63.5728834 L173.644593,65.1414826 L15.420766,65.1414826 L15.420766,1.41555821 Z" id="Path-2" fill="#E9D7C7" transform="translate(150.895912, 32.641483) scale(-1, 1) translate(-150.895912, -32.641483) "></path>
                            <path d="M3.8661774,28.795025 C29.9162027,16.2875649 57.5527886,17.5697174 86.775935,32.6414826 C108.998494,44.1027121 184.082924,53.2212901 208.631222,59.7265324 C232.505241,66.0530922 249.266344,85.1414826 271,85.1414826 L127.653632,85.1414826 L4.54747351e-13,85.1414826 L3.8661774,28.795025 Z" id="Path-2" fill="#D8C6B6"></path>
                            <path d="M15.420766,48.265018 C35.5748647,44.2886935 61.0134161,50.8668808 91.7364203,67.9995798 C105.418102,75.6291769 180.65644,74.1577019 200.275821,80.1414826 C246.741112,94.3130875 255.376835,111.544563 286.371058,111.544563 L173.644593,113.141483 L15.420766,113.141483 L15.420766,48.265018 Z" id="Path-2" fill="#C6B5A6" transform="translate(150.895912, 80.141483) scale(-1, 1) translate(-150.895912, -80.141483) "></path>
                            <path d="M3.8661774,64.0877991 C29.2806209,60.3691468 56.5994159,66.0065471 85.8225623,81 C108.045121,92.4016773 189.165429,94.0611152 213.713728,100.532557 C237.587746,106.826244 270.808151,120.141483 292.541808,120.141483 L127.653632,120.141483 L0,120.141483 L3.8661774,64.0877991 Z" id="Path-2" fill="#B2A192"></path>
                        </g>
                        <g id="paraplegic" opacity="0.799130394" transform="translate(136.000000, 50.000000)" fill="#FFFFFF" fill-rule="nonzero">
                            <path d="M35.7966049,38.6068761 L31.4300858,38.6068761 L26.630144,28.6708876 C26.4305809,28.2579829 26.0077881,27.9948303 25.5434782,27.9948303 L21.8380241,27.9948303 C21.3538582,27.2784702 20.7878614,26.6207862 20.1544744,26.0322488 L23.9688357,26.0322488 C24.6333104,26.0322488 25.1722308,25.5013995 25.1722308,24.8468764 C25.1722308,24.1923534 24.6333104,23.6615041 23.9688357,23.6615041 L16.2885677,23.6615041 C16.0510977,23.5747744 15.8094159,23.49733 15.5649261,23.4260101 L15.0540849,15.4032126 C15.0534832,15.3931369 15.0526809,15.3828637 15.0516781,15.372788 C14.702493,11.4924717 11.2126472,8.61498034 7.27433621,8.95873831 C6.95543651,8.98659456 6.66080528,9.13851979 6.45602755,9.38073087 C6.25104926,9.62313951 6.15257142,9.93588024 6.18225517,10.2498064 L7.48833997,24.0260061 C7.25087001,24.1358506 7.01801306,24.2535976 6.78976912,24.3788519 L2.37391085,6.19543783 C2.21927458,5.55869532 1.57064462,5.16633708 0.923619198,5.31845986 C0.277195469,5.47078021 -0.121328871,6.11048615 0.0333073982,6.74703109 L4.67700848,25.8684698 C2.36488538,27.9280543 0.909379023,30.9045242 0.909379023,34.209935 C0.909379023,40.4116055 6.03163022,45.4571429 12.3275928,45.4571429 C18.6237559,45.4571429 23.7458065,40.4116055 23.7458065,34.209935 C23.7458065,32.8603886 23.5027207,31.5657644 23.0582668,30.3657725 L24.7835342,30.3657725 L29.5834761,40.301761 C29.7830391,40.7146657 30.2058319,40.9778184 30.6701418,40.9778184 L35.7966049,40.9778184 C36.4610796,40.9778184 37,40.4469691 37,39.792446 C37,39.1379229 36.4612801,38.6068761 35.7966049,38.6068761 Z M3.31596863,34.209935 C3.31596863,29.3155326 7.3583733,25.3334718 12.3273922,25.3334718 C17.2964111,25.3334718 21.3388157,29.3155326 21.3388157,34.209935 C21.3388157,39.1043374 17.2962105,43.0863982 12.3273922,43.0863982 C7.35857387,43.0863982 3.31596863,39.1043374 3.31596863,34.209935 Z M8.70557411,11.3676125 C10.784038,11.7161119 12.4519436,13.4062553 12.6531111,15.5673867 L13.1260454,22.9931517 C12.8619002,22.974976 12.5961504,22.9625296 12.3275928,22.9625296 C11.4699732,22.9625296 10.6352181,23.0591374 9.83114965,23.2365481 L8.70557411,11.3676125 Z" id="Shape"></path>
                            <path d="M7.66792553,6.53673861 C8.33984849,7.09940176 9.17050247,7.4 10.03643,7.4 C10.1468516,7.4 10.25804,7.3952073 10.3694201,7.38523848 C12.4014838,7.20522461 13.9082782,5.40546935 13.7282681,3.37336392 L13.7282681,3.37336392 C13.5482579,1.34106678 11.7485396,-0.16345807 9.71647582,0.0142553007 C8.73207513,0.101482468 7.84045924,0.566757928 7.20611029,1.32457989 C6.57156963,2.08240185 6.27040245,3.04190068 6.35762782,4.02612986 C6.4448532,5.01074245 6.91011912,5.90237664 7.66792553,6.53673861 Z M8.96997995,2.80149878 C9.20999352,2.51489523 9.54720108,2.33890723 9.91949049,2.30593344 C9.96128199,2.30229099 10.0028818,2.30037391 10.0439065,2.30037391 C10.7601131,2.30037391 11.3724161,2.8496175 11.4368286,3.57638275 C11.5046919,4.34494036 10.9349472,5.02569568 10.1664054,5.09375204 C9.79392429,5.12672583 9.43122008,5.01265954 9.14462241,4.77283275 C8.85802474,4.53281426 8.68204035,4.19559979 8.64906725,3.82311103 C8.61609414,3.45100568 8.73015809,3.08810233 8.96997995,2.80149878 Z" id="Shape"></path>
                            <path d="M12.6857143,28.5428571 C9.77119379,28.5428571 7.4,30.9140509 7.4,33.8285714 C7.4,36.7430919 9.77119379,39.1142857 12.6857143,39.1142857 C15.6002348,39.1142857 17.9714286,36.7430919 17.9714286,33.8285714 C17.9714286,30.9140509 15.6002348,28.5428571 12.6857143,28.5428571 Z M12.6857143,36.6787533 C11.114187,36.6787533 9.83553244,35.4000987 9.83553244,33.8285714 C9.83553244,32.2570441 11.114187,30.9783896 12.6857143,30.9783896 C14.2574446,30.9783896 15.5358961,32.2570441 15.5358961,33.8285714 C15.5358961,35.4000987 14.2574446,36.6787533 12.6857143,36.6787533 Z" id="Shape"></path>
                        </g>
                    </g>
                </g>
            </g>
        </g>
    </g>
</svg>