<?xml version="1.0" encoding="UTF-8"?>
<svg width="260px" height="83px" viewBox="0 0 260 83" version="1.1" xmlns="http://www.w3.org/2000/svg" xmlns:xlink="http://www.w3.org/1999/xlink">
    <!-- Generator: Sketch 57.1 (83088) - https://sketch.com -->
    <title>visuel-urbanisme</title>
    <desc>Created with Sketch.</desc>
    <defs>
        <rect id="path-1" x="0" y="0" width="260" height="83"></rect>
    </defs>
    <g id="Page-dépôt-boites-à-idées" stroke="none" stroke-width="1" fill="none" fill-rule="evenodd">
        <g id="visuel-urbanisme">
            <mask id="mask-2" fill="white">
                <use xlink:href="#path-1"></use>
            </mask>
            <use id="Rectangle" fill="#D3D3D3" xlink:href="#path-1"></use>
            <g id="Group-5" mask="url(#mask-2)">
                <g transform="translate(-23.000000, -30.000000)" id="Group-16">
                    <g>
                        <g id="Group-5">
                            <path d="M15.420766,1.41555821 C46.4205389,-2.81367365 77.2819274,3.48614153 108.004932,20.3150037 C121.686614,27.8092951 199.172444,19.5956699 218.791824,25.4733323 C265.257115,39.3936133 255.376835,63.5728834 286.371058,63.5728834 L173.644593,65.1414826 L15.420766,65.1414826 L15.420766,1.41555821 Z" id="Path-2" fill="#EDE7C4" transform="translate(150.895912, 32.641483) scale(-1, 1) translate(-150.895912, -32.641483) "></path>
                            <path d="M3.8661774,28.795025 C29.9162027,16.2875649 57.5527886,17.5697174 86.775935,32.6414826 C108.998494,44.1027121 184.082924,53.2212901 208.631222,59.7265324 C232.505241,66.0530922 249.266344,85.1414826 271,85.1414826 L127.653632,85.1414826 L4.54747351e-13,85.1414826 L3.8661774,28.795025 Z" id="Path-2" fill="#D8D3B4"></path>
                            <path d="M15.420766,48.265018 C35.5748647,44.2886935 61.0134161,50.8668808 91.7364203,67.9995798 C105.418102,75.6291769 180.65644,74.1577019 200.275821,80.1414826 C246.741112,94.3130875 255.376835,111.544563 286.371058,111.544563 L173.644593,113.141483 L15.420766,113.141483 L15.420766,48.265018 Z" id="Path-2" fill="#C7C2A4" transform="translate(150.895912, 80.141483) scale(-1, 1) translate(-150.895912, -80.141483) "></path>
                            <path d="M3.8661774,64.0877991 C29.2806209,60.3691468 56.5994159,66.0065471 85.8225623,81 C108.045121,92.4016773 189.165429,94.0611152 213.713728,100.532557 C237.587746,106.826244 270.808151,120.141483 292.541808,120.141483 L127.653632,120.141483 L0,120.141483 L3.8661774,64.0877991 Z" id="Path-2" fill="#B0AC93"></path>
                        </g>
                        <g id="building-cloudy" opacity="0.801060268" transform="translate(133.000000, 52.000000)" stroke="#FFFFFF" stroke-linecap="round" stroke-linejoin="round" stroke-width="2.19">
                            <path d="M26,0.870397772 C26,0.389690356 26.3920939,0 26.8757663,0 L39.1242337,0 C39.6079061,0 40,0.389690356 40,0.870397772 L40,39.1296022 C40,39.6103096 39.6079061,40 39.1242337,40 L26,40 L26,0.870397772 Z" id="Path"></path>
                            <polyline id="Path" points="26 40 12 40 12 21 26 21"></polyline>
                            <path d="M19.6155097,15.2317942 C19.2736086,14.9227353 18.719387,14.9227353 18.3774859,15.2317942 L12,21 L26,21 L19.6155097,15.2317942 Z" id="Path"></path>
                            <path d="M12,40 L1.91743119,40 C1.41074794,40 1,39.5970563 1,39.1 L1,31 L12,31" id="Path"></path>
                            <path d="M12,26 L3.35087997,26 C3.04529867,25.9997726 2.75977764,26.1386389 2.58987449,26.3701236 L0.153193465,29.7045683 C-0.0335617851,29.9603414 -0.0508129295,30.2890019 0.108300144,30.5598543 C0.267413218,30.8307066 0.577095736,30.9998413 0.914198949,31 L12,31" id="Path"></path>
                            <path d="M29,3.001 L29,4.999" id="Path"></path>
                            <path d="M33,3.001 L33,4.999" id="Path"></path>
                            <path d="M37,3.001 L37,4.999" id="Path"></path>
                            <path d="M29,10.001 L29,11.999" id="Path"></path>
                            <path d="M33,10.001 L33,11.999" id="Path"></path>
                            <path d="M37,10.001 L37,11.999" id="Path"></path>
                            <path d="M29,17.001 L29,18.999" id="Path"></path>
                            <path d="M33,17.001 L33,18.999" id="Path"></path>
                            <path d="M37,17.001 L37,18.999" id="Path"></path>
                            <path d="M29,24.001 L29,25.999" id="Path"></path>
                            <path d="M33,24.001 L33,25.999" id="Path"></path>
                            <path d="M37,24.001 L37,25.999" id="Path"></path>
                            <path d="M16,27.001 L16,28.999" id="Path"></path>
                            <path d="M19,27.001 L19,28.999" id="Path"></path>
                            <path d="M23,27.001 L23,28.999" id="Path"></path>
                            <path d="M16,34.001 L16,35.999" id="Path"></path>
                            <path d="M19,34.001 L19,35.999" id="Path"></path>
                            <path d="M23,34.001 L23,35.999" id="Path"></path>
                            <path d="M29,31.001 L29,32.999" id="Path"></path>
                            <path d="M33,31.001 L33,32.999" id="Path"></path>
                            <path d="M37,31.001 L37,32.999" id="Path"></path>
                            <path d="M13.7099521,10.995844 C15.5648941,10.7485805 16.9676175,9.07342509 17,7.06681438 C16.999765,6.00151118 16.5958999,4.98214933 15.8812735,4.24313112 C15.1666471,3.5041129 14.2027584,3.10903642 13.2112537,3.14874953 C12.3691117,1.22661768 10.5686158,-0.000211319217 8.59020862,0 C5.84839001,-0.0113921471 3.55531532,2.23382726 3.31387726,5.16626053 C2.50386813,4.98148972 1.65946505,5.1993978 1.01613801,5.75921898 C0.372810968,6.31904016 -0.000612355517,7.16088081 0,8.04998551 C0.00868310307,8.86276909 0.325779375,9.63658156 0.8780085,10.1925946 C1.43023763,10.7486075 2.16981052,11.0387045 2.9258116,10.995844 L13.7099521,10.995844 Z" id="Path"></path>
                        </g>
                    </g>
                </g>
            </g>
        </g>
    </g>
</svg>