<?xml version="1.0" encoding="UTF-8"?>
<svg width="260px" height="83px" viewBox="0 0 260 83" version="1.1" xmlns="http://www.w3.org/2000/svg" xmlns:xlink="http://www.w3.org/1999/xlink">
    <!-- Generator: Sketch 57.1 (83088) - https://sketch.com -->
    <title>visuel-attractivité</title>
    <desc>Created with Sketch.</desc>
    <defs>
        <rect id="path-1" x="0" y="0" width="260" height="83"></rect>
    </defs>
    <g id="Page-dépôt-boites-à-idées" stroke="none" stroke-width="1" fill="none" fill-rule="evenodd">
        <g id="visuel-attractivité">
            <mask id="mask-2" fill="white">
                <use xlink:href="#path-1"></use>
            </mask>
            <use id="Rectangle" fill="#D3D3D3" xlink:href="#path-1"></use>
            <g id="Group-5" mask="url(#mask-2)">
                <g transform="translate(-23.000000, -30.000000)" id="Group-16">
                    <g>
                        <g id="Group-5">
                            <path d="M15.420766,1.41555821 C46.4205389,-2.81367365 77.2819274,3.48614153 108.004932,20.3150037 C121.686614,27.8092951 199.172444,19.5956699 218.791824,25.4733323 C265.257115,39.3936133 255.376835,63.5728834 286.371058,63.5728834 L173.644593,65.1414826 L15.420766,65.1414826 L15.420766,1.41555821 Z" id="Path-2" fill="#EBD5DD" transform="translate(150.895912, 32.641483) scale(-1, 1) translate(-150.895912, -32.641483) "></path>
                            <path d="M3.8661774,28.795025 C29.9162027,16.2875649 57.5527886,17.5697174 86.775935,32.6414826 C108.998494,44.1027121 184.082924,53.2212901 208.631222,59.7265324 C232.505241,66.0530922 249.266344,85.1414826 271,85.1414826 L127.653632,85.1414826 L4.54747351e-13,85.1414826 L3.8661774,28.795025 Z" id="Path-2" fill="#D5BEC6"></path>
                            <path d="M15.420766,48.265018 C35.5748647,44.2886935 61.0134161,50.8668808 91.7364203,67.9995798 C105.418102,75.6291769 180.65644,74.1577019 200.275821,80.1414826 C246.741112,94.3130875 255.376835,111.544563 286.371058,111.544563 L173.644593,113.141483 L15.420766,113.141483 L15.420766,48.265018 Z" id="Path-2" fill="#BCA6AE" transform="translate(150.895912, 80.141483) scale(-1, 1) translate(-150.895912, -80.141483) "></path>
                            <path d="M3.8661774,64.0877991 C29.2806209,60.3691468 56.5994159,66.0065471 85.8225623,81 C108.045121,92.4016773 189.165429,94.0611152 213.713728,100.532557 C237.587746,106.826244 270.808151,120.141483 292.541808,120.141483 L127.653632,120.141483 L0,120.141483 L3.8661774,64.0877991 Z" id="Path-2" fill="#AA969D"></path>
                        </g>
                        <g id="style-three-pin-shopping-bag" opacity="0.801664807" transform="translate(134.000000, 49.000000)" stroke="#FFFFFF" stroke-linecap="round" stroke-linejoin="round" stroke-width="2.19">
                            <path d="M27.5429762,27.5705238 C27.5770876,27.8434261 27.4918096,28.1177779 27.3090015,28.3232541 C27.1261935,28.5287303 26.8636288,28.6453538 26.5886111,28.6432587 L11.5783571,28.6432587 C11.3033394,28.6453538 11.0407747,28.5287303 10.8579667,28.3232541 C10.6751587,28.1177779 10.5898807,27.8434261 10.6239921,27.5705238 L12.406746,13.3733889 L25.7678571,13.3733889 L27.5429762,27.5705238 Z" id="Path"></path>
                            <path d="M15.2698413,17.1908492 L15.2698413,11.4646587 C15.2698413,9.35633361 16.9789765,7.64719841 19.0873016,7.64719841 C21.1956267,7.64719841 22.9047619,9.35633361 22.9047619,11.4646587 L22.9047619,17.1908492" id="Path"></path>
                            <path d="M19.0873016,0.0122543463 C23.2181591,0.00621143782 27.2651007,1.17818242 30.7534603,3.39073016 C39.8199286,9.13791667 40.4879841,21.0083095 33.2634405,29.6873056 C29.1410004,34.6383003 24.6033762,39.2282866 19.700004,43.4072579 C19.3454744,43.7041232 18.8291288,43.7041232 18.4745992,43.4072579 C13.571355,39.2274551 9.03374691,34.6368465 4.9111627,29.6853968 C-2.31147222,21.0083095 -1.6453254,9.13791667 7.42114286,3.39073016 C10.9095025,1.17818242 14.9564441,0.00621143782 19.0873016,0.0122543463 Z" id="Path"></path>
                        </g>
                    </g>
                </g>
            </g>
        </g>
    </g>
</svg>