<?xml version="1.0" encoding="UTF-8"?>
<svg width="260px" height="83px" viewBox="0 0 260 83" version="1.1" xmlns="http://www.w3.org/2000/svg" xmlns:xlink="http://www.w3.org/1999/xlink">
    <!-- Generator: Sketch 57.1 (83088) - https://sketch.com -->
    <title>visuel-culture</title>
    <desc>Created with Sketch.</desc>
    <defs>
        <rect id="path-1" x="0" y="0" width="260" height="83"></rect>
    </defs>
    <g id="Page-dépôt-boites-à-idées" stroke="none" stroke-width="1" fill="none" fill-rule="evenodd">
        <g id="visuel-culture">
            <mask id="mask-2" fill="white">
                <use xlink:href="#path-1"></use>
            </mask>
            <use id="Rectangle" fill="#D3D3D3" xlink:href="#path-1"></use>
            <g id="Group-5" mask="url(#mask-2)">
                <g transform="translate(-23.000000, -30.000000)" id="Group-16">
                    <g>
                        <g id="Group-5">
                            <path d="M15.420766,1.41555821 C46.4205389,-2.81367365 77.2819274,3.48614153 108.004932,20.3150037 C121.686614,27.8092951 199.172444,19.5956699 218.791824,25.4733323 C265.257115,39.3936133 255.376835,63.5728834 286.371058,63.5728834 L173.644593,65.1414826 L15.420766,65.1414826 L15.420766,1.41555821 Z" id="Path-2" fill="#EADAD9" transform="translate(150.895912, 32.641483) scale(-1, 1) translate(-150.895912, -32.641483) "></path>
                            <path d="M3.8661774,28.795025 C29.9162027,16.2875649 57.5527886,17.5697174 86.775935,32.6414826 C108.998494,44.1027121 184.082924,53.2212901 208.631222,59.7265324 C232.505241,66.0530922 249.266344,85.1414826 271,85.1414826 L127.653632,85.1414826 L4.54747351e-13,85.1414826 L3.8661774,28.795025 Z" id="Path-2" fill="#D7C5C4"></path>
                            <path d="M15.420766,48.265018 C35.5748647,44.2886935 61.0134161,50.8668808 91.7364203,67.9995798 C105.418102,75.6291769 180.65644,74.1577019 200.275821,80.1414826 C246.741112,94.3130875 255.376835,111.544563 286.371058,111.544563 L173.644593,113.141483 L15.420766,113.141483 L15.420766,48.265018 Z" id="Path-2" fill="#C4B2B1" transform="translate(150.895912, 80.141483) scale(-1, 1) translate(-150.895912, -80.141483) "></path>
                            <path d="M3.8661774,64.0877991 C29.2806209,60.3691468 56.5994159,66.0065471 85.8225623,81 C108.045121,92.4016773 189.165429,94.0611152 213.713728,100.532557 C237.587746,106.826244 270.808151,120.141483 292.541808,120.141483 L127.653632,120.141483 L0,120.141483 L3.8661774,64.0877991 Z" id="Path-2" fill="#B2A2A1"></path>
                        </g>
                        <g id="official-building-3" opacity="0.801083519" transform="translate(132.000000, 50.000000)" stroke="#FFFFFF" stroke-linecap="round" stroke-linejoin="round" stroke-width="2.19">
                            <path d="M2.6875,42.0360833 L4.27491667,37.2666667 C4.39671017,36.9009932 4.73874396,36.6542093 5.12416667,36.6539167 L37.8758333,36.6539167 C38.261256,36.6542093 38.6032898,36.9009932 38.7250833,37.2666667 L40.3125,42.0289167" id="Path"></path>
                            <rect id="Rectangle" x="6.27083333" y="16.95275" width="30.4583333" height="19.7083333"></rect>
                            <path d="M42.1041667,42.0360833 L0.895833333,42.0360833" id="Path"></path>
                            <path d="M11.6494167,16.95275 L11.6494167,36.6610833" id="Path"></path>
                            <path d="M17.0244167,16.95275 L17.0244167,36.6610833" id="Path"></path>
                            <path d="M25.98275,16.95275 L25.98275,36.6610833" id="Path"></path>
                            <path d="M31.35775,16.95275 L31.35775,36.6610833" id="Path"></path>
                            <path d="M40.0795833,12.2747083 C40.2144765,11.869838 40.0450462,11.4260207 39.6746667,11.2140417 L21.9443333,1.075 C21.6671615,0.914974788 21.3256718,0.914974788 21.0485,1.075 L3.311,11.206875 C2.94062042,11.418854 2.77119013,11.8626714 2.90608333,12.2675417 L4.27491667,16.34 C4.39671017,16.7056735 4.73874396,16.9524574 5.12416667,16.95275 L37.8758333,16.95275 C38.261256,16.9524574 38.6032898,16.7056735 38.7250833,16.34 L40.0795833,12.2747083 Z" id="Path"></path>
                            <path d="M40.0132917,11.57775 L2.97775,11.57775" id="Path"></path>
                        </g>
                    </g>
                </g>
            </g>
        </g>
    </g>
</svg>