<?xml version="1.0" encoding="UTF-8"?>
<svg width="260px" height="83px" viewBox="0 0 260 83" version="1.1" xmlns="http://www.w3.org/2000/svg" xmlns:xlink="http://www.w3.org/1999/xlink">
    <!-- Generator: Sketch 57.1 (83088) - https://sketch.com -->
    <title>visuel-agriculture</title>
    <desc>Created with Sketch.</desc>
    <defs>
        <rect id="path-1" x="0" y="0" width="260" height="83"></rect>
    </defs>
    <g id="Page-dépôt-boites-à-idées" stroke="none" stroke-width="1" fill="none" fill-rule="evenodd">
        <g id="visuel-agriculture">
            <mask id="mask-2" fill="white">
                <use xlink:href="#path-1"></use>
            </mask>
            <use id="Rectangle" fill="#D3D3D3" xlink:href="#path-1"></use>
            <g id="Group-5" mask="url(#mask-2)">
                <g transform="translate(-23.000000, -30.000000)" id="Group-16">
                    <g>
                        <g id="Group-5">
                            <path d="M15.420766,1.41555821 C46.4205389,-2.81367365 77.2819274,3.48614153 108.004932,20.3150037 C121.686614,27.8092951 199.172444,19.5956699 218.791824,25.4733323 C265.257115,39.3936133 255.376835,63.5728834 286.371058,63.5728834 L173.644593,65.1414826 L15.420766,65.1414826 L15.420766,1.41555821 Z" id="Path-2" fill="#DCE6C7" transform="translate(150.895912, 32.641483) scale(-1, 1) translate(-150.895912, -32.641483) "></path>
                            <path d="M3.8661774,28.795025 C29.9162027,16.2875649 57.5527886,17.5697174 86.775935,32.6414826 C108.998494,44.1027121 184.082924,53.2212901 208.631222,59.7265324 C232.505241,66.0530922 249.266344,85.1414826 271,85.1414826 L127.653632,85.1414826 L4.54747351e-13,85.1414826 L3.8661774,28.795025 Z" id="Path-2" fill="#C8D2B2"></path>
                            <path d="M15.420766,48.265018 C35.5748647,44.2886935 61.0134161,50.8668808 91.7364203,67.9995798 C105.418102,75.6291769 180.65644,74.1577019 200.275821,80.1414826 C246.741112,94.3130875 255.376835,111.544563 286.371058,111.544563 L173.644593,113.141483 L15.420766,113.141483 L15.420766,48.265018 Z" id="Path-2" fill="#B6C0A1" transform="translate(150.895912, 80.141483) scale(-1, 1) translate(-150.895912, -80.141483) "></path>
                            <path d="M3.8661774,64.0877991 C29.2806209,60.3691468 56.5994159,66.0065471 85.8225623,81 C108.045121,92.4016773 189.165429,94.0611152 213.713728,100.532557 C237.587746,106.826244 270.808151,120.141483 292.541808,120.141483 L127.653632,120.141483 L0,120.141483 L3.8661774,64.0877991 Z" id="Path-2" fill="#A7B094"></path>
                        </g>
                        <g id="agriculture-machine-tractor" opacity="0.798153832" transform="translate(133.000000, 53.000000)" stroke="#FFFFFF" stroke-linecap="round" stroke-linejoin="round" stroke-width="2.19">
                            <ellipse id="Oval" cx="33.5" cy="29" rx="7.5" ry="8"></ellipse>
                            <ellipse id="Oval" cx="6.5" cy="32" rx="4.5" ry="5"></ellipse>
                            <path d="M0,28 L0,20 C3.33460768,18.0500486 6.97022169,16.697262 10.75,16 C12.6805408,15.5331151 14.6394684,15.1990344 16.6136364,15 L17.5909091,25 L21.5,25 C21.5,25 22.4772727,16 33.2272727,16 C37.0992794,15.8790093 40.7713887,17.7577629 43,21" id="Path"></path>
                            <path d="M12,34 L27,34" id="Path"></path>
                            <path d="M34,3 L37,17" id="Path"></path>
                            <path d="M13,16 L16,3" id="Path"></path>
                            <path d="M16,0 L34,0 C35.1045695,0 36,0.671572875 36,1.5 L36,2.25 C36,2.66421356 35.5522847,3 35,3 L15,3 C14.4477153,3 14,2.66421356 14,2.25 L14,1.5 C14,0.671572875 14.8954305,0 16,0 Z" id="Path"></path>
                            <path d="M17,16 L20,14" id="Path"></path>
                            <path d="M19,12 L21,15" id="Path"></path>
                            <path d="M21,20 L24,20" id="Path"></path>
                            <path d="M28.418,17 L29.582,11" id="Path"></path>
                            <circle id="Oval" cx="33" cy="29" r="3"></circle>
                            <path d="M9,23 L17,23" id="Path"></path>
                        </g>
                    </g>
                </g>
            </g>
        </g>
    </g>
</svg>